<svg xmlns="http://www.w3.org/2000/svg" xmlns:xlink="http://www.w3.org/1999/xlink" version="1.2" width="210.00mm" height="297.00mm" viewBox="0.0000 -0.0000 119.5016 169.0094">
<style type="text/css">
<![CDATA[
tspan { white-space: pre; }
]]>
</style>
<g transform="translate(47.3909, 6.9166)">
<text font-family="Optima" font-weight="bold" font-size="4.3999" text-anchor="start" fill="currentColor">
<tspan>S</tspan>
</text>
</g>
<g transform="translate(49.5761, 6.9166)">
<text font-family="Optima" font-weight="bold" font-size="3.4923" text-anchor="start" fill="currentColor">
<tspan>ILENT</tspan>
</text>
</g>
<g transform="translate(58.8972, 6.9166)">
<text font-family="Optima" font-weight="bold" font-size="4.3999" text-anchor="start" fill="currentColor">
<tspan> N</tspan>
</text>
</g>
<g transform="translate(63.5407, 6.9166)">
<text font-family="Optima" font-weight="bold" font-size="3.4923" text-anchor="start" fill="currentColor">
<tspan>IGHT</tspan>
</text>
</g>
<g transform="translate(53.4855, 9.9166)">
<text font-family="Optima" font-size="2.2000" text-anchor="start" fill="currentColor">
<tspan>Key: D major</tspan>
</text>
</g>
<g transform="translate(88.5791, 6.9166)">
<text font-family="Optima" font-size="2.2000" text-anchor="start" fill="currentColor">
<tspan>Franz Gruber (1787–1863)</tspan>
</text>
</g>
<g transform="translate(5.6906, 30.0434)">
<rect x="99.2256" y="-0.1050" width="1.9563" height="0.2100" ry="0.1050" fill="currentColor"/>
</g>
<g transform="translate(5.6906, 31.1434)">
<rect x="99.2256" y="-0.1050" width="1.9563" height="0.2100" ry="0.1050" fill="currentColor"/>
</g>
<g transform="translate(5.6906, 30.0434)">
<rect x="77.1697" y="-0.1050" width="1.9563" height="0.2100" ry="0.1050" fill="currentColor"/>
</g>
<g transform="translate(5.6906, 30.0434)">
<rect x="55.1496" y="-0.1050" width="1.9563" height="0.2100" ry="0.1050" fill="currentColor"/>
</g>
<g transform="translate(5.6906, 31.1434)">
<rect x="55.1496" y="-0.1050" width="1.9563" height="0.2100" ry="0.1050" fill="currentColor"/>
</g>
<g transform="translate(5.6906, 32.2434)">
<rect x="55.1496" y="-0.1050" width="1.9563" height="0.2100" ry="0.1050" fill="currentColor"/>
</g>
<g transform="translate(5.6906, 30.0434)">
<rect x="50.2283" y="-0.1050" width="1.9563" height="0.2100" ry="0.1050" fill="currentColor"/>
</g>
<g transform="translate(5.6906, 31.1434)">
<rect x="50.2283" y="-0.1050" width="1.9563" height="0.2100" ry="0.1050" fill="currentColor"/>
</g>
<g transform="translate(5.6906, 30.0434)">
<rect x="46.9905" y="-0.1050" width="1.9563" height="0.2100" ry="0.1050" fill="currentColor"/>
</g>
<g transform="translate(5.6906, 30.0434)">
<rect x="40.6881" y="-0.1050" width="1.9563" height="0.2100" ry="0.1050" fill="currentColor"/>
</g>
<g transform="translate(5.6906, 31.1434)">
<rect x="40.6881" y="-0.1050" width="1.9563" height="0.2100" ry="0.1050" fill="currentColor"/>
</g>
<g transform="translate(5.6906, 30.0434)">
<rect x="30.9442" y="-0.1050" width="1.9563" height="0.2100" ry="0.1050" fill="currentColor"/>
</g>
<g transform="translate(5.6906, 31.1434)">
<rect x="30.9442" y="-0.1050" width="1.9563" height="0.2100" ry="0.1050" fill="currentColor"/>
</g>
<g transform="translate(5.6906, 32.2434)">
<rect x="30.9442" y="-0.1050" width="1.9563" height="0.2100" ry="0.1050" fill="currentColor"/>
</g>
<g transform="translate(5.6906, 30.0434)">
<rect x="26.0229" y="-0.1050" width="1.9563" height="0.2100" ry="0.1050" fill="currentColor"/>
</g>
<g transform="translate(5.6906, 31.1434)">
<rect x="26.0229" y="-0.1050" width="1.9563" height="0.2100" ry="0.1050" fill="currentColor"/>
</g>
<g transform="translate(5.6906, 30.0434)">
<rect x="22.7851" y="-0.1050" width="1.9563" height="0.2100" ry="0.1050" fill="currentColor"/>
</g>
<g transform="translate(5.6906, 30.0434)">
<rect x="16.4827" y="-0.1050" width="1.9563" height="0.2100" ry="0.1050" fill="currentColor"/>
</g>
<g transform="translate(5.6906, 31.1434)">
<rect x="16.4827" y="-0.1050" width="1.9563" height="0.2100" ry="0.1050" fill="currentColor"/>
</g>
<g transform="translate(11.3811, 28.9434)">
<line stroke-linejoin="round" stroke-linecap="round" stroke-width="0.1000" stroke="currentColor" x1="0.0500" y1="0" x2="102.3799" y2="0"/>
</g>
<g transform="translate(11.3811, 27.8434)">
<line stroke-linejoin="round" stroke-linecap="round" stroke-width="0.1000" stroke="currentColor" x1="0.0500" y1="0" x2="102.3799" y2="0"/>
</g>
<g transform="translate(11.3811, 26.7434)">
<line stroke-linejoin="round" stroke-linecap="round" stroke-width="0.1000" stroke="currentColor" x1="0.0500" y1="0" x2="102.3799" y2="0"/>
</g>
<g transform="translate(11.3811, 25.6434)">
<line stroke-linejoin="round" stroke-linecap="round" stroke-width="0.1000" stroke="currentColor" x1="0.0500" y1="0" x2="102.3799" y2="0"/>
</g>
<g transform="translate(11.3811, 24.5434)">
<line stroke-linejoin="round" stroke-linecap="round" stroke-width="0.1000" stroke="currentColor" x1="0.0500" y1="0" x2="102.3799" y2="0"/>
</g>
<g transform="translate(113.6210, 26.7434)">
<rect x="0.0000" y="-2.2000" width="0.1900" height="4.4000" ry="0.0000" fill="currentColor"/>
</g>
<g transform="translate(91.6009, 26.7434)">
<rect x="0.0000" y="-2.2000" width="0.1900" height="4.4000" ry="0.0000" fill="currentColor"/>
</g>
<g transform="translate(69.5450, 26.7434)">
<rect x="0.0000" y="-2.2000" width="0.1900" height="4.4000" ry="0.0000" fill="currentColor"/>
</g>
<g transform="translate(45.3396, 26.7434)">
<rect x="0.0000" y="-2.2000" width="0.1900" height="4.4000" ry="0.0000" fill="currentColor"/>
</g>
<a style="color:inherit;" xlink:href="textedit:///Users/Marc/Projects/violin-music.github.io/tunes/Christmas/Silent-Night/silent-night_music.ily:11:4:5">
<g transform="translate(22.4993, 31.1434)">
<path transform="scale(0.0040, -0.0040)" d="M218 136c66 0 108 -36 108 -89c0 -89 -113 -183 -218 -183c-66 0 -108 36 -108 89c0 89 113 183 218 183z" fill="currentColor"/>
</g>
</a>
<g transform="translate(12.1811, 27.8434)">
<path transform="scale(0.0040, -0.0040)" d="M266 -635h-6c-108 0 -195 88 -195 197c0 58 53 103 112 103c54 0 95 -47 95 -103c0 -52 -43 -95 -95 -95c-11 0 -21 2 -31 6c26 -39 68 -65 117 -65h4zM461 -203c68 24 113 90 113 164c0 90 -66 179 -173 190c19 -89 48 -242 60 -354zM74 28c0 -145 141 -247 264 -247
c1 0 47 0 82 6c-7 64 -29 203 -63 364c-79 -8 -124 -61 -124 -119c0 -44 25 -91 81 -123c5 -5 7 -10 7 -15c0 -11 -10 -22 -22 -22c-15 0 -126 62 -126 187c0 88 58 174 160 197c-14 58 -29 117 -46 175c-107 -121 -213 -243 -213 -403zM250 553c-29 96 -52 170 -52 346
c0 115 55 224 149 292c6 5 14 5 20 0c68 -80 133 -245 133 -358c0 -143 -86 -255 -180 -364c21 -68 39 -138 56 -207c2 0 7 1 13 1c155 0 256 -128 256 -261c0 -113 -74 -212 -180 -246c3 -35 5 -70 5 -105c0 -19 -1 -39 -2 -58c-7 -119 -88 -225 -202 -228l1 43
c93 2 153 92 159 191c1 18 2 37 2 55c0 31 -1 61 -4 92c-5 -1 -44 -8 -89 -8c-193 0 -333 180 -333 374c0 177 131 306 248 441zM428 916c0 34 1 66 -20 129c-99 -48 -162 -149 -162 -259c0 -52 12 -115 36 -194c80 97 146 198 146 324z" fill="currentColor"/>
</g>
<a style="color:inherit;" xlink:href="textedit:///Users/Marc/Projects/violin-music.github.io/tunes/Christmas/Silent-Night/Silent-Night_%28D%29.ly:20:6:7">
<g transform="translate(15.6811, 24.5434)">
<path transform="scale(0.0040, -0.0040)" d="M0 119c0 8 5 15 13 18l46 17v158c0 10 8 19 18 19s19 -9 19 -19v-145l83 31v158c0 10 9 19 19 19s18 -9 18 -19v-145l32 12c2 1 5 1 7 1c11 0 20 -9 20 -20v-60c0 -8 -5 -16 -13 -19l-46 -16v-160l32 11c2 1 5 1 7 1c11 0 20 -9 20 -20v-60c0 -8 -5 -15 -13 -18l-46 -17
v-158c0 -10 -8 -19 -18 -19s-19 9 -19 19v145l-83 -31v-158c0 -10 -9 -19 -19 -19s-18 9 -18 19v145l-32 -12c-2 -1 -5 -1 -7 -1c-11 0 -20 9 -20 20v60c0 8 5 16 13 19l46 16v160l-32 -11c-2 -1 -5 -1 -7 -1c-11 0 -20 9 -20 20v60zM179 95l-83 -30v-160l83 30v160z" fill="currentColor"/>
</g>
<g transform="translate(16.7811, 26.1934)">
<path transform="scale(0.0040, -0.0040)" d="M0 119c0 8 5 15 13 18l46 17v158c0 10 8 19 18 19s19 -9 19 -19v-145l83 31v158c0 10 9 19 19 19s18 -9 18 -19v-145l32 12c2 1 5 1 7 1c11 0 20 -9 20 -20v-60c0 -8 -5 -16 -13 -19l-46 -16v-160l32 11c2 1 5 1 7 1c11 0 20 -9 20 -20v-60c0 -8 -5 -15 -13 -18l-46 -17
v-158c0 -10 -8 -19 -18 -19s-19 9 -19 19v145l-83 -31v-158c0 -10 -9 -19 -19 -19s-18 9 -18 19v145l-32 -12c-2 -1 -5 -1 -7 -1c-11 0 -20 9 -20 20v60c0 8 5 16 13 19l46 16v160l-32 -11c-2 -1 -5 -1 -7 -1c-11 0 -20 9 -20 20v60zM179 95l-83 -30v-160l83 30v160z" fill="currentColor"/>
</g>
</a>
<a style="color:inherit;" xlink:href="textedit:///Users/Marc/Projects/violin-music.github.io/tunes/Christmas/Silent-Night/silent-night_music.ily:8:2:3">
<g transform="translate(19.0823, 26.7434)">
<path transform="scale(0.0040, -0.0040)" d="M170 259c-51 0 -53 -43 -53 -100v-18v-18c0 -57 2 -100 53 -100c57 0 61 51 61 118s-4 118 -61 118zM117 266c15 10 33 16 53 16c101 0 170 -46 170 -141s-69 -141 -170 -141c-112 0 -170 124 -170 250c0 128 72 250 190 250c70 0 136 -39 136 -103
c0 -36 -29 -66 -65 -66s-66 30 -66 66c0 24 40 25 40 49c0 20 -23 31 -45 31c-66 0 -75 -65 -75 -139c0 -24 2 -48 2 -72z" fill="currentColor"/>
</g>
<g transform="translate(19.0311, 28.7435)">
<path transform="scale(0.0040, -0.0040)" d="M261 287c25 30 44 64 44 103c0 54 -55 87 -114 87c-46 0 -73 -36 -73 -71c0 -21 10 -42 31 -54zM292 269c23 -13 80 -54 80 -125c0 -73 -66 -144 -189 -144c-94 0 -183 54 -183 140c0 50 36 87 72 123c-37 28 -55 66 -55 103c0 68 60 134 174 134c80 0 157 -39 157 -110
c0 -46 -25 -86 -56 -121zM103 244c-31 -30 -59 -61 -59 -104c0 -69 66 -117 139 -117c54 0 86 42 86 83c0 24 -10 48 -35 62z" fill="currentColor"/>
</g>
</a>
<a style="color:inherit;" xlink:href="textedit:///Users/Marc/Projects/violin-music.github.io/tunes/Christmas/Silent-Night/silent-night_music.ily:29:2:3">
<g transform="translate(22.4993, 34.7512)">
<text font-family="Optima" font-size="1.7459" text-anchor="start" fill="currentColor">
<tspan>Si</tspan>
</text>
</g>
</a>
<a style="color:inherit;" xlink:href="textedit:///Users/Marc/Projects/violin-music.github.io/tunes/Christmas/Silent-Night/silent-night_music.ily:10:2:3">
<g transform="translate(20.5891, 23.1789)">
<path transform="scale(0.0036, -0.0036)" d="M0 0c0 31 25 56 56 56s55 -25 55 -56s-24 -56 -55 -56s-56 25 -56 56z" fill="currentColor"/>
</g>
<g transform="translate(19.0311, 23.1789)">
<rect x="1.0449" y="-2.6727" width="0.1158" height="2.5129" ry="0.0193" fill="currentColor"/>
</g>
<g transform="translate(19.0311, 23.1789)">
<path transform="scale(0.0036, -0.0036)" d="M215 137c67 0 111 -37 111 -92c0 -90 -111 -182 -215 -182c-67 0 -111 37 -111 92c0 90 111 182 215 182z" fill="currentColor"/>
</g>
<g transform="translate(20.9864, 23.6677)">
<text font-family="serif" font-size="2.2000" text-anchor="start" fill="currentColor">
<tspan> = 50</tspan>
</text>
</g>
</a>
<g transform="translate(24.2535, 30.5934)">
<path transform="scale(0.0040, -0.0040)" d="M0 0c0 31 25 56 56 56s56 -25 56 -56s-25 -56 -56 -56s-56 25 -56 56z" fill="currentColor"/>
</g>
<g transform="translate(23.7385, 26.7434)">
<rect x="-0.0650" y="0.0000" width="0.1300" height="4.2139" ry="0.0400" fill="currentColor"/>
</g>
<a style="color:inherit;" xlink:href="textedit:///Users/Marc/Projects/violin-music.github.io/tunes/Christmas/Silent-Night/silent-night_music.ily:11:10:11">
<g transform="translate(28.8017, 30.5934)">
<path transform="scale(0.0040, -0.0040)" d="M218 136c66 0 108 -36 108 -89c0 -89 -113 -183 -218 -183c-66 0 -108 36 -108 89c0 89 113 183 218 183z" fill="currentColor"/>
</g>
</a>
<g transform="translate(30.0409, 26.7434)">
<rect x="-0.0650" y="0.0000" width="0.1300" height="3.6639" ry="0.0400" fill="currentColor"/>
</g>
<a style="color:inherit;" xlink:href="textedit:///Users/Marc/Projects/violin-music.github.io/tunes/Christmas/Silent-Night/silent-night_music.ily:11:16:17">
<g transform="translate(32.0395, 31.1434)">
<path transform="scale(0.0040, -0.0040)" d="M218 136c66 0 108 -36 108 -89c0 -89 -113 -183 -218 -183c-66 0 -108 36 -108 89c0 89 113 183 218 183z" fill="currentColor"/>
</g>
</a>
<g transform="translate(33.2787, 26.7434)">
<rect x="-0.0650" y="0.0000" width="0.1300" height="4.2139" ry="0.0400" fill="currentColor"/>
</g>
<a style="color:inherit;" xlink:href="textedit:///Users/Marc/Projects/violin-music.github.io/tunes/Christmas/Silent-Night/silent-night_music.ily:11:20:21">
<g transform="translate(36.9608, 32.2434)">
<path transform="scale(0.0040, -0.0040)" d="M218 136c66 0 108 -36 108 -89c0 -89 -113 -183 -218 -183c-66 0 -108 36 -108 89c0 89 113 183 218 183z" fill="currentColor"/>
</g>
</a>
<a style="color:inherit;" xlink:href="textedit:///Users/Marc/Projects/violin-music.github.io/tunes/Christmas/Silent-Night/silent-night_music.ily:29:10:11">
<g transform="translate(36.2130, 34.7512)">
<text font-family="Optima" font-size="1.7459" text-anchor="start" fill="currentColor">
<tspan>lent</tspan>
</text>
</g>
</a>
<g transform="translate(38.7150, 31.6934)">
<path transform="scale(0.0040, -0.0040)" d="M0 0c0 31 25 56 56 56s56 -25 56 -56s-25 -56 -56 -56s-56 25 -56 56z" fill="currentColor"/>
</g>
<g transform="translate(38.2000, 26.7434)">
<rect x="-0.0650" y="-0.0000" width="0.1300" height="5.3139" ry="0.0400" fill="currentColor"/>
</g>
<g transform="translate(47.8789, 26.7434)">
<polygon stroke-linejoin="round" stroke-linecap="round" stroke-width="0.0800" fill="currentColor" stroke="currentColor" points="9.6302 -0.2240 9.6302 0.2240 0.0400 0.2240 0.0400 -0.2240"/>
</g>
<g transform="translate(53.1463, 27.6294)">
<polygon stroke-linejoin="round" stroke-linecap="round" stroke-width="0.0800" fill="currentColor" stroke="currentColor" points="1.1250 -0.2240 1.1250 0.2240 0.0400 0.2240 0.0400 -0.2240"/>
</g>
<a style="color:inherit;" xlink:href="textedit:///Users/Marc/Projects/violin-music.github.io/tunes/Christmas/Silent-Night/silent-night_music.ily:12:4:5">
<g transform="translate(46.7047, 31.1434)">
<path transform="scale(0.0040, -0.0040)" d="M218 136c66 0 108 -36 108 -89c0 -89 -113 -183 -218 -183c-66 0 -108 36 -108 89c0 89 113 183 218 183z" fill="currentColor"/>
</g>
</a>
<a style="color:inherit;" xlink:href="textedit:///Users/Marc/Projects/violin-music.github.io/tunes/Christmas/Silent-Night/silent-night_music.ily:29:15:16">
<g transform="translate(46.7047, 34.7512)">
<text font-family="Optima" font-size="1.7459" text-anchor="start" fill="currentColor">
<tspan>night,</tspan>
</text>
</g>
</a>
<g transform="translate(48.4589, 30.5934)">
<path transform="scale(0.0040, -0.0040)" d="M0 0c0 31 25 56 56 56s56 -25 56 -56s-25 -56 -56 -56s-56 25 -56 56z" fill="currentColor"/>
</g>
<g transform="translate(47.9439, 26.7434)">
<rect x="-0.0650" y="0.0000" width="0.1300" height="4.2139" ry="0.0400" fill="currentColor"/>
</g>
<a style="color:inherit;" xlink:href="textedit:///Users/Marc/Projects/violin-music.github.io/tunes/Christmas/Silent-Night/silent-night_music.ily:12:10:11">
<g transform="translate(53.0071, 30.5934)">
<path transform="scale(0.0040, -0.0040)" d="M218 136c66 0 108 -36 108 -89c0 -89 -113 -183 -218 -183c-66 0 -108 36 -108 89c0 89 113 183 218 183z" fill="currentColor"/>
</g>
</a>
<g transform="translate(54.2463, 26.7434)">
<rect x="-0.0650" y="0.0000" width="0.1300" height="3.6639" ry="0.0400" fill="currentColor"/>
</g>
<a style="color:inherit;" xlink:href="textedit:///Users/Marc/Projects/violin-music.github.io/tunes/Christmas/Silent-Night/silent-night_music.ily:12:16:17">
<g transform="translate(56.2449, 31.1434)">
<path transform="scale(0.0040, -0.0040)" d="M218 136c66 0 108 -36 108 -89c0 -89 -113 -183 -218 -183c-66 0 -108 36 -108 89c0 89 113 183 218 183z" fill="currentColor"/>
</g>
</a>
<a style="color:inherit;" xlink:href="textedit:///Users/Marc/Projects/violin-music.github.io/tunes/Christmas/Silent-Night/silent-night_music.ily:29:22:23">
<g transform="translate(55.6507, 34.7512)">
<text font-family="Optima" font-size="1.7459" text-anchor="start" fill="currentColor">
<tspan>ho-</tspan>
</text>
</g>
</a>
<g transform="translate(57.4841, 26.7434)">
<rect x="-0.0650" y="0.0000" width="0.1300" height="4.2139" ry="0.0400" fill="currentColor"/>
</g>
<a style="color:inherit;" xlink:href="textedit:///Users/Marc/Projects/violin-music.github.io/tunes/Christmas/Silent-Night/silent-night_music.ily:12:8:9">
<g transform="translate(46.7047, 26.7434)">
<path stroke-width="0.0800" stroke-linejoin="round" stroke-linecap="round" stroke="currentColor" fill="currentColor" d="M0.6899 5.4950C2.1870 6.6140 5.7117 6.3064 6.9923 4.9450L6.9923 4.9450C5.7012 6.1869 2.1766 6.4945 0.6899 5.4950z"/>
</g>
</a>
<a style="color:inherit;" xlink:href="textedit:///Users/Marc/Projects/violin-music.github.io/tunes/Christmas/Silent-Night/silent-night_music.ily:12:20:21">
<g transform="translate(61.1662, 32.2434)">
<path transform="scale(0.0040, -0.0040)" d="M218 136c66 0 108 -36 108 -89c0 -89 -113 -183 -218 -183c-66 0 -108 36 -108 89c0 89 113 183 218 183z" fill="currentColor"/>
</g>
</a>
<a style="color:inherit;" xlink:href="textedit:///Users/Marc/Projects/violin-music.github.io/tunes/Christmas/Silent-Night/silent-night_music.ily:29:26:27">
<g transform="translate(61.1354, 34.7512)">
<text font-family="Optima" font-size="1.7459" text-anchor="start" fill="currentColor">
<tspan>ly</tspan>
</text>
</g>
</a>
<g transform="translate(62.9204, 31.6934)">
<path transform="scale(0.0040, -0.0040)" d="M0 0c0 31 25 56 56 56s56 -25 56 -56s-25 -56 -56 -56s-56 25 -56 56z" fill="currentColor"/>
</g>
<g transform="translate(62.4054, 26.7434)">
<rect x="-0.0650" y="-0.0000" width="0.1300" height="5.3139" ry="0.0400" fill="currentColor"/>
</g>
<g transform="translate(23.6735, 26.7434)">
<polygon stroke-linejoin="round" stroke-linecap="round" stroke-width="0.0800" fill="currentColor" stroke="currentColor" points="9.6302 -0.2240 9.6302 0.2240 0.0400 0.2240 0.0400 -0.2240"/>
</g>
<g transform="translate(28.9409, 27.6294)">
<polygon stroke-linejoin="round" stroke-linecap="round" stroke-width="0.0800" fill="currentColor" stroke="currentColor" points="1.1250 -0.2240 1.1250 0.2240 0.0400 0.2240 0.0400 -0.2240"/>
</g>
<a style="color:inherit;" xlink:href="textedit:///Users/Marc/Projects/violin-music.github.io/tunes/Christmas/Silent-Night/silent-night_music.ily:13:4:5">
<g transform="translate(70.9101, 28.9434)">
<path transform="scale(0.0040, -0.0040)" d="M218 136c66 0 108 -36 108 -89c0 -89 -113 -183 -218 -183c-66 0 -108 36 -108 89c0 89 113 183 218 183z" fill="currentColor"/>
</g>
</a>
<a style="color:inherit;" xlink:href="textedit:///Users/Marc/Projects/violin-music.github.io/tunes/Christmas/Silent-Night/silent-night_music.ily:29:29:30">
<g transform="translate(69.4453, 34.7512)">
<text font-family="Optima" font-size="1.7459" text-anchor="start" fill="currentColor">
<tspan>night,</tspan>
</text>
</g>
</a>
<g transform="translate(72.1493, 26.7434)">
<rect x="-0.0650" y="-1.6500" width="0.1300" height="3.6639" ry="0.0400" fill="currentColor"/>
</g>
<a style="color:inherit;" xlink:href="textedit:///Users/Marc/Projects/violin-music.github.io/tunes/Christmas/Silent-Night/silent-night_music.ily:29:5:6">
<g transform="translate(29.7090, 34.7512)">
<rect x="0.0000" y="-0.5500" width="0.6600" height="0.1300" ry="0.0400" fill="currentColor"/>
</g>
</a>
<a style="color:inherit;" xlink:href="textedit:///Users/Marc/Projects/violin-music.github.io/tunes/Christmas/Silent-Night/silent-night_music.ily:13:9:10">
<g transform="translate(78.0150, 28.9434)">
<path transform="scale(0.0040, -0.0040)" d="M218 136c66 0 108 -36 108 -89c0 -89 -113 -183 -218 -183c-66 0 -108 36 -108 89c0 89 113 183 218 183z" fill="currentColor"/>
</g>
</a>
<a style="color:inherit;" xlink:href="textedit:///Users/Marc/Projects/violin-music.github.io/tunes/Christmas/Silent-Night/silent-night_music.ily:30:2:3">
<g transform="translate(77.7452, 34.7512)">
<text font-family="Optima" font-size="1.7459" text-anchor="start" fill="currentColor">
<tspan>all</tspan>
</text>
</g>
</a>
<g transform="translate(79.2542, 26.7434)">
<rect x="-0.0650" y="-1.6500" width="0.1300" height="3.6639" ry="0.0400" fill="currentColor"/>
</g>
<g transform="translate(79.3192, 25.1334)">
<path transform="scale(0.0040, -0.0040)" d="M0 0v-250h-16v250h16zM0 0c0 -197 207 -336 207 -533c0 -71 -15 -141 -41 -207c-5 -8 -13 -12 -20 -12c-13 0 -26 11 -23 27c26 61 42 126 42 192c0 103 -94 208 -165 283v250z" fill="currentColor"/>
</g>
<a style="color:inherit;" xlink:href="textedit:///Users/Marc/Projects/violin-music.github.io/tunes/Christmas/Silent-Night/silent-night_music.ily:11:8:9">
<g transform="translate(22.4993, 26.7434)">
<path stroke-width="0.0800" stroke-linejoin="round" stroke-linecap="round" stroke="currentColor" fill="currentColor" d="M0.6899 5.4950C2.1870 6.6140 5.7117 6.3064 6.9923 4.9450L6.9923 4.9450C5.7012 6.1869 2.1766 6.4945 0.6899 5.4950z"/>
</g>
</a>
<a style="color:inherit;" xlink:href="textedit:///Users/Marc/Projects/violin-music.github.io/tunes/Christmas/Silent-Night/silent-night_music.ily:13:14:15">
<g transform="translate(83.1864, 30.0434)">
<path transform="scale(0.0040, -0.0040)" d="M218 136c66 0 108 -36 108 -89c0 -89 -113 -183 -218 -183c-66 0 -108 36 -108 89c0 89 113 183 218 183z" fill="currentColor"/>
</g>
</a>
<a style="color:inherit;" xlink:href="textedit:///Users/Marc/Projects/violin-music.github.io/tunes/Christmas/Silent-Night/silent-night_music.ily:30:6:7">
<g transform="translate(83.2580, 34.7512)">
<text font-family="Optima" font-size="1.7459" text-anchor="start" fill="currentColor">
<tspan>is</tspan>
</text>
</g>
</a>
<g transform="translate(84.9406, 29.4934)">
<path transform="scale(0.0040, -0.0040)" d="M0 0c0 31 25 56 56 56s56 -25 56 -56s-25 -56 -56 -56s-56 25 -56 56z" fill="currentColor"/>
</g>
<g transform="translate(84.4256, 26.7434)">
<rect x="-0.0650" y="-0.5500" width="0.1300" height="3.6639" ry="0.0400" fill="currentColor"/>
</g>
<a style="color:inherit;" xlink:href="textedit:///Users/Marc/Projects/violin-music.github.io/tunes/Christmas/Silent-Night/silent-night_music.ily:14:4:5">
<g transform="translate(92.9660, 29.4934)">
<path transform="scale(0.0040, -0.0040)" d="M218 136c66 0 108 -36 108 -89c0 -89 -113 -183 -218 -183c-66 0 -108 36 -108 89c0 89 113 183 218 183z" fill="currentColor"/>
</g>
</a>
<a style="color:inherit;" xlink:href="textedit:///Users/Marc/Projects/violin-music.github.io/tunes/Christmas/Silent-Night/silent-night_music.ily:30:9:10">
<g transform="translate(91.5183, 34.7512)">
<text font-family="Optima" font-size="1.7459" text-anchor="start" fill="currentColor">
<tspan>calm,</tspan>
</text>
</g>
</a>
<g transform="translate(94.2052, 26.7434)">
<rect x="-0.0650" y="-1.1000" width="0.1300" height="3.6639" ry="0.0400" fill="currentColor"/>
</g>
<a style="color:inherit;" xlink:href="textedit:///Users/Marc/Projects/violin-music.github.io/tunes/Christmas/Silent-Night/silent-night_music.ily:14:9:10">
<g transform="translate(100.0709, 29.4934)">
<path transform="scale(0.0040, -0.0040)" d="M218 136c66 0 108 -36 108 -89c0 -89 -113 -183 -218 -183c-66 0 -108 36 -108 89c0 89 113 183 218 183z" fill="currentColor"/>
</g>
</a>
<a style="color:inherit;" xlink:href="textedit:///Users/Marc/Projects/violin-music.github.io/tunes/Christmas/Silent-Night/silent-night_music.ily:30:15:16">
<g transform="translate(99.8011, 34.7512)">
<text font-family="Optima" font-size="1.7459" text-anchor="start" fill="currentColor">
<tspan>all</tspan>
</text>
</g>
</a>
<g transform="translate(101.3101, 26.7434)">
<rect x="-0.0650" y="-1.1000" width="0.1300" height="3.6639" ry="0.0400" fill="currentColor"/>
</g>
<g transform="translate(101.3751, 25.6834)">
<path transform="scale(0.0040, -0.0040)" d="M0 0v-250h-16v250h16zM0 0c0 -197 207 -336 207 -533c0 -71 -15 -141 -41 -207c-5 -8 -13 -12 -20 -12c-13 0 -26 11 -23 27c26 61 42 126 42 192c0 103 -94 208 -165 283v250z" fill="currentColor"/>
</g>
<a style="color:inherit;" xlink:href="textedit:///Users/Marc/Projects/violin-music.github.io/tunes/Christmas/Silent-Night/silent-night_music.ily:14:14:15">
<g transform="translate(105.2422, 31.1434)">
<path transform="scale(0.0040, -0.0040)" d="M218 136c66 0 108 -36 108 -89c0 -89 -113 -183 -218 -183c-66 0 -108 36 -108 89c0 89 113 183 218 183z" fill="currentColor"/>
</g>
</a>
<a style="color:inherit;" xlink:href="textedit:///Users/Marc/Projects/violin-music.github.io/tunes/Christmas/Silent-Night/silent-night_music.ily:30:19:20">
<g transform="translate(105.3139, 34.7512)">
<text font-family="Optima" font-size="1.7459" text-anchor="start" fill="currentColor">
<tspan>is</tspan>
</text>
</g>
</a>
<g transform="translate(106.9964, 30.5934)">
<path transform="scale(0.0040, -0.0040)" d="M0 0c0 31 25 56 56 56s56 -25 56 -56s-25 -56 -56 -56s-56 25 -56 56z" fill="currentColor"/>
</g>
<g transform="translate(106.4814, 26.7434)">
<rect x="-0.0650" y="-0.0000" width="0.1300" height="4.2139" ry="0.0400" fill="currentColor"/>
</g>
<g transform="translate(5.6906, 46.0434)">
<rect x="99.7197" y="-0.1050" width="1.9563" height="0.2100" ry="0.1050" fill="currentColor"/>
</g>
<g transform="translate(5.6906, 47.1434)">
<rect x="99.7197" y="-0.1050" width="1.9563" height="0.2100" ry="0.1050" fill="currentColor"/>
</g>
<g transform="translate(5.6906, 48.2434)">
<rect x="99.7197" y="-0.1050" width="1.9563" height="0.2100" ry="0.1050" fill="currentColor"/>
</g>
<g transform="translate(5.6906, 46.0434)">
<rect x="95.0740" y="-0.1050" width="1.9563" height="0.2100" ry="0.1050" fill="currentColor"/>
</g>
<g transform="translate(5.6906, 47.1434)">
<rect x="95.0740" y="-0.1050" width="1.9563" height="0.2100" ry="0.1050" fill="currentColor"/>
</g>
<g transform="translate(5.6906, 46.0434)">
<rect x="91.9608" y="-0.1050" width="1.9563" height="0.2100" ry="0.1050" fill="currentColor"/>
</g>
<g transform="translate(5.6906, 46.0434)">
<rect x="86.0147" y="-0.1050" width="1.9563" height="0.2100" ry="0.1050" fill="currentColor"/>
</g>
<g transform="translate(5.6906, 47.1434)">
<rect x="86.0147" y="-0.1050" width="1.9563" height="0.2100" ry="0.1050" fill="currentColor"/>
</g>
<g transform="translate(5.6906, 46.0434)">
<rect x="79.5913" y="-0.1050" width="1.9563" height="0.2100" ry="0.1050" fill="currentColor"/>
</g>
<g transform="translate(5.6906, 46.0434)">
<rect x="76.4913" y="-0.1050" width="1.9563" height="0.2100" ry="0.1050" fill="currentColor"/>
</g>
<g transform="translate(5.6906, 46.0434)">
<rect x="65.6495" y="-0.1050" width="1.9563" height="0.2100" ry="0.1050" fill="currentColor"/>
</g>
<g transform="translate(5.6906, 46.0434)">
<rect x="58.9581" y="-0.1050" width="1.9563" height="0.2100" ry="0.1050" fill="currentColor"/>
</g>
<g transform="translate(5.6906, 46.0434)">
<rect x="49.7599" y="-0.1050" width="1.9563" height="0.2100" ry="0.1050" fill="currentColor"/>
</g>
<g transform="translate(5.6906, 47.1434)">
<rect x="49.7599" y="-0.1050" width="1.9563" height="0.2100" ry="0.1050" fill="currentColor"/>
</g>
<g transform="translate(5.6906, 48.2434)">
<rect x="49.7599" y="-0.1050" width="1.9563" height="0.2100" ry="0.1050" fill="currentColor"/>
</g>
<g transform="translate(5.6906, 46.0434)">
<rect x="45.1142" y="-0.1050" width="1.9563" height="0.2100" ry="0.1050" fill="currentColor"/>
</g>
<g transform="translate(5.6906, 47.1434)">
<rect x="45.1142" y="-0.1050" width="1.9563" height="0.2100" ry="0.1050" fill="currentColor"/>
</g>
<g transform="translate(5.6906, 46.0434)">
<rect x="41.6767" y="-0.1050" width="1.9563" height="0.2100" ry="0.1050" fill="currentColor"/>
</g>
<g transform="translate(5.6906, 46.0434)">
<rect x="35.7306" y="-0.1050" width="1.9563" height="0.2100" ry="0.1050" fill="currentColor"/>
</g>
<g transform="translate(5.6906, 47.1434)">
<rect x="35.7306" y="-0.1050" width="1.9563" height="0.2100" ry="0.1050" fill="currentColor"/>
</g>
<g transform="translate(5.6906, 46.0434)">
<rect x="29.3072" y="-0.1050" width="1.9563" height="0.2100" ry="0.1050" fill="currentColor"/>
</g>
<g transform="translate(5.6906, 46.0434)">
<rect x="26.2072" y="-0.1050" width="1.9563" height="0.2100" ry="0.1050" fill="currentColor"/>
</g>
<g transform="translate(5.6906, 46.0434)">
<rect x="15.3654" y="-0.1050" width="1.9563" height="0.2100" ry="0.1050" fill="currentColor"/>
</g>
<g transform="translate(5.6906, 46.0434)">
<rect x="8.6740" y="-0.1050" width="1.9563" height="0.2100" ry="0.1050" fill="currentColor"/>
</g>
<g transform="translate(5.6906, 44.9434)">
<line stroke-linejoin="round" stroke-linecap="round" stroke-width="0.1000" stroke="currentColor" x1="0.0500" y1="0" x2="108.0705" y2="0"/>
</g>
<g transform="translate(5.6906, 43.8434)">
<line stroke-linejoin="round" stroke-linecap="round" stroke-width="0.1000" stroke="currentColor" x1="0.0500" y1="0" x2="108.0705" y2="0"/>
</g>
<g transform="translate(5.6906, 42.7434)">
<line stroke-linejoin="round" stroke-linecap="round" stroke-width="0.1000" stroke="currentColor" x1="0.0500" y1="0" x2="108.0705" y2="0"/>
</g>
<g transform="translate(5.6906, 41.6434)">
<line stroke-linejoin="round" stroke-linecap="round" stroke-width="0.1000" stroke="currentColor" x1="0.0500" y1="0" x2="108.0705" y2="0"/>
</g>
<g transform="translate(5.6906, 40.5434)">
<line stroke-linejoin="round" stroke-linecap="round" stroke-width="0.1000" stroke="currentColor" x1="0.0500" y1="0" x2="108.0705" y2="0"/>
</g>
<g transform="translate(113.6210, 42.7434)">
<rect x="0.0000" y="-2.2000" width="0.1900" height="4.4000" ry="0.0000" fill="currentColor"/>
</g>
<g transform="translate(90.7179, 42.7434)">
<rect x="0.0000" y="-2.2000" width="0.1900" height="4.4000" ry="0.0000" fill="currentColor"/>
</g>
<g transform="translate(63.6613, 42.7434)">
<rect x="0.0000" y="-2.2000" width="0.1900" height="4.4000" ry="0.0000" fill="currentColor"/>
</g>
<g transform="translate(40.4338, 42.7434)">
<rect x="0.0000" y="-2.2000" width="0.1900" height="4.4000" ry="0.0000" fill="currentColor"/>
</g>
<g transform="translate(93.2055, 42.7434)">
<polygon stroke-linejoin="round" stroke-linecap="round" stroke-width="0.0800" fill="currentColor" stroke="currentColor" points="9.1493 -0.2240 9.1493 0.2240 0.0400 0.2240 0.0400 -0.2240"/>
</g>
<g transform="translate(98.1166, 43.6294)">
<polygon stroke-linejoin="round" stroke-linecap="round" stroke-width="0.0800" fill="currentColor" stroke="currentColor" points="1.1250 -0.2240 1.1250 0.2240 0.0400 0.2240 0.0400 -0.2240"/>
</g>
<g transform="translate(6.4906, 43.8434)">
<path transform="scale(0.0040, -0.0040)" d="M266 -635h-6c-108 0 -195 88 -195 197c0 58 53 103 112 103c54 0 95 -47 95 -103c0 -52 -43 -95 -95 -95c-11 0 -21 2 -31 6c26 -39 68 -65 117 -65h4zM461 -203c68 24 113 90 113 164c0 90 -66 179 -173 190c19 -89 48 -242 60 -354zM74 28c0 -145 141 -247 264 -247
c1 0 47 0 82 6c-7 64 -29 203 -63 364c-79 -8 -124 -61 -124 -119c0 -44 25 -91 81 -123c5 -5 7 -10 7 -15c0 -11 -10 -22 -22 -22c-15 0 -126 62 -126 187c0 88 58 174 160 197c-14 58 -29 117 -46 175c-107 -121 -213 -243 -213 -403zM250 553c-29 96 -52 170 -52 346
c0 115 55 224 149 292c6 5 14 5 20 0c68 -80 133 -245 133 -358c0 -143 -86 -255 -180 -364c21 -68 39 -138 56 -207c2 0 7 1 13 1c155 0 256 -128 256 -261c0 -113 -74 -212 -180 -246c3 -35 5 -70 5 -105c0 -19 -1 -39 -2 -58c-7 -119 -88 -225 -202 -228l1 43
c93 2 153 92 159 191c1 18 2 37 2 55c0 31 -1 61 -4 92c-5 -1 -44 -8 -89 -8c-193 0 -333 180 -333 374c0 177 131 306 248 441zM428 916c0 34 1 66 -20 129c-99 -48 -162 -149 -162 -259c0 -52 12 -115 36 -194c80 97 146 198 146 324z" fill="currentColor"/>
</g>
<g transform="translate(9.9906, 40.5434)">
<path transform="scale(0.0040, -0.0040)" d="M0 119c0 8 5 15 13 18l46 17v158c0 10 8 19 18 19s19 -9 19 -19v-145l83 31v158c0 10 9 19 19 19s18 -9 18 -19v-145l32 12c2 1 5 1 7 1c11 0 20 -9 20 -20v-60c0 -8 -5 -16 -13 -19l-46 -16v-160l32 11c2 1 5 1 7 1c11 0 20 -9 20 -20v-60c0 -8 -5 -15 -13 -18l-46 -17
v-158c0 -10 -8 -19 -18 -19s-19 9 -19 19v145l-83 -31v-158c0 -10 -9 -19 -19 -19s-18 9 -18 19v145l-32 -12c-2 -1 -5 -1 -7 -1c-11 0 -20 9 -20 20v60c0 8 5 16 13 19l46 16v160l-32 -11c-2 -1 -5 -1 -7 -1c-11 0 -20 9 -20 20v60zM179 95l-83 -30v-160l83 30v160z" fill="currentColor"/>
</g>
<g transform="translate(11.0906, 42.1934)">
<path transform="scale(0.0040, -0.0040)" d="M0 119c0 8 5 15 13 18l46 17v158c0 10 8 19 18 19s19 -9 19 -19v-145l83 31v158c0 10 9 19 19 19s18 -9 18 -19v-145l32 12c2 1 5 1 7 1c11 0 20 -9 20 -20v-60c0 -8 -5 -16 -13 -19l-46 -16v-160l32 11c2 1 5 1 7 1c11 0 20 -9 20 -20v-60c0 -8 -5 -15 -13 -18l-46 -17
v-158c0 -10 -8 -19 -18 -19s-19 9 -19 19v145l-83 -31v-158c0 -10 -9 -19 -19 -19s-18 9 -18 19v145l-32 -12c-2 -1 -5 -1 -7 -1c-11 0 -20 9 -20 20v60c0 8 5 16 13 19l46 16v160l-32 -11c-2 -1 -5 -1 -7 -1c-11 0 -20 9 -20 20v60zM179 95l-83 -30v-160l83 30v160z" fill="currentColor"/>
</g>
<g transform="translate(4.8028, 39.4730)">
<text font-family="serif" font-size="1.7459" text-anchor="start" fill="currentColor">
<tspan>5</tspan>
</text>
</g>
<a style="color:inherit;" xlink:href="textedit:///Users/Marc/Projects/violin-music.github.io/tunes/Christmas/Silent-Night/silent-night_music.ily:16:4:5">
<g transform="translate(14.6906, 46.5934)">
<path transform="scale(0.0040, -0.0040)" d="M218 136c66 0 108 -36 108 -89c0 -89 -113 -183 -218 -183c-66 0 -108 36 -108 89c0 89 113 183 218 183z" fill="currentColor"/>
</g>
</a>
<a style="color:inherit;" xlink:href="textedit:///Users/Marc/Projects/violin-music.github.io/tunes/Christmas/Silent-Night/silent-night_music.ily:30:22:23">
<g transform="translate(12.9356, 50.1318)">
<text font-family="Optima" font-size="1.7459" text-anchor="start" fill="currentColor">
<tspan>bright,</tspan>
</text>
</g>
</a>
<g transform="translate(15.9298, 42.7434)">
<rect x="-0.0650" y="-0.0000" width="0.1300" height="3.6639" ry="0.0400" fill="currentColor"/>
</g>
<a style="color:inherit;" xlink:href="textedit:///Users/Marc/Projects/violin-music.github.io/tunes/Christmas/Silent-Night/silent-night_music.ily:16:8:9">
<g transform="translate(21.3820, 46.5934)">
<path transform="scale(0.0040, -0.0040)" d="M218 136c66 0 108 -36 108 -89c0 -89 -113 -183 -218 -183c-66 0 -108 36 -108 89c0 89 113 183 218 183z" fill="currentColor"/>
</g>
</a>
<a style="color:inherit;" xlink:href="textedit:///Users/Marc/Projects/violin-music.github.io/tunes/Christmas/Silent-Night/silent-night_music.ily:31:2:3">
<g transform="translate(19.3539, 50.1318)">
<text font-family="Optima" font-size="1.7459" text-anchor="start" fill="currentColor">
<tspan>'Round</tspan>
</text>
</g>
</a>
<g transform="translate(22.6212, 42.7434)">
<rect x="-0.0650" y="-0.0000" width="0.1300" height="3.6639" ry="0.0400" fill="currentColor"/>
</g>
<g transform="translate(22.6862, 42.7834)">
<path transform="scale(0.0040, -0.0040)" d="M0 0v-250h-16v250h16zM0 0c0 -197 207 -336 207 -533c0 -71 -15 -141 -41 -207c-5 -8 -13 -12 -20 -12c-13 0 -26 11 -23 27c26 61 42 126 42 192c0 103 -94 208 -165 283v250z" fill="currentColor"/>
</g>
<a style="color:inherit;" xlink:href="textedit:///Users/Marc/Projects/violin-music.github.io/tunes/Christmas/Silent-Night/silent-night_music.ily:16:12:13">
<g transform="translate(26.2777, 45.4934)">
<path transform="scale(0.0040, -0.0040)" d="M218 136c66 0 108 -36 108 -89c0 -89 -113 -183 -218 -183c-66 0 -108 36 -108 89c0 89 113 183 218 183z" fill="currentColor"/>
</g>
</a>
<a style="color:inherit;" xlink:href="textedit:///Users/Marc/Projects/violin-music.github.io/tunes/Christmas/Silent-Night/silent-night_music.ily:31:9:10">
<g transform="translate(26.2777, 50.1318)">
<text font-family="Optima" font-size="1.7459" text-anchor="start" fill="currentColor">
<tspan>yon</tspan>
</text>
</g>
</a>
<g transform="translate(28.0319, 45.4934)">
<path transform="scale(0.0040, -0.0040)" d="M0 0c0 31 25 56 56 56s56 -25 56 -56s-25 -56 -56 -56s-56 25 -56 56z" fill="currentColor"/>
</g>
<g transform="translate(27.5169, 42.7434)">
<rect x="-0.0650" y="-0.8812" width="0.1300" height="3.4451" ry="0.0400" fill="currentColor"/>
</g>
<g transform="translate(77.7360, 41.8574)">
<polygon stroke-linejoin="round" stroke-linecap="round" stroke-width="0.0800" fill="currentColor" stroke="currentColor" points="9.1361 0.4480 9.1361 0.8960 0.0400 0.2240 0.0400 -0.2240"/>
</g>
<g transform="translate(82.6472, 43.1031)">
<polygon stroke-linejoin="round" stroke-linecap="round" stroke-width="0.0800" fill="currentColor" stroke="currentColor" points="1.1250 -0.1387 1.1250 0.3093 0.0400 0.2240 0.0400 -0.2240"/>
</g>
<a style="color:inherit;" xlink:href="textedit:///Users/Marc/Projects/violin-music.github.io/tunes/Christmas/Silent-Night/silent-night_music.ily:16:19:20">
<g transform="translate(32.2238, 46.0434)">
<path transform="scale(0.0040, -0.0040)" d="M218 136c66 0 108 -36 108 -89c0 -89 -113 -183 -218 -183c-66 0 -108 36 -108 89c0 89 113 183 218 183z" fill="currentColor"/>
</g>
</a>
<g transform="translate(33.4630, 42.7434)">
<rect x="-0.0650" y="-0.4458" width="0.1300" height="3.5597" ry="0.0400" fill="currentColor"/>
</g>
<a style="color:inherit;" xlink:href="textedit:///Users/Marc/Projects/violin-music.github.io/tunes/Christmas/Silent-Night/silent-night_music.ily:16:25:26">
<g transform="translate(35.3238, 46.5934)">
<path transform="scale(0.0040, -0.0040)" d="M218 136c66 0 108 -36 108 -89c0 -89 -113 -183 -218 -183c-66 0 -108 36 -108 89c0 89 113 183 218 183z" fill="currentColor"/>
</g>
</a>
<a style="color:inherit;" xlink:href="textedit:///Users/Marc/Projects/violin-music.github.io/tunes/Christmas/Silent-Night/silent-night_music.ily:31:13:14">
<g transform="translate(34.6443, 50.1318)">
<text font-family="Optima" font-size="1.7459" text-anchor="start" fill="currentColor">
<tspan>Vir-</tspan>
</text>
</g>
</a>
<g transform="translate(36.5630, 42.7434)">
<rect x="-0.0650" y="-0.2188" width="0.1300" height="3.8827" ry="0.0400" fill="currentColor"/>
</g>
<a style="color:inherit;" xlink:href="textedit:///Users/Marc/Projects/violin-music.github.io/tunes/Christmas/Silent-Night/silent-night_music.ily:17:4:5">
<g transform="translate(41.7472, 47.1434)">
<path transform="scale(0.0040, -0.0040)" d="M218 136c66 0 108 -36 108 -89c0 -89 -113 -183 -218 -183c-66 0 -108 36 -108 89c0 89 113 183 218 183z" fill="currentColor"/>
</g>
</a>
<a style="color:inherit;" xlink:href="textedit:///Users/Marc/Projects/violin-music.github.io/tunes/Christmas/Silent-Night/silent-night_music.ily:31:18:19">
<g transform="translate(41.2384, 50.1318)">
<text font-family="Optima" font-size="1.7459" text-anchor="start" fill="currentColor">
<tspan>gin</tspan>
</text>
</g>
</a>
<g transform="translate(43.5014, 46.5934)">
<path transform="scale(0.0040, -0.0040)" d="M0 0c0 31 25 56 56 56s56 -25 56 -56s-25 -56 -56 -56s-56 25 -56 56z" fill="currentColor"/>
</g>
<g transform="translate(42.9864, 42.7434)">
<rect x="-0.0650" y="0.0000" width="0.1300" height="4.2139" ry="0.0400" fill="currentColor"/>
</g>
<a style="color:inherit;" xlink:href="textedit:///Users/Marc/Projects/violin-music.github.io/tunes/Christmas/Silent-Night/silent-night_music.ily:17:9:10">
<g transform="translate(47.6933, 46.5934)">
<path transform="scale(0.0040, -0.0040)" d="M218 136c66 0 108 -36 108 -89c0 -89 -113 -183 -218 -183c-66 0 -108 36 -108 89c0 89 113 183 218 183z" fill="currentColor"/>
</g>
</a>
<a style="color:inherit;" xlink:href="textedit:///Users/Marc/Projects/violin-music.github.io/tunes/Christmas/Silent-Night/silent-night_music.ily:31:22:23">
<g transform="translate(46.8090, 50.1318)">
<text font-family="Optima" font-size="1.7459" text-anchor="start" fill="currentColor">
<tspan>Mo-</tspan>
</text>
</g>
</a>
<g transform="translate(48.9325, 42.7434)">
<rect x="-0.0650" y="0.0000" width="0.1300" height="3.6639" ry="0.0400" fill="currentColor"/>
</g>
<a style="color:inherit;" xlink:href="textedit:///Users/Marc/Projects/violin-music.github.io/tunes/Christmas/Silent-Night/silent-night_music.ily:17:14:15">
<g transform="translate(51.1308, 47.1434)">
<path transform="scale(0.0040, -0.0040)" d="M218 136c66 0 108 -36 108 -89c0 -89 -113 -183 -218 -183c-66 0 -108 36 -108 89c0 89 113 183 218 183z" fill="currentColor"/>
</g>
</a>
<a style="color:inherit;" xlink:href="textedit:///Users/Marc/Projects/violin-music.github.io/tunes/Christmas/Silent-Night/silent-night_music.ily:31:26:27">
<g transform="translate(50.3319, 50.1318)">
<text font-family="Optima" font-size="1.7459" text-anchor="start" fill="currentColor">
<tspan>ther</tspan>
</text>
</g>
</a>
<g transform="translate(52.3701, 42.7434)">
<rect x="-0.0650" y="0.0000" width="0.1300" height="4.2139" ry="0.0400" fill="currentColor"/>
</g>
<a style="color:inherit;" xlink:href="textedit:///Users/Marc/Projects/violin-music.github.io/tunes/Christmas/Silent-Night/silent-night_music.ily:17:18:19">
<g transform="translate(55.7765, 48.2434)">
<path transform="scale(0.0040, -0.0040)" d="M218 136c66 0 108 -36 108 -89c0 -89 -113 -183 -218 -183c-66 0 -108 36 -108 89c0 89 113 183 218 183z" fill="currentColor"/>
</g>
</a>
<a style="color:inherit;" xlink:href="textedit:///Users/Marc/Projects/violin-music.github.io/tunes/Christmas/Silent-Night/silent-night_music.ily:31:31:32">
<g transform="translate(55.0288, 50.1318)">
<text font-family="Optima" font-size="1.7459" text-anchor="start" fill="currentColor">
<tspan>and</tspan>
</text>
</g>
</a>
<g transform="translate(57.5308, 47.6934)">
<path transform="scale(0.0040, -0.0040)" d="M0 0c0 31 25 56 56 56s56 -25 56 -56s-25 -56 -56 -56s-56 25 -56 56z" fill="currentColor"/>
</g>
<g transform="translate(57.0158, 42.7434)">
<rect x="-0.0650" y="-0.0000" width="0.1300" height="5.3139" ry="0.0400" fill="currentColor"/>
</g>
<g transform="translate(42.9214, 42.7434)">
<polygon stroke-linejoin="round" stroke-linecap="round" stroke-width="0.0800" fill="currentColor" stroke="currentColor" points="9.4737 -0.2240 9.4737 0.2240 0.0400 0.2240 0.0400 -0.2240"/>
</g>
<g transform="translate(47.8325, 43.6294)">
<polygon stroke-linejoin="round" stroke-linecap="round" stroke-width="0.0800" fill="currentColor" stroke="currentColor" points="1.1250 -0.2240 1.1250 0.2240 0.0400 0.2240 0.0400 -0.2240"/>
</g>
<a style="color:inherit;" xlink:href="textedit:///Users/Marc/Projects/violin-music.github.io/tunes/Christmas/Silent-Night/silent-night_music.ily:18:4:5">
<g transform="translate(64.9747, 46.5934)">
<path transform="scale(0.0040, -0.0040)" d="M218 136c66 0 108 -36 108 -89c0 -89 -113 -183 -218 -183c-66 0 -108 36 -108 89c0 89 113 183 218 183z" fill="currentColor"/>
</g>
</a>
<a style="color:inherit;" xlink:href="textedit:///Users/Marc/Projects/violin-music.github.io/tunes/Christmas/Silent-Night/silent-night_music.ily:31:35:36">
<g transform="translate(63.3733, 50.1318)">
<text font-family="Optima" font-size="1.7459" text-anchor="start" fill="currentColor">
<tspan>Child,</tspan>
</text>
</g>
</a>
<g transform="translate(66.2139, 42.7434)">
<rect x="-0.0650" y="-0.0000" width="0.1300" height="3.6639" ry="0.0400" fill="currentColor"/>
</g>
<a style="color:inherit;" xlink:href="textedit:///Users/Marc/Projects/violin-music.github.io/tunes/Christmas/Silent-Night/silent-night_music.ily:18:8:9">
<g transform="translate(71.6661, 46.5934)">
<path transform="scale(0.0040, -0.0040)" d="M218 136c66 0 108 -36 108 -89c0 -89 -113 -183 -218 -183c-66 0 -108 36 -108 89c0 89 113 183 218 183z" fill="currentColor"/>
</g>
</a>
<a style="color:inherit;" xlink:href="textedit:///Users/Marc/Projects/violin-music.github.io/tunes/Christmas/Silent-Night/silent-night_music.ily:32:2:3">
<g transform="translate(71.0720, 50.1318)">
<text font-family="Optima" font-size="1.7459" text-anchor="start" fill="currentColor">
<tspan>ho-</tspan>
</text>
</g>
</a>
<g transform="translate(72.9053, 42.7434)">
<rect x="-0.0650" y="-0.0000" width="0.1300" height="3.6639" ry="0.0400" fill="currentColor"/>
</g>
<g transform="translate(72.9703, 42.7834)">
<path transform="scale(0.0040, -0.0040)" d="M0 0v-250h-16v250h16zM0 0c0 -197 207 -336 207 -533c0 -71 -15 -141 -41 -207c-5 -8 -13 -12 -20 -12c-13 0 -26 11 -23 27c26 61 42 126 42 192c0 103 -94 208 -165 283v250z" fill="currentColor"/>
</g>
<a style="color:inherit;" xlink:href="textedit:///Users/Marc/Projects/violin-music.github.io/tunes/Christmas/Silent-Night/silent-night_music.ily:18:12:13">
<g transform="translate(76.5618, 45.4934)">
<path transform="scale(0.0040, -0.0040)" d="M218 136c66 0 108 -36 108 -89c0 -89 -113 -183 -218 -183c-66 0 -108 36 -108 89c0 89 113 183 218 183z" fill="currentColor"/>
</g>
</a>
<a style="color:inherit;" xlink:href="textedit:///Users/Marc/Projects/violin-music.github.io/tunes/Christmas/Silent-Night/silent-night_music.ily:32:6:7">
<g transform="translate(76.5310, 50.1318)">
<text font-family="Optima" font-size="1.7459" text-anchor="start" fill="currentColor">
<tspan>ly</tspan>
</text>
</g>
</a>
<g transform="translate(78.3160, 45.4934)">
<path transform="scale(0.0040, -0.0040)" d="M0 0c0 31 25 56 56 56s56 -25 56 -56s-25 -56 -56 -56s-56 25 -56 56z" fill="currentColor"/>
</g>
<g transform="translate(77.8010, 42.7434)">
<rect x="-0.0650" y="-0.8812" width="0.1300" height="3.4451" ry="0.0400" fill="currentColor"/>
</g>
<g transform="translate(27.4519, 41.8574)">
<polygon stroke-linejoin="round" stroke-linecap="round" stroke-width="0.0800" fill="currentColor" stroke="currentColor" points="9.1361 0.4480 9.1361 0.8960 0.0400 0.2240 0.0400 -0.2240"/>
</g>
<g transform="translate(32.3630, 43.1031)">
<polygon stroke-linejoin="round" stroke-linecap="round" stroke-width="0.0800" fill="currentColor" stroke="currentColor" points="1.1250 -0.1387 1.1250 0.3093 0.0400 0.2240 0.0400 -0.2240"/>
</g>
<a style="color:inherit;" xlink:href="textedit:///Users/Marc/Projects/violin-music.github.io/tunes/Christmas/Silent-Night/silent-night_music.ily:18:18:19">
<g transform="translate(82.5079, 46.0434)">
<path transform="scale(0.0040, -0.0040)" d="M218 136c66 0 108 -36 108 -89c0 -89 -113 -183 -218 -183c-66 0 -108 36 -108 89c0 89 113 183 218 183z" fill="currentColor"/>
</g>
</a>
<a style="color:inherit;" xlink:href="textedit:///Users/Marc/Projects/violin-music.github.io/tunes/Christmas/Silent-Night/silent-night_music.ily:32:9:10">
<g transform="translate(82.1528, 50.1318)">
<text font-family="Optima" font-size="1.7459" text-anchor="start" fill="currentColor">
<tspan>in-</tspan>
</text>
</g>
</a>
<g transform="translate(83.7472, 42.7434)">
<rect x="-0.0650" y="-0.4458" width="0.1300" height="3.5597" ry="0.0400" fill="currentColor"/>
</g>
<a style="color:inherit;" xlink:href="textedit:///Users/Marc/Projects/violin-music.github.io/tunes/Christmas/Silent-Night/silent-night_music.ily:18:23:24">
<g transform="translate(85.6079, 46.5934)">
<path transform="scale(0.0040, -0.0040)" d="M218 136c66 0 108 -36 108 -89c0 -89 -113 -183 -218 -183c-66 0 -108 36 -108 89c0 89 113 183 218 183z" fill="currentColor"/>
</g>
</a>
<a style="color:inherit;" xlink:href="textedit:///Users/Marc/Projects/violin-music.github.io/tunes/Christmas/Silent-Night/silent-night_music.ily:32:13:14">
<g transform="translate(84.8601, 50.1318)">
<text font-family="Optima" font-size="1.7459" text-anchor="start" fill="currentColor">
<tspan>fant</tspan>
</text>
</g>
</a>
<g transform="translate(86.8471, 42.7434)">
<rect x="-0.0650" y="-0.2188" width="0.1300" height="3.8827" ry="0.0400" fill="currentColor"/>
</g>
<a style="color:inherit;" xlink:href="textedit:///Users/Marc/Projects/violin-music.github.io/tunes/Christmas/Silent-Night/silent-night_music.ily:16:17:18">
<g transform="translate(26.2777, 42.7434)">
<path stroke-width="0.0800" stroke-linejoin="round" stroke-linecap="round" stroke="currentColor" fill="currentColor" d="M0.6121 3.8450C1.8352 5.1680 5.1132 5.4712 6.5582 4.3950L6.5582 4.3950C5.1242 5.3517 1.8462 5.0485 0.6121 3.8450z"/>
</g>
</a>
<a style="color:inherit;" xlink:href="textedit:///Users/Marc/Projects/violin-music.github.io/tunes/Christmas/Silent-Night/silent-night_music.ily:19:4:5">
<g transform="translate(92.0313, 47.1434)">
<path transform="scale(0.0040, -0.0040)" d="M218 136c66 0 108 -36 108 -89c0 -89 -113 -183 -218 -183c-66 0 -108 36 -108 89c0 89 113 183 218 183z" fill="currentColor"/>
</g>
</a>
<a style="color:inherit;" xlink:href="textedit:///Users/Marc/Projects/violin-music.github.io/tunes/Christmas/Silent-Night/silent-night_music.ily:32:18:19">
<g transform="translate(91.8639, 50.1318)">
<text font-family="Optima" font-size="1.7459" text-anchor="start" fill="currentColor">
<tspan>so</tspan>
</text>
</g>
</a>
<g transform="translate(93.7855, 46.5934)">
<path transform="scale(0.0040, -0.0040)" d="M0 0c0 31 25 56 56 56s56 -25 56 -56s-25 -56 -56 -56s-56 25 -56 56z" fill="currentColor"/>
</g>
<g transform="translate(93.2705, 42.7434)">
<rect x="-0.0650" y="0.0000" width="0.1300" height="4.2139" ry="0.0400" fill="currentColor"/>
</g>
<a style="color:inherit;" xlink:href="textedit:///Users/Marc/Projects/violin-music.github.io/tunes/Christmas/Silent-Night/silent-night_music.ily:19:9:10">
<g transform="translate(97.9774, 46.5934)">
<path transform="scale(0.0040, -0.0040)" d="M218 136c66 0 108 -36 108 -89c0 -89 -113 -183 -218 -183c-66 0 -108 36 -108 89c0 89 113 183 218 183z" fill="currentColor"/>
</g>
</a>
<a style="color:inherit;" xlink:href="textedit:///Users/Marc/Projects/violin-music.github.io/tunes/Christmas/Silent-Night/silent-night_music.ily:32:21:22">
<g transform="translate(97.1784, 50.1318)">
<text font-family="Optima" font-size="1.7459" text-anchor="start" fill="currentColor">
<tspan>ten-</tspan>
</text>
</g>
</a>
<g transform="translate(99.2166, 42.7434)">
<rect x="-0.0650" y="0.0000" width="0.1300" height="3.6639" ry="0.0400" fill="currentColor"/>
</g>
<a style="color:inherit;" xlink:href="textedit:///Users/Marc/Projects/violin-music.github.io/tunes/Christmas/Silent-Night/silent-night_music.ily:19:14:15">
<g transform="translate(101.0906, 47.1434)">
<path transform="scale(0.0040, -0.0040)" d="M218 136c66 0 108 -36 108 -89c0 -89 -113 -183 -218 -183c-66 0 -108 36 -108 89c0 89 113 183 218 183z" fill="currentColor"/>
</g>
</a>
<a style="color:inherit;" xlink:href="textedit:///Users/Marc/Projects/violin-music.github.io/tunes/Christmas/Silent-Night/silent-night_music.ily:32:26:27">
<g transform="translate(100.5306, 50.1318)">
<text font-family="Optima" font-size="1.7459" text-anchor="start" fill="currentColor">
<tspan>der</tspan>
</text>
</g>
</a>
<g transform="translate(102.3298, 42.7434)">
<rect x="-0.0650" y="0.0000" width="0.1300" height="4.2139" ry="0.0400" fill="currentColor"/>
</g>
<a style="color:inherit;" xlink:href="textedit:///Users/Marc/Projects/violin-music.github.io/tunes/Christmas/Silent-Night/silent-night_music.ily:19:18:19">
<g transform="translate(105.7363, 48.2434)">
<path transform="scale(0.0040, -0.0040)" d="M218 136c66 0 108 -36 108 -89c0 -89 -113 -183 -218 -183c-66 0 -108 36 -108 89c0 89 113 183 218 183z" fill="currentColor"/>
</g>
</a>
<a style="color:inherit;" xlink:href="textedit:///Users/Marc/Projects/violin-music.github.io/tunes/Christmas/Silent-Night/silent-night_music.ily:32:30:31">
<g transform="translate(104.9885, 50.1318)">
<text font-family="Optima" font-size="1.7459" text-anchor="start" fill="currentColor">
<tspan>and</tspan>
</text>
</g>
</a>
<g transform="translate(107.4905, 47.6934)">
<path transform="scale(0.0040, -0.0040)" d="M0 0c0 31 25 56 56 56s56 -25 56 -56s-25 -56 -56 -56s-56 25 -56 56z" fill="currentColor"/>
</g>
<g transform="translate(106.9755, 42.7434)">
<rect x="-0.0650" y="-0.0000" width="0.1300" height="5.3139" ry="0.0400" fill="currentColor"/>
</g>
<g transform="translate(5.6906, 62.0434)">
<rect x="94.8028" y="-0.1050" width="1.9563" height="0.2100" ry="0.1050" fill="currentColor"/>
</g>
<g transform="translate(5.6906, 63.1434)">
<rect x="94.8028" y="-0.1050" width="1.9563" height="0.2100" ry="0.1050" fill="currentColor"/>
</g>
<g transform="translate(5.6906, 64.2434)">
<rect x="94.8028" y="-0.1050" width="1.9563" height="0.2100" ry="0.1050" fill="currentColor"/>
</g>
<g transform="translate(5.6906, 65.3434)">
<rect x="94.8028" y="-0.1050" width="1.9563" height="0.2100" ry="0.1050" fill="currentColor"/>
</g>
<g transform="translate(5.6906, 62.0434)">
<rect x="86.6174" y="-0.1050" width="1.9563" height="0.2100" ry="0.1050" fill="currentColor"/>
</g>
<g transform="translate(5.6906, 63.1434)">
<rect x="86.6174" y="-0.1050" width="1.9563" height="0.2100" ry="0.1050" fill="currentColor"/>
</g>
<g transform="translate(5.6906, 64.2434)">
<rect x="86.6174" y="-0.1050" width="1.9563" height="0.2100" ry="0.1050" fill="currentColor"/>
</g>
<g transform="translate(5.6906, 65.3434)">
<rect x="86.6174" y="-0.1050" width="1.9563" height="0.2100" ry="0.1050" fill="currentColor"/>
</g>
<g transform="translate(5.6906, 62.0434)">
<rect x="79.9716" y="-0.1050" width="1.9563" height="0.2100" ry="0.1050" fill="currentColor"/>
</g>
<g transform="translate(5.6906, 63.1434)">
<rect x="79.9716" y="-0.1050" width="1.9563" height="0.2100" ry="0.1050" fill="currentColor"/>
</g>
<g transform="translate(5.6906, 64.2434)">
<rect x="79.9716" y="-0.1050" width="1.9563" height="0.2100" ry="0.1050" fill="currentColor"/>
</g>
<g transform="translate(5.6906, 62.0434)">
<rect x="76.2438" y="-0.1050" width="1.9563" height="0.2100" ry="0.1050" fill="currentColor"/>
</g>
<g transform="translate(5.6906, 63.1434)">
<rect x="76.2438" y="-0.1050" width="1.9563" height="0.2100" ry="0.1050" fill="currentColor"/>
</g>
<g transform="translate(5.6906, 62.0434)">
<rect x="69.9779" y="-0.1050" width="1.9563" height="0.2100" ry="0.1050" fill="currentColor"/>
</g>
<g transform="translate(5.6906, 63.1434)">
<rect x="69.9779" y="-0.1050" width="1.9563" height="0.2100" ry="0.1050" fill="currentColor"/>
</g>
<g transform="translate(5.6906, 62.0434)">
<rect x="64.5847" y="-0.1050" width="1.9563" height="0.2100" ry="0.1050" fill="currentColor"/>
</g>
<g transform="translate(5.6906, 63.1434)">
<rect x="64.5847" y="-0.1050" width="1.9563" height="0.2100" ry="0.1050" fill="currentColor"/>
</g>
<g transform="translate(5.6906, 64.2434)">
<rect x="64.5847" y="-0.1050" width="1.9563" height="0.2100" ry="0.1050" fill="currentColor"/>
</g>
<g transform="translate(5.6906, 62.0434)">
<rect x="61.6110" y="-0.1050" width="1.9563" height="0.2100" ry="0.1050" fill="currentColor"/>
</g>
<g transform="translate(5.6906, 63.1434)">
<rect x="61.6110" y="-0.1050" width="1.9563" height="0.2100" ry="0.1050" fill="currentColor"/>
</g>
<g transform="translate(5.6906, 62.0434)">
<rect x="30.6235" y="-0.1050" width="1.9563" height="0.2100" ry="0.1050" fill="currentColor"/>
</g>
<g transform="translate(5.6906, 60.9434)">
<line stroke-linejoin="round" stroke-linecap="round" stroke-width="0.1000" stroke="currentColor" x1="0.0500" y1="0" x2="108.0705" y2="0"/>
</g>
<g transform="translate(5.6906, 59.8434)">
<line stroke-linejoin="round" stroke-linecap="round" stroke-width="0.1000" stroke="currentColor" x1="0.0500" y1="0" x2="108.0705" y2="0"/>
</g>
<g transform="translate(5.6906, 58.7434)">
<line stroke-linejoin="round" stroke-linecap="round" stroke-width="0.1000" stroke="currentColor" x1="0.0500" y1="0" x2="108.0705" y2="0"/>
</g>
<g transform="translate(5.6906, 57.6434)">
<line stroke-linejoin="round" stroke-linecap="round" stroke-width="0.1000" stroke="currentColor" x1="0.0500" y1="0" x2="108.0705" y2="0"/>
</g>
<g transform="translate(5.6906, 56.5434)">
<line stroke-linejoin="round" stroke-linecap="round" stroke-width="0.1000" stroke="currentColor" x1="0.0500" y1="0" x2="108.0705" y2="0"/>
</g>
<g transform="translate(113.2110, 58.7434)">
<rect x="0.0000" y="-2.2000" width="0.6000" height="4.4000" ry="0.0000" fill="currentColor"/>
</g>
<g transform="translate(112.7210, 58.7434)">
<rect x="0.0000" y="-2.2000" width="0.1900" height="4.4000" ry="0.0000" fill="currentColor"/>
</g>
<g transform="translate(91.2742, 58.7434)">
<rect x="0.0000" y="-2.2000" width="0.1900" height="4.4000" ry="0.0000" fill="currentColor"/>
</g>
<g transform="translate(60.2518, 58.7434)">
<rect x="0.0000" y="-2.2000" width="0.1900" height="4.4000" ry="0.0000" fill="currentColor"/>
</g>
<g transform="translate(42.0332, 58.7434)">
<rect x="0.0000" y="-2.2000" width="0.1900" height="4.4000" ry="0.0000" fill="currentColor"/>
</g>
<g transform="translate(6.4906, 59.8434)">
<path transform="scale(0.0040, -0.0040)" d="M266 -635h-6c-108 0 -195 88 -195 197c0 58 53 103 112 103c54 0 95 -47 95 -103c0 -52 -43 -95 -95 -95c-11 0 -21 2 -31 6c26 -39 68 -65 117 -65h4zM461 -203c68 24 113 90 113 164c0 90 -66 179 -173 190c19 -89 48 -242 60 -354zM74 28c0 -145 141 -247 264 -247
c1 0 47 0 82 6c-7 64 -29 203 -63 364c-79 -8 -124 -61 -124 -119c0 -44 25 -91 81 -123c5 -5 7 -10 7 -15c0 -11 -10 -22 -22 -22c-15 0 -126 62 -126 187c0 88 58 174 160 197c-14 58 -29 117 -46 175c-107 -121 -213 -243 -213 -403zM250 553c-29 96 -52 170 -52 346
c0 115 55 224 149 292c6 5 14 5 20 0c68 -80 133 -245 133 -358c0 -143 -86 -255 -180 -364c21 -68 39 -138 56 -207c2 0 7 1 13 1c155 0 256 -128 256 -261c0 -113 -74 -212 -180 -246c3 -35 5 -70 5 -105c0 -19 -1 -39 -2 -58c-7 -119 -88 -225 -202 -228l1 43
c93 2 153 92 159 191c1 18 2 37 2 55c0 31 -1 61 -4 92c-5 -1 -44 -8 -89 -8c-193 0 -333 180 -333 374c0 177 131 306 248 441zM428 916c0 34 1 66 -20 129c-99 -48 -162 -149 -162 -259c0 -52 12 -115 36 -194c80 97 146 198 146 324z" fill="currentColor"/>
</g>
<g transform="translate(9.9906, 56.5434)">
<path transform="scale(0.0040, -0.0040)" d="M0 119c0 8 5 15 13 18l46 17v158c0 10 8 19 18 19s19 -9 19 -19v-145l83 31v158c0 10 9 19 19 19s18 -9 18 -19v-145l32 12c2 1 5 1 7 1c11 0 20 -9 20 -20v-60c0 -8 -5 -16 -13 -19l-46 -16v-160l32 11c2 1 5 1 7 1c11 0 20 -9 20 -20v-60c0 -8 -5 -15 -13 -18l-46 -17
v-158c0 -10 -8 -19 -18 -19s-19 9 -19 19v145l-83 -31v-158c0 -10 -9 -19 -19 -19s-18 9 -18 19v145l-32 -12c-2 -1 -5 -1 -7 -1c-11 0 -20 9 -20 20v60c0 8 5 16 13 19l46 16v160l-32 -11c-2 -1 -5 -1 -7 -1c-11 0 -20 9 -20 20v60zM179 95l-83 -30v-160l83 30v160z" fill="currentColor"/>
</g>
<g transform="translate(11.0906, 58.1934)">
<path transform="scale(0.0040, -0.0040)" d="M0 119c0 8 5 15 13 18l46 17v158c0 10 8 19 18 19s19 -9 19 -19v-145l83 31v158c0 10 9 19 19 19s18 -9 18 -19v-145l32 12c2 1 5 1 7 1c11 0 20 -9 20 -20v-60c0 -8 -5 -16 -13 -19l-46 -16v-160l32 11c2 1 5 1 7 1c11 0 20 -9 20 -20v-60c0 -8 -5 -15 -13 -18l-46 -17
v-158c0 -10 -8 -19 -18 -19s-19 9 -19 19v145l-83 -31v-158c0 -10 -9 -19 -19 -19s-18 9 -18 19v145l-32 -12c-2 -1 -5 -1 -7 -1c-11 0 -20 9 -20 20v60c0 8 5 16 13 19l46 16v160l-32 -11c-2 -1 -5 -1 -7 -1c-11 0 -20 9 -20 20v60zM179 95l-83 -30v-160l83 30v160z" fill="currentColor"/>
</g>
<g transform="translate(4.8028, 55.4696)">
<text font-family="serif" font-size="1.7459" text-anchor="start" fill="currentColor">
<tspan>9</tspan>
</text>
</g>
<a style="color:inherit;" xlink:href="textedit:///Users/Marc/Projects/violin-music.github.io/tunes/Christmas/Silent-Night/silent-night_music.ily:24:9:10">
<g transform="translate(92.6340, 58.7434)">
<path stroke-width="0.0800" stroke-linejoin="round" stroke-linecap="round" stroke="currentColor" fill="currentColor" d="M0.8521 7.4000C1.9655 8.3067 7.5242 8.3067 8.6376 7.4000L8.6376 7.4000C7.5242 8.1867 1.9655 8.1867 0.8521 7.4000z"/>
</g>
</a>
<a style="color:inherit;" xlink:href="textedit:///Users/Marc/Projects/violin-music.github.io/tunes/Christmas/Silent-Night/silent-night_music.ily:21:4:5">
<g transform="translate(14.6906, 60.9434)">
<path transform="scale(0.0040, -0.0040)" d="M218 136c66 0 108 -36 108 -89c0 -89 -113 -183 -218 -183c-66 0 -108 36 -108 89c0 89 113 183 218 183z" fill="currentColor"/>
</g>
</a>
<a style="color:inherit;" xlink:href="textedit:///Users/Marc/Projects/violin-music.github.io/tunes/Christmas/Silent-Night/silent-night_music.ily:32:34:35">
<g transform="translate(13.4136, 67.8006)">
<text font-family="Optima" font-size="1.7459" text-anchor="start" fill="currentColor">
<tspan>mild,</tspan>
</text>
</g>
</a>
<g transform="translate(15.9298, 58.7434)">
<rect x="-0.0650" y="-1.6500" width="0.1300" height="3.6639" ry="0.0400" fill="currentColor"/>
</g>
<g transform="translate(77.1687, 58.7434)">
<polygon stroke-linejoin="round" stroke-linecap="round" stroke-width="0.0800" fill="currentColor" stroke="currentColor" points="10.0837 -0.2240 10.0837 0.2240 0.0400 0.2240 0.0400 -0.2240"/>
</g>
<g transform="translate(82.3996, 59.6294)">
<polygon stroke-linejoin="round" stroke-linecap="round" stroke-width="0.0800" fill="currentColor" stroke="currentColor" points="1.1250 -0.2240 1.1250 0.2240 0.0400 0.2240 0.0400 -0.2240"/>
</g>
<a style="color:inherit;" xlink:href="textedit:///Users/Marc/Projects/violin-music.github.io/tunes/Christmas/Silent-Night/silent-night_music.ily:21:9:10">
<g transform="translate(21.7532, 60.9434)">
<path transform="scale(0.0040, -0.0040)" d="M218 136c66 0 108 -36 108 -89c0 -89 -113 -183 -218 -183c-66 0 -108 36 -108 89c0 89 113 183 218 183z" fill="currentColor"/>
</g>
</a>
<a style="color:inherit;" xlink:href="textedit:///Users/Marc/Projects/violin-music.github.io/tunes/Christmas/Silent-Night/silent-night_music.ily:33:2:3">
<g transform="translate(20.3567, 67.8006)">
<text font-family="Optima" font-size="1.7459" text-anchor="start" fill="currentColor">
<tspan>Sleep</tspan>
</text>
</g>
</a>
<g transform="translate(22.9924, 58.7434)">
<rect x="-0.0650" y="-1.6500" width="0.1300" height="3.6639" ry="0.0400" fill="currentColor"/>
</g>
<g transform="translate(23.0574, 57.1334)">
<path transform="scale(0.0040, -0.0040)" d="M0 0v-250h-16v250h16zM0 0c0 -197 207 -336 207 -533c0 -71 -15 -141 -41 -207c-5 -8 -13 -12 -20 -12c-13 0 -26 11 -23 27c26 61 42 126 42 192c0 103 -94 208 -165 283v250z" fill="currentColor"/>
</g>
<a style="color:inherit;" xlink:href="textedit:///Users/Marc/Projects/violin-music.github.io/tunes/Christmas/Silent-Night/silent-night_music.ily:21:14:15">
<g transform="translate(26.8964, 59.8434)">
<path transform="scale(0.0040, -0.0040)" d="M218 136c66 0 108 -36 108 -89c0 -89 -113 -183 -218 -183c-66 0 -108 36 -108 89c0 89 113 183 218 183z" fill="currentColor"/>
</g>
</a>
<a style="color:inherit;" xlink:href="textedit:///Users/Marc/Projects/violin-music.github.io/tunes/Christmas/Silent-Night/silent-night_music.ily:33:8:9">
<g transform="translate(26.8314, 67.8006)">
<text font-family="Optima" font-size="1.7459" text-anchor="start" fill="currentColor">
<tspan>in</tspan>
</text>
</g>
</a>
<g transform="translate(28.6506, 59.2934)">
<path transform="scale(0.0040, -0.0040)" d="M0 0c0 31 25 56 56 56s56 -25 56 -56s-25 -56 -56 -56s-56 25 -56 56z" fill="currentColor"/>
</g>
<g transform="translate(28.1356, 58.7434)">
<rect x="-0.0650" y="-2.1913" width="0.1300" height="3.1052" ry="0.0400" fill="currentColor"/>
</g>
<a style="color:inherit;" xlink:href="textedit:///Users/Marc/Projects/violin-music.github.io/tunes/Christmas/Silent-Night/silent-night_music.ily:21:21:22">
<g transform="translate(32.9123, 60.9434)">
<path transform="scale(0.0040, -0.0040)" d="M218 136c66 0 108 -36 108 -89c0 -89 -113 -183 -218 -183c-66 0 -108 36 -108 89c0 89 113 183 218 183z" fill="currentColor"/>
</g>
</a>
<a style="color:inherit;" xlink:href="textedit:///Users/Marc/Projects/violin-music.github.io/tunes/Christmas/Silent-Night/silent-night_music.ily:33:11:12">
<g transform="translate(31.9085, 67.8006)">
<text font-family="Optima" font-size="1.7459" text-anchor="start" fill="currentColor">
<tspan>hea-</tspan>
</text>
</g>
</a>
<g transform="translate(34.1515, 58.7434)">
<rect x="-0.0650" y="-1.3907" width="0.1300" height="3.4046" ry="0.0400" fill="currentColor"/>
</g>
<a style="color:inherit;" xlink:href="textedit:///Users/Marc/Projects/violin-music.github.io/tunes/Christmas/Silent-Night/silent-night_music.ily:21:27:28">
<g transform="translate(36.6401, 62.0434)">
<path transform="scale(0.0040, -0.0040)" d="M218 136c66 0 108 -36 108 -89c0 -89 -113 -183 -218 -183c-66 0 -108 36 -108 89c0 89 113 183 218 183z" fill="currentColor"/>
</g>
</a>
<a style="color:inherit;" xlink:href="textedit:///Users/Marc/Projects/violin-music.github.io/tunes/Christmas/Silent-Night/silent-night_music.ily:33:16:17">
<g transform="translate(35.6704, 67.8006)">
<text font-family="Optima" font-size="1.7459" text-anchor="start" fill="currentColor">
<tspan>ven-</tspan>
</text>
</g>
</a>
<g transform="translate(37.8793, 58.7434)">
<rect x="-0.0650" y="-0.8947" width="0.1300" height="4.0085" ry="0.0400" fill="currentColor"/>
</g>
<g transform="translate(62.7859, 57.8574)">
<polygon stroke-linejoin="round" stroke-linecap="round" stroke-width="0.0800" fill="currentColor" stroke="currentColor" points="9.0797 0.4480 9.0797 0.8960 0.0400 0.2240 0.0400 -0.2240"/>
</g>
<g transform="translate(67.7668, 59.1105)">
<polygon stroke-linejoin="round" stroke-linecap="round" stroke-width="0.0800" fill="currentColor" stroke="currentColor" points="1.1250 -0.1382 1.1250 0.3098 0.0400 0.2240 0.0400 -0.2240"/>
</g>
<a style="color:inherit;" xlink:href="textedit:///Users/Marc/Projects/violin-music.github.io/tunes/Christmas/Silent-Night/silent-night_music.ily:22:4:5">
<g transform="translate(43.3930, 61.4934)">
<path transform="scale(0.0040, -0.0040)" d="M218 136c66 0 108 -36 108 -89c0 -89 -113 -183 -218 -183c-66 0 -108 36 -108 89c0 89 113 183 218 183z" fill="currentColor"/>
</g>
</a>
<a style="color:inherit;" xlink:href="textedit:///Users/Marc/Projects/violin-music.github.io/tunes/Christmas/Silent-Night/silent-night_music.ily:33:21:22">
<g transform="translate(43.3930, 67.8006)">
<text font-family="Optima" font-size="1.7459" text-anchor="start" fill="currentColor">
<tspan>ly</tspan>
</text>
</g>
</a>
<g transform="translate(45.1472, 61.4934)">
<path transform="scale(0.0040, -0.0040)" d="M0 0c0 31 25 56 56 56s56 -25 56 -56s-25 -56 -56 -56s-56 25 -56 56z" fill="currentColor"/>
</g>
<g transform="translate(44.6323, 58.7434)">
<rect x="-0.0650" y="-1.1000" width="0.1300" height="3.6639" ry="0.0400" fill="currentColor"/>
</g>
<a style="color:inherit;" xlink:href="textedit:///Users/Marc/Projects/violin-music.github.io/tunes/Christmas/Silent-Night/silent-night_music.ily:22:11:12">
<g transform="translate(51.8285, 60.3934)">
<path transform="scale(0.0040, -0.0040)" d="M218 136c66 0 108 -36 108 -89c0 -89 -113 -183 -218 -183c-66 0 -108 36 -108 89c0 89 113 183 218 183z" fill="currentColor"/>
</g>
</a>
<g transform="translate(53.5827, 60.3934)">
<path transform="scale(0.0040, -0.0040)" d="M0 0c0 31 25 56 56 56s56 -25 56 -56s-25 -56 -56 -56s-56 25 -56 56z" fill="currentColor"/>
</g>
<g transform="translate(53.0677, 58.7434)">
<rect x="-0.0650" y="-2.2000" width="0.1300" height="3.6639" ry="0.0400" fill="currentColor"/>
</g>
<a style="color:inherit;" xlink:href="textedit:///Users/Marc/Projects/violin-music.github.io/tunes/Christmas/Silent-Night/silent-night_music.ily:23:9:10">
<g transform="translate(61.6116, 58.7434)">
<path stroke-width="0.0800" stroke-linejoin="round" stroke-linecap="round" stroke="currentColor" fill="currentColor" d="M0.5371 3.8450C1.5420 5.4014 4.8948 6.3209 6.5531 5.4950L6.5531 5.4950C4.9265 6.2052 1.5738 5.2857 0.5371 3.8450z"/>
</g>
</a>
<a style="color:inherit;" xlink:href="textedit:///Users/Marc/Projects/violin-music.github.io/tunes/Christmas/Silent-Night/silent-night_music.ily:23:4:5">
<g transform="translate(61.6116, 61.4934)">
<path transform="scale(0.0040, -0.0040)" d="M218 136c66 0 108 -36 108 -89c0 -89 -113 -183 -218 -183c-66 0 -108 36 -108 89c0 89 113 183 218 183z" fill="currentColor"/>
</g>
</a>
<a style="color:inherit;" xlink:href="textedit:///Users/Marc/Projects/violin-music.github.io/tunes/Christmas/Silent-Night/silent-night_music.ily:33:24:25">
<g transform="translate(61.6116, 67.8006)">
<text font-family="Optima" font-size="1.7459" text-anchor="start" fill="currentColor">
<tspan>peace,</tspan>
</text>
</g>
</a>
<g transform="translate(63.3659, 61.4934)">
<path transform="scale(0.0040, -0.0040)" d="M0 0c0 31 25 56 56 56s56 -25 56 -56s-25 -56 -56 -56s-56 25 -56 56z" fill="currentColor"/>
</g>
<g transform="translate(62.8509, 58.7434)">
<rect x="-0.0650" y="-0.8812" width="0.1300" height="3.4451" ry="0.0400" fill="currentColor"/>
</g>
<g transform="translate(28.0706, 56.5434)">
<polygon stroke-linejoin="round" stroke-linecap="round" stroke-width="0.0800" fill="currentColor" stroke="currentColor" points="9.8337 1.0900 9.8337 1.5380 0.0400 0.2240 0.0400 -0.2240"/>
</g>
<g transform="translate(33.0515, 58.0923)">
<polygon stroke-linejoin="round" stroke-linecap="round" stroke-width="0.0800" fill="currentColor" stroke="currentColor" points="1.1250 -0.0690 1.1250 0.3790 0.0400 0.2240 0.0400 -0.2240"/>
</g>
<a style="color:inherit;" xlink:href="textedit:///Users/Marc/Projects/violin-music.github.io/tunes/Christmas/Silent-Night/silent-night_music.ily:23:11:12">
<g transform="translate(67.6276, 63.1434)">
<path transform="scale(0.0040, -0.0040)" d="M218 136c66 0 108 -36 108 -89c0 -89 -113 -183 -218 -183c-66 0 -108 36 -108 89c0 89 113 183 218 183z" fill="currentColor"/>
</g>
</a>
<g transform="translate(68.8668, 58.7434)">
<rect x="-0.0650" y="-0.4379" width="0.1300" height="4.6518" ry="0.0400" fill="currentColor"/>
</g>
<a style="color:inherit;" xlink:href="textedit:///Users/Marc/Projects/violin-music.github.io/tunes/Christmas/Silent-Night/silent-night_music.ily:22:9:10">
<g transform="translate(43.3930, 58.7434)">
<path stroke-width="0.0800" stroke-linejoin="round" stroke-linecap="round" stroke="currentColor" fill="currentColor" d="M0.7083 3.8450C2.5710 5.0587 7.6546 4.3958 9.1438 2.7450L9.1438 2.7450C7.6391 4.2768 2.5555 4.9397 0.7083 3.8450z"/>
</g>
</a>
<a style="color:inherit;" xlink:href="textedit:///Users/Marc/Projects/violin-music.github.io/tunes/Christmas/Silent-Night/silent-night_music.ily:23:17:18">
<g transform="translate(70.6013, 64.2434)">
<path transform="scale(0.0040, -0.0040)" d="M218 136c66 0 108 -36 108 -89c0 -89 -113 -183 -218 -183c-66 0 -108 36 -108 89c0 89 113 183 218 183z" fill="currentColor"/>
</g>
</a>
<a style="color:inherit;" xlink:href="textedit:///Users/Marc/Projects/violin-music.github.io/tunes/Christmas/Silent-Night/silent-night_music.ily:34:2:3">
<g transform="translate(69.2048, 67.8006)">
<text font-family="Optima" font-size="1.7459" text-anchor="start" fill="currentColor">
<tspan>Sleep</tspan>
</text>
</g>
</a>
<g transform="translate(71.8405, 58.7434)">
<rect x="-0.0650" y="-0.2188" width="0.1300" height="5.5327" ry="0.0400" fill="currentColor"/>
</g>
<a style="color:inherit;" xlink:href="textedit:///Users/Marc/Projects/violin-music.github.io/tunes/Christmas/Silent-Night/silent-night_music.ily:23:21:22">
<g transform="translate(75.9945, 63.1434)">
<path transform="scale(0.0040, -0.0040)" d="M218 136c66 0 108 -36 108 -89c0 -89 -113 -183 -218 -183c-66 0 -108 36 -108 89c0 89 113 183 218 183z" fill="currentColor"/>
</g>
</a>
<a style="color:inherit;" xlink:href="textedit:///Users/Marc/Projects/violin-music.github.io/tunes/Christmas/Silent-Night/silent-night_music.ily:34:8:9">
<g transform="translate(75.9296, 67.8006)">
<text font-family="Optima" font-size="1.7459" text-anchor="start" fill="currentColor">
<tspan>in</tspan>
</text>
</g>
</a>
<g transform="translate(77.7487, 62.5934)">
<path transform="scale(0.0040, -0.0040)" d="M0 0c0 31 25 56 56 56s56 -25 56 -56s-25 -56 -56 -56s-56 25 -56 56z" fill="currentColor"/>
</g>
<g transform="translate(77.2337, 58.7434)">
<rect x="-0.0650" y="0.0000" width="0.1300" height="4.2139" ry="0.0400" fill="currentColor"/>
</g>
<a style="color:inherit;" xlink:href="textedit:///Users/Marc/Projects/violin-music.github.io/tunes/Christmas/Silent-Night/silent-night_music.ily:23:26:27">
<g transform="translate(82.2604, 63.6934)">
<path transform="scale(0.0040, -0.0040)" d="M218 136c66 0 108 -36 108 -89c0 -89 -113 -183 -218 -183c-66 0 -108 36 -108 89c0 89 113 183 218 183z" fill="currentColor"/>
</g>
</a>
<a style="color:inherit;" xlink:href="textedit:///Users/Marc/Projects/violin-music.github.io/tunes/Christmas/Silent-Night/silent-night_music.ily:34:11:12">
<g transform="translate(81.2566, 67.8006)">
<text font-family="Optima" font-size="1.7459" text-anchor="start" fill="currentColor">
<tspan>hea-</tspan>
</text>
</g>
</a>
<g transform="translate(83.4996, 58.7434)">
<rect x="-0.0650" y="-0.0000" width="0.1300" height="4.7639" ry="0.0400" fill="currentColor"/>
</g>
<a style="color:inherit;" xlink:href="textedit:///Users/Marc/Projects/violin-music.github.io/tunes/Christmas/Silent-Night/silent-night_music.ily:23:32:33">
<g transform="translate(85.9882, 64.7934)">
<path transform="scale(0.0040, -0.0040)" d="M218 136c66 0 108 -36 108 -89c0 -89 -113 -183 -218 -183c-66 0 -108 36 -108 89c0 89 113 183 218 183z" fill="currentColor"/>
</g>
</a>
<a style="color:inherit;" xlink:href="textedit:///Users/Marc/Projects/violin-music.github.io/tunes/Christmas/Silent-Night/silent-night_music.ily:34:16:17">
<g transform="translate(85.0185, 67.8006)">
<text font-family="Optima" font-size="1.7459" text-anchor="start" fill="currentColor">
<tspan>ven-</tspan>
</text>
</g>
</a>
<g transform="translate(87.2274, 58.7434)">
<rect x="-0.0650" y="-0.0000" width="0.1300" height="5.8639" ry="0.0400" fill="currentColor"/>
</g>
<a style="color:inherit;" xlink:href="textedit:///Users/Marc/Projects/violin-music.github.io/tunes/Christmas/Silent-Night/silent-night_music.ily:24:4:5">
<g transform="translate(92.6340, 65.3434)">
<path transform="scale(0.0040, -0.0040)" d="M218 136c66 0 108 -36 108 -89c0 -89 -113 -183 -218 -183c-66 0 -108 36 -108 89c0 89 113 183 218 183z" fill="currentColor"/>
</g>
</a>
<a style="color:inherit;" xlink:href="textedit:///Users/Marc/Projects/violin-music.github.io/tunes/Christmas/Silent-Night/silent-night_music.ily:34:21:22">
<g transform="translate(92.6340, 67.8006)">
<text font-family="Optima" font-size="1.7459" text-anchor="start" fill="currentColor">
<tspan>ly</tspan>
</text>
</g>
</a>
<g transform="translate(94.3882, 64.7934)">
<path transform="scale(0.0040, -0.0040)" d="M0 0c0 31 25 56 56 56s56 -25 56 -56s-25 -56 -56 -56s-56 25 -56 56z" fill="currentColor"/>
</g>
<g transform="translate(93.8732, 58.7434)">
<rect x="-0.0650" y="-0.0000" width="0.1300" height="6.4139" ry="0.0400" fill="currentColor"/>
</g>
<a style="color:inherit;" xlink:href="textedit:///Users/Marc/Projects/violin-music.github.io/tunes/Christmas/Silent-Night/silent-night_music.ily:24:11:12">
<g transform="translate(100.8195, 65.3434)">
<path transform="scale(0.0040, -0.0040)" d="M218 136c66 0 108 -36 108 -89c0 -89 -113 -183 -218 -183c-66 0 -108 36 -108 89c0 89 113 183 218 183z" fill="currentColor"/>
</g>
</a>
<g transform="translate(102.0587, 58.7434)">
<rect x="-0.0650" y="-0.0000" width="0.1300" height="6.4139" ry="0.0400" fill="currentColor"/>
</g>
<a style="color:inherit;" xlink:href="textedit:///Users/Marc/Projects/violin-music.github.io/tunes/Christmas/Silent-Night/silent-night_music.ily:24:15:16">
<g transform="translate(107.8821, 58.7434)">
<path transform="scale(0.0040, -0.0040)" d="M70 205c79 0 46 -98 91 -98c16 0 54 48 61 63c6 12 23 12 28 0l-123 -420c-8 -7 -17 -10 -27 -10s-20 3 -28 10l117 326c-34 -12 -69 -22 -105 -22c-47 0 -87 34 -87 79c0 40 33 72 73 72z" fill="currentColor"/>
</g>
</a>
</svg>
