<svg xmlns="http://www.w3.org/2000/svg" xmlns:xlink="http://www.w3.org/1999/xlink" version="1.2" width="210.00mm" height="297.00mm" viewBox="0.0000 -0.0000 119.5016 169.0094">
<style type="text/css">
<![CDATA[
tspan { white-space: pre; }
]]>
</style>
<g transform="translate(47.3909, 6.9166)">
<text font-family="Optima" font-weight="bold" font-size="4.3999" text-anchor="start" fill="currentColor">
<tspan>S</tspan>
</text>
</g>
<g transform="translate(49.5761, 6.9166)">
<text font-family="Optima" font-weight="bold" font-size="3.4923" text-anchor="start" fill="currentColor">
<tspan>ILENT</tspan>
</text>
</g>
<g transform="translate(58.8972, 6.9166)">
<text font-family="Optima" font-weight="bold" font-size="4.3999" text-anchor="start" fill="currentColor">
<tspan> N</tspan>
</text>
</g>
<g transform="translate(63.5407, 6.9166)">
<text font-family="Optima" font-weight="bold" font-size="3.4923" text-anchor="start" fill="currentColor">
<tspan>IGHT</tspan>
</text>
</g>
<g transform="translate(53.4855, 9.9166)">
<text font-family="Optima" font-size="2.2000" text-anchor="start" fill="currentColor">
<tspan>Key: D major</tspan>
</text>
</g>
<g transform="translate(88.5791, 6.9166)">
<text font-family="Optima" font-size="2.2000" text-anchor="start" fill="currentColor">
<tspan>Franz Gruber (1787–1863)</tspan>
</text>
</g>
<g transform="translate(11.3811, 29.7034)">
<line stroke-linejoin="round" stroke-linecap="round" stroke-width="0.1000" stroke="currentColor" x1="0.0500" y1="0" x2="102.3799" y2="0"/>
</g>
<g transform="translate(11.3811, 28.6034)">
<line stroke-linejoin="round" stroke-linecap="round" stroke-width="0.1000" stroke="currentColor" x1="0.0500" y1="0" x2="102.3799" y2="0"/>
</g>
<g transform="translate(11.3811, 27.5034)">
<line stroke-linejoin="round" stroke-linecap="round" stroke-width="0.1000" stroke="currentColor" x1="0.0500" y1="0" x2="102.3799" y2="0"/>
</g>
<g transform="translate(11.3811, 26.4034)">
<line stroke-linejoin="round" stroke-linecap="round" stroke-width="0.1000" stroke="currentColor" x1="0.0500" y1="0" x2="102.3799" y2="0"/>
</g>
<g transform="translate(11.3811, 25.3034)">
<line stroke-linejoin="round" stroke-linecap="round" stroke-width="0.1000" stroke="currentColor" x1="0.0500" y1="0" x2="102.3799" y2="0"/>
</g>
<g transform="translate(113.6210, 27.5034)">
<rect x="0.0000" y="-2.2000" width="0.1900" height="4.4000" ry="0.0000" fill="currentColor"/>
</g>
<g transform="translate(91.4678, 27.5034)">
<rect x="0.0000" y="-2.2000" width="0.1900" height="4.4000" ry="0.0000" fill="currentColor"/>
</g>
<g transform="translate(69.6160, 27.5034)">
<rect x="0.0000" y="-2.2000" width="0.1900" height="4.4000" ry="0.0000" fill="currentColor"/>
</g>
<g transform="translate(45.3763, 27.5034)">
<rect x="0.0000" y="-2.2000" width="0.1900" height="4.4000" ry="0.0000" fill="currentColor"/>
</g>
<a style="color:inherit;" xlink:href="textedit:///Users/Marc/Projects/violin-music.github.io/tunes/Christmas/Silent-Night/silent-night_music.ily:10:4:5">
<g transform="translate(22.4993, 28.0534)">
<path transform="scale(0.0040, -0.0040)" d="M218 136c66 0 108 -36 108 -89c0 -89 -113 -183 -218 -183c-66 0 -108 36 -108 89c0 89 113 183 218 183z" fill="currentColor"/>
</g>
</a>
<g transform="translate(12.1811, 28.6034)">
<path transform="scale(0.0040, -0.0040)" d="M266 -635h-6c-108 0 -195 88 -195 197c0 58 53 103 112 103c54 0 95 -47 95 -103c0 -52 -43 -95 -95 -95c-11 0 -21 2 -31 6c26 -39 68 -65 117 -65h4zM461 -203c68 24 113 90 113 164c0 90 -66 179 -173 190c19 -89 48 -242 60 -354zM74 28c0 -145 141 -247 264 -247
c1 0 47 0 82 6c-7 64 -29 203 -63 364c-79 -8 -124 -61 -124 -119c0 -44 25 -91 81 -123c5 -5 7 -10 7 -15c0 -11 -10 -22 -22 -22c-15 0 -126 62 -126 187c0 88 58 174 160 197c-14 58 -29 117 -46 175c-107 -121 -213 -243 -213 -403zM250 553c-29 96 -52 170 -52 346
c0 115 55 224 149 292c6 5 14 5 20 0c68 -80 133 -245 133 -358c0 -143 -86 -255 -180 -364c21 -68 39 -138 56 -207c2 0 7 1 13 1c155 0 256 -128 256 -261c0 -113 -74 -212 -180 -246c3 -35 5 -70 5 -105c0 -19 -1 -39 -2 -58c-7 -119 -88 -225 -202 -228l1 43
c93 2 153 92 159 191c1 18 2 37 2 55c0 31 -1 61 -4 92c-5 -1 -44 -8 -89 -8c-193 0 -333 180 -333 374c0 177 131 306 248 441zM428 916c0 34 1 66 -20 129c-99 -48 -162 -149 -162 -259c0 -52 12 -115 36 -194c80 97 146 198 146 324z" fill="currentColor"/>
</g>
<a style="color:inherit;" xlink:href="textedit:///Users/Marc/Projects/violin-music.github.io/tunes/Christmas/Silent-Night/Silent-Night_%28D%29.ly:21:6:7">
<g transform="translate(15.6811, 25.3034)">
<path transform="scale(0.0040, -0.0040)" d="M0 119c0 8 5 15 13 18l46 17v158c0 10 8 19 18 19s19 -9 19 -19v-145l83 31v158c0 10 9 19 19 19s18 -9 18 -19v-145l32 12c2 1 5 1 7 1c11 0 20 -9 20 -20v-60c0 -8 -5 -16 -13 -19l-46 -16v-160l32 11c2 1 5 1 7 1c11 0 20 -9 20 -20v-60c0 -8 -5 -15 -13 -18l-46 -17
v-158c0 -10 -8 -19 -18 -19s-19 9 -19 19v145l-83 -31v-158c0 -10 -9 -19 -19 -19s-18 9 -18 19v145l-32 -12c-2 -1 -5 -1 -7 -1c-11 0 -20 9 -20 20v60c0 8 5 16 13 19l46 16v160l-32 -11c-2 -1 -5 -1 -7 -1c-11 0 -20 9 -20 20v60zM179 95l-83 -30v-160l83 30v160z" fill="currentColor"/>
</g>
<g transform="translate(16.7811, 26.9534)">
<path transform="scale(0.0040, -0.0040)" d="M0 119c0 8 5 15 13 18l46 17v158c0 10 8 19 18 19s19 -9 19 -19v-145l83 31v158c0 10 9 19 19 19s18 -9 18 -19v-145l32 12c2 1 5 1 7 1c11 0 20 -9 20 -20v-60c0 -8 -5 -16 -13 -19l-46 -16v-160l32 11c2 1 5 1 7 1c11 0 20 -9 20 -20v-60c0 -8 -5 -15 -13 -18l-46 -17
v-158c0 -10 -8 -19 -18 -19s-19 9 -19 19v145l-83 -31v-158c0 -10 -9 -19 -19 -19s-18 9 -18 19v145l-32 -12c-2 -1 -5 -1 -7 -1c-11 0 -20 9 -20 20v60c0 8 5 16 13 19l46 16v160l-32 -11c-2 -1 -5 -1 -7 -1c-11 0 -20 9 -20 20v60zM179 95l-83 -30v-160l83 30v160z" fill="currentColor"/>
</g>
</a>
<a style="color:inherit;" xlink:href="textedit:///Users/Marc/Projects/violin-music.github.io/tunes/Christmas/Silent-Night/silent-night_music.ily:7:2:3">
<g transform="translate(19.0823, 27.5034)">
<path transform="scale(0.0040, -0.0040)" d="M170 259c-51 0 -53 -43 -53 -100v-18v-18c0 -57 2 -100 53 -100c57 0 61 51 61 118s-4 118 -61 118zM117 266c15 10 33 16 53 16c101 0 170 -46 170 -141s-69 -141 -170 -141c-112 0 -170 124 -170 250c0 128 72 250 190 250c70 0 136 -39 136 -103
c0 -36 -29 -66 -65 -66s-66 30 -66 66c0 24 40 25 40 49c0 20 -23 31 -45 31c-66 0 -75 -65 -75 -139c0 -24 2 -48 2 -72z" fill="currentColor"/>
</g>
<g transform="translate(19.0311, 29.5035)">
<path transform="scale(0.0040, -0.0040)" d="M261 287c25 30 44 64 44 103c0 54 -55 87 -114 87c-46 0 -73 -36 -73 -71c0 -21 10 -42 31 -54zM292 269c23 -13 80 -54 80 -125c0 -73 -66 -144 -189 -144c-94 0 -183 54 -183 140c0 50 36 87 72 123c-37 28 -55 66 -55 103c0 68 60 134 174 134c80 0 157 -39 157 -110
c0 -46 -25 -86 -56 -121zM103 244c-31 -30 -59 -61 -59 -104c0 -69 66 -117 139 -117c54 0 86 42 86 83c0 24 -10 48 -35 62z" fill="currentColor"/>
</g>
</a>
<a style="color:inherit;" xlink:href="textedit:///Users/Marc/Projects/violin-music.github.io/tunes/Christmas/Silent-Night/silent-night_music.ily:28:2:3">
<g transform="translate(22.4993, 33.0034)">
<text font-family="Optima" font-size="1.7459" text-anchor="start" fill="currentColor">
<tspan>Si</tspan>
</text>
</g>
</a>
<a style="color:inherit;" xlink:href="textedit:///Users/Marc/Projects/violin-music.github.io/tunes/Christmas/Silent-Night/silent-night_music.ily:9:2:3">
<g transform="translate(20.5891, 23.1789)">
<path transform="scale(0.0036, -0.0036)" d="M0 0c0 31 25 56 56 56s55 -25 55 -56s-24 -56 -55 -56s-56 25 -56 56z" fill="currentColor"/>
</g>
<g transform="translate(19.0311, 23.1789)">
<rect x="1.0449" y="-2.6727" width="0.1158" height="2.5129" ry="0.0193" fill="currentColor"/>
</g>
<g transform="translate(19.0311, 23.1789)">
<path transform="scale(0.0036, -0.0036)" d="M215 137c67 0 111 -37 111 -92c0 -90 -111 -182 -215 -182c-67 0 -111 37 -111 92c0 90 111 182 215 182z" fill="currentColor"/>
</g>
<g transform="translate(20.9864, 23.6677)">
<text font-family="serif" font-size="2.2000" text-anchor="start" fill="currentColor">
<tspan> = 50</tspan>
</text>
</g>
</a>
<g transform="translate(24.2535, 28.0534)">
<path transform="scale(0.0040, -0.0040)" d="M0 0c0 31 25 56 56 56s56 -25 56 -56s-25 -56 -56 -56s-56 25 -56 56z" fill="currentColor"/>
</g>
<g transform="translate(23.7385, 27.5034)">
<rect x="-0.0650" y="-3.0860" width="0.1300" height="3.4499" ry="0.0400" fill="currentColor"/>
</g>
<a style="color:inherit;" xlink:href="textedit:///Users/Marc/Projects/violin-music.github.io/tunes/Christmas/Silent-Night/silent-night_music.ily:10:10:11">
<g transform="translate(28.7852, 27.5034)">
<path transform="scale(0.0040, -0.0040)" d="M218 136c66 0 108 -36 108 -89c0 -89 -113 -183 -218 -183c-66 0 -108 36 -108 89c0 89 113 183 218 183z" fill="currentColor"/>
</g>
</a>
<g transform="translate(30.0244, 27.5034)">
<rect x="-0.0650" y="-3.0860" width="0.1300" height="2.8999" ry="0.0400" fill="currentColor"/>
</g>
<a style="color:inherit;" xlink:href="textedit:///Users/Marc/Projects/violin-music.github.io/tunes/Christmas/Silent-Night/silent-night_music.ily:10:16:17">
<g transform="translate(32.0166, 28.0534)">
<path transform="scale(0.0040, -0.0040)" d="M218 136c66 0 108 -36 108 -89c0 -89 -113 -183 -218 -183c-66 0 -108 36 -108 89c0 89 113 183 218 183z" fill="currentColor"/>
</g>
</a>
<g transform="translate(33.2559, 27.5034)">
<rect x="-0.0650" y="-3.0860" width="0.1300" height="3.4499" ry="0.0400" fill="currentColor"/>
</g>
<a style="color:inherit;" xlink:href="textedit:///Users/Marc/Projects/violin-music.github.io/tunes/Christmas/Silent-Night/silent-night_music.ily:10:20:21">
<g transform="translate(36.9253, 29.1534)">
<path transform="scale(0.0040, -0.0040)" d="M218 136c66 0 108 -36 108 -89c0 -89 -113 -183 -218 -183c-66 0 -108 36 -108 89c0 89 113 183 218 183z" fill="currentColor"/>
</g>
</a>
<a style="color:inherit;" xlink:href="textedit:///Users/Marc/Projects/violin-music.github.io/tunes/Christmas/Silent-Night/silent-night_music.ily:28:10:11">
<g transform="translate(36.1775, 33.0034)">
<text font-family="Optima" font-size="1.7459" text-anchor="start" fill="currentColor">
<tspan>lent</tspan>
</text>
</g>
</a>
<g transform="translate(38.6795, 29.1534)">
<path transform="scale(0.0040, -0.0040)" d="M0 0c0 31 25 56 56 56s56 -25 56 -56s-25 -56 -56 -56s-56 25 -56 56z" fill="currentColor"/>
</g>
<g transform="translate(38.1645, 27.5034)">
<rect x="-0.0650" y="-2.2000" width="0.1300" height="3.6639" ry="0.0400" fill="currentColor"/>
</g>
<g transform="translate(47.9132, 24.4174)">
<polygon stroke-linejoin="round" stroke-linecap="round" stroke-width="0.0800" fill="currentColor" stroke="currentColor" points="9.6074 -0.2240 9.6074 0.2240 0.0400 0.2240 0.0400 -0.2240"/>
</g>
<g transform="translate(53.1642, 25.3034)">
<polygon stroke-linejoin="round" stroke-linecap="round" stroke-width="0.0800" fill="currentColor" stroke="currentColor" points="1.1250 -0.2240 1.1250 0.2240 0.0400 0.2240 0.0400 -0.2240"/>
</g>
<a style="color:inherit;" xlink:href="textedit:///Users/Marc/Projects/violin-music.github.io/tunes/Christmas/Silent-Night/silent-night_music.ily:11:4:5">
<g transform="translate(46.7390, 28.0534)">
<path transform="scale(0.0040, -0.0040)" d="M218 136c66 0 108 -36 108 -89c0 -89 -113 -183 -218 -183c-66 0 -108 36 -108 89c0 89 113 183 218 183z" fill="currentColor"/>
</g>
</a>
<a style="color:inherit;" xlink:href="textedit:///Users/Marc/Projects/violin-music.github.io/tunes/Christmas/Silent-Night/silent-night_music.ily:28:15:16">
<g transform="translate(46.7390, 33.0034)">
<text font-family="Optima" font-size="1.7459" text-anchor="start" fill="currentColor">
<tspan>night,</tspan>
</text>
</g>
</a>
<g transform="translate(48.4932, 28.0534)">
<path transform="scale(0.0040, -0.0040)" d="M0 0c0 31 25 56 56 56s56 -25 56 -56s-25 -56 -56 -56s-56 25 -56 56z" fill="currentColor"/>
</g>
<g transform="translate(47.9782, 27.5034)">
<rect x="-0.0650" y="-3.0860" width="0.1300" height="3.4499" ry="0.0400" fill="currentColor"/>
</g>
<a style="color:inherit;" xlink:href="textedit:///Users/Marc/Projects/violin-music.github.io/tunes/Christmas/Silent-Night/silent-night_music.ily:11:10:11">
<g transform="translate(53.0250, 27.5034)">
<path transform="scale(0.0040, -0.0040)" d="M218 136c66 0 108 -36 108 -89c0 -89 -113 -183 -218 -183c-66 0 -108 36 -108 89c0 89 113 183 218 183z" fill="currentColor"/>
</g>
</a>
<g transform="translate(54.2642, 27.5034)">
<rect x="-0.0650" y="-3.0860" width="0.1300" height="2.8999" ry="0.0400" fill="currentColor"/>
</g>
<a style="color:inherit;" xlink:href="textedit:///Users/Marc/Projects/violin-music.github.io/tunes/Christmas/Silent-Night/silent-night_music.ily:11:16:17">
<g transform="translate(56.2564, 28.0534)">
<path transform="scale(0.0040, -0.0040)" d="M218 136c66 0 108 -36 108 -89c0 -89 -113 -183 -218 -183c-66 0 -108 36 -108 89c0 89 113 183 218 183z" fill="currentColor"/>
</g>
</a>
<a style="color:inherit;" xlink:href="textedit:///Users/Marc/Projects/violin-music.github.io/tunes/Christmas/Silent-Night/silent-night_music.ily:28:22:23">
<g transform="translate(55.6623, 33.0034)">
<text font-family="Optima" font-size="1.7459" text-anchor="start" fill="currentColor">
<tspan>ho-</tspan>
</text>
</g>
</a>
<g transform="translate(57.4956, 27.5034)">
<rect x="-0.0650" y="-3.0860" width="0.1300" height="3.4499" ry="0.0400" fill="currentColor"/>
</g>
<a style="color:inherit;" xlink:href="textedit:///Users/Marc/Projects/violin-music.github.io/tunes/Christmas/Silent-Night/silent-night_music.ily:11:8:9">
<g transform="translate(46.7390, 27.5034)">
<path stroke-width="0.0800" stroke-linejoin="round" stroke-linecap="round" stroke="currentColor" fill="currentColor" d="M0.6787 1.6955C2.1418 3.0429 5.6533 2.8278 6.9646 1.3105L6.9646 1.3105C5.6460 2.7080 2.1345 2.9231 0.6787 1.6955z"/>
</g>
</a>
<a style="color:inherit;" xlink:href="textedit:///Users/Marc/Projects/violin-music.github.io/tunes/Christmas/Silent-Night/silent-night_music.ily:11:20:21">
<g transform="translate(61.1650, 29.1534)">
<path transform="scale(0.0040, -0.0040)" d="M218 136c66 0 108 -36 108 -89c0 -89 -113 -183 -218 -183c-66 0 -108 36 -108 89c0 89 113 183 218 183z" fill="currentColor"/>
</g>
</a>
<a style="color:inherit;" xlink:href="textedit:///Users/Marc/Projects/violin-music.github.io/tunes/Christmas/Silent-Night/silent-night_music.ily:28:26:27">
<g transform="translate(61.1342, 33.0034)">
<text font-family="Optima" font-size="1.7459" text-anchor="start" fill="currentColor">
<tspan>ly</tspan>
</text>
</g>
</a>
<g transform="translate(62.9192, 29.1534)">
<path transform="scale(0.0040, -0.0040)" d="M0 0c0 31 25 56 56 56s56 -25 56 -56s-25 -56 -56 -56s-56 25 -56 56z" fill="currentColor"/>
</g>
<g transform="translate(62.4042, 27.5034)">
<rect x="-0.0650" y="-2.2000" width="0.1300" height="3.6639" ry="0.0400" fill="currentColor"/>
</g>
<g transform="translate(23.6735, 24.4174)">
<polygon stroke-linejoin="round" stroke-linecap="round" stroke-width="0.0800" fill="currentColor" stroke="currentColor" points="9.6074 -0.2240 9.6074 0.2240 0.0400 0.2240 0.0400 -0.2240"/>
</g>
<g transform="translate(28.9244, 25.3034)">
<polygon stroke-linejoin="round" stroke-linecap="round" stroke-width="0.0800" fill="currentColor" stroke="currentColor" points="1.1250 -0.2240 1.1250 0.2240 0.0400 0.2240 0.0400 -0.2240"/>
</g>
<a style="color:inherit;" xlink:href="textedit:///Users/Marc/Projects/violin-music.github.io/tunes/Christmas/Silent-Night/silent-night_music.ily:12:4:5">
<g transform="translate(71.1767, 25.8534)">
<path transform="scale(0.0040, -0.0040)" d="M218 136c66 0 108 -36 108 -89c0 -89 -113 -183 -218 -183c-66 0 -108 36 -108 89c0 89 113 183 218 183z" fill="currentColor"/>
</g>
</a>
<a style="color:inherit;" xlink:href="textedit:///Users/Marc/Projects/violin-music.github.io/tunes/Christmas/Silent-Night/silent-night_music.ily:28:29:30">
<g transform="translate(69.7119, 33.0034)">
<text font-family="Optima" font-size="1.7459" text-anchor="start" fill="currentColor">
<tspan>night,</tspan>
</text>
</g>
</a>
<g transform="translate(71.2417, 27.5034)">
<rect x="-0.0650" y="-1.4639" width="0.1300" height="3.6639" ry="0.0400" fill="currentColor"/>
</g>
<a style="color:inherit;" xlink:href="textedit:///Users/Marc/Projects/violin-music.github.io/tunes/Christmas/Silent-Night/silent-night_music.ily:28:5:6">
<g transform="translate(29.6913, 33.0034)">
<rect x="0.0000" y="-0.5500" width="0.6600" height="0.1300" ry="0.0400" fill="currentColor"/>
</g>
</a>
<a style="color:inherit;" xlink:href="textedit:///Users/Marc/Projects/violin-music.github.io/tunes/Christmas/Silent-Night/silent-night_music.ily:12:9:10">
<g transform="translate(78.2625, 25.8534)">
<path transform="scale(0.0040, -0.0040)" d="M218 136c66 0 108 -36 108 -89c0 -89 -113 -183 -218 -183c-66 0 -108 36 -108 89c0 89 113 183 218 183z" fill="currentColor"/>
</g>
</a>
<a style="color:inherit;" xlink:href="textedit:///Users/Marc/Projects/violin-music.github.io/tunes/Christmas/Silent-Night/silent-night_music.ily:29:2:3">
<g transform="translate(77.9927, 33.0034)">
<text font-family="Optima" font-size="1.7459" text-anchor="start" fill="currentColor">
<tspan>all</tspan>
</text>
</g>
</a>
<g transform="translate(78.3275, 27.5034)">
<rect x="-0.0650" y="-1.4639" width="0.1300" height="3.6639" ry="0.0400" fill="currentColor"/>
</g>
<g transform="translate(78.3925, 29.6634)">
<path transform="scale(0.0040, -0.0040)" d="M0 0h-16v250h16v-250zM0 0v250c97 59 224 148 224 259c0 57 -15 112 -40 163c-3 16 10 27 23 27c7 0 15 -3 20 -11c25 -56 40 -117 40 -179c0 -203 -267 -306 -267 -509z" fill="currentColor"/>
</g>
<a style="color:inherit;" xlink:href="textedit:///Users/Marc/Projects/violin-music.github.io/tunes/Christmas/Silent-Night/silent-night_music.ily:10:8:9">
<g transform="translate(22.4993, 27.5034)">
<path stroke-width="0.0800" stroke-linejoin="round" stroke-linecap="round" stroke="currentColor" fill="currentColor" d="M0.6787 1.6955C2.1418 3.0429 5.6533 2.8278 6.9646 1.3105L6.9646 1.3105C5.6460 2.7080 2.1345 2.9231 0.6787 1.6955z"/>
</g>
</a>
<a style="color:inherit;" xlink:href="textedit:///Users/Marc/Projects/violin-music.github.io/tunes/Christmas/Silent-Night/silent-night_music.ily:12:14:15">
<g transform="translate(83.4211, 26.9534)">
<path transform="scale(0.0040, -0.0040)" d="M218 136c66 0 108 -36 108 -89c0 -89 -113 -183 -218 -183c-66 0 -108 36 -108 89c0 89 113 183 218 183z" fill="currentColor"/>
</g>
</a>
<a style="color:inherit;" xlink:href="textedit:///Users/Marc/Projects/violin-music.github.io/tunes/Christmas/Silent-Night/silent-night_music.ily:29:6:7">
<g transform="translate(83.4928, 33.0034)">
<text font-family="Optima" font-size="1.7459" text-anchor="start" fill="currentColor">
<tspan>is</tspan>
</text>
</g>
</a>
<g transform="translate(85.1753, 26.9534)">
<path transform="scale(0.0040, -0.0040)" d="M0 0c0 31 25 56 56 56s56 -25 56 -56s-25 -56 -56 -56s-56 25 -56 56z" fill="currentColor"/>
</g>
<g transform="translate(83.4861, 27.5034)">
<rect x="-0.0650" y="-0.3639" width="0.1300" height="3.6639" ry="0.0400" fill="currentColor"/>
</g>
<a style="color:inherit;" xlink:href="textedit:///Users/Marc/Projects/violin-music.github.io/tunes/Christmas/Silent-Night/silent-night_music.ily:13:4:5">
<g transform="translate(92.9970, 26.4034)">
<path transform="scale(0.0040, -0.0040)" d="M218 136c66 0 108 -36 108 -89c0 -89 -113 -183 -218 -183c-66 0 -108 36 -108 89c0 89 113 183 218 183z" fill="currentColor"/>
</g>
</a>
<a style="color:inherit;" xlink:href="textedit:///Users/Marc/Projects/violin-music.github.io/tunes/Christmas/Silent-Night/silent-night_music.ily:29:9:10">
<g transform="translate(91.5493, 33.0034)">
<text font-family="Optima" font-size="1.7459" text-anchor="start" fill="currentColor">
<tspan>calm,</tspan>
</text>
</g>
</a>
<g transform="translate(93.0620, 27.5034)">
<rect x="-0.0650" y="-0.9139" width="0.1300" height="3.6639" ry="0.0400" fill="currentColor"/>
</g>
<a style="color:inherit;" xlink:href="textedit:///Users/Marc/Projects/violin-music.github.io/tunes/Christmas/Silent-Night/silent-night_music.ily:13:9:10">
<g transform="translate(100.0828, 26.4034)">
<path transform="scale(0.0040, -0.0040)" d="M218 136c66 0 108 -36 108 -89c0 -89 -113 -183 -218 -183c-66 0 -108 36 -108 89c0 89 113 183 218 183z" fill="currentColor"/>
</g>
</a>
<a style="color:inherit;" xlink:href="textedit:///Users/Marc/Projects/violin-music.github.io/tunes/Christmas/Silent-Night/silent-night_music.ily:29:15:16">
<g transform="translate(99.8130, 33.0034)">
<text font-family="Optima" font-size="1.7459" text-anchor="start" fill="currentColor">
<tspan>all</tspan>
</text>
</g>
</a>
<g transform="translate(100.1478, 27.5034)">
<rect x="-0.0650" y="-0.9139" width="0.1300" height="3.6639" ry="0.0400" fill="currentColor"/>
</g>
<g transform="translate(100.2128, 30.2134)">
<path transform="scale(0.0040, -0.0040)" d="M0 0h-16v250h16v-250zM0 0v250c97 59 224 148 224 259c0 57 -15 112 -40 163c-3 16 10 27 23 27c7 0 15 -3 20 -11c25 -56 40 -117 40 -179c0 -203 -267 -306 -267 -509z" fill="currentColor"/>
</g>
<a style="color:inherit;" xlink:href="textedit:///Users/Marc/Projects/violin-music.github.io/tunes/Christmas/Silent-Night/silent-night_music.ily:13:14:15">
<g transform="translate(105.2414, 28.0534)">
<path transform="scale(0.0040, -0.0040)" d="M218 136c66 0 108 -36 108 -89c0 -89 -113 -183 -218 -183c-66 0 -108 36 -108 89c0 89 113 183 218 183z" fill="currentColor"/>
</g>
</a>
<a style="color:inherit;" xlink:href="textedit:///Users/Marc/Projects/violin-music.github.io/tunes/Christmas/Silent-Night/silent-night_music.ily:29:19:20">
<g transform="translate(105.3131, 33.0034)">
<text font-family="Optima" font-size="1.7459" text-anchor="start" fill="currentColor">
<tspan>is</tspan>
</text>
</g>
</a>
<g transform="translate(106.9956, 28.0534)">
<path transform="scale(0.0040, -0.0040)" d="M0 0c0 31 25 56 56 56s56 -25 56 -56s-25 -56 -56 -56s-56 25 -56 56z" fill="currentColor"/>
</g>
<g transform="translate(106.4806, 27.5034)">
<rect x="-0.0650" y="-3.3000" width="0.1300" height="3.6639" ry="0.0400" fill="currentColor"/>
</g>
<g transform="translate(5.6906, 45.7034)">
<line stroke-linejoin="round" stroke-linecap="round" stroke-width="0.1000" stroke="currentColor" x1="0.0500" y1="0" x2="108.0705" y2="0"/>
</g>
<g transform="translate(5.6906, 44.6034)">
<line stroke-linejoin="round" stroke-linecap="round" stroke-width="0.1000" stroke="currentColor" x1="0.0500" y1="0" x2="108.0705" y2="0"/>
</g>
<g transform="translate(5.6906, 43.5034)">
<line stroke-linejoin="round" stroke-linecap="round" stroke-width="0.1000" stroke="currentColor" x1="0.0500" y1="0" x2="108.0705" y2="0"/>
</g>
<g transform="translate(5.6906, 42.4034)">
<line stroke-linejoin="round" stroke-linecap="round" stroke-width="0.1000" stroke="currentColor" x1="0.0500" y1="0" x2="108.0705" y2="0"/>
</g>
<g transform="translate(5.6906, 41.3034)">
<line stroke-linejoin="round" stroke-linecap="round" stroke-width="0.1000" stroke="currentColor" x1="0.0500" y1="0" x2="108.0705" y2="0"/>
</g>
<g transform="translate(113.6210, 43.5034)">
<rect x="0.0000" y="-2.2000" width="0.1900" height="4.4000" ry="0.0000" fill="currentColor"/>
</g>
<g transform="translate(90.5352, 43.5034)">
<rect x="0.0000" y="-2.2000" width="0.1900" height="4.4000" ry="0.0000" fill="currentColor"/>
</g>
<g transform="translate(63.6075, 43.5034)">
<rect x="0.0000" y="-2.2000" width="0.1900" height="4.4000" ry="0.0000" fill="currentColor"/>
</g>
<g transform="translate(40.1973, 43.5034)">
<rect x="0.0000" y="-2.2000" width="0.1900" height="4.4000" ry="0.0000" fill="currentColor"/>
</g>
<g transform="translate(93.0266, 40.4174)">
<polygon stroke-linejoin="round" stroke-linecap="round" stroke-width="0.0800" fill="currentColor" stroke="currentColor" points="9.1758 -0.2240 9.1758 0.2240 0.0400 0.2240 0.0400 -0.2240"/>
</g>
<g transform="translate(97.9643, 41.3034)">
<polygon stroke-linejoin="round" stroke-linecap="round" stroke-width="0.0800" fill="currentColor" stroke="currentColor" points="1.1250 -0.2240 1.1250 0.2240 0.0400 0.2240 0.0400 -0.2240"/>
</g>
<g transform="translate(6.4906, 44.6034)">
<path transform="scale(0.0040, -0.0040)" d="M266 -635h-6c-108 0 -195 88 -195 197c0 58 53 103 112 103c54 0 95 -47 95 -103c0 -52 -43 -95 -95 -95c-11 0 -21 2 -31 6c26 -39 68 -65 117 -65h4zM461 -203c68 24 113 90 113 164c0 90 -66 179 -173 190c19 -89 48 -242 60 -354zM74 28c0 -145 141 -247 264 -247
c1 0 47 0 82 6c-7 64 -29 203 -63 364c-79 -8 -124 -61 -124 -119c0 -44 25 -91 81 -123c5 -5 7 -10 7 -15c0 -11 -10 -22 -22 -22c-15 0 -126 62 -126 187c0 88 58 174 160 197c-14 58 -29 117 -46 175c-107 -121 -213 -243 -213 -403zM250 553c-29 96 -52 170 -52 346
c0 115 55 224 149 292c6 5 14 5 20 0c68 -80 133 -245 133 -358c0 -143 -86 -255 -180 -364c21 -68 39 -138 56 -207c2 0 7 1 13 1c155 0 256 -128 256 -261c0 -113 -74 -212 -180 -246c3 -35 5 -70 5 -105c0 -19 -1 -39 -2 -58c-7 -119 -88 -225 -202 -228l1 43
c93 2 153 92 159 191c1 18 2 37 2 55c0 31 -1 61 -4 92c-5 -1 -44 -8 -89 -8c-193 0 -333 180 -333 374c0 177 131 306 248 441zM428 916c0 34 1 66 -20 129c-99 -48 -162 -149 -162 -259c0 -52 12 -115 36 -194c80 97 146 198 146 324z" fill="currentColor"/>
</g>
<g transform="translate(9.9906, 41.3034)">
<path transform="scale(0.0040, -0.0040)" d="M0 119c0 8 5 15 13 18l46 17v158c0 10 8 19 18 19s19 -9 19 -19v-145l83 31v158c0 10 9 19 19 19s18 -9 18 -19v-145l32 12c2 1 5 1 7 1c11 0 20 -9 20 -20v-60c0 -8 -5 -16 -13 -19l-46 -16v-160l32 11c2 1 5 1 7 1c11 0 20 -9 20 -20v-60c0 -8 -5 -15 -13 -18l-46 -17
v-158c0 -10 -8 -19 -18 -19s-19 9 -19 19v145l-83 -31v-158c0 -10 -9 -19 -19 -19s-18 9 -18 19v145l-32 -12c-2 -1 -5 -1 -7 -1c-11 0 -20 9 -20 20v60c0 8 5 16 13 19l46 16v160l-32 -11c-2 -1 -5 -1 -7 -1c-11 0 -20 9 -20 20v60zM179 95l-83 -30v-160l83 30v160z" fill="currentColor"/>
</g>
<g transform="translate(11.0906, 42.9534)">
<path transform="scale(0.0040, -0.0040)" d="M0 119c0 8 5 15 13 18l46 17v158c0 10 8 19 18 19s19 -9 19 -19v-145l83 31v158c0 10 9 19 19 19s18 -9 18 -19v-145l32 12c2 1 5 1 7 1c11 0 20 -9 20 -20v-60c0 -8 -5 -16 -13 -19l-46 -16v-160l32 11c2 1 5 1 7 1c11 0 20 -9 20 -20v-60c0 -8 -5 -15 -13 -18l-46 -17
v-158c0 -10 -8 -19 -18 -19s-19 9 -19 19v145l-83 -31v-158c0 -10 -9 -19 -19 -19s-18 9 -18 19v145l-32 -12c-2 -1 -5 -1 -7 -1c-11 0 -20 9 -20 20v60c0 8 5 16 13 19l46 16v160l-32 -11c-2 -1 -5 -1 -7 -1c-11 0 -20 9 -20 20v60zM179 95l-83 -30v-160l83 30v160z" fill="currentColor"/>
</g>
<g transform="translate(4.8028, 40.2330)">
<text font-family="serif" font-size="1.7459" text-anchor="start" fill="currentColor">
<tspan>5</tspan>
</text>
</g>
<a style="color:inherit;" xlink:href="textedit:///Users/Marc/Projects/violin-music.github.io/tunes/Christmas/Silent-Night/silent-night_music.ily:15:4:5">
<g transform="translate(14.6906, 43.5034)">
<path transform="scale(0.0040, -0.0040)" d="M218 136c66 0 108 -36 108 -89c0 -89 -113 -183 -218 -183c-66 0 -108 36 -108 89c0 89 113 183 218 183z" fill="currentColor"/>
</g>
</a>
<a style="color:inherit;" xlink:href="textedit:///Users/Marc/Projects/violin-music.github.io/tunes/Christmas/Silent-Night/silent-night_music.ily:29:22:23">
<g transform="translate(12.9356, 49.0034)">
<text font-family="Optima" font-size="1.7459" text-anchor="start" fill="currentColor">
<tspan>bright,</tspan>
</text>
</g>
</a>
<g transform="translate(14.7556, 43.5034)">
<rect x="-0.0650" y="0.1861" width="0.1300" height="3.4806" ry="0.0400" fill="currentColor"/>
</g>
<a style="color:inherit;" xlink:href="textedit:///Users/Marc/Projects/violin-music.github.io/tunes/Christmas/Silent-Night/silent-night_music.ily:15:8:9">
<g transform="translate(21.4128, 43.5034)">
<path transform="scale(0.0040, -0.0040)" d="M218 136c66 0 108 -36 108 -89c0 -89 -113 -183 -218 -183c-66 0 -108 36 -108 89c0 89 113 183 218 183z" fill="currentColor"/>
</g>
</a>
<a style="color:inherit;" xlink:href="textedit:///Users/Marc/Projects/violin-music.github.io/tunes/Christmas/Silent-Night/silent-night_music.ily:30:2:3">
<g transform="translate(19.3846, 49.0034)">
<text font-family="Optima" font-size="1.7459" text-anchor="start" fill="currentColor">
<tspan>'Round</tspan>
</text>
</g>
</a>
<g transform="translate(21.4778, 43.5034)">
<rect x="-0.0650" y="0.1861" width="0.1300" height="3.5264" ry="0.0400" fill="currentColor"/>
</g>
<g transform="translate(21.5428, 47.1759)">
<path transform="scale(0.0040, -0.0040)" d="M0 0h-16v250h16v-250zM0 0v250c97 59 224 148 224 259c0 57 -15 112 -40 163c-3 16 10 27 23 27c7 0 15 -3 20 -11c25 -56 40 -117 40 -179c0 -203 -267 -306 -267 -509z" fill="currentColor"/>
</g>
<a style="color:inherit;" xlink:href="textedit:///Users/Marc/Projects/violin-music.github.io/tunes/Christmas/Silent-Night/silent-night_music.ily:15:12:13">
<g transform="translate(26.3290, 42.4034)">
<path transform="scale(0.0040, -0.0040)" d="M218 136c66 0 108 -36 108 -89c0 -89 -113 -183 -218 -183c-66 0 -108 36 -108 89c0 89 113 183 218 183z" fill="currentColor"/>
</g>
</a>
<a style="color:inherit;" xlink:href="textedit:///Users/Marc/Projects/violin-music.github.io/tunes/Christmas/Silent-Night/silent-night_music.ily:30:9:10">
<g transform="translate(26.3290, 49.0034)">
<text font-family="Optima" font-size="1.7459" text-anchor="start" fill="currentColor">
<tspan>yon</tspan>
</text>
</g>
</a>
<g transform="translate(28.0832, 41.8534)">
<path transform="scale(0.0040, -0.0040)" d="M0 0c0 31 25 56 56 56s56 -25 56 -56s-25 -56 -56 -56s-56 25 -56 56z" fill="currentColor"/>
</g>
<g transform="translate(26.3940, 43.5034)">
<rect x="-0.0650" y="-0.9139" width="0.1300" height="3.3326" ry="0.0400" fill="currentColor"/>
</g>
<g transform="translate(81.6045, 45.3916)">
<polygon stroke-linejoin="round" stroke-linecap="round" stroke-width="0.0800" fill="currentColor" stroke="currentColor" points="1.1250 -0.1390 1.1250 0.3090 0.0400 0.2240 0.0400 -0.2240"/>
</g>
<g transform="translate(76.6669, 45.9174)">
<polygon stroke-linejoin="round" stroke-linecap="round" stroke-width="0.0800" fill="currentColor" stroke="currentColor" points="9.1729 0.4480 9.1729 0.8960 0.0400 0.2240 0.0400 -0.2240"/>
</g>
<a style="color:inherit;" xlink:href="textedit:///Users/Marc/Projects/violin-music.github.io/tunes/Christmas/Silent-Night/silent-night_music.ily:15:19:20">
<g transform="translate(32.3016, 42.9534)">
<path transform="scale(0.0040, -0.0040)" d="M218 136c66 0 108 -36 108 -89c0 -89 -113 -183 -218 -183c-66 0 -108 36 -108 89c0 89 113 183 218 183z" fill="currentColor"/>
</g>
</a>
<g transform="translate(32.3666, 43.5034)">
<rect x="-0.0650" y="-0.3639" width="0.1300" height="3.2183" ry="0.0400" fill="currentColor"/>
</g>
<a style="color:inherit;" xlink:href="textedit:///Users/Marc/Projects/violin-music.github.io/tunes/Christmas/Silent-Night/silent-night_music.ily:15:25:26">
<g transform="translate(35.4119, 43.5034)">
<path transform="scale(0.0040, -0.0040)" d="M218 136c66 0 108 -36 108 -89c0 -89 -113 -183 -218 -183c-66 0 -108 36 -108 89c0 89 113 183 218 183z" fill="currentColor"/>
</g>
</a>
<a style="color:inherit;" xlink:href="textedit:///Users/Marc/Projects/violin-music.github.io/tunes/Christmas/Silent-Night/silent-night_music.ily:30:13:14">
<g transform="translate(34.7324, 49.0034)">
<text font-family="Optima" font-size="1.7459" text-anchor="start" fill="currentColor">
<tspan>Vir-</tspan>
</text>
</g>
</a>
<g transform="translate(35.4769, 43.5034)">
<rect x="-0.0650" y="0.1861" width="0.1300" height="2.8952" ry="0.0400" fill="currentColor"/>
</g>
<a style="color:inherit;" xlink:href="textedit:///Users/Marc/Projects/violin-music.github.io/tunes/Christmas/Silent-Night/silent-night_music.ily:16:4:5">
<g transform="translate(41.5146, 44.0534)">
<path transform="scale(0.0040, -0.0040)" d="M218 136c66 0 108 -36 108 -89c0 -89 -113 -183 -218 -183c-66 0 -108 36 -108 89c0 89 113 183 218 183z" fill="currentColor"/>
</g>
</a>
<a style="color:inherit;" xlink:href="textedit:///Users/Marc/Projects/violin-music.github.io/tunes/Christmas/Silent-Night/silent-night_music.ily:30:18:19">
<g transform="translate(41.0058, 49.0034)">
<text font-family="Optima" font-size="1.7459" text-anchor="start" fill="currentColor">
<tspan>gin</tspan>
</text>
</g>
</a>
<g transform="translate(43.2688, 44.0534)">
<path transform="scale(0.0040, -0.0040)" d="M0 0c0 31 25 56 56 56s56 -25 56 -56s-25 -56 -56 -56s-56 25 -56 56z" fill="currentColor"/>
</g>
<g transform="translate(42.7538, 43.5034)">
<rect x="-0.0650" y="-3.0860" width="0.1300" height="3.4499" ry="0.0400" fill="currentColor"/>
</g>
<a style="color:inherit;" xlink:href="textedit:///Users/Marc/Projects/violin-music.github.io/tunes/Christmas/Silent-Night/silent-night_music.ily:16:9:10">
<g transform="translate(47.4872, 43.5034)">
<path transform="scale(0.0040, -0.0040)" d="M218 136c66 0 108 -36 108 -89c0 -89 -113 -183 -218 -183c-66 0 -108 36 -108 89c0 89 113 183 218 183z" fill="currentColor"/>
</g>
</a>
<a style="color:inherit;" xlink:href="textedit:///Users/Marc/Projects/violin-music.github.io/tunes/Christmas/Silent-Night/silent-night_music.ily:30:22:23">
<g transform="translate(46.6029, 49.0034)">
<text font-family="Optima" font-size="1.7459" text-anchor="start" fill="currentColor">
<tspan>Mo-</tspan>
</text>
</g>
</a>
<g transform="translate(48.7264, 43.5034)">
<rect x="-0.0650" y="-3.0860" width="0.1300" height="2.8999" ry="0.0400" fill="currentColor"/>
</g>
<a style="color:inherit;" xlink:href="textedit:///Users/Marc/Projects/violin-music.github.io/tunes/Christmas/Silent-Night/silent-night_music.ily:16:14:15">
<g transform="translate(50.9247, 44.0534)">
<path transform="scale(0.0040, -0.0040)" d="M218 136c66 0 108 -36 108 -89c0 -89 -113 -183 -218 -183c-66 0 -108 36 -108 89c0 89 113 183 218 183z" fill="currentColor"/>
</g>
</a>
<a style="color:inherit;" xlink:href="textedit:///Users/Marc/Projects/violin-music.github.io/tunes/Christmas/Silent-Night/silent-night_music.ily:30:26:27">
<g transform="translate(50.1258, 49.0034)">
<text font-family="Optima" font-size="1.7459" text-anchor="start" fill="currentColor">
<tspan>ther</tspan>
</text>
</g>
</a>
<g transform="translate(52.1640, 43.5034)">
<rect x="-0.0650" y="-3.0860" width="0.1300" height="3.4499" ry="0.0400" fill="currentColor"/>
</g>
<a style="color:inherit;" xlink:href="textedit:///Users/Marc/Projects/violin-music.github.io/tunes/Christmas/Silent-Night/silent-night_music.ily:16:18:19">
<g transform="translate(55.5910, 45.1534)">
<path transform="scale(0.0040, -0.0040)" d="M218 136c66 0 108 -36 108 -89c0 -89 -113 -183 -218 -183c-66 0 -108 36 -108 89c0 89 113 183 218 183z" fill="currentColor"/>
</g>
</a>
<a style="color:inherit;" xlink:href="textedit:///Users/Marc/Projects/violin-music.github.io/tunes/Christmas/Silent-Night/silent-night_music.ily:30:31:32">
<g transform="translate(54.8432, 49.0034)">
<text font-family="Optima" font-size="1.7459" text-anchor="start" fill="currentColor">
<tspan>and</tspan>
</text>
</g>
</a>
<g transform="translate(57.3452, 45.1534)">
<path transform="scale(0.0040, -0.0040)" d="M0 0c0 31 25 56 56 56s56 -25 56 -56s-25 -56 -56 -56s-56 25 -56 56z" fill="currentColor"/>
</g>
<g transform="translate(56.8302, 43.5034)">
<rect x="-0.0650" y="-2.2000" width="0.1300" height="3.6639" ry="0.0400" fill="currentColor"/>
</g>
<g transform="translate(42.6888, 40.4174)">
<polygon stroke-linejoin="round" stroke-linecap="round" stroke-width="0.0800" fill="currentColor" stroke="currentColor" points="9.5002 -0.2240 9.5002 0.2240 0.0400 0.2240 0.0400 -0.2240"/>
</g>
<g transform="translate(47.6264, 41.3034)">
<polygon stroke-linejoin="round" stroke-linecap="round" stroke-width="0.0800" fill="currentColor" stroke="currentColor" points="1.1250 -0.2240 1.1250 0.2240 0.0400 0.2240 0.0400 -0.2240"/>
</g>
<a style="color:inherit;" xlink:href="textedit:///Users/Marc/Projects/violin-music.github.io/tunes/Christmas/Silent-Night/silent-night_music.ily:17:4:5">
<g transform="translate(65.0284, 43.5034)">
<path transform="scale(0.0040, -0.0040)" d="M218 136c66 0 108 -36 108 -89c0 -89 -113 -183 -218 -183c-66 0 -108 36 -108 89c0 89 113 183 218 183z" fill="currentColor"/>
</g>
</a>
<a style="color:inherit;" xlink:href="textedit:///Users/Marc/Projects/violin-music.github.io/tunes/Christmas/Silent-Night/silent-night_music.ily:30:35:36">
<g transform="translate(63.4271, 49.0034)">
<text font-family="Optima" font-size="1.7459" text-anchor="start" fill="currentColor">
<tspan>Child,</tspan>
</text>
</g>
</a>
<g transform="translate(65.0934, 43.5034)">
<rect x="-0.0650" y="0.1861" width="0.1300" height="3.4806" ry="0.0400" fill="currentColor"/>
</g>
<a style="color:inherit;" xlink:href="textedit:///Users/Marc/Projects/violin-music.github.io/tunes/Christmas/Silent-Night/silent-night_music.ily:17:8:9">
<g transform="translate(71.7506, 43.5034)">
<path transform="scale(0.0040, -0.0040)" d="M218 136c66 0 108 -36 108 -89c0 -89 -113 -183 -218 -183c-66 0 -108 36 -108 89c0 89 113 183 218 183z" fill="currentColor"/>
</g>
</a>
<a style="color:inherit;" xlink:href="textedit:///Users/Marc/Projects/violin-music.github.io/tunes/Christmas/Silent-Night/silent-night_music.ily:31:2:3">
<g transform="translate(71.1565, 49.0034)">
<text font-family="Optima" font-size="1.7459" text-anchor="start" fill="currentColor">
<tspan>ho-</tspan>
</text>
</g>
</a>
<g transform="translate(71.8156, 43.5034)">
<rect x="-0.0650" y="0.1861" width="0.1300" height="3.5264" ry="0.0400" fill="currentColor"/>
</g>
<g transform="translate(71.8806, 47.1759)">
<path transform="scale(0.0040, -0.0040)" d="M0 0h-16v250h16v-250zM0 0v250c97 59 224 148 224 259c0 57 -15 112 -40 163c-3 16 10 27 23 27c7 0 15 -3 20 -11c25 -56 40 -117 40 -179c0 -203 -267 -306 -267 -509z" fill="currentColor"/>
</g>
<a style="color:inherit;" xlink:href="textedit:///Users/Marc/Projects/violin-music.github.io/tunes/Christmas/Silent-Night/silent-night_music.ily:17:12:13">
<g transform="translate(76.6669, 42.4034)">
<path transform="scale(0.0040, -0.0040)" d="M218 136c66 0 108 -36 108 -89c0 -89 -113 -183 -218 -183c-66 0 -108 36 -108 89c0 89 113 183 218 183z" fill="currentColor"/>
</g>
</a>
<a style="color:inherit;" xlink:href="textedit:///Users/Marc/Projects/violin-music.github.io/tunes/Christmas/Silent-Night/silent-night_music.ily:31:6:7">
<g transform="translate(76.6361, 49.0034)">
<text font-family="Optima" font-size="1.7459" text-anchor="start" fill="currentColor">
<tspan>ly</tspan>
</text>
</g>
</a>
<g transform="translate(78.4211, 41.8534)">
<path transform="scale(0.0040, -0.0040)" d="M0 0c0 31 25 56 56 56s56 -25 56 -56s-25 -56 -56 -56s-56 25 -56 56z" fill="currentColor"/>
</g>
<g transform="translate(76.7319, 43.5034)">
<rect x="-0.0650" y="-0.9139" width="0.1300" height="3.3326" ry="0.0400" fill="currentColor"/>
</g>
<g transform="translate(31.2666, 45.3916)">
<polygon stroke-linejoin="round" stroke-linecap="round" stroke-width="0.0800" fill="currentColor" stroke="currentColor" points="1.1250 -0.1390 1.1250 0.3090 0.0400 0.2240 0.0400 -0.2240"/>
</g>
<g transform="translate(26.3290, 45.9174)">
<polygon stroke-linejoin="round" stroke-linecap="round" stroke-width="0.0800" fill="currentColor" stroke="currentColor" points="9.1729 0.4480 9.1729 0.8960 0.0400 0.2240 0.0400 -0.2240"/>
</g>
<a style="color:inherit;" xlink:href="textedit:///Users/Marc/Projects/violin-music.github.io/tunes/Christmas/Silent-Night/silent-night_music.ily:17:18:19">
<g transform="translate(82.6395, 42.9534)">
<path transform="scale(0.0040, -0.0040)" d="M218 136c66 0 108 -36 108 -89c0 -89 -113 -183 -218 -183c-66 0 -108 36 -108 89c0 89 113 183 218 183z" fill="currentColor"/>
</g>
</a>
<a style="color:inherit;" xlink:href="textedit:///Users/Marc/Projects/violin-music.github.io/tunes/Christmas/Silent-Night/silent-night_music.ily:31:9:10">
<g transform="translate(82.2844, 49.0034)">
<text font-family="Optima" font-size="1.7459" text-anchor="start" fill="currentColor">
<tspan>in-</tspan>
</text>
</g>
</a>
<g transform="translate(82.7045, 43.5034)">
<rect x="-0.0650" y="-0.3639" width="0.1300" height="3.2183" ry="0.0400" fill="currentColor"/>
</g>
<a style="color:inherit;" xlink:href="textedit:///Users/Marc/Projects/violin-music.github.io/tunes/Christmas/Silent-Night/silent-night_music.ily:17:23:24">
<g transform="translate(85.7497, 43.5034)">
<path transform="scale(0.0040, -0.0040)" d="M218 136c66 0 108 -36 108 -89c0 -89 -113 -183 -218 -183c-66 0 -108 36 -108 89c0 89 113 183 218 183z" fill="currentColor"/>
</g>
</a>
<a style="color:inherit;" xlink:href="textedit:///Users/Marc/Projects/violin-music.github.io/tunes/Christmas/Silent-Night/silent-night_music.ily:31:13:14">
<g transform="translate(85.0019, 49.0034)">
<text font-family="Optima" font-size="1.7459" text-anchor="start" fill="currentColor">
<tspan>fant</tspan>
</text>
</g>
</a>
<g transform="translate(85.8147, 43.5034)">
<rect x="-0.0650" y="0.1861" width="0.1300" height="2.8952" ry="0.0400" fill="currentColor"/>
</g>
<a style="color:inherit;" xlink:href="textedit:///Users/Marc/Projects/violin-music.github.io/tunes/Christmas/Silent-Night/silent-night_music.ily:15:17:18">
<g transform="translate(26.3290, 43.5034)">
<path stroke-width="0.0800" stroke-linejoin="round" stroke-linecap="round" stroke="currentColor" fill="currentColor" d="M0.7038 -2.3600C2.1846 -3.4011 5.4832 -3.0063 6.6764 -1.6450L6.6764 -1.6450C5.4689 -2.8871 2.1703 -3.2820 0.7038 -2.3600z"/>
</g>
</a>
<a style="color:inherit;" xlink:href="textedit:///Users/Marc/Projects/violin-music.github.io/tunes/Christmas/Silent-Night/silent-night_music.ily:18:4:5">
<g transform="translate(91.8524, 44.0534)">
<path transform="scale(0.0040, -0.0040)" d="M218 136c66 0 108 -36 108 -89c0 -89 -113 -183 -218 -183c-66 0 -108 36 -108 89c0 89 113 183 218 183z" fill="currentColor"/>
</g>
</a>
<a style="color:inherit;" xlink:href="textedit:///Users/Marc/Projects/violin-music.github.io/tunes/Christmas/Silent-Night/silent-night_music.ily:31:18:19">
<g transform="translate(91.6851, 49.0034)">
<text font-family="Optima" font-size="1.7459" text-anchor="start" fill="currentColor">
<tspan>so</tspan>
</text>
</g>
</a>
<g transform="translate(93.6066, 44.0534)">
<path transform="scale(0.0040, -0.0040)" d="M0 0c0 31 25 56 56 56s56 -25 56 -56s-25 -56 -56 -56s-56 25 -56 56z" fill="currentColor"/>
</g>
<g transform="translate(93.0916, 43.5034)">
<rect x="-0.0650" y="-3.0860" width="0.1300" height="3.4499" ry="0.0400" fill="currentColor"/>
</g>
<a style="color:inherit;" xlink:href="textedit:///Users/Marc/Projects/violin-music.github.io/tunes/Christmas/Silent-Night/silent-night_music.ily:18:9:10">
<g transform="translate(97.8251, 43.5034)">
<path transform="scale(0.0040, -0.0040)" d="M218 136c66 0 108 -36 108 -89c0 -89 -113 -183 -218 -183c-66 0 -108 36 -108 89c0 89 113 183 218 183z" fill="currentColor"/>
</g>
</a>
<a style="color:inherit;" xlink:href="textedit:///Users/Marc/Projects/violin-music.github.io/tunes/Christmas/Silent-Night/silent-night_music.ily:31:21:22">
<g transform="translate(97.0261, 49.0034)">
<text font-family="Optima" font-size="1.7459" text-anchor="start" fill="currentColor">
<tspan>ten-</tspan>
</text>
</g>
</a>
<g transform="translate(99.0643, 43.5034)">
<rect x="-0.0650" y="-3.0860" width="0.1300" height="2.8999" ry="0.0400" fill="currentColor"/>
</g>
<a style="color:inherit;" xlink:href="textedit:///Users/Marc/Projects/violin-music.github.io/tunes/Christmas/Silent-Night/silent-night_music.ily:18:14:15">
<g transform="translate(100.9382, 44.0534)">
<path transform="scale(0.0040, -0.0040)" d="M218 136c66 0 108 -36 108 -89c0 -89 -113 -183 -218 -183c-66 0 -108 36 -108 89c0 89 113 183 218 183z" fill="currentColor"/>
</g>
</a>
<a style="color:inherit;" xlink:href="textedit:///Users/Marc/Projects/violin-music.github.io/tunes/Christmas/Silent-Night/silent-night_music.ily:31:26:27">
<g transform="translate(100.3783, 49.0034)">
<text font-family="Optima" font-size="1.7459" text-anchor="start" fill="currentColor">
<tspan>der</tspan>
</text>
</g>
</a>
<g transform="translate(102.1775, 43.5034)">
<rect x="-0.0650" y="-3.0860" width="0.1300" height="3.4499" ry="0.0400" fill="currentColor"/>
</g>
<a style="color:inherit;" xlink:href="textedit:///Users/Marc/Projects/violin-music.github.io/tunes/Christmas/Silent-Night/silent-night_music.ily:18:18:19">
<g transform="translate(105.6045, 45.1534)">
<path transform="scale(0.0040, -0.0040)" d="M218 136c66 0 108 -36 108 -89c0 -89 -113 -183 -218 -183c-66 0 -108 36 -108 89c0 89 113 183 218 183z" fill="currentColor"/>
</g>
</a>
<a style="color:inherit;" xlink:href="textedit:///Users/Marc/Projects/violin-music.github.io/tunes/Christmas/Silent-Night/silent-night_music.ily:31:30:31">
<g transform="translate(104.8567, 49.0034)">
<text font-family="Optima" font-size="1.7459" text-anchor="start" fill="currentColor">
<tspan>and</tspan>
</text>
</g>
</a>
<g transform="translate(107.3587, 45.1534)">
<path transform="scale(0.0040, -0.0040)" d="M0 0c0 31 25 56 56 56s56 -25 56 -56s-25 -56 -56 -56s-56 25 -56 56z" fill="currentColor"/>
</g>
<g transform="translate(106.8437, 43.5034)">
<rect x="-0.0650" y="-2.2000" width="0.1300" height="3.6639" ry="0.0400" fill="currentColor"/>
</g>
<g transform="translate(5.6906, 61.7034)">
<line stroke-linejoin="round" stroke-linecap="round" stroke-width="0.1000" stroke="currentColor" x1="0.0500" y1="0" x2="108.0705" y2="0"/>
</g>
<g transform="translate(5.6906, 60.6034)">
<line stroke-linejoin="round" stroke-linecap="round" stroke-width="0.1000" stroke="currentColor" x1="0.0500" y1="0" x2="108.0705" y2="0"/>
</g>
<g transform="translate(5.6906, 59.5034)">
<line stroke-linejoin="round" stroke-linecap="round" stroke-width="0.1000" stroke="currentColor" x1="0.0500" y1="0" x2="108.0705" y2="0"/>
</g>
<g transform="translate(5.6906, 58.4034)">
<line stroke-linejoin="round" stroke-linecap="round" stroke-width="0.1000" stroke="currentColor" x1="0.0500" y1="0" x2="108.0705" y2="0"/>
</g>
<g transform="translate(5.6906, 57.3034)">
<line stroke-linejoin="round" stroke-linecap="round" stroke-width="0.1000" stroke="currentColor" x1="0.0500" y1="0" x2="108.0705" y2="0"/>
</g>
<g transform="translate(113.2110, 59.5034)">
<rect x="0.0000" y="-2.2000" width="0.6000" height="4.4000" ry="0.0000" fill="currentColor"/>
</g>
<g transform="translate(112.7210, 59.5034)">
<rect x="0.0000" y="-2.2000" width="0.1900" height="4.4000" ry="0.0000" fill="currentColor"/>
</g>
<g transform="translate(91.1229, 59.5034)">
<rect x="0.0000" y="-2.2000" width="0.1900" height="4.4000" ry="0.0000" fill="currentColor"/>
</g>
<g transform="translate(59.8153, 59.5034)">
<rect x="0.0000" y="-2.2000" width="0.1900" height="4.4000" ry="0.0000" fill="currentColor"/>
</g>
<g transform="translate(41.7786, 59.5034)">
<rect x="0.0000" y="-2.2000" width="0.1900" height="4.4000" ry="0.0000" fill="currentColor"/>
</g>
<g transform="translate(6.4906, 60.6034)">
<path transform="scale(0.0040, -0.0040)" d="M266 -635h-6c-108 0 -195 88 -195 197c0 58 53 103 112 103c54 0 95 -47 95 -103c0 -52 -43 -95 -95 -95c-11 0 -21 2 -31 6c26 -39 68 -65 117 -65h4zM461 -203c68 24 113 90 113 164c0 90 -66 179 -173 190c19 -89 48 -242 60 -354zM74 28c0 -145 141 -247 264 -247
c1 0 47 0 82 6c-7 64 -29 203 -63 364c-79 -8 -124 -61 -124 -119c0 -44 25 -91 81 -123c5 -5 7 -10 7 -15c0 -11 -10 -22 -22 -22c-15 0 -126 62 -126 187c0 88 58 174 160 197c-14 58 -29 117 -46 175c-107 -121 -213 -243 -213 -403zM250 553c-29 96 -52 170 -52 346
c0 115 55 224 149 292c6 5 14 5 20 0c68 -80 133 -245 133 -358c0 -143 -86 -255 -180 -364c21 -68 39 -138 56 -207c2 0 7 1 13 1c155 0 256 -128 256 -261c0 -113 -74 -212 -180 -246c3 -35 5 -70 5 -105c0 -19 -1 -39 -2 -58c-7 -119 -88 -225 -202 -228l1 43
c93 2 153 92 159 191c1 18 2 37 2 55c0 31 -1 61 -4 92c-5 -1 -44 -8 -89 -8c-193 0 -333 180 -333 374c0 177 131 306 248 441zM428 916c0 34 1 66 -20 129c-99 -48 -162 -149 -162 -259c0 -52 12 -115 36 -194c80 97 146 198 146 324z" fill="currentColor"/>
</g>
<g transform="translate(9.9906, 57.3034)">
<path transform="scale(0.0040, -0.0040)" d="M0 119c0 8 5 15 13 18l46 17v158c0 10 8 19 18 19s19 -9 19 -19v-145l83 31v158c0 10 9 19 19 19s18 -9 18 -19v-145l32 12c2 1 5 1 7 1c11 0 20 -9 20 -20v-60c0 -8 -5 -16 -13 -19l-46 -16v-160l32 11c2 1 5 1 7 1c11 0 20 -9 20 -20v-60c0 -8 -5 -15 -13 -18l-46 -17
v-158c0 -10 -8 -19 -18 -19s-19 9 -19 19v145l-83 -31v-158c0 -10 -9 -19 -19 -19s-18 9 -18 19v145l-32 -12c-2 -1 -5 -1 -7 -1c-11 0 -20 9 -20 20v60c0 8 5 16 13 19l46 16v160l-32 -11c-2 -1 -5 -1 -7 -1c-11 0 -20 9 -20 20v60zM179 95l-83 -30v-160l83 30v160z" fill="currentColor"/>
</g>
<g transform="translate(11.0906, 58.9534)">
<path transform="scale(0.0040, -0.0040)" d="M0 119c0 8 5 15 13 18l46 17v158c0 10 8 19 18 19s19 -9 19 -19v-145l83 31v158c0 10 9 19 19 19s18 -9 18 -19v-145l32 12c2 1 5 1 7 1c11 0 20 -9 20 -20v-60c0 -8 -5 -16 -13 -19l-46 -16v-160l32 11c2 1 5 1 7 1c11 0 20 -9 20 -20v-60c0 -8 -5 -15 -13 -18l-46 -17
v-158c0 -10 -8 -19 -18 -19s-19 9 -19 19v145l-83 -31v-158c0 -10 -9 -19 -19 -19s-18 9 -18 19v145l-32 -12c-2 -1 -5 -1 -7 -1c-11 0 -20 9 -20 20v60c0 8 5 16 13 19l46 16v160l-32 -11c-2 -1 -5 -1 -7 -1c-11 0 -20 9 -20 20v60zM179 95l-83 -30v-160l83 30v160z" fill="currentColor"/>
</g>
<g transform="translate(4.8028, 56.2296)">
<text font-family="serif" font-size="1.7459" text-anchor="start" fill="currentColor">
<tspan>9</tspan>
</text>
</g>
<a style="color:inherit;" xlink:href="textedit:///Users/Marc/Projects/violin-music.github.io/tunes/Christmas/Silent-Night/silent-night_music.ily:23:9:10">
<g transform="translate(92.4890, 59.5034)">
<path stroke-width="0.0800" stroke-linejoin="round" stroke-linecap="round" stroke="currentColor" fill="currentColor" d="M1.5042 3.3000C2.5310 4.1790 7.0192 4.1790 8.0460 3.3000L8.0460 3.3000C7.0192 4.0590 2.5310 4.0590 1.5042 3.3000z"/>
</g>
</a>
<a style="color:inherit;" xlink:href="textedit:///Users/Marc/Projects/violin-music.github.io/tunes/Christmas/Silent-Night/silent-night_music.ily:20:4:5">
<g transform="translate(14.6906, 57.8534)">
<path transform="scale(0.0040, -0.0040)" d="M218 136c66 0 108 -36 108 -89c0 -89 -113 -183 -218 -183c-66 0 -108 36 -108 89c0 89 113 183 218 183z" fill="currentColor"/>
</g>
</a>
<a style="color:inherit;" xlink:href="textedit:///Users/Marc/Projects/violin-music.github.io/tunes/Christmas/Silent-Night/silent-night_music.ily:31:34:35">
<g transform="translate(13.4136, 65.0034)">
<text font-family="Optima" font-size="1.7459" text-anchor="start" fill="currentColor">
<tspan>mild,</tspan>
</text>
</g>
</a>
<g transform="translate(14.7556, 59.5034)">
<rect x="-0.0650" y="-1.4639" width="0.1300" height="3.6639" ry="0.0400" fill="currentColor"/>
</g>
<g transform="translate(76.8328, 56.4174)">
<polygon stroke-linejoin="round" stroke-linecap="round" stroke-width="0.0800" fill="currentColor" stroke="currentColor" points="10.1274 0.6620 10.1274 1.1100 0.0400 0.2240 0.0400 -0.2240"/>
</g>
<g transform="translate(82.1074, 57.7631)">
<polygon stroke-linejoin="round" stroke-linecap="round" stroke-width="0.0800" fill="currentColor" stroke="currentColor" points="1.1250 -0.1225 1.1250 0.3255 0.0400 0.2240 0.0400 -0.2240"/>
</g>
<a style="color:inherit;" xlink:href="textedit:///Users/Marc/Projects/violin-music.github.io/tunes/Christmas/Silent-Night/silent-night_music.ily:20:9:10">
<g transform="translate(21.8039, 57.8534)">
<path transform="scale(0.0040, -0.0040)" d="M218 136c66 0 108 -36 108 -89c0 -89 -113 -183 -218 -183c-66 0 -108 36 -108 89c0 89 113 183 218 183z" fill="currentColor"/>
</g>
</a>
<a style="color:inherit;" xlink:href="textedit:///Users/Marc/Projects/violin-music.github.io/tunes/Christmas/Silent-Night/silent-night_music.ily:32:2:3">
<g transform="translate(20.4074, 65.0034)">
<text font-family="Optima" font-size="1.7459" text-anchor="start" fill="currentColor">
<tspan>Sleep</tspan>
</text>
</g>
</a>
<g transform="translate(21.8689, 59.5034)">
<rect x="-0.0650" y="-1.4639" width="0.1300" height="3.6639" ry="0.0400" fill="currentColor"/>
</g>
<g transform="translate(21.9339, 61.6634)">
<path transform="scale(0.0040, -0.0040)" d="M0 0h-16v250h16v-250zM0 0v250c97 59 224 148 224 259c0 57 -15 112 -40 163c-3 16 10 27 23 27c7 0 15 -3 20 -11c25 -56 40 -117 40 -179c0 -203 -267 -306 -267 -509z" fill="currentColor"/>
</g>
<a style="color:inherit;" xlink:href="textedit:///Users/Marc/Projects/violin-music.github.io/tunes/Christmas/Silent-Night/silent-night_music.ily:20:14:15">
<g transform="translate(26.9808, 56.7534)">
<path transform="scale(0.0040, -0.0040)" d="M218 136c66 0 108 -36 108 -89c0 -89 -113 -183 -218 -183c-66 0 -108 36 -108 89c0 89 113 183 218 183z" fill="currentColor"/>
</g>
</a>
<a style="color:inherit;" xlink:href="textedit:///Users/Marc/Projects/violin-music.github.io/tunes/Christmas/Silent-Night/silent-night_music.ily:32:8:9">
<g transform="translate(26.9159, 65.0034)">
<text font-family="Optima" font-size="1.7459" text-anchor="start" fill="currentColor">
<tspan>in</tspan>
</text>
</g>
</a>
<g transform="translate(28.7350, 56.7534)">
<path transform="scale(0.0040, -0.0040)" d="M0 0c0 31 25 56 56 56s56 -25 56 -56s-25 -56 -56 -56s-56 25 -56 56z" fill="currentColor"/>
</g>
<g transform="translate(27.0458, 59.5034)">
<rect x="-0.0650" y="-2.5639" width="0.1300" height="3.6725" ry="0.0400" fill="currentColor"/>
</g>
<a style="color:inherit;" xlink:href="textedit:///Users/Marc/Projects/violin-music.github.io/tunes/Christmas/Silent-Night/silent-night_music.ily:20:21:22">
<g transform="translate(33.0404, 57.8534)">
<path transform="scale(0.0040, -0.0040)" d="M218 136c66 0 108 -36 108 -89c0 -89 -113 -183 -218 -183c-66 0 -108 36 -108 89c0 89 113 183 218 183z" fill="currentColor"/>
</g>
</a>
<a style="color:inherit;" xlink:href="textedit:///Users/Marc/Projects/violin-music.github.io/tunes/Christmas/Silent-Night/silent-night_music.ily:32:11:12">
<g transform="translate(32.0366, 65.0034)">
<text font-family="Optima" font-size="1.7459" text-anchor="start" fill="currentColor">
<tspan>hea-</tspan>
</text>
</g>
</a>
<g transform="translate(33.1054, 59.5034)">
<rect x="-0.0650" y="-1.4639" width="0.1300" height="3.3754" ry="0.0400" fill="currentColor"/>
</g>
<a style="color:inherit;" xlink:href="textedit:///Users/Marc/Projects/violin-music.github.io/tunes/Christmas/Silent-Night/silent-night_music.ily:20:27:28">
<g transform="translate(36.7682, 58.9534)">
<path transform="scale(0.0040, -0.0040)" d="M218 136c66 0 108 -36 108 -89c0 -89 -113 -183 -218 -183c-66 0 -108 36 -108 89c0 89 113 183 218 183z" fill="currentColor"/>
</g>
</a>
<a style="color:inherit;" xlink:href="textedit:///Users/Marc/Projects/violin-music.github.io/tunes/Christmas/Silent-Night/silent-night_music.ily:32:16:17">
<g transform="translate(35.7985, 65.0034)">
<text font-family="Optima" font-size="1.7459" text-anchor="start" fill="currentColor">
<tspan>ven-</tspan>
</text>
</g>
</a>
<g transform="translate(36.8332, 59.5034)">
<rect x="-0.0650" y="-0.3639" width="0.1300" height="2.7693" ry="0.0400" fill="currentColor"/>
</g>
<g transform="translate(62.3557, 55.6534)">
<polygon stroke-linejoin="round" stroke-linecap="round" stroke-width="0.0800" fill="currentColor" stroke="currentColor" points="9.1402 1.4260 9.1402 1.8740 0.0400 0.2240 0.0400 -0.2240"/>
</g>
<g transform="translate(67.3803, 57.4425)">
<polygon stroke-linejoin="round" stroke-linecap="round" stroke-width="0.0800" fill="currentColor" stroke="currentColor" points="1.1250 -0.0146 1.1250 0.4334 0.0400 0.2240 0.0400 -0.2240"/>
</g>
<a style="color:inherit;" xlink:href="textedit:///Users/Marc/Projects/violin-music.github.io/tunes/Christmas/Silent-Night/silent-night_music.ily:21:4:5">
<g transform="translate(43.3113, 58.4034)">
<path transform="scale(0.0040, -0.0040)" d="M218 136c66 0 108 -36 108 -89c0 -89 -113 -183 -218 -183c-66 0 -108 36 -108 89c0 89 113 183 218 183z" fill="currentColor"/>
</g>
</a>
<a style="color:inherit;" xlink:href="textedit:///Users/Marc/Projects/violin-music.github.io/tunes/Christmas/Silent-Night/silent-night_music.ily:32:21:22">
<g transform="translate(43.3113, 65.0034)">
<text font-family="Optima" font-size="1.7459" text-anchor="start" fill="currentColor">
<tspan>ly</tspan>
</text>
</g>
</a>
<g transform="translate(45.0655, 57.8534)">
<path transform="scale(0.0040, -0.0040)" d="M0 0c0 31 25 56 56 56s56 -25 56 -56s-25 -56 -56 -56s-56 25 -56 56z" fill="currentColor"/>
</g>
<g transform="translate(43.3763, 59.5034)">
<rect x="-0.0650" y="-0.9139" width="0.1300" height="3.6639" ry="0.0400" fill="currentColor"/>
</g>
<a style="color:inherit;" xlink:href="textedit:///Users/Marc/Projects/violin-music.github.io/tunes/Christmas/Silent-Night/silent-night_music.ily:21:11:12">
<g transform="translate(51.8072, 57.3034)">
<path transform="scale(0.0040, -0.0040)" d="M218 136c66 0 108 -36 108 -89c0 -89 -113 -183 -218 -183c-66 0 -108 36 -108 89c0 89 113 183 218 183z" fill="currentColor"/>
</g>
</a>
<g transform="translate(53.5615, 56.7534)">
<path transform="scale(0.0040, -0.0040)" d="M0 0c0 31 25 56 56 56s56 -25 56 -56s-25 -56 -56 -56s-56 25 -56 56z" fill="currentColor"/>
</g>
<g transform="translate(51.8722, 59.5034)">
<rect x="-0.0650" y="-2.0139" width="0.1300" height="3.6639" ry="0.0400" fill="currentColor"/>
</g>
<a style="color:inherit;" xlink:href="textedit:///Users/Marc/Projects/violin-music.github.io/tunes/Christmas/Silent-Night/silent-night_music.ily:22:9:10">
<g transform="translate(61.1815, 59.5034)">
<path stroke-width="0.0800" stroke-linejoin="round" stroke-linecap="round" stroke="currentColor" fill="currentColor" d="M0.5486 0.1600C1.5959 1.6884 4.9730 2.5160 6.6083 1.6450L6.6083 1.6450C5.0016 2.3995 1.6244 1.5719 0.5486 0.1600z"/>
</g>
</a>
<a style="color:inherit;" xlink:href="textedit:///Users/Marc/Projects/violin-music.github.io/tunes/Christmas/Silent-Night/silent-night_music.ily:22:4:5">
<g transform="translate(61.1815, 58.4034)">
<path transform="scale(0.0040, -0.0040)" d="M218 136c66 0 108 -36 108 -89c0 -89 -113 -183 -218 -183c-66 0 -108 36 -108 89c0 89 113 183 218 183z" fill="currentColor"/>
</g>
</a>
<a style="color:inherit;" xlink:href="textedit:///Users/Marc/Projects/violin-music.github.io/tunes/Christmas/Silent-Night/silent-night_music.ily:32:24:25">
<g transform="translate(61.1815, 65.0034)">
<text font-family="Optima" font-size="1.7459" text-anchor="start" fill="currentColor">
<tspan>peace,</tspan>
</text>
</g>
</a>
<g transform="translate(62.9357, 57.8534)">
<path transform="scale(0.0040, -0.0040)" d="M0 0c0 31 25 56 56 56s56 -25 56 -56s-25 -56 -56 -56s-56 25 -56 56z" fill="currentColor"/>
</g>
<g transform="translate(62.4207, 59.5034)">
<rect x="-0.0650" y="-3.8383" width="0.1300" height="2.5522" ry="0.0400" fill="currentColor"/>
</g>
<g transform="translate(32.0054, 60.3832)">
<polygon stroke-linejoin="round" stroke-linecap="round" stroke-width="0.0800" fill="currentColor" stroke="currentColor" points="1.1250 -0.0696 1.1250 0.3784 0.0400 0.2240 0.0400 -0.2240"/>
</g>
<g transform="translate(26.9808, 60.6034)">
<polygon stroke-linejoin="round" stroke-linecap="round" stroke-width="0.0800" fill="currentColor" stroke="currentColor" points="9.8774 1.0900 9.8774 1.5380 0.0400 0.2240 0.0400 -0.2240"/>
</g>
<a style="color:inherit;" xlink:href="textedit:///Users/Marc/Projects/violin-music.github.io/tunes/Christmas/Silent-Night/silent-night_music.ily:22:11:12">
<g transform="translate(67.2411, 60.0534)">
<path transform="scale(0.0040, -0.0040)" d="M218 136c66 0 108 -36 108 -89c0 -89 -113 -183 -218 -183c-66 0 -108 36 -108 89c0 89 113 183 218 183z" fill="currentColor"/>
</g>
</a>
<g transform="translate(68.4803, 59.5034)">
<rect x="-0.0650" y="-2.7492" width="0.1300" height="3.1131" ry="0.0400" fill="currentColor"/>
</g>
<a style="color:inherit;" xlink:href="textedit:///Users/Marc/Projects/violin-music.github.io/tunes/Christmas/Silent-Night/silent-night_music.ily:21:9:10">
<g transform="translate(43.3113, 59.5034)">
<path stroke-width="0.0800" stroke-linejoin="round" stroke-linecap="round" stroke="currentColor" fill="currentColor" d="M0.6045 -2.3600C2.1311 -3.9841 7.2573 -4.5483 9.1005 -3.2950L9.1005 -3.2950C7.2705 -4.4290 2.1442 -3.8649 0.6045 -2.3600z"/>
</g>
</a>
<a style="color:inherit;" xlink:href="textedit:///Users/Marc/Projects/violin-music.github.io/tunes/Christmas/Silent-Night/silent-night_music.ily:22:17:18">
<g transform="translate(70.2317, 61.1534)">
<path transform="scale(0.0040, -0.0040)" d="M218 136c66 0 108 -36 108 -89c0 -89 -113 -183 -218 -183c-66 0 -108 36 -108 89c0 89 113 183 218 183z" fill="currentColor"/>
</g>
</a>
<a style="color:inherit;" xlink:href="textedit:///Users/Marc/Projects/violin-music.github.io/tunes/Christmas/Silent-Night/silent-night_music.ily:33:2:3">
<g transform="translate(68.8352, 65.0034)">
<text font-family="Optima" font-size="1.7459" text-anchor="start" fill="currentColor">
<tspan>Sleep</tspan>
</text>
</g>
</a>
<g transform="translate(71.4709, 59.5034)">
<rect x="-0.0650" y="-2.2117" width="0.1300" height="3.6756" ry="0.0400" fill="currentColor"/>
</g>
<a style="color:inherit;" xlink:href="textedit:///Users/Marc/Projects/violin-music.github.io/tunes/Christmas/Silent-Night/silent-night_music.ily:22:21:22">
<g transform="translate(75.6586, 60.0534)">
<path transform="scale(0.0040, -0.0040)" d="M218 136c66 0 108 -36 108 -89c0 -89 -113 -183 -218 -183c-66 0 -108 36 -108 89c0 89 113 183 218 183z" fill="currentColor"/>
</g>
</a>
<a style="color:inherit;" xlink:href="textedit:///Users/Marc/Projects/violin-music.github.io/tunes/Christmas/Silent-Night/silent-night_music.ily:33:8:9">
<g transform="translate(75.5937, 65.0034)">
<text font-family="Optima" font-size="1.7459" text-anchor="start" fill="currentColor">
<tspan>in</tspan>
</text>
</g>
</a>
<g transform="translate(77.4128, 60.0534)">
<path transform="scale(0.0040, -0.0040)" d="M0 0c0 31 25 56 56 56s56 -25 56 -56s-25 -56 -56 -56s-56 25 -56 56z" fill="currentColor"/>
</g>
<g transform="translate(76.8978, 59.5034)">
<rect x="-0.0650" y="-3.0803" width="0.1300" height="3.4442" ry="0.0400" fill="currentColor"/>
</g>
<a style="color:inherit;" xlink:href="textedit:///Users/Marc/Projects/violin-music.github.io/tunes/Christmas/Silent-Night/silent-night_music.ily:22:26:27">
<g transform="translate(81.9682, 60.6034)">
<path transform="scale(0.0040, -0.0040)" d="M218 136c66 0 108 -36 108 -89c0 -89 -113 -183 -218 -183c-66 0 -108 36 -108 89c0 89 113 183 218 183z" fill="currentColor"/>
</g>
</a>
<a style="color:inherit;" xlink:href="textedit:///Users/Marc/Projects/violin-music.github.io/tunes/Christmas/Silent-Night/silent-night_music.ily:33:11:12">
<g transform="translate(80.9644, 65.0034)">
<text font-family="Optima" font-size="1.7459" text-anchor="start" fill="currentColor">
<tspan>hea-</tspan>
</text>
</g>
</a>
<g transform="translate(83.2074, 59.5034)">
<rect x="-0.0650" y="-2.5305" width="0.1300" height="3.4444" ry="0.0400" fill="currentColor"/>
</g>
<a style="color:inherit;" xlink:href="textedit:///Users/Marc/Projects/violin-music.github.io/tunes/Christmas/Silent-Night/silent-night_music.ily:22:32:33">
<g transform="translate(85.6960, 61.7034)">
<path transform="scale(0.0040, -0.0040)" d="M218 136c66 0 108 -36 108 -89c0 -89 -113 -183 -218 -183c-66 0 -108 36 -108 89c0 89 113 183 218 183z" fill="currentColor"/>
</g>
</a>
<a style="color:inherit;" xlink:href="textedit:///Users/Marc/Projects/violin-music.github.io/tunes/Christmas/Silent-Night/silent-night_music.ily:33:16:17">
<g transform="translate(84.7263, 65.0034)">
<text font-family="Optima" font-size="1.7459" text-anchor="start" fill="currentColor">
<tspan>ven-</tspan>
</text>
</g>
</a>
<g transform="translate(86.9352, 59.5034)">
<rect x="-0.0650" y="-2.2057" width="0.1300" height="4.2196" ry="0.0400" fill="currentColor"/>
</g>
<a style="color:inherit;" xlink:href="textedit:///Users/Marc/Projects/violin-music.github.io/tunes/Christmas/Silent-Night/silent-night_music.ily:23:4:5">
<g transform="translate(92.4890, 62.2534)">
<path transform="scale(0.0040, -0.0040)" d="M218 136c66 0 108 -36 108 -89c0 -89 -113 -183 -218 -183c-66 0 -108 36 -108 89c0 89 113 183 218 183z" fill="currentColor"/>
</g>
</a>
<a style="color:inherit;" xlink:href="textedit:///Users/Marc/Projects/violin-music.github.io/tunes/Christmas/Silent-Night/silent-night_music.ily:33:21:22">
<g transform="translate(92.4890, 65.0034)">
<text font-family="Optima" font-size="1.7459" text-anchor="start" fill="currentColor">
<tspan>ly</tspan>
</text>
</g>
</a>
<g transform="translate(94.2432, 62.2534)">
<path transform="scale(0.0040, -0.0040)" d="M0 0c0 31 25 56 56 56s56 -25 56 -56s-25 -56 -56 -56s-56 25 -56 56z" fill="currentColor"/>
</g>
<g transform="translate(93.7282, 59.5034)">
<rect x="-0.0650" y="-1.1000" width="0.1300" height="3.6639" ry="0.0400" fill="currentColor"/>
</g>
<a style="color:inherit;" xlink:href="textedit:///Users/Marc/Projects/violin-music.github.io/tunes/Christmas/Silent-Night/silent-night_music.ily:23:11:12">
<g transform="translate(100.7350, 62.2534)">
<path transform="scale(0.0040, -0.0040)" d="M218 136c66 0 108 -36 108 -89c0 -89 -113 -183 -218 -183c-66 0 -108 36 -108 89c0 89 113 183 218 183z" fill="currentColor"/>
</g>
</a>
<g transform="translate(101.9742, 59.5034)">
<rect x="-0.0650" y="-1.1000" width="0.1300" height="3.6639" ry="0.0400" fill="currentColor"/>
</g>
<a style="color:inherit;" xlink:href="textedit:///Users/Marc/Projects/violin-music.github.io/tunes/Christmas/Silent-Night/silent-night_music.ily:23:15:16">
<g transform="translate(107.8483, 59.5034)">
<path transform="scale(0.0040, -0.0040)" d="M70 205c79 0 46 -98 91 -98c16 0 54 48 61 63c6 12 23 12 28 0l-123 -420c-8 -7 -17 -10 -27 -10s-20 3 -28 10l117 326c-34 -12 -69 -22 -105 -22c-47 0 -87 34 -87 79c0 40 33 72 73 72z" fill="currentColor"/>
</g>
</a>
</svg>
