<svg xmlns="http://www.w3.org/2000/svg" xmlns:xlink="http://www.w3.org/1999/xlink" version="1.2" width="210.00mm" height="297.00mm" viewBox="0.0000 -0.0000 119.5016 169.0094">
<style type="text/css">
<![CDATA[
tspan { white-space: pre; }
]]>
</style>
<g transform="translate(35.4749, 6.8594)">
<text font-family="Optima" font-weight="bold" font-size="4.4002" text-anchor="start" fill="currentColor">
<tspan>H</tspan>
</text>
</g>
<g transform="translate(38.8892, 6.8594)">
<text font-family="Optima" font-weight="bold" font-size="3.4921" text-anchor="start" fill="currentColor">
<tspan>EVENU</tspan>
</text>
</g>
<g transform="translate(50.1565, 6.8594)">
<text font-family="Optima" font-weight="bold" font-size="4.4002" text-anchor="start" fill="currentColor">
<tspan> </tspan>
</text>
</g>
<g transform="translate(51.3857, 6.8594)">
<text font-family="Optima" font-weight="bold" font-size="3.4921" text-anchor="start" fill="currentColor">
<tspan>SHALOM</tspan>
</text>
</g>
<g transform="translate(65.9307, 6.8594)">
<text font-family="Optima" font-weight="bold" font-size="4.4002" text-anchor="start" fill="currentColor">
<tspan> </tspan>
</text>
</g>
<g transform="translate(67.1599, 6.8594)">
<text font-family="Optima" font-weight="bold" font-size="3.4921" text-anchor="start" fill="currentColor">
<tspan>ALEICHEM</tspan>
</text>
</g>
<g transform="translate(38.4966, 9.8594)">
<text font-family="Optima" font-size="1.7461" text-anchor="start" fill="currentColor">
<tspan>Hebrew: הבאנו שלום עליכם - We brought peace upon you</tspan>
</text>
</g>
<g transform="translate(103.6363, 6.8594)">
<text font-family="Optima" font-size="1.9600" text-anchor="start" fill="currentColor">
<tspan>Trad. Jewish</tspan>
</text>
</g>
<g transform="translate(113.6210, 29.2958)">
<rect x="0.0000" y="-2.2000" width="0.1900" height="4.4000" ry="0.0000" fill="currentColor"/>
</g>
<g transform="translate(5.6906, 25.9958)">
<rect x="104.7334" y="-0.1050" width="1.9563" height="0.2100" ry="0.1050" fill="currentColor"/>
</g>
<g transform="translate(5.6906, 25.9958)">
<rect x="76.0509" y="-0.1050" width="1.9563" height="0.2100" ry="0.1050" fill="currentColor"/>
</g>
<g transform="translate(5.6906, 24.8958)">
<rect x="69.5619" y="-0.1050" width="2.0660" height="0.2100" ry="0.1050" fill="currentColor"/>
</g>
<g transform="translate(5.6906, 25.9958)">
<rect x="69.5619" y="-0.1050" width="2.0660" height="0.2100" ry="0.1050" fill="currentColor"/>
</g>
<g transform="translate(11.3811, 31.4958)">
<line stroke-linejoin="round" stroke-linecap="round" stroke-width="0.1000" stroke="currentColor" x1="0.0500" y1="0" x2="102.3799" y2="0"/>
</g>
<g transform="translate(11.3811, 30.3958)">
<line stroke-linejoin="round" stroke-linecap="round" stroke-width="0.1000" stroke="currentColor" x1="0.0500" y1="0" x2="102.3799" y2="0"/>
</g>
<g transform="translate(11.3811, 29.2958)">
<line stroke-linejoin="round" stroke-linecap="round" stroke-width="0.1000" stroke="currentColor" x1="0.0500" y1="0" x2="102.3799" y2="0"/>
</g>
<g transform="translate(11.3811, 28.1958)">
<line stroke-linejoin="round" stroke-linecap="round" stroke-width="0.1000" stroke="currentColor" x1="0.0500" y1="0" x2="102.3799" y2="0"/>
</g>
<g transform="translate(11.3811, 27.0958)">
<line stroke-linejoin="round" stroke-linecap="round" stroke-width="0.1000" stroke="currentColor" x1="0.0500" y1="0" x2="102.3799" y2="0"/>
</g>
<g transform="translate(91.0612, 29.2958)">
<rect x="0.0000" y="-2.2000" width="0.1900" height="4.4000" ry="0.0000" fill="currentColor"/>
</g>
<g transform="translate(74.1746, 29.2958)">
<rect x="0.0000" y="-2.2000" width="0.1900" height="4.4000" ry="0.0000" fill="currentColor"/>
</g>
<g transform="translate(51.4111, 29.2958)">
<rect x="0.0000" y="-2.2000" width="0.1900" height="4.4000" ry="0.0000" fill="currentColor"/>
</g>
<g transform="translate(34.2624, 29.2958)">
<rect x="0.0000" y="-2.2000" width="0.1900" height="4.4000" ry="0.0000" fill="currentColor"/>
</g>
<g transform="translate(107.6646, 29.5098)">
<polygon stroke-linejoin="round" stroke-linecap="round" stroke-width="0.0800" fill="currentColor" stroke="currentColor" points="3.1753 -0.4380 3.1753 0.0100 0.0400 0.2240 0.0400 -0.2240"/>
</g>
<a style="color:inherit;" xlink:href="textedit:///Users/marc.mouries/projects/Sheet-Music/Folk_Jewish/Hevenu-Shalom-Aleichem/Hevenu-Shalom-Aleichem_music.ily:46:11:12">
<g transform="translate(109.4782, 34.7958)">
<rect x="0.0000" y="-0.5500" width="0.6600" height="0.1300" ry="0.0400" fill="currentColor"/>
</g>
</a>
<a style="color:inherit;" xlink:href="textedit:///Users/marc.mouries/projects/Sheet-Music/Folk_Jewish/Hevenu-Shalom-Aleichem/Hevenu-Shalom-Aleichem_music.ily:34:14:15">
<g transform="translate(24.9311, 30.3958)">
<path transform="scale(0.0040, -0.0040)" d="M218 136c66 0 108 -36 108 -89c0 -89 -113 -183 -218 -183c-66 0 -108 36 -108 89c0 89 113 183 218 183z" fill="currentColor"/>
</g>
</a>
<g transform="translate(12.1811, 30.3958)">
<path transform="scale(0.0040, -0.0040)" d="M266 -635h-6c-108 0 -195 88 -195 197c0 58 53 103 112 103c54 0 95 -47 95 -103c0 -52 -43 -95 -95 -95c-11 0 -21 2 -31 6c26 -39 68 -65 117 -65h4zM461 -203c68 24 113 90 113 164c0 90 -66 179 -173 190c19 -89 48 -242 60 -354zM74 28c0 -145 141 -247 264 -247
c1 0 47 0 82 6c-7 64 -29 203 -63 364c-79 -8 -124 -61 -124 -119c0 -44 25 -91 81 -123c5 -5 7 -10 7 -15c0 -11 -10 -22 -22 -22c-15 0 -126 62 -126 187c0 88 58 174 160 197c-14 58 -29 117 -46 175c-107 -121 -213 -243 -213 -403zM250 553c-29 96 -52 170 -52 346
c0 115 55 224 149 292c6 5 14 5 20 0c68 -80 133 -245 133 -358c0 -143 -86 -255 -180 -364c21 -68 39 -138 56 -207c2 0 7 1 13 1c155 0 256 -128 256 -261c0 -113 -74 -212 -180 -246c3 -35 5 -70 5 -105c0 -19 -1 -39 -2 -58c-7 -119 -88 -225 -202 -228l1 43
c93 2 153 92 159 191c1 18 2 37 2 55c0 31 -1 61 -4 92c-5 -1 -44 -8 -89 -8c-193 0 -333 180 -333 374c0 177 131 306 248 441zM428 916c0 34 1 66 -20 129c-99 -48 -162 -149 -162 -259c0 -52 12 -115 36 -194c80 97 146 198 146 324z" fill="currentColor"/>
</g>
<a style="color:inherit;" xlink:href="textedit:///Users/marc.mouries/projects/Sheet-Music/Folk_Jewish/Hevenu-Shalom-Aleichem/Hevenu-Shalom-Aleichem_music.ily:32:2:3">
<g transform="translate(15.6811, 27.0958)">
<path transform="scale(0.0040, -0.0040)" d="M0 119c0 8 5 15 13 18l46 17v158c0 10 8 19 18 19s19 -9 19 -19v-145l83 31v158c0 10 9 19 19 19s18 -9 18 -19v-145l32 12c2 1 5 1 7 1c11 0 20 -9 20 -20v-60c0 -8 -5 -16 -13 -19l-46 -16v-160l32 11c2 1 5 1 7 1c11 0 20 -9 20 -20v-60c0 -8 -5 -15 -13 -18l-46 -17
v-158c0 -10 -8 -19 -18 -19s-19 9 -19 19v145l-83 -31v-158c0 -10 -9 -19 -19 -19s-18 9 -18 19v145l-32 -12c-2 -1 -5 -1 -7 -1c-11 0 -20 9 -20 20v60c0 8 5 16 13 19l46 16v160l-32 -11c-2 -1 -5 -1 -7 -1c-11 0 -20 9 -20 20v60zM179 95l-83 -30v-160l83 30v160z" fill="currentColor"/>
</g>
<g transform="translate(16.7811, 28.7458)">
<path transform="scale(0.0040, -0.0040)" d="M0 119c0 8 5 15 13 18l46 17v158c0 10 8 19 18 19s19 -9 19 -19v-145l83 31v158c0 10 9 19 19 19s18 -9 18 -19v-145l32 12c2 1 5 1 7 1c11 0 20 -9 20 -20v-60c0 -8 -5 -16 -13 -19l-46 -16v-160l32 11c2 1 5 1 7 1c11 0 20 -9 20 -20v-60c0 -8 -5 -15 -13 -18l-46 -17
v-158c0 -10 -8 -19 -18 -19s-19 9 -19 19v145l-83 -31v-158c0 -10 -9 -19 -19 -19s-18 9 -18 19v145l-32 -12c-2 -1 -5 -1 -7 -1c-11 0 -20 9 -20 20v60c0 8 5 16 13 19l46 16v160l-32 -11c-2 -1 -5 -1 -7 -1c-11 0 -20 9 -20 20v60zM179 95l-83 -30v-160l83 30v160z" fill="currentColor"/>
</g>
<g transform="translate(17.8811, 26.5458)">
<path transform="scale(0.0040, -0.0040)" d="M0 119c0 8 5 15 13 18l46 17v158c0 10 8 19 18 19s19 -9 19 -19v-145l83 31v158c0 10 9 19 19 19s18 -9 18 -19v-145l32 12c2 1 5 1 7 1c11 0 20 -9 20 -20v-60c0 -8 -5 -16 -13 -19l-46 -16v-160l32 11c2 1 5 1 7 1c11 0 20 -9 20 -20v-60c0 -8 -5 -15 -13 -18l-46 -17
v-158c0 -10 -8 -19 -18 -19s-19 9 -19 19v145l-83 -31v-158c0 -10 -9 -19 -19 -19s-18 9 -18 19v145l-32 -12c-2 -1 -5 -1 -7 -1c-11 0 -20 9 -20 20v60c0 8 5 16 13 19l46 16v160l-32 -11c-2 -1 -5 -1 -7 -1c-11 0 -20 9 -20 20v60zM179 95l-83 -30v-160l83 30v160z" fill="currentColor"/>
</g>
<g transform="translate(18.9811, 28.1958)">
<path transform="scale(0.0040, -0.0040)" d="M0 119c0 8 5 15 13 18l46 17v158c0 10 8 19 18 19s19 -9 19 -19v-145l83 31v158c0 10 9 19 19 19s18 -9 18 -19v-145l32 12c2 1 5 1 7 1c11 0 20 -9 20 -20v-60c0 -8 -5 -16 -13 -19l-46 -16v-160l32 11c2 1 5 1 7 1c11 0 20 -9 20 -20v-60c0 -8 -5 -15 -13 -18l-46 -17
v-158c0 -10 -8 -19 -18 -19s-19 9 -19 19v145l-83 -31v-158c0 -10 -9 -19 -19 -19s-18 9 -18 19v145l-32 -12c-2 -1 -5 -1 -7 -1c-11 0 -20 9 -20 20v60c0 8 5 16 13 19l46 16v160l-32 -11c-2 -1 -5 -1 -7 -1c-11 0 -20 9 -20 20v60zM179 95l-83 -30v-160l83 30v160z" fill="currentColor"/>
</g>
</a>
<a style="color:inherit;" xlink:href="textedit:///Users/marc.mouries/projects/Sheet-Music/Folk_Jewish/Hevenu-Shalom-Aleichem/Hevenu-Shalom-Aleichem_music.ily:6:2:3">
<g transform="translate(21.2311, 29.2958)">
<path transform="scale(0.0040, -0.0040)" d="M250 262c116 0 176 -106 176 -163c0 -40 -30 -72 -67 -72c-31 0 -75 25 -75 75c0 38 27 77 72 77c4 0 9 0 14 -1c-28 37 -72 59 -120 59c-106 0 -113 -73 -113 -186v-51v-51c0 -113 7 -187 113 -187c80 0 139 70 158 151c2 7 7 10 12 10c6 0 13 -4 13 -12
c0 -22 -50 -174 -183 -174c-59 0 -250 19 -250 263c0 62 18 262 250 262z" fill="currentColor"/>
</g>
</a>
<a style="color:inherit;" xlink:href="textedit:///Users/marc.mouries/projects/Sheet-Music/Folk_Jewish/Hevenu-Shalom-Aleichem/Hevenu-Shalom-Aleichem_music.ily:44:2:3">
<g transform="translate(24.4565, 34.7958)">
<text font-family="Optima" font-size="1.7461" text-anchor="start" fill="currentColor">
<tspan>He</tspan>
</text>
</g>
</a>
<a style="color:inherit;" xlink:href="textedit:///Users/marc.mouries/projects/Sheet-Music/Folk_Jewish/Hevenu-Shalom-Aleichem/Hevenu-Shalom-Aleichem_music.ily:7:2:3">
<g transform="translate(21.2311, 25.5713)">
<rect x="1.0449" y="-2.6727" width="0.1158" height="2.5129" ry="0.0193" fill="currentColor"/>
</g>
<g transform="translate(21.2311, 25.5713)">
<path transform="scale(0.0036, -0.0036)" d="M215 137c67 0 111 -37 111 -92c0 -90 -111 -182 -215 -182c-67 0 -111 37 -111 92c0 90 111 182 215 182z" fill="currentColor"/>
</g>
<g transform="translate(22.3918, 26.0600)">
<text font-family="serif" font-size="2.2001" text-anchor="start" fill="currentColor">
<tspan> = 100</tspan>
</text>
</g>
</a>
<g transform="translate(26.1703, 29.2958)">
<rect x="-0.0650" y="-2.7500" width="0.1300" height="3.6639" ry="0.0400" fill="currentColor"/>
</g>
<g transform="translate(26.2353, 26.5858)">
<path transform="scale(0.0040, -0.0040)" d="M0 0v-250h-16v250h16zM0 0c0 -197 207 -336 207 -533c0 -71 -15 -141 -41 -207c-5 -8 -13 -12 -20 -12c-13 0 -26 11 -23 27c26 61 42 126 42 192c0 103 -94 208 -165 283v250z" fill="currentColor"/>
</g>
<a style="color:inherit;" xlink:href="textedit:///Users/marc.mouries/projects/Sheet-Music/Folk_Jewish/Hevenu-Shalom-Aleichem/Hevenu-Shalom-Aleichem_music.ily:46:5:6">
<g transform="translate(106.5807, 34.7958)">
<rect x="0.0000" y="-0.5500" width="0.6600" height="0.1300" ry="0.0400" fill="currentColor"/>
</g>
</a>
<a style="color:inherit;" xlink:href="textedit:///Users/marc.mouries/projects/Sheet-Music/Folk_Jewish/Hevenu-Shalom-Aleichem/Hevenu-Shalom-Aleichem_music.ily:34:17:18">
<g transform="translate(28.0797, 28.7458)">
<path transform="scale(0.0040, -0.0040)" d="M218 136c66 0 108 -36 108 -89c0 -89 -113 -183 -218 -183c-66 0 -108 36 -108 89c0 89 113 183 218 183z" fill="currentColor"/>
</g>
</a>
<a style="color:inherit;" xlink:href="textedit:///Users/marc.mouries/projects/Sheet-Music/Folk_Jewish/Hevenu-Shalom-Aleichem/Hevenu-Shalom-Aleichem_music.ily:44:8:9">
<g transform="translate(27.8782, 34.7958)">
<text font-family="Optima" font-size="1.7461" text-anchor="start" fill="currentColor">
<tspan>ve</tspan>
</text>
</g>
</a>
<g transform="translate(28.1447, 29.2958)">
<rect x="-0.0650" y="-0.3639" width="0.1300" height="3.4373" ry="0.0400" fill="currentColor"/>
</g>
<a style="color:inherit;" xlink:href="textedit:///Users/marc.mouries/projects/Sheet-Music/Folk_Jewish/Hevenu-Shalom-Aleichem/Hevenu-Shalom-Aleichem_music.ily:34:19:20">
<g transform="translate(31.4150, 27.6458)">
<path transform="scale(0.0040, -0.0040)" d="M218 136c66 0 108 -36 108 -89c0 -89 -113 -183 -218 -183c-66 0 -108 36 -108 89c0 89 113 183 218 183z" fill="currentColor"/>
</g>
</a>
<a style="color:inherit;" xlink:href="textedit:///Users/marc.mouries/projects/Sheet-Music/Folk_Jewish/Hevenu-Shalom-Aleichem/Hevenu-Shalom-Aleichem_music.ily:44:14:15">
<g transform="translate(31.1111, 34.7958)">
<text font-family="Optima" font-size="1.7461" text-anchor="start" fill="currentColor">
<tspan>nu</tspan>
</text>
</g>
</a>
<g transform="translate(31.4800, 29.2958)">
<rect x="-0.0650" y="-1.4639" width="0.1300" height="3.8905" ry="0.0400" fill="currentColor"/>
</g>
<a style="color:inherit;" xlink:href="textedit:///Users/marc.mouries/projects/Sheet-Music/Folk_Jewish/Hevenu-Shalom-Aleichem/Hevenu-Shalom-Aleichem_music.ily:45:30:31">
<g transform="translate(90.3441, 34.7958)">
<rect x="0.0000" y="-0.5500" width="0.6600" height="0.1300" ry="0.0400" fill="currentColor"/>
</g>
</a>
<a style="color:inherit;" xlink:href="textedit:///Users/marc.mouries/projects/Sheet-Music/Folk_Jewish/Hevenu-Shalom-Aleichem/Hevenu-Shalom-Aleichem_music.ily:23:2:3">
<g transform="translate(35.7475, 22.8616)">
<text font-family="sans-serif" font-size="2.6163" text-anchor="start" fill="currentColor">
<tspan>C</tspan>
</text>
</g>
<g transform="translate(37.5912, 22.2616)">
<path transform="scale(0.0042, -0.0042)" d="M0 119c0 8 5 15 13 18l46 17v158c0 10 8 19 18 19s19 -9 19 -19v-145l83 31v158c0 10 9 19 19 19s18 -9 18 -19v-145l32 12c2 1 5 1 7 1c11 0 20 -9 20 -20v-60c0 -8 -5 -16 -13 -19l-46 -16v-160l32 11c2 1 5 1 7 1c11 0 20 -9 20 -20v-60c0 -8 -5 -15 -13 -18l-46 -17
v-158c0 -10 -8 -19 -18 -19s-19 9 -19 19v145l-83 -31v-158c0 -10 -9 -19 -19 -19s-18 9 -18 19v145l-32 -12c-2 -1 -5 -1 -7 -1c-11 0 -20 9 -20 20v60c0 8 5 16 13 19l46 16v160l-32 -11c-2 -1 -5 -1 -7 -1c-11 0 -20 9 -20 20v60zM179 95l-83 -30v-160l83 30v160z" fill="currentColor"/>
</g>
<g transform="translate(38.7567, 22.8616)">
<text font-family="sans-serif" font-size="2.6163" text-anchor="start" fill="currentColor">
<tspan>m</tspan>
</text>
</g>
</a>
<a style="color:inherit;" xlink:href="textedit:///Users/marc.mouries/projects/Sheet-Music/Folk_Jewish/Hevenu-Shalom-Aleichem/Hevenu-Shalom-Aleichem_music.ily:35:2:3">
<g transform="translate(35.7475, 26.5458)">
<path transform="scale(0.0040, -0.0040)" d="M314 65c0 23 -19 41 -42 41c-39 0 -204 -110 -231 -143c-7 -8 -10 -18 -10 -28c0 -23 19 -41 42 -41c39 0 203 110 230 143c7 8 11 18 11 28zM262 136c41 0 82 -14 82 -71c0 -26 -16 -112 -74 -151c-25 -17 -87 -50 -187 -50c-41 0 -83 14 -83 71c0 26 16 112 74 151
c25 17 88 50 188 50z" fill="currentColor"/>
</g>
</a>
<a style="color:inherit;" xlink:href="textedit:///Users/marc.mouries/projects/Sheet-Music/Folk_Jewish/Hevenu-Shalom-Aleichem/Hevenu-Shalom-Aleichem_music.ily:44:17:18">
<g transform="translate(35.1729, 34.7958)">
<text font-family="Optima" font-size="1.7461" text-anchor="start" fill="currentColor">
<tspan>sha</tspan>
</text>
</g>
</a>
<g transform="translate(35.8125, 29.2958)">
<rect x="-0.0650" y="-2.4910" width="0.1300" height="3.5910" ry="0.0400" fill="currentColor"/>
</g>
<a style="color:inherit;" xlink:href="textedit:///Users/marc.mouries/projects/Sheet-Music/Folk_Jewish/Hevenu-Shalom-Aleichem/Hevenu-Shalom-Aleichem_music.ily:23:9:10">
<g transform="translate(42.4174, 22.8616)">
<text font-family="sans-serif" font-size="2.6163" text-anchor="start" fill="currentColor">
<tspan>G</tspan>
</text>
</g>
<g transform="translate(44.4319, 22.2616)">
<path transform="scale(0.0042, -0.0042)" d="M0 119c0 8 5 15 13 18l46 17v158c0 10 8 19 18 19s19 -9 19 -19v-145l83 31v158c0 10 9 19 19 19s18 -9 18 -19v-145l32 12c2 1 5 1 7 1c11 0 20 -9 20 -20v-60c0 -8 -5 -16 -13 -19l-46 -16v-160l32 11c2 1 5 1 7 1c11 0 20 -9 20 -20v-60c0 -8 -5 -15 -13 -18l-46 -17
v-158c0 -10 -8 -19 -18 -19s-19 9 -19 19v145l-83 -31v-158c0 -10 -9 -19 -19 -19s-18 9 -18 19v145l-32 -12c-2 -1 -5 -1 -7 -1c-11 0 -20 9 -20 20v60c0 8 5 16 13 19l46 16v160l-32 -11c-2 -1 -5 -1 -7 -1c-11 0 -20 9 -20 20v60zM179 95l-83 -30v-160l83 30v160z" fill="currentColor"/>
</g>
<g transform="translate(45.5973, 21.6724)">
<text font-family="sans-serif" font-size="1.8500" text-anchor="start" fill="currentColor">
<tspan>7</tspan>
</text>
</g>
</a>
<a style="color:inherit;" xlink:href="textedit:///Users/marc.mouries/projects/Sheet-Music/Folk_Jewish/Hevenu-Shalom-Aleichem/Hevenu-Shalom-Aleichem_music.ily:35:5:6">
<g transform="translate(42.4174, 27.6458)">
<path transform="scale(0.0040, -0.0040)" d="M218 136c66 0 108 -36 108 -89c0 -89 -113 -183 -218 -183c-66 0 -108 36 -108 89c0 89 113 183 218 183z" fill="currentColor"/>
</g>
</a>
<a style="color:inherit;" xlink:href="textedit:///Users/marc.mouries/projects/Sheet-Music/Folk_Jewish/Hevenu-Shalom-Aleichem/Hevenu-Shalom-Aleichem_music.ily:44:24:25">
<g transform="translate(41.6184, 34.7958)">
<text font-family="Optima" font-size="1.7461" text-anchor="start" fill="currentColor">
<tspan>lom</tspan>
</text>
</g>
</a>
<g transform="translate(44.1716, 27.6458)">
<path transform="scale(0.0040, -0.0040)" d="M0 0c0 31 25 56 56 56s56 -25 56 -56s-25 -56 -56 -56s-56 25 -56 56z" fill="currentColor"/>
</g>
<g transform="translate(42.4824, 29.2958)">
<rect x="-0.0650" y="-1.4639" width="0.1300" height="3.6639" ry="0.0400" fill="currentColor"/>
</g>
<g transform="translate(68.0039, 31.2818)">
<polygon stroke-linejoin="round" stroke-linecap="round" stroke-width="0.0800" fill="currentColor" stroke="currentColor" points="3.4253 -0.8960 3.4253 -0.4480 0.0400 0.2240 0.0400 -0.2240"/>
</g>
<a style="color:inherit;" xlink:href="textedit:///Users/marc.mouries/projects/Sheet-Music/Folk_Jewish/Hevenu-Shalom-Aleichem/Hevenu-Shalom-Aleichem_music.ily:35:9:10">
<g transform="translate(48.3258, 28.1958)">
<path transform="scale(0.0040, -0.0040)" d="M218 136c66 0 108 -36 108 -89c0 -89 -113 -183 -218 -183c-66 0 -108 36 -108 89c0 89 113 183 218 183z" fill="currentColor"/>
</g>
</a>
<a style="color:inherit;" xlink:href="textedit:///Users/marc.mouries/projects/Sheet-Music/Folk_Jewish/Hevenu-Shalom-Aleichem/Hevenu-Shalom-Aleichem_music.ily:44:28:29">
<g transform="translate(48.5340, 34.7958)">
<text font-family="Optima" font-size="1.7461" text-anchor="start" fill="currentColor">
<tspan>a</tspan>
</text>
</g>
</a>
<g transform="translate(48.3908, 29.2958)">
<rect x="-0.0650" y="-0.9139" width="0.1300" height="3.6639" ry="0.0400" fill="currentColor"/>
</g>
<g transform="translate(48.4558, 32.0058)">
<path transform="scale(0.0040, -0.0040)" d="M0 0h-16v250h16v-250zM0 0v250c97 59 224 148 224 259c0 57 -15 112 -40 163c-3 16 10 27 23 27c7 0 15 -3 20 -11c25 -56 40 -117 40 -179c0 -203 -267 -306 -267 -509z" fill="currentColor"/>
</g>
<a style="color:inherit;" xlink:href="textedit:///Users/marc.mouries/projects/Sheet-Music/Folk_Jewish/Hevenu-Shalom-Aleichem/Hevenu-Shalom-Aleichem_music.ily:45:21:22">
<g transform="translate(79.0786, 34.7958)">
<rect x="0.0000" y="-0.5500" width="0.6600" height="0.1300" ry="0.0400" fill="currentColor"/>
</g>
</a>
<a style="color:inherit;" xlink:href="textedit:///Users/marc.mouries/projects/Sheet-Music/Folk_Jewish/Hevenu-Shalom-Aleichem/Hevenu-Shalom-Aleichem_music.ily:23:16:17">
<g transform="translate(52.8855, 22.8616)">
<text font-family="sans-serif" font-size="2.6163" text-anchor="start" fill="currentColor">
<tspan>C</tspan>
</text>
</g>
<g transform="translate(54.7293, 22.2616)">
<path transform="scale(0.0042, -0.0042)" d="M0 119c0 8 5 15 13 18l46 17v158c0 10 8 19 18 19s19 -9 19 -19v-145l83 31v158c0 10 9 19 19 19s18 -9 18 -19v-145l32 12c2 1 5 1 7 1c11 0 20 -9 20 -20v-60c0 -8 -5 -16 -13 -19l-46 -16v-160l32 11c2 1 5 1 7 1c11 0 20 -9 20 -20v-60c0 -8 -5 -15 -13 -18l-46 -17
v-158c0 -10 -8 -19 -18 -19s-19 9 -19 19v145l-83 -31v-158c0 -10 -9 -19 -19 -19s-18 9 -18 19v145l-32 -12c-2 -1 -5 -1 -7 -1c-11 0 -20 9 -20 20v60c0 8 5 16 13 19l46 16v160l-32 -11c-2 -1 -5 -1 -7 -1c-11 0 -20 9 -20 20v60zM179 95l-83 -30v-160l83 30v160z" fill="currentColor"/>
</g>
<g transform="translate(55.8947, 22.8616)">
<text font-family="sans-serif" font-size="2.6163" text-anchor="start" fill="currentColor">
<tspan>m</tspan>
</text>
</g>
</a>
<a style="color:inherit;" xlink:href="textedit:///Users/marc.mouries/projects/Sheet-Music/Folk_Jewish/Hevenu-Shalom-Aleichem/Hevenu-Shalom-Aleichem_music.ily:35:12:13">
<g transform="translate(52.8855, 28.1958)">
<path transform="scale(0.0040, -0.0040)" d="M218 136c66 0 108 -36 108 -89c0 -89 -113 -183 -218 -183c-66 0 -108 36 -108 89c0 89 113 183 218 183z" fill="currentColor"/>
</g>
</a>
<a style="color:inherit;" xlink:href="textedit:///Users/marc.mouries/projects/Sheet-Music/Folk_Jewish/Hevenu-Shalom-Aleichem/Hevenu-Shalom-Aleichem_music.ily:44:33:34">
<g transform="translate(52.6158, 34.7958)">
<text font-family="Optima" font-size="1.7461" text-anchor="start" fill="currentColor">
<tspan>lei</tspan>
</text>
</g>
</a>
<g transform="translate(52.9505, 29.2958)">
<rect x="-0.0650" y="-0.9139" width="0.1300" height="3.6639" ry="0.0400" fill="currentColor"/>
</g>
<g transform="translate(53.0155, 32.0058)">
<path transform="scale(0.0040, -0.0040)" d="M0 0h-16v250h16v-250zM0 0v250c97 59 224 148 224 259c0 57 -15 112 -40 163c-3 16 10 27 23 27c7 0 15 -3 20 -11c25 -56 40 -117 40 -179c0 -203 -267 -306 -267 -509z" fill="currentColor"/>
</g>
<a style="color:inherit;" xlink:href="textedit:///Users/marc.mouries/projects/Sheet-Music/Folk_Jewish/Hevenu-Shalom-Aleichem/Hevenu-Shalom-Aleichem_music.ily:45:11:12">
<g transform="translate(69.9425, 34.7958)">
<rect x="0.0000" y="-0.5500" width="0.6600" height="0.1300" ry="0.0400" fill="currentColor"/>
</g>
</a>
<a style="color:inherit;" xlink:href="textedit:///Users/marc.mouries/projects/Sheet-Music/Folk_Jewish/Hevenu-Shalom-Aleichem/Hevenu-Shalom-Aleichem_music.ily:35:14:15">
<g transform="translate(56.2291, 28.7458)">
<path transform="scale(0.0040, -0.0040)" d="M218 136c66 0 108 -36 108 -89c0 -89 -113 -183 -218 -183c-66 0 -108 36 -108 89c0 89 113 183 218 183z" fill="currentColor"/>
</g>
</a>
<a style="color:inherit;" xlink:href="textedit:///Users/marc.mouries/projects/Sheet-Music/Folk_Jewish/Hevenu-Shalom-Aleichem/Hevenu-Shalom-Aleichem_music.ily:44:40:41">
<g transform="translate(54.5595, 34.7958)">
<text font-family="Optima" font-size="1.7461" text-anchor="start" fill="currentColor">
<tspan>chem,</tspan>
</text>
</g>
</a>
<g transform="translate(57.9833, 28.7458)">
<path transform="scale(0.0040, -0.0040)" d="M0 0c0 31 25 56 56 56s56 -25 56 -56s-25 -56 -56 -56s-56 25 -56 56z" fill="currentColor"/>
</g>
<g transform="translate(56.2941, 29.2958)">
<rect x="-0.0650" y="-0.3639" width="0.1300" height="3.6639" ry="0.0400" fill="currentColor"/>
</g>
<a style="color:inherit;" xlink:href="textedit:///Users/marc.mouries/projects/Sheet-Music/Folk_Jewish/Hevenu-Shalom-Aleichem/Hevenu-Shalom-Aleichem_music.ily:45:5:6">
<g transform="translate(66.9199, 34.7958)">
<rect x="0.0000" y="-0.5500" width="0.6600" height="0.1300" ry="0.0400" fill="currentColor"/>
</g>
</a>
<a style="color:inherit;" xlink:href="textedit:///Users/marc.mouries/projects/Sheet-Music/Folk_Jewish/Hevenu-Shalom-Aleichem/Hevenu-Shalom-Aleichem_music.ily:35:18:19">
<g transform="translate(62.1375, 29.2958)">
<path transform="scale(0.0040, -0.0040)" d="M70 205c79 0 46 -98 91 -98c16 0 54 48 61 63c6 12 23 12 28 0l-123 -420c-8 -7 -17 -10 -27 -10s-20 3 -28 10l117 326c-34 -12 -69 -22 -105 -22c-47 0 -87 34 -87 79c0 40 33 72 73 72z" fill="currentColor"/>
</g>
</a>
<a style="color:inherit;" xlink:href="textedit:///Users/marc.mouries/projects/Sheet-Music/Folk_Jewish/Hevenu-Shalom-Aleichem/Hevenu-Shalom-Aleichem_music.ily:35:21:22">
<g transform="translate(64.9186, 28.7458)">
<path transform="scale(0.0040, -0.0040)" d="M218 136c66 0 108 -36 108 -89c0 -89 -113 -183 -218 -183c-66 0 -108 36 -108 89c0 89 113 183 218 183z" fill="currentColor"/>
</g>
</a>
<a style="color:inherit;" xlink:href="textedit:///Users/marc.mouries/projects/Sheet-Music/Folk_Jewish/Hevenu-Shalom-Aleichem/Hevenu-Shalom-Aleichem_music.ily:45:2:3">
<g transform="translate(64.4440, 34.7958)">
<text font-family="Optima" font-size="1.7461" text-anchor="start" fill="currentColor">
<tspan>He</tspan>
</text>
</g>
</a>
<g transform="translate(64.9836, 29.2958)">
<rect x="-0.0650" y="-0.3639" width="0.1300" height="3.6639" ry="0.0400" fill="currentColor"/>
</g>
<g transform="translate(65.0486, 32.5558)">
<path transform="scale(0.0040, -0.0040)" d="M0 0h-16v250h16v-250zM0 0v250c97 59 224 148 224 259c0 57 -15 112 -40 163c-3 16 10 27 23 27c7 0 15 -3 20 -11c25 -56 40 -117 40 -179c0 -203 -267 -306 -267 -509z" fill="currentColor"/>
</g>
<a style="color:inherit;" xlink:href="textedit:///Users/marc.mouries/projects/Sheet-Music/Folk_Jewish/Hevenu-Shalom-Aleichem/Hevenu-Shalom-Aleichem_music.ily:35:23:24">
<g transform="translate(68.0039, 27.6458)">
<path transform="scale(0.0040, -0.0040)" d="M218 136c66 0 108 -36 108 -89c0 -89 -113 -183 -218 -183c-66 0 -108 36 -108 89c0 89 113 183 218 183z" fill="currentColor"/>
</g>
</a>
<a style="color:inherit;" xlink:href="textedit:///Users/marc.mouries/projects/Sheet-Music/Folk_Jewish/Hevenu-Shalom-Aleichem/Hevenu-Shalom-Aleichem_music.ily:45:8:9">
<g transform="translate(67.8024, 34.7958)">
<text font-family="Optima" font-size="1.7461" text-anchor="start" fill="currentColor">
<tspan>ve</tspan>
</text>
</g>
</a>
<g transform="translate(68.0689, 29.2958)">
<rect x="-0.0650" y="-1.4639" width="0.1300" height="3.4373" ry="0.0400" fill="currentColor"/>
</g>
<a style="color:inherit;" xlink:href="textedit:///Users/marc.mouries/projects/Sheet-Music/Folk_Jewish/Hevenu-Shalom-Aleichem/Hevenu-Shalom-Aleichem_music.ily:44:30:31">
<g transform="translate(50.6887, 34.7958)">
<rect x="0.0000" y="-0.5500" width="0.6600" height="0.1300" ry="0.0400" fill="currentColor"/>
</g>
</a>
<a style="color:inherit;" xlink:href="textedit:///Users/marc.mouries/projects/Sheet-Music/Folk_Jewish/Hevenu-Shalom-Aleichem/Hevenu-Shalom-Aleichem_music.ily:35:25:26">
<g transform="translate(71.3393, 26.5458)">
<path transform="scale(0.0040, -0.0040)" d="M218 136c66 0 108 -36 108 -89c0 -89 -113 -183 -218 -183c-66 0 -108 36 -108 89c0 89 113 183 218 183z" fill="currentColor"/>
</g>
</a>
<a style="color:inherit;" xlink:href="textedit:///Users/marc.mouries/projects/Sheet-Music/Folk_Jewish/Hevenu-Shalom-Aleichem/Hevenu-Shalom-Aleichem_music.ily:45:14:15">
<g transform="translate(71.0354, 34.7958)">
<text font-family="Optima" font-size="1.7461" text-anchor="start" fill="currentColor">
<tspan>nu</tspan>
</text>
</g>
</a>
<g transform="translate(71.4043, 29.2958)">
<rect x="-0.0650" y="-2.5639" width="0.1300" height="3.8905" ry="0.0400" fill="currentColor"/>
</g>
<g transform="translate(28.0797, 32.3818)">
<polygon stroke-linejoin="round" stroke-linecap="round" stroke-width="0.0800" fill="currentColor" stroke="currentColor" points="3.4253 -0.8960 3.4253 -0.4480 0.0400 0.2240 0.0400 -0.2240"/>
</g>
<a style="color:inherit;" xlink:href="textedit:///Users/marc.mouries/projects/Sheet-Music/Folk_Jewish/Hevenu-Shalom-Aleichem/Hevenu-Shalom-Aleichem_music.ily:23:22:23">
<g transform="translate(75.5968, 22.8616)">
<text font-family="sans-serif" font-size="2.6163" text-anchor="start" fill="currentColor">
<tspan>C</tspan>
</text>
</g>
<g transform="translate(77.4405, 22.2616)">
<path transform="scale(0.0042, -0.0042)" d="M0 119c0 8 5 15 13 18l46 17v158c0 10 8 19 18 19s19 -9 19 -19v-145l83 31v158c0 10 9 19 19 19s18 -9 18 -19v-145l32 12c2 1 5 1 7 1c11 0 20 -9 20 -20v-60c0 -8 -5 -16 -13 -19l-46 -16v-160l32 11c2 1 5 1 7 1c11 0 20 -9 20 -20v-60c0 -8 -5 -15 -13 -18l-46 -17
v-158c0 -10 -8 -19 -18 -19s-19 9 -19 19v145l-83 -31v-158c0 -10 -9 -19 -19 -19s-18 9 -18 19v145l-32 -12c-2 -1 -5 -1 -7 -1c-11 0 -20 9 -20 20v60c0 8 5 16 13 19l46 16v160l-32 -11c-2 -1 -5 -1 -7 -1c-11 0 -20 9 -20 20v60zM179 95l-83 -30v-160l83 30v160z" fill="currentColor"/>
</g>
<g transform="translate(78.6060, 21.6724)">
<text font-family="sans-serif" font-size="1.8500" text-anchor="start" fill="currentColor">
<tspan>7</tspan>
</text>
</g>
</a>
<a style="color:inherit;" xlink:href="textedit:///Users/marc.mouries/projects/Sheet-Music/Folk_Jewish/Hevenu-Shalom-Aleichem/Hevenu-Shalom-Aleichem_music.ily:36:2:3">
<g transform="translate(75.5968, 24.8958)">
<path transform="scale(0.0040, -0.0040)" d="M314 65c0 23 -19 41 -42 41c-39 0 -204 -110 -231 -143c-7 -8 -10 -18 -10 -28c0 -23 19 -41 42 -41c39 0 203 110 230 143c7 8 11 18 11 28zM262 136c41 0 82 -14 82 -71c0 -26 -16 -112 -74 -151c-25 -17 -87 -50 -187 -50c-41 0 -83 14 -83 71c0 26 16 112 74 151
c25 17 88 50 188 50z" fill="currentColor"/>
</g>
</a>
<a style="color:inherit;" xlink:href="textedit:///Users/marc.mouries/projects/Sheet-Music/Folk_Jewish/Hevenu-Shalom-Aleichem/Hevenu-Shalom-Aleichem_music.ily:45:17:18">
<g transform="translate(75.0222, 34.7958)">
<text font-family="Optima" font-size="1.7461" text-anchor="start" fill="currentColor">
<tspan>sha</tspan>
</text>
</g>
</a>
<g transform="translate(75.6618, 29.2958)">
<rect x="-0.0650" y="-4.1410" width="0.1300" height="4.1410" ry="0.0400" fill="currentColor"/>
</g>
<a style="color:inherit;" xlink:href="textedit:///Users/marc.mouries/projects/Sheet-Music/Folk_Jewish/Hevenu-Shalom-Aleichem/Hevenu-Shalom-Aleichem_music.ily:44:21:22">
<g transform="translate(39.3290, 34.7958)">
<rect x="0.0000" y="-0.5500" width="0.6600" height="0.1300" ry="0.0400" fill="currentColor"/>
</g>
</a>
<a style="color:inherit;" xlink:href="textedit:///Users/marc.mouries/projects/Sheet-Music/Folk_Jewish/Hevenu-Shalom-Aleichem/Hevenu-Shalom-Aleichem_music.ily:36:5:6">
<g transform="translate(82.0675, 25.9958)">
<path transform="scale(0.0040, -0.0040)" d="M218 136c66 0 108 -36 108 -89c0 -89 -113 -183 -218 -183c-66 0 -108 36 -108 89c0 89 113 183 218 183z" fill="currentColor"/>
</g>
</a>
<a style="color:inherit;" xlink:href="textedit:///Users/marc.mouries/projects/Sheet-Music/Folk_Jewish/Hevenu-Shalom-Aleichem/Hevenu-Shalom-Aleichem_music.ily:45:24:25">
<g transform="translate(81.2685, 34.7958)">
<text font-family="Optima" font-size="1.7461" text-anchor="start" fill="currentColor">
<tspan>lom</tspan>
</text>
</g>
</a>
<g transform="translate(83.8217, 25.4458)">
<path transform="scale(0.0040, -0.0040)" d="M0 0c0 31 25 56 56 56s56 -25 56 -56s-25 -56 -56 -56s-56 25 -56 56z" fill="currentColor"/>
</g>
<g transform="translate(82.1325, 29.2958)">
<rect x="-0.0650" y="-3.1139" width="0.1300" height="3.6639" ry="0.0400" fill="currentColor"/>
</g>
<a style="color:inherit;" xlink:href="textedit:///Users/marc.mouries/projects/Sheet-Music/Folk_Jewish/Hevenu-Shalom-Aleichem/Hevenu-Shalom-Aleichem_music.ily:36:10:11">
<g transform="translate(87.9758, 26.5458)">
<path transform="scale(0.0040, -0.0040)" d="M218 136c66 0 108 -36 108 -89c0 -89 -113 -183 -218 -183c-66 0 -108 36 -108 89c0 89 113 183 218 183z" fill="currentColor"/>
</g>
</a>
<a style="color:inherit;" xlink:href="textedit:///Users/marc.mouries/projects/Sheet-Music/Folk_Jewish/Hevenu-Shalom-Aleichem/Hevenu-Shalom-Aleichem_music.ily:45:28:29">
<g transform="translate(88.1841, 34.7958)">
<text font-family="Optima" font-size="1.7461" text-anchor="start" fill="currentColor">
<tspan>a</tspan>
</text>
</g>
</a>
<g transform="translate(88.0408, 29.2958)">
<rect x="-0.0650" y="-2.5639" width="0.1300" height="3.6639" ry="0.0400" fill="currentColor"/>
</g>
<g transform="translate(88.1058, 30.3558)">
<path transform="scale(0.0040, -0.0040)" d="M0 0h-16v250h16v-250zM0 0v250c97 59 224 148 224 259c0 57 -15 112 -40 163c-3 16 10 27 23 27c7 0 15 -3 20 -11c25 -56 40 -117 40 -179c0 -203 -267 -306 -267 -509z" fill="currentColor"/>
</g>
<a style="color:inherit;" xlink:href="textedit:///Users/marc.mouries/projects/Sheet-Music/Folk_Jewish/Hevenu-Shalom-Aleichem/Hevenu-Shalom-Aleichem_music.ily:44:11:12">
<g transform="translate(30.0183, 34.7958)">
<rect x="0.0000" y="-0.5500" width="0.6600" height="0.1300" ry="0.0400" fill="currentColor"/>
</g>
</a>
<a style="color:inherit;" xlink:href="textedit:///Users/marc.mouries/projects/Sheet-Music/Folk_Jewish/Hevenu-Shalom-Aleichem/Hevenu-Shalom-Aleichem_music.ily:44:5:6">
<g transform="translate(26.9641, 34.7958)">
<rect x="0.0000" y="-0.5500" width="0.6600" height="0.1300" ry="0.0400" fill="currentColor"/>
</g>
</a>
<a style="color:inherit;" xlink:href="textedit:///Users/marc.mouries/projects/Sheet-Music/Folk_Jewish/Hevenu-Shalom-Aleichem/Hevenu-Shalom-Aleichem_music.ily:24:2:3">
<g transform="translate(92.5462, 22.8616)">
<text font-family="sans-serif" font-size="2.6163" text-anchor="start" fill="currentColor">
<tspan>F</tspan>
</text>
</g>
<g transform="translate(94.0485, 22.2616)">
<path transform="scale(0.0042, -0.0042)" d="M0 119c0 8 5 15 13 18l46 17v158c0 10 8 19 18 19s19 -9 19 -19v-145l83 31v158c0 10 9 19 19 19s18 -9 18 -19v-145l32 12c2 1 5 1 7 1c11 0 20 -9 20 -20v-60c0 -8 -5 -16 -13 -19l-46 -16v-160l32 11c2 1 5 1 7 1c11 0 20 -9 20 -20v-60c0 -8 -5 -15 -13 -18l-46 -17
v-158c0 -10 -8 -19 -18 -19s-19 9 -19 19v145l-83 -31v-158c0 -10 -9 -19 -19 -19s-18 9 -18 19v145l-32 -12c-2 -1 -5 -1 -7 -1c-11 0 -20 9 -20 20v60c0 8 5 16 13 19l46 16v160l-32 -11c-2 -1 -5 -1 -7 -1c-11 0 -20 9 -20 20v60zM179 95l-83 -30v-160l83 30v160z" fill="currentColor"/>
</g>
<g transform="translate(95.2140, 22.8616)">
<text font-family="sans-serif" font-size="2.6163" text-anchor="start" fill="currentColor">
<tspan>m</tspan>
</text>
</g>
</a>
<a style="color:inherit;" xlink:href="textedit:///Users/marc.mouries/projects/Sheet-Music/Folk_Jewish/Hevenu-Shalom-Aleichem/Hevenu-Shalom-Aleichem_music.ily:37:2:3">
<g transform="translate(92.5462, 26.5458)">
<path transform="scale(0.0040, -0.0040)" d="M218 136c66 0 108 -36 108 -89c0 -89 -113 -183 -218 -183c-66 0 -108 36 -108 89c0 89 113 183 218 183z" fill="currentColor"/>
</g>
</a>
<a style="color:inherit;" xlink:href="textedit:///Users/marc.mouries/projects/Sheet-Music/Folk_Jewish/Hevenu-Shalom-Aleichem/Hevenu-Shalom-Aleichem_music.ily:45:33:34">
<g transform="translate(92.2765, 34.7958)">
<text font-family="Optima" font-size="1.7461" text-anchor="start" fill="currentColor">
<tspan>lei</tspan>
</text>
</g>
</a>
<g transform="translate(92.6112, 29.2958)">
<rect x="-0.0650" y="-2.5639" width="0.1300" height="3.6639" ry="0.0400" fill="currentColor"/>
</g>
<g transform="translate(92.6762, 30.3558)">
<path transform="scale(0.0040, -0.0040)" d="M0 0h-16v250h16v-250zM0 0v250c97 59 224 148 224 259c0 57 -15 112 -40 163c-3 16 10 27 23 27c7 0 15 -3 20 -11c25 -56 40 -117 40 -179c0 -203 -267 -306 -267 -509z" fill="currentColor"/>
</g>
<a style="color:inherit;" xlink:href="textedit:///Users/marc.mouries/projects/Sheet-Music/Folk_Jewish/Hevenu-Shalom-Aleichem/Hevenu-Shalom-Aleichem_music.ily:37:4:5">
<g transform="translate(95.8899, 27.0958)">
<path transform="scale(0.0040, -0.0040)" d="M218 136c66 0 108 -36 108 -89c0 -89 -113 -183 -218 -183c-66 0 -108 36 -108 89c0 89 113 183 218 183z" fill="currentColor"/>
</g>
</a>
<a style="color:inherit;" xlink:href="textedit:///Users/marc.mouries/projects/Sheet-Music/Folk_Jewish/Hevenu-Shalom-Aleichem/Hevenu-Shalom-Aleichem_music.ily:45:40:41">
<g transform="translate(94.2202, 34.7958)">
<text font-family="Optima" font-size="1.7461" text-anchor="start" fill="currentColor">
<tspan>chem,</tspan>
</text>
</g>
</a>
<g transform="translate(97.6441, 26.5458)">
<path transform="scale(0.0040, -0.0040)" d="M0 0c0 31 25 56 56 56s56 -25 56 -56s-25 -56 -56 -56s-56 25 -56 56z" fill="currentColor"/>
</g>
<g transform="translate(95.9549, 29.2958)">
<rect x="-0.0650" y="-2.0139" width="0.1300" height="3.6639" ry="0.0400" fill="currentColor"/>
</g>
<a style="color:inherit;" xlink:href="textedit:///Users/marc.mouries/projects/Sheet-Music/Folk_Jewish/Hevenu-Shalom-Aleichem/Hevenu-Shalom-Aleichem_music.ily:37:8:9">
<g transform="translate(101.7982, 29.2958)">
<path transform="scale(0.0040, -0.0040)" d="M70 205c79 0 46 -98 91 -98c16 0 54 48 61 63c6 12 23 12 28 0l-123 -420c-8 -7 -17 -10 -27 -10s-20 3 -28 10l117 326c-34 -12 -69 -22 -105 -22c-47 0 -87 34 -87 79c0 40 33 72 73 72z" fill="currentColor"/>
</g>
</a>
<a style="color:inherit;" xlink:href="textedit:///Users/marc.mouries/projects/Sheet-Music/Folk_Jewish/Hevenu-Shalom-Aleichem/Hevenu-Shalom-Aleichem_music.ily:37:11:12">
<g transform="translate(104.5793, 27.0958)">
<path transform="scale(0.0040, -0.0040)" d="M218 136c66 0 108 -36 108 -89c0 -89 -113 -183 -218 -183c-66 0 -108 36 -108 89c0 89 113 183 218 183z" fill="currentColor"/>
</g>
</a>
<a style="color:inherit;" xlink:href="textedit:///Users/marc.mouries/projects/Sheet-Music/Folk_Jewish/Hevenu-Shalom-Aleichem/Hevenu-Shalom-Aleichem_music.ily:46:2:3">
<g transform="translate(104.1047, 34.7958)">
<text font-family="Optima" font-size="1.7461" text-anchor="start" fill="currentColor">
<tspan>He</tspan>
</text>
</g>
</a>
<g transform="translate(104.6443, 29.2958)">
<rect x="-0.0650" y="-2.0139" width="0.1300" height="3.6639" ry="0.0400" fill="currentColor"/>
</g>
<g transform="translate(104.7093, 30.9058)">
<path transform="scale(0.0040, -0.0040)" d="M0 0h-16v250h16v-250zM0 0v250c97 59 224 148 224 259c0 57 -15 112 -40 163c-3 16 10 27 23 27c7 0 15 -3 20 -11c25 -56 40 -117 40 -179c0 -203 -267 -306 -267 -509z" fill="currentColor"/>
</g>
<a style="color:inherit;" xlink:href="textedit:///Users/marc.mouries/projects/Sheet-Music/Folk_Jewish/Hevenu-Shalom-Aleichem/Hevenu-Shalom-Aleichem_music.ily:37:13:14">
<g transform="translate(107.6646, 26.5458)">
<path transform="scale(0.0040, -0.0040)" d="M218 136c66 0 108 -36 108 -89c0 -89 -113 -183 -218 -183c-66 0 -108 36 -108 89c0 89 113 183 218 183z" fill="currentColor"/>
</g>
</a>
<a style="color:inherit;" xlink:href="textedit:///Users/marc.mouries/projects/Sheet-Music/Folk_Jewish/Hevenu-Shalom-Aleichem/Hevenu-Shalom-Aleichem_music.ily:46:8:9">
<g transform="translate(107.4632, 34.7958)">
<text font-family="Optima" font-size="1.7461" text-anchor="start" fill="currentColor">
<tspan>ve</tspan>
</text>
</g>
</a>
<g transform="translate(107.7296, 29.2958)">
<rect x="-0.0650" y="-2.5639" width="0.1300" height="2.7736" ry="0.0400" fill="currentColor"/>
</g>
<a style="color:inherit;" xlink:href="textedit:///Users/marc.mouries/projects/Sheet-Music/Folk_Jewish/Hevenu-Shalom-Aleichem/Hevenu-Shalom-Aleichem_music.ily:37:15:16">
<g transform="translate(110.7500, 25.9958)">
<path transform="scale(0.0040, -0.0040)" d="M218 136c66 0 108 -36 108 -89c0 -89 -113 -183 -218 -183c-66 0 -108 36 -108 89c0 89 113 183 218 183z" fill="currentColor"/>
</g>
</a>
<a style="color:inherit;" xlink:href="textedit:///Users/marc.mouries/projects/Sheet-Music/Folk_Jewish/Hevenu-Shalom-Aleichem/Hevenu-Shalom-Aleichem_music.ily:46:14:15">
<g transform="translate(110.4461, 34.7958)">
<text font-family="Optima" font-size="1.7461" text-anchor="start" fill="currentColor">
<tspan>nu</tspan>
</text>
</g>
</a>
<g transform="translate(110.8150, 29.2958)">
<rect x="-0.0650" y="-3.1139" width="0.1300" height="3.1182" ry="0.0400" fill="currentColor"/>
</g>
<g transform="translate(113.2110, 45.2958)">
<rect x="0.0000" y="-2.2000" width="0.6000" height="4.4000" ry="0.0000" fill="currentColor"/>
</g>
<g transform="translate(112.7210, 45.2958)">
<rect x="0.0000" y="-2.2000" width="0.1900" height="4.4000" ry="0.0000" fill="currentColor"/>
</g>
<g transform="translate(5.6906, 47.4958)">
<line stroke-linejoin="round" stroke-linecap="round" stroke-width="0.1000" stroke="currentColor" x1="0.0500" y1="0" x2="108.0705" y2="0"/>
</g>
<g transform="translate(5.6906, 46.3958)">
<line stroke-linejoin="round" stroke-linecap="round" stroke-width="0.1000" stroke="currentColor" x1="0.0500" y1="0" x2="108.0705" y2="0"/>
</g>
<g transform="translate(5.6906, 45.2958)">
<line stroke-linejoin="round" stroke-linecap="round" stroke-width="0.1000" stroke="currentColor" x1="0.0500" y1="0" x2="108.0705" y2="0"/>
</g>
<g transform="translate(5.6906, 44.1958)">
<line stroke-linejoin="round" stroke-linecap="round" stroke-width="0.1000" stroke="currentColor" x1="0.0500" y1="0" x2="108.0705" y2="0"/>
</g>
<g transform="translate(5.6906, 43.0958)">
<line stroke-linejoin="round" stroke-linecap="round" stroke-width="0.1000" stroke="currentColor" x1="0.0500" y1="0" x2="108.0705" y2="0"/>
</g>
<g transform="translate(91.5098, 45.2958)">
<rect x="0.0000" y="-2.2000" width="0.1900" height="4.4000" ry="0.0000" fill="currentColor"/>
</g>
<g transform="translate(65.8390, 45.2958)">
<rect x="0.0000" y="-2.2000" width="0.1900" height="4.4000" ry="0.0000" fill="currentColor"/>
</g>
<g transform="translate(38.8521, 45.2958)">
<rect x="0.0000" y="-2.2000" width="0.1900" height="4.4000" ry="0.0000" fill="currentColor"/>
</g>
<g transform="translate(100.8921, 47.2818)">
<polygon stroke-linejoin="round" stroke-linecap="round" stroke-width="0.0800" fill="currentColor" stroke="currentColor" points="3.7645 -0.0100 3.7645 0.4380 0.0400 0.2240 0.0400 -0.2240"/>
</g>
<g transform="translate(6.4906, 46.3958)">
<path transform="scale(0.0040, -0.0040)" d="M266 -635h-6c-108 0 -195 88 -195 197c0 58 53 103 112 103c54 0 95 -47 95 -103c0 -52 -43 -95 -95 -95c-11 0 -21 2 -31 6c26 -39 68 -65 117 -65h4zM461 -203c68 24 113 90 113 164c0 90 -66 179 -173 190c19 -89 48 -242 60 -354zM74 28c0 -145 141 -247 264 -247
c1 0 47 0 82 6c-7 64 -29 203 -63 364c-79 -8 -124 -61 -124 -119c0 -44 25 -91 81 -123c5 -5 7 -10 7 -15c0 -11 -10 -22 -22 -22c-15 0 -126 62 -126 187c0 88 58 174 160 197c-14 58 -29 117 -46 175c-107 -121 -213 -243 -213 -403zM250 553c-29 96 -52 170 -52 346
c0 115 55 224 149 292c6 5 14 5 20 0c68 -80 133 -245 133 -358c0 -143 -86 -255 -180 -364c21 -68 39 -138 56 -207c2 0 7 1 13 1c155 0 256 -128 256 -261c0 -113 -74 -212 -180 -246c3 -35 5 -70 5 -105c0 -19 -1 -39 -2 -58c-7 -119 -88 -225 -202 -228l1 43
c93 2 153 92 159 191c1 18 2 37 2 55c0 31 -1 61 -4 92c-5 -1 -44 -8 -89 -8c-193 0 -333 180 -333 374c0 177 131 306 248 441zM428 916c0 34 1 66 -20 129c-99 -48 -162 -149 -162 -259c0 -52 12 -115 36 -194c80 97 146 198 146 324z" fill="currentColor"/>
</g>
<g transform="translate(9.9906, 43.0958)">
<path transform="scale(0.0040, -0.0040)" d="M0 119c0 8 5 15 13 18l46 17v158c0 10 8 19 18 19s19 -9 19 -19v-145l83 31v158c0 10 9 19 19 19s18 -9 18 -19v-145l32 12c2 1 5 1 7 1c11 0 20 -9 20 -20v-60c0 -8 -5 -16 -13 -19l-46 -16v-160l32 11c2 1 5 1 7 1c11 0 20 -9 20 -20v-60c0 -8 -5 -15 -13 -18l-46 -17
v-158c0 -10 -8 -19 -18 -19s-19 9 -19 19v145l-83 -31v-158c0 -10 -9 -19 -19 -19s-18 9 -18 19v145l-32 -12c-2 -1 -5 -1 -7 -1c-11 0 -20 9 -20 20v60c0 8 5 16 13 19l46 16v160l-32 -11c-2 -1 -5 -1 -7 -1c-11 0 -20 9 -20 20v60zM179 95l-83 -30v-160l83 30v160z" fill="currentColor"/>
</g>
<g transform="translate(11.0906, 44.7458)">
<path transform="scale(0.0040, -0.0040)" d="M0 119c0 8 5 15 13 18l46 17v158c0 10 8 19 18 19s19 -9 19 -19v-145l83 31v158c0 10 9 19 19 19s18 -9 18 -19v-145l32 12c2 1 5 1 7 1c11 0 20 -9 20 -20v-60c0 -8 -5 -16 -13 -19l-46 -16v-160l32 11c2 1 5 1 7 1c11 0 20 -9 20 -20v-60c0 -8 -5 -15 -13 -18l-46 -17
v-158c0 -10 -8 -19 -18 -19s-19 9 -19 19v145l-83 -31v-158c0 -10 -9 -19 -19 -19s-18 9 -18 19v145l-32 -12c-2 -1 -5 -1 -7 -1c-11 0 -20 9 -20 20v60c0 8 5 16 13 19l46 16v160l-32 -11c-2 -1 -5 -1 -7 -1c-11 0 -20 9 -20 20v60zM179 95l-83 -30v-160l83 30v160z" fill="currentColor"/>
</g>
<g transform="translate(12.1906, 42.5458)">
<path transform="scale(0.0040, -0.0040)" d="M0 119c0 8 5 15 13 18l46 17v158c0 10 8 19 18 19s19 -9 19 -19v-145l83 31v158c0 10 9 19 19 19s18 -9 18 -19v-145l32 12c2 1 5 1 7 1c11 0 20 -9 20 -20v-60c0 -8 -5 -16 -13 -19l-46 -16v-160l32 11c2 1 5 1 7 1c11 0 20 -9 20 -20v-60c0 -8 -5 -15 -13 -18l-46 -17
v-158c0 -10 -8 -19 -18 -19s-19 9 -19 19v145l-83 -31v-158c0 -10 -9 -19 -19 -19s-18 9 -18 19v145l-32 -12c-2 -1 -5 -1 -7 -1c-11 0 -20 9 -20 20v60c0 8 5 16 13 19l46 16v160l-32 -11c-2 -1 -5 -1 -7 -1c-11 0 -20 9 -20 20v60zM179 95l-83 -30v-160l83 30v160z" fill="currentColor"/>
</g>
<g transform="translate(13.2906, 44.1958)">
<path transform="scale(0.0040, -0.0040)" d="M0 119c0 8 5 15 13 18l46 17v158c0 10 8 19 18 19s19 -9 19 -19v-145l83 31v158c0 10 9 19 19 19s18 -9 18 -19v-145l32 12c2 1 5 1 7 1c11 0 20 -9 20 -20v-60c0 -8 -5 -16 -13 -19l-46 -16v-160l32 11c2 1 5 1 7 1c11 0 20 -9 20 -20v-60c0 -8 -5 -15 -13 -18l-46 -17
v-158c0 -10 -8 -19 -18 -19s-19 9 -19 19v145l-83 -31v-158c0 -10 -9 -19 -19 -19s-18 9 -18 19v145l-32 -12c-2 -1 -5 -1 -7 -1c-11 0 -20 9 -20 20v60c0 8 5 16 13 19l46 16v160l-32 -11c-2 -1 -5 -1 -7 -1c-11 0 -20 9 -20 20v60zM179 95l-83 -30v-160l83 30v160z" fill="currentColor"/>
</g>
<g transform="translate(4.8028, 42.0254)">
<text font-family="serif" font-size="1.7461" text-anchor="start" fill="currentColor">
<tspan>5</tspan>
</text>
</g>
<a style="color:inherit;" xlink:href="textedit:///Users/marc.mouries/projects/Sheet-Music/Folk_Jewish/Hevenu-Shalom-Aleichem/Hevenu-Shalom-Aleichem_music.ily:47:62:63">
<g transform="translate(106.2060, 50.7958)">
<rect x="0.0000" y="-0.5500" width="0.3000" height="0.1300" ry="0.0400" fill="currentColor"/>
</g>
</a>
<a style="color:inherit;" xlink:href="textedit:///Users/marc.mouries/projects/Sheet-Music/Folk_Jewish/Hevenu-Shalom-Aleichem/Hevenu-Shalom-Aleichem_music.ily:24:6:7">
<g transform="translate(16.8906, 39.4902)">
<text font-family="sans-serif" font-size="2.6163" text-anchor="start" fill="currentColor">
<tspan>G</tspan>
</text>
</g>
<g transform="translate(18.9050, 38.8902)">
<path transform="scale(0.0042, -0.0042)" d="M0 119c0 8 5 15 13 18l46 17v158c0 10 8 19 18 19s19 -9 19 -19v-145l83 31v158c0 10 9 19 19 19s18 -9 18 -19v-145l32 12c2 1 5 1 7 1c11 0 20 -9 20 -20v-60c0 -8 -5 -16 -13 -19l-46 -16v-160l32 11c2 1 5 1 7 1c11 0 20 -9 20 -20v-60c0 -8 -5 -15 -13 -18l-46 -17
v-158c0 -10 -8 -19 -18 -19s-19 9 -19 19v145l-83 -31v-158c0 -10 -9 -19 -19 -19s-18 9 -18 19v145l-32 -12c-2 -1 -5 -1 -7 -1c-11 0 -20 9 -20 20v60c0 8 5 16 13 19l46 16v160l-32 -11c-2 -1 -5 -1 -7 -1c-11 0 -20 9 -20 20v60zM179 95l-83 -30v-160l83 30v160z" fill="currentColor"/>
</g>
</a>
<a style="color:inherit;" xlink:href="textedit:///Users/marc.mouries/projects/Sheet-Music/Folk_Jewish/Hevenu-Shalom-Aleichem/Hevenu-Shalom-Aleichem_music.ily:38:2:3">
<g transform="translate(16.8906, 42.5458)">
<path transform="scale(0.0040, -0.0040)" d="M218 136c66 0 108 -36 108 -89c0 -89 -113 -183 -218 -183c-66 0 -108 36 -108 89c0 89 113 183 218 183z" fill="currentColor"/>
</g>
</a>
<a style="color:inherit;" xlink:href="textedit:///Users/marc.mouries/projects/Sheet-Music/Folk_Jewish/Hevenu-Shalom-Aleichem/Hevenu-Shalom-Aleichem_music.ily:46:17:18">
<g transform="translate(16.8906, 50.7958)">
<text font-family="Optima" font-size="1.7461" text-anchor="start" fill="currentColor">
<tspan>sha</tspan>
</text>
</g>
</a>
<g transform="translate(18.6448, 42.5458)">
<path transform="scale(0.0040, -0.0040)" d="M0 0c0 31 25 56 56 56s56 -25 56 -56s-25 -56 -56 -56s-56 25 -56 56z" fill="currentColor"/>
</g>
<g transform="translate(16.9556, 45.2958)">
<rect x="-0.0650" y="-2.5639" width="0.1300" height="3.6639" ry="0.0400" fill="currentColor"/>
</g>
<g transform="translate(97.2732, 45.4618)">
<polygon stroke-linejoin="round" stroke-linecap="round" stroke-width="0.0800" fill="currentColor" stroke="currentColor" points="1.1250 -0.1760 1.1250 0.2720 0.0400 0.2240 0.0400 -0.2240"/>
</g>
<g transform="translate(93.2472, 46.1818)">
<polygon stroke-linejoin="round" stroke-linecap="round" stroke-width="0.0800" fill="currentColor" stroke="currentColor" points="5.1510 -0.0100 5.1510 0.4380 0.0400 0.2240 0.0400 -0.2240"/>
</g>
<a style="color:inherit;" xlink:href="textedit:///Users/marc.mouries/projects/Sheet-Music/Folk_Jewish/Hevenu-Shalom-Aleichem/Hevenu-Shalom-Aleichem_music.ily:38:7:8">
<g transform="translate(24.0719, 44.1958)">
<path transform="scale(0.0040, -0.0040)" d="M218 136c66 0 108 -36 108 -89c0 -89 -113 -183 -218 -183c-66 0 -108 36 -108 89c0 89 113 183 218 183z" fill="currentColor"/>
</g>
</a>
<g transform="translate(24.1369, 45.2958)">
<rect x="-0.0650" y="-0.9139" width="0.1300" height="3.6639" ry="0.0400" fill="currentColor"/>
</g>
<g transform="translate(24.2019, 48.0058)">
<path transform="scale(0.0040, -0.0040)" d="M0 0h-16v250h16v-250zM0 0v250c97 59 224 148 224 259c0 57 -15 112 -40 163c-3 16 10 27 23 27c7 0 15 -3 20 -11c25 -56 40 -117 40 -179c0 -203 -267 -306 -267 -509z" fill="currentColor"/>
</g>
<a style="color:inherit;" xlink:href="textedit:///Users/marc.mouries/projects/Sheet-Music/Folk_Jewish/Hevenu-Shalom-Aleichem/Hevenu-Shalom-Aleichem_music.ily:47:55:56">
<g transform="translate(102.8125, 50.7958)">
<rect x="0.0000" y="-0.5500" width="0.6600" height="0.1300" ry="0.0400" fill="currentColor"/>
</g>
</a>
<a style="color:inherit;" xlink:href="textedit:///Users/marc.mouries/projects/Sheet-Music/Folk_Jewish/Hevenu-Shalom-Aleichem/Hevenu-Shalom-Aleichem_music.ily:25:2:3">
<g transform="translate(27.7464, 39.4902)">
<text font-family="sans-serif" font-size="2.6163" text-anchor="start" fill="currentColor">
<tspan>G</tspan>
</text>
</g>
<g transform="translate(29.7608, 38.8902)">
<path transform="scale(0.0042, -0.0042)" d="M0 119c0 8 5 15 13 18l46 17v158c0 10 8 19 18 19s19 -9 19 -19v-145l83 31v158c0 10 9 19 19 19s18 -9 18 -19v-145l32 12c2 1 5 1 7 1c11 0 20 -9 20 -20v-60c0 -8 -5 -16 -13 -19l-46 -16v-160l32 11c2 1 5 1 7 1c11 0 20 -9 20 -20v-60c0 -8 -5 -15 -13 -18l-46 -17
v-158c0 -10 -8 -19 -18 -19s-19 9 -19 19v145l-83 -31v-158c0 -10 -9 -19 -19 -19s-18 9 -18 19v145l-32 -12c-2 -1 -5 -1 -7 -1c-11 0 -20 9 -20 20v60c0 8 5 16 13 19l46 16v160l-32 -11c-2 -1 -5 -1 -7 -1c-11 0 -20 9 -20 20v60zM179 95l-83 -30v-160l83 30v160z" fill="currentColor"/>
</g>
<g transform="translate(30.9262, 38.3010)">
<text font-family="sans-serif" font-size="1.8500" text-anchor="start" fill="currentColor">
<tspan>7</tspan>
</text>
</g>
</a>
<a style="color:inherit;" xlink:href="textedit:///Users/marc.mouries/projects/Sheet-Music/Folk_Jewish/Hevenu-Shalom-Aleichem/Hevenu-Shalom-Aleichem_music.ily:38:11:12">
<g transform="translate(27.7464, 42.5458)">
<path transform="scale(0.0040, -0.0040)" d="M218 136c66 0 108 -36 108 -89c0 -89 -113 -183 -218 -183c-66 0 -108 36 -108 89c0 89 113 183 218 183z" fill="currentColor"/>
</g>
</a>
<a style="color:inherit;" xlink:href="textedit:///Users/marc.mouries/projects/Sheet-Music/Folk_Jewish/Hevenu-Shalom-Aleichem/Hevenu-Shalom-Aleichem_music.ily:46:24:25">
<g transform="translate(26.9474, 50.7958)">
<text font-family="Optima" font-size="1.7461" text-anchor="start" fill="currentColor">
<tspan>lom</tspan>
</text>
</g>
</a>
<g transform="translate(29.5006, 42.5458)">
<path transform="scale(0.0040, -0.0040)" d="M0 0c0 31 25 56 56 56s56 -25 56 -56s-25 -56 -56 -56s-56 25 -56 56z" fill="currentColor"/>
</g>
<g transform="translate(27.8114, 45.2958)">
<rect x="-0.0650" y="-2.5639" width="0.1300" height="3.6639" ry="0.0400" fill="currentColor"/>
</g>
<a style="color:inherit;" xlink:href="textedit:///Users/marc.mouries/projects/Sheet-Music/Folk_Jewish/Hevenu-Shalom-Aleichem/Hevenu-Shalom-Aleichem_music.ily:38:15:16">
<g transform="translate(35.1776, 43.0958)">
<path transform="scale(0.0040, -0.0040)" d="M218 136c66 0 108 -36 108 -89c0 -89 -113 -183 -218 -183c-66 0 -108 36 -108 89c0 89 113 183 218 183z" fill="currentColor"/>
</g>
</a>
<a style="color:inherit;" xlink:href="textedit:///Users/marc.mouries/projects/Sheet-Music/Folk_Jewish/Hevenu-Shalom-Aleichem/Hevenu-Shalom-Aleichem_music.ily:46:28:29">
<g transform="translate(35.3859, 50.7958)">
<text font-family="Optima" font-size="1.7461" text-anchor="start" fill="currentColor">
<tspan>a</tspan>
</text>
</g>
</a>
<g transform="translate(35.2426, 45.2958)">
<rect x="-0.0650" y="-2.0139" width="0.1300" height="3.6639" ry="0.0400" fill="currentColor"/>
</g>
<g transform="translate(35.3076, 46.9058)">
<path transform="scale(0.0040, -0.0040)" d="M0 0h-16v250h16v-250zM0 0v250c97 59 224 148 224 259c0 57 -15 112 -40 163c-3 16 10 27 23 27c7 0 15 -3 20 -11c25 -56 40 -117 40 -179c0 -203 -267 -306 -267 -509z" fill="currentColor"/>
</g>
<a style="color:inherit;" xlink:href="textedit:///Users/marc.mouries/projects/Sheet-Music/Folk_Jewish/Hevenu-Shalom-Aleichem/Hevenu-Shalom-Aleichem_music.ily:47:45:46">
<g transform="translate(95.8864, 50.7958)">
<rect x="0.0000" y="-0.5500" width="0.6600" height="0.1300" ry="0.0400" fill="currentColor"/>
</g>
</a>
<a style="color:inherit;" xlink:href="textedit:///Users/marc.mouries/projects/Sheet-Music/Folk_Jewish/Hevenu-Shalom-Aleichem/Hevenu-Shalom-Aleichem_music.ily:25:6:7">
<g transform="translate(40.5895, 39.4902)">
<text font-family="sans-serif" font-size="2.6163" text-anchor="start" fill="currentColor">
<tspan>C</tspan>
</text>
</g>
<g transform="translate(42.4333, 38.8902)">
<path transform="scale(0.0042, -0.0042)" d="M0 119c0 8 5 15 13 18l46 17v158c0 10 8 19 18 19s19 -9 19 -19v-145l83 31v158c0 10 9 19 19 19s18 -9 18 -19v-145l32 12c2 1 5 1 7 1c11 0 20 -9 20 -20v-60c0 -8 -5 -16 -13 -19l-46 -16v-160l32 11c2 1 5 1 7 1c11 0 20 -9 20 -20v-60c0 -8 -5 -15 -13 -18l-46 -17
v-158c0 -10 -8 -19 -18 -19s-19 9 -19 19v145l-83 -31v-158c0 -10 -9 -19 -19 -19s-18 9 -18 19v145l-32 -12c-2 -1 -5 -1 -7 -1c-11 0 -20 9 -20 20v60c0 8 5 16 13 19l46 16v160l-32 -11c-2 -1 -5 -1 -7 -1c-11 0 -20 9 -20 20v60zM179 95l-83 -30v-160l83 30v160z" fill="currentColor"/>
</g>
<g transform="translate(43.5987, 39.4902)">
<text font-family="sans-serif" font-size="2.6163" text-anchor="start" fill="currentColor">
<tspan>m</tspan>
</text>
</g>
</a>
<a style="color:inherit;" xlink:href="textedit:///Users/marc.mouries/projects/Sheet-Music/Folk_Jewish/Hevenu-Shalom-Aleichem/Hevenu-Shalom-Aleichem_music.ily:38:18:19">
<g transform="translate(40.5895, 43.0958)">
<path transform="scale(0.0040, -0.0040)" d="M218 136c66 0 108 -36 108 -89c0 -89 -113 -183 -218 -183c-66 0 -108 36 -108 89c0 89 113 183 218 183z" fill="currentColor"/>
</g>
</a>
<a style="color:inherit;" xlink:href="textedit:///Users/marc.mouries/projects/Sheet-Music/Folk_Jewish/Hevenu-Shalom-Aleichem/Hevenu-Shalom-Aleichem_music.ily:46:33:34">
<g transform="translate(40.3198, 50.7958)">
<text font-family="Optima" font-size="1.7461" text-anchor="start" fill="currentColor">
<tspan>lei</tspan>
</text>
</g>
</a>
<g transform="translate(40.6545, 45.2958)">
<rect x="-0.0650" y="-2.0139" width="0.1300" height="3.6639" ry="0.0400" fill="currentColor"/>
</g>
<g transform="translate(40.7195, 46.9058)">
<path transform="scale(0.0040, -0.0040)" d="M0 0h-16v250h16v-250zM0 0v250c97 59 224 148 224 259c0 57 -15 112 -40 163c-3 16 10 27 23 27c7 0 15 -3 20 -11c25 -56 40 -117 40 -179c0 -203 -267 -306 -267 -509z" fill="currentColor"/>
</g>
<a style="color:inherit;" xlink:href="textedit:///Users/marc.mouries/projects/Sheet-Music/Folk_Jewish/Hevenu-Shalom-Aleichem/Hevenu-Shalom-Aleichem_music.ily:47:33:34">
<g transform="translate(82.7656, 50.7958)">
<rect x="0.0000" y="-0.5500" width="0.6600" height="0.1300" ry="0.0400" fill="currentColor"/>
</g>
</a>
<a style="color:inherit;" xlink:href="textedit:///Users/marc.mouries/projects/Sheet-Music/Folk_Jewish/Hevenu-Shalom-Aleichem/Hevenu-Shalom-Aleichem_music.ily:39:2:3">
<g transform="translate(44.2640, 43.6458)">
<path transform="scale(0.0040, -0.0040)" d="M218 136c66 0 108 -36 108 -89c0 -89 -113 -183 -218 -183c-66 0 -108 36 -108 89c0 89 113 183 218 183z" fill="currentColor"/>
</g>
</a>
<a style="color:inherit;" xlink:href="textedit:///Users/marc.mouries/projects/Sheet-Music/Folk_Jewish/Hevenu-Shalom-Aleichem/Hevenu-Shalom-Aleichem_music.ily:46:40:41">
<g transform="translate(42.5944, 50.7958)">
<text font-family="Optima" font-size="1.7461" text-anchor="start" fill="currentColor">
<tspan>chem,</tspan>
</text>
</g>
</a>
<g transform="translate(46.0182, 43.6458)">
<path transform="scale(0.0040, -0.0040)" d="M0 0c0 31 25 56 56 56s56 -25 56 -56s-25 -56 -56 -56s-56 25 -56 56z" fill="currentColor"/>
</g>
<g transform="translate(44.3290, 45.2958)">
<rect x="-0.0650" y="-1.4639" width="0.1300" height="3.6639" ry="0.0400" fill="currentColor"/>
</g>
<a style="color:inherit;" xlink:href="textedit:///Users/marc.mouries/projects/Sheet-Music/Folk_Jewish/Hevenu-Shalom-Aleichem/Hevenu-Shalom-Aleichem_music.ily:39:6:7">
<g transform="translate(51.6953, 45.2958)">
<path transform="scale(0.0040, -0.0040)" d="M70 205c79 0 46 -98 91 -98c16 0 54 48 61 63c6 12 23 12 28 0l-123 -420c-8 -7 -17 -10 -27 -10s-20 3 -28 10l117 326c-34 -12 -69 -22 -105 -22c-47 0 -87 34 -87 79c0 40 33 72 73 72z" fill="currentColor"/>
</g>
</a>
<g transform="translate(58.7401, 46.6098)">
<polygon stroke-linejoin="round" stroke-linecap="round" stroke-width="0.0800" fill="currentColor" stroke="currentColor" points="3.7645 -0.4380 3.7645 0.0100 0.0400 0.2240 0.0400 -0.2240"/>
</g>
<a style="color:inherit;" xlink:href="textedit:///Users/marc.mouries/projects/Sheet-Music/Folk_Jewish/Hevenu-Shalom-Aleichem/Hevenu-Shalom-Aleichem_music.ily:39:9:10">
<g transform="translate(55.0656, 44.1958)">
<path transform="scale(0.0040, -0.0040)" d="M218 136c66 0 108 -36 108 -89c0 -89 -113 -183 -218 -183c-66 0 -108 36 -108 89c0 89 113 183 218 183z" fill="currentColor"/>
</g>
</a>
<a style="color:inherit;" xlink:href="textedit:///Users/marc.mouries/projects/Sheet-Music/Folk_Jewish/Hevenu-Shalom-Aleichem/Hevenu-Shalom-Aleichem_music.ily:47:2:3">
<g transform="translate(54.5909, 50.7958)">
<text font-family="Optima" font-size="1.7461" text-anchor="start" fill="currentColor">
<tspan>He</tspan>
</text>
</g>
</a>
<g transform="translate(55.1306, 45.2958)">
<rect x="-0.0650" y="-0.9139" width="0.1300" height="3.6639" ry="0.0400" fill="currentColor"/>
</g>
<g transform="translate(55.1956, 48.0058)">
<path transform="scale(0.0040, -0.0040)" d="M0 0h-16v250h16v-250zM0 0v250c97 59 224 148 224 259c0 57 -15 112 -40 163c-3 16 10 27 23 27c7 0 15 -3 20 -11c25 -56 40 -117 40 -179c0 -203 -267 -306 -267 -509z" fill="currentColor"/>
</g>
<a style="color:inherit;" xlink:href="textedit:///Users/marc.mouries/projects/Sheet-Music/Folk_Jewish/Hevenu-Shalom-Aleichem/Hevenu-Shalom-Aleichem_music.ily:47:21:22">
<g transform="translate(70.6761, 50.7958)">
<rect x="0.0000" y="-0.5500" width="0.6600" height="0.1300" ry="0.0400" fill="currentColor"/>
</g>
</a>
<a style="color:inherit;" xlink:href="textedit:///Users/marc.mouries/projects/Sheet-Music/Folk_Jewish/Hevenu-Shalom-Aleichem/Hevenu-Shalom-Aleichem_music.ily:39:11:12">
<g transform="translate(58.7401, 43.6458)">
<path transform="scale(0.0040, -0.0040)" d="M218 136c66 0 108 -36 108 -89c0 -89 -113 -183 -218 -183c-66 0 -108 36 -108 89c0 89 113 183 218 183z" fill="currentColor"/>
</g>
</a>
<a style="color:inherit;" xlink:href="textedit:///Users/marc.mouries/projects/Sheet-Music/Folk_Jewish/Hevenu-Shalom-Aleichem/Hevenu-Shalom-Aleichem_music.ily:47:8:9">
<g transform="translate(58.5386, 50.7958)">
<text font-family="Optima" font-size="1.7461" text-anchor="start" fill="currentColor">
<tspan>ve</tspan>
</text>
</g>
</a>
<g transform="translate(58.8051, 45.2958)">
<rect x="-0.0650" y="-1.4639" width="0.1300" height="2.7742" ry="0.0400" fill="currentColor"/>
</g>
<a style="color:inherit;" xlink:href="textedit:///Users/marc.mouries/projects/Sheet-Music/Folk_Jewish/Hevenu-Shalom-Aleichem/Hevenu-Shalom-Aleichem_music.ily:39:13:14">
<g transform="translate(62.4145, 43.0958)">
<path transform="scale(0.0040, -0.0040)" d="M218 136c66 0 108 -36 108 -89c0 -89 -113 -183 -218 -183c-66 0 -108 36 -108 89c0 89 113 183 218 183z" fill="currentColor"/>
</g>
</a>
<a style="color:inherit;" xlink:href="textedit:///Users/marc.mouries/projects/Sheet-Music/Folk_Jewish/Hevenu-Shalom-Aleichem/Hevenu-Shalom-Aleichem_music.ily:47:14:15">
<g transform="translate(62.1106, 50.7958)">
<text font-family="Optima" font-size="1.7461" text-anchor="start" fill="currentColor">
<tspan>nu</tspan>
</text>
</g>
</a>
<g transform="translate(62.4795, 45.2958)">
<rect x="-0.0650" y="-2.0139" width="0.1300" height="3.1176" ry="0.0400" fill="currentColor"/>
</g>
<a style="color:inherit;" xlink:href="textedit:///Users/marc.mouries/projects/Sheet-Music/Folk_Jewish/Hevenu-Shalom-Aleichem/Hevenu-Shalom-Aleichem_music.ily:47:11:12">
<g transform="translate(60.8482, 50.7958)">
<rect x="0.0000" y="-0.5500" width="0.6600" height="0.1300" ry="0.0400" fill="currentColor"/>
</g>
</a>
<a style="color:inherit;" xlink:href="textedit:///Users/marc.mouries/projects/Sheet-Music/Folk_Jewish/Hevenu-Shalom-Aleichem/Hevenu-Shalom-Aleichem_music.ily:47:5:6">
<g transform="translate(57.3615, 50.7958)">
<rect x="0.0000" y="-0.5500" width="0.6600" height="0.1300" ry="0.0400" fill="currentColor"/>
</g>
</a>
<a style="color:inherit;" xlink:href="textedit:///Users/marc.mouries/projects/Sheet-Music/Folk_Jewish/Hevenu-Shalom-Aleichem/Hevenu-Shalom-Aleichem_music.ily:26:2:3">
<g transform="translate(67.5450, 39.4902)">
<text font-family="sans-serif" font-size="2.6163" text-anchor="start" fill="currentColor">
<tspan>G</tspan>
</text>
</g>
<g transform="translate(69.5595, 38.8902)">
<path transform="scale(0.0042, -0.0042)" d="M0 119c0 8 5 15 13 18l46 17v158c0 10 8 19 18 19s19 -9 19 -19v-145l83 31v158c0 10 9 19 19 19s18 -9 18 -19v-145l32 12c2 1 5 1 7 1c11 0 20 -9 20 -20v-60c0 -8 -5 -16 -13 -19l-46 -16v-160l32 11c2 1 5 1 7 1c11 0 20 -9 20 -20v-60c0 -8 -5 -15 -13 -18l-46 -17
v-158c0 -10 -8 -19 -18 -19s-19 9 -19 19v145l-83 -31v-158c0 -10 -9 -19 -19 -19s-18 9 -18 19v145l-32 -12c-2 -1 -5 -1 -7 -1c-11 0 -20 9 -20 20v60c0 8 5 16 13 19l46 16v160l-32 -11c-2 -1 -5 -1 -7 -1c-11 0 -20 9 -20 20v60zM179 95l-83 -30v-160l83 30v160z" fill="currentColor"/>
</g>
<g transform="translate(70.7249, 38.3010)">
<text font-family="sans-serif" font-size="1.8500" text-anchor="start" fill="currentColor">
<tspan>7</tspan>
</text>
</g>
</a>
<a style="color:inherit;" xlink:href="textedit:///Users/marc.mouries/projects/Sheet-Music/Folk_Jewish/Hevenu-Shalom-Aleichem/Hevenu-Shalom-Aleichem_music.ily:39:15:16">
<g transform="translate(67.5450, 42.5458)">
<path transform="scale(0.0040, -0.0040)" d="M218 136c66 0 108 -36 108 -89c0 -89 -113 -183 -218 -183c-66 0 -108 36 -108 89c0 89 113 183 218 183z" fill="currentColor"/>
</g>
</a>
<a style="color:inherit;" xlink:href="textedit:///Users/marc.mouries/projects/Sheet-Music/Folk_Jewish/Hevenu-Shalom-Aleichem/Hevenu-Shalom-Aleichem_music.ily:47:17:18">
<g transform="translate(66.9338, 50.7958)">
<text font-family="Optima" font-size="1.7461" text-anchor="start" fill="currentColor">
<tspan>sha</tspan>
</text>
</g>
</a>
<g transform="translate(67.6100, 45.2958)">
<rect x="-0.0650" y="-2.5639" width="0.1300" height="3.6639" ry="0.0400" fill="currentColor"/>
</g>
<a style="color:inherit;" xlink:href="textedit:///Users/marc.mouries/projects/Sheet-Music/Folk_Jewish/Hevenu-Shalom-Aleichem/Hevenu-Shalom-Aleichem_music.ily:39:18:19">
<g transform="translate(73.5898, 42.5458)">
<path transform="scale(0.0040, -0.0040)" d="M218 136c66 0 108 -36 108 -89c0 -89 -113 -183 -218 -183c-66 0 -108 36 -108 89c0 89 113 183 218 183z" fill="currentColor"/>
</g>
</a>
<a style="color:inherit;" xlink:href="textedit:///Users/marc.mouries/projects/Sheet-Music/Folk_Jewish/Hevenu-Shalom-Aleichem/Hevenu-Shalom-Aleichem_music.ily:47:24:25">
<g transform="translate(72.5518, 50.7958)">
<text font-family="Optima" font-size="1.7461" text-anchor="start" fill="currentColor">
<tspan>lom,</tspan>
</text>
</g>
</a>
<g transform="translate(73.6548, 45.2958)">
<rect x="-0.0650" y="-2.5639" width="0.1300" height="3.6639" ry="0.0400" fill="currentColor"/>
</g>
<a style="color:inherit;" xlink:href="textedit:///Users/marc.mouries/projects/Sheet-Music/Folk_Jewish/Hevenu-Shalom-Aleichem/Hevenu-Shalom-Aleichem_music.ily:46:37:38">
<g transform="translate(42.2289, 50.7958)">
<rect x="0.0000" y="-0.5500" width="0.3000" height="0.1300" ry="0.0400" fill="currentColor"/>
</g>
</a>
<a style="color:inherit;" xlink:href="textedit:///Users/marc.mouries/projects/Sheet-Music/Folk_Jewish/Hevenu-Shalom-Aleichem/Hevenu-Shalom-Aleichem_music.ily:39:20:21">
<g transform="translate(79.6345, 42.5458)">
<path transform="scale(0.0040, -0.0040)" d="M218 136c66 0 108 -36 108 -89c0 -89 -113 -183 -218 -183c-66 0 -108 36 -108 89c0 89 113 183 218 183z" fill="currentColor"/>
</g>
</a>
<a style="color:inherit;" xlink:href="textedit:///Users/marc.mouries/projects/Sheet-Music/Folk_Jewish/Hevenu-Shalom-Aleichem/Hevenu-Shalom-Aleichem_music.ily:47:29:30">
<g transform="translate(79.0233, 50.7958)">
<text font-family="Optima" font-size="1.7461" text-anchor="start" fill="currentColor">
<tspan>sha</tspan>
</text>
</g>
</a>
<g transform="translate(79.6995, 45.2958)">
<rect x="-0.0650" y="-2.5639" width="0.1300" height="3.6639" ry="0.0400" fill="currentColor"/>
</g>
<a style="color:inherit;" xlink:href="textedit:///Users/marc.mouries/projects/Sheet-Music/Folk_Jewish/Hevenu-Shalom-Aleichem/Hevenu-Shalom-Aleichem_music.ily:46:30:31">
<g transform="translate(37.9667, 50.7958)">
<rect x="0.0000" y="-0.5500" width="0.6600" height="0.1300" ry="0.0400" fill="currentColor"/>
</g>
</a>
<a style="color:inherit;" xlink:href="textedit:///Users/marc.mouries/projects/Sheet-Music/Folk_Jewish/Hevenu-Shalom-Aleichem/Hevenu-Shalom-Aleichem_music.ily:39:22:23">
<g transform="translate(85.6793, 42.5458)">
<path transform="scale(0.0040, -0.0040)" d="M218 136c66 0 108 -36 108 -89c0 -89 -113 -183 -218 -183c-66 0 -108 36 -108 89c0 89 113 183 218 183z" fill="currentColor"/>
</g>
</a>
<a style="color:inherit;" xlink:href="textedit:///Users/marc.mouries/projects/Sheet-Music/Folk_Jewish/Hevenu-Shalom-Aleichem/Hevenu-Shalom-Aleichem_music.ily:47:36:37">
<g transform="translate(84.6413, 50.7958)">
<text font-family="Optima" font-size="1.7461" text-anchor="start" fill="currentColor">
<tspan>lom,</tspan>
</text>
</g>
</a>
<g transform="translate(85.7443, 45.2958)">
<rect x="-0.0650" y="-2.5639" width="0.1300" height="3.6639" ry="0.0400" fill="currentColor"/>
</g>
<a style="color:inherit;" xlink:href="textedit:///Users/marc.mouries/projects/Sheet-Music/Folk_Jewish/Hevenu-Shalom-Aleichem/Hevenu-Shalom-Aleichem_music.ily:46:21:22">
<g transform="translate(22.8523, 50.7958)">
<rect x="0.0000" y="-0.5500" width="0.6600" height="0.1300" ry="0.0400" fill="currentColor"/>
</g>
</a>
<a style="color:inherit;" xlink:href="textedit:///Users/marc.mouries/projects/Sheet-Music/Folk_Jewish/Hevenu-Shalom-Aleichem/Hevenu-Shalom-Aleichem_music.ily:39:24:25">
<g transform="translate(93.2472, 42.5458)">
<path transform="scale(0.0040, -0.0040)" d="M218 136c66 0 108 -36 108 -89c0 -89 -113 -183 -218 -183c-66 0 -108 36 -108 89c0 89 113 183 218 183z" fill="currentColor"/>
</g>
</a>
<a style="color:inherit;" xlink:href="textedit:///Users/marc.mouries/projects/Sheet-Music/Folk_Jewish/Hevenu-Shalom-Aleichem/Hevenu-Shalom-Aleichem_music.ily:47:41:42">
<g transform="translate(92.6360, 50.7958)">
<text font-family="Optima" font-size="1.7461" text-anchor="start" fill="currentColor">
<tspan>sha</tspan>
</text>
</g>
</a>
<g transform="translate(95.0014, 42.5458)">
<path transform="scale(0.0040, -0.0040)" d="M0 0c0 31 25 56 56 56s56 -25 56 -56s-25 -56 -56 -56s-56 25 -56 56z" fill="currentColor"/>
</g>
<g transform="translate(93.3122, 45.2958)">
<rect x="-0.0650" y="-2.5639" width="0.1300" height="3.4526" ry="0.0400" fill="currentColor"/>
</g>
<a style="color:inherit;" xlink:href="textedit:///Users/marc.mouries/projects/Sheet-Music/Folk_Jewish/Hevenu-Shalom-Aleichem/Hevenu-Shalom-Aleichem_music.ily:38:6:7">
<g transform="translate(16.8906, 45.2958)">
<path stroke-width="0.0800" stroke-linejoin="round" stroke-linecap="round" stroke="currentColor" fill="currentColor" d="M0.7401 -3.8450C2.5193 -4.8519 6.6875 -3.9900 7.9214 -2.3600L7.9214 -2.3600C6.6632 -3.8724 2.4950 -4.7344 0.7401 -3.8450z"/>
</g>
</a>
<a style="color:inherit;" xlink:href="textedit:///Users/marc.mouries/projects/Sheet-Music/Folk_Jewish/Hevenu-Shalom-Aleichem/Hevenu-Shalom-Aleichem_music.ily:39:28:29">
<g transform="translate(98.3082, 43.0958)">
<path transform="scale(0.0040, -0.0040)" d="M218 136c66 0 108 -36 108 -89c0 -89 -113 -183 -218 -183c-66 0 -108 36 -108 89c0 89 113 183 218 183z" fill="currentColor"/>
</g>
</a>
<a style="color:inherit;" xlink:href="textedit:///Users/marc.mouries/projects/Sheet-Music/Folk_Jewish/Hevenu-Shalom-Aleichem/Hevenu-Shalom-Aleichem_music.ily:47:48:49">
<g transform="translate(97.2702, 50.7958)">
<text font-family="Optima" font-size="1.7461" text-anchor="start" fill="currentColor">
<tspan>lom,</tspan>
</text>
</g>
</a>
<g transform="translate(98.3732, 45.2958)">
<rect x="-0.0650" y="-2.0139" width="0.1300" height="3.1112" ry="0.0400" fill="currentColor"/>
</g>
<a style="color:inherit;" xlink:href="textedit:///Users/marc.mouries/projects/Sheet-Music/Folk_Jewish/Hevenu-Shalom-Aleichem/Hevenu-Shalom-Aleichem_music.ily:39:32:33">
<g transform="translate(100.8921, 43.6458)">
<path transform="scale(0.0040, -0.0040)" d="M218 136c66 0 108 -36 108 -89c0 -89 -113 -183 -218 -183c-66 0 -108 36 -108 89c0 89 113 183 218 183z" fill="currentColor"/>
</g>
</a>
<a style="color:inherit;" xlink:href="textedit:///Users/marc.mouries/projects/Sheet-Music/Folk_Jewish/Hevenu-Shalom-Aleichem/Hevenu-Shalom-Aleichem_music.ily:47:53:54">
<g transform="translate(101.1004, 50.7958)">
<text font-family="Optima" font-size="1.7461" text-anchor="start" fill="currentColor">
<tspan>a</tspan>
</text>
</g>
</a>
<g transform="translate(100.9571, 45.2958)">
<rect x="-0.0650" y="-1.4639" width="0.1300" height="3.4536" ry="0.0400" fill="currentColor"/>
</g>
<a style="color:inherit;" xlink:href="textedit:///Users/marc.mouries/projects/Sheet-Music/Folk_Jewish/Hevenu-Shalom-Aleichem/Hevenu-Shalom-Aleichem_music.ily:39:35:36">
<g transform="translate(104.5666, 44.1958)">
<path transform="scale(0.0040, -0.0040)" d="M218 136c66 0 108 -36 108 -89c0 -89 -113 -183 -218 -183c-66 0 -108 36 -108 89c0 89 113 183 218 183z" fill="currentColor"/>
</g>
</a>
<a style="color:inherit;" xlink:href="textedit:///Users/marc.mouries/projects/Sheet-Music/Folk_Jewish/Hevenu-Shalom-Aleichem/Hevenu-Shalom-Aleichem_music.ily:47:58:59">
<g transform="translate(104.2969, 50.7958)">
<text font-family="Optima" font-size="1.7461" text-anchor="start" fill="currentColor">
<tspan>lei</tspan>
</text>
</g>
</a>
<g transform="translate(104.6316, 45.2958)">
<rect x="-0.0650" y="-0.9139" width="0.1300" height="3.1102" ry="0.0400" fill="currentColor"/>
</g>
<a style="color:inherit;" xlink:href="textedit:///Users/marc.mouries/projects/Sheet-Music/Folk_Jewish/Hevenu-Shalom-Aleichem/Hevenu-Shalom-Aleichem_music.ily:27:5:6">
<g transform="translate(108.2411, 39.4902)">
<text font-family="sans-serif" font-size="2.6163" text-anchor="start" fill="currentColor">
<tspan>C</tspan>
</text>
</g>
<g transform="translate(110.0849, 38.8902)">
<path transform="scale(0.0042, -0.0042)" d="M0 119c0 8 5 15 13 18l46 17v158c0 10 8 19 18 19s19 -9 19 -19v-145l83 31v158c0 10 9 19 19 19s18 -9 18 -19v-145l32 12c2 1 5 1 7 1c11 0 20 -9 20 -20v-60c0 -8 -5 -16 -13 -19l-46 -16v-160l32 11c2 1 5 1 7 1c11 0 20 -9 20 -20v-60c0 -8 -5 -15 -13 -18l-46 -17
v-158c0 -10 -8 -19 -18 -19s-19 9 -19 19v145l-83 -31v-158c0 -10 -9 -19 -19 -19s-18 9 -18 19v145l-32 -12c-2 -1 -5 -1 -7 -1c-11 0 -20 9 -20 20v60c0 8 5 16 13 19l46 16v160l-32 -11c-2 -1 -5 -1 -7 -1c-11 0 -20 9 -20 20v60zM179 95l-83 -30v-160l83 30v160z" fill="currentColor"/>
</g>
<g transform="translate(111.2503, 39.4902)">
<text font-family="sans-serif" font-size="2.6163" text-anchor="start" fill="currentColor">
<tspan>m</tspan>
</text>
</g>
</a>
<a style="color:inherit;" xlink:href="textedit:///Users/marc.mouries/projects/Sheet-Music/Folk_Jewish/Hevenu-Shalom-Aleichem/Hevenu-Shalom-Aleichem_music.ily:39:37:38">
<g transform="translate(108.2411, 44.7458)">
<path transform="scale(0.0040, -0.0040)" d="M218 136c66 0 108 -36 108 -89c0 -89 -113 -183 -218 -183c-66 0 -108 36 -108 89c0 89 113 183 218 183z" fill="currentColor"/>
</g>
</a>
<a style="color:inherit;" xlink:href="textedit:///Users/marc.mouries/projects/Sheet-Music/Folk_Jewish/Hevenu-Shalom-Aleichem/Hevenu-Shalom-Aleichem_music.ily:47:65:66">
<g transform="translate(106.5715, 50.7958)">
<text font-family="Optima" font-size="1.7461" text-anchor="start" fill="currentColor">
<tspan>chem,</tspan>
</text>
</g>
</a>
<g transform="translate(108.3061, 45.2958)">
<rect x="-0.0650" y="-0.3639" width="0.1300" height="3.6639" ry="0.0400" fill="currentColor"/>
</g>
<g transform="translate(108.3711, 48.5558)">
<path transform="scale(0.0040, -0.0040)" d="M0 0h-16v250h16v-250zM0 0v250c97 59 224 148 224 259c0 57 -15 112 -40 163c-3 16 10 27 23 27c7 0 15 -3 20 -11c25 -56 40 -117 40 -179c0 -203 -267 -306 -267 -509z" fill="currentColor"/>
</g>
</svg>
