<svg xmlns="http://www.w3.org/2000/svg" xmlns:xlink="http://www.w3.org/1999/xlink" version="1.2" width="210.00mm" height="297.00mm" viewBox="0.0000 -0.0000 119.5016 169.0094">
<style type="text/css">
<![CDATA[
tspan { white-space: pre; }
]]>
</style>
<g transform="translate(5.6906, 4.4781)">
<text font-family="serif" font-size="2.2000" text-anchor="start" fill="currentColor">
<tspan>2</tspan>
</text>
</g>
<g transform="translate(65.6887, 12.0648)">
<rect x="0.0000" y="-2.2000" width="0.1900" height="4.4000" ry="0.0000" fill="currentColor"/>
</g>
<g transform="translate(31.4579, 12.0648)">
<rect x="0.0000" y="-2.2000" width="0.1900" height="4.4000" ry="0.0000" fill="currentColor"/>
</g>
<g transform="translate(113.6210, 12.0648)">
<rect x="0.0000" y="-2.2000" width="0.1900" height="4.4000" ry="0.0000" fill="currentColor"/>
</g>
<g transform="translate(95.2157, 12.0648)">
<rect x="0.0000" y="-2.2000" width="0.1900" height="4.4000" ry="0.0000" fill="currentColor"/>
</g>
<g transform="translate(48.3700, 12.0648)">
<rect x="0.0000" y="-2.2000" width="0.1900" height="4.4000" ry="0.0000" fill="currentColor"/>
</g>
<g transform="translate(5.6906, 14.2648)">
<line stroke-linejoin="round" stroke-linecap="round" stroke-width="0.1000" stroke="currentColor" x1="0.0500" y1="0" x2="108.0705" y2="0"/>
</g>
<g transform="translate(5.6906, 13.1648)">
<line stroke-linejoin="round" stroke-linecap="round" stroke-width="0.1000" stroke="currentColor" x1="0.0500" y1="0" x2="108.0705" y2="0"/>
</g>
<g transform="translate(5.6906, 12.0648)">
<line stroke-linejoin="round" stroke-linecap="round" stroke-width="0.1000" stroke="currentColor" x1="0.0500" y1="0" x2="108.0705" y2="0"/>
</g>
<g transform="translate(5.6906, 10.9648)">
<line stroke-linejoin="round" stroke-linecap="round" stroke-width="0.1000" stroke="currentColor" x1="0.0500" y1="0" x2="108.0705" y2="0"/>
</g>
<g transform="translate(5.6906, 9.8648)">
<line stroke-linejoin="round" stroke-linecap="round" stroke-width="0.1000" stroke="currentColor" x1="0.0500" y1="0" x2="108.0705" y2="0"/>
</g>
<g transform="translate(78.2121, 12.0648)">
<rect x="0.0000" y="-2.2000" width="0.1900" height="4.4000" ry="0.0000" fill="currentColor"/>
</g>
<g transform="translate(5.6906, 8.7648)">
<rect x="83.4680" y="-0.1050" width="1.9563" height="0.2100" ry="0.1050" fill="currentColor"/>
</g>
<g transform="translate(5.6906, 8.7648)">
<rect x="77.2823" y="-0.1050" width="1.9230" height="0.2100" ry="0.1050" fill="currentColor"/>
</g>
<g transform="translate(5.6906, 8.7648)">
<rect x="75.2927" y="-0.1050" width="1.8897" height="0.2100" ry="0.1050" fill="currentColor"/>
</g>
<g transform="translate(5.6906, 8.7648)">
<rect x="73.2697" y="-0.1050" width="1.9230" height="0.2100" ry="0.1050" fill="currentColor"/>
</g>
<g transform="translate(5.6906, 8.7648)">
<rect x="70.3820" y="-0.1050" width="1.9230" height="0.2100" ry="0.1050" fill="currentColor"/>
</g>
<g transform="translate(5.6906, 7.6648)">
<rect x="68.3923" y="-0.1050" width="1.8897" height="0.2100" ry="0.1050" fill="currentColor"/>
</g>
<g transform="translate(5.6906, 8.7648)">
<rect x="68.3923" y="-0.1050" width="1.8897" height="0.2100" ry="0.1050" fill="currentColor"/>
</g>
<g transform="translate(5.6906, 7.6648)">
<rect x="66.4027" y="-0.1050" width="1.8897" height="0.2100" ry="0.1050" fill="currentColor"/>
</g>
<g transform="translate(5.6906, 8.7648)">
<rect x="66.4027" y="-0.1050" width="1.8897" height="0.2100" ry="0.1050" fill="currentColor"/>
</g>
<g transform="translate(5.6906, 7.6648)">
<rect x="64.3797" y="-0.1050" width="1.9230" height="0.2100" ry="0.1050" fill="currentColor"/>
</g>
<g transform="translate(5.6906, 8.7648)">
<rect x="64.3797" y="-0.1050" width="1.9230" height="0.2100" ry="0.1050" fill="currentColor"/>
</g>
<g transform="translate(5.6906, 8.7648)">
<rect x="26.5669" y="-0.1050" width="1.9563" height="0.2100" ry="0.1050" fill="currentColor"/>
</g>
<g transform="translate(5.6906, 8.7648)">
<rect x="23.7016" y="-0.1050" width="1.9563" height="0.2100" ry="0.1050" fill="currentColor"/>
</g>
<g transform="translate(81.3409, 12.0648)">
<rect x="-0.0650" y="-3.6639" width="0.1300" height="4.6220" ry="0.0400" fill="currentColor"/>
</g>
<a style="color:inherit;" xlink:href="textedit:///home/runner/work/violin-music_private/violin-music_private/tunes/Classical/Mozart_Rondo-Alla-Turca/KV331_3_RondoAllaTurca-Violin.ly:107:26:27">
<g transform="translate(81.2759, 8.2148)">
<path transform="scale(0.0040, -0.0040)" d="M218 136c66 0 108 -36 108 -89c0 -89 -113 -183 -218 -183c-66 0 -108 36 -108 89c0 89 113 183 218 183z" fill="currentColor"/>
</g>
</a>
<a style="color:inherit;" xlink:href="textedit:///home/runner/work/violin-music_private/violin-music_private/tunes/Classical/Mozart_Rondo-Alla-Turca/KV331_3_RondoAllaTurca-Violin.ly:107:24:25">
<g transform="translate(79.2863, 8.7648)">
<path transform="scale(0.0040, -0.0040)" d="M218 136c66 0 108 -36 108 -89c0 -89 -113 -183 -218 -183c-66 0 -108 36 -108 89c0 89 113 183 218 183z" fill="currentColor"/>
</g>
</a>
<g transform="translate(79.3513, 12.0648)">
<rect x="-0.0650" y="-3.1139" width="0.1300" height="4.0022" ry="0.0400" fill="currentColor"/>
</g>
<a style="color:inherit;" xlink:href="textedit:///home/runner/work/violin-music_private/violin-music_private/tunes/Classical/Mozart_Rondo-Alla-Turca/KV331_3_RondoAllaTurca-Violin.ly:107:33:34">
<g transform="translate(87.2449, 9.8648)">
<path transform="scale(0.0040, -0.0040)" d="M218 136c66 0 108 -36 108 -89c0 -89 -113 -183 -218 -183c-66 0 -108 36 -108 89c0 89 113 183 218 183z" fill="currentColor"/>
</g>
</a>
<g transform="translate(89.5496, 12.0648)">
<rect x="-0.0650" y="-3.1139" width="0.1300" height="4.2139" ry="0.0400" fill="currentColor"/>
</g>
<a style="color:inherit;" xlink:href="textedit:///home/runner/work/violin-music_private/violin-music_private/tunes/Classical/Mozart_Rondo-Alla-Turca/KV331_3_RondoAllaTurca-Violin.ly:107:36:37">
<g transform="translate(89.4846, 8.7648)">
<path transform="scale(0.0040, -0.0040)" d="M218 136c66 0 108 -36 108 -89c0 -89 -113 -183 -218 -183c-66 0 -108 36 -108 89c0 89 113 183 218 183z" fill="currentColor"/>
</g>
</a>
<g transform="translate(87.3099, 12.0648)">
<rect x="-0.0650" y="-2.0139" width="0.1300" height="3.1139" ry="0.0400" fill="currentColor"/>
</g>
<a style="color:inherit;" xlink:href="textedit:///home/runner/work/violin-music_private/violin-music_private/tunes/Classical/Mozart_Rondo-Alla-Turca/KV331_3_RondoAllaTurca-Violin.ly:107:28:29">
<g transform="translate(83.2656, 8.7648)">
<path transform="scale(0.0040, -0.0040)" d="M218 136c66 0 108 -36 108 -89c0 -89 -113 -183 -218 -183c-66 0 -108 36 -108 89c0 89 113 183 218 183z" fill="currentColor"/>
</g>
</a>
<g transform="translate(85.3203, 12.0648)">
<rect x="-0.0650" y="-2.5639" width="0.1300" height="3.6616" ry="0.0400" fill="currentColor"/>
</g>
<a style="color:inherit;" xlink:href="textedit:///home/runner/work/violin-music_private/violin-music_private/tunes/Classical/Mozart_Rondo-Alla-Turca/KV331_3_RondoAllaTurca-Violin.ly:107:30:31">
<g transform="translate(85.2553, 9.3148)">
<path transform="scale(0.0040, -0.0040)" d="M218 136c66 0 108 -36 108 -89c0 -89 -113 -183 -218 -183c-66 0 -108 36 -108 89c0 89 113 183 218 183z" fill="currentColor"/>
</g>
</a>
<g transform="translate(83.3306, 12.0648)">
<rect x="-0.0650" y="-3.1139" width="0.1300" height="4.1418" ry="0.0400" fill="currentColor"/>
</g>
<g transform="translate(67.8464, 12.0648)">
<rect x="-0.0650" y="-3.3000" width="0.1300" height="3.6639" ry="0.0400" fill="currentColor"/>
</g>
<a style="color:inherit;" xlink:href="textedit:///home/runner/work/violin-music_private/violin-music_private/tunes/Classical/Mozart_Rondo-Alla-Turca/KV331_3_RondoAllaTurca-Violin.ly:107:5:6">
<g transform="translate(67.2593, 13.7148)">
<path transform="scale(0.0040, -0.0040)" d="M130 -20h-260c-11 0 -20 9 -20 20s9 20 20 20h260c11 0 20 -9 20 -20s-9 -20 -20 -20z" fill="currentColor"/>
</g>
</a>
<a style="color:inherit;" xlink:href="textedit:///home/runner/work/violin-music_private/violin-music_private/tunes/Classical/Mozart_Rondo-Alla-Turca/KV331_3_RondoAllaTurca-Violin.ly:107:2:3">
<g transform="translate(66.6072, 12.6148)">
<path transform="scale(0.0040, -0.0040)" d="M218 136c66 0 108 -36 108 -89c0 -89 -113 -183 -218 -183c-66 0 -108 36 -108 89c0 89 113 183 218 183z" fill="currentColor"/>
</g>
</a>
<g transform="translate(63.8948, 12.0648)">
<rect x="-0.0650" y="0.1861" width="0.1300" height="3.6639" ry="0.0400" fill="currentColor"/>
</g>
<a style="color:inherit;" xlink:href="textedit:///home/runner/work/violin-music_private/violin-music_private/tunes/Classical/Mozart_Rondo-Alla-Turca/KV331_3_RondoAllaTurca-Violin.ly:106:27:28">
<g transform="translate(64.0210, 9.2648)">
<path transform="scale(0.0022, -0.0022)" d="M148 501c10 0 41 -15 72 -15c32 0 63 15 76 15c15 0 26 -11 26 -21c0 -4 -1 -7 -4 -10l-264 -291h134v4c0 60 50 41 75 85c7 11 8 24 14 36c3 7 10 10 17 10c11 0 24 -8 24 -25v-110h70c18 0 27 -14 27 -27s-9 -27 -27 -27h-70c2 -45 36 -82 80 -82c14 0 22 -10 22 -21
s-8 -22 -22 -22c-49 0 -96 14 -145 14s-97 -14 -146 -14c-14 0 -21 11 -21 22s7 21 21 21c44 0 79 37 81 82h-134c-43 0 -57 25 -57 42c0 5 1 10 3 12c73 81 123 182 123 291c0 17 11 31 25 31z" fill="currentColor"/>
</g>
</a>
<a style="color:inherit;" xlink:href="textedit:///home/runner/work/violin-music_private/violin-music_private/tunes/Classical/Mozart_Rondo-Alla-Turca/KV331_3_RondoAllaTurca-Violin.ly:106:26:27">
<g transform="translate(63.8298, 12.0648)">
<path transform="scale(0.0040, -0.0040)" d="M218 136c66 0 108 -36 108 -89c0 -89 -113 -183 -218 -183c-66 0 -108 36 -108 89c0 89 113 183 218 183z" fill="currentColor"/>
</g>
</a>
<g transform="translate(104.9143, 14.2648)">
<polygon stroke-linejoin="round" stroke-linecap="round" stroke-width="0.0800" fill="currentColor" stroke="currentColor" points="6.9735 -0.2240 6.9735 0.2240 0.0400 0.2240 0.0400 -0.2240"/>
</g>
<g transform="translate(104.9143, 15.1508)">
<polygon stroke-linejoin="round" stroke-linecap="round" stroke-width="0.0800" fill="currentColor" stroke="currentColor" points="6.9735 -0.2240 6.9735 0.2240 0.0400 0.2240 0.0400 -0.2240"/>
</g>
<g transform="translate(76.4303, 12.0648)">
<rect x="-0.0650" y="-3.6639" width="0.1300" height="3.6639" ry="0.0400" fill="currentColor"/>
</g>
<a style="color:inherit;" xlink:href="textedit:///home/runner/work/violin-music_private/violin-music_private/tunes/Classical/Mozart_Rondo-Alla-Turca/KV331_3_RondoAllaTurca-Violin.ly:107:22:23">
<g transform="translate(76.3653, 8.2148)">
<path transform="scale(0.0040, -0.0040)" d="M218 136c66 0 108 -36 108 -89c0 -89 -113 -183 -218 -183c-66 0 -108 36 -108 89c0 89 113 183 218 183z" fill="currentColor"/>
</g>
</a>
<g transform="translate(74.4406, 12.0648)">
<rect x="-0.0650" y="-4.2139" width="0.1300" height="4.2139" ry="0.0400" fill="currentColor"/>
</g>
<a style="color:inherit;" xlink:href="textedit:///home/runner/work/violin-music_private/violin-music_private/tunes/Classical/Mozart_Rondo-Alla-Turca/KV331_3_RondoAllaTurca-Violin.ly:107:19:20">
<g transform="translate(74.3756, 7.6648)">
<path transform="scale(0.0040, -0.0040)" d="M218 136c66 0 108 -36 108 -89c0 -89 -113 -183 -218 -183c-66 0 -108 36 -108 89c0 89 113 183 218 183z" fill="currentColor"/>
</g>
</a>
<g transform="translate(72.4510, 12.0648)">
<rect x="-0.0650" y="-4.7639" width="0.1300" height="4.7639" ry="0.0400" fill="currentColor"/>
</g>
<a style="color:inherit;" xlink:href="textedit:///home/runner/work/violin-music_private/violin-music_private/tunes/Classical/Mozart_Rondo-Alla-Turca/KV331_3_RondoAllaTurca-Violin.ly:107:17:18">
<g transform="translate(72.3860, 7.1148)">
<path transform="scale(0.0040, -0.0040)" d="M218 136c66 0 108 -36 108 -89c0 -89 -113 -183 -218 -183c-66 0 -108 36 -108 89c0 89 113 183 218 183z" fill="currentColor"/>
</g>
</a>
<g transform="translate(70.4613, 12.0648)">
<rect x="-0.0650" y="-4.2139" width="0.1300" height="4.2139" ry="0.0400" fill="currentColor"/>
</g>
<a style="color:inherit;" xlink:href="textedit:///home/runner/work/violin-music_private/violin-music_private/tunes/Classical/Mozart_Rondo-Alla-Turca/KV331_3_RondoAllaTurca-Violin.ly:107:13:14">
<g transform="translate(70.3143, 16.1429)">
<path transform="scale(0.0040, -0.0040)" d="M161 32c78 0 97 176 97 178c0 18 -7 33 -25 33c-61 0 -102 -124 -102 -173c0 -22 8 -38 30 -38zM-53 141c0 2 51 151 134 151c35 0 59 -21 66 -52c29 31 67 52 103 52c69 0 107 -49 107 -114c0 -118 -105 -186 -159 -186c-53 0 -70 20 -84 20c-7 0 -14 -3 -16 -9l-29 -86
c-1 -2 -1 -5 -1 -7c0 -37 57 -18 57 -42c0 -7 -4 -14 -13 -14c-3 0 -50 5 -116 5s-112 -5 -115 -5c-9 0 -14 7 -14 14c0 31 87 -1 102 41l102 300c2 7 4 14 4 20c0 8 -2 14 -11 14c-33 0 -63 -60 -79 -97c-5 -12 -15 -17 -24 -17c-8 0 -14 4 -14 12z" fill="currentColor"/>
</g>
</a>
<a style="color:inherit;" xlink:href="textedit:///home/runner/work/violin-music_private/violin-music_private/tunes/Classical/Mozart_Rondo-Alla-Turca/KV331_3_RondoAllaTurca-Violin.ly:107:8:9">
<g transform="translate(70.3963, 7.6648)">
<path transform="scale(0.0040, -0.0040)" d="M218 136c66 0 108 -36 108 -89c0 -89 -113 -183 -218 -183c-66 0 -108 36 -108 89c0 89 113 183 218 183z" fill="currentColor"/>
</g>
</a>
<a style="color:inherit;" xlink:href="textedit:///home/runner/work/violin-music_private/violin-music_private/tunes/Classical/Mozart_Rondo-Alla-Turca/KV331_3_RondoAllaTurca-Violin.ly:108:20:21">
<g transform="translate(110.0582, 10.4148)">
<path transform="scale(0.0040, -0.0040)" d="M218 136c66 0 108 -36 108 -89c0 -89 -113 -183 -218 -183c-66 0 -108 36 -108 89c0 89 113 183 218 183z" fill="currentColor"/>
</g>
</a>
<g transform="translate(111.8628, 12.0648)">
<rect x="-0.0650" y="-0.3639" width="0.1300" height="3.4499" ry="0.0400" fill="currentColor"/>
</g>
<a style="color:inherit;" xlink:href="textedit:///home/runner/work/violin-music_private/violin-music_private/tunes/Classical/Mozart_Rondo-Alla-Turca/KV331_3_RondoAllaTurca-Violin.ly:108:23:24">
<g transform="translate(111.7978, 11.5148)">
<path transform="scale(0.0040, -0.0040)" d="M218 136c66 0 108 -36 108 -89c0 -89 -113 -183 -218 -183c-66 0 -108 36 -108 89c0 89 113 183 218 183z" fill="currentColor"/>
</g>
</a>
<g transform="translate(110.1232, 12.0648)">
<rect x="-0.0650" y="-1.4639" width="0.1300" height="4.5499" ry="0.0400" fill="currentColor"/>
</g>
<g transform="translate(106.6185, 10.9648)">
<path transform="scale(0.0040, -0.0040)" d="M0 119c0 8 5 15 13 18l46 17v158c0 10 8 19 18 19s19 -9 19 -19v-145l83 31v158c0 10 9 19 19 19s18 -9 18 -19v-145l32 12c2 1 5 1 7 1c11 0 20 -9 20 -20v-60c0 -8 -5 -16 -13 -19l-46 -16v-160l32 11c2 1 5 1 7 1c11 0 20 -9 20 -20v-60c0 -8 -5 -15 -13 -18l-46 -17
v-158c0 -10 -8 -19 -18 -19s-19 9 -19 19v145l-83 -31v-158c0 -10 -9 -19 -19 -19s-18 9 -18 19v145l-32 -12c-2 -1 -5 -1 -7 -1c-11 0 -20 9 -20 20v60c0 8 5 16 13 19l46 16v160l-32 -11c-2 -1 -5 -1 -7 -1c-11 0 -20 9 -20 20v60zM179 95l-83 -30v-160l83 30v160z" fill="currentColor"/>
</g>
<g transform="translate(108.1335, 12.0648)">
<rect x="-0.0650" y="-0.9139" width="0.1300" height="3.9999" ry="0.0400" fill="currentColor"/>
</g>
<a style="color:inherit;" xlink:href="textedit:///home/runner/work/violin-music_private/violin-music_private/tunes/Classical/Mozart_Rondo-Alla-Turca/KV331_3_RondoAllaTurca-Violin.ly:108:17:18">
<g transform="translate(108.0685, 10.9648)">
<path transform="scale(0.0040, -0.0040)" d="M218 136c66 0 108 -36 108 -89c0 -89 -113 -183 -218 -183c-66 0 -108 36 -108 89c0 89 113 183 218 183z" fill="currentColor"/>
</g>
</a>
<g transform="translate(23.7492, 13.1648)">
<polygon stroke-linejoin="round" stroke-linecap="round" stroke-width="0.0800" fill="currentColor" stroke="currentColor" points="6.0590 -1.1100 6.0590 -0.6620 0.0400 0.2240 0.0400 -0.2240"/>
</g>
<g transform="translate(23.7492, 14.0508)">
<polygon stroke-linejoin="round" stroke-linecap="round" stroke-width="0.0800" fill="currentColor" stroke="currentColor" points="6.0590 -1.1100 6.0590 -0.6620 0.0400 0.2240 0.0400 -0.2240"/>
</g>
<g transform="translate(97.4557, 13.1648)">
<polygon stroke-linejoin="round" stroke-linecap="round" stroke-width="0.0800" fill="currentColor" stroke="currentColor" points="5.8090 -0.2240 5.8090 0.2240 0.0400 0.2240 0.0400 -0.2240"/>
</g>
<g transform="translate(97.4557, 14.0508)">
<polygon stroke-linejoin="round" stroke-linecap="round" stroke-width="0.0800" fill="currentColor" stroke="currentColor" points="5.8090 -0.2240 5.8090 0.2240 0.0400 0.2240 0.0400 -0.2240"/>
</g>
<g transform="translate(87.2449, 12.2788)">
<polygon stroke-linejoin="round" stroke-linecap="round" stroke-width="0.0800" fill="currentColor" stroke="currentColor" points="6.3090 -0.2240 6.3090 0.2240 0.0400 0.2240 0.0400 -0.2240"/>
</g>
<g transform="translate(87.2449, 13.1648)">
<polygon stroke-linejoin="round" stroke-linecap="round" stroke-width="0.0800" fill="currentColor" stroke="currentColor" points="6.3090 -0.2240 6.3090 0.2240 0.0400 0.2240 0.0400 -0.2240"/>
</g>
<g transform="translate(79.2863, 12.0648)">
<polygon stroke-linejoin="round" stroke-linecap="round" stroke-width="0.0800" fill="currentColor" stroke="currentColor" points="6.0590 -0.0100 6.0590 0.4380 0.0400 0.2240 0.0400 -0.2240"/>
</g>
<g transform="translate(79.2863, 12.9508)">
<polygon stroke-linejoin="round" stroke-linecap="round" stroke-width="0.0800" fill="currentColor" stroke="currentColor" points="6.0590 -0.0100 6.0590 0.4380 0.0400 0.2240 0.0400 -0.2240"/>
</g>
<g transform="translate(70.3963, 11.1788)">
<polygon stroke-linejoin="round" stroke-linecap="round" stroke-width="0.0800" fill="currentColor" stroke="currentColor" points="6.0590 -0.2240 6.0590 0.2240 0.0400 0.2240 0.0400 -0.2240"/>
</g>
<g transform="translate(70.3963, 12.0648)">
<polygon stroke-linejoin="round" stroke-linecap="round" stroke-width="0.0800" fill="currentColor" stroke="currentColor" points="6.0590 -0.2240 6.0590 0.2240 0.0400 0.2240 0.0400 -0.2240"/>
</g>
<a style="color:inherit;" xlink:href="textedit:///home/runner/work/violin-music_private/violin-music_private/tunes/Classical/Mozart_Rondo-Alla-Turca/KV331_3_RondoAllaTurca-Violin.ly:107:15:16">
<g transform="translate(70.3963, 12.0648)">
<path stroke-width="0.0800" stroke-linejoin="round" stroke-linecap="round" stroke="currentColor" fill="currentColor" d="M0.6924 -6.0450C4.1832 -7.8018 38.9869 -4.5653 42.0939 -2.1950L42.0939 -2.1950C38.9758 -4.4458 4.1721 -7.6823 0.6924 -6.0450z"/>
</g>
</a>
<g transform="translate(57.6108, 15.0288)">
<polygon stroke-linejoin="round" stroke-linecap="round" stroke-width="0.0800" fill="currentColor" stroke="currentColor" points="6.3090 -0.2240 6.3090 0.2240 0.0400 0.2240 0.0400 -0.2240"/>
</g>
<g transform="translate(57.6108, 15.9148)">
<polygon stroke-linejoin="round" stroke-linecap="round" stroke-width="0.0800" fill="currentColor" stroke="currentColor" points="6.3090 -0.2240 6.3090 0.2240 0.0400 0.2240 0.0400 -0.2240"/>
</g>
<g transform="translate(49.4021, 14.2648)">
<polygon stroke-linejoin="round" stroke-linecap="round" stroke-width="0.0800" fill="currentColor" stroke="currentColor" points="6.3090 -0.2240 6.3090 0.2240 0.0400 0.2240 0.0400 -0.2240"/>
</g>
<g transform="translate(49.4021, 15.1508)">
<polygon stroke-linejoin="round" stroke-linecap="round" stroke-width="0.0800" fill="currentColor" stroke="currentColor" points="6.3090 -0.2240 6.3090 0.2240 0.0400 0.2240 0.0400 -0.2240"/>
</g>
<a style="color:inherit;" xlink:href="textedit:///home/runner/work/violin-music_private/violin-music_private/tunes/Classical/Mozart_Rondo-Alla-Turca/KV331_3_RondoAllaTurca-Violin.ly:106:9:10">
<g transform="translate(53.3815, 12.0648)">
<path stroke-width="0.0800" stroke-linejoin="round" stroke-linecap="round" stroke="currentColor" fill="currentColor" d="M0.6521 -1.1487C2.8365 -3.0704 11.9155 -3.0704 14.0999 -1.1487L14.0999 -1.1487C11.9155 -2.9504 2.8365 -2.9504 0.6521 -1.1487z"/>
</g>
</a>
<g transform="translate(40.5421, 13.3788)">
<polygon stroke-linejoin="round" stroke-linecap="round" stroke-width="0.0800" fill="currentColor" stroke="currentColor" points="6.0590 0.6620 6.0590 1.1100 0.0400 0.2240 0.0400 -0.2240"/>
</g>
<g transform="translate(40.5421, 14.2648)">
<polygon stroke-linejoin="round" stroke-linecap="round" stroke-width="0.0800" fill="currentColor" stroke="currentColor" points="6.0590 0.6620 6.0590 1.1100 0.0400 0.2240 0.0400 -0.2240"/>
</g>
<g transform="translate(32.5835, 12.2788)">
<polygon stroke-linejoin="round" stroke-linecap="round" stroke-width="0.0800" fill="currentColor" stroke="currentColor" points="6.0590 0.6620 6.0590 1.1100 0.0400 0.2240 0.0400 -0.2240"/>
</g>
<g transform="translate(32.5835, 13.1648)">
<polygon stroke-linejoin="round" stroke-linecap="round" stroke-width="0.0800" fill="currentColor" stroke="currentColor" points="6.0590 0.6620 6.0590 1.1100 0.0400 0.2240 0.0400 -0.2240"/>
</g>
<a style="color:inherit;" xlink:href="textedit:///home/runner/work/violin-music_private/violin-music_private/tunes/Classical/Mozart_Rondo-Alla-Turca/KV331_3_RondoAllaTurca-Violin.ly:105:24:25">
<g transform="translate(40.5421, 12.0648)">
<path stroke-width="0.0800" stroke-linejoin="round" stroke-linecap="round" stroke="currentColor" fill="currentColor" d="M0.7571 -2.7450C2.3799 -3.6039 5.6948 -2.7792 6.7261 -1.2600L6.7261 -1.2600C5.6659 -2.6628 2.3510 -3.4875 0.7571 -2.7450z"/>
</g>
</a>
<a style="color:inherit;" xlink:href="textedit:///home/runner/work/violin-music_private/violin-music_private/tunes/Classical/Mozart_Rondo-Alla-Turca/KV331_3_RondoAllaTurca-Violin.ly:105:10:11">
<g transform="translate(32.5835, 12.0648)">
<path stroke-width="0.0800" stroke-linejoin="round" stroke-linecap="round" stroke="currentColor" fill="currentColor" d="M0.7679 -4.3950C2.4199 -5.2145 5.7404 -4.2967 6.7369 -2.7450L6.7369 -2.7450C5.7084 -4.1810 2.3879 -5.0989 0.7679 -4.3950z"/>
</g>
</a>
<g transform="translate(15.7906, 15.3648)">
<polygon stroke-linejoin="round" stroke-linecap="round" stroke-width="0.0800" fill="currentColor" stroke="currentColor" points="6.0590 -1.1100 6.0590 -0.6620 0.0400 0.2240 0.0400 -0.2240"/>
</g>
<g transform="translate(15.7906, 16.2508)">
<polygon stroke-linejoin="round" stroke-linecap="round" stroke-width="0.0800" fill="currentColor" stroke="currentColor" points="6.0590 -1.1100 6.0590 -0.6620 0.0400 0.2240 0.0400 -0.2240"/>
</g>
<a style="color:inherit;" xlink:href="textedit:///home/runner/work/violin-music_private/violin-music_private/tunes/Classical/Mozart_Rondo-Alla-Turca/KV331_3_RondoAllaTurca-Violin.ly:104:3:4">
<g transform="translate(15.7906, 12.0648)">
<path stroke-width="0.0800" stroke-linejoin="round" stroke-linecap="round" stroke="currentColor" fill="currentColor" d="M0.5363 -0.5450C2.2538 -2.8271 11.8182 -5.4710 14.4639 -4.3950L14.4639 -4.3950C11.8501 -5.3553 2.2857 -2.7114 0.5363 -0.5450z"/>
</g>
</a>
<a style="color:inherit;" xlink:href="textedit:///home/runner/work/violin-music_private/violin-music_private/tunes/Classical/Mozart_Rondo-Alla-Turca/KV331_3_RondoAllaTurca-Violin.ly:108:2:3">
<g transform="translate(97.4557, 10.4148)">
<path transform="scale(0.0040, -0.0040)" d="M218 136c66 0 108 -36 108 -89c0 -89 -113 -183 -218 -183c-66 0 -108 36 -108 89c0 89 113 183 218 183z" fill="currentColor"/>
</g>
</a>
<g transform="translate(96.0057, 10.4148)">
<path transform="scale(0.0040, -0.0040)" d="M0 119c0 8 5 15 13 18l46 17v158c0 10 8 19 18 19s19 -9 19 -19v-145l83 31v158c0 10 9 19 19 19s18 -9 18 -19v-145l32 12c2 1 5 1 7 1c11 0 20 -9 20 -20v-60c0 -8 -5 -16 -13 -19l-46 -16v-160l32 11c2 1 5 1 7 1c11 0 20 -9 20 -20v-60c0 -8 -5 -15 -13 -18l-46 -17
v-158c0 -10 -8 -19 -18 -19s-19 9 -19 19v145l-83 -31v-158c0 -10 -9 -19 -19 -19s-18 9 -18 19v145l-32 -12c-2 -1 -5 -1 -7 -1c-11 0 -20 9 -20 20v60c0 8 5 16 13 19l46 16v160l-32 -11c-2 -1 -5 -1 -7 -1c-11 0 -20 9 -20 20v60zM179 95l-83 -30v-160l83 30v160z" fill="currentColor"/>
</g>
<g transform="translate(97.5207, 12.0648)">
<rect x="-0.0650" y="-1.4639" width="0.1300" height="3.4499" ry="0.0400" fill="currentColor"/>
</g>
<g transform="translate(93.5289, 12.0648)">
<rect x="-0.0650" y="-2.0139" width="0.1300" height="3.1139" ry="0.0400" fill="currentColor"/>
</g>
<a style="color:inherit;" xlink:href="textedit:///home/runner/work/violin-music_private/violin-music_private/tunes/Classical/Mozart_Rondo-Alla-Turca/KV331_3_RondoAllaTurca-Violin.ly:107:41:42">
<g transform="translate(93.4639, 9.8648)">
<path transform="scale(0.0040, -0.0040)" d="M218 136c66 0 108 -36 108 -89c0 -89 -113 -183 -218 -183c-66 0 -108 36 -108 89c0 89 113 183 218 183z" fill="currentColor"/>
</g>
</a>
<g transform="translate(91.5393, 12.0648)">
<rect x="-0.0650" y="-2.5639" width="0.1300" height="3.6639" ry="0.0400" fill="currentColor"/>
</g>
<g transform="translate(101.5000, 12.0648)">
<rect x="-0.0650" y="-2.5639" width="0.1300" height="4.5499" ry="0.0400" fill="currentColor"/>
</g>
<g transform="translate(104.9793, 12.0648)">
<rect x="-0.0650" y="-0.3639" width="0.1300" height="3.4499" ry="0.0400" fill="currentColor"/>
</g>
<a style="color:inherit;" xlink:href="textedit:///home/runner/work/violin-music_private/violin-music_private/tunes/Classical/Mozart_Rondo-Alla-Turca/KV331_3_RondoAllaTurca-Violin.ly:108:14:15">
<g transform="translate(104.9143, 11.5148)">
<path transform="scale(0.0040, -0.0040)" d="M218 136c66 0 108 -36 108 -89c0 -89 -113 -183 -218 -183c-66 0 -108 36 -108 89c0 89 113 183 218 183z" fill="currentColor"/>
</g>
</a>
<g transform="translate(103.2396, 12.0648)">
<rect x="-0.0650" y="-1.4639" width="0.1300" height="3.4499" ry="0.0400" fill="currentColor"/>
</g>
<a style="color:inherit;" xlink:href="textedit:///home/runner/work/violin-music_private/violin-music_private/tunes/Classical/Mozart_Rondo-Alla-Turca/KV331_3_RondoAllaTurca-Violin.ly:108:11:12">
<g transform="translate(103.1746, 10.4148)">
<path transform="scale(0.0040, -0.0040)" d="M218 136c66 0 108 -36 108 -89c0 -89 -113 -183 -218 -183c-66 0 -108 36 -108 89c0 89 113 183 218 183z" fill="currentColor"/>
</g>
</a>
<a style="color:inherit;" xlink:href="textedit:///home/runner/work/violin-music_private/violin-music_private/tunes/Classical/Mozart_Rondo-Alla-Turca/KV331_3_RondoAllaTurca-Violin.ly:107:38:39">
<g transform="translate(91.4743, 9.3148)">
<path transform="scale(0.0040, -0.0040)" d="M218 136c66 0 108 -36 108 -89c0 -89 -113 -183 -218 -183c-66 0 -108 36 -108 89c0 89 113 183 218 183z" fill="currentColor"/>
</g>
</a>
<a style="color:inherit;" xlink:href="textedit:///home/runner/work/violin-music_private/violin-music_private/tunes/Classical/Mozart_Rondo-Alla-Turca/KV331_3_RondoAllaTurca-Violin.ly:108:8:9">
<g transform="translate(101.4350, 9.3148)">
<path transform="scale(0.0040, -0.0040)" d="M218 136c66 0 108 -36 108 -89c0 -89 -113 -183 -218 -183c-66 0 -108 36 -108 89c0 89 113 183 218 183z" fill="currentColor"/>
</g>
</a>
<g transform="translate(99.5103, 12.0648)">
<rect x="-0.0650" y="-2.0139" width="0.1300" height="3.9999" ry="0.0400" fill="currentColor"/>
</g>
<a style="color:inherit;" xlink:href="textedit:///home/runner/work/violin-music_private/violin-music_private/tunes/Classical/Mozart_Rondo-Alla-Turca/KV331_3_RondoAllaTurca-Violin.ly:108:5:6">
<g transform="translate(99.4453, 9.8648)">
<path transform="scale(0.0040, -0.0040)" d="M218 136c66 0 108 -36 108 -89c0 -89 -113 -183 -218 -183c-66 0 -108 36 -108 89c0 89 113 183 218 183z" fill="currentColor"/>
</g>
</a>
<g transform="translate(32.6485, 12.0648)">
<rect x="-0.0650" y="-3.1139" width="0.1300" height="4.2233" ry="0.0400" fill="currentColor"/>
</g>
<a style="color:inherit;" xlink:href="textedit:///home/runner/work/violin-music_private/violin-music_private/tunes/Classical/Mozart_Rondo-Alla-Turca/KV331_3_RondoAllaTurca-Violin.ly:105:3:4">
<g transform="translate(33.2356, 6.8502)">
<path transform="scale(0.0040, -0.0040)" d="M-173 68c-8 2 -15 9 -15 18c0 10 9 19 19 19c2 0 3 -1 5 -1l337 -86c8 -2 15 -9 15 -18s-7 -16 -15 -18l-337 -86c-2 0 -3 -1 -5 -1c-10 0 -19 9 -19 19c0 9 7 16 15 18l206 53l109 15l-109 15z" fill="currentColor"/>
</g>
</a>
<a style="color:inherit;" xlink:href="textedit:///home/runner/work/violin-music_private/violin-music_private/tunes/Classical/Mozart_Rondo-Alla-Turca/KV331_3_RondoAllaTurca-Violin.ly:105:2:3">
<g transform="translate(32.5835, 8.7648)">
<path transform="scale(0.0040, -0.0040)" d="M218 136c66 0 108 -36 108 -89c0 -89 -113 -183 -218 -183c-66 0 -108 36 -108 89c0 89 113 183 218 183z" fill="currentColor"/>
</g>
</a>
<g transform="translate(29.7832, 12.0648)">
<rect x="-0.0650" y="-3.1139" width="0.1300" height="4.2233" ry="0.0400" fill="currentColor"/>
</g>
<a style="color:inherit;" xlink:href="textedit:///home/runner/work/violin-music_private/violin-music_private/tunes/Classical/Mozart_Rondo-Alla-Turca/KV331_3_RondoAllaTurca-Violin.ly:104:20:21">
<g transform="translate(29.7182, 8.7648)">
<path transform="scale(0.0040, -0.0040)" d="M218 136c66 0 108 -36 108 -89c0 -89 -113 -183 -218 -183c-66 0 -108 36 -108 89c0 89 113 183 218 183z" fill="currentColor"/>
</g>
</a>
<g transform="translate(27.7936, 12.0648)">
<rect x="-0.0650" y="-2.5639" width="0.1300" height="3.9624" ry="0.0400" fill="currentColor"/>
</g>
<a style="color:inherit;" xlink:href="textedit:///home/runner/work/violin-music_private/violin-music_private/tunes/Classical/Mozart_Rondo-Alla-Turca/KV331_3_RondoAllaTurca-Violin.ly:104:17:18">
<g transform="translate(27.7286, 9.3148)">
<path transform="scale(0.0040, -0.0040)" d="M218 136c66 0 108 -36 108 -89c0 -89 -113 -183 -218 -183c-66 0 -108 36 -108 89c0 89 113 183 218 183z" fill="currentColor"/>
</g>
</a>
<g transform="translate(38.6175, 12.0648)">
<rect x="-0.0650" y="-1.4639" width="0.1300" height="3.4405" ry="0.0400" fill="currentColor"/>
</g>
<a style="color:inherit;" xlink:href="textedit:///home/runner/work/violin-music_private/violin-music_private/tunes/Classical/Mozart_Rondo-Alla-Turca/KV331_3_RondoAllaTurca-Violin.ly:105:18:19">
<g transform="translate(38.5525, 10.4148)">
<path transform="scale(0.0040, -0.0040)" d="M218 136c66 0 108 -36 108 -89c0 -89 -113 -183 -218 -183c-66 0 -108 36 -108 89c0 89 113 183 218 183z" fill="currentColor"/>
</g>
</a>
<a style="color:inherit;" xlink:href="textedit:///home/runner/work/violin-music_private/violin-music_private/tunes/Classical/Mozart_Rondo-Alla-Turca/KV331_3_RondoAllaTurca-Violin.ly:105:15:16">
<g transform="translate(36.5628, 9.8648)">
<path transform="scale(0.0040, -0.0040)" d="M218 136c66 0 108 -36 108 -89c0 -89 -113 -183 -218 -183c-66 0 -108 36 -108 89c0 89 113 183 218 183z" fill="currentColor"/>
</g>
</a>
<g transform="translate(34.6382, 12.0648)">
<rect x="-0.0650" y="-2.5639" width="0.1300" height="3.9624" ry="0.0400" fill="currentColor"/>
</g>
<a style="color:inherit;" xlink:href="textedit:///home/runner/work/violin-music_private/violin-music_private/tunes/Classical/Mozart_Rondo-Alla-Turca/KV331_3_RondoAllaTurca-Violin.ly:105:12:13">
<g transform="translate(34.5732, 9.3148)">
<path transform="scale(0.0040, -0.0040)" d="M218 136c66 0 108 -36 108 -89c0 -89 -113 -183 -218 -183c-66 0 -108 36 -108 89c0 89 113 183 218 183z" fill="currentColor"/>
</g>
</a>
<a style="color:inherit;" xlink:href="textedit:///home/runner/work/violin-music_private/violin-music_private/tunes/Classical/Mozart_Rondo-Alla-Turca/KV331_3_RondoAllaTurca-Violin.ly:104:5:6">
<g transform="translate(17.7802, 12.0648)">
<path transform="scale(0.0040, -0.0040)" d="M218 136c66 0 108 -36 108 -89c0 -89 -113 -183 -218 -183c-66 0 -108 36 -108 89c0 89 113 183 218 183z" fill="currentColor"/>
</g>
</a>
<g transform="translate(15.8556, 12.0648)">
<rect x="-0.0650" y="0.7361" width="0.1300" height="3.4405" ry="0.0400" fill="currentColor"/>
</g>
<a style="color:inherit;" xlink:href="textedit:///home/runner/work/violin-music_private/violin-music_private/tunes/Classical/Mozart_Rondo-Alla-Turca/KV331_3_RondoAllaTurca-Violin.ly:104:2:3">
<g transform="translate(15.7906, 12.6148)">
<path transform="scale(0.0040, -0.0040)" d="M218 136c66 0 108 -36 108 -89c0 -89 -113 -183 -218 -183c-66 0 -108 36 -108 89c0 89 113 183 218 183z" fill="currentColor"/>
</g>
</a>
<g transform="translate(17.8452, 12.0648)">
<rect x="-0.0650" y="0.1861" width="0.1300" height="3.7014" ry="0.0400" fill="currentColor"/>
</g>
<g transform="translate(3.4371, 8.7901)">
<text font-family="serif" font-size="1.7459" text-anchor="start" fill="currentColor">
<tspan>45</tspan>
</text>
</g>
<g transform="translate(9.9906, 9.8648)">
<path transform="scale(0.0040, -0.0040)" d="M0 119c0 8 5 15 13 18l46 17v158c0 10 8 19 18 19s19 -9 19 -19v-145l83 31v158c0 10 9 19 19 19s18 -9 18 -19v-145l32 12c2 1 5 1 7 1c11 0 20 -9 20 -20v-60c0 -8 -5 -16 -13 -19l-46 -16v-160l32 11c2 1 5 1 7 1c11 0 20 -9 20 -20v-60c0 -8 -5 -15 -13 -18l-46 -17
v-158c0 -10 -8 -19 -18 -19s-19 9 -19 19v145l-83 -31v-158c0 -10 -9 -19 -19 -19s-18 9 -18 19v145l-32 -12c-2 -1 -5 -1 -7 -1c-11 0 -20 9 -20 20v60c0 8 5 16 13 19l46 16v160l-32 -11c-2 -1 -5 -1 -7 -1c-11 0 -20 9 -20 20v60zM179 95l-83 -30v-160l83 30v160z" fill="currentColor"/>
</g>
<g transform="translate(11.0906, 11.5148)">
<path transform="scale(0.0040, -0.0040)" d="M0 119c0 8 5 15 13 18l46 17v158c0 10 8 19 18 19s19 -9 19 -19v-145l83 31v158c0 10 9 19 19 19s18 -9 18 -19v-145l32 12c2 1 5 1 7 1c11 0 20 -9 20 -20v-60c0 -8 -5 -16 -13 -19l-46 -16v-160l32 11c2 1 5 1 7 1c11 0 20 -9 20 -20v-60c0 -8 -5 -15 -13 -18l-46 -17
v-158c0 -10 -8 -19 -18 -19s-19 9 -19 19v145l-83 -31v-158c0 -10 -9 -19 -19 -19s-18 9 -18 19v145l-32 -12c-2 -1 -5 -1 -7 -1c-11 0 -20 9 -20 20v60c0 8 5 16 13 19l46 16v160l-32 -11c-2 -1 -5 -1 -7 -1c-11 0 -20 9 -20 20v60zM179 95l-83 -30v-160l83 30v160z" fill="currentColor"/>
</g>
<g transform="translate(12.1906, 9.3148)">
<path transform="scale(0.0040, -0.0040)" d="M0 119c0 8 5 15 13 18l46 17v158c0 10 8 19 18 19s19 -9 19 -19v-145l83 31v158c0 10 9 19 19 19s18 -9 18 -19v-145l32 12c2 1 5 1 7 1c11 0 20 -9 20 -20v-60c0 -8 -5 -16 -13 -19l-46 -16v-160l32 11c2 1 5 1 7 1c11 0 20 -9 20 -20v-60c0 -8 -5 -15 -13 -18l-46 -17
v-158c0 -10 -8 -19 -18 -19s-19 9 -19 19v145l-83 -31v-158c0 -10 -9 -19 -19 -19s-18 9 -18 19v145l-32 -12c-2 -1 -5 -1 -7 -1c-11 0 -20 9 -20 20v60c0 8 5 16 13 19l46 16v160l-32 -11c-2 -1 -5 -1 -7 -1c-11 0 -20 9 -20 20v60zM179 95l-83 -30v-160l83 30v160z" fill="currentColor"/>
</g>
<g transform="translate(6.4906, 13.1648)">
<path transform="scale(0.0040, -0.0040)" d="M266 -635h-6c-108 0 -195 88 -195 197c0 58 53 103 112 103c54 0 95 -47 95 -103c0 -52 -43 -95 -95 -95c-11 0 -21 2 -31 6c26 -39 68 -65 117 -65h4zM461 -203c68 24 113 90 113 164c0 90 -66 179 -173 190c19 -89 48 -242 60 -354zM74 28c0 -145 141 -247 264 -247
c1 0 47 0 82 6c-7 64 -29 203 -63 364c-79 -8 -124 -61 -124 -119c0 -44 25 -91 81 -123c5 -5 7 -10 7 -15c0 -11 -10 -22 -22 -22c-15 0 -126 62 -126 187c0 88 58 174 160 197c-14 58 -29 117 -46 175c-107 -121 -213 -243 -213 -403zM250 553c-29 96 -52 170 -52 346
c0 115 55 224 149 292c6 5 14 5 20 0c68 -80 133 -245 133 -358c0 -143 -86 -255 -180 -364c21 -68 39 -138 56 -207c2 0 7 1 13 1c155 0 256 -128 256 -261c0 -113 -74 -212 -180 -246c3 -35 5 -70 5 -105c0 -19 -1 -39 -2 -58c-7 -119 -88 -225 -202 -228l1 43
c93 2 153 92 159 191c1 18 2 37 2 55c0 31 -1 61 -4 92c-5 -1 -44 -8 -89 -8c-193 0 -333 180 -333 374c0 177 131 306 248 441zM428 916c0 34 1 66 -20 129c-99 -48 -162 -149 -162 -259c0 -52 12 -115 36 -194c80 97 146 198 146 324z" fill="currentColor"/>
</g>
<g transform="translate(21.8246, 12.0648)">
<rect x="-0.0650" y="-0.9139" width="0.1300" height="4.2233" ry="0.0400" fill="currentColor"/>
</g>
<g transform="translate(25.8039, 12.0648)">
<rect x="-0.0650" y="-2.0139" width="0.1300" height="3.7014" ry="0.0400" fill="currentColor"/>
</g>
<a style="color:inherit;" xlink:href="textedit:///home/runner/work/violin-music_private/violin-music_private/tunes/Classical/Mozart_Rondo-Alla-Turca/KV331_3_RondoAllaTurca-Violin.ly:104:14:15">
<g transform="translate(25.7389, 9.8648)">
<path transform="scale(0.0040, -0.0040)" d="M218 136c66 0 108 -36 108 -89c0 -89 -113 -183 -218 -183c-66 0 -108 36 -108 89c0 89 113 183 218 183z" fill="currentColor"/>
</g>
</a>
<g transform="translate(23.8142, 12.0648)">
<rect x="-0.0650" y="-1.4639" width="0.1300" height="3.4405" ry="0.0400" fill="currentColor"/>
</g>
<a style="color:inherit;" xlink:href="textedit:///home/runner/work/violin-music_private/violin-music_private/tunes/Classical/Mozart_Rondo-Alla-Turca/KV331_3_RondoAllaTurca-Violin.ly:104:12:13">
<g transform="translate(23.7492, 10.4148)">
<path transform="scale(0.0040, -0.0040)" d="M218 136c66 0 108 -36 108 -89c0 -89 -113 -183 -218 -183c-66 0 -108 36 -108 89c0 89 113 183 218 183z" fill="currentColor"/>
</g>
</a>
<g transform="translate(36.6278, 12.0648)">
<rect x="-0.0650" y="-2.0139" width="0.1300" height="3.7014" ry="0.0400" fill="currentColor"/>
</g>
<a style="color:inherit;" xlink:href="textedit:///home/runner/work/violin-music_private/violin-music_private/tunes/Classical/Mozart_Rondo-Alla-Turca/KV331_3_RondoAllaTurca-Violin.ly:104:10:11">
<g transform="translate(21.7596, 10.9648)">
<path transform="scale(0.0040, -0.0040)" d="M218 136c66 0 108 -36 108 -89c0 -89 -113 -183 -218 -183c-66 0 -108 36 -108 89c0 89 113 183 218 183z" fill="currentColor"/>
</g>
</a>
<g transform="translate(19.8349, 12.0648)">
<rect x="-0.0650" y="-0.3639" width="0.1300" height="3.9624" ry="0.0400" fill="currentColor"/>
</g>
<a style="color:inherit;" xlink:href="textedit:///home/runner/work/violin-music_private/violin-music_private/tunes/Classical/Mozart_Rondo-Alla-Turca/KV331_3_RondoAllaTurca-Violin.ly:104:7:8">
<g transform="translate(19.7699, 11.5148)">
<path transform="scale(0.0040, -0.0040)" d="M218 136c66 0 108 -36 108 -89c0 -89 -113 -183 -218 -183c-66 0 -108 36 -108 89c0 89 113 183 218 183z" fill="currentColor"/>
</g>
</a>
<a style="color:inherit;" xlink:href="textedit:///home/runner/work/violin-music_private/violin-music_private/tunes/Classical/Mozart_Rondo-Alla-Turca/KV331_3_RondoAllaTurca-Violin.ly:106:16:17">
<g transform="translate(57.6108, 12.0648)">
<path transform="scale(0.0040, -0.0040)" d="M218 136c66 0 108 -36 108 -89c0 -89 -113 -183 -218 -183c-66 0 -108 36 -108 89c0 89 113 183 218 183z" fill="currentColor"/>
</g>
</a>
<g transform="translate(57.6758, 12.0648)">
<rect x="-0.0650" y="0.1861" width="0.1300" height="3.6639" ry="0.0400" fill="currentColor"/>
</g>
<g transform="translate(49.4671, 12.0648)">
<rect x="-0.0650" y="-0.3639" width="0.1300" height="3.4499" ry="0.0400" fill="currentColor"/>
</g>
<g transform="translate(53.4465, 12.0648)">
<rect x="-0.0650" y="0.7361" width="0.1300" height="2.3499" ry="0.0400" fill="currentColor"/>
</g>
<a style="color:inherit;" xlink:href="textedit:///home/runner/work/violin-music_private/violin-music_private/tunes/Classical/Mozart_Rondo-Alla-Turca/KV331_3_RondoAllaTurca-Violin.ly:106:7:8">
<g transform="translate(53.3815, 12.6148)">
<path transform="scale(0.0040, -0.0040)" d="M218 136c66 0 108 -36 108 -89c0 -89 -113 -183 -218 -183c-66 0 -108 36 -108 89c0 89 113 183 218 183z" fill="currentColor"/>
</g>
</a>
<a style="color:inherit;" xlink:href="textedit:///home/runner/work/violin-music_private/violin-music_private/tunes/Classical/Mozart_Rondo-Alla-Turca/KV331_3_RondoAllaTurca-Violin.ly:106:2:3">
<g transform="translate(49.4021, 11.5148)">
<path transform="scale(0.0040, -0.0040)" d="M218 136c66 0 108 -36 108 -89c0 -89 -113 -183 -218 -183c-66 0 -108 36 -108 89c0 89 113 183 218 183z" fill="currentColor"/>
</g>
</a>
<a style="color:inherit;" xlink:href="textedit:///home/runner/work/violin-music_private/violin-music_private/tunes/Classical/Mozart_Rondo-Alla-Turca/KV331_3_RondoAllaTurca-Violin.ly:106:11:12">
<g transform="translate(55.6211, 11.5148)">
<path transform="scale(0.0040, -0.0040)" d="M218 136c66 0 108 -36 108 -89c0 -89 -113 -183 -218 -183c-66 0 -108 36 -108 89c0 89 113 183 218 183z" fill="currentColor"/>
</g>
</a>
<g transform="translate(51.7068, 12.0648)">
<rect x="-0.0650" y="-1.4639" width="0.1300" height="4.5499" ry="0.0400" fill="currentColor"/>
</g>
<a style="color:inherit;" xlink:href="textedit:///home/runner/work/violin-music_private/violin-music_private/tunes/Classical/Mozart_Rondo-Alla-Turca/KV331_3_RondoAllaTurca-Violin.ly:106:5:6">
<g transform="translate(51.6418, 10.4148)">
<path transform="scale(0.0040, -0.0040)" d="M218 136c66 0 108 -36 108 -89c0 -89 -113 -183 -218 -183c-66 0 -108 36 -108 89c0 89 113 183 218 183z" fill="currentColor"/>
</g>
</a>
<a style="color:inherit;" xlink:href="textedit:///home/runner/work/violin-music_private/violin-music_private/tunes/Classical/Mozart_Rondo-Alla-Turca/KV331_3_RondoAllaTurca-Violin.ly:106:13:14">
<g transform="translate(55.8465, 9.2648)">
<path transform="scale(0.0022, -0.0022)" d="M94 66c-60 0 -39 -66 -72 -66c-11 0 -22 7 -22 21c0 154 232 162 232 334c0 50 -17 102 -61 102c-33 0 -66 -14 -66 -44c0 -24 31 -37 31 -61c0 -34 -27 -61 -61 -61s-61 27 -61 61c0 84 72 148 157 148c98 0 190 -55 190 -145c0 -140 -131 -154 -225 -205
c85 -2 113 -61 165 -61c45 0 28 41 57 41c11 0 22 -8 22 -21c0 -29 -48 -109 -144 -109c-92 0 -96 66 -142 66z" fill="currentColor"/>
</g>
</a>
<g transform="translate(55.6861, 12.0648)">
<rect x="-0.0650" y="-0.3639" width="0.1300" height="3.4499" ry="0.0400" fill="currentColor"/>
</g>
<g transform="translate(42.5968, 12.0648)">
<rect x="-0.0650" y="-0.9139" width="0.1300" height="3.4124" ry="0.0400" fill="currentColor"/>
</g>
<a style="color:inherit;" xlink:href="textedit:///home/runner/work/violin-music_private/violin-music_private/tunes/Classical/Mozart_Rondo-Alla-Turca/KV331_3_RondoAllaTurca-Violin.ly:105:26:27">
<g transform="translate(42.5318, 10.9648)">
<path transform="scale(0.0040, -0.0040)" d="M218 136c66 0 108 -36 108 -89c0 -89 -113 -183 -218 -183c-66 0 -108 36 -108 89c0 89 113 183 218 183z" fill="currentColor"/>
</g>
</a>
<a style="color:inherit;" xlink:href="textedit:///home/runner/work/violin-music_private/violin-music_private/tunes/Classical/Mozart_Rondo-Alla-Turca/KV331_3_RondoAllaTurca-Violin.ly:106:20:21">
<g transform="translate(61.5901, 13.1648)">
<path transform="scale(0.0040, -0.0040)" d="M218 136c66 0 108 -36 108 -89c0 -89 -113 -183 -218 -183c-66 0 -108 36 -108 89c0 89 113 183 218 183z" fill="currentColor"/>
</g>
</a>
<a style="color:inherit;" xlink:href="textedit:///home/runner/work/violin-music_private/violin-music_private/tunes/Classical/Mozart_Rondo-Alla-Turca/KV331_3_RondoAllaTurca-Violin.ly:106:23:24">
<g transform="translate(61.8154, 9.2648)">
<path transform="scale(0.0022, -0.0022)" d="M94 66c-60 0 -39 -66 -72 -66c-11 0 -22 7 -22 21c0 154 232 162 232 334c0 50 -17 102 -61 102c-33 0 -66 -14 -66 -44c0 -24 31 -37 31 -61c0 -34 -27 -61 -61 -61s-61 27 -61 61c0 84 72 148 157 148c98 0 190 -55 190 -145c0 -140 -131 -154 -225 -205
c85 -2 113 -61 165 -61c45 0 28 41 57 41c11 0 22 -8 22 -21c0 -29 -48 -109 -144 -109c-92 0 -96 66 -142 66z" fill="currentColor"/>
</g>
</a>
<g transform="translate(40.6071, 12.0648)">
<rect x="-0.0650" y="-1.4639" width="0.1300" height="3.6733" ry="0.0400" fill="currentColor"/>
</g>
<a style="color:inherit;" xlink:href="textedit:///home/runner/work/violin-music_private/violin-music_private/tunes/Classical/Mozart_Rondo-Alla-Turca/KV331_3_RondoAllaTurca-Violin.ly:105:22:23">
<g transform="translate(40.7333, 8.9770)">
<path transform="scale(0.0022, -0.0022)" d="M148 501c10 0 41 -15 72 -15c32 0 63 15 76 15c15 0 26 -11 26 -21c0 -4 -1 -7 -4 -10l-264 -291h134v4c0 60 50 41 75 85c7 11 8 24 14 36c3 7 10 10 17 10c11 0 24 -8 24 -25v-110h70c18 0 27 -14 27 -27s-9 -27 -27 -27h-70c2 -45 36 -82 80 -82c14 0 22 -10 22 -21
s-8 -22 -22 -22c-49 0 -96 14 -145 14s-97 -14 -146 -14c-14 0 -21 11 -21 22s7 21 21 21c44 0 79 37 81 82h-134c-43 0 -57 25 -57 42c0 5 1 10 3 12c73 81 123 182 123 291c0 17 11 31 25 31z" fill="currentColor"/>
</g>
</a>
<a style="color:inherit;" xlink:href="textedit:///home/runner/work/violin-music_private/violin-music_private/tunes/Classical/Mozart_Rondo-Alla-Turca/KV331_3_RondoAllaTurca-Violin.ly:105:21:22">
<g transform="translate(40.5421, 10.4148)">
<path transform="scale(0.0040, -0.0040)" d="M218 136c66 0 108 -36 108 -89c0 -89 -113 -183 -218 -183c-66 0 -108 36 -108 89c0 89 113 183 218 183z" fill="currentColor"/>
</g>
</a>
<g transform="translate(61.6551, 12.0648)">
<rect x="-0.0650" y="1.2861" width="0.1300" height="2.5639" ry="0.0400" fill="currentColor"/>
</g>
<g transform="translate(46.5761, 12.0648)">
<rect x="-0.0650" y="0.1861" width="0.1300" height="2.8905" ry="0.0400" fill="currentColor"/>
</g>
<a style="color:inherit;" xlink:href="textedit:///home/runner/work/violin-music_private/violin-music_private/tunes/Classical/Mozart_Rondo-Alla-Turca/KV331_3_RondoAllaTurca-Violin.ly:105:31:32">
<g transform="translate(46.5111, 12.0648)">
<path transform="scale(0.0040, -0.0040)" d="M218 136c66 0 108 -36 108 -89c0 -89 -113 -183 -218 -183c-66 0 -108 36 -108 89c0 89 113 183 218 183z" fill="currentColor"/>
</g>
</a>
<g transform="translate(59.9155, 12.0648)">
<rect x="-0.0650" y="-0.9139" width="0.1300" height="4.7639" ry="0.0400" fill="currentColor"/>
</g>
<a style="color:inherit;" xlink:href="textedit:///home/runner/work/violin-music_private/violin-music_private/tunes/Classical/Mozart_Rondo-Alla-Turca/KV331_3_RondoAllaTurca-Violin.ly:105:28:29">
<g transform="translate(44.5215, 11.5148)">
<path transform="scale(0.0040, -0.0040)" d="M218 136c66 0 108 -36 108 -89c0 -89 -113 -183 -218 -183c-66 0 -108 36 -108 89c0 89 113 183 218 183z" fill="currentColor"/>
</g>
</a>
<g transform="translate(44.5865, 12.0648)">
<rect x="-0.0650" y="-0.3639" width="0.1300" height="3.1514" ry="0.0400" fill="currentColor"/>
</g>
<a style="color:inherit;" xlink:href="textedit:///home/runner/work/violin-music_private/violin-music_private/tunes/Classical/Mozart_Rondo-Alla-Turca/KV331_3_RondoAllaTurca-Violin.ly:106:18:19">
<g transform="translate(59.8505, 10.9648)">
<path transform="scale(0.0040, -0.0040)" d="M218 136c66 0 108 -36 108 -89c0 -89 -113 -183 -218 -183c-66 0 -108 36 -108 89c0 89 113 183 218 183z" fill="currentColor"/>
</g>
</a>
<g transform="translate(53.7086, 28.6316)">
<rect x="0.0000" y="-2.2000" width="0.1900" height="4.4000" ry="0.0000" fill="currentColor"/>
</g>
<g transform="translate(113.2110, 28.6316)">
<rect x="0.0000" y="-2.2000" width="0.6000" height="4.4000" ry="0.0000" fill="currentColor"/>
</g>
<g transform="translate(112.7210, 28.6316)">
<rect x="0.0000" y="-2.2000" width="0.1900" height="4.4000" ry="0.0000" fill="currentColor"/>
</g>
<g transform="translate(71.7287, 28.6316)">
<rect x="0.0000" y="-2.2000" width="0.1900" height="4.4000" ry="0.0000" fill="currentColor"/>
</g>
<g transform="translate(33.6898, 28.6316)">
<rect x="0.0000" y="-2.2000" width="0.1900" height="4.4000" ry="0.0000" fill="currentColor"/>
</g>
<g transform="translate(107.9953, 28.6316)">
<rect x="0.0000" y="-2.2000" width="0.1900" height="4.4000" ry="0.0000" fill="currentColor"/>
</g>
<g transform="translate(89.4588, 28.6316)">
<rect x="0.0000" y="-2.2000" width="0.1900" height="4.4000" ry="0.0000" fill="currentColor"/>
</g>
<g transform="translate(5.6906, 30.8316)">
<line stroke-linejoin="round" stroke-linecap="round" stroke-width="0.1000" stroke="currentColor" x1="0.0500" y1="0" x2="108.0705" y2="0"/>
</g>
<g transform="translate(5.6906, 29.7316)">
<line stroke-linejoin="round" stroke-linecap="round" stroke-width="0.1000" stroke="currentColor" x1="0.0500" y1="0" x2="108.0705" y2="0"/>
</g>
<g transform="translate(5.6906, 28.6316)">
<line stroke-linejoin="round" stroke-linecap="round" stroke-width="0.1000" stroke="currentColor" x1="0.0500" y1="0" x2="108.0705" y2="0"/>
</g>
<g transform="translate(5.6906, 27.5316)">
<line stroke-linejoin="round" stroke-linecap="round" stroke-width="0.1000" stroke="currentColor" x1="0.0500" y1="0" x2="108.0705" y2="0"/>
</g>
<g transform="translate(5.6906, 26.4316)">
<line stroke-linejoin="round" stroke-linecap="round" stroke-width="0.1000" stroke="currentColor" x1="0.0500" y1="0" x2="108.0705" y2="0"/>
</g>
<g transform="translate(5.6906, 24.2316)">
<rect x="88.8772" y="-0.1050" width="1.9563" height="0.2100" ry="0.1050" fill="currentColor"/>
</g>
<g transform="translate(5.6906, 25.3316)">
<rect x="88.8772" y="-0.1050" width="1.9563" height="0.2100" ry="0.1050" fill="currentColor"/>
</g>
<g transform="translate(5.6906, 25.3316)">
<rect x="86.7401" y="-0.1050" width="1.9563" height="0.2100" ry="0.1050" fill="currentColor"/>
</g>
<g transform="translate(5.6906, 25.3316)">
<rect x="84.6031" y="-0.1050" width="1.9563" height="0.2100" ry="0.1050" fill="currentColor"/>
</g>
<g transform="translate(5.6906, 25.3316)">
<rect x="79.6324" y="-0.1050" width="1.9217" height="0.2100" ry="0.1050" fill="currentColor"/>
</g>
<g transform="translate(5.6906, 25.3316)">
<rect x="77.4954" y="-0.1050" width="1.9563" height="0.2100" ry="0.1050" fill="currentColor"/>
</g>
<g transform="translate(5.6906, 25.3316)">
<rect x="73.2213" y="-0.1050" width="1.9563" height="0.2100" ry="0.1050" fill="currentColor"/>
</g>
<g transform="translate(5.6906, 25.3316)">
<rect x="71.0842" y="-0.1050" width="1.9563" height="0.2100" ry="0.1050" fill="currentColor"/>
</g>
<g transform="translate(5.6906, 24.2316)">
<rect x="68.9472" y="-0.1050" width="1.9563" height="0.2100" ry="0.1050" fill="currentColor"/>
</g>
<g transform="translate(5.6906, 25.3316)">
<rect x="68.9472" y="-0.1050" width="1.9563" height="0.2100" ry="0.1050" fill="currentColor"/>
</g>
<g transform="translate(5.6906, 24.2316)">
<rect x="66.8101" y="-0.1050" width="1.9563" height="0.2100" ry="0.1050" fill="currentColor"/>
</g>
<g transform="translate(5.6906, 25.3316)">
<rect x="66.8101" y="-0.1050" width="1.9563" height="0.2100" ry="0.1050" fill="currentColor"/>
</g>
<g transform="translate(5.6906, 24.2316)">
<rect x="63.7179" y="-0.1050" width="1.9563" height="0.2100" ry="0.1050" fill="currentColor"/>
</g>
<g transform="translate(5.6906, 25.3316)">
<rect x="63.7179" y="-0.1050" width="1.9563" height="0.2100" ry="0.1050" fill="currentColor"/>
</g>
<g transform="translate(5.6906, 24.2316)">
<rect x="61.5809" y="-0.1050" width="1.9563" height="0.2100" ry="0.1050" fill="currentColor"/>
</g>
<g transform="translate(5.6906, 25.3316)">
<rect x="61.5809" y="-0.1050" width="1.9563" height="0.2100" ry="0.1050" fill="currentColor"/>
</g>
<g transform="translate(5.6906, 24.2316)">
<rect x="59.4438" y="-0.1050" width="1.9563" height="0.2100" ry="0.1050" fill="currentColor"/>
</g>
<g transform="translate(5.6906, 25.3316)">
<rect x="59.4438" y="-0.1050" width="1.9563" height="0.2100" ry="0.1050" fill="currentColor"/>
</g>
<g transform="translate(5.6906, 24.2316)">
<rect x="57.3068" y="-0.1050" width="1.9563" height="0.2100" ry="0.1050" fill="currentColor"/>
</g>
<g transform="translate(5.6906, 25.3316)">
<rect x="57.3068" y="-0.1050" width="1.9563" height="0.2100" ry="0.1050" fill="currentColor"/>
</g>
<g transform="translate(5.6906, 24.2316)">
<rect x="55.1697" y="-0.1050" width="1.9563" height="0.2100" ry="0.1050" fill="currentColor"/>
</g>
<g transform="translate(5.6906, 25.3316)">
<rect x="55.1697" y="-0.1050" width="1.9563" height="0.2100" ry="0.1050" fill="currentColor"/>
</g>
<g transform="translate(5.6906, 24.2316)">
<rect x="53.0327" y="-0.1050" width="1.9563" height="0.2100" ry="0.1050" fill="currentColor"/>
</g>
<g transform="translate(5.6906, 25.3316)">
<rect x="53.0327" y="-0.1050" width="1.9563" height="0.2100" ry="0.1050" fill="currentColor"/>
</g>
<g transform="translate(5.6906, 24.2316)">
<rect x="50.8956" y="-0.1050" width="1.9563" height="0.2100" ry="0.1050" fill="currentColor"/>
</g>
<g transform="translate(5.6906, 25.3316)">
<rect x="50.8956" y="-0.1050" width="1.9563" height="0.2100" ry="0.1050" fill="currentColor"/>
</g>
<g transform="translate(5.6906, 24.2316)">
<rect x="48.7586" y="-0.1050" width="1.9563" height="0.2100" ry="0.1050" fill="currentColor"/>
</g>
<g transform="translate(5.6906, 25.3316)">
<rect x="48.7586" y="-0.1050" width="1.9563" height="0.2100" ry="0.1050" fill="currentColor"/>
</g>
<g transform="translate(5.6906, 25.3316)">
<rect x="45.8846" y="-0.1050" width="1.8053" height="0.2100" ry="0.1050" fill="currentColor"/>
</g>
<g transform="translate(5.6906, 24.2316)">
<rect x="42.5793" y="-0.1050" width="1.9563" height="0.2100" ry="0.1050" fill="currentColor"/>
</g>
<g transform="translate(5.6906, 25.3316)">
<rect x="42.5793" y="-0.1050" width="1.9563" height="0.2100" ry="0.1050" fill="currentColor"/>
</g>
<g transform="translate(5.6906, 25.3316)">
<rect x="40.4422" y="-0.1050" width="1.9563" height="0.2100" ry="0.1050" fill="currentColor"/>
</g>
<g transform="translate(5.6906, 24.2316)">
<rect x="38.3052" y="-0.1050" width="1.9563" height="0.2100" ry="0.1050" fill="currentColor"/>
</g>
<g transform="translate(5.6906, 25.3316)">
<rect x="38.3052" y="-0.1050" width="1.9563" height="0.2100" ry="0.1050" fill="currentColor"/>
</g>
<g transform="translate(5.6906, 25.3316)">
<rect x="36.1681" y="-0.1050" width="1.9563" height="0.2100" ry="0.1050" fill="currentColor"/>
</g>
<g transform="translate(5.6906, 24.2316)">
<rect x="34.0311" y="-0.1050" width="1.9563" height="0.2100" ry="0.1050" fill="currentColor"/>
</g>
<g transform="translate(5.6906, 25.3316)">
<rect x="34.0311" y="-0.1050" width="1.9563" height="0.2100" ry="0.1050" fill="currentColor"/>
</g>
<g transform="translate(5.6906, 25.3316)">
<rect x="32.0451" y="-0.1050" width="1.8053" height="0.2100" ry="0.1050" fill="currentColor"/>
</g>
<g transform="translate(5.6906, 24.2316)">
<rect x="28.7398" y="-0.1050" width="1.9563" height="0.2100" ry="0.1050" fill="currentColor"/>
</g>
<g transform="translate(5.6906, 25.3316)">
<rect x="28.7398" y="-0.1050" width="1.9563" height="0.2100" ry="0.1050" fill="currentColor"/>
</g>
<g transform="translate(5.6906, 25.3316)">
<rect x="25.7505" y="-0.1050" width="1.9563" height="0.2100" ry="0.1050" fill="currentColor"/>
</g>
<g transform="translate(5.6906, 25.3316)">
<rect x="23.6134" y="-0.1050" width="1.9563" height="0.2100" ry="0.1050" fill="currentColor"/>
</g>
<g transform="translate(5.6906, 25.3316)">
<rect x="19.3393" y="-0.1050" width="1.9563" height="0.2100" ry="0.1050" fill="currentColor"/>
</g>
<g transform="translate(81.4399, 28.6316)">
<rect x="-0.0650" y="-2.5639" width="0.1300" height="3.4499" ry="0.0400" fill="currentColor"/>
</g>
<g transform="translate(83.5770, 28.6316)">
<rect x="-0.0650" y="-3.1139" width="0.1300" height="3.9999" ry="0.0400" fill="currentColor"/>
</g>
<a style="color:inherit;" xlink:href="textedit:///home/runner/work/violin-music_private/violin-music_private/tunes/Classical/Mozart_Rondo-Alla-Turca/KV331_3_RondoAllaTurca-Violin.ly:112:16:17">
<g transform="translate(83.5120, 25.3316)">
<path transform="scale(0.0040, -0.0040)" d="M218 136c66 0 108 -36 108 -89c0 -89 -113 -183 -218 -183c-66 0 -108 36 -108 89c0 89 113 183 218 183z" fill="currentColor"/>
</g>
</a>
<a style="color:inherit;" xlink:href="textedit:///home/runner/work/violin-music_private/violin-music_private/tunes/Classical/Mozart_Rondo-Alla-Turca/KV331_3_RondoAllaTurca-Violin.ly:112:13:14">
<g transform="translate(81.6002, 24.7866)">
<path transform="scale(0.0022, -0.0022)" d="M94 66c-60 0 -39 -66 -72 -66c-11 0 -22 7 -22 21c0 154 232 162 232 334c0 50 -17 102 -61 102c-33 0 -66 -14 -66 -44c0 -24 31 -37 31 -61c0 -34 -27 -61 -61 -61s-61 27 -61 61c0 84 72 148 157 148c98 0 190 -55 190 -145c0 -140 -131 -154 -225 -205
c85 -2 113 -61 165 -61c45 0 28 41 57 41c11 0 22 -8 22 -21c0 -29 -48 -109 -144 -109c-92 0 -96 66 -142 66z" fill="currentColor"/>
</g>
</a>
<a style="color:inherit;" xlink:href="textedit:///home/runner/work/violin-music_private/violin-music_private/tunes/Classical/Mozart_Rondo-Alla-Turca/KV331_3_RondoAllaTurca-Violin.ly:112:11:12">
<g transform="translate(81.3749, 25.8816)">
<path transform="scale(0.0040, -0.0040)" d="M218 136c66 0 108 -36 108 -89c0 -89 -113 -183 -218 -183c-66 0 -108 36 -108 89c0 89 113 183 218 183z" fill="currentColor"/>
</g>
</a>
<g transform="translate(79.3029, 28.6316)">
<rect x="-0.0650" y="-3.1139" width="0.1300" height="3.1118" ry="0.0400" fill="currentColor"/>
</g>
<a style="color:inherit;" xlink:href="textedit:///home/runner/work/violin-music_private/violin-music_private/tunes/Classical/Mozart_Rondo-Alla-Turca/KV331_3_RondoAllaTurca-Violin.ly:112:9:10">
<g transform="translate(79.2379, 25.3316)">
<path transform="scale(0.0040, -0.0040)" d="M218 136c66 0 108 -36 108 -89c0 -89 -113 -183 -218 -183c-66 0 -108 36 -108 89c0 89 113 183 218 183z" fill="currentColor"/>
</g>
</a>
<g transform="translate(63.3884, 28.6316)">
<rect x="-0.0650" y="-4.7639" width="0.1300" height="4.7639" ry="0.0400" fill="currentColor"/>
</g>
<g transform="translate(90.6847, 28.6316)">
<rect x="-0.0650" y="-3.1139" width="0.1300" height="3.1196" ry="0.0400" fill="currentColor"/>
</g>
<a style="color:inherit;" xlink:href="textedit:///home/runner/work/violin-music_private/violin-music_private/tunes/Classical/Mozart_Rondo-Alla-Turca/KV331_3_RondoAllaTurca-Violin.ly:113:3:4">
<g transform="translate(90.5377, 32.7097)">
<path transform="scale(0.0040, -0.0040)" d="M161 32c78 0 97 176 97 178c0 18 -7 33 -25 33c-61 0 -102 -124 -102 -173c0 -22 8 -38 30 -38zM-53 141c0 2 51 151 134 151c35 0 59 -21 66 -52c29 31 67 52 103 52c69 0 107 -49 107 -114c0 -118 -105 -186 -159 -186c-53 0 -70 20 -84 20c-7 0 -14 -3 -16 -9l-29 -86
c-1 -2 -1 -5 -1 -7c0 -37 57 -18 57 -42c0 -7 -4 -14 -13 -14c-3 0 -50 5 -116 5s-112 -5 -115 -5c-9 0 -14 7 -14 14c0 31 87 -1 102 41l102 300c2 7 4 14 4 20c0 8 -2 14 -11 14c-33 0 -63 -60 -79 -97c-5 -12 -15 -17 -24 -17c-8 0 -14 4 -14 12z" fill="currentColor"/>
</g>
</a>
<a style="color:inherit;" xlink:href="textedit:///home/runner/work/violin-music_private/violin-music_private/tunes/Classical/Mozart_Rondo-Alla-Turca/KV331_3_RondoAllaTurca-Violin.ly:113:2:3">
<g transform="translate(90.6197, 25.3316)">
<path transform="scale(0.0040, -0.0040)" d="M218 136c66 0 108 -36 108 -89c0 -89 -113 -183 -218 -183c-66 0 -108 36 -108 89c0 89 113 183 218 183z" fill="currentColor"/>
</g>
</a>
<g transform="translate(87.6011, 28.6316)">
<rect x="-0.0650" y="-2.5639" width="0.1300" height="3.4499" ry="0.0400" fill="currentColor"/>
</g>
<a style="color:inherit;" xlink:href="textedit:///home/runner/work/violin-music_private/violin-music_private/tunes/Classical/Mozart_Rondo-Alla-Turca/KV331_3_RondoAllaTurca-Violin.ly:112:20:21">
<g transform="translate(87.5361, 25.8816)">
<path transform="scale(0.0040, -0.0040)" d="M218 136c66 0 108 -36 108 -89c0 -89 -113 -183 -218 -183c-66 0 -108 36 -108 89c0 89 113 183 218 183z" fill="currentColor"/>
</g>
</a>
<g transform="translate(85.7140, 28.6316)">
<rect x="-0.0650" y="-3.6639" width="0.1300" height="4.5499" ry="0.0400" fill="currentColor"/>
</g>
<a style="color:inherit;" xlink:href="textedit:///home/runner/work/violin-music_private/violin-music_private/tunes/Classical/Mozart_Rondo-Alla-Turca/KV331_3_RondoAllaTurca-Violin.ly:112:18:19">
<g transform="translate(85.6490, 24.7816)">
<path transform="scale(0.0040, -0.0040)" d="M218 136c66 0 108 -36 108 -89c0 -89 -113 -183 -218 -183c-66 0 -108 36 -108 89c0 89 113 183 218 183z" fill="currentColor"/>
</g>
</a>
<a style="color:inherit;" xlink:href="textedit:///home/runner/work/violin-music_private/violin-music_private/tunes/Classical/Mozart_Rondo-Alla-Turca/KV331_3_RondoAllaTurca-Violin.ly:111:24:25">
<g transform="translate(67.5975, 23.6816)">
<path transform="scale(0.0040, -0.0040)" d="M218 136c66 0 108 -36 108 -89c0 -89 -113 -183 -218 -183c-66 0 -108 36 -108 89c0 89 113 183 218 183z" fill="currentColor"/>
</g>
</a>
<g transform="translate(69.7995, 28.6316)">
<rect x="-0.0650" y="-4.2139" width="0.1300" height="4.2139" ry="0.0400" fill="currentColor"/>
</g>
<a style="color:inherit;" xlink:href="textedit:///home/runner/work/violin-music_private/violin-music_private/tunes/Classical/Mozart_Rondo-Alla-Turca/KV331_3_RondoAllaTurca-Violin.ly:111:26:27">
<g transform="translate(69.7345, 24.2316)">
<path transform="scale(0.0040, -0.0040)" d="M218 136c66 0 108 -36 108 -89c0 -89 -113 -183 -218 -183c-66 0 -108 36 -108 89c0 89 113 183 218 183z" fill="currentColor"/>
</g>
</a>
<g transform="translate(67.6625, 28.6316)">
<rect x="-0.0650" y="-4.7639" width="0.1300" height="4.7639" ry="0.0400" fill="currentColor"/>
</g>
<a style="color:inherit;" xlink:href="textedit:///home/runner/work/violin-music_private/violin-music_private/tunes/Classical/Mozart_Rondo-Alla-Turca/KV331_3_RondoAllaTurca-Violin.ly:112:2:3">
<g transform="translate(72.8267, 23.6816)">
<path transform="scale(0.0040, -0.0040)" d="M218 136c66 0 108 -36 108 -89c0 -89 -113 -183 -218 -183c-66 0 -108 36 -108 89c0 89 113 183 218 183z" fill="currentColor"/>
</g>
</a>
<g transform="translate(65.5254, 28.6316)">
<rect x="-0.0650" y="-4.2139" width="0.1300" height="4.2139" ry="0.0400" fill="currentColor"/>
</g>
<a style="color:inherit;" xlink:href="textedit:///home/runner/work/violin-music_private/violin-music_private/tunes/Classical/Mozart_Rondo-Alla-Turca/KV331_3_RondoAllaTurca-Violin.ly:111:21:22">
<g transform="translate(65.4604, 24.2316)">
<path transform="scale(0.0040, -0.0040)" d="M218 136c66 0 108 -36 108 -89c0 -89 -113 -183 -218 -183c-66 0 -108 36 -108 89c0 89 113 183 218 183z" fill="currentColor"/>
</g>
</a>
<g transform="translate(99.9351, 29.7316)">
<polygon stroke-linejoin="round" stroke-linecap="round" stroke-width="0.0800" fill="currentColor" stroke="currentColor" points="6.2511 -0.2240 6.2511 0.2240 0.0400 0.2240 0.0400 -0.2240"/>
</g>
<g transform="translate(99.9351, 30.6176)">
<polygon stroke-linejoin="round" stroke-linecap="round" stroke-width="0.0800" fill="currentColor" stroke="currentColor" points="6.2511 -0.2240 6.2511 0.2240 0.0400 0.2240 0.0400 -0.2240"/>
</g>
<a style="color:inherit;" xlink:href="textedit:///home/runner/work/violin-music_private/violin-music_private/tunes/Classical/Mozart_Rondo-Alla-Turca/KV331_3_RondoAllaTurca-Violin.ly:112:7:8">
<g transform="translate(77.1008, 24.7816)">
<path transform="scale(0.0040, -0.0040)" d="M218 136c66 0 108 -36 108 -89c0 -89 -113 -183 -218 -183c-66 0 -108 36 -108 89c0 89 113 183 218 183z" fill="currentColor"/>
</g>
</a>
<g transform="translate(75.0288, 28.6316)">
<rect x="-0.0650" y="-4.2139" width="0.1300" height="4.0719" ry="0.0400" fill="currentColor"/>
</g>
<a style="color:inherit;" xlink:href="textedit:///home/runner/work/violin-music_private/violin-music_private/tunes/Classical/Mozart_Rondo-Alla-Turca/KV331_3_RondoAllaTurca-Violin.ly:112:4:5">
<g transform="translate(74.9638, 24.2316)">
<path transform="scale(0.0040, -0.0040)" d="M218 136c66 0 108 -36 108 -89c0 -89 -113 -183 -218 -183c-66 0 -108 36 -108 89c0 89 113 183 218 183z" fill="currentColor"/>
</g>
</a>
<g transform="translate(77.1658, 28.6316)">
<rect x="-0.0650" y="-3.6639" width="0.1300" height="3.5919" ry="0.0400" fill="currentColor"/>
</g>
<g transform="translate(72.8917, 28.6316)">
<rect x="-0.0650" y="-4.7639" width="0.1300" height="4.5520" ry="0.0400" fill="currentColor"/>
</g>
<g transform="translate(109.2212, 28.6316)">
<rect x="-0.0650" y="-2.0139" width="0.1300" height="3.6639" ry="0.0400" fill="currentColor"/>
</g>
<a style="color:inherit;" xlink:href="textedit:///home/runner/work/violin-music_private/violin-music_private/tunes/Classical/Mozart_Rondo-Alla-Turca/KV331_3_RondoAllaTurca-Violin.ly:113:33:34">
<g transform="translate(109.8083, 25.5866)">
<path transform="scale(0.0040, -0.0040)" d="M130 -20h-260c-11 0 -20 9 -20 20s9 20 20 20h260c11 0 20 -9 20 -20s-9 -20 -20 -20z" fill="currentColor"/>
</g>
</a>
<a style="color:inherit;" xlink:href="textedit:///home/runner/work/violin-music_private/violin-music_private/tunes/Classical/Mozart_Rondo-Alla-Turca/KV331_3_RondoAllaTurca-Violin.ly:113:29:30">
<g transform="translate(109.1562, 26.4316)">
<path transform="scale(0.0040, -0.0040)" d="M218 136c66 0 108 -36 108 -89c0 -89 -113 -183 -218 -183c-66 0 -108 36 -108 89c0 89 113 183 218 183z" fill="currentColor"/>
</g>
</a>
<g transform="translate(106.1612, 28.6316)">
<rect x="-0.0650" y="-1.4639" width="0.1300" height="3.4499" ry="0.0400" fill="currentColor"/>
</g>
<g transform="translate(34.7564, 27.7456)">
<polygon stroke-linejoin="round" stroke-linecap="round" stroke-width="0.0800" fill="currentColor" stroke="currentColor" points="7.5183 -0.2240 7.5183 0.2240 0.0400 0.2240 0.0400 -0.2240"/>
</g>
<g transform="translate(34.7564, 28.6316)">
<polygon stroke-linejoin="round" stroke-linecap="round" stroke-width="0.0800" fill="currentColor" stroke="currentColor" points="7.5183 -0.2240 7.5183 0.2240 0.0400 0.2240 0.0400 -0.2240"/>
</g>
<g transform="translate(90.6197, 27.7456)">
<polygon stroke-linejoin="round" stroke-linecap="round" stroke-width="0.0800" fill="currentColor" stroke="currentColor" points="6.2511 0.3260 6.2511 0.7740 0.0400 0.2240 0.0400 -0.2240"/>
</g>
<g transform="translate(90.6197, 28.6316)">
<polygon stroke-linejoin="round" stroke-linecap="round" stroke-width="0.0800" fill="currentColor" stroke="currentColor" points="6.2511 0.3260 6.2511 0.7740 0.0400 0.2240 0.0400 -0.2240"/>
</g>
<g transform="translate(81.3749, 28.6316)">
<polygon stroke-linejoin="round" stroke-linecap="round" stroke-width="0.0800" fill="currentColor" stroke="currentColor" points="6.2511 -0.2240 6.2511 0.2240 0.0400 0.2240 0.0400 -0.2240"/>
</g>
<g transform="translate(81.3749, 29.5176)">
<polygon stroke-linejoin="round" stroke-linecap="round" stroke-width="0.0800" fill="currentColor" stroke="currentColor" points="6.2511 -0.2240 6.2511 0.2240 0.0400 0.2240 0.0400 -0.2240"/>
</g>
<g transform="translate(72.8267, 27.5316)">
<polygon stroke-linejoin="round" stroke-linecap="round" stroke-width="0.0800" fill="currentColor" stroke="currentColor" points="6.5011 -0.0100 6.5011 0.4380 0.0400 0.2240 0.0400 -0.2240"/>
</g>
<g transform="translate(72.8267, 28.4176)">
<polygon stroke-linejoin="round" stroke-linecap="round" stroke-width="0.0800" fill="currentColor" stroke="currentColor" points="6.5011 -0.0100 6.5011 0.4380 0.0400 0.2240 0.0400 -0.2240"/>
</g>
<g transform="translate(63.3234, 27.7456)">
<polygon stroke-linejoin="round" stroke-linecap="round" stroke-width="0.0800" fill="currentColor" stroke="currentColor" points="6.5011 -0.2240 6.5011 0.2240 0.0400 0.2240 0.0400 -0.2240"/>
</g>
<g transform="translate(63.3234, 28.6316)">
<polygon stroke-linejoin="round" stroke-linecap="round" stroke-width="0.0800" fill="currentColor" stroke="currentColor" points="6.5011 -0.2240 6.5011 0.2240 0.0400 0.2240 0.0400 -0.2240"/>
</g>
<g transform="translate(54.7752, 27.7456)">
<polygon stroke-linejoin="round" stroke-linecap="round" stroke-width="0.0800" fill="currentColor" stroke="currentColor" points="6.5011 -0.2240 6.5011 0.2240 0.0400 0.2240 0.0400 -0.2240"/>
</g>
<g transform="translate(54.7752, 28.6316)">
<polygon stroke-linejoin="round" stroke-linecap="round" stroke-width="0.0800" fill="currentColor" stroke="currentColor" points="6.5011 -0.2240 6.5011 0.2240 0.0400 0.2240 0.0400 -0.2240"/>
</g>
<g transform="translate(44.3218, 27.5316)">
<polygon stroke-linejoin="round" stroke-linecap="round" stroke-width="0.0800" fill="currentColor" stroke="currentColor" points="7.5183 -0.0100 7.5183 0.4380 0.0400 0.2240 0.0400 -0.2240"/>
</g>
<g transform="translate(44.3218, 28.4176)">
<polygon stroke-linejoin="round" stroke-linecap="round" stroke-width="0.0800" fill="currentColor" stroke="currentColor" points="7.5183 -0.0100 7.5183 0.4380 0.0400 0.2240 0.0400 -0.2240"/>
</g>
<a style="color:inherit;" xlink:href="textedit:///home/runner/work/violin-music_private/violin-music_private/tunes/Classical/Mozart_Rondo-Alla-Turca/KV331_3_RondoAllaTurca-Violin.ly:111:6:7">
<g transform="translate(54.7752, 28.6316)">
<path stroke-width="0.0800" stroke-linejoin="round" stroke-linecap="round" stroke="currentColor" fill="currentColor" d="M0.6697 -6.0450C4.2706 -8.0174 51.6209 -6.1018 55.0507 -3.8450L55.0507 -3.8450C51.6160 -5.9819 4.2658 -7.8975 0.6697 -6.0450z"/>
</g>
</a>
<a style="color:inherit;" xlink:href="textedit:///home/runner/work/violin-music_private/violin-music_private/tunes/Classical/Mozart_Rondo-Alla-Turca/KV331_3_RondoAllaTurca-Violin.ly:111:8:9">
<g transform="translate(54.7752, 32.3249)">
<line stroke-linejoin="round" stroke-linecap="round" stroke-width="0.1000" stroke="currentColor" x1="0.0000" y1="0.7333" x2="34.0651" y2="0.0000"/>
</g>
<g transform="translate(54.7752, 32.3249)">
<line stroke-linejoin="round" stroke-linecap="round" stroke-width="0.1000" stroke="currentColor" x1="0.0000" y1="-0.7333" x2="34.0651" y2="-0.0000"/>
</g>
</a>
<a style="color:inherit;" xlink:href="textedit:///usr/share/lilypond/2.24.3/ly/spanners-init.ly:37:5:6">
<g transform="translate(46.4588, 32.8861)">
<text font-family="serif" font-style="italic" font-size="2.4697" text-anchor="start" fill="currentColor">
<tspan>cresc.</tspan>
</text>
</g>
</a>
<a style="color:inherit;" xlink:href="textedit:///home/runner/work/violin-music_private/violin-music_private/tunes/Classical/Mozart_Rondo-Alla-Turca/KV331_3_RondoAllaTurca-Violin.ly:113:26:27">
<g transform="translate(106.0962, 26.9816)">
<path transform="scale(0.0040, -0.0040)" d="M218 136c66 0 108 -36 108 -89c0 -89 -113 -183 -218 -183c-66 0 -108 36 -108 89c0 89 113 183 218 183z" fill="currentColor"/>
</g>
</a>
<g transform="translate(25.3559, 28.8456)">
<polygon stroke-linejoin="round" stroke-linecap="round" stroke-width="0.0800" fill="currentColor" stroke="currentColor" points="6.5011 -0.4380 6.5011 0.0100 0.0400 0.2240 0.0400 -0.2240"/>
</g>
<g transform="translate(25.3559, 29.7316)">
<polygon stroke-linejoin="round" stroke-linecap="round" stroke-width="0.0800" fill="currentColor" stroke="currentColor" points="6.5011 -0.4380 6.5011 0.0100 0.0400 0.2240 0.0400 -0.2240"/>
</g>
<g transform="translate(15.7906, 29.9456)">
<polygon stroke-linejoin="round" stroke-linecap="round" stroke-width="0.0800" fill="currentColor" stroke="currentColor" points="7.5183 -0.4380 7.5183 0.0100 0.0400 0.2240 0.0400 -0.2240"/>
</g>
<g transform="translate(15.7906, 30.8316)">
<polygon stroke-linejoin="round" stroke-linecap="round" stroke-width="0.0800" fill="currentColor" stroke="currentColor" points="7.5183 -0.4380 7.5183 0.0100 0.0400 0.2240 0.0400 -0.2240"/>
</g>
<a style="color:inherit;" xlink:href="textedit:///home/runner/work/violin-music_private/violin-music_private/tunes/Classical/Mozart_Rondo-Alla-Turca/KV331_3_RondoAllaTurca-Violin.ly:109:4:5">
<g transform="translate(15.7906, 28.6316)">
<path stroke-width="0.0800" stroke-linejoin="round" stroke-linecap="round" stroke="currentColor" fill="currentColor" d="M0.6215 -3.2950C3.7301 -5.5800 36.2076 -7.8710 39.6061 -6.0450L39.6061 -6.0450C36.2160 -7.7513 3.7385 -5.4603 0.6215 -3.2950z"/>
</g>
</a>
<a style="color:inherit;" xlink:href="textedit:///home/runner/work/violin-music_private/violin-music_private/tunes/Classical/Mozart_Rondo-Alla-Turca/KV331_3_RondoAllaTurca-Violin.ly:109:6:7">
<g transform="translate(15.7906, 32.3249)">
<line stroke-linejoin="round" stroke-linecap="round" stroke-width="0.1000" stroke="currentColor" x1="0.0000" y1="0.0000" x2="17.2807" y2="0.7333"/>
</g>
<g transform="translate(15.7906, 32.3249)">
<line stroke-linejoin="round" stroke-linecap="round" stroke-width="0.1000" stroke="currentColor" x1="0.0000" y1="-0.0000" x2="17.2807" y2="-0.7333"/>
</g>
</a>
<g transform="translate(96.8458, 28.6316)">
<rect x="-0.0650" y="-2.0139" width="0.1300" height="2.5582" ry="0.0400" fill="currentColor"/>
</g>
<a style="color:inherit;" xlink:href="textedit:///home/runner/work/violin-music_private/violin-music_private/tunes/Classical/Mozart_Rondo-Alla-Turca/KV331_3_RondoAllaTurca-Violin.ly:113:14:15">
<g transform="translate(97.0062, 25.3366)">
<path transform="scale(0.0022, -0.0022)" d="M94 66c-60 0 -39 -66 -72 -66c-11 0 -22 7 -22 21c0 154 232 162 232 334c0 50 -17 102 -61 102c-33 0 -66 -14 -66 -44c0 -24 31 -37 31 -61c0 -34 -27 -61 -61 -61s-61 27 -61 61c0 84 72 148 157 148c98 0 190 -55 190 -145c0 -140 -131 -154 -225 -205
c85 -2 113 -61 165 -61c45 0 28 41 57 41c11 0 22 -8 22 -21c0 -29 -48 -109 -144 -109c-92 0 -96 66 -142 66z" fill="currentColor"/>
</g>
</a>
<a style="color:inherit;" xlink:href="textedit:///home/runner/work/violin-music_private/violin-music_private/tunes/Classical/Mozart_Rondo-Alla-Turca/KV331_3_RondoAllaTurca-Violin.ly:113:11:12">
<g transform="translate(96.7808, 26.4316)">
<path transform="scale(0.0040, -0.0040)" d="M218 136c66 0 108 -36 108 -89c0 -89 -113 -183 -218 -183c-66 0 -108 36 -108 89c0 89 113 183 218 183z" fill="currentColor"/>
</g>
</a>
<g transform="translate(94.9588, 28.6316)">
<rect x="-0.0650" y="-4.2139" width="0.1300" height="4.5932" ry="0.0400" fill="currentColor"/>
</g>
<a style="color:inherit;" xlink:href="textedit:///home/runner/work/violin-music_private/violin-music_private/tunes/Classical/Mozart_Rondo-Alla-Turca/KV331_3_RondoAllaTurca-Violin.ly:113:8:9">
<g transform="translate(94.8938, 24.2316)">
<path transform="scale(0.0040, -0.0040)" d="M218 136c66 0 108 -36 108 -89c0 -89 -113 -183 -218 -183c-66 0 -108 36 -108 89c0 89 113 183 218 183z" fill="currentColor"/>
</g>
</a>
<g transform="translate(92.8218, 28.6316)">
<rect x="-0.0650" y="-3.6639" width="0.1300" height="3.8564" ry="0.0400" fill="currentColor"/>
</g>
<a style="color:inherit;" xlink:href="textedit:///home/runner/work/violin-music_private/violin-music_private/tunes/Classical/Mozart_Rondo-Alla-Turca/KV331_3_RondoAllaTurca-Violin.ly:113:6:7">
<g transform="translate(92.7568, 24.7816)">
<path transform="scale(0.0040, -0.0040)" d="M218 136c66 0 108 -36 108 -89c0 -89 -113 -183 -218 -183c-66 0 -108 36 -108 89c0 89 113 183 218 183z" fill="currentColor"/>
</g>
</a>
<a style="color:inherit;" xlink:href="textedit:///home/runner/work/violin-music_private/violin-music_private/tunes/Classical/Mozart_Rondo-Alla-Turca/KV331_3_RondoAllaTurca-Violin.ly:113:20:21">
<g transform="translate(102.0721, 26.4316)">
<path transform="scale(0.0040, -0.0040)" d="M218 136c66 0 108 -36 108 -89c0 -89 -113 -183 -218 -183c-66 0 -108 36 -108 89c0 89 113 183 218 183z" fill="currentColor"/>
</g>
</a>
<g transform="translate(104.2742, 28.6316)">
<rect x="-0.0650" y="-2.5639" width="0.1300" height="4.5499" ry="0.0400" fill="currentColor"/>
</g>
<a style="color:inherit;" xlink:href="textedit:///home/runner/work/violin-music_private/violin-music_private/tunes/Classical/Mozart_Rondo-Alla-Turca/KV331_3_RondoAllaTurca-Violin.ly:113:23:24">
<g transform="translate(104.2092, 25.8816)">
<path transform="scale(0.0040, -0.0040)" d="M218 136c66 0 108 -36 108 -89c0 -89 -113 -183 -218 -183c-66 0 -108 36 -108 89c0 89 113 183 218 183z" fill="currentColor"/>
</g>
</a>
<g transform="translate(102.1371, 28.6316)">
<rect x="-0.0650" y="-2.0139" width="0.1300" height="3.9999" ry="0.0400" fill="currentColor"/>
</g>
<g transform="translate(98.4851, 26.9816)">
<path transform="scale(0.0040, -0.0040)" d="M0 119c0 8 5 15 13 18l46 17v158c0 10 8 19 18 19s19 -9 19 -19v-145l83 31v158c0 10 9 19 19 19s18 -9 18 -19v-145l32 12c2 1 5 1 7 1c11 0 20 -9 20 -20v-60c0 -8 -5 -16 -13 -19l-46 -16v-160l32 11c2 1 5 1 7 1c11 0 20 -9 20 -20v-60c0 -8 -5 -15 -13 -18l-46 -17
v-158c0 -10 -8 -19 -18 -19s-19 9 -19 19v145l-83 -31v-158c0 -10 -9 -19 -19 -19s-18 9 -18 19v145l-32 -12c-2 -1 -5 -1 -7 -1c-11 0 -20 9 -20 20v60c0 8 5 16 13 19l46 16v160l-32 -11c-2 -1 -5 -1 -7 -1c-11 0 -20 9 -20 20v60zM179 95l-83 -30v-160l83 30v160z" fill="currentColor"/>
</g>
<g transform="translate(100.0001, 28.6316)">
<rect x="-0.0650" y="-1.4639" width="0.1300" height="3.4499" ry="0.0400" fill="currentColor"/>
</g>
<a style="color:inherit;" xlink:href="textedit:///home/runner/work/violin-music_private/violin-music_private/tunes/Classical/Mozart_Rondo-Alla-Turca/KV331_3_RondoAllaTurca-Violin.ly:113:17:18">
<g transform="translate(99.9351, 26.9816)">
<path transform="scale(0.0040, -0.0040)" d="M218 136c66 0 108 -36 108 -89c0 -89 -113 -183 -218 -183c-66 0 -108 36 -108 89c0 89 113 183 218 183z" fill="currentColor"/>
</g>
</a>
<a style="color:inherit;" xlink:href="textedit:///home/runner/work/violin-music_private/violin-music_private/tunes/Classical/Mozart_Rondo-Alla-Turca/KV331_3_RondoAllaTurca-Violin.ly:110:4:5">
<g transform="translate(35.0159, 22.2647)">
<path transform="scale(0.0022, -0.0022)" d="M261 266c0 -54 85 -40 85 -125c0 -94 -83 -141 -186 -141c-84 0 -160 54 -160 133c0 32 26 58 58 58s58 -26 58 -58c0 -22 -36 -26 -36 -48c0 -33 42 -42 80 -42c41 0 56 50 56 98v21c0 44 -2 77 -43 77h-65c-18 0 -27 14 -27 27s9 27 27 27h65c42 0 43 36 43 83v11
c0 43 -20 70 -61 70c-34 0 -71 -8 -71 -38c0 -19 32 -23 32 -42c0 -28 -23 -51 -51 -51s-51 23 -51 51c0 72 66 123 141 123c93 0 174 -31 174 -113c0 -94 -68 -67 -68 -121z" fill="currentColor"/>
</g>
</a>
<a style="color:inherit;" xlink:href="textedit:///home/runner/work/violin-music_private/violin-music_private/tunes/Classical/Mozart_Rondo-Alla-Turca/KV331_3_RondoAllaTurca-Violin.ly:110:2:3">
<g transform="translate(34.7564, 24.2316)">
<path transform="scale(0.0040, -0.0040)" d="M218 136c66 0 108 -36 108 -89c0 -89 -113 -183 -218 -183c-66 0 -108 36 -108 89c0 89 113 183 218 183z" fill="currentColor"/>
</g>
</a>
<g transform="translate(31.8321, 28.6316)">
<rect x="-0.0650" y="-3.6639" width="0.1300" height="4.5520" ry="0.0400" fill="currentColor"/>
</g>
<a style="color:inherit;" xlink:href="textedit:///home/runner/work/violin-music_private/violin-music_private/tunes/Classical/Mozart_Rondo-Alla-Turca/KV331_3_RondoAllaTurca-Violin.ly:109:25:26">
<g transform="translate(31.7671, 24.7816)">
<path transform="scale(0.0040, -0.0040)" d="M218 136c66 0 108 -36 108 -89c0 -89 -113 -183 -218 -183c-66 0 -108 36 -108 89c0 89 113 183 218 183z" fill="currentColor"/>
</g>
</a>
<g transform="translate(29.6950, 28.6316)">
<rect x="-0.0650" y="-3.1139" width="0.1300" height="4.0719" ry="0.0400" fill="currentColor"/>
</g>
<a style="color:inherit;" xlink:href="textedit:///home/runner/work/violin-music_private/violin-music_private/tunes/Classical/Mozart_Rondo-Alla-Turca/KV331_3_RondoAllaTurca-Violin.ly:109:23:24">
<g transform="translate(29.6300, 25.3316)">
<path transform="scale(0.0040, -0.0040)" d="M218 136c66 0 108 -36 108 -89c0 -89 -113 -183 -218 -183c-66 0 -108 36 -108 89c0 89 113 183 218 183z" fill="currentColor"/>
</g>
</a>
<g transform="translate(27.5580, 28.6316)">
<rect x="-0.0650" y="-2.5639" width="0.1300" height="3.5919" ry="0.0400" fill="currentColor"/>
</g>
<a style="color:inherit;" xlink:href="textedit:///home/runner/work/violin-music_private/violin-music_private/tunes/Classical/Mozart_Rondo-Alla-Turca/KV331_3_RondoAllaTurca-Violin.ly:109:20:21">
<g transform="translate(27.4930, 25.8816)">
<path transform="scale(0.0040, -0.0040)" d="M218 136c66 0 108 -36 108 -89c0 -89 -113 -183 -218 -183c-66 0 -108 36 -108 89c0 89 113 183 218 183z" fill="currentColor"/>
</g>
</a>
<g transform="translate(40.1127, 28.6316)">
<rect x="-0.0650" y="-4.2139" width="0.1300" height="4.2139" ry="0.0400" fill="currentColor"/>
</g>
<a style="color:inherit;" xlink:href="textedit:///home/runner/work/violin-music_private/violin-music_private/tunes/Classical/Mozart_Rondo-Alla-Turca/KV331_3_RondoAllaTurca-Violin.ly:110:10:11">
<g transform="translate(40.0477, 24.2316)">
<path transform="scale(0.0040, -0.0040)" d="M218 136c66 0 108 -36 108 -89c0 -89 -113 -183 -218 -183c-66 0 -108 36 -108 89c0 89 113 183 218 183z" fill="currentColor"/>
</g>
</a>
<g transform="translate(36.4607, 24.7816)">
<path transform="scale(0.0040, -0.0040)" d="M0 119c0 8 5 15 13 18l46 17v158c0 10 8 19 18 19s19 -9 19 -19v-145l83 31v158c0 10 9 19 19 19s18 -9 18 -19v-145l32 12c2 1 5 1 7 1c11 0 20 -9 20 -20v-60c0 -8 -5 -16 -13 -19l-46 -16v-160l32 11c2 1 5 1 7 1c11 0 20 -9 20 -20v-60c0 -8 -5 -15 -13 -18l-46 -17
v-158c0 -10 -8 -19 -18 -19s-19 9 -19 19v145l-83 -31v-158c0 -10 -9 -19 -19 -19s-18 9 -18 19v145l-32 -12c-2 -1 -5 -1 -7 -1c-11 0 -20 9 -20 20v60c0 8 5 16 13 19l46 16v160l-32 -11c-2 -1 -5 -1 -7 -1c-11 0 -20 9 -20 20v60zM179 95l-83 -30v-160l83 30v160z" fill="currentColor"/>
</g>
<a style="color:inherit;" xlink:href="textedit:///home/runner/work/violin-music_private/violin-music_private/tunes/Classical/Mozart_Rondo-Alla-Turca/KV331_3_RondoAllaTurca-Violin.ly:111:19:20">
<g transform="translate(63.3234, 23.6816)">
<path transform="scale(0.0040, -0.0040)" d="M218 136c66 0 108 -36 108 -89c0 -89 -113 -183 -218 -183c-66 0 -108 36 -108 89c0 89 113 183 218 183z" fill="currentColor"/>
</g>
</a>
<a style="color:inherit;" xlink:href="textedit:///home/runner/work/violin-music_private/violin-music_private/tunes/Classical/Mozart_Rondo-Alla-Turca/KV331_3_RondoAllaTurca-Violin.ly:110:7:8">
<g transform="translate(37.9107, 24.7816)">
<path transform="scale(0.0040, -0.0040)" d="M218 136c66 0 108 -36 108 -89c0 -89 -113 -183 -218 -183c-66 0 -108 36 -108 89c0 89 113 183 218 183z" fill="currentColor"/>
</g>
</a>
<g transform="translate(34.8214, 28.6316)">
<rect x="-0.0650" y="-4.2139" width="0.1300" height="4.2139" ry="0.0400" fill="currentColor"/>
</g>
<g transform="translate(15.8556, 28.6316)">
<rect x="-0.0650" y="-2.0139" width="0.1300" height="4.2121" ry="0.0400" fill="currentColor"/>
</g>
<a style="color:inherit;" xlink:href="textedit:///home/runner/work/violin-music_private/violin-music_private/tunes/Classical/Mozart_Rondo-Alla-Turca/KV331_3_RondoAllaTurca-Violin.ly:109:2:3">
<g transform="translate(15.7906, 26.4316)">
<path transform="scale(0.0040, -0.0040)" d="M218 136c66 0 108 -36 108 -89c0 -89 -113 -183 -218 -183c-66 0 -108 36 -108 89c0 89 113 183 218 183z" fill="currentColor"/>
</g>
</a>
<a style="color:inherit;" xlink:href="textedit:///home/runner/work/violin-music_private/violin-music_private/tunes/Classical/Mozart_Rondo-Alla-Turca/KV331_3_RondoAllaTurca-Violin.ly:109:9:10">
<g transform="translate(18.9448, 26.9816)">
<path transform="scale(0.0040, -0.0040)" d="M218 136c66 0 108 -36 108 -89c0 -89 -113 -183 -218 -183c-66 0 -108 36 -108 89c0 89 113 183 218 183z" fill="currentColor"/>
</g>
</a>
<g transform="translate(3.4371, 25.3569)">
<text font-family="serif" font-size="1.7459" text-anchor="start" fill="currentColor">
<tspan>51</tspan>
</text>
</g>
<g transform="translate(9.9906, 26.4316)">
<path transform="scale(0.0040, -0.0040)" d="M0 119c0 8 5 15 13 18l46 17v158c0 10 8 19 18 19s19 -9 19 -19v-145l83 31v158c0 10 9 19 19 19s18 -9 18 -19v-145l32 12c2 1 5 1 7 1c11 0 20 -9 20 -20v-60c0 -8 -5 -16 -13 -19l-46 -16v-160l32 11c2 1 5 1 7 1c11 0 20 -9 20 -20v-60c0 -8 -5 -15 -13 -18l-46 -17
v-158c0 -10 -8 -19 -18 -19s-19 9 -19 19v145l-83 -31v-158c0 -10 -9 -19 -19 -19s-18 9 -18 19v145l-32 -12c-2 -1 -5 -1 -7 -1c-11 0 -20 9 -20 20v60c0 8 5 16 13 19l46 16v160l-32 -11c-2 -1 -5 -1 -7 -1c-11 0 -20 9 -20 20v60zM179 95l-83 -30v-160l83 30v160z" fill="currentColor"/>
</g>
<g transform="translate(11.0906, 28.0816)">
<path transform="scale(0.0040, -0.0040)" d="M0 119c0 8 5 15 13 18l46 17v158c0 10 8 19 18 19s19 -9 19 -19v-145l83 31v158c0 10 9 19 19 19s18 -9 18 -19v-145l32 12c2 1 5 1 7 1c11 0 20 -9 20 -20v-60c0 -8 -5 -16 -13 -19l-46 -16v-160l32 11c2 1 5 1 7 1c11 0 20 -9 20 -20v-60c0 -8 -5 -15 -13 -18l-46 -17
v-158c0 -10 -8 -19 -18 -19s-19 9 -19 19v145l-83 -31v-158c0 -10 -9 -19 -19 -19s-18 9 -18 19v145l-32 -12c-2 -1 -5 -1 -7 -1c-11 0 -20 9 -20 20v60c0 8 5 16 13 19l46 16v160l-32 -11c-2 -1 -5 -1 -7 -1c-11 0 -20 9 -20 20v60zM179 95l-83 -30v-160l83 30v160z" fill="currentColor"/>
</g>
<g transform="translate(12.1906, 25.8816)">
<path transform="scale(0.0040, -0.0040)" d="M0 119c0 8 5 15 13 18l46 17v158c0 10 8 19 18 19s19 -9 19 -19v-145l83 31v158c0 10 9 19 19 19s18 -9 18 -19v-145l32 12c2 1 5 1 7 1c11 0 20 -9 20 -20v-60c0 -8 -5 -16 -13 -19l-46 -16v-160l32 11c2 1 5 1 7 1c11 0 20 -9 20 -20v-60c0 -8 -5 -15 -13 -18l-46 -17
v-158c0 -10 -8 -19 -18 -19s-19 9 -19 19v145l-83 -31v-158c0 -10 -9 -19 -19 -19s-18 9 -18 19v145l-32 -12c-2 -1 -5 -1 -7 -1c-11 0 -20 9 -20 20v60c0 8 5 16 13 19l46 16v160l-32 -11c-2 -1 -5 -1 -7 -1c-11 0 -20 9 -20 20v60zM179 95l-83 -30v-160l83 30v160z" fill="currentColor"/>
</g>
<g transform="translate(6.4906, 29.7316)">
<path transform="scale(0.0040, -0.0040)" d="M266 -635h-6c-108 0 -195 88 -195 197c0 58 53 103 112 103c54 0 95 -47 95 -103c0 -52 -43 -95 -95 -95c-11 0 -21 2 -31 6c26 -39 68 -65 117 -65h4zM461 -203c68 24 113 90 113 164c0 90 -66 179 -173 190c19 -89 48 -242 60 -354zM74 28c0 -145 141 -247 264 -247
c1 0 47 0 82 6c-7 64 -29 203 -63 364c-79 -8 -124 -61 -124 -119c0 -44 25 -91 81 -123c5 -5 7 -10 7 -15c0 -11 -10 -22 -22 -22c-15 0 -126 62 -126 187c0 88 58 174 160 197c-14 58 -29 117 -46 175c-107 -121 -213 -243 -213 -403zM250 553c-29 96 -52 170 -52 346
c0 115 55 224 149 292c6 5 14 5 20 0c68 -80 133 -245 133 -358c0 -143 -86 -255 -180 -364c21 -68 39 -138 56 -207c2 0 7 1 13 1c155 0 256 -128 256 -261c0 -113 -74 -212 -180 -246c3 -35 5 -70 5 -105c0 -19 -1 -39 -2 -58c-7 -119 -88 -225 -202 -228l1 43
c93 2 153 92 159 191c1 18 2 37 2 55c0 31 -1 61 -4 92c-5 -1 -44 -8 -89 -8c-193 0 -333 180 -333 374c0 177 131 306 248 441zM428 916c0 34 1 66 -20 129c-99 -48 -162 -149 -162 -259c0 -52 12 -115 36 -194c80 97 146 198 146 324z" fill="currentColor"/>
</g>
<g transform="translate(25.4209, 28.6316)">
<rect x="-0.0650" y="-3.1139" width="0.1300" height="4.2118" ry="0.0400" fill="currentColor"/>
</g>
<a style="color:inherit;" xlink:href="textedit:///home/runner/work/violin-music_private/violin-music_private/tunes/Classical/Mozart_Rondo-Alla-Turca/KV331_3_RondoAllaTurca-Violin.ly:109:18:19">
<g transform="translate(25.3559, 25.3316)">
<path transform="scale(0.0040, -0.0040)" d="M218 136c66 0 108 -36 108 -89c0 -89 -113 -183 -218 -183c-66 0 -108 36 -108 89c0 89 113 183 218 183z" fill="currentColor"/>
</g>
</a>
<g transform="translate(23.2839, 28.6316)">
<rect x="-0.0650" y="-2.5639" width="0.1300" height="4.5517" ry="0.0400" fill="currentColor"/>
</g>
<a style="color:inherit;" xlink:href="textedit:///home/runner/work/violin-music_private/violin-music_private/tunes/Classical/Mozart_Rondo-Alla-Turca/KV331_3_RondoAllaTurca-Violin.ly:109:15:16">
<g transform="translate(23.2189, 25.8816)">
<path transform="scale(0.0040, -0.0040)" d="M218 136c66 0 108 -36 108 -89c0 -89 -113 -183 -218 -183c-66 0 -108 36 -108 89c0 89 113 183 218 183z" fill="currentColor"/>
</g>
</a>
<g transform="translate(37.9757, 28.6316)">
<rect x="-0.0650" y="-3.6639" width="0.1300" height="3.6639" ry="0.0400" fill="currentColor"/>
</g>
<g transform="translate(21.1468, 28.6316)">
<rect x="-0.0650" y="-2.0139" width="0.1300" height="4.0622" ry="0.0400" fill="currentColor"/>
</g>
<a style="color:inherit;" xlink:href="textedit:///home/runner/work/violin-music_private/violin-music_private/tunes/Classical/Mozart_Rondo-Alla-Turca/KV331_3_RondoAllaTurca-Violin.ly:109:12:13">
<g transform="translate(21.0818, 26.4316)">
<path transform="scale(0.0040, -0.0040)" d="M218 136c66 0 108 -36 108 -89c0 -89 -113 -183 -218 -183c-66 0 -108 36 -108 89c0 89 113 183 218 183z" fill="currentColor"/>
</g>
</a>
<g transform="translate(17.4948, 26.9816)">
<path transform="scale(0.0040, -0.0040)" d="M0 119c0 8 5 15 13 18l46 17v158c0 10 8 19 18 19s19 -9 19 -19v-145l83 31v158c0 10 9 19 19 19s18 -9 18 -19v-145l32 12c2 1 5 1 7 1c11 0 20 -9 20 -20v-60c0 -8 -5 -16 -13 -19l-46 -16v-160l32 11c2 1 5 1 7 1c11 0 20 -9 20 -20v-60c0 -8 -5 -15 -13 -18l-46 -17
v-158c0 -10 -8 -19 -18 -19s-19 9 -19 19v145l-83 -31v-158c0 -10 -9 -19 -19 -19s-18 9 -18 19v145l-32 -12c-2 -1 -5 -1 -7 -1c-11 0 -20 9 -20 20v60c0 8 5 16 13 19l46 16v160l-32 -11c-2 -1 -5 -1 -7 -1c-11 0 -20 9 -20 20v60zM179 95l-83 -30v-160l83 30v160z" fill="currentColor"/>
</g>
<g transform="translate(19.0098, 28.6316)">
<rect x="-0.0650" y="-1.4639" width="0.1300" height="3.5727" ry="0.0400" fill="currentColor"/>
</g>
<g transform="translate(56.9772, 28.6316)">
<rect x="-0.0650" y="-4.2139" width="0.1300" height="4.2139" ry="0.0400" fill="currentColor"/>
</g>
<g transform="translate(50.3001, 25.3316)">
<path transform="scale(0.0040, -0.0040)" d="M0 119c0 8 5 15 13 18l46 17v158c0 10 8 19 18 19s19 -9 19 -19v-145l83 31v158c0 10 9 19 19 19s18 -9 18 -19v-145l32 12c2 1 5 1 7 1c11 0 20 -9 20 -20v-60c0 -8 -5 -16 -13 -19l-46 -16v-160l32 11c2 1 5 1 7 1c11 0 20 -9 20 -20v-60c0 -8 -5 -15 -13 -18l-46 -17
v-158c0 -10 -8 -19 -18 -19s-19 9 -19 19v145l-83 -31v-158c0 -10 -9 -19 -19 -19s-18 9 -18 19v145l-32 -12c-2 -1 -5 -1 -7 -1c-11 0 -20 9 -20 20v60c0 8 5 16 13 19l46 16v160l-32 -11c-2 -1 -5 -1 -7 -1c-11 0 -20 9 -20 20v60zM179 95l-83 -30v-160l83 30v160z" fill="currentColor"/>
</g>
<g transform="translate(51.8151, 28.6316)">
<rect x="-0.0650" y="-3.1139" width="0.1300" height="3.1121" ry="0.0400" fill="currentColor"/>
</g>
<a style="color:inherit;" xlink:href="textedit:///home/runner/work/violin-music_private/violin-music_private/tunes/Classical/Mozart_Rondo-Alla-Turca/KV331_3_RondoAllaTurca-Violin.ly:110:43:44">
<g transform="translate(51.9925, 24.2366)">
<path transform="scale(0.0022, -0.0022)" d="M194 486c16 0 29 15 41 15c13 0 24 -13 24 -31v-341c0 -47 35 -86 81 -86c14 0 21 -10 21 -21s-7 -22 -21 -22c-49 0 -97 14 -146 14s-96 -14 -145 -14c-14 0 -22 11 -22 22s8 21 22 21c46 0 80 39 80 86v137c0 23 -16 35 -30 35c-7 0 -13 -4 -17 -11l-34 -65
c-5 -10 -14 -15 -23 -15c-14 0 -28 12 -28 27c0 4 1 8 3 13l129 250c2 4 7 6 11 6c18 0 37 -20 54 -20z" fill="currentColor"/>
</g>
</a>
<a style="color:inherit;" xlink:href="textedit:///home/runner/work/violin-music_private/violin-music_private/tunes/Classical/Mozart_Rondo-Alla-Turca/KV331_3_RondoAllaTurca-Violin.ly:110:41:42">
<g transform="translate(51.7501, 25.3316)">
<path transform="scale(0.0040, -0.0040)" d="M218 136c66 0 108 -36 108 -89c0 -89 -113 -183 -218 -183c-66 0 -108 36 -108 89c0 89 113 183 218 183z" fill="currentColor"/>
</g>
</a>
<a style="color:inherit;" xlink:href="textedit:///home/runner/work/violin-music_private/violin-music_private/tunes/Classical/Mozart_Rondo-Alla-Turca/KV331_3_RondoAllaTurca-Violin.ly:111:14:15">
<g transform="translate(59.0493, 23.6816)">
<path transform="scale(0.0040, -0.0040)" d="M218 136c66 0 108 -36 108 -89c0 -89 -113 -183 -218 -183c-66 0 -108 36 -108 89c0 89 113 183 218 183z" fill="currentColor"/>
</g>
</a>
<g transform="translate(48.6609, 28.6316)">
<rect x="-0.0650" y="-4.2139" width="0.1300" height="4.1227" ry="0.0400" fill="currentColor"/>
</g>
<g transform="translate(54.8402, 28.6316)">
<rect x="-0.0650" y="-4.7639" width="0.1300" height="4.7639" ry="0.0400" fill="currentColor"/>
</g>
<a style="color:inherit;" xlink:href="textedit:///home/runner/work/violin-music_private/violin-music_private/tunes/Classical/Mozart_Rondo-Alla-Turca/KV331_3_RondoAllaTurca-Violin.ly:111:4:5">
<g transform="translate(54.9663, 22.2237)">
<path transform="scale(0.0022, -0.0022)" d="M148 501c10 0 41 -15 72 -15c32 0 63 15 76 15c15 0 26 -11 26 -21c0 -4 -1 -7 -4 -10l-264 -291h134v4c0 60 50 41 75 85c7 11 8 24 14 36c3 7 10 10 17 10c11 0 24 -8 24 -25v-110h70c18 0 27 -14 27 -27s-9 -27 -27 -27h-70c2 -45 36 -82 80 -82c14 0 22 -10 22 -21
s-8 -22 -22 -22c-49 0 -96 14 -145 14s-97 -14 -146 -14c-14 0 -21 11 -21 22s7 21 21 21c44 0 79 37 81 82h-134c-43 0 -57 25 -57 42c0 5 1 10 3 12c73 81 123 182 123 291c0 17 11 31 25 31z" fill="currentColor"/>
</g>
</a>
<a style="color:inherit;" xlink:href="textedit:///home/runner/work/violin-music_private/violin-music_private/tunes/Classical/Mozart_Rondo-Alla-Turca/KV331_3_RondoAllaTurca-Violin.ly:111:2:3">
<g transform="translate(54.7752, 23.6816)">
<path transform="scale(0.0040, -0.0040)" d="M218 136c66 0 108 -36 108 -89c0 -89 -113 -183 -218 -183c-66 0 -108 36 -108 89c0 89 113 183 218 183z" fill="currentColor"/>
</g>
</a>
<a style="color:inherit;" xlink:href="textedit:///home/runner/work/violin-music_private/violin-music_private/tunes/Classical/Mozart_Rondo-Alla-Turca/KV331_3_RondoAllaTurca-Violin.ly:111:11:12">
<g transform="translate(56.9122, 24.2316)">
<path transform="scale(0.0040, -0.0040)" d="M218 136c66 0 108 -36 108 -89c0 -89 -113 -183 -218 -183c-66 0 -108 36 -108 89c0 89 113 183 218 183z" fill="currentColor"/>
</g>
</a>
<g transform="translate(61.2513, 28.6316)">
<rect x="-0.0650" y="-4.2139" width="0.1300" height="4.2139" ry="0.0400" fill="currentColor"/>
</g>
<g transform="translate(44.3868, 28.6316)">
<rect x="-0.0650" y="-4.2139" width="0.1300" height="4.0017" ry="0.0400" fill="currentColor"/>
</g>
<a style="color:inherit;" xlink:href="textedit:///home/runner/work/violin-music_private/violin-music_private/tunes/Classical/Mozart_Rondo-Alla-Turca/KV331_3_RondoAllaTurca-Violin.ly:110:16:17">
<g transform="translate(44.3218, 24.2316)">
<path transform="scale(0.0040, -0.0040)" d="M218 136c66 0 108 -36 108 -89c0 -89 -113 -183 -218 -183c-66 0 -108 36 -108 89c0 89 113 183 218 183z" fill="currentColor"/>
</g>
</a>
<g transform="translate(59.1143, 28.6316)">
<rect x="-0.0650" y="-4.7639" width="0.1300" height="4.7639" ry="0.0400" fill="currentColor"/>
</g>
<g transform="translate(42.2497, 28.6316)">
<rect x="-0.0650" y="-3.6639" width="0.1300" height="3.6639" ry="0.0400" fill="currentColor"/>
</g>
<a style="color:inherit;" xlink:href="textedit:///home/runner/work/violin-music_private/violin-music_private/tunes/Classical/Mozart_Rondo-Alla-Turca/KV331_3_RondoAllaTurca-Violin.ly:110:13:14">
<g transform="translate(42.1847, 24.7816)">
<path transform="scale(0.0040, -0.0040)" d="M218 136c66 0 108 -36 108 -89c0 -89 -113 -183 -218 -183c-66 0 -108 36 -108 89c0 89 113 183 218 183z" fill="currentColor"/>
</g>
</a>
<g transform="translate(46.5238, 28.6316)">
<rect x="-0.0650" y="-3.6639" width="0.1300" height="3.5122" ry="0.0400" fill="currentColor"/>
</g>
<a style="color:inherit;" xlink:href="textedit:///home/runner/work/violin-music_private/violin-music_private/tunes/Classical/Mozart_Rondo-Alla-Turca/KV331_3_RondoAllaTurca-Violin.ly:110:38:39">
<g transform="translate(48.5959, 24.2316)">
<path transform="scale(0.0040, -0.0040)" d="M218 136c66 0 108 -36 108 -89c0 -89 -113 -183 -218 -183c-66 0 -108 36 -108 89c0 89 113 183 218 183z" fill="currentColor"/>
</g>
</a>
<a style="color:inherit;" xlink:href="textedit:///home/runner/work/violin-music_private/violin-music_private/tunes/Classical/Mozart_Rondo-Alla-Turca/KV331_3_RondoAllaTurca-Violin.ly:110:35:36">
<g transform="translate(46.4588, 24.7816)">
<path transform="scale(0.0040, -0.0040)" d="M218 136c66 0 108 -36 108 -89c0 -89 -113 -183 -218 -183c-66 0 -108 36 -108 89c0 89 113 183 218 183z" fill="currentColor"/>
</g>
</a>
<a style="color:inherit;" xlink:href="textedit:///home/runner/work/violin-music_private/violin-music_private/tunes/Classical/Mozart_Rondo-Alla-Turca/KV331_3_RondoAllaTurca-Violin.ly:111:16:17">
<g transform="translate(61.1863, 24.2316)">
<path transform="scale(0.0040, -0.0040)" d="M218 136c66 0 108 -36 108 -89c0 -89 -113 -183 -218 -183c-66 0 -108 36 -108 89c0 89 113 183 218 183z" fill="currentColor"/>
</g>
</a>
</svg>
