<svg xmlns="http://www.w3.org/2000/svg" xmlns:xlink="http://www.w3.org/1999/xlink" version="1.2" width="210.00mm" height="297.00mm" viewBox="0.0000 -0.0000 119.5016 169.0094">
<style type="text/css">
<![CDATA[
tspan { white-space: pre; }
]]>
</style>
<g transform="translate(38.1039, 6.2124)">
<text font-family="serif" font-weight="bold" font-size="3.4929" text-anchor="start" fill="currentColor">
<tspan>Adagio in G minor (Practice)</tspan>
</text>
</g>
<g transform="translate(25.3343, 9.7124)">
<text font-family="serif" font-weight="bold" font-size="2.4697" text-anchor="start" fill="currentColor">
<tspan>per archi e organo (attributed to Albinoni, composed by Giazotto)</tspan>
</text>
</g>
<g transform="translate(88.5791, 13.2124)">
<text font-family="serif" font-size="2.2000" text-anchor="start" fill="currentColor">
<tspan>Remo Giazotto (1910–1998)</tspan>
</text>
</g>
<g transform="translate(5.6906, 15.6740)">
<text font-family="serif" font-weight="bold" font-size="2.2000" text-anchor="start" fill="currentColor">
<tspan>Adagio Arpeggio</tspan>
</text>
</g>
<g transform="translate(5.6906, 19.8186)">
<rect x="84.6785" y="-0.1000" width="1.9563" height="0.2000" ry="0.1000" fill="currentColor"/>
</g>
<g transform="translate(5.6906, 20.8186)">
<rect x="84.6785" y="-0.1000" width="1.9563" height="0.2000" ry="0.1000" fill="currentColor"/>
</g>
<g transform="translate(5.6906, 18.8186)">
<rect x="79.1192" y="-0.1000" width="1.8053" height="0.2000" ry="0.1000" fill="currentColor"/>
</g>
<g transform="translate(5.6906, 19.8186)">
<rect x="78.9681" y="-0.1000" width="1.9563" height="0.2000" ry="0.1000" fill="currentColor"/>
</g>
<g transform="translate(5.6906, 20.8186)">
<rect x="78.9681" y="-0.1000" width="1.9563" height="0.2000" ry="0.1000" fill="currentColor"/>
</g>
<g transform="translate(5.6906, 19.8186)">
<rect x="72.3378" y="-0.1000" width="1.9563" height="0.2000" ry="0.1000" fill="currentColor"/>
</g>
<g transform="translate(5.6906, 20.8186)">
<rect x="72.3378" y="-0.1000" width="1.9563" height="0.2000" ry="0.1000" fill="currentColor"/>
</g>
<g transform="translate(5.6906, 25.8186)">
<line stroke-linejoin="round" stroke-linecap="round" stroke-width="0.1000" stroke="currentColor" x1="0.0500" y1="0" x2="108.0705" y2="0"/>
</g>
<g transform="translate(5.6906, 24.8186)">
<line stroke-linejoin="round" stroke-linecap="round" stroke-width="0.1000" stroke="currentColor" x1="0.0500" y1="0" x2="108.0705" y2="0"/>
</g>
<g transform="translate(5.6906, 23.8186)">
<line stroke-linejoin="round" stroke-linecap="round" stroke-width="0.1000" stroke="currentColor" x1="0.0500" y1="0" x2="108.0705" y2="0"/>
</g>
<g transform="translate(5.6906, 22.8186)">
<line stroke-linejoin="round" stroke-linecap="round" stroke-width="0.1000" stroke="currentColor" x1="0.0500" y1="0" x2="108.0705" y2="0"/>
</g>
<g transform="translate(5.6906, 21.8186)">
<line stroke-linejoin="round" stroke-linecap="round" stroke-width="0.1000" stroke="currentColor" x1="0.0500" y1="0" x2="108.0705" y2="0"/>
</g>
<g transform="translate(113.6210, 23.8186)">
<rect x="0.0000" y="-2.0000" width="0.1900" height="4.0000" ry="0.0000" fill="currentColor"/>
</g>
<g transform="translate(62.5778, 23.8186)">
<rect x="0.0000" y="-2.0000" width="0.1900" height="4.0000" ry="0.0000" fill="currentColor"/>
</g>
<g transform="translate(90.6951, 24.6286)">
<polygon stroke-linejoin="round" stroke-linecap="round" stroke-width="0.0800" fill="currentColor" stroke="currentColor" points="17.2209 1.1800 17.2209 1.5800 0.0400 0.2000 0.0400 -0.2000"/>
</g>
<g transform="translate(65.9338, 24.6286)">
<polygon stroke-linejoin="round" stroke-linecap="round" stroke-width="0.0800" fill="currentColor" stroke="currentColor" points="19.1409 -1.0100 19.1409 -0.6100 0.0400 0.2000 0.0400 -0.2000"/>
</g>
<a style="color:inherit;" xlink:href="textedit:///Users/Marc/Projects/violin-music.github.io/tunes/Classical/Albinoni_Adagio/Tomaso-Giovanni-Albinoni-Adagio-in-Sol-minore_%5bPractice%5d.ly:18:1:2">
<g transform="translate(14.3905, 24.8186)">
<path transform="scale(0.0040, -0.0040)" d="M218 136c66 0 108 -36 108 -89c0 -89 -113 -183 -218 -183c-66 0 -108 36 -108 89c0 89 113 183 218 183z" fill="currentColor"/>
</g>
</a>
<a style="color:inherit;" xlink:href="textedit:///Users/Marc/Projects/violin-music.github.io/tunes/Classical/Albinoni_Adagio/Tomaso-Giovanni-Albinoni-Adagio-in-Sol-minore_%5bPractice%5d.ly:18:3:4">
<g transform="translate(14.6500, 21.2686)">
<path transform="scale(0.0022, -0.0022)" d="M261 266c0 -54 85 -40 85 -125c0 -94 -83 -141 -186 -141c-84 0 -160 54 -160 133c0 32 26 58 58 58s58 -26 58 -58c0 -22 -36 -26 -36 -48c0 -33 42 -42 80 -42c41 0 56 50 56 98v21c0 44 -2 77 -43 77h-65c-18 0 -27 14 -27 27s9 27 27 27h65c42 0 43 36 43 83v11
c0 43 -20 70 -61 70c-34 0 -71 -8 -71 -38c0 -19 32 -23 32 -42c0 -28 -23 -51 -51 -51s-51 23 -51 51c0 72 66 123 141 123c93 0 174 -31 174 -113c0 -94 -68 -67 -68 -121z" fill="currentColor"/>
</g>
</a>
<g transform="translate(6.4906, 24.8186)">
<path transform="scale(0.0040, -0.0040)" d="M266 -635h-6c-108 0 -195 88 -195 197c0 58 53 103 112 103c54 0 95 -47 95 -103c0 -52 -43 -95 -95 -95c-11 0 -21 2 -31 6c26 -39 68 -65 117 -65h4zM461 -203c68 24 113 90 113 164c0 90 -66 179 -173 190c19 -89 48 -242 60 -354zM74 28c0 -145 141 -247 264 -247
c1 0 47 0 82 6c-7 64 -29 203 -63 364c-79 -8 -124 -61 -124 -119c0 -44 25 -91 81 -123c5 -5 7 -10 7 -15c0 -11 -10 -22 -22 -22c-15 0 -126 62 -126 187c0 88 58 174 160 197c-14 58 -29 117 -46 175c-107 -121 -213 -243 -213 -403zM250 553c-29 96 -52 170 -52 346
c0 115 55 224 149 292c6 5 14 5 20 0c68 -80 133 -245 133 -358c0 -143 -86 -255 -180 -364c21 -68 39 -138 56 -207c2 0 7 1 13 1c155 0 256 -128 256 -261c0 -113 -74 -212 -180 -246c3 -35 5 -70 5 -105c0 -19 -1 -39 -2 -58c-7 -119 -88 -225 -202 -228l1 43
c93 2 153 92 159 191c1 18 2 37 2 55c0 31 -1 61 -4 92c-5 -1 -44 -8 -89 -8c-193 0 -333 180 -333 374c0 177 131 306 248 441zM428 916c0 34 1 66 -20 129c-99 -48 -162 -149 -162 -259c0 -52 12 -115 36 -194c80 97 146 198 146 324z" fill="currentColor"/>
</g>
<g transform="translate(10.6906, 23.8186)">
<path transform="scale(0.0040, -0.0040)" d="M250 262c116 0 176 -106 176 -163c0 -40 -30 -72 -67 -72c-31 0 -75 25 -75 75c0 38 27 77 72 77c4 0 9 0 14 -1c-28 37 -72 59 -120 59c-106 0 -113 -73 -113 -186v-51v-51c0 -113 7 -187 113 -187c80 0 139 70 158 151c2 7 7 10 12 10c6 0 13 -4 13 -12
c0 -22 -50 -174 -183 -174c-59 0 -250 19 -250 263c0 62 18 262 250 262z" fill="currentColor"/>
</g>
<g transform="translate(14.4555, 23.8186)">
<rect x="-0.0650" y="1.1861" width="0.1300" height="2.6171" ry="0.0400" fill="currentColor"/>
</g>
<g transform="translate(39.1518, 26.8186)">
<polygon stroke-linejoin="round" stroke-linecap="round" stroke-width="0.0800" fill="currentColor" stroke="currentColor" points="17.7209 0.3000 17.7209 0.7000 0.0400 0.2000 0.0400 -0.2000"/>
</g>
<a style="color:inherit;" xlink:href="textedit:///Users/Marc/Projects/violin-music.github.io/tunes/Classical/Albinoni_Adagio/Tomaso-Giovanni-Albinoni-Adagio-in-Sol-minore_%5bPractice%5d.ly:18:9:10">
<g transform="translate(20.6009, 23.3186)">
<path transform="scale(0.0040, -0.0040)" d="M218 136c66 0 108 -36 108 -89c0 -89 -113 -183 -218 -183c-66 0 -108 36 -108 89c0 89 113 183 218 183z" fill="currentColor"/>
</g>
</a>
<g transform="translate(20.6659, 23.8186)">
<rect x="-0.0650" y="-0.3139" width="0.1300" height="3.4696" ry="0.0400" fill="currentColor"/>
</g>
<g transform="translate(14.3905, 27.6286)">
<polygon stroke-linejoin="round" stroke-linecap="round" stroke-width="0.0800" fill="currentColor" stroke="currentColor" points="19.1409 -2.2000 19.1409 -1.8000 0.0400 0.2000 0.0400 -0.2000"/>
</g>
<a style="color:inherit;" xlink:href="textedit:///Users/Marc/Projects/violin-music.github.io/tunes/Classical/Albinoni_Adagio/Tomaso-Giovanni-Albinoni-Adagio-in-Sol-minore_%5bPractice%5d.ly:18:12:13">
<g transform="translate(27.2312, 22.3186)">
<path transform="scale(0.0040, -0.0040)" d="M218 136c66 0 108 -36 108 -89c0 -89 -113 -183 -218 -183c-66 0 -108 36 -108 89c0 89 113 183 218 183z" fill="currentColor"/>
</g>
</a>
<g transform="translate(27.2962, 23.8186)">
<rect x="-0.0650" y="-1.3139" width="0.1300" height="3.7782" ry="0.0400" fill="currentColor"/>
</g>
<g transform="translate(26.0812, 22.3186)">
<path transform="scale(0.0040, -0.0040)" d="M27 41l-1 -66v-11c0 -22 1 -44 4 -66c45 38 93 80 93 139c0 33 -14 67 -43 67c-31 0 -52 -30 -53 -63zM-15 -138l-12 595c8 5 18 8 27 8s19 -3 27 -8l-7 -345c25 21 58 34 91 34c52 0 89 -48 89 -102c0 -80 -86 -117 -147 -169c-15 -13 -24 -38 -45 -38
c-13 0 -23 11 -23 25z" fill="currentColor"/>
</g>
<a style="color:inherit;" xlink:href="textedit:///Users/Marc/Projects/violin-music.github.io/tunes/Classical/Albinoni_Adagio/Tomaso-Giovanni-Albinoni-Adagio-in-Sol-minore_%5bPractice%5d.ly:18:15:16">
<g transform="translate(33.4415, 21.3186)">
<path transform="scale(0.0040, -0.0040)" d="M218 136c66 0 108 -36 108 -89c0 -89 -113 -183 -218 -183c-66 0 -108 36 -108 89c0 89 113 183 218 183z" fill="currentColor"/>
</g>
</a>
<g transform="translate(33.5065, 23.8186)">
<rect x="-0.0650" y="-2.3139" width="0.1300" height="4.1307" ry="0.0400" fill="currentColor"/>
</g>
<a style="color:inherit;" xlink:href="textedit:///Users/Marc/Projects/violin-music.github.io/tunes/Classical/Albinoni_Adagio/Tomaso-Giovanni-Albinoni-Adagio-in-Sol-minore_%5bPractice%5d.ly:19:1:2">
<g transform="translate(39.1518, 22.3186)">
<path transform="scale(0.0040, -0.0040)" d="M218 136c66 0 108 -36 108 -89c0 -89 -113 -183 -218 -183c-66 0 -108 36 -108 89c0 89 113 183 218 183z" fill="currentColor"/>
</g>
</a>
<g transform="translate(39.2168, 23.8186)">
<rect x="-0.0650" y="-1.3139" width="0.1300" height="4.3157" ry="0.0400" fill="currentColor"/>
</g>
<a style="color:inherit;" xlink:href="textedit:///Users/Marc/Projects/violin-music.github.io/tunes/Classical/Albinoni_Adagio/Tomaso-Giovanni-Albinoni-Adagio-in-Sol-minore_%5bPractice%5d.ly:19:6:7">
<g transform="translate(44.8621, 23.3186)">
<path transform="scale(0.0040, -0.0040)" d="M218 136c66 0 108 -36 108 -89c0 -89 -113 -183 -218 -183c-66 0 -108 36 -108 89c0 89 113 183 218 183z" fill="currentColor"/>
</g>
</a>
<g transform="translate(44.9271, 23.8186)">
<rect x="-0.0650" y="-0.3139" width="0.1300" height="3.4765" ry="0.0400" fill="currentColor"/>
</g>
<a style="color:inherit;" xlink:href="textedit:///Users/Marc/Projects/violin-music.github.io/tunes/Classical/Albinoni_Adagio/Tomaso-Giovanni-Albinoni-Adagio-in-Sol-minore_%5bPractice%5d.ly:19:9:10">
<g transform="translate(50.5724, 24.8186)">
<path transform="scale(0.0040, -0.0040)" d="M218 136c66 0 108 -36 108 -89c0 -89 -113 -183 -218 -183c-66 0 -108 36 -108 89c0 89 113 183 218 183z" fill="currentColor"/>
</g>
</a>
<g transform="translate(50.6374, 23.8186)">
<rect x="-0.0650" y="1.1861" width="0.1300" height="2.1372" ry="0.0400" fill="currentColor"/>
</g>
<a style="color:inherit;" xlink:href="textedit:///Users/Marc/Projects/violin-music.github.io/tunes/Classical/Albinoni_Adagio/Tomaso-Giovanni-Albinoni-Adagio-in-Sol-minore_%5bPractice%5d.ly:19:12:13">
<g transform="translate(56.7827, 23.3186)">
<path transform="scale(0.0040, -0.0040)" d="M218 136c66 0 108 -36 108 -89c0 -89 -113 -183 -218 -183c-66 0 -108 36 -108 89c0 89 113 183 218 183z" fill="currentColor"/>
</g>
</a>
<g transform="translate(56.8477, 23.8186)">
<rect x="-0.0650" y="-0.3139" width="0.1300" height="3.8121" ry="0.0400" fill="currentColor"/>
</g>
<a style="color:inherit;" xlink:href="textedit:///Users/Marc/Projects/violin-music.github.io/tunes/Classical/Albinoni_Adagio/Tomaso-Giovanni-Albinoni-Adagio-in-Sol-minore_%5bPractice%5d.ly:20:1:2">
<g transform="translate(65.9338, 22.3186)">
<path transform="scale(0.0040, -0.0040)" d="M218 136c66 0 108 -36 108 -89c0 -89 -113 -183 -218 -183c-66 0 -108 36 -108 89c0 89 113 183 218 183z" fill="currentColor"/>
</g>
</a>
<a style="color:inherit;" xlink:href="textedit:///Users/Marc/Projects/violin-music.github.io/tunes/Classical/Albinoni_Adagio/Tomaso-Giovanni-Albinoni-Adagio-in-Sol-minore_%5bPractice%5d.ly:20:3:4">
<g transform="translate(66.1762, 21.2686)">
<path transform="scale(0.0022, -0.0022)" d="M194 486c16 0 29 15 41 15c13 0 24 -13 24 -31v-341c0 -47 35 -86 81 -86c14 0 21 -10 21 -21s-7 -22 -21 -22c-49 0 -97 14 -146 14s-96 -14 -145 -14c-14 0 -22 11 -22 22s8 21 22 21c46 0 80 39 80 86v137c0 23 -16 35 -30 35c-7 0 -13 -4 -17 -11l-34 -65
c-5 -10 -14 -15 -23 -15c-14 0 -28 12 -28 27c0 4 1 8 3 13l129 250c2 4 7 6 11 6c18 0 37 -20 54 -20z" fill="currentColor"/>
</g>
</a>
<g transform="translate(65.9988, 23.8186)">
<rect x="-0.0650" y="-1.3139" width="0.1300" height="2.1211" ry="0.0400" fill="currentColor"/>
</g>
<g transform="translate(64.7838, 22.3186)">
<path transform="scale(0.0040, -0.0040)" d="M27 41l-1 -66v-11c0 -22 1 -44 4 -66c45 38 93 80 93 139c0 33 -14 67 -43 67c-31 0 -52 -30 -53 -63zM-15 -138l-12 595c8 5 18 8 27 8s19 -3 27 -8l-7 -345c25 21 58 34 91 34c52 0 89 -48 89 -102c0 -80 -86 -117 -147 -169c-15 -13 -24 -38 -45 -38
c-13 0 -23 11 -23 25z" fill="currentColor"/>
</g>
<a style="color:inherit;" xlink:href="textedit:///Users/Marc/Projects/violin-music.github.io/tunes/Classical/Albinoni_Adagio/Tomaso-Giovanni-Albinoni-Adagio-in-Sol-minore_%5bPractice%5d.ly:20:8:9">
<g transform="translate(72.1441, 21.3186)">
<path transform="scale(0.0040, -0.0040)" d="M218 136c66 0 108 -36 108 -89c0 -89 -113 -183 -218 -183c-66 0 -108 36 -108 89c0 89 113 183 218 183z" fill="currentColor"/>
</g>
</a>
<a style="color:inherit;" xlink:href="textedit:///Users/Marc/Projects/violin-music.github.io/tunes/Classical/Albinoni_Adagio/Tomaso-Giovanni-Albinoni-Adagio-in-Sol-minore_%5bPractice%5d.ly:20:9:10">
<g transform="translate(72.4036, 20.2736)">
<path transform="scale(0.0022, -0.0022)" d="M261 266c0 -54 85 -40 85 -125c0 -94 -83 -141 -186 -141c-84 0 -160 54 -160 133c0 32 26 58 58 58s58 -26 58 -58c0 -22 -36 -26 -36 -48c0 -33 42 -42 80 -42c41 0 56 50 56 98v21c0 44 -2 77 -43 77h-65c-18 0 -27 14 -27 27s9 27 27 27h65c42 0 43 36 43 83v11
c0 43 -20 70 -61 70c-34 0 -71 -8 -71 -38c0 -19 32 -23 32 -42c0 -28 -23 -51 -51 -51s-51 23 -51 51c0 72 66 123 141 123c93 0 174 -31 174 -113c0 -94 -68 -67 -68 -121z" fill="currentColor"/>
</g>
</a>
<g transform="translate(72.2091, 23.8186)">
<rect x="-0.0650" y="-2.3139" width="0.1300" height="2.8589" ry="0.0400" fill="currentColor"/>
</g>
<a style="color:inherit;" xlink:href="textedit:///Users/Marc/Projects/violin-music.github.io/tunes/Classical/Albinoni_Adagio/Tomaso-Giovanni-Albinoni-Adagio-in-Sol-minore_%5bPractice%5d.ly:20:13:14">
<g transform="translate(78.3544, 19.8186)">
<path transform="scale(0.0040, -0.0040)" d="M218 136c66 0 108 -36 108 -89c0 -89 -113 -183 -218 -183c-66 0 -108 36 -108 89c0 89 113 183 218 183z" fill="currentColor"/>
</g>
</a>
<a style="color:inherit;" xlink:href="textedit:///Users/Marc/Projects/violin-music.github.io/tunes/Classical/Albinoni_Adagio/Tomaso-Giovanni-Albinoni-Adagio-in-Sol-minore_%5bPractice%5d.ly:20:14:15">
<g transform="translate(78.5797, 18.7736)">
<path transform="scale(0.0022, -0.0022)" d="M94 66c-60 0 -39 -66 -72 -66c-11 0 -22 7 -22 21c0 154 232 162 232 334c0 50 -17 102 -61 102c-33 0 -66 -14 -66 -44c0 -24 31 -37 31 -61c0 -34 -27 -61 -61 -61s-61 27 -61 61c0 84 72 148 157 148c98 0 190 -55 190 -145c0 -140 -131 -154 -225 -205
c85 -2 113 -61 165 -61c45 0 28 41 57 41c11 0 22 -8 22 -21c0 -29 -48 -109 -144 -109c-92 0 -96 66 -142 66z" fill="currentColor"/>
</g>
</a>
<g transform="translate(78.4194, 23.8186)">
<rect x="-0.0650" y="-3.8139" width="0.1300" height="4.0966" ry="0.0400" fill="currentColor"/>
</g>
<a style="color:inherit;" xlink:href="textedit:///Users/Marc/Projects/violin-music.github.io/tunes/Classical/Albinoni_Adagio/Tomaso-Giovanni-Albinoni-Adagio-in-Sol-minore_%5bPractice%5d.ly:20:18:19">
<g transform="translate(84.9847, 18.8186)">
<path transform="scale(0.0040, -0.0040)" d="M218 136c66 0 108 -36 108 -89c0 -89 -113 -183 -218 -183c-66 0 -108 36 -108 89c0 89 113 183 218 183z" fill="currentColor"/>
</g>
</a>
<a style="color:inherit;" xlink:href="textedit:///Users/Marc/Projects/violin-music.github.io/tunes/Classical/Albinoni_Adagio/Tomaso-Giovanni-Albinoni-Adagio-in-Sol-minore_%5bPractice%5d.ly:20:20:21">
<g transform="translate(85.1759, 17.7736)">
<path transform="scale(0.0022, -0.0022)" d="M148 501c10 0 41 -15 72 -15c32 0 63 15 76 15c15 0 26 -11 26 -21c0 -4 -1 -7 -4 -10l-264 -291h134v4c0 60 50 41 75 85c7 11 8 24 14 36c3 7 10 10 17 10c11 0 24 -8 24 -25v-110h70c18 0 27 -14 27 -27s-9 -27 -27 -27h-70c2 -45 36 -82 80 -82c14 0 22 -10 22 -21
s-8 -22 -22 -22c-49 0 -96 14 -145 14s-97 -14 -146 -14c-14 0 -21 11 -21 22s7 21 21 21c44 0 79 37 81 82h-134c-43 0 -57 25 -57 42c0 5 1 10 3 12c73 81 123 182 123 291c0 17 11 31 25 31z" fill="currentColor"/>
</g>
</a>
<g transform="translate(85.0497, 23.8186)">
<rect x="-0.0650" y="-4.8139" width="0.1300" height="4.8166" ry="0.0400" fill="currentColor"/>
</g>
<g transform="translate(83.8347, 18.8186)">
<path transform="scale(0.0040, -0.0040)" d="M27 41l-1 -66v-11c0 -22 1 -44 4 -66c45 38 93 80 93 139c0 33 -14 67 -43 67c-31 0 -52 -30 -53 -63zM-15 -138l-12 595c8 5 18 8 27 8s19 -3 27 -8l-7 -345c25 21 58 34 91 34c52 0 89 -48 89 -102c0 -80 -86 -117 -147 -169c-15 -13 -24 -38 -45 -38
c-13 0 -23 11 -23 25z" fill="currentColor"/>
</g>
<a style="color:inherit;" xlink:href="textedit:///Users/Marc/Projects/violin-music.github.io/tunes/Classical/Albinoni_Adagio/Tomaso-Giovanni-Albinoni-Adagio-in-Sol-minore_%5bPractice%5d.ly:21:1:2">
<g transform="translate(90.6951, 19.8186)">
<path transform="scale(0.0040, -0.0040)" d="M218 136c66 0 108 -36 108 -89c0 -89 -113 -183 -218 -183c-66 0 -108 36 -108 89c0 89 113 183 218 183z" fill="currentColor"/>
</g>
</a>
<g transform="translate(90.7601, 23.8186)">
<rect x="-0.0650" y="-3.8139" width="0.1300" height="4.6291" ry="0.0400" fill="currentColor"/>
</g>
<a style="color:inherit;" xlink:href="textedit:///Users/Marc/Projects/violin-music.github.io/tunes/Classical/Albinoni_Adagio/Tomaso-Giovanni-Albinoni-Adagio-in-Sol-minore_%5bPractice%5d.ly:21:3:4">
<g transform="translate(96.4054, 21.3186)">
<path transform="scale(0.0040, -0.0040)" d="M218 136c66 0 108 -36 108 -89c0 -89 -113 -183 -218 -183c-66 0 -108 36 -108 89c0 89 113 183 218 183z" fill="currentColor"/>
</g>
</a>
<g transform="translate(96.4704, 23.8186)">
<rect x="-0.0650" y="-2.3139" width="0.1300" height="3.5856" ry="0.0400" fill="currentColor"/>
</g>
<a style="color:inherit;" xlink:href="textedit:///Users/Marc/Projects/violin-music.github.io/tunes/Classical/Albinoni_Adagio/Tomaso-Giovanni-Albinoni-Adagio-in-Sol-minore_%5bPractice%5d.ly:21:5:6">
<g transform="translate(102.1157, 22.3186)">
<path transform="scale(0.0040, -0.0040)" d="M218 136c66 0 108 -36 108 -89c0 -89 -113 -183 -218 -183c-66 0 -108 36 -108 89c0 89 113 183 218 183z" fill="currentColor"/>
</g>
</a>
<g transform="translate(102.1807, 23.8186)">
<rect x="-0.0650" y="-1.3139" width="0.1300" height="3.0422" ry="0.0400" fill="currentColor"/>
</g>
<a style="color:inherit;" xlink:href="textedit:///Users/Marc/Projects/violin-music.github.io/tunes/Classical/Albinoni_Adagio/Tomaso-Giovanni-Albinoni-Adagio-in-Sol-minore_%5bPractice%5d.ly:21:8:9">
<g transform="translate(107.8260, 23.3186)">
<path transform="scale(0.0040, -0.0040)" d="M218 136c66 0 108 -36 108 -89c0 -89 -113 -183 -218 -183c-66 0 -108 36 -108 89c0 89 113 183 218 183z" fill="currentColor"/>
</g>
</a>
<g transform="translate(107.8910, 23.8186)">
<rect x="-0.0650" y="-0.3139" width="0.1300" height="2.4987" ry="0.0400" fill="currentColor"/>
</g>
<g transform="translate(5.6906, 32.8186)">
<rect x="78.2572" y="-0.1000" width="1.8053" height="0.2000" ry="0.1000" fill="currentColor"/>
</g>
<g transform="translate(5.6906, 38.8186)">
<rect x="42.5188" y="-0.1000" width="1.9563" height="0.2000" ry="0.1000" fill="currentColor"/>
</g>
<g transform="translate(5.6906, 38.8186)">
<rect x="5.4739" y="-0.1000" width="1.9563" height="0.2000" ry="0.1000" fill="currentColor"/>
</g>
<g transform="translate(5.6906, 37.8186)">
<line stroke-linejoin="round" stroke-linecap="round" stroke-width="0.1000" stroke="currentColor" x1="0.0500" y1="0" x2="108.0705" y2="0"/>
</g>
<g transform="translate(5.6906, 36.8186)">
<line stroke-linejoin="round" stroke-linecap="round" stroke-width="0.1000" stroke="currentColor" x1="0.0500" y1="0" x2="108.0705" y2="0"/>
</g>
<g transform="translate(5.6906, 35.8186)">
<line stroke-linejoin="round" stroke-linecap="round" stroke-width="0.1000" stroke="currentColor" x1="0.0500" y1="0" x2="108.0705" y2="0"/>
</g>
<g transform="translate(5.6906, 34.8186)">
<line stroke-linejoin="round" stroke-linecap="round" stroke-width="0.1000" stroke="currentColor" x1="0.0500" y1="0" x2="108.0705" y2="0"/>
</g>
<g transform="translate(5.6906, 33.8186)">
<line stroke-linejoin="round" stroke-linecap="round" stroke-width="0.1000" stroke="currentColor" x1="0.0500" y1="0" x2="108.0705" y2="0"/>
</g>
<g transform="translate(113.6210, 35.8186)">
<rect x="0.0000" y="-2.0000" width="0.1900" height="4.0000" ry="0.0000" fill="currentColor"/>
</g>
<g transform="translate(61.2304, 35.8186)">
<rect x="0.0000" y="-2.0000" width="0.1900" height="4.0000" ry="0.0000" fill="currentColor"/>
</g>
<g transform="translate(89.9769, 37.6286)">
<polygon stroke-linejoin="round" stroke-linecap="round" stroke-width="0.0800" fill="currentColor" stroke="currentColor" points="17.6524 1.8000 17.6524 2.2000 0.0400 0.2000 0.0400 -0.2000"/>
</g>
<g transform="translate(6.4906, 36.8186)">
<path transform="scale(0.0040, -0.0040)" d="M266 -635h-6c-108 0 -195 88 -195 197c0 58 53 103 112 103c54 0 95 -47 95 -103c0 -52 -43 -95 -95 -95c-11 0 -21 2 -31 6c26 -39 68 -65 117 -65h4zM461 -203c68 24 113 90 113 164c0 90 -66 179 -173 190c19 -89 48 -242 60 -354zM74 28c0 -145 141 -247 264 -247
c1 0 47 0 82 6c-7 64 -29 203 -63 364c-79 -8 -124 -61 -124 -119c0 -44 25 -91 81 -123c5 -5 7 -10 7 -15c0 -11 -10 -22 -22 -22c-15 0 -126 62 -126 187c0 88 58 174 160 197c-14 58 -29 117 -46 175c-107 -121 -213 -243 -213 -403zM250 553c-29 96 -52 170 -52 346
c0 115 55 224 149 292c6 5 14 5 20 0c68 -80 133 -245 133 -358c0 -143 -86 -255 -180 -364c21 -68 39 -138 56 -207c2 0 7 1 13 1c155 0 256 -128 256 -261c0 -113 -74 -212 -180 -246c3 -35 5 -70 5 -105c0 -19 -1 -39 -2 -58c-7 -119 -88 -225 -202 -228l1 43
c93 2 153 92 159 191c1 18 2 37 2 55c0 31 -1 61 -4 92c-5 -1 -44 -8 -89 -8c-193 0 -333 180 -333 374c0 177 131 306 248 441zM428 916c0 34 1 66 -20 129c-99 -48 -162 -149 -162 -259c0 -52 12 -115 36 -194c80 97 146 198 146 324z" fill="currentColor"/>
</g>
<g transform="translate(4.8028, 32.7481)">
<text font-family="serif" font-size="1.7459" text-anchor="start" fill="currentColor">
<tspan>3</tspan>
</text>
</g>
<g transform="translate(64.6403, 38.8186)">
<polygon stroke-linejoin="round" stroke-linecap="round" stroke-width="0.0800" fill="currentColor" stroke="currentColor" points="19.5724 -2.3900 19.5724 -1.9900 0.0400 0.2000 0.0400 -0.2000"/>
</g>
<a style="color:inherit;" xlink:href="textedit:///Users/Marc/Projects/violin-music.github.io/tunes/Classical/Albinoni_Adagio/Tomaso-Giovanni-Albinoni-Adagio-in-Sol-minore_%5bPractice%5d.ly:23:1:2">
<g transform="translate(11.4906, 38.8186)">
<path transform="scale(0.0040, -0.0040)" d="M218 136c66 0 108 -36 108 -89c0 -89 -113 -183 -218 -183c-66 0 -108 36 -108 89c0 89 113 183 218 183z" fill="currentColor"/>
</g>
</a>
<a style="color:inherit;" xlink:href="textedit:///Users/Marc/Projects/violin-music.github.io/tunes/Classical/Albinoni_Adagio/Tomaso-Giovanni-Albinoni-Adagio-in-Sol-minore_%5bPractice%5d.ly:23:3:4">
<g transform="translate(11.7500, 33.2686)">
<path transform="scale(0.0022, -0.0022)" d="M261 266c0 -54 85 -40 85 -125c0 -94 -83 -141 -186 -141c-84 0 -160 54 -160 133c0 32 26 58 58 58s58 -26 58 -58c0 -22 -36 -26 -36 -48c0 -33 42 -42 80 -42c41 0 56 50 56 98v21c0 44 -2 77 -43 77h-65c-18 0 -27 14 -27 27s9 27 27 27h65c42 0 43 36 43 83v11
c0 43 -20 70 -61 70c-34 0 -71 -8 -71 -38c0 -19 32 -23 32 -42c0 -28 -23 -51 -51 -51s-51 23 -51 51c0 72 66 123 141 123c93 0 174 -31 174 -113c0 -94 -68 -67 -68 -121z" fill="currentColor"/>
</g>
</a>
<g transform="translate(12.7298, 35.8186)">
<rect x="-0.0650" y="-1.0066" width="0.1300" height="3.8205" ry="0.0400" fill="currentColor"/>
</g>
<g transform="translate(38.0013, 33.8186)">
<polygon stroke-linejoin="round" stroke-linecap="round" stroke-width="0.0800" fill="currentColor" stroke="currentColor" points="18.1524 0.6100 18.1524 1.0100 0.0400 0.2000 0.0400 -0.2000"/>
</g>
<a style="color:inherit;" xlink:href="textedit:///Users/Marc/Projects/violin-music.github.io/tunes/Classical/Albinoni_Adagio/Tomaso-Giovanni-Albinoni-Adagio-in-Sol-minore_%5bPractice%5d.ly:23:9:10">
<g transform="translate(17.8447, 37.3186)">
<path transform="scale(0.0040, -0.0040)" d="M218 136c66 0 108 -36 108 -89c0 -89 -113 -183 -218 -183c-66 0 -108 36 -108 89c0 89 113 183 218 183z" fill="currentColor"/>
</g>
</a>
<g transform="translate(19.0839, 35.8186)">
<rect x="-0.0650" y="-1.6546" width="0.1300" height="2.9685" ry="0.0400" fill="currentColor"/>
</g>
<g transform="translate(12.6648, 34.8186)">
<polygon stroke-linejoin="round" stroke-linecap="round" stroke-width="0.0800" fill="currentColor" stroke="currentColor" points="19.5724 -2.2000 19.5724 -1.8000 0.0400 0.2000 0.0400 -0.2000"/>
</g>
<a style="color:inherit;" xlink:href="textedit:///Users/Marc/Projects/violin-music.github.io/tunes/Classical/Albinoni_Adagio/Tomaso-Giovanni-Albinoni-Adagio-in-Sol-minore_%5bPractice%5d.ly:23:12:13">
<g transform="translate(24.6188, 36.3186)">
<path transform="scale(0.0040, -0.0040)" d="M218 136c66 0 108 -36 108 -89c0 -89 -113 -183 -218 -183c-66 0 -108 36 -108 89c0 89 113 183 218 183z" fill="currentColor"/>
</g>
</a>
<g transform="translate(25.8580, 35.8186)">
<rect x="-0.0650" y="-2.3454" width="0.1300" height="2.6593" ry="0.0400" fill="currentColor"/>
</g>
<g transform="translate(23.4688, 36.3186)">
<path transform="scale(0.0040, -0.0040)" d="M27 41l-1 -66v-11c0 -22 1 -44 4 -66c45 38 93 80 93 139c0 33 -14 67 -43 67c-31 0 -52 -30 -53 -63zM-15 -138l-12 595c8 5 18 8 27 8s19 -3 27 -8l-7 -345c25 21 58 34 91 34c52 0 89 -48 89 -102c0 -80 -86 -117 -147 -169c-15 -13 -24 -38 -45 -38
c-13 0 -23 11 -23 25z" fill="currentColor"/>
</g>
<a style="color:inherit;" xlink:href="textedit:///Users/Marc/Projects/violin-music.github.io/tunes/Classical/Albinoni_Adagio/Tomaso-Giovanni-Albinoni-Adagio-in-Sol-minore_%5bPractice%5d.ly:23:15:16">
<g transform="translate(30.9730, 35.3186)">
<path transform="scale(0.0040, -0.0040)" d="M218 136c66 0 108 -36 108 -89c0 -89 -113 -183 -218 -183c-66 0 -108 36 -108 89c0 89 113 183 218 183z" fill="currentColor"/>
</g>
</a>
<g transform="translate(32.2122, 35.8186)">
<rect x="-0.0650" y="-2.9934" width="0.1300" height="2.3073" ry="0.0400" fill="currentColor"/>
</g>
<a style="color:inherit;" xlink:href="textedit:///Users/Marc/Projects/violin-music.github.io/tunes/Classical/Albinoni_Adagio/Tomaso-Giovanni-Albinoni-Adagio-in-Sol-minore_%5bPractice%5d.ly:24:1:2">
<g transform="translate(36.8271, 36.3186)">
<path transform="scale(0.0040, -0.0040)" d="M218 136c66 0 108 -36 108 -89c0 -89 -113 -183 -218 -183c-66 0 -108 36 -108 89c0 89 113 183 218 183z" fill="currentColor"/>
</g>
</a>
<g transform="translate(38.0663, 35.8186)">
<rect x="-0.0650" y="-1.9971" width="0.1300" height="2.3110" ry="0.0400" fill="currentColor"/>
</g>
<a style="color:inherit;" xlink:href="textedit:///Users/Marc/Projects/violin-music.github.io/tunes/Classical/Albinoni_Adagio/Tomaso-Giovanni-Albinoni-Adagio-in-Sol-minore_%5bPractice%5d.ly:24:6:7">
<g transform="translate(42.6812, 37.3186)">
<path transform="scale(0.0040, -0.0040)" d="M218 136c66 0 108 -36 108 -89c0 -89 -113 -183 -218 -183c-66 0 -108 36 -108 89c0 89 113 183 218 183z" fill="currentColor"/>
</g>
</a>
<g transform="translate(43.9205, 35.8186)">
<rect x="-0.0650" y="-1.7365" width="0.1300" height="3.0503" ry="0.0400" fill="currentColor"/>
</g>
<a style="color:inherit;" xlink:href="textedit:///Users/Marc/Projects/violin-music.github.io/tunes/Classical/Albinoni_Adagio/Tomaso-Giovanni-Albinoni-Adagio-in-Sol-minore_%5bPractice%5d.ly:24:9:10">
<g transform="translate(48.5354, 38.8186)">
<path transform="scale(0.0040, -0.0040)" d="M218 136c66 0 108 -36 108 -89c0 -89 -113 -183 -218 -183c-66 0 -108 36 -108 89c0 89 113 183 218 183z" fill="currentColor"/>
</g>
</a>
<g transform="translate(49.7746, 35.8186)">
<rect x="-0.0650" y="-1.4758" width="0.1300" height="4.2897" ry="0.0400" fill="currentColor"/>
</g>
<a style="color:inherit;" xlink:href="textedit:///Users/Marc/Projects/violin-music.github.io/tunes/Classical/Albinoni_Adagio/Tomaso-Giovanni-Albinoni-Adagio-in-Sol-minore_%5bPractice%5d.ly:24:12:13">
<g transform="translate(54.8895, 37.3186)">
<path transform="scale(0.0040, -0.0040)" d="M218 136c66 0 108 -36 108 -89c0 -89 -113 -183 -218 -183c-66 0 -108 36 -108 89c0 89 113 183 218 183z" fill="currentColor"/>
</g>
</a>
<g transform="translate(56.1287, 35.8186)">
<rect x="-0.0650" y="-1.1929" width="0.1300" height="2.5068" ry="0.0400" fill="currentColor"/>
</g>
<a style="color:inherit;" xlink:href="textedit:///Users/Marc/Projects/violin-music.github.io/tunes/Classical/Albinoni_Adagio/Tomaso-Giovanni-Albinoni-Adagio-in-Sol-minore_%5bPractice%5d.ly:25:1:2">
<g transform="translate(64.6403, 36.3186)">
<path transform="scale(0.0040, -0.0040)" d="M218 136c66 0 108 -36 108 -89c0 -89 -113 -183 -218 -183c-66 0 -108 36 -108 89c0 89 113 183 218 183z" fill="currentColor"/>
</g>
</a>
<a style="color:inherit;" xlink:href="textedit:///Users/Marc/Projects/violin-music.github.io/tunes/Classical/Albinoni_Adagio/Tomaso-Giovanni-Albinoni-Adagio-in-Sol-minore_%5bPractice%5d.ly:25:3:4">
<g transform="translate(64.8827, 33.2686)">
<path transform="scale(0.0022, -0.0022)" d="M194 486c16 0 29 15 41 15c13 0 24 -13 24 -31v-341c0 -47 35 -86 81 -86c14 0 21 -10 21 -21s-7 -22 -21 -22c-49 0 -97 14 -146 14s-96 -14 -145 -14c-14 0 -22 11 -22 22s8 21 22 21c46 0 80 39 80 86v137c0 23 -16 35 -30 35c-7 0 -13 -4 -17 -11l-34 -65
c-5 -10 -14 -15 -23 -15c-14 0 -28 12 -28 27c0 4 1 8 3 13l129 250c2 4 7 6 11 6c18 0 37 -20 54 -20z" fill="currentColor"/>
</g>
</a>
<g transform="translate(64.7053, 35.8186)">
<rect x="-0.0650" y="0.6861" width="0.1300" height="2.3066" ry="0.0400" fill="currentColor"/>
</g>
<g transform="translate(63.4903, 36.3186)">
<path transform="scale(0.0040, -0.0040)" d="M27 41l-1 -66v-11c0 -22 1 -44 4 -66c45 38 93 80 93 139c0 33 -14 67 -43 67c-31 0 -52 -30 -53 -63zM-15 -138l-12 595c8 5 18 8 27 8s19 -3 27 -8l-7 -345c25 21 58 34 91 34c52 0 89 -48 89 -102c0 -80 -86 -117 -147 -169c-15 -13 -24 -38 -45 -38
c-13 0 -23 11 -23 25z" fill="currentColor"/>
</g>
<a style="color:inherit;" xlink:href="textedit:///Users/Marc/Projects/violin-music.github.io/tunes/Classical/Albinoni_Adagio/Tomaso-Giovanni-Albinoni-Adagio-in-Sol-minore_%5bPractice%5d.ly:25:8:9">
<g transform="translate(70.9945, 35.3186)">
<path transform="scale(0.0040, -0.0040)" d="M218 136c66 0 108 -36 108 -89c0 -89 -113 -183 -218 -183c-66 0 -108 36 -108 89c0 89 113 183 218 183z" fill="currentColor"/>
</g>
</a>
<a style="color:inherit;" xlink:href="textedit:///Users/Marc/Projects/violin-music.github.io/tunes/Classical/Albinoni_Adagio/Tomaso-Giovanni-Albinoni-Adagio-in-Sol-minore_%5bPractice%5d.ly:25:9:10">
<g transform="translate(71.2539, 33.2686)">
<path transform="scale(0.0022, -0.0022)" d="M261 266c0 -54 85 -40 85 -125c0 -94 -83 -141 -186 -141c-84 0 -160 54 -160 133c0 32 26 58 58 58s58 -26 58 -58c0 -22 -36 -26 -36 -48c0 -33 42 -42 80 -42c41 0 56 50 56 98v21c0 44 -2 77 -43 77h-65c-18 0 -27 14 -27 27s9 27 27 27h65c42 0 43 36 43 83v11
c0 43 -20 70 -61 70c-34 0 -71 -8 -71 -38c0 -19 32 -23 32 -42c0 -28 -23 -51 -51 -51s-51 23 -51 51c0 72 66 123 141 123c93 0 174 -31 174 -113c0 -94 -68 -67 -68 -121z" fill="currentColor"/>
</g>
</a>
<g transform="translate(71.0595, 35.8186)">
<rect x="-0.0650" y="-0.3139" width="0.1300" height="2.5971" ry="0.0400" fill="currentColor"/>
</g>
<a style="color:inherit;" xlink:href="textedit:///Users/Marc/Projects/violin-music.github.io/tunes/Classical/Albinoni_Adagio/Tomaso-Giovanni-Albinoni-Adagio-in-Sol-minore_%5bPractice%5d.ly:25:13:14">
<g transform="translate(77.3486, 33.8186)">
<path transform="scale(0.0040, -0.0040)" d="M218 136c66 0 108 -36 108 -89c0 -89 -113 -183 -218 -183c-66 0 -108 36 -108 89c0 89 113 183 218 183z" fill="currentColor"/>
</g>
</a>
<a style="color:inherit;" xlink:href="textedit:///Users/Marc/Projects/violin-music.github.io/tunes/Classical/Albinoni_Adagio/Tomaso-Giovanni-Albinoni-Adagio-in-Sol-minore_%5bPractice%5d.ly:25:14:15">
<g transform="translate(77.5739, 32.7736)">
<path transform="scale(0.0022, -0.0022)" d="M94 66c-60 0 -39 -66 -72 -66c-11 0 -22 7 -22 21c0 154 232 162 232 334c0 50 -17 102 -61 102c-33 0 -66 -14 -66 -44c0 -24 31 -37 31 -61c0 -34 -27 -61 -61 -61s-61 27 -61 61c0 84 72 148 157 148c98 0 190 -55 190 -145c0 -140 -131 -154 -225 -205
c85 -2 113 -61 165 -61c45 0 28 41 57 41c11 0 22 -8 22 -21c0 -29 -48 -109 -144 -109c-92 0 -96 66 -142 66z" fill="currentColor"/>
</g>
</a>
<g transform="translate(77.4136, 35.8186)">
<rect x="-0.0650" y="-1.8139" width="0.1300" height="3.3876" ry="0.0400" fill="currentColor"/>
</g>
<a style="color:inherit;" xlink:href="textedit:///Users/Marc/Projects/violin-music.github.io/tunes/Classical/Albinoni_Adagio/Tomaso-Giovanni-Albinoni-Adagio-in-Sol-minore_%5bPractice%5d.ly:25:18:19">
<g transform="translate(84.1228, 32.8186)">
<path transform="scale(0.0040, -0.0040)" d="M218 136c66 0 108 -36 108 -89c0 -89 -113 -183 -218 -183c-66 0 -108 36 -108 89c0 89 113 183 218 183z" fill="currentColor"/>
</g>
</a>
<a style="color:inherit;" xlink:href="textedit:///Users/Marc/Projects/violin-music.github.io/tunes/Classical/Albinoni_Adagio/Tomaso-Giovanni-Albinoni-Adagio-in-Sol-minore_%5bPractice%5d.ly:25:20:21">
<g transform="translate(84.3139, 31.7736)">
<path transform="scale(0.0022, -0.0022)" d="M148 501c10 0 41 -15 72 -15c32 0 63 15 76 15c15 0 26 -11 26 -21c0 -4 -1 -7 -4 -10l-264 -291h134v4c0 60 50 41 75 85c7 11 8 24 14 36c3 7 10 10 17 10c11 0 24 -8 24 -25v-110h70c18 0 27 -14 27 -27s-9 -27 -27 -27h-70c2 -45 36 -82 80 -82c14 0 22 -10 22 -21
s-8 -22 -22 -22c-49 0 -96 14 -145 14s-97 -14 -146 -14c-14 0 -21 11 -21 22s7 21 21 21c44 0 79 37 81 82h-134c-43 0 -57 25 -57 42c0 5 1 10 3 12c73 81 123 182 123 291c0 17 11 31 25 31z" fill="currentColor"/>
</g>
</a>
<g transform="translate(84.1878, 35.8186)">
<rect x="-0.0650" y="-2.8139" width="0.1300" height="3.6312" ry="0.0400" fill="currentColor"/>
</g>
<g transform="translate(82.9728, 32.8186)">
<path transform="scale(0.0040, -0.0040)" d="M27 41l-1 -66v-11c0 -22 1 -44 4 -66c45 38 93 80 93 139c0 33 -14 67 -43 67c-31 0 -52 -30 -53 -63zM-15 -138l-12 595c8 5 18 8 27 8s19 -3 27 -8l-7 -345c25 21 58 34 91 34c52 0 89 -48 89 -102c0 -80 -86 -117 -147 -169c-15 -13 -24 -38 -45 -38
c-13 0 -23 11 -23 25z" fill="currentColor"/>
</g>
<a style="color:inherit;" xlink:href="textedit:///Users/Marc/Projects/violin-music.github.io/tunes/Classical/Albinoni_Adagio/Tomaso-Giovanni-Albinoni-Adagio-in-Sol-minore_%5bPractice%5d.ly:26:1:2">
<g transform="translate(89.9769, 33.8186)">
<path transform="scale(0.0040, -0.0040)" d="M218 136c66 0 108 -36 108 -89c0 -89 -113 -183 -218 -183c-66 0 -108 36 -108 89c0 89 113 183 218 183z" fill="currentColor"/>
</g>
</a>
<g transform="translate(90.0419, 35.8186)">
<rect x="-0.0650" y="-1.8139" width="0.1300" height="3.6312" ry="0.0400" fill="currentColor"/>
</g>
<a style="color:inherit;" xlink:href="textedit:///Users/Marc/Projects/violin-music.github.io/tunes/Classical/Albinoni_Adagio/Tomaso-Giovanni-Albinoni-Adagio-in-Sol-minore_%5bPractice%5d.ly:26:3:4">
<g transform="translate(95.8310, 35.3186)">
<path transform="scale(0.0040, -0.0040)" d="M218 136c66 0 108 -36 108 -89c0 -89 -113 -183 -218 -183c-66 0 -108 36 -108 89c0 89 113 183 218 183z" fill="currentColor"/>
</g>
</a>
<g transform="translate(95.8960, 35.8186)">
<rect x="-0.0650" y="-0.3139" width="0.1300" height="2.7930" ry="0.0400" fill="currentColor"/>
</g>
<a style="color:inherit;" xlink:href="textedit:///Users/Marc/Projects/violin-music.github.io/tunes/Classical/Albinoni_Adagio/Tomaso-Giovanni-Albinoni-Adagio-in-Sol-minore_%5bPractice%5d.ly:26:5:6">
<g transform="translate(101.6852, 36.3186)">
<path transform="scale(0.0040, -0.0040)" d="M218 136c66 0 108 -36 108 -89c0 -89 -113 -183 -218 -183c-66 0 -108 36 -108 89c0 89 113 183 218 183z" fill="currentColor"/>
</g>
</a>
<g transform="translate(101.7502, 35.8186)">
<rect x="-0.0650" y="0.6861" width="0.1300" height="2.4548" ry="0.0400" fill="currentColor"/>
</g>
<a style="color:inherit;" xlink:href="textedit:///Users/Marc/Projects/violin-music.github.io/tunes/Classical/Albinoni_Adagio/Tomaso-Giovanni-Albinoni-Adagio-in-Sol-minore_%5bPractice%5d.ly:26:8:9">
<g transform="translate(107.5393, 37.3186)">
<path transform="scale(0.0040, -0.0040)" d="M218 136c66 0 108 -36 108 -89c0 -89 -113 -183 -218 -183c-66 0 -108 36 -108 89c0 89 113 183 218 183z" fill="currentColor"/>
</g>
</a>
<g transform="translate(107.6043, 35.8186)">
<rect x="-0.0650" y="1.6861" width="0.1300" height="2.1165" ry="0.0400" fill="currentColor"/>
</g>
<g transform="translate(34.5530, 165.1202)">
<a xlink:href="https://lilypond.org/">
<rect x="0.0000" y="-0.4748" width="50.3955" height="2.0024" fill="none" stroke="none" stroke-width="0.0"/>
</a>
</g>
<g transform="translate(34.5530, 165.1202)">
<text font-family="serif" font-size="2.2000" text-anchor="start" fill="currentColor">
<tspan>Music engraving by LilyPond 2.24.4—www.lilypond.org</tspan>
</text>
</g>
</svg>
