<svg xmlns="http://www.w3.org/2000/svg" xmlns:xlink="http://www.w3.org/1999/xlink" version="1.2" width="210.00mm" height="297.00mm" viewBox="0.0000 -0.0000 119.5016 169.0094">
<style type="text/css">
<![CDATA[
tspan { white-space: pre; }
]]>
</style>
<g transform="translate(47.9201, 6.8594)">
<text font-family="Optima" font-weight="bold" font-size="4.4002" text-anchor="start" fill="currentColor">
<tspan>H</tspan>
</text>
</g>
<g transform="translate(51.3345, 6.8594)">
<text font-family="Optima" font-weight="bold" font-size="3.4921" text-anchor="start" fill="currentColor">
<tspan>IER</tspan>
</text>
</g>
<g transform="translate(56.3535, 6.8594)">
<text font-family="Optima" font-weight="bold" font-size="4.4002" text-anchor="start" fill="currentColor">
<tspan> E</tspan>
</text>
</g>
<g transform="translate(59.7679, 6.8594)">
<text font-family="Optima" font-weight="bold" font-size="3.4921" text-anchor="start" fill="currentColor">
<tspan>NCORE</tspan>
</text>
</g>
<g transform="translate(57.0535, 9.8594)">
<text font-family="Optima" font-size="1.7461" text-anchor="start" fill="currentColor">
<tspan>Violino</tspan>
</text>
</g>
<g transform="translate(98.9587, 6.8594)">
<text font-family="Optima" font-size="1.9600" text-anchor="start" fill="currentColor">
<tspan>Charles Aznavour</tspan>
</text>
</g>
<g transform="translate(5.6906, 29.4219)">
<rect x="103.1464" y="-0.1050" width="2.0660" height="0.2100" ry="0.1050" fill="currentColor"/>
</g>
<g transform="translate(5.6906, 30.5219)">
<rect x="103.1464" y="-0.1050" width="2.0660" height="0.2100" ry="0.1050" fill="currentColor"/>
</g>
<g transform="translate(5.6906, 29.4219)">
<rect x="78.3681" y="-0.1050" width="2.0660" height="0.2100" ry="0.1050" fill="currentColor"/>
</g>
<g transform="translate(5.6906, 30.5219)">
<rect x="78.3681" y="-0.1050" width="2.0660" height="0.2100" ry="0.1050" fill="currentColor"/>
</g>
<g transform="translate(11.3811, 28.3219)">
<line stroke-linejoin="round" stroke-linecap="round" stroke-width="0.1000" stroke="currentColor" x1="0.0500" y1="0" x2="102.3799" y2="0"/>
</g>
<g transform="translate(11.3811, 27.2219)">
<line stroke-linejoin="round" stroke-linecap="round" stroke-width="0.1000" stroke="currentColor" x1="0.0500" y1="0" x2="102.3799" y2="0"/>
</g>
<g transform="translate(11.3811, 26.1219)">
<line stroke-linejoin="round" stroke-linecap="round" stroke-width="0.1000" stroke="currentColor" x1="0.0500" y1="0" x2="102.3799" y2="0"/>
</g>
<g transform="translate(11.3811, 25.0219)">
<line stroke-linejoin="round" stroke-linecap="round" stroke-width="0.1000" stroke="currentColor" x1="0.0500" y1="0" x2="102.3799" y2="0"/>
</g>
<g transform="translate(11.3811, 23.9219)">
<line stroke-linejoin="round" stroke-linecap="round" stroke-width="0.1000" stroke="currentColor" x1="0.0500" y1="0" x2="102.3799" y2="0"/>
</g>
<g transform="translate(113.6210, 26.1219)">
<rect x="0.0000" y="-2.2000" width="0.1900" height="4.4000" ry="0.0000" fill="currentColor"/>
</g>
<g transform="translate(103.8620, 26.1219)">
<rect x="0.0000" y="-2.2000" width="0.1900" height="4.4000" ry="0.0000" fill="currentColor"/>
</g>
<g transform="translate(88.8428, 26.1219)">
<rect x="0.0000" y="-2.2000" width="0.1900" height="4.4000" ry="0.0000" fill="currentColor"/>
</g>
<g transform="translate(79.0838, 26.1219)">
<rect x="0.0000" y="-2.2000" width="0.1900" height="4.4000" ry="0.0000" fill="currentColor"/>
</g>
<g transform="translate(64.3503, 26.1219)">
<rect x="0.0000" y="-2.2000" width="0.1900" height="4.4000" ry="0.0000" fill="currentColor"/>
</g>
<g transform="translate(54.6449, 26.1219)">
<rect x="0.0000" y="-2.2000" width="0.1900" height="4.4000" ry="0.0000" fill="currentColor"/>
</g>
<g transform="translate(44.7966, 26.1219)">
<rect x="0.0000" y="-2.2000" width="0.1900" height="4.4000" ry="0.0000" fill="currentColor"/>
</g>
<g transform="translate(34.9484, 26.1219)">
<rect x="0.0000" y="-2.2000" width="0.1900" height="4.4000" ry="0.0000" fill="currentColor"/>
</g>
<a style="color:inherit;" xlink:href="textedit:///Users/marc.mouries/projects/Sheet-Music/Pop/Charles-Aznavour_Hier-Encore/Charles-Aznavour-Hier-Encore.ly:16:2:3">
<g transform="translate(15.8011, 26.1219)">
<path transform="scale(0.0040, -0.0040)" d="M27 41l-1 -66v-11c0 -22 1 -44 4 -66c45 38 93 80 93 139c0 33 -14 67 -43 67c-31 0 -52 -30 -53 -63zM-15 -138l-12 595c8 5 18 8 27 8s19 -3 27 -8l-7 -345c25 21 58 34 91 34c52 0 89 -48 89 -102c0 -80 -86 -117 -147 -169c-15 -13 -24 -38 -45 -38
c-13 0 -23 11 -23 25z" fill="currentColor"/>
</g>
</a>
<a style="color:inherit;" xlink:href="textedit:///Users/marc.mouries/projects/Sheet-Music/Pop/Charles-Aznavour_Hier-Encore/Charles-Aznavour-Hier-Encore.ly:17:2:3">
<g transform="translate(17.8877, 26.1219)">
<path transform="scale(0.0040, -0.0040)" d="M263 265c0 -33 70 -23 70 -125c0 -92 -79 -140 -179 -140c-79 0 -154 42 -154 113c0 36 30 66 66 66s65 -30 65 -66c0 -25 -40 -28 -40 -53c0 -27 32 -37 63 -37c49 0 63 61 63 117v16c0 54 -2 94 -50 94h-80c-10 0 -14 8 -14 15s4 14 14 14h80c49 0 50 43 50 99v8
c0 54 -18 91 -67 91c-28 0 -57 -9 -57 -33c0 -22 35 -25 35 -47c0 -32 -25 -58 -57 -58s-58 26 -58 58c0 64 67 103 137 103c91 0 169 -33 169 -114c0 -122 -56 -80 -56 -121z" fill="currentColor"/>
</g>
<g transform="translate(17.7511, 28.1379)">
<path transform="scale(0.0040, -0.0040)" d="M196 117h117c0 -48 27 -94 72 -94c8 0 12 -5 12 -11s-4 -12 -12 -12c-44 0 -87 13 -131 13s-87 -13 -131 -13c-8 0 -12 6 -12 12s4 11 12 11c45 0 73 46 73 94zM-2 148c0 12 140 143 140 336c0 10 7 19 16 16c23 -7 47 -13 71 -13s48 6 71 13c14 4 23 -9 17 -16
l-284 -330h167v131c0 34 34 27 68 72c22 30 23 56 36 56c6 0 13 -5 13 -14v-245h72c10 0 15 -7 15 -14s-5 -15 -15 -15h-72v-8h-117v8h-167c-23 0 -31 14 -31 23z" fill="currentColor"/>
</g>
</a>
<a style="color:inherit;" xlink:href="textedit:///Users/marc.mouries/projects/Sheet-Music/Pop/Charles-Aznavour_Hier-Encore/Charles-Aznavour-Hier-Encore.ly:18:2:3">
<g transform="translate(17.7511, 22.5531)">
<rect x="1.0449" y="-2.6727" width="0.1158" height="2.5129" ry="0.0193" fill="currentColor"/>
</g>
<g transform="translate(17.7511, 22.5531)">
<path transform="scale(0.0036, -0.0036)" d="M215 137c67 0 111 -37 111 -92c0 -90 -111 -182 -215 -182c-67 0 -111 37 -111 92c0 90 111 182 215 182z" fill="currentColor"/>
</g>
<g transform="translate(18.9118, 23.0418)">
<text font-family="serif" font-size="2.2001" text-anchor="start" fill="currentColor">
<tspan> = 89</tspan>
</text>
</g>
</a>
<g transform="translate(106.0507, 25.0219)">
<polygon stroke-linejoin="round" stroke-linecap="round" stroke-width="0.0800" fill="currentColor" stroke="currentColor" points="2.3674 -0.0100 2.3674 0.4380 0.0400 0.2240 0.0400 -0.2240"/>
</g>
<a style="color:inherit;" xlink:href="textedit:///Users/marc.mouries/projects/Sheet-Music/Pop/Charles-Aznavour_Hier-Encore/Charles-Aznavour-Hier-Encore.ly:19:5:6">
<g transform="translate(23.3290, 28.8719)">
<path transform="scale(0.0040, -0.0040)" d="M218 136c66 0 108 -36 108 -89c0 -89 -113 -183 -218 -183c-66 0 -108 36 -108 89c0 89 113 183 218 183z" fill="currentColor"/>
</g>
</a>
<g transform="translate(24.5683, 26.1219)">
<rect x="-0.0650" y="-1.1000" width="0.1300" height="3.6639" ry="0.0400" fill="currentColor"/>
</g>
<g transform="translate(24.6333, 25.0619)">
<path transform="scale(0.0040, -0.0040)" d="M0 0v-250h-16v250h16zM0 0c0 -197 207 -336 207 -533c0 -71 -15 -141 -41 -207c-5 -8 -13 -12 -20 -12c-13 0 -26 11 -23 27c26 61 42 126 42 192c0 103 -94 208 -165 283v250z" fill="currentColor"/>
</g>
<g transform="translate(100.2793, 23.7079)">
<polygon stroke-linejoin="round" stroke-linecap="round" stroke-width="0.0800" fill="currentColor" stroke="currentColor" points="2.3674 -0.0100 2.3674 0.4380 0.0400 0.2240 0.0400 -0.2240"/>
</g>
<a style="color:inherit;" xlink:href="textedit:///Users/marc.mouries/projects/Sheet-Music/Pop/Charles-Aznavour_Hier-Encore/Charles-Aznavour-Hier-Encore.ly:19:8:9">
<g transform="translate(25.6965, 28.3219)">
<path transform="scale(0.0040, -0.0040)" d="M218 136c66 0 108 -36 108 -89c0 -89 -113 -183 -218 -183c-66 0 -108 36 -108 89c0 89 113 183 218 183z" fill="currentColor"/>
</g>
</a>
<g transform="translate(26.9357, 26.1219)">
<rect x="-0.0650" y="-1.1058" width="0.1300" height="3.1197" ry="0.0400" fill="currentColor"/>
</g>
<g transform="translate(89.9828, 29.2079)">
<polygon stroke-linejoin="round" stroke-linecap="round" stroke-width="0.0800" fill="currentColor" stroke="currentColor" points="2.3674 -0.0100 2.3674 0.4380 0.0400 0.2240 0.0400 -0.2240"/>
</g>
<a style="color:inherit;" xlink:href="textedit:///Users/marc.mouries/projects/Sheet-Music/Pop/Charles-Aznavour_Hier-Encore/Charles-Aznavour-Hier-Encore.ly:19:11:12">
<g transform="translate(27.9739, 27.7719)">
<path transform="scale(0.0040, -0.0040)" d="M218 136c66 0 108 -36 108 -89c0 -89 -113 -183 -218 -183c-66 0 -108 36 -108 89c0 89 113 183 218 183z" fill="currentColor"/>
</g>
</a>
<g transform="translate(29.2131, 26.1219)">
<rect x="-0.0650" y="-1.3082" width="0.1300" height="2.7721" ry="0.0400" fill="currentColor"/>
</g>
<a style="color:inherit;" xlink:href="textedit:///Users/marc.mouries/projects/Sheet-Music/Pop/Charles-Aznavour_Hier-Encore/Charles-Aznavour-Hier-Encore.ly:25:11:12">
<g transform="translate(95.4745, 25.0219)">
<polygon stroke-linejoin="round" stroke-linecap="round" stroke-width="0.0800" fill="currentColor" stroke="currentColor" points="2.3674 -0.4380 2.3674 0.0100 0.0400 0.2240 0.0400 -0.2240"/>
</g>
</a>
<a style="color:inherit;" xlink:href="textedit:///Users/marc.mouries/projects/Sheet-Music/Pop/Charles-Aznavour_Hier-Encore/Charles-Aznavour-Hier-Encore.ly:19:14:15">
<g transform="translate(30.3458, 26.6719)">
<path transform="scale(0.0040, -0.0040)" d="M218 136c66 0 108 -36 108 -89c0 -89 -113 -183 -218 -183c-66 0 -108 36 -108 89c0 89 113 183 218 183z" fill="currentColor"/>
</g>
</a>
<g transform="translate(30.4108, 26.1219)">
<rect x="-0.0650" y="0.7361" width="0.1300" height="2.5422" ry="0.0400" fill="currentColor"/>
</g>
<g transform="translate(81.2724, 25.0219)">
<polygon stroke-linejoin="round" stroke-linecap="round" stroke-width="0.0800" fill="currentColor" stroke="currentColor" points="2.3674 -0.0100 2.3674 0.4380 0.0400 0.2240 0.0400 -0.2240"/>
</g>
<a style="color:inherit;" xlink:href="textedit:///Users/marc.mouries/projects/Sheet-Music/Pop/Charles-Aznavour_Hier-Encore/Charles-Aznavour-Hier-Encore.ly:19:16:17">
<g transform="translate(32.8732, 25.0219)">
<path transform="scale(0.0040, -0.0040)" d="M218 136c66 0 108 -36 108 -89c0 -89 -113 -183 -218 -183c-66 0 -108 36 -108 89c0 89 113 183 218 183z" fill="currentColor"/>
</g>
</a>
<g transform="translate(32.9382, 26.1219)">
<rect x="-0.0650" y="-0.9139" width="0.1300" height="3.3496" ry="0.0400" fill="currentColor"/>
</g>
<g transform="translate(75.5367, 23.9219)">
<polygon stroke-linejoin="round" stroke-linecap="round" stroke-width="0.0800" fill="currentColor" stroke="currentColor" points="2.3674 -0.4380 2.3674 0.0100 0.0400 0.2240 0.0400 -0.2240"/>
</g>
<g transform="translate(65.4903, 29.2079)">
<polygon stroke-linejoin="round" stroke-linecap="round" stroke-width="0.0800" fill="currentColor" stroke="currentColor" points="2.3674 -0.0100 2.3674 0.4380 0.0400 0.2240 0.0400 -0.2240"/>
</g>
<a style="color:inherit;" xlink:href="textedit:///Users/marc.mouries/projects/Sheet-Music/Pop/Charles-Aznavour_Hier-Encore/Charles-Aznavour-Hier-Encore.ly:20:2:3">
<g transform="translate(36.1471, 24.4719)">
<path transform="scale(0.0040, -0.0040)" d="M314 65c0 23 -19 41 -42 41c-39 0 -204 -110 -231 -143c-7 -8 -10 -18 -10 -28c0 -23 19 -41 42 -41c39 0 203 110 230 143c7 8 11 18 11 28zM262 136c41 0 82 -14 82 -71c0 -26 -16 -112 -74 -151c-25 -17 -87 -50 -187 -50c-41 0 -83 14 -83 71c0 26 16 112 74 151
c25 17 88 50 188 50z" fill="currentColor"/>
</g>
</a>
<g transform="translate(12.1811, 27.2219)">
<path transform="scale(0.0040, -0.0040)" d="M266 -635h-6c-108 0 -195 88 -195 197c0 58 53 103 112 103c54 0 95 -47 95 -103c0 -52 -43 -95 -95 -95c-11 0 -21 2 -31 6c26 -39 68 -65 117 -65h4zM461 -203c68 24 113 90 113 164c0 90 -66 179 -173 190c19 -89 48 -242 60 -354zM74 28c0 -145 141 -247 264 -247
c1 0 47 0 82 6c-7 64 -29 203 -63 364c-79 -8 -124 -61 -124 -119c0 -44 25 -91 81 -123c5 -5 7 -10 7 -15c0 -11 -10 -22 -22 -22c-15 0 -126 62 -126 187c0 88 58 174 160 197c-14 58 -29 117 -46 175c-107 -121 -213 -243 -213 -403zM250 553c-29 96 -52 170 -52 346
c0 115 55 224 149 292c6 5 14 5 20 0c68 -80 133 -245 133 -358c0 -143 -86 -255 -180 -364c21 -68 39 -138 56 -207c2 0 7 1 13 1c155 0 256 -128 256 -261c0 -113 -74 -212 -180 -246c3 -35 5 -70 5 -105c0 -19 -1 -39 -2 -58c-7 -119 -88 -225 -202 -228l1 43
c93 2 153 92 159 191c1 18 2 37 2 55c0 31 -1 61 -4 92c-5 -1 -44 -8 -89 -8c-193 0 -333 180 -333 374c0 177 131 306 248 441zM428 916c0 34 1 66 -20 129c-99 -48 -162 -149 -162 -259c0 -52 12 -115 36 -194c80 97 146 198 146 324z" fill="currentColor"/>
</g>
<g transform="translate(36.2121, 26.1219)">
<rect x="-0.0650" y="-1.3910" width="0.1300" height="3.5910" ry="0.0400" fill="currentColor"/>
</g>
<a style="color:inherit;" xlink:href="textedit:///Users/marc.mouries/projects/Sheet-Music/Pop/Charles-Aznavour_Hier-Encore/Charles-Aznavour-Hier-Encore.ly:23:10:11">
<g transform="translate(70.9819, 25.0219)">
<polygon stroke-linejoin="round" stroke-linecap="round" stroke-width="0.0800" fill="currentColor" stroke="currentColor" points="2.3674 -0.4380 2.3674 0.0100 0.0400 0.2240 0.0400 -0.2240"/>
</g>
</a>
<a style="color:inherit;" xlink:href="textedit:///Users/marc.mouries/projects/Sheet-Music/Pop/Charles-Aznavour_Hier-Encore/Charles-Aznavour-Hier-Encore.ly:20:7:8">
<g transform="translate(40.4440, 24.4719)">
<path transform="scale(0.0040, -0.0040)" d="M218 136c66 0 108 -36 108 -89c0 -89 -113 -183 -218 -183c-66 0 -108 36 -108 89c0 89 113 183 218 183z" fill="currentColor"/>
</g>
</a>
<g transform="translate(40.5090, 26.1219)">
<rect x="-0.0650" y="-1.4639" width="0.1300" height="3.4557" ry="0.0400" fill="currentColor"/>
</g>
<g transform="translate(60.1405, 28.5359)">
<polygon stroke-linejoin="round" stroke-linecap="round" stroke-width="0.0800" fill="currentColor" stroke="currentColor" points="2.1174 0.6620 2.1174 1.1100 0.0400 0.2240 0.0400 -0.2240"/>
</g>
<a style="color:inherit;" xlink:href="textedit:///Users/marc.mouries/projects/Sheet-Music/Pop/Charles-Aznavour_Hier-Encore/Charles-Aznavour-Hier-Encore.ly:20:10:11">
<g transform="translate(42.7214, 25.0219)">
<path transform="scale(0.0040, -0.0040)" d="M218 136c66 0 108 -36 108 -89c0 -89 -113 -183 -218 -183c-66 0 -108 36 -108 89c0 89 113 183 218 183z" fill="currentColor"/>
</g>
</a>
<g transform="translate(42.7864, 26.1219)">
<rect x="-0.0650" y="-0.9139" width="0.1300" height="3.1081" ry="0.0400" fill="currentColor"/>
</g>
<g transform="translate(50.2923, 28.1079)">
<polygon stroke-linejoin="round" stroke-linecap="round" stroke-width="0.0800" fill="currentColor" stroke="currentColor" points="2.3674 -0.0100 2.3674 0.4380 0.0400 0.2240 0.0400 -0.2240"/>
</g>
<a style="color:inherit;" xlink:href="textedit:///Users/marc.mouries/projects/Sheet-Music/Pop/Charles-Aznavour_Hier-Encore/Charles-Aznavour-Hier-Encore.ly:21:2:3">
<g transform="translate(45.9954, 24.4719)">
<path transform="scale(0.0040, -0.0040)" d="M314 65c0 23 -19 41 -42 41c-39 0 -204 -110 -231 -143c-7 -8 -10 -18 -10 -28c0 -23 19 -41 42 -41c39 0 203 110 230 143c7 8 11 18 11 28zM262 136c41 0 82 -14 82 -71c0 -26 -16 -112 -74 -151c-25 -17 -87 -50 -187 -50c-41 0 -83 14 -83 71c0 26 16 112 74 151
c25 17 88 50 188 50z" fill="currentColor"/>
</g>
</a>
<a style="color:inherit;" xlink:href="textedit:///Users/marc.mouries/projects/Sheet-Music/Pop/Charles-Aznavour_Hier-Encore/Charles-Aznavour-Hier-Encore.ly:19:2:3">
<g transform="translate(21.3559, 26.1219)">
<path transform="scale(0.0040, -0.0040)" d="M70 205c79 0 46 -98 91 -98c16 0 54 48 61 63c6 12 23 12 28 0l-123 -420c-8 -7 -17 -10 -27 -10s-20 3 -28 10l117 326c-34 -12 -69 -22 -105 -22c-47 0 -87 34 -87 79c0 40 33 72 73 72z" fill="currentColor"/>
</g>
</a>
<g transform="translate(46.0604, 26.1219)">
<rect x="-0.0650" y="-1.3910" width="0.1300" height="3.5910" ry="0.0400" fill="currentColor"/>
</g>
<a style="color:inherit;" xlink:href="textedit:///Users/marc.mouries/projects/Sheet-Music/Pop/Charles-Aznavour_Hier-Encore/Charles-Aznavour-Hier-Encore.ly:21:5:6">
<g transform="translate(45.9954, 26.1219)">
<path stroke-width="0.0800" stroke-linejoin="round" stroke-linecap="round" stroke="currentColor" fill="currentColor" d="M1.5773 -2.2000C2.1553 -2.8468 3.5190 -2.8468 4.0969 -2.2000L4.0969 -2.2000C3.5190 -2.7268 2.1553 -2.7268 1.5773 -2.2000z"/>
</g>
</a>
<a style="color:inherit;" xlink:href="textedit:///Users/marc.mouries/projects/Sheet-Music/Pop/Charles-Aznavour_Hier-Encore/Charles-Aznavour-Hier-Encore.ly:21:7:8">
<g transform="translate(50.2923, 24.4719)">
<path transform="scale(0.0040, -0.0040)" d="M218 136c66 0 108 -36 108 -89c0 -89 -113 -183 -218 -183c-66 0 -108 36 -108 89c0 89 113 183 218 183z" fill="currentColor"/>
</g>
</a>
<g transform="translate(50.3573, 26.1219)">
<rect x="-0.0650" y="-1.4639" width="0.1300" height="3.4557" ry="0.0400" fill="currentColor"/>
</g>
<g transform="translate(40.4440, 28.1079)">
<polygon stroke-linejoin="round" stroke-linecap="round" stroke-width="0.0800" fill="currentColor" stroke="currentColor" points="2.3674 -0.0100 2.3674 0.4380 0.0400 0.2240 0.0400 -0.2240"/>
</g>
<a style="color:inherit;" xlink:href="textedit:///Users/marc.mouries/projects/Sheet-Music/Pop/Charles-Aznavour_Hier-Encore/Charles-Aznavour-Hier-Encore.ly:21:10:11">
<g transform="translate(52.5697, 25.0219)">
<path transform="scale(0.0040, -0.0040)" d="M218 136c66 0 108 -36 108 -89c0 -89 -113 -183 -218 -183c-66 0 -108 36 -108 89c0 89 113 183 218 183z" fill="currentColor"/>
</g>
</a>
<g transform="translate(52.6347, 26.1219)">
<rect x="-0.0650" y="-0.9139" width="0.1300" height="3.1081" ry="0.0400" fill="currentColor"/>
</g>
<a style="color:inherit;" xlink:href="textedit:///Users/marc.mouries/projects/Sheet-Music/Pop/Charles-Aznavour_Hier-Encore/Charles-Aznavour-Hier-Encore.ly:20:5:6">
<g transform="translate(36.1471, 26.1219)">
<path stroke-width="0.0800" stroke-linejoin="round" stroke-linecap="round" stroke="currentColor" fill="currentColor" d="M1.5773 -2.2000C2.1553 -2.8468 3.5190 -2.8468 4.0969 -2.2000L4.0969 -2.2000C3.5190 -2.7268 2.1553 -2.7268 1.5773 -2.2000z"/>
</g>
</a>
<a style="color:inherit;" xlink:href="textedit:///Users/marc.mouries/projects/Sheet-Music/Pop/Charles-Aznavour_Hier-Encore/Charles-Aznavour-Hier-Encore.ly:22:2:3">
<g transform="translate(55.8436, 24.4719)">
<path transform="scale(0.0040, -0.0040)" d="M314 65c0 23 -19 41 -42 41c-39 0 -204 -110 -231 -143c-7 -8 -10 -18 -10 -28c0 -23 19 -41 42 -41c39 0 203 110 230 143c7 8 11 18 11 28zM262 136c41 0 82 -14 82 -71c0 -26 -16 -112 -74 -151c-25 -17 -87 -50 -187 -50c-41 0 -83 14 -83 71c0 26 16 112 74 151
c25 17 88 50 188 50z" fill="currentColor"/>
</g>
</a>
<g transform="translate(30.3458, 29.4219)">
<polygon stroke-linejoin="round" stroke-linecap="round" stroke-width="0.0800" fill="currentColor" stroke="currentColor" points="2.6174 -1.1100 2.6174 -0.6620 0.0400 0.2240 0.0400 -0.2240"/>
</g>
<g transform="translate(55.9086, 26.1219)">
<rect x="-0.0650" y="-1.3910" width="0.1300" height="3.5910" ry="0.0400" fill="currentColor"/>
</g>
<a style="color:inherit;" xlink:href="textedit:///Users/marc.mouries/projects/Sheet-Music/Pop/Charles-Aznavour_Hier-Encore/Charles-Aznavour-Hier-Encore.ly:19:9:10">
<g transform="translate(26.8707, 25.0219)">
<polygon stroke-linejoin="round" stroke-linecap="round" stroke-width="0.0800" fill="currentColor" stroke="currentColor" points="2.3674 -0.4380 2.3674 0.0100 0.0400 0.2240 0.0400 -0.2240"/>
</g>
</a>
<a style="color:inherit;" xlink:href="textedit:///Users/marc.mouries/projects/Sheet-Music/Pop/Charles-Aznavour_Hier-Encore/Charles-Aznavour-Hier-Encore.ly:22:5:6">
<g transform="translate(60.1405, 25.0219)">
<path transform="scale(0.0040, -0.0040)" d="M218 136c66 0 108 -36 108 -89c0 -89 -113 -183 -218 -183c-66 0 -108 36 -108 89c0 89 113 183 218 183z" fill="currentColor"/>
</g>
</a>
<g transform="translate(60.2055, 26.1219)">
<rect x="-0.0650" y="-0.9139" width="0.1300" height="3.3546" ry="0.0400" fill="currentColor"/>
</g>
<a style="color:inherit;" xlink:href="textedit:///Users/marc.mouries/projects/Sheet-Music/Pop/Charles-Aznavour_Hier-Encore/Charles-Aznavour-Hier-Encore.ly:22:8:9">
<g transform="translate(62.1679, 26.6719)">
<path transform="scale(0.0040, -0.0040)" d="M218 136c66 0 108 -36 108 -89c0 -89 -113 -183 -218 -183c-66 0 -108 36 -108 89c0 89 113 183 218 183z" fill="currentColor"/>
</g>
</a>
<g transform="translate(62.2329, 26.1219)">
<rect x="-0.0650" y="0.7361" width="0.1300" height="2.5372" ry="0.0400" fill="currentColor"/>
</g>
<a style="color:inherit;" xlink:href="textedit:///Users/marc.mouries/projects/Sheet-Music/Pop/Charles-Aznavour_Hier-Encore/Charles-Aznavour-Hier-Encore.ly:23:2:3">
<g transform="translate(65.4903, 25.5719)">
<path transform="scale(0.0040, -0.0040)" d="M218 136c66 0 108 -36 108 -89c0 -89 -113 -183 -218 -183c-66 0 -108 36 -108 89c0 89 113 183 218 183z" fill="currentColor"/>
</g>
</a>
<g transform="translate(65.5553, 26.1219)">
<rect x="-0.0650" y="-0.3639" width="0.1300" height="3.4557" ry="0.0400" fill="currentColor"/>
</g>
<a style="color:inherit;" xlink:href="textedit:///Users/marc.mouries/projects/Sheet-Music/Pop/Charles-Aznavour_Hier-Encore/Charles-Aznavour-Hier-Encore.ly:23:5:6">
<g transform="translate(67.7677, 26.1219)">
<path transform="scale(0.0040, -0.0040)" d="M218 136c66 0 108 -36 108 -89c0 -89 -113 -183 -218 -183c-66 0 -108 36 -108 89c0 89 113 183 218 183z" fill="currentColor"/>
</g>
</a>
<g transform="translate(67.8327, 26.1219)">
<rect x="-0.0650" y="0.1861" width="0.1300" height="3.1081" ry="0.0400" fill="currentColor"/>
</g>
<a style="color:inherit;" xlink:href="textedit:///Users/marc.mouries/projects/Sheet-Music/Pop/Charles-Aznavour_Hier-Encore/Charles-Aznavour-Hier-Encore.ly:23:8:9">
<g transform="translate(69.8077, 28.3219)">
<path transform="scale(0.0040, -0.0040)" d="M218 136c66 0 108 -36 108 -89c0 -89 -113 -183 -218 -183c-66 0 -108 36 -108 89c0 89 113 183 218 183z" fill="currentColor"/>
</g>
</a>
<g transform="translate(71.0469, 26.1219)">
<rect x="-0.0650" y="-1.1058" width="0.1300" height="3.1197" ry="0.0400" fill="currentColor"/>
</g>
<a style="color:inherit;" xlink:href="textedit:///Users/marc.mouries/projects/Sheet-Music/Pop/Charles-Aznavour_Hier-Encore/Charles-Aznavour-Hier-Encore.ly:23:12:13">
<g transform="translate(72.0851, 27.7719)">
<path transform="scale(0.0040, -0.0040)" d="M218 136c66 0 108 -36 108 -89c0 -89 -113 -183 -218 -183c-66 0 -108 36 -108 89c0 89 113 183 218 183z" fill="currentColor"/>
</g>
</a>
<g transform="translate(73.3243, 26.1219)">
<rect x="-0.0650" y="-1.3082" width="0.1300" height="2.7721" ry="0.0400" fill="currentColor"/>
</g>
<a style="color:inherit;" xlink:href="textedit:///Users/marc.mouries/projects/Sheet-Music/Pop/Charles-Aznavour_Hier-Encore/Charles-Aznavour-Hier-Encore.ly:23:15:16">
<g transform="translate(74.3625, 27.2219)">
<path transform="scale(0.0040, -0.0040)" d="M218 136c66 0 108 -36 108 -89c0 -89 -113 -183 -218 -183c-66 0 -108 36 -108 89c0 89 113 183 218 183z" fill="currentColor"/>
</g>
</a>
<g transform="translate(75.6017, 26.1219)">
<rect x="-0.0650" y="-2.2058" width="0.1300" height="3.1197" ry="0.0400" fill="currentColor"/>
</g>
<a style="color:inherit;" xlink:href="textedit:///Users/marc.mouries/projects/Sheet-Music/Pop/Charles-Aznavour_Hier-Encore/Charles-Aznavour-Hier-Encore.ly:23:17:18">
<g transform="translate(76.6399, 26.6719)">
<path transform="scale(0.0040, -0.0040)" d="M218 136c66 0 108 -36 108 -89c0 -89 -113 -183 -218 -183c-66 0 -108 36 -108 89c0 89 113 183 218 183z" fill="currentColor"/>
</g>
</a>
<g transform="translate(77.8791, 26.1219)">
<rect x="-0.0650" y="-2.4082" width="0.1300" height="2.7721" ry="0.0400" fill="currentColor"/>
</g>
<a style="color:inherit;" xlink:href="textedit:///Users/marc.mouries/projects/Sheet-Music/Pop/Charles-Aznavour_Hier-Encore/Charles-Aznavour-Hier-Encore.ly:24:2:3">
<g transform="translate(80.0982, 28.3219)">
<path transform="scale(0.0040, -0.0040)" d="M218 136c66 0 108 -36 108 -89c0 -89 -113 -183 -218 -183c-66 0 -108 36 -108 89c0 89 113 183 218 183z" fill="currentColor"/>
</g>
</a>
<g transform="translate(81.3374, 26.1219)">
<rect x="-0.0650" y="-1.0942" width="0.1300" height="3.1081" ry="0.0400" fill="currentColor"/>
</g>
<a style="color:inherit;" xlink:href="textedit:///Users/marc.mouries/projects/Sheet-Music/Pop/Charles-Aznavour_Hier-Encore/Charles-Aznavour-Hier-Encore.ly:24:5:6">
<g transform="translate(82.3756, 28.8719)">
<path transform="scale(0.0040, -0.0040)" d="M218 136c66 0 108 -36 108 -89c0 -89 -113 -183 -218 -183c-66 0 -108 36 -108 89c0 89 113 183 218 183z" fill="currentColor"/>
</g>
</a>
<g transform="translate(83.6148, 26.1219)">
<rect x="-0.0650" y="-0.8918" width="0.1300" height="3.4557" ry="0.0400" fill="currentColor"/>
</g>
<a style="color:inherit;" xlink:href="textedit:///Users/marc.mouries/projects/Sheet-Music/Pop/Charles-Aznavour_Hier-Encore/Charles-Aznavour-Hier-Encore.ly:24:7:8">
<g transform="translate(84.4030, 30.5219)">
<path transform="scale(0.0040, -0.0040)" d="M314 65c0 23 -19 41 -42 41c-39 0 -204 -110 -231 -143c-7 -8 -10 -18 -10 -28c0 -23 19 -41 42 -41c39 0 203 110 230 143c7 8 11 18 11 28zM262 136c41 0 82 -14 82 -71c0 -26 -16 -112 -74 -151c-25 -17 -87 -50 -187 -50c-41 0 -83 14 -83 71c0 26 16 112 74 151
c25 17 88 50 188 50z" fill="currentColor"/>
</g>
</a>
<g transform="translate(85.7154, 26.1219)">
<rect x="-0.0650" y="-0.0000" width="0.1300" height="4.1410" ry="0.0400" fill="currentColor"/>
</g>
<g transform="translate(110.4936, 26.1219)">
<rect x="-0.0650" y="-0.0000" width="0.1300" height="4.1410" ry="0.0400" fill="currentColor"/>
</g>
<a style="color:inherit;" xlink:href="textedit:///Users/marc.mouries/projects/Sheet-Music/Pop/Charles-Aznavour_Hier-Encore/Charles-Aznavour-Hier-Encore.ly:25:2:3">
<g transform="translate(89.9828, 25.5719)">
<path transform="scale(0.0040, -0.0040)" d="M218 136c66 0 108 -36 108 -89c0 -89 -113 -183 -218 -183c-66 0 -108 36 -108 89c0 89 113 183 218 183z" fill="currentColor"/>
</g>
</a>
<g transform="translate(90.0478, 26.1219)">
<rect x="-0.0650" y="-0.3639" width="0.1300" height="3.4557" ry="0.0400" fill="currentColor"/>
</g>
<a style="color:inherit;" xlink:href="textedit:///Users/marc.mouries/projects/Sheet-Music/Pop/Charles-Aznavour_Hier-Encore/Charles-Aznavour-Hier-Encore.ly:26:6:7">
<g transform="translate(109.1813, 30.5219)">
<path transform="scale(0.0040, -0.0040)" d="M314 65c0 23 -19 41 -42 41c-39 0 -204 -110 -231 -143c-7 -8 -10 -18 -10 -28c0 -23 19 -41 42 -41c39 0 203 110 230 143c7 8 11 18 11 28zM262 136c41 0 82 -14 82 -71c0 -26 -16 -112 -74 -151c-25 -17 -87 -50 -187 -50c-41 0 -83 14 -83 71c0 26 16 112 74 151
c25 17 88 50 188 50z" fill="currentColor"/>
</g>
</a>
<a style="color:inherit;" xlink:href="textedit:///Users/marc.mouries/projects/Sheet-Music/Pop/Charles-Aznavour_Hier-Encore/Charles-Aznavour-Hier-Encore.ly:25:6:7">
<g transform="translate(92.2602, 26.1219)">
<path transform="scale(0.0040, -0.0040)" d="M218 136c66 0 108 -36 108 -89c0 -89 -113 -183 -218 -183c-66 0 -108 36 -108 89c0 89 113 183 218 183z" fill="currentColor"/>
</g>
</a>
<g transform="translate(92.3252, 26.1219)">
<rect x="-0.0650" y="0.1861" width="0.1300" height="3.1081" ry="0.0400" fill="currentColor"/>
</g>
<a style="color:inherit;" xlink:href="textedit:///Users/marc.mouries/projects/Sheet-Music/Pop/Charles-Aznavour_Hier-Encore/Charles-Aznavour-Hier-Encore.ly:25:9:10">
<g transform="translate(94.3002, 28.3219)">
<path transform="scale(0.0040, -0.0040)" d="M218 136c66 0 108 -36 108 -89c0 -89 -113 -183 -218 -183c-66 0 -108 36 -108 89c0 89 113 183 218 183z" fill="currentColor"/>
</g>
</a>
<g transform="translate(95.5395, 26.1219)">
<rect x="-0.0650" y="-1.1058" width="0.1300" height="3.1197" ry="0.0400" fill="currentColor"/>
</g>
<a style="color:inherit;" xlink:href="textedit:///Users/marc.mouries/projects/Sheet-Music/Pop/Charles-Aznavour_Hier-Encore/Charles-Aznavour-Hier-Encore.ly:25:13:14">
<g transform="translate(96.5776, 27.7719)">
<path transform="scale(0.0040, -0.0040)" d="M218 136c66 0 108 -36 108 -89c0 -89 -113 -183 -218 -183c-66 0 -108 36 -108 89c0 89 113 183 218 183z" fill="currentColor"/>
</g>
</a>
<g transform="translate(97.8169, 26.1219)">
<rect x="-0.0650" y="-1.3082" width="0.1300" height="2.7721" ry="0.0400" fill="currentColor"/>
</g>
<a style="color:inherit;" xlink:href="textedit:///Users/marc.mouries/projects/Sheet-Music/Pop/Charles-Aznavour_Hier-Encore/Charles-Aznavour-Hier-Encore.ly:25:16:17">
<g transform="translate(99.1050, 26.6719)">
<path transform="scale(0.0040, -0.0040)" d="M218 136c66 0 108 -36 108 -89c0 -89 -113 -183 -218 -183c-66 0 -108 36 -108 89c0 89 113 183 218 183z" fill="currentColor"/>
</g>
</a>
<g transform="translate(100.3443, 26.1219)">
<rect x="-0.0650" y="-2.4082" width="0.1300" height="2.7721" ry="0.0400" fill="currentColor"/>
</g>
<a style="color:inherit;" xlink:href="textedit:///Users/marc.mouries/projects/Sheet-Music/Pop/Charles-Aznavour_Hier-Encore/Charles-Aznavour-Hier-Encore.ly:25:18:19">
<g transform="translate(101.3824, 27.2219)">
<path transform="scale(0.0040, -0.0040)" d="M218 136c66 0 108 -36 108 -89c0 -89 -113 -183 -218 -183c-66 0 -108 36 -108 89c0 89 113 183 218 183z" fill="currentColor"/>
</g>
</a>
<g transform="translate(102.6217, 26.1219)">
<rect x="-0.0650" y="-2.2058" width="0.1300" height="3.1197" ry="0.0400" fill="currentColor"/>
</g>
<g transform="translate(108.3931, 26.1219)">
<rect x="-0.0650" y="-0.8918" width="0.1300" height="3.4557" ry="0.0400" fill="currentColor"/>
</g>
<a style="color:inherit;" xlink:href="textedit:///Users/marc.mouries/projects/Sheet-Music/Pop/Charles-Aznavour_Hier-Encore/Charles-Aznavour-Hier-Encore.ly:26:4:5">
<g transform="translate(107.1538, 28.8719)">
<path transform="scale(0.0040, -0.0040)" d="M218 136c66 0 108 -36 108 -89c0 -89 -113 -183 -218 -183c-66 0 -108 36 -108 89c0 89 113 183 218 183z" fill="currentColor"/>
</g>
</a>
<a style="color:inherit;" xlink:href="textedit:///Users/marc.mouries/projects/Sheet-Music/Pop/Charles-Aznavour_Hier-Encore/Charles-Aznavour-Hier-Encore.ly:26:2:3">
<g transform="translate(104.8764, 28.3219)">
<path transform="scale(0.0040, -0.0040)" d="M218 136c66 0 108 -36 108 -89c0 -89 -113 -183 -218 -183c-66 0 -108 36 -108 89c0 89 113 183 218 183z" fill="currentColor"/>
</g>
</a>
<g transform="translate(106.1157, 26.1219)">
<rect x="-0.0650" y="-1.0942" width="0.1300" height="3.1081" ry="0.0400" fill="currentColor"/>
</g>
<g transform="translate(5.6906, 38.8219)">
<rect x="91.8589" y="-0.1050" width="1.9563" height="0.2100" ry="0.1050" fill="currentColor"/>
</g>
<g transform="translate(5.6906, 38.8219)">
<rect x="84.4795" y="-0.1050" width="1.9563" height="0.2100" ry="0.1050" fill="currentColor"/>
</g>
<g transform="translate(5.6906, 37.7219)">
<rect x="82.0197" y="-0.1050" width="1.9563" height="0.2100" ry="0.1050" fill="currentColor"/>
</g>
<g transform="translate(5.6906, 38.8219)">
<rect x="82.0197" y="-0.1050" width="1.9563" height="0.2100" ry="0.1050" fill="currentColor"/>
</g>
<g transform="translate(5.6906, 38.8219)">
<rect x="67.5463" y="-0.1050" width="1.9563" height="0.2100" ry="0.1050" fill="currentColor"/>
</g>
<g transform="translate(5.6906, 38.8219)">
<rect x="57.9571" y="-0.1050" width="1.9563" height="0.2100" ry="0.1050" fill="currentColor"/>
</g>
<g transform="translate(5.6906, 37.7219)">
<rect x="55.4973" y="-0.1050" width="1.9563" height="0.2100" ry="0.1050" fill="currentColor"/>
</g>
<g transform="translate(5.6906, 38.8219)">
<rect x="55.4973" y="-0.1050" width="1.9563" height="0.2100" ry="0.1050" fill="currentColor"/>
</g>
<g transform="translate(5.6906, 38.8219)">
<rect x="52.0284" y="-0.1050" width="1.9563" height="0.2100" ry="0.1050" fill="currentColor"/>
</g>
<g transform="translate(5.6906, 37.7219)">
<rect x="49.8186" y="-0.1050" width="1.9563" height="0.2100" ry="0.1050" fill="currentColor"/>
</g>
<g transform="translate(5.6906, 38.8219)">
<rect x="49.8186" y="-0.1050" width="1.9563" height="0.2100" ry="0.1050" fill="currentColor"/>
</g>
<g transform="translate(5.6906, 36.6219)">
<rect x="44.9562" y="-0.1050" width="2.0660" height="0.2100" ry="0.1050" fill="currentColor"/>
</g>
<g transform="translate(5.6906, 37.7219)">
<rect x="44.9562" y="-0.1050" width="2.0660" height="0.2100" ry="0.1050" fill="currentColor"/>
</g>
<g transform="translate(5.6906, 38.8219)">
<rect x="44.9562" y="-0.1050" width="2.0660" height="0.2100" ry="0.1050" fill="currentColor"/>
</g>
<g transform="translate(5.6906, 37.7219)">
<rect x="41.4700" y="-0.1050" width="1.9563" height="0.2100" ry="0.1050" fill="currentColor"/>
</g>
<g transform="translate(5.6906, 38.8219)">
<rect x="41.4700" y="-0.1050" width="1.9563" height="0.2100" ry="0.1050" fill="currentColor"/>
</g>
<g transform="translate(5.6906, 36.6219)">
<rect x="39.0102" y="-0.1050" width="1.9563" height="0.2100" ry="0.1050" fill="currentColor"/>
</g>
<g transform="translate(5.6906, 37.7219)">
<rect x="39.0102" y="-0.1050" width="1.9563" height="0.2100" ry="0.1050" fill="currentColor"/>
</g>
<g transform="translate(5.6906, 38.8219)">
<rect x="39.0102" y="-0.1050" width="1.9563" height="0.2100" ry="0.1050" fill="currentColor"/>
</g>
<g transform="translate(5.6906, 36.6219)">
<rect x="34.1478" y="-0.1050" width="2.0660" height="0.2100" ry="0.1050" fill="currentColor"/>
</g>
<g transform="translate(5.6906, 37.7219)">
<rect x="34.1478" y="-0.1050" width="2.0660" height="0.2100" ry="0.1050" fill="currentColor"/>
</g>
<g transform="translate(5.6906, 38.8219)">
<rect x="34.1478" y="-0.1050" width="2.0660" height="0.2100" ry="0.1050" fill="currentColor"/>
</g>
<g transform="translate(5.6906, 37.7219)">
<rect x="30.6615" y="-0.1050" width="1.9563" height="0.2100" ry="0.1050" fill="currentColor"/>
</g>
<g transform="translate(5.6906, 38.8219)">
<rect x="30.6615" y="-0.1050" width="1.9563" height="0.2100" ry="0.1050" fill="currentColor"/>
</g>
<g transform="translate(5.6906, 36.6219)">
<rect x="28.2017" y="-0.1050" width="1.9563" height="0.2100" ry="0.1050" fill="currentColor"/>
</g>
<g transform="translate(5.6906, 37.7219)">
<rect x="28.2017" y="-0.1050" width="1.9563" height="0.2100" ry="0.1050" fill="currentColor"/>
</g>
<g transform="translate(5.6906, 38.8219)">
<rect x="28.2017" y="-0.1050" width="1.9563" height="0.2100" ry="0.1050" fill="currentColor"/>
</g>
<g transform="translate(5.6906, 36.6219)">
<rect x="23.3393" y="-0.1050" width="2.0660" height="0.2100" ry="0.1050" fill="currentColor"/>
</g>
<g transform="translate(5.6906, 37.7219)">
<rect x="23.3393" y="-0.1050" width="2.0660" height="0.2100" ry="0.1050" fill="currentColor"/>
</g>
<g transform="translate(5.6906, 38.8219)">
<rect x="23.3393" y="-0.1050" width="2.0660" height="0.2100" ry="0.1050" fill="currentColor"/>
</g>
<g transform="translate(5.6906, 37.7219)">
<rect x="19.8887" y="-0.1050" width="1.9563" height="0.2100" ry="0.1050" fill="currentColor"/>
</g>
<g transform="translate(5.6906, 38.8219)">
<rect x="19.8887" y="-0.1050" width="1.9563" height="0.2100" ry="0.1050" fill="currentColor"/>
</g>
<g transform="translate(5.6906, 38.8219)">
<rect x="17.1789" y="-0.1050" width="1.9563" height="0.2100" ry="0.1050" fill="currentColor"/>
</g>
<g transform="translate(5.6906, 44.3219)">
<line stroke-linejoin="round" stroke-linecap="round" stroke-width="0.1000" stroke="currentColor" x1="0.0500" y1="0" x2="108.0705" y2="0"/>
</g>
<g transform="translate(5.6906, 43.2219)">
<line stroke-linejoin="round" stroke-linecap="round" stroke-width="0.1000" stroke="currentColor" x1="0.0500" y1="0" x2="108.0705" y2="0"/>
</g>
<g transform="translate(5.6906, 42.1219)">
<line stroke-linejoin="round" stroke-linecap="round" stroke-width="0.1000" stroke="currentColor" x1="0.0500" y1="0" x2="108.0705" y2="0"/>
</g>
<g transform="translate(5.6906, 41.0219)">
<line stroke-linejoin="round" stroke-linecap="round" stroke-width="0.1000" stroke="currentColor" x1="0.0500" y1="0" x2="108.0705" y2="0"/>
</g>
<g transform="translate(5.6906, 39.9219)">
<line stroke-linejoin="round" stroke-linecap="round" stroke-width="0.1000" stroke="currentColor" x1="0.0500" y1="0" x2="108.0705" y2="0"/>
</g>
<g transform="translate(113.6210, 42.1219)">
<rect x="0.0000" y="-2.2000" width="0.1900" height="4.4000" ry="0.0000" fill="currentColor"/>
</g>
<g transform="translate(102.5808, 42.1219)">
<rect x="0.0000" y="-2.2000" width="0.1900" height="4.4000" ry="0.0000" fill="currentColor"/>
</g>
<g transform="translate(86.8486, 42.1219)">
<rect x="0.0000" y="-2.2000" width="0.1900" height="4.4000" ry="0.0000" fill="currentColor"/>
</g>
<g transform="translate(75.8084, 42.1219)">
<rect x="0.0000" y="-2.2000" width="0.1900" height="4.4000" ry="0.0000" fill="currentColor"/>
</g>
<g transform="translate(60.3263, 42.1219)">
<rect x="0.0000" y="-2.2000" width="0.1900" height="4.4000" ry="0.0000" fill="currentColor"/>
</g>
<g transform="translate(49.8035, 42.1219)">
<rect x="0.0000" y="-2.2000" width="0.1900" height="4.4000" ry="0.0000" fill="currentColor"/>
</g>
<g transform="translate(38.9950, 42.1219)">
<rect x="0.0000" y="-2.2000" width="0.1900" height="4.4000" ry="0.0000" fill="currentColor"/>
</g>
<g transform="translate(28.1866, 42.1219)">
<rect x="0.0000" y="-2.2000" width="0.1900" height="4.4000" ry="0.0000" fill="currentColor"/>
</g>
<g transform="translate(4.8028, 38.8480)">
<text font-family="serif" font-size="1.7461" text-anchor="start" fill="currentColor">
<tspan>9</tspan>
</text>
</g>
<g transform="translate(103.8521, 44.1079)">
<polygon stroke-linejoin="round" stroke-linecap="round" stroke-width="0.0800" fill="currentColor" stroke="currentColor" points="2.5498 -0.0100 2.5498 0.4380 0.0400 0.2240 0.0400 -0.2240"/>
</g>
<a style="color:inherit;" xlink:href="textedit:///Users/marc.mouries/projects/Sheet-Music/Pop/Charles-Aznavour_Hier-Encore/Charles-Aznavour-Hier-Encore.ly:29:2:3">
<g transform="translate(13.4106, 42.1219)">
<path transform="scale(0.0040, -0.0040)" d="M70 205c79 0 46 -98 91 -98c16 0 54 48 61 63c6 12 23 12 28 0l-123 -420c-8 -7 -17 -10 -27 -10s-20 3 -28 10l117 326c-34 -12 -69 -22 -105 -22c-47 0 -87 34 -87 79c0 40 33 72 73 72z" fill="currentColor"/>
</g>
</a>
<g transform="translate(97.8755, 42.1219)">
<polygon stroke-linejoin="round" stroke-linecap="round" stroke-width="0.0800" fill="currentColor" stroke="currentColor" points="2.5498 -0.0100 2.5498 0.4380 0.0400 0.2240 0.0400 -0.2240"/>
</g>
<a style="color:inherit;" xlink:href="textedit:///Users/marc.mouries/projects/Sheet-Music/Pop/Charles-Aznavour_Hier-Encore/Charles-Aznavour-Hier-Encore.ly:29:5:6">
<g transform="translate(15.5662, 41.0219)">
<path transform="scale(0.0040, -0.0040)" d="M218 136c66 0 108 -36 108 -89c0 -89 -113 -183 -218 -183c-66 0 -108 36 -108 89c0 89 113 183 218 183z" fill="currentColor"/>
</g>
</a>
<g transform="translate(15.6312, 42.1219)">
<rect x="-0.0650" y="-0.9139" width="0.1300" height="3.6639" ry="0.0400" fill="currentColor"/>
</g>
<g transform="translate(15.6962, 44.8319)">
<path transform="scale(0.0040, -0.0040)" d="M0 0h-16v250h16v-250zM0 0v250c97 59 224 148 224 259c0 57 -15 112 -40 163c-3 16 10 27 23 27c7 0 15 -3 20 -11c25 -56 40 -117 40 -179c0 -203 -267 -306 -267 -509z" fill="currentColor"/>
</g>
<g transform="translate(88.0363, 42.1219)">
<polygon stroke-linejoin="round" stroke-linecap="round" stroke-width="0.0800" fill="currentColor" stroke="currentColor" points="2.5498 -0.0100 2.5498 0.4380 0.0400 0.2240 0.0400 -0.2240"/>
</g>
<a style="color:inherit;" xlink:href="textedit:///Users/marc.mouries/projects/Sheet-Music/Pop/Charles-Aznavour_Hier-Encore/Charles-Aznavour-Hier-Encore.ly:29:9:10">
<g transform="translate(18.0259, 40.4719)">
<path transform="scale(0.0040, -0.0040)" d="M218 136c66 0 108 -36 108 -89c0 -89 -113 -183 -218 -183c-66 0 -108 36 -108 89c0 89 113 183 218 183z" fill="currentColor"/>
</g>
</a>
<g transform="translate(18.0909, 42.1219)">
<rect x="-0.0650" y="-1.4639" width="0.1300" height="2.7725" ry="0.0400" fill="currentColor"/>
</g>
<a style="color:inherit;" xlink:href="textedit:///Users/marc.mouries/projects/Sheet-Music/Pop/Charles-Aznavour_Hier-Encore/Charles-Aznavour-Hier-Encore.ly:35:11:12">
<g transform="translate(92.7059, 43.4359)">
<polygon stroke-linejoin="round" stroke-linecap="round" stroke-width="0.0800" fill="currentColor" stroke="currentColor" points="2.5498 -0.4380 2.5498 0.0100 0.0400 0.2240 0.0400 -0.2240"/>
</g>
</a>
<a style="color:inherit;" xlink:href="textedit:///Users/marc.mouries/projects/Sheet-Music/Pop/Charles-Aznavour_Hier-Encore/Charles-Aznavour-Hier-Encore.ly:29:12:13">
<g transform="translate(20.4857, 39.9219)">
<path transform="scale(0.0040, -0.0040)" d="M218 136c66 0 108 -36 108 -89c0 -89 -113 -183 -218 -183c-66 0 -108 36 -108 89c0 89 113 183 218 183z" fill="currentColor"/>
</g>
</a>
<g transform="translate(20.5507, 42.1219)">
<rect x="-0.0650" y="-2.0139" width="0.1300" height="3.1193" ry="0.0400" fill="currentColor"/>
</g>
<g transform="translate(77.0797, 44.1079)">
<polygon stroke-linejoin="round" stroke-linecap="round" stroke-width="0.0800" fill="currentColor" stroke="currentColor" points="2.5498 -0.0100 2.5498 0.4380 0.0400 0.2240 0.0400 -0.2240"/>
</g>
<a style="color:inherit;" xlink:href="textedit:///Users/marc.mouries/projects/Sheet-Music/Pop/Charles-Aznavour_Hier-Encore/Charles-Aznavour-Hier-Encore.ly:29:15:16">
<g transform="translate(23.1955, 38.8219)">
<path transform="scale(0.0040, -0.0040)" d="M218 136c66 0 108 -36 108 -89c0 -89 -113 -183 -218 -183c-66 0 -108 36 -108 89c0 89 113 183 218 183z" fill="currentColor"/>
</g>
</a>
<g transform="translate(23.2605, 42.1219)">
<rect x="-0.0650" y="-3.1139" width="0.1300" height="3.3230" ry="0.0400" fill="currentColor"/>
</g>
<g transform="translate(71.1031, 42.3359)">
<polygon stroke-linejoin="round" stroke-linecap="round" stroke-width="0.0800" fill="currentColor" stroke="currentColor" points="2.5498 -0.4380 2.5498 0.0100 0.0400 0.2240 0.0400 -0.2240"/>
</g>
<a style="color:inherit;" xlink:href="textedit:///Users/marc.mouries/projects/Sheet-Music/Pop/Charles-Aznavour_Hier-Encore/Charles-Aznavour-Hier-Encore.ly:29:17:18">
<g transform="translate(25.9053, 37.1719)">
<path transform="scale(0.0040, -0.0040)" d="M218 136c66 0 108 -36 108 -89c0 -89 -113 -183 -218 -183c-66 0 -108 36 -108 89c0 89 113 183 218 183z" fill="currentColor"/>
</g>
</a>
<g transform="translate(25.9703, 42.1219)">
<rect x="-0.0650" y="-4.7639" width="0.1300" height="4.7688" ry="0.0400" fill="currentColor"/>
</g>
<g transform="translate(61.5139, 42.1219)">
<polygon stroke-linejoin="round" stroke-linecap="round" stroke-width="0.0800" fill="currentColor" stroke="currentColor" points="2.5498 -0.0100 2.5498 0.4380 0.0400 0.2240 0.0400 -0.2240"/>
</g>
<a style="color:inherit;" xlink:href="textedit:///Users/marc.mouries/projects/Sheet-Music/Pop/Charles-Aznavour_Hier-Encore/Charles-Aznavour-Hier-Encore.ly:33:10:11">
<g transform="translate(66.1835, 43.4359)">
<polygon stroke-linejoin="round" stroke-linecap="round" stroke-width="0.0800" fill="currentColor" stroke="currentColor" points="2.5498 -0.4380 2.5498 0.0100 0.0400 0.2240 0.0400 -0.2240"/>
</g>
</a>
<a style="color:inherit;" xlink:href="textedit:///Users/marc.mouries/projects/Sheet-Music/Pop/Charles-Aznavour_Hier-Encore/Charles-Aznavour-Hier-Encore.ly:30:2:3">
<g transform="translate(29.3742, 36.6219)">
<path transform="scale(0.0040, -0.0040)" d="M314 65c0 23 -19 41 -42 41c-39 0 -204 -110 -231 -143c-7 -8 -10 -18 -10 -28c0 -23 19 -41 42 -41c39 0 203 110 230 143c7 8 11 18 11 28zM262 136c41 0 82 -14 82 -71c0 -26 -16 -112 -74 -151c-25 -17 -87 -50 -187 -50c-41 0 -83 14 -83 71c0 26 16 112 74 151
c25 17 88 50 188 50z" fill="currentColor"/>
</g>
</a>
<g transform="translate(10.1106, 42.1219)">
<path transform="scale(0.0040, -0.0040)" d="M27 41l-1 -66v-11c0 -22 1 -44 4 -66c45 38 93 80 93 139c0 33 -14 67 -43 67c-31 0 -52 -30 -53 -63zM-15 -138l-12 595c8 5 18 8 27 8s19 -3 27 -8l-7 -345c25 21 58 34 91 34c52 0 89 -48 89 -102c0 -80 -86 -117 -147 -169c-15 -13 -24 -38 -45 -38
c-13 0 -23 11 -23 25z" fill="currentColor"/>
</g>
<g transform="translate(29.4392, 42.1219)">
<rect x="-0.0650" y="-5.2410" width="0.1300" height="5.2410" ry="0.0400" fill="currentColor"/>
</g>
<g transform="translate(55.8352, 42.1219)">
<polygon stroke-linejoin="round" stroke-linecap="round" stroke-width="0.0800" fill="currentColor" stroke="currentColor" points="2.2998 -0.0100 2.2998 0.4380 0.0400 0.2240 0.0400 -0.2240"/>
</g>
<a style="color:inherit;" xlink:href="textedit:///Users/marc.mouries/projects/Sheet-Music/Pop/Charles-Aznavour_Hier-Encore/Charles-Aznavour-Hier-Encore.ly:30:7:8">
<g transform="translate(34.2183, 36.6219)">
<path transform="scale(0.0040, -0.0040)" d="M218 136c66 0 108 -36 108 -89c0 -89 -113 -183 -218 -183c-66 0 -108 36 -108 89c0 89 113 183 218 183z" fill="currentColor"/>
</g>
</a>
<g transform="translate(34.2833, 42.1219)">
<rect x="-0.0650" y="-5.3139" width="0.1300" height="5.3193" ry="0.0400" fill="currentColor"/>
</g>
<g transform="translate(45.0268, 42.1219)">
<polygon stroke-linejoin="round" stroke-linecap="round" stroke-width="0.0800" fill="currentColor" stroke="currentColor" points="2.5498 -0.0100 2.5498 0.4380 0.0400 0.2240 0.0400 -0.2240"/>
</g>
<a style="color:inherit;" xlink:href="textedit:///Users/marc.mouries/projects/Sheet-Music/Pop/Charles-Aznavour_Hier-Encore/Charles-Aznavour-Hier-Encore.ly:30:10:11">
<g transform="translate(36.6781, 37.1719)">
<path transform="scale(0.0040, -0.0040)" d="M218 136c66 0 108 -36 108 -89c0 -89 -113 -183 -218 -183c-66 0 -108 36 -108 89c0 89 113 183 218 183z" fill="currentColor"/>
</g>
</a>
<g transform="translate(36.7431, 42.1219)">
<rect x="-0.0650" y="-4.7639" width="0.1300" height="4.9725" ry="0.0400" fill="currentColor"/>
</g>
<a style="color:inherit;" xlink:href="textedit:///Users/marc.mouries/projects/Sheet-Music/Pop/Charles-Aznavour_Hier-Encore/Charles-Aznavour-Hier-Encore.ly:31:5:6">
<g transform="translate(40.1827, 42.1219)">
<path stroke-width="0.0800" stroke-linejoin="round" stroke-linecap="round" stroke="currentColor" fill="currentColor" d="M0.8887 -6.3000C1.7197 -7.0995 4.4652 -7.0995 5.2962 -6.3000L5.2962 -6.3000C4.4652 -6.9795 1.7197 -6.9795 0.8887 -6.3000z"/>
</g>
</a>
<a style="color:inherit;" xlink:href="textedit:///Users/marc.mouries/projects/Sheet-Music/Pop/Charles-Aznavour_Hier-Encore/Charles-Aznavour-Hier-Encore.ly:31:2:3">
<g transform="translate(40.1827, 36.6219)">
<path transform="scale(0.0040, -0.0040)" d="M314 65c0 23 -19 41 -42 41c-39 0 -204 -110 -231 -143c-7 -8 -10 -18 -10 -28c0 -23 19 -41 42 -41c39 0 203 110 230 143c7 8 11 18 11 28zM262 136c41 0 82 -14 82 -71c0 -26 -16 -112 -74 -151c-25 -17 -87 -50 -187 -50c-41 0 -83 14 -83 71c0 26 16 112 74 151
c25 17 88 50 188 50z" fill="currentColor"/>
</g>
</a>
<g transform="translate(6.4906, 43.2219)">
<path transform="scale(0.0040, -0.0040)" d="M266 -635h-6c-108 0 -195 88 -195 197c0 58 53 103 112 103c54 0 95 -47 95 -103c0 -52 -43 -95 -95 -95c-11 0 -21 2 -31 6c26 -39 68 -65 117 -65h4zM461 -203c68 24 113 90 113 164c0 90 -66 179 -173 190c19 -89 48 -242 60 -354zM74 28c0 -145 141 -247 264 -247
c1 0 47 0 82 6c-7 64 -29 203 -63 364c-79 -8 -124 -61 -124 -119c0 -44 25 -91 81 -123c5 -5 7 -10 7 -15c0 -11 -10 -22 -22 -22c-15 0 -126 62 -126 187c0 88 58 174 160 197c-14 58 -29 117 -46 175c-107 -121 -213 -243 -213 -403zM250 553c-29 96 -52 170 -52 346
c0 115 55 224 149 292c6 5 14 5 20 0c68 -80 133 -245 133 -358c0 -143 -86 -255 -180 -364c21 -68 39 -138 56 -207c2 0 7 1 13 1c155 0 256 -128 256 -261c0 -113 -74 -212 -180 -246c3 -35 5 -70 5 -105c0 -19 -1 -39 -2 -58c-7 -119 -88 -225 -202 -228l1 43
c93 2 153 92 159 191c1 18 2 37 2 55c0 31 -1 61 -4 92c-5 -1 -44 -8 -89 -8c-193 0 -333 180 -333 374c0 177 131 306 248 441zM428 916c0 34 1 66 -20 129c-99 -48 -162 -149 -162 -259c0 -52 12 -115 36 -194c80 97 146 198 146 324z" fill="currentColor"/>
</g>
<g transform="translate(40.2477, 42.1219)">
<rect x="-0.0650" y="-5.2410" width="0.1300" height="5.2410" ry="0.0400" fill="currentColor"/>
</g>
<g transform="translate(34.2183, 42.1219)">
<polygon stroke-linejoin="round" stroke-linecap="round" stroke-width="0.0800" fill="currentColor" stroke="currentColor" points="2.5498 -0.0100 2.5498 0.4380 0.0400 0.2240 0.0400 -0.2240"/>
</g>
<a style="color:inherit;" xlink:href="textedit:///Users/marc.mouries/projects/Sheet-Music/Pop/Charles-Aznavour_Hier-Encore/Charles-Aznavour-Hier-Encore.ly:31:7:8">
<g transform="translate(45.0268, 36.6219)">
<path transform="scale(0.0040, -0.0040)" d="M218 136c66 0 108 -36 108 -89c0 -89 -113 -183 -218 -183c-66 0 -108 36 -108 89c0 89 113 183 218 183z" fill="currentColor"/>
</g>
</a>
<g transform="translate(45.0918, 42.1219)">
<rect x="-0.0650" y="-5.3139" width="0.1300" height="5.3193" ry="0.0400" fill="currentColor"/>
</g>
<a style="color:inherit;" xlink:href="textedit:///Users/marc.mouries/projects/Sheet-Music/Pop/Charles-Aznavour_Hier-Encore/Charles-Aznavour-Hier-Encore.ly:31:10:11">
<g transform="translate(47.4866, 37.1719)">
<path transform="scale(0.0040, -0.0040)" d="M218 136c66 0 108 -36 108 -89c0 -89 -113 -183 -218 -183c-66 0 -108 36 -108 89c0 89 113 183 218 183z" fill="currentColor"/>
</g>
</a>
<g transform="translate(47.5516, 42.1219)">
<rect x="-0.0650" y="-4.7639" width="0.1300" height="4.9725" ry="0.0400" fill="currentColor"/>
</g>
<a style="color:inherit;" xlink:href="textedit:///Users/marc.mouries/projects/Sheet-Music/Pop/Charles-Aznavour_Hier-Encore/Charles-Aznavour-Hier-Encore.ly:30:5:6">
<g transform="translate(29.3742, 42.1219)">
<path stroke-width="0.0800" stroke-linejoin="round" stroke-linecap="round" stroke="currentColor" fill="currentColor" d="M0.8887 -6.3000C1.7197 -7.0995 4.4652 -7.0995 5.2962 -6.3000L5.2962 -6.3000C4.4652 -6.9795 1.7197 -6.9795 0.8887 -6.3000z"/>
</g>
</a>
<g transform="translate(23.1955, 42.3359)">
<polygon stroke-linejoin="round" stroke-linecap="round" stroke-width="0.0800" fill="currentColor" stroke="currentColor" points="2.7998 -0.4380 2.7998 0.0100 0.0400 0.2240 0.0400 -0.2240"/>
</g>
<a style="color:inherit;" xlink:href="textedit:///Users/marc.mouries/projects/Sheet-Music/Pop/Charles-Aznavour_Hier-Encore/Charles-Aznavour-Hier-Encore.ly:32:2:3">
<g transform="translate(50.9911, 36.6219)">
<path transform="scale(0.0040, -0.0040)" d="M314 65c0 23 -19 41 -42 41c-39 0 -204 -110 -231 -143c-7 -8 -10 -18 -10 -28c0 -23 19 -41 42 -41c39 0 203 110 230 143c7 8 11 18 11 28zM262 136c41 0 82 -14 82 -71c0 -26 -16 -112 -74 -151c-25 -17 -87 -50 -187 -50c-41 0 -83 14 -83 71c0 26 16 112 74 151
c25 17 88 50 188 50z" fill="currentColor"/>
</g>
</a>
<g transform="translate(51.0561, 42.1219)">
<rect x="-0.0650" y="-5.2410" width="0.1300" height="5.2410" ry="0.0400" fill="currentColor"/>
</g>
<a style="color:inherit;" xlink:href="textedit:///Users/marc.mouries/projects/Sheet-Music/Pop/Charles-Aznavour_Hier-Encore/Charles-Aznavour-Hier-Encore.ly:29:10:11">
<g transform="translate(18.0259, 43.4359)">
<polygon stroke-linejoin="round" stroke-linecap="round" stroke-width="0.0800" fill="currentColor" stroke="currentColor" points="2.5498 -0.4380 2.5498 0.0100 0.0400 0.2240 0.0400 -0.2240"/>
</g>
</a>
<a style="color:inherit;" xlink:href="textedit:///Users/marc.mouries/projects/Sheet-Music/Pop/Charles-Aznavour_Hier-Encore/Charles-Aznavour-Hier-Encore.ly:32:5:6">
<g transform="translate(55.8352, 37.1719)">
<path transform="scale(0.0040, -0.0040)" d="M218 136c66 0 108 -36 108 -89c0 -89 -113 -183 -218 -183c-66 0 -108 36 -108 89c0 89 113 183 218 183z" fill="currentColor"/>
</g>
</a>
<g transform="translate(55.9002, 42.1219)">
<rect x="-0.0650" y="-4.7639" width="0.1300" height="4.7698" ry="0.0400" fill="currentColor"/>
</g>
<a style="color:inherit;" xlink:href="textedit:///Users/marc.mouries/projects/Sheet-Music/Pop/Charles-Aznavour_Hier-Encore/Charles-Aznavour-Hier-Encore.ly:32:8:9">
<g transform="translate(58.0450, 38.8219)">
<path transform="scale(0.0040, -0.0040)" d="M218 136c66 0 108 -36 108 -89c0 -89 -113 -183 -218 -183c-66 0 -108 36 -108 89c0 89 113 183 218 183z" fill="currentColor"/>
</g>
</a>
<g transform="translate(58.1100, 42.1219)">
<rect x="-0.0650" y="-3.1139" width="0.1300" height="3.3219" ry="0.0400" fill="currentColor"/>
</g>
<a style="color:inherit;" xlink:href="textedit:///Users/marc.mouries/projects/Sheet-Music/Pop/Charles-Aznavour_Hier-Encore/Charles-Aznavour-Hier-Encore.ly:33:2:3">
<g transform="translate(61.5139, 37.7219)">
<path transform="scale(0.0040, -0.0040)" d="M218 136c66 0 108 -36 108 -89c0 -89 -113 -183 -218 -183c-66 0 -108 36 -108 89c0 89 113 183 218 183z" fill="currentColor"/>
</g>
</a>
<g transform="translate(61.5789, 42.1219)">
<rect x="-0.0650" y="-4.2139" width="0.1300" height="4.2193" ry="0.0400" fill="currentColor"/>
</g>
<a style="color:inherit;" xlink:href="textedit:///Users/marc.mouries/projects/Sheet-Music/Pop/Charles-Aznavour_Hier-Encore/Charles-Aznavour-Hier-Encore.ly:33:5:6">
<g transform="translate(63.9737, 38.2719)">
<path transform="scale(0.0040, -0.0040)" d="M218 136c66 0 108 -36 108 -89c0 -89 -113 -183 -218 -183c-66 0 -108 36 -108 89c0 89 113 183 218 183z" fill="currentColor"/>
</g>
</a>
<g transform="translate(64.0387, 42.1219)">
<rect x="-0.0650" y="-3.6639" width="0.1300" height="3.8725" ry="0.0400" fill="currentColor"/>
</g>
<a style="color:inherit;" xlink:href="textedit:///Users/marc.mouries/projects/Sheet-Music/Pop/Charles-Aznavour_Hier-Encore/Charles-Aznavour-Hier-Encore.ly:33:8:9">
<g transform="translate(66.1835, 40.4719)">
<path transform="scale(0.0040, -0.0040)" d="M218 136c66 0 108 -36 108 -89c0 -89 -113 -183 -218 -183c-66 0 -108 36 -108 89c0 89 113 183 218 183z" fill="currentColor"/>
</g>
</a>
<g transform="translate(66.2485, 42.1219)">
<rect x="-0.0650" y="-1.4639" width="0.1300" height="2.7725" ry="0.0400" fill="currentColor"/>
</g>
<a style="color:inherit;" xlink:href="textedit:///Users/marc.mouries/projects/Sheet-Music/Pop/Charles-Aznavour_Hier-Encore/Charles-Aznavour-Hier-Encore.ly:33:12:13">
<g transform="translate(68.6433, 39.9219)">
<path transform="scale(0.0040, -0.0040)" d="M218 136c66 0 108 -36 108 -89c0 -89 -113 -183 -218 -183c-66 0 -108 36 -108 89c0 89 113 183 218 183z" fill="currentColor"/>
</g>
</a>
<g transform="translate(68.7083, 42.1219)">
<rect x="-0.0650" y="-2.0139" width="0.1300" height="3.1193" ry="0.0400" fill="currentColor"/>
</g>
<a style="color:inherit;" xlink:href="textedit:///Users/marc.mouries/projects/Sheet-Music/Pop/Charles-Aznavour_Hier-Encore/Charles-Aznavour-Hier-Encore.ly:33:15:16">
<g transform="translate(71.1031, 39.3719)">
<path transform="scale(0.0040, -0.0040)" d="M218 136c66 0 108 -36 108 -89c0 -89 -113 -183 -218 -183c-66 0 -108 36 -108 89c0 89 113 183 218 183z" fill="currentColor"/>
</g>
</a>
<g transform="translate(71.1681, 42.1219)">
<rect x="-0.0650" y="-2.5639" width="0.1300" height="2.7725" ry="0.0400" fill="currentColor"/>
</g>
<a style="color:inherit;" xlink:href="textedit:///Users/marc.mouries/projects/Sheet-Music/Pop/Charles-Aznavour_Hier-Encore/Charles-Aznavour-Hier-Encore.ly:33:17:18">
<g transform="translate(73.5629, 38.8219)">
<path transform="scale(0.0040, -0.0040)" d="M218 136c66 0 108 -36 108 -89c0 -89 -113 -183 -218 -183c-66 0 -108 36 -108 89c0 89 113 183 218 183z" fill="currentColor"/>
</g>
</a>
<g transform="translate(73.6279, 42.1219)">
<rect x="-0.0650" y="-3.1139" width="0.1300" height="3.1193" ry="0.0400" fill="currentColor"/>
</g>
<a style="color:inherit;" xlink:href="textedit:///Users/marc.mouries/projects/Sheet-Music/Pop/Charles-Aznavour_Hier-Encore/Charles-Aznavour-Hier-Encore.ly:34:2:3">
<g transform="translate(77.0797, 40.4719)">
<path transform="scale(0.0040, -0.0040)" d="M218 136c66 0 108 -36 108 -89c0 -89 -113 -183 -218 -183c-66 0 -108 36 -108 89c0 89 113 183 218 183z" fill="currentColor"/>
</g>
</a>
<g transform="translate(77.1447, 42.1219)">
<rect x="-0.0650" y="-1.4639" width="0.1300" height="3.4553" ry="0.0400" fill="currentColor"/>
</g>
<a style="color:inherit;" xlink:href="textedit:///Users/marc.mouries/projects/Sheet-Music/Pop/Charles-Aznavour_Hier-Encore/Charles-Aznavour-Hier-Encore.ly:34:5:6">
<g transform="translate(79.5395, 41.0219)">
<path transform="scale(0.0040, -0.0040)" d="M218 136c66 0 108 -36 108 -89c0 -89 -113 -183 -218 -183c-66 0 -108 36 -108 89c0 89 113 183 218 183z" fill="currentColor"/>
</g>
</a>
<g transform="translate(79.6045, 42.1219)">
<rect x="-0.0650" y="-0.9139" width="0.1300" height="3.1085" ry="0.0400" fill="currentColor"/>
</g>
<a style="color:inherit;" xlink:href="textedit:///Users/marc.mouries/projects/Sheet-Music/Pop/Charles-Aznavour_Hier-Encore/Charles-Aznavour-Hier-Encore.ly:34:7:8">
<g transform="translate(81.8428, 42.6719)">
<path transform="scale(0.0040, -0.0040)" d="M314 65c0 23 -19 41 -42 41c-39 0 -204 -110 -231 -143c-7 -8 -10 -18 -10 -28c0 -23 19 -41 42 -41c39 0 203 110 230 143c7 8 11 18 11 28zM262 136c41 0 82 -14 82 -71c0 -26 -16 -112 -74 -151c-25 -17 -87 -50 -187 -50c-41 0 -83 14 -83 71c0 26 16 112 74 151
c25 17 88 50 188 50z" fill="currentColor"/>
</g>
</a>
<g transform="translate(83.1551, 42.1219)">
<rect x="-0.0650" y="-3.3000" width="0.1300" height="3.5910" ry="0.0400" fill="currentColor"/>
</g>
<g transform="translate(109.9275, 42.1219)">
<rect x="-0.0650" y="-3.3000" width="0.1300" height="3.5910" ry="0.0400" fill="currentColor"/>
</g>
<a style="color:inherit;" xlink:href="textedit:///Users/marc.mouries/projects/Sheet-Music/Pop/Charles-Aznavour_Hier-Encore/Charles-Aznavour-Hier-Encore.ly:35:2:3">
<g transform="translate(88.0363, 37.7219)">
<path transform="scale(0.0040, -0.0040)" d="M218 136c66 0 108 -36 108 -89c0 -89 -113 -183 -218 -183c-66 0 -108 36 -108 89c0 89 113 183 218 183z" fill="currentColor"/>
</g>
</a>
<g transform="translate(88.1013, 42.1219)">
<rect x="-0.0650" y="-4.2139" width="0.1300" height="4.2193" ry="0.0400" fill="currentColor"/>
</g>
<a style="color:inherit;" xlink:href="textedit:///Users/marc.mouries/projects/Sheet-Music/Pop/Charles-Aznavour_Hier-Encore/Charles-Aznavour-Hier-Encore.ly:36:6:7">
<g transform="translate(108.6152, 42.6719)">
<path transform="scale(0.0040, -0.0040)" d="M314 65c0 23 -19 41 -42 41c-39 0 -204 -110 -231 -143c-7 -8 -10 -18 -10 -28c0 -23 19 -41 42 -41c39 0 203 110 230 143c7 8 11 18 11 28zM262 136c41 0 82 -14 82 -71c0 -26 -16 -112 -74 -151c-25 -17 -87 -50 -187 -50c-41 0 -83 14 -83 71c0 26 16 112 74 151
c25 17 88 50 188 50z" fill="currentColor"/>
</g>
</a>
<a style="color:inherit;" xlink:href="textedit:///Users/marc.mouries/projects/Sheet-Music/Pop/Charles-Aznavour_Hier-Encore/Charles-Aznavour-Hier-Encore.ly:35:6:7">
<g transform="translate(90.4961, 38.2719)">
<path transform="scale(0.0040, -0.0040)" d="M218 136c66 0 108 -36 108 -89c0 -89 -113 -183 -218 -183c-66 0 -108 36 -108 89c0 89 113 183 218 183z" fill="currentColor"/>
</g>
</a>
<g transform="translate(90.5611, 42.1219)">
<rect x="-0.0650" y="-3.6639" width="0.1300" height="3.8725" ry="0.0400" fill="currentColor"/>
</g>
<a style="color:inherit;" xlink:href="textedit:///Users/marc.mouries/projects/Sheet-Music/Pop/Charles-Aznavour_Hier-Encore/Charles-Aznavour-Hier-Encore.ly:35:9:10">
<g transform="translate(92.7059, 40.4719)">
<path transform="scale(0.0040, -0.0040)" d="M218 136c66 0 108 -36 108 -89c0 -89 -113 -183 -218 -183c-66 0 -108 36 -108 89c0 89 113 183 218 183z" fill="currentColor"/>
</g>
</a>
<g transform="translate(92.7709, 42.1219)">
<rect x="-0.0650" y="-1.4639" width="0.1300" height="2.7725" ry="0.0400" fill="currentColor"/>
</g>
<a style="color:inherit;" xlink:href="textedit:///Users/marc.mouries/projects/Sheet-Music/Pop/Charles-Aznavour_Hier-Encore/Charles-Aznavour-Hier-Encore.ly:35:13:14">
<g transform="translate(95.1657, 39.9219)">
<path transform="scale(0.0040, -0.0040)" d="M218 136c66 0 108 -36 108 -89c0 -89 -113 -183 -218 -183c-66 0 -108 36 -108 89c0 89 113 183 218 183z" fill="currentColor"/>
</g>
</a>
<g transform="translate(95.2307, 42.1219)">
<rect x="-0.0650" y="-2.0139" width="0.1300" height="3.1193" ry="0.0400" fill="currentColor"/>
</g>
<a style="color:inherit;" xlink:href="textedit:///Users/marc.mouries/projects/Sheet-Music/Pop/Charles-Aznavour_Hier-Encore/Charles-Aznavour-Hier-Encore.ly:35:16:17">
<g transform="translate(97.8755, 38.8219)">
<path transform="scale(0.0040, -0.0040)" d="M218 136c66 0 108 -36 108 -89c0 -89 -113 -183 -218 -183c-66 0 -108 36 -108 89c0 89 113 183 218 183z" fill="currentColor"/>
</g>
</a>
<g transform="translate(97.9405, 42.1219)">
<rect x="-0.0650" y="-3.1139" width="0.1300" height="3.1193" ry="0.0400" fill="currentColor"/>
</g>
<a style="color:inherit;" xlink:href="textedit:///Users/marc.mouries/projects/Sheet-Music/Pop/Charles-Aznavour_Hier-Encore/Charles-Aznavour-Hier-Encore.ly:35:18:19">
<g transform="translate(100.3353, 39.3719)">
<path transform="scale(0.0040, -0.0040)" d="M218 136c66 0 108 -36 108 -89c0 -89 -113 -183 -218 -183c-66 0 -108 36 -108 89c0 89 113 183 218 183z" fill="currentColor"/>
</g>
</a>
<g transform="translate(100.4003, 42.1219)">
<rect x="-0.0650" y="-2.5639" width="0.1300" height="2.7725" ry="0.0400" fill="currentColor"/>
</g>
<g transform="translate(106.3769, 42.1219)">
<rect x="-0.0650" y="-0.9139" width="0.1300" height="3.1085" ry="0.0400" fill="currentColor"/>
</g>
<a style="color:inherit;" xlink:href="textedit:///Users/marc.mouries/projects/Sheet-Music/Pop/Charles-Aznavour_Hier-Encore/Charles-Aznavour-Hier-Encore.ly:36:4:5">
<g transform="translate(106.3119, 41.0219)">
<path transform="scale(0.0040, -0.0040)" d="M218 136c66 0 108 -36 108 -89c0 -89 -113 -183 -218 -183c-66 0 -108 36 -108 89c0 89 113 183 218 183z" fill="currentColor"/>
</g>
</a>
<a style="color:inherit;" xlink:href="textedit:///Users/marc.mouries/projects/Sheet-Music/Pop/Charles-Aznavour_Hier-Encore/Charles-Aznavour-Hier-Encore.ly:36:2:3">
<g transform="translate(103.8521, 40.4719)">
<path transform="scale(0.0040, -0.0040)" d="M218 136c66 0 108 -36 108 -89c0 -89 -113 -183 -218 -183c-66 0 -108 36 -108 89c0 89 113 183 218 183z" fill="currentColor"/>
</g>
</a>
<g transform="translate(103.9171, 42.1219)">
<rect x="-0.0650" y="-1.4639" width="0.1300" height="3.4553" ry="0.0400" fill="currentColor"/>
</g>
</svg>
