<svg xmlns="http://www.w3.org/2000/svg" xmlns:xlink="http://www.w3.org/1999/xlink" version="1.2" width="200.00mm" height="297.00mm" viewBox="0.0000 -0.0000 103.4646 153.6449">
<style type="text/css">
<![CDATA[
tspan { white-space: pre; }
]]>
</style>
<g transform="translate(31.6343, 11.8309)">
<text font-family="Optima" font-weight="bold" font-size="4.3998" text-anchor="start" fill="currentColor">
<tspan>H</tspan>
</text>
</g>
<g transform="translate(35.0486, 11.8309)">
<text font-family="Optima" font-weight="bold" font-size="3.4924" text-anchor="start" fill="currentColor">
<tspan>ATIKVAH</tspan>
</text>
</g>
<g transform="translate(49.5440, 11.8309)">
<text font-family="Optima" font-weight="bold" font-size="4.3998" text-anchor="start" fill="currentColor">
<tspan> (T</tspan>
</text>
</g>
<g transform="translate(54.6655, 11.8309)">
<text font-family="Optima" font-weight="bold" font-size="3.4924" text-anchor="start" fill="currentColor">
<tspan>HE</tspan>
</text>
</g>
<g transform="translate(59.1352, 11.8309)">
<text font-family="Optima" font-weight="bold" font-size="4.3998" text-anchor="start" fill="currentColor">
<tspan> H</tspan>
</text>
</g>
<g transform="translate(63.7600, 11.8309)">
<text font-family="Optima" font-weight="bold" font-size="3.4924" text-anchor="start" fill="currentColor">
<tspan>OPE</tspan>
</text>
</g>
<g transform="translate(70.3714, 11.8309)">
<text font-family="Optima" font-weight="bold" font-size="4.3998" text-anchor="start" fill="currentColor">
<tspan>)</tspan>
</text>
</g>
<g transform="translate(42.4826, 14.8309)">
<text font-family="Optima" font-size="1.7460" text-anchor="start" fill="currentColor">
<tspan>Israel's National Anthem</tspan>
</text>
</g>
<g transform="translate(89.2589, 11.8309)">
<text font-family="Optima" font-size="1.9602" text-anchor="start" fill="currentColor">
<tspan>Traditional</tspan>
</text>
</g>
<g transform="translate(5.1732, 28.0635)">
<rect x="79.1680" y="-0.1020" width="2.0620" height="0.2040" ry="0.1020" fill="currentColor"/>
</g>
<g transform="translate(5.1732, 26.9635)">
<rect x="70.6425" y="-0.1020" width="1.9578" height="0.2040" ry="0.1020" fill="currentColor"/>
</g>
<g transform="translate(5.1732, 28.0635)">
<rect x="70.6425" y="-0.1020" width="1.9578" height="0.2040" ry="0.1020" fill="currentColor"/>
</g>
<g transform="translate(5.1732, 28.0635)">
<rect x="65.0101" y="-0.1020" width="1.9578" height="0.2040" ry="0.1020" fill="currentColor"/>
</g>
<g transform="translate(5.1732, 28.0635)">
<rect x="59.6276" y="-0.1020" width="1.9578" height="0.2040" ry="0.1020" fill="currentColor"/>
</g>
<g transform="translate(5.1732, 28.0635)">
<rect x="54.2452" y="-0.1020" width="1.9578" height="0.2040" ry="0.1020" fill="currentColor"/>
</g>
<g transform="translate(5.1732, 28.0635)">
<rect x="42.6608" y="-0.1020" width="1.9578" height="0.2040" ry="0.1020" fill="currentColor"/>
</g>
<g transform="translate(5.1732, 28.0635)">
<rect x="33.2011" y="-0.1020" width="1.9578" height="0.2040" ry="0.1020" fill="currentColor"/>
</g>
<g transform="translate(5.1732, 33.5635)">
<line stroke-linejoin="round" stroke-linecap="round" stroke-width="0.0940" stroke="currentColor" x1="0.0470" y1="0" x2="93.0711" y2="0"/>
</g>
<g transform="translate(5.1732, 32.4635)">
<line stroke-linejoin="round" stroke-linecap="round" stroke-width="0.0940" stroke="currentColor" x1="0.0470" y1="0" x2="93.0711" y2="0"/>
</g>
<g transform="translate(5.1732, 31.3635)">
<line stroke-linejoin="round" stroke-linecap="round" stroke-width="0.0940" stroke="currentColor" x1="0.0470" y1="0" x2="93.0711" y2="0"/>
</g>
<g transform="translate(5.1732, 30.2635)">
<line stroke-linejoin="round" stroke-linecap="round" stroke-width="0.0940" stroke="currentColor" x1="0.0470" y1="0" x2="93.0711" y2="0"/>
</g>
<g transform="translate(5.1732, 29.1635)">
<line stroke-linejoin="round" stroke-linecap="round" stroke-width="0.0940" stroke="currentColor" x1="0.0470" y1="0" x2="93.0711" y2="0"/>
</g>
<g transform="translate(98.1127, 31.3635)">
<rect x="0.0000" y="-2.2000" width="0.1786" height="4.4000" ry="0.0000" fill="currentColor"/>
</g>
<g transform="translate(81.3816, 31.3635)">
<rect x="0.0000" y="-2.2000" width="0.1786" height="4.4000" ry="0.0000" fill="currentColor"/>
</g>
<g transform="translate(57.4414, 31.3635)">
<rect x="0.0000" y="-2.2000" width="0.1786" height="4.4000" ry="0.0000" fill="currentColor"/>
</g>
<g transform="translate(36.3973, 31.3635)">
<rect x="0.0000" y="-2.2000" width="0.1786" height="4.4000" ry="0.0000" fill="currentColor"/>
</g>
<g transform="translate(70.5096, 31.5805)">
<polygon stroke-linejoin="round" stroke-linecap="round" stroke-width="0.0727" fill="currentColor" stroke="currentColor" points="5.7183 -0.4446 5.7183 0.0106 0.0364 0.2276 0.0364 -0.2276"/>
</g>
<g transform="translate(59.7447, 31.3635)">
<polygon stroke-linejoin="round" stroke-linecap="round" stroke-width="0.0727" fill="currentColor" stroke="currentColor" points="5.4683 -0.0106 5.4683 0.4446 0.0364 0.2276 0.0364 -0.2276"/>
</g>
<a style="color:inherit;" xlink:href="textedit:///Users/marc.mouries/projects/Sheet-Music/Folk_Jewish/Hatikva/hatikva.ly:30:3:4">
<g transform="translate(15.1177, 30.2635)">
<path transform="scale(0.0040, -0.0040)" d="M220 135c11 0 106 -2 106 -87c0 -89 -114 -183 -220 -183c-11 0 -106 2 -106 87c0 89 114 183 220 183z" fill="currentColor"/>
</g>
</a>
<g transform="translate(5.9732, 32.4635)">
<path transform="scale(0.0040, -0.0040)" d="M267 -593l-1 -41h-5c-108 0 -196 88 -196 196c0 58 54 104 113 104c54 0 95 -48 95 -104c0 -52 -43 -95 -95 -95c-11 0 -23 3 -34 8c26 -40 69 -68 119 -68h4zM644 2c0 -112 -73 -212 -180 -245c3 -35 5 -71 5 -107c0 -19 -1 -38 -2 -57c-7 -119 -87 -224 -201 -227l1 41
c43 1 161 25 161 246c0 31 -1 63 -4 94c-5 -1 -44 -8 -89 -8c-193 0 -333 179 -333 373c0 177 132 307 249 441c-28 95 -50 169 -50 345c0 116 56 226 150 294c5 4 13 3 18 -1c67 -81 132 -245 132 -358c0 -143 -86 -255 -181 -364c20 -69 38 -138 55 -208c2 0 7 1 14 1
c155 0 255 -128 255 -260zM460 -204c70 24 115 91 115 165c0 91 -68 182 -176 192c19 -89 48 -246 61 -357zM73 30c0 -146 141 -250 265 -250c1 0 47 0 82 6c-7 63 -29 202 -64 366c-79 -9 -124 -62 -124 -120c0 -44 26 -91 82 -123c5 -4 6 -10 6 -15c0 -11 -9 -21 -21 -21
c-15 0 -125 61 -125 186c0 88 58 173 159 196c-14 59 -30 119 -46 177c-107 -121 -214 -242 -214 -402zM431 915c0 34 0 66 -21 132c-99 -49 -162 -150 -162 -260c0 -56 12 -119 35 -197c81 97 148 199 148 325z" fill="currentColor"/>
</g>
<a style="color:inherit;" xlink:href="textedit:///Users/marc.mouries/projects/Sheet-Music/Folk_Jewish/Hatikva/hatikva.ly:26:4:5">
<g transform="translate(9.5846, 31.3635)">
<path transform="scale(0.0040, -0.0040)" d="M26 43l-1 -68v-11c0 -22 0 -44 3 -66c46 38 95 80 95 139c0 34 -14 68 -44 68c-31 0 -52 -29 -53 -62zM-14 -137l-12 598c8 5 17 6 26 6s18 -1 26 -6l-7 -348c25 20 57 32 90 32c52 0 91 -47 91 -101c0 -81 -88 -118 -150 -169c-15 -12 -22 -35 -42 -35
c-12 0 -22 10 -22 23z" fill="currentColor"/>
</g>
</a>
<a style="color:inherit;" xlink:href="textedit:///Users/marc.mouries/projects/Sheet-Music/Folk_Jewish/Hatikva/hatikva.ly:25:4:5">
<g transform="translate(11.5967, 31.3635)">
<path transform="scale(0.0040, -0.0040)" d="M228 0c-88 0 -89 66 -144 66c-30 0 -59 -22 -62 -56c-1 -7 -6 -10 -11 -10c-6 0 -11 4 -11 11c0 154 232 170 232 344c0 60 -17 123 -69 123c-25 0 -47 -15 -47 -37c0 -27 35 -41 35 -68c0 -38 -31 -69 -69 -69s-69 31 -69 69c0 75 71 127 150 127c94 0 182 -57 182 -145
c0 -153 -155 -159 -250 -224c10 2 21 4 32 4c82 0 111 -59 171 -59c47 0 36 37 53 37c6 0 12 -4 12 -11c0 -21 -42 -102 -135 -102z" fill="currentColor"/>
</g>
<g transform="translate(11.5346, 33.3795)">
<path transform="scale(0.0040, -0.0040)" d="M198 113h113c0 -47 28 -91 71 -91c7 0 11 -5 11 -11s-4 -11 -11 -11c-43 0 -84 13 -127 13s-85 -13 -128 -13c-7 0 -11 5 -11 11s4 11 11 11c43 0 71 44 71 91zM-2 147c0 13 143 147 143 337c0 10 8 19 16 16c22 -7 45 -13 69 -13s47 6 69 13c13 4 22 -9 16 -16
l-283 -331h170v138c0 33 35 26 67 70c11 15 17 33 25 50c4 10 21 6 21 -8v-250h71c9 0 14 -7 14 -14s-5 -14 -14 -14h-71v-12h-113v12h-170c-22 0 -30 13 -30 22z" fill="currentColor"/>
</g>
</a>
<g transform="translate(15.1788, 31.3635)">
<rect x="-0.0611" y="-0.9081" width="0.1222" height="3.1057" ry="0.0364" fill="currentColor"/>
</g>
<a style="color:inherit;" xlink:href="textedit:///Users/marc.mouries/projects/Sheet-Music/Folk_Jewish/Hatikva/hatikva.ly:30:42:43">
<g transform="translate(70.5096, 31.3635)">
<path stroke-width="0.0752" stroke-linejoin="round" stroke-linecap="round" stroke="currentColor" fill="currentColor" d="M0.5692 -4.9418C1.6232 -6.3431 4.6979 -6.9435 6.2016 -6.0418L6.2016 -6.0418C4.7195 -6.8328 1.6448 -6.2323 0.5692 -4.9418z"/>
</g>
</a>
<a style="color:inherit;" xlink:href="textedit:///Users/marc.mouries/projects/Sheet-Music/Folk_Jewish/Hatikva/hatikva.ly:30:8:9">
<g transform="translate(20.5001, 29.7135)">
<path transform="scale(0.0040, -0.0040)" d="M220 135c11 0 106 -2 106 -87c0 -89 -114 -183 -220 -183c-11 0 -106 2 -106 87c0 89 114 183 220 183z" fill="currentColor"/>
</g>
</a>
<g transform="translate(20.5612, 31.3635)">
<rect x="-0.0611" y="-1.4581" width="0.1222" height="3.4436" ry="0.0364" fill="currentColor"/>
</g>
<a style="color:inherit;" xlink:href="textedit:///Users/marc.mouries/projects/Sheet-Music/Folk_Jewish/Hatikva/hatikva.ly:30:35:36">
<g transform="translate(59.7447, 31.3635)">
<path stroke-width="0.0752" stroke-linejoin="round" stroke-linecap="round" stroke="currentColor" fill="currentColor" d="M0.6968 -4.9418C2.0551 -5.9409 4.9512 -5.6450 6.0792 -4.3918L6.0792 -4.3918C4.9397 -5.5327 2.0436 -5.8287 0.6968 -4.9418z"/>
</g>
</a>
<a style="color:inherit;" xlink:href="textedit:///Users/marc.mouries/projects/Sheet-Music/Folk_Jewish/Hatikva/hatikva.ly:30:12:13">
<g transform="translate(25.8825, 29.1635)">
<path transform="scale(0.0040, -0.0040)" d="M220 135c11 0 106 -2 106 -87c0 -89 -114 -183 -220 -183c-11 0 -106 2 -106 87c0 89 114 183 220 183z" fill="currentColor"/>
</g>
</a>
<g transform="translate(25.9436, 31.3635)">
<rect x="-0.0611" y="-2.0081" width="0.1222" height="3.1057" ry="0.0364" fill="currentColor"/>
</g>
<g transform="translate(25.8825, 32.4635)">
<polygon stroke-linejoin="round" stroke-linecap="round" stroke-width="0.0727" fill="currentColor" stroke="currentColor" points="5.4683 -0.4446 5.4683 0.0106 0.0364 0.2276 0.0364 -0.2276"/>
</g>
<a style="color:inherit;" xlink:href="textedit:///Users/marc.mouries/projects/Sheet-Music/Folk_Jewish/Hatikva/hatikva.ly:30:16:17">
<g transform="translate(31.2649, 28.6135)">
<path transform="scale(0.0040, -0.0040)" d="M220 135c11 0 106 -2 106 -87c0 -89 -114 -183 -220 -183c-11 0 -106 2 -106 87c0 89 114 183 220 183z" fill="currentColor"/>
</g>
</a>
<g transform="translate(31.3260, 31.3635)">
<rect x="-0.0611" y="-2.5581" width="0.1222" height="3.4436" ry="0.0364" fill="currentColor"/>
</g>
<g transform="translate(15.1177, 33.5635)">
<polygon stroke-linejoin="round" stroke-linecap="round" stroke-width="0.0727" fill="currentColor" stroke="currentColor" points="5.4683 -0.4446 5.4683 0.0106 0.0364 0.2276 0.0364 -0.2276"/>
</g>
<a style="color:inherit;" xlink:href="textedit:///Users/marc.mouries/projects/Sheet-Music/Folk_Jewish/Hatikva/hatikva.ly:30:13:14">
<g transform="translate(25.8825, 31.3635)">
<path stroke-width="0.0752" stroke-linejoin="round" stroke-linecap="round" stroke="currentColor" fill="currentColor" d="M0.6084 -3.2918C1.7364 -4.5450 4.6326 -4.8409 5.9908 -3.8418L5.9908 -3.8418C4.6440 -4.7287 1.7479 -4.4327 0.6084 -3.2918z"/>
</g>
</a>
<a style="color:inherit;" xlink:href="textedit:///Users/marc.mouries/projects/Sheet-Music/Folk_Jewish/Hatikva/hatikva.ly:30:21:22">
<g transform="translate(38.7007, 28.0635)">
<path transform="scale(0.0040, -0.0040)" d="M220 135c11 0 106 -2 106 -87c0 -89 -114 -183 -220 -183c-11 0 -106 2 -106 87c0 89 114 183 220 183z" fill="currentColor"/>
</g>
</a>
<g transform="translate(38.7618, 31.3635)">
<rect x="-0.0611" y="-3.1081" width="0.1222" height="3.6581" ry="0.0364" fill="currentColor"/>
</g>
<a style="color:inherit;" xlink:href="textedit:///Users/marc.mouries/projects/Sheet-Music/Folk_Jewish/Hatikva/hatikva.ly:30:5:6">
<g transform="translate(15.1177, 31.3635)">
<path stroke-width="0.0752" stroke-linejoin="round" stroke-linecap="round" stroke="currentColor" fill="currentColor" d="M0.6216 -2.3568C1.7850 -3.5731 4.6793 -3.7801 6.0040 -2.7418L6.0040 -2.7418C4.6873 -3.6675 1.7931 -3.4605 0.6216 -2.3568z"/>
</g>
</a>
<a style="color:inherit;" xlink:href="textedit:///Users/marc.mouries/projects/Sheet-Music/Folk_Jewish/Hatikva/hatikva.ly:30:25:26">
<g transform="translate(48.1603, 28.0635)">
<path transform="scale(0.0040, -0.0040)" d="M220 135c11 0 106 -2 106 -87c0 -89 -114 -183 -220 -183c-11 0 -106 2 -106 87c0 89 114 183 220 183z" fill="currentColor"/>
</g>
</a>
<g transform="translate(48.2214, 31.3635)">
<rect x="-0.0611" y="-3.1081" width="0.1222" height="3.6581" ry="0.0364" fill="currentColor"/>
</g>
<a style="color:inherit;" xlink:href="textedit:///Users/marc.mouries/projects/Sheet-Music/Folk_Jewish/Hatikva/hatikva.ly:30:32:33">
<g transform="translate(59.7447, 27.5135)">
<path transform="scale(0.0040, -0.0040)" d="M220 135c11 0 106 -2 106 -87c0 -89 -114 -183 -220 -183c-11 0 -106 2 -106 87c0 89 114 183 220 183z" fill="currentColor"/>
</g>
</a>
<g transform="translate(59.8059, 31.3635)">
<rect x="-0.0611" y="-3.6581" width="0.1222" height="3.6606" ry="0.0364" fill="currentColor"/>
</g>
<a style="color:inherit;" xlink:href="textedit:///Users/marc.mouries/projects/Sheet-Music/Folk_Jewish/Hatikva/hatikva.ly:30:37:38">
<g transform="translate(65.1272, 28.0635)">
<path transform="scale(0.0040, -0.0040)" d="M220 135c11 0 106 -2 106 -87c0 -89 -114 -183 -220 -183c-11 0 -106 2 -106 87c0 89 114 183 220 183z" fill="currentColor"/>
</g>
</a>
<g transform="translate(65.1883, 31.3635)">
<rect x="-0.0611" y="-3.1081" width="0.1222" height="3.3227" ry="0.0364" fill="currentColor"/>
</g>
<a style="color:inherit;" xlink:href="textedit:///Users/marc.mouries/projects/Sheet-Music/Folk_Jewish/Hatikva/hatikva.ly:30:40:41">
<g transform="translate(70.5096, 27.5135)">
<path transform="scale(0.0040, -0.0040)" d="M220 135c11 0 106 -2 106 -87c0 -89 -114 -183 -220 -183c-11 0 -106 2 -106 87c0 89 114 183 220 183z" fill="currentColor"/>
</g>
</a>
<g transform="translate(70.5707, 31.3635)">
<rect x="-0.0611" y="-3.6581" width="0.1222" height="3.8728" ry="0.0364" fill="currentColor"/>
</g>
<a style="color:inherit;" xlink:href="textedit:///Users/marc.mouries/projects/Sheet-Music/Folk_Jewish/Hatikva/hatikva.ly:30:44:45">
<g transform="translate(76.1420, 26.4135)">
<path transform="scale(0.0040, -0.0040)" d="M220 135c11 0 106 -2 106 -87c0 -89 -114 -183 -220 -183c-11 0 -106 2 -106 87c0 89 114 183 220 183z" fill="currentColor"/>
</g>
</a>
<g transform="translate(76.2031, 31.3635)">
<rect x="-0.0611" y="-4.7581" width="0.1222" height="4.7604" ry="0.0364" fill="currentColor"/>
</g>
<a style="color:inherit;" xlink:href="textedit:///Users/marc.mouries/projects/Sheet-Music/Folk_Jewish/Hatikva/hatikva.ly:30:50:51">
<g transform="translate(84.6849, 28.0635)">
<path transform="scale(0.0040, -0.0040)" d="M315 66c0 23 -18 42 -42 42c-40 0 -206 -113 -234 -146c-7 -8 -10 -18 -10 -28c0 -23 18 -42 42 -42c40 0 206 113 234 146c7 8 10 18 10 28zM263 135c39 0 81 -13 81 -69c0 -27 -18 -112 -76 -151c-22 -15 -86 -50 -188 -50c-39 0 -80 13 -80 69c0 27 17 112 75 151
c22 15 86 50 188 50z" fill="currentColor"/>
</g>
</a>
<g transform="translate(84.7460, 31.3635)">
<rect x="-0.0611" y="-3.0359" width="0.1222" height="3.5859" ry="0.0364" fill="currentColor"/>
</g>
<g transform="translate(5.1732, 49.2614)">
<line stroke-linejoin="round" stroke-linecap="round" stroke-width="0.0940" stroke="currentColor" x1="0.0470" y1="0" x2="93.0711" y2="0"/>
</g>
<g transform="translate(5.1732, 48.1614)">
<line stroke-linejoin="round" stroke-linecap="round" stroke-width="0.0940" stroke="currentColor" x1="0.0470" y1="0" x2="93.0711" y2="0"/>
</g>
<g transform="translate(5.1732, 47.0614)">
<line stroke-linejoin="round" stroke-linecap="round" stroke-width="0.0940" stroke="currentColor" x1="0.0470" y1="0" x2="93.0711" y2="0"/>
</g>
<g transform="translate(5.1732, 45.9614)">
<line stroke-linejoin="round" stroke-linecap="round" stroke-width="0.0940" stroke="currentColor" x1="0.0470" y1="0" x2="93.0711" y2="0"/>
</g>
<g transform="translate(5.1732, 44.8614)">
<line stroke-linejoin="round" stroke-linecap="round" stroke-width="0.0940" stroke="currentColor" x1="0.0470" y1="0" x2="93.0711" y2="0"/>
</g>
<g transform="translate(98.1127, 47.0614)">
<rect x="0.0000" y="-2.2000" width="0.1786" height="4.4000" ry="0.0000" fill="currentColor"/>
</g>
<g transform="translate(78.4032, 47.0614)">
<rect x="0.0000" y="-2.2000" width="0.1786" height="4.4000" ry="0.0000" fill="currentColor"/>
</g>
<g transform="translate(54.4850, 47.0614)">
<rect x="0.0000" y="-2.2000" width="0.1786" height="4.4000" ry="0.0000" fill="currentColor"/>
</g>
<g transform="translate(33.1538, 47.0614)">
<rect x="0.0000" y="-2.2000" width="0.1786" height="4.4000" ry="0.0000" fill="currentColor"/>
</g>
<g transform="translate(67.7589, 48.3784)">
<polygon stroke-linejoin="round" stroke-linecap="round" stroke-width="0.0727" fill="currentColor" stroke="currentColor" points="5.5330 -0.4446 5.5330 0.0106 0.0364 0.2276 0.0364 -0.2276"/>
</g>
<g transform="translate(5.9732, 48.1614)">
<path transform="scale(0.0040, -0.0040)" d="M267 -593l-1 -41h-5c-108 0 -196 88 -196 196c0 58 54 104 113 104c54 0 95 -48 95 -104c0 -52 -43 -95 -95 -95c-11 0 -23 3 -34 8c26 -40 69 -68 119 -68h4zM644 2c0 -112 -73 -212 -180 -245c3 -35 5 -71 5 -107c0 -19 -1 -38 -2 -57c-7 -119 -87 -224 -201 -227l1 41
c43 1 161 25 161 246c0 31 -1 63 -4 94c-5 -1 -44 -8 -89 -8c-193 0 -333 179 -333 373c0 177 132 307 249 441c-28 95 -50 169 -50 345c0 116 56 226 150 294c5 4 13 3 18 -1c67 -81 132 -245 132 -358c0 -143 -86 -255 -181 -364c20 -69 38 -138 55 -208c2 0 7 1 14 1
c155 0 255 -128 255 -260zM460 -204c70 24 115 91 115 165c0 91 -68 182 -176 192c19 -89 48 -246 61 -357zM73 30c0 -146 141 -250 265 -250c1 0 47 0 82 6c-7 63 -29 202 -64 366c-79 -9 -124 -62 -124 -120c0 -44 26 -91 82 -123c5 -4 6 -10 6 -15c0 -11 -9 -21 -21 -21
c-15 0 -125 61 -125 186c0 88 58 173 159 196c-14 59 -30 119 -46 177c-107 -121 -214 -242 -214 -402zM431 915c0 34 0 66 -21 132c-99 -49 -162 -150 -162 -260c0 -56 12 -119 35 -197c81 97 148 199 148 325z" fill="currentColor"/>
</g>
<g transform="translate(9.5846, 47.0614)">
<path transform="scale(0.0040, -0.0040)" d="M26 43l-1 -68v-11c0 -22 0 -44 3 -66c46 38 95 80 95 139c0 34 -14 68 -44 68c-31 0 -52 -29 -53 -62zM-14 -137l-12 598c8 5 17 6 26 6s18 -1 26 -6l-7 -348c25 20 57 32 90 32c52 0 91 -47 91 -101c0 -81 -88 -118 -150 -169c-15 -12 -22 -35 -42 -35
c-12 0 -22 10 -22 23z" fill="currentColor"/>
</g>
<g transform="translate(4.3041, 43.7939)">
<text font-family="serif" font-size="1.7465" text-anchor="start" fill="currentColor">
<tspan>5</tspan>
</text>
</g>
<g transform="translate(56.8645, 49.0444)">
<polygon stroke-linejoin="round" stroke-linecap="round" stroke-width="0.0727" fill="currentColor" stroke="currentColor" points="5.5330 -0.0106 5.5330 0.4446 0.0364 0.2276 0.0364 -0.2276"/>
</g>
<a style="color:inherit;" xlink:href="textedit:///Users/marc.mouries/projects/Sheet-Music/Folk_Jewish/Hatikva/hatikva.ly:31:3:4">
<g transform="translate(12.8846, 44.3114)">
<path transform="scale(0.0040, -0.0040)" d="M220 135c11 0 106 -2 106 -87c0 -89 -114 -183 -220 -183c-11 0 -106 2 -106 87c0 89 114 183 220 183z" fill="currentColor"/>
</g>
</a>
<g transform="translate(12.9458, 47.0614)">
<rect x="-0.0611" y="-2.5581" width="0.1222" height="3.6581" ry="0.0364" fill="currentColor"/>
</g>
<g transform="translate(22.4738, 47.9444)">
<polygon stroke-linejoin="round" stroke-linecap="round" stroke-width="0.0727" fill="currentColor" stroke="currentColor" points="5.5330 -0.2276 5.5330 0.2276 0.0364 0.2276 0.0364 -0.2276"/>
</g>
<a style="color:inherit;" xlink:href="textedit:///Users/marc.mouries/projects/Sheet-Music/Folk_Jewish/Hatikva/hatikva.ly:31:7:8">
<g transform="translate(22.4738, 44.3114)">
<path transform="scale(0.0040, -0.0040)" d="M220 135c11 0 106 -2 106 -87c0 -89 -114 -183 -220 -183c-11 0 -106 2 -106 87c0 89 114 183 220 183z" fill="currentColor"/>
</g>
</a>
<g transform="translate(22.5349, 47.0614)">
<rect x="-0.0611" y="-2.5581" width="0.1222" height="3.4412" ry="0.0364" fill="currentColor"/>
</g>
<a style="color:inherit;" xlink:href="textedit:///Users/marc.mouries/projects/Sheet-Music/Folk_Jewish/Hatikva/hatikva.ly:31:10:11">
<g transform="translate(27.9209, 44.3114)">
<path transform="scale(0.0040, -0.0040)" d="M220 135c11 0 106 -2 106 -87c0 -89 -114 -183 -220 -183c-11 0 -106 2 -106 87c0 89 114 183 220 183z" fill="currentColor"/>
</g>
</a>
<g transform="translate(27.9821, 47.0614)">
<rect x="-0.0611" y="-2.5581" width="0.1222" height="3.4412" ry="0.0364" fill="currentColor"/>
</g>
<a style="color:inherit;" xlink:href="textedit:///Users/marc.mouries/projects/Sheet-Music/Folk_Jewish/Hatikva/hatikva.ly:31:17:18">
<g transform="translate(35.5443, 44.8614)">
<path transform="scale(0.0040, -0.0040)" d="M220 135c11 0 106 -2 106 -87c0 -89 -114 -183 -220 -183c-11 0 -106 2 -106 87c0 89 114 183 220 183z" fill="currentColor"/>
</g>
</a>
<g transform="translate(35.6054, 47.0614)">
<rect x="-0.0611" y="-2.0081" width="0.1222" height="3.6581" ry="0.0364" fill="currentColor"/>
</g>
<a style="color:inherit;" xlink:href="textedit:///Users/marc.mouries/projects/Sheet-Music/Folk_Jewish/Hatikva/hatikva.ly:31:21:22">
<g transform="translate(45.1334, 44.8614)">
<path transform="scale(0.0040, -0.0040)" d="M220 135c11 0 106 -2 106 -87c0 -89 -114 -183 -220 -183c-11 0 -106 2 -106 87c0 89 114 183 220 183z" fill="currentColor"/>
</g>
</a>
<g transform="translate(45.1945, 47.0614)">
<rect x="-0.0611" y="-2.0081" width="0.1222" height="3.6581" ry="0.0364" fill="currentColor"/>
</g>
<a style="color:inherit;" xlink:href="textedit:///Users/marc.mouries/projects/Sheet-Music/Folk_Jewish/Hatikva/hatikva.ly:31:28:29">
<g transform="translate(56.8645, 45.4114)">
<path transform="scale(0.0040, -0.0040)" d="M220 135c11 0 106 -2 106 -87c0 -89 -114 -183 -220 -183c-11 0 -106 2 -106 87c0 89 114 183 220 183z" fill="currentColor"/>
</g>
</a>
<g transform="translate(56.9256, 47.0614)">
<rect x="-0.0611" y="-1.4581" width="0.1222" height="3.4435" ry="0.0364" fill="currentColor"/>
</g>
<a style="color:inherit;" xlink:href="textedit:///Users/marc.mouries/projects/Sheet-Music/Folk_Jewish/Hatikva/hatikva.ly:31:32:33">
<g transform="translate(62.3117, 45.9614)">
<path transform="scale(0.0040, -0.0040)" d="M220 135c11 0 106 -2 106 -87c0 -89 -114 -183 -220 -183c-11 0 -106 2 -106 87c0 89 114 183 220 183z" fill="currentColor"/>
</g>
</a>
<g transform="translate(62.3728, 47.0614)">
<rect x="-0.0611" y="-0.9081" width="0.1222" height="3.1058" ry="0.0364" fill="currentColor"/>
</g>
<a style="color:inherit;" xlink:href="textedit:///Users/marc.mouries/projects/Sheet-Music/Folk_Jewish/Hatikva/hatikva.ly:31:34:35">
<g transform="translate(67.7589, 45.4114)">
<path transform="scale(0.0040, -0.0040)" d="M220 135c11 0 106 -2 106 -87c0 -89 -114 -183 -220 -183c-11 0 -106 2 -106 87c0 89 114 183 220 183z" fill="currentColor"/>
</g>
</a>
<g transform="translate(67.8200, 47.0614)">
<rect x="-0.0611" y="-1.4581" width="0.1222" height="2.7727" ry="0.0364" fill="currentColor"/>
</g>
<a style="color:inherit;" xlink:href="textedit:///Users/marc.mouries/projects/Sheet-Music/Folk_Jewish/Hatikva/hatikva.ly:31:36:37">
<g transform="translate(73.2060, 44.8614)">
<path transform="scale(0.0040, -0.0040)" d="M220 135c11 0 106 -2 106 -87c0 -89 -114 -183 -220 -183c-11 0 -106 2 -106 87c0 89 114 183 220 183z" fill="currentColor"/>
</g>
</a>
<g transform="translate(73.2671, 47.0614)">
<rect x="-0.0611" y="-2.0081" width="0.1222" height="3.1105" ry="0.0364" fill="currentColor"/>
</g>
<a style="color:inherit;" xlink:href="textedit:///Users/marc.mouries/projects/Sheet-Music/Folk_Jewish/Hatikva/hatikva.ly:31:42:43">
<g transform="translate(80.7513, 45.9614)">
<path transform="scale(0.0040, -0.0040)" d="M220 135c11 0 106 -2 106 -87c0 -89 -114 -183 -220 -183c-11 0 -106 2 -106 87c0 89 114 183 220 183z" fill="currentColor"/>
</g>
</a>
<g transform="translate(82.5100, 45.4114)">
<path transform="scale(0.0040, -0.0040)" d="M0 0c0 31 26 57 57 57s56 -26 56 -57s-25 -57 -56 -57s-57 26 -57 57z" fill="currentColor"/>
</g>
<g transform="translate(80.8124, 47.0614)">
<rect x="-0.0611" y="-0.9081" width="0.1222" height="3.6581" ry="0.0364" fill="currentColor"/>
</g>
<a style="color:inherit;" xlink:href="textedit:///Users/marc.mouries/projects/Sheet-Music/Folk_Jewish/Hatikva/hatikva.ly:31:46:47">
<g transform="translate(92.5989, 47.6114)">
<path transform="scale(0.0040, -0.0040)" d="M220 135c11 0 106 -2 106 -87c0 -89 -114 -183 -220 -183c-11 0 -106 2 -106 87c0 89 114 183 220 183z" fill="currentColor"/>
</g>
</a>
<g transform="translate(93.8429, 47.0614)">
<rect x="-0.0611" y="-3.3000" width="0.1222" height="3.6581" ry="0.0364" fill="currentColor"/>
</g>
<g transform="translate(93.9040, 43.7978)">
<path transform="scale(0.0040, -0.0040)" d="M0 -250h-15v250h15c0 -197 207 -337 207 -534c0 -71 -15 -141 -41 -207c-4 -8 -12 -11 -19 -11c-12 0 -25 11 -22 26c26 61 41 126 41 192c0 104 -94 209 -166 284z" fill="currentColor"/>
</g>
<g transform="translate(5.1732, 59.4593)">
<rect x="78.7526" y="-0.1020" width="2.0620" height="0.2040" ry="0.1020" fill="currentColor"/>
</g>
<g transform="translate(5.1732, 58.3593)">
<rect x="70.0366" y="-0.1020" width="1.9578" height="0.2040" ry="0.1020" fill="currentColor"/>
</g>
<g transform="translate(5.1732, 59.4593)">
<rect x="70.0366" y="-0.1020" width="1.9578" height="0.2040" ry="0.1020" fill="currentColor"/>
</g>
<g transform="translate(5.1732, 59.4593)">
<rect x="64.2657" y="-0.1020" width="1.9578" height="0.2040" ry="0.1020" fill="currentColor"/>
</g>
<g transform="translate(5.1732, 59.4593)">
<rect x="58.7448" y="-0.1020" width="1.9578" height="0.2040" ry="0.1020" fill="currentColor"/>
</g>
<g transform="translate(5.1732, 59.4593)">
<rect x="53.2239" y="-0.1020" width="1.9578" height="0.2040" ry="0.1020" fill="currentColor"/>
</g>
<g transform="translate(5.1732, 59.4593)">
<rect x="41.3106" y="-0.1020" width="1.9578" height="0.2040" ry="0.1020" fill="currentColor"/>
</g>
<g transform="translate(5.1732, 59.4593)">
<rect x="31.5740" y="-0.1020" width="1.9578" height="0.2040" ry="0.1020" fill="currentColor"/>
</g>
<g transform="translate(5.1732, 64.9593)">
<line stroke-linejoin="round" stroke-linecap="round" stroke-width="0.0940" stroke="currentColor" x1="0.0470" y1="0" x2="93.0711" y2="0"/>
</g>
<g transform="translate(5.1732, 63.8593)">
<line stroke-linejoin="round" stroke-linecap="round" stroke-width="0.0940" stroke="currentColor" x1="0.0470" y1="0" x2="93.0711" y2="0"/>
</g>
<g transform="translate(5.1732, 62.7593)">
<line stroke-linejoin="round" stroke-linecap="round" stroke-width="0.0940" stroke="currentColor" x1="0.0470" y1="0" x2="93.0711" y2="0"/>
</g>
<g transform="translate(5.1732, 61.6593)">
<line stroke-linejoin="round" stroke-linecap="round" stroke-width="0.0940" stroke="currentColor" x1="0.0470" y1="0" x2="93.0711" y2="0"/>
</g>
<g transform="translate(5.1732, 60.5593)">
<line stroke-linejoin="round" stroke-linecap="round" stroke-width="0.0940" stroke="currentColor" x1="0.0470" y1="0" x2="93.0711" y2="0"/>
</g>
<g transform="translate(98.1127, 62.7593)">
<rect x="0.0000" y="-2.2000" width="0.1786" height="4.4000" ry="0.0000" fill="currentColor"/>
</g>
<g transform="translate(80.9142, 62.7593)">
<rect x="0.0000" y="-2.2000" width="0.1786" height="4.4000" ry="0.0000" fill="currentColor"/>
</g>
<g transform="translate(56.3682, 62.7593)">
<rect x="0.0000" y="-2.2000" width="0.1786" height="4.4000" ry="0.0000" fill="currentColor"/>
</g>
<g transform="translate(34.7183, 62.7593)">
<rect x="0.0000" y="-2.2000" width="0.1786" height="4.4000" ry="0.0000" fill="currentColor"/>
</g>
<g transform="translate(58.7234, 62.7593)">
<polygon stroke-linejoin="round" stroke-linecap="round" stroke-width="0.0727" fill="currentColor" stroke="currentColor" points="5.6068 -0.0106 5.6068 0.4446 0.0364 0.2276 0.0364 -0.2276"/>
</g>
<g transform="translate(5.9732, 63.8593)">
<path transform="scale(0.0040, -0.0040)" d="M267 -593l-1 -41h-5c-108 0 -196 88 -196 196c0 58 54 104 113 104c54 0 95 -48 95 -104c0 -52 -43 -95 -95 -95c-11 0 -23 3 -34 8c26 -40 69 -68 119 -68h4zM644 2c0 -112 -73 -212 -180 -245c3 -35 5 -71 5 -107c0 -19 -1 -38 -2 -57c-7 -119 -87 -224 -201 -227l1 41
c43 1 161 25 161 246c0 31 -1 63 -4 94c-5 -1 -44 -8 -89 -8c-193 0 -333 179 -333 373c0 177 132 307 249 441c-28 95 -50 169 -50 345c0 116 56 226 150 294c5 4 13 3 18 -1c67 -81 132 -245 132 -358c0 -143 -86 -255 -181 -364c20 -69 38 -138 55 -208c2 0 7 1 14 1
c155 0 255 -128 255 -260zM460 -204c70 24 115 91 115 165c0 91 -68 182 -176 192c19 -89 48 -246 61 -357zM73 30c0 -146 141 -250 265 -250c1 0 47 0 82 6c-7 63 -29 202 -64 366c-79 -9 -124 -62 -124 -120c0 -44 26 -91 82 -123c5 -4 6 -10 6 -15c0 -11 -9 -21 -21 -21
c-15 0 -125 61 -125 186c0 88 58 173 159 196c-14 59 -30 119 -46 177c-107 -121 -214 -242 -214 -402zM431 915c0 34 0 66 -21 132c-99 -49 -162 -150 -162 -260c0 -56 12 -119 35 -197c81 97 148 199 148 325z" fill="currentColor"/>
</g>
<g transform="translate(9.5846, 62.7593)">
<path transform="scale(0.0040, -0.0040)" d="M26 43l-1 -68v-11c0 -22 0 -44 3 -66c46 38 95 80 95 139c0 34 -14 68 -44 68c-31 0 -52 -29 -53 -62zM-14 -137l-12 598c8 5 17 6 26 6s18 -1 26 -6l-7 -348c25 20 57 32 90 32c52 0 91 -47 91 -101c0 -81 -88 -118 -150 -169c-15 -12 -22 -35 -42 -35
c-12 0 -22 10 -22 23z" fill="currentColor"/>
</g>
<g transform="translate(4.3041, 59.4884)">
<text font-family="serif" font-size="1.7465" text-anchor="start" fill="currentColor">
<tspan>9</tspan>
</text>
</g>
<g transform="translate(23.9265, 63.8593)">
<polygon stroke-linejoin="round" stroke-linecap="round" stroke-width="0.0727" fill="currentColor" stroke="currentColor" points="5.6068 -0.4446 5.6068 0.0106 0.0364 0.2276 0.0364 -0.2276"/>
</g>
<a style="color:inherit;" xlink:href="textedit:///Users/marc.mouries/projects/Sheet-Music/Folk_Jewish/Hatikva/hatikva.ly:32:3:4">
<g transform="translate(12.8846, 61.6593)">
<path transform="scale(0.0040, -0.0040)" d="M220 135c11 0 106 -2 106 -87c0 -89 -114 -183 -220 -183c-11 0 -106 2 -106 87c0 89 114 183 220 183z" fill="currentColor"/>
</g>
</a>
<g transform="translate(12.9458, 62.7593)">
<rect x="-0.0611" y="-0.9081" width="0.1222" height="3.1058" ry="0.0364" fill="currentColor"/>
</g>
<g transform="translate(12.8846, 64.9593)">
<polygon stroke-linejoin="round" stroke-linecap="round" stroke-width="0.0727" fill="currentColor" stroke="currentColor" points="5.6068 -0.4446 5.6068 0.0106 0.0364 0.2276 0.0364 -0.2276"/>
</g>
<a style="color:inherit;" xlink:href="textedit:///Users/marc.mouries/projects/Sheet-Music/Folk_Jewish/Hatikva/hatikva.ly:32:7:8">
<g transform="translate(18.4055, 61.1093)">
<path transform="scale(0.0040, -0.0040)" d="M220 135c11 0 106 -2 106 -87c0 -89 -114 -183 -220 -183c-11 0 -106 2 -106 87c0 89 114 183 220 183z" fill="currentColor"/>
</g>
</a>
<g transform="translate(18.4667, 62.7593)">
<rect x="-0.0611" y="-1.4581" width="0.1222" height="3.4435" ry="0.0364" fill="currentColor"/>
</g>
<a style="color:inherit;" xlink:href="textedit:///Users/marc.mouries/projects/Sheet-Music/Folk_Jewish/Hatikva/hatikva.ly:32:10:11">
<g transform="translate(23.9265, 60.5593)">
<path transform="scale(0.0040, -0.0040)" d="M220 135c11 0 106 -2 106 -87c0 -89 -114 -183 -220 -183c-11 0 -106 2 -106 87c0 89 114 183 220 183z" fill="currentColor"/>
</g>
</a>
<g transform="translate(23.9876, 62.7593)">
<rect x="-0.0611" y="-2.0081" width="0.1222" height="3.1058" ry="0.0364" fill="currentColor"/>
</g>
<a style="color:inherit;" xlink:href="textedit:///Users/marc.mouries/projects/Sheet-Music/Folk_Jewish/Hatikva/hatikva.ly:32:13:14">
<g transform="translate(29.4474, 60.0093)">
<path transform="scale(0.0040, -0.0040)" d="M220 135c11 0 106 -2 106 -87c0 -89 -114 -183 -220 -183c-11 0 -106 2 -106 87c0 89 114 183 220 183z" fill="currentColor"/>
</g>
</a>
<g transform="translate(29.5085, 62.7593)">
<rect x="-0.0611" y="-2.5581" width="0.1222" height="3.4435" ry="0.0364" fill="currentColor"/>
</g>
<a style="color:inherit;" xlink:href="textedit:///Users/marc.mouries/projects/Sheet-Music/Folk_Jewish/Hatikva/hatikva.ly:32:17:18">
<g transform="translate(37.0735, 59.4593)">
<path transform="scale(0.0040, -0.0040)" d="M220 135c11 0 106 -2 106 -87c0 -89 -114 -183 -220 -183c-11 0 -106 2 -106 87c0 89 114 183 220 183z" fill="currentColor"/>
</g>
</a>
<g transform="translate(37.1346, 62.7593)">
<rect x="-0.0611" y="-3.1081" width="0.1222" height="3.6581" ry="0.0364" fill="currentColor"/>
</g>
<a style="color:inherit;" xlink:href="textedit:///Users/marc.mouries/projects/Sheet-Music/Folk_Jewish/Hatikva/hatikva.ly:32:21:22">
<g transform="translate(46.8101, 59.4593)">
<path transform="scale(0.0040, -0.0040)" d="M220 135c11 0 106 -2 106 -87c0 -89 -114 -183 -220 -183c-11 0 -106 2 -106 87c0 89 114 183 220 183z" fill="currentColor"/>
</g>
</a>
<g transform="translate(46.8713, 62.7593)">
<rect x="-0.0611" y="-3.1081" width="0.1222" height="3.6581" ry="0.0364" fill="currentColor"/>
</g>
<g transform="translate(69.7653, 62.9763)">
<polygon stroke-linejoin="round" stroke-linecap="round" stroke-width="0.0727" fill="currentColor" stroke="currentColor" points="5.8568 -0.4446 5.8568 0.0106 0.0364 0.2276 0.0364 -0.2276"/>
</g>
<a style="color:inherit;" xlink:href="textedit:///Users/marc.mouries/projects/Sheet-Music/Folk_Jewish/Hatikva/hatikva.ly:32:28:29">
<g transform="translate(58.7234, 58.9093)">
<path transform="scale(0.0040, -0.0040)" d="M220 135c11 0 106 -2 106 -87c0 -89 -114 -183 -220 -183c-11 0 -106 2 -106 87c0 89 114 183 220 183z" fill="currentColor"/>
</g>
</a>
<g transform="translate(58.7846, 62.7593)">
<rect x="-0.0611" y="-3.6581" width="0.1222" height="3.6605" ry="0.0364" fill="currentColor"/>
</g>
<a style="color:inherit;" xlink:href="textedit:///Users/marc.mouries/projects/Sheet-Music/Folk_Jewish/Hatikva/hatikva.ly:32:32:33">
<g transform="translate(64.2444, 59.4593)">
<path transform="scale(0.0040, -0.0040)" d="M220 135c11 0 106 -2 106 -87c0 -89 -114 -183 -220 -183c-11 0 -106 2 -106 87c0 89 114 183 220 183z" fill="currentColor"/>
</g>
</a>
<g transform="translate(64.3055, 62.7593)">
<rect x="-0.0611" y="-3.1081" width="0.1222" height="3.3228" ry="0.0364" fill="currentColor"/>
</g>
<a style="color:inherit;" xlink:href="textedit:///Users/marc.mouries/projects/Sheet-Music/Folk_Jewish/Hatikva/hatikva.ly:32:34:35">
<g transform="translate(69.7653, 58.9093)">
<path transform="scale(0.0040, -0.0040)" d="M220 135c11 0 106 -2 106 -87c0 -89 -114 -183 -220 -183c-11 0 -106 2 -106 87c0 89 114 183 220 183z" fill="currentColor"/>
</g>
</a>
<g transform="translate(69.8264, 62.7593)">
<rect x="-0.0611" y="-3.6581" width="0.1222" height="3.8729" ry="0.0364" fill="currentColor"/>
</g>
<a style="color:inherit;" xlink:href="textedit:///Users/marc.mouries/projects/Sheet-Music/Folk_Jewish/Hatikva/hatikva.ly:32:37:38">
<g transform="translate(75.5362, 57.8093)">
<path transform="scale(0.0040, -0.0040)" d="M220 135c11 0 106 -2 106 -87c0 -89 -114 -183 -220 -183c-11 0 -106 2 -106 87c0 89 114 183 220 183z" fill="currentColor"/>
</g>
</a>
<g transform="translate(75.5973, 62.7593)">
<rect x="-0.0611" y="-4.7581" width="0.1222" height="4.7604" ry="0.0364" fill="currentColor"/>
</g>
<a style="color:inherit;" xlink:href="textedit:///Users/marc.mouries/projects/Sheet-Music/Folk_Jewish/Hatikva/hatikva.ly:32:42:43">
<g transform="translate(84.2695, 59.4593)">
<path transform="scale(0.0040, -0.0040)" d="M315 66c0 23 -18 42 -42 42c-40 0 -206 -113 -234 -146c-7 -8 -10 -18 -10 -28c0 -23 18 -42 42 -42c40 0 206 113 234 146c7 8 10 18 10 28zM263 135c39 0 81 -13 81 -69c0 -27 -18 -112 -76 -151c-22 -15 -86 -50 -188 -50c-39 0 -80 13 -80 69c0 27 17 112 75 151
c22 15 86 50 188 50z" fill="currentColor"/>
</g>
</a>
<g transform="translate(84.3306, 62.7593)">
<rect x="-0.0611" y="-3.0359" width="0.1222" height="3.5859" ry="0.0364" fill="currentColor"/>
</g>
<g transform="translate(5.1732, 80.6573)">
<line stroke-linejoin="round" stroke-linecap="round" stroke-width="0.0940" stroke="currentColor" x1="0.0470" y1="0" x2="93.0711" y2="0"/>
</g>
<g transform="translate(5.1732, 79.5573)">
<line stroke-linejoin="round" stroke-linecap="round" stroke-width="0.0940" stroke="currentColor" x1="0.0470" y1="0" x2="93.0711" y2="0"/>
</g>
<g transform="translate(5.1732, 78.4573)">
<line stroke-linejoin="round" stroke-linecap="round" stroke-width="0.0940" stroke="currentColor" x1="0.0470" y1="0" x2="93.0711" y2="0"/>
</g>
<g transform="translate(5.1732, 77.3573)">
<line stroke-linejoin="round" stroke-linecap="round" stroke-width="0.0940" stroke="currentColor" x1="0.0470" y1="0" x2="93.0711" y2="0"/>
</g>
<g transform="translate(5.1732, 76.2573)">
<line stroke-linejoin="round" stroke-linecap="round" stroke-width="0.0940" stroke="currentColor" x1="0.0470" y1="0" x2="93.0711" y2="0"/>
</g>
<g transform="translate(98.1127, 78.4573)">
<rect x="0.0000" y="-2.2000" width="0.1786" height="4.4000" ry="0.0000" fill="currentColor"/>
</g>
<g transform="translate(80.5872, 78.4573)">
<rect x="0.0000" y="-2.2000" width="0.1786" height="4.4000" ry="0.0000" fill="currentColor"/>
</g>
<g transform="translate(55.9196, 78.4573)">
<rect x="0.0000" y="-2.2000" width="0.1786" height="4.4000" ry="0.0000" fill="currentColor"/>
</g>
<g transform="translate(33.8390, 78.4573)">
<rect x="0.0000" y="-2.2000" width="0.1786" height="4.4000" ry="0.0000" fill="currentColor"/>
</g>
<g transform="translate(69.6003, 79.7743)">
<polygon stroke-linejoin="round" stroke-linecap="round" stroke-width="0.0727" fill="currentColor" stroke="currentColor" points="5.7043 -0.4446 5.7043 0.0106 0.0364 0.2276 0.0364 -0.2276"/>
</g>
<g transform="translate(5.9732, 79.5573)">
<path transform="scale(0.0040, -0.0040)" d="M267 -593l-1 -41h-5c-108 0 -196 88 -196 196c0 58 54 104 113 104c54 0 95 -48 95 -104c0 -52 -43 -95 -95 -95c-11 0 -23 3 -34 8c26 -40 69 -68 119 -68h4zM644 2c0 -112 -73 -212 -180 -245c3 -35 5 -71 5 -107c0 -19 -1 -38 -2 -57c-7 -119 -87 -224 -201 -227l1 41
c43 1 161 25 161 246c0 31 -1 63 -4 94c-5 -1 -44 -8 -89 -8c-193 0 -333 179 -333 373c0 177 132 307 249 441c-28 95 -50 169 -50 345c0 116 56 226 150 294c5 4 13 3 18 -1c67 -81 132 -245 132 -358c0 -143 -86 -255 -181 -364c20 -69 38 -138 55 -208c2 0 7 1 14 1
c155 0 255 -128 255 -260zM460 -204c70 24 115 91 115 165c0 91 -68 182 -176 192c19 -89 48 -246 61 -357zM73 30c0 -146 141 -250 265 -250c1 0 47 0 82 6c-7 63 -29 202 -64 366c-79 -9 -124 -62 -124 -120c0 -44 26 -91 82 -123c5 -4 6 -10 6 -15c0 -11 -9 -21 -21 -21
c-15 0 -125 61 -125 186c0 88 58 173 159 196c-14 59 -30 119 -46 177c-107 -121 -214 -242 -214 -402zM431 915c0 34 0 66 -21 132c-99 -49 -162 -150 -162 -260c0 -56 12 -119 35 -197c81 97 148 199 148 325z" fill="currentColor"/>
</g>
<g transform="translate(9.5846, 78.4573)">
<path transform="scale(0.0040, -0.0040)" d="M26 43l-1 -68v-11c0 -22 0 -44 3 -66c46 38 95 80 95 139c0 34 -14 68 -44 68c-31 0 -52 -29 -53 -62zM-14 -137l-12 598c8 5 17 6 26 6s18 -1 26 -6l-7 -348c25 20 57 32 90 32c52 0 91 -47 91 -101c0 -81 -88 -118 -150 -169c-15 -12 -22 -35 -42 -35
c-12 0 -22 10 -22 23z" fill="currentColor"/>
</g>
<g transform="translate(3.4350, 75.1898)">
<text font-family="serif" font-size="1.7465" text-anchor="start" fill="currentColor">
<tspan>13</tspan>
</text>
</g>
<g transform="translate(58.3634, 80.4403)">
<polygon stroke-linejoin="round" stroke-linecap="round" stroke-width="0.0727" fill="currentColor" stroke="currentColor" points="5.7043 -0.0106 5.7043 0.4446 0.0364 0.2276 0.0364 -0.2276"/>
</g>
<a style="color:inherit;" xlink:href="textedit:///Users/marc.mouries/projects/Sheet-Music/Folk_Jewish/Hatikva/hatikva.ly:33:3:4">
<g transform="translate(12.8846, 75.7073)">
<path transform="scale(0.0040, -0.0040)" d="M220 135c11 0 106 -2 106 -87c0 -89 -114 -183 -220 -183c-11 0 -106 2 -106 87c0 89 114 183 220 183z" fill="currentColor"/>
</g>
</a>
<g transform="translate(12.9458, 78.4573)">
<rect x="-0.0611" y="-2.5581" width="0.1222" height="3.6581" ry="0.0364" fill="currentColor"/>
</g>
<g transform="translate(22.8164, 79.3403)">
<polygon stroke-linejoin="round" stroke-linecap="round" stroke-width="0.0727" fill="currentColor" stroke="currentColor" points="5.7043 -0.2276 5.7043 0.2276 0.0364 0.2276 0.0364 -0.2276"/>
</g>
<a style="color:inherit;" xlink:href="textedit:///Users/marc.mouries/projects/Sheet-Music/Folk_Jewish/Hatikva/hatikva.ly:33:7:8">
<g transform="translate(22.8164, 75.7073)">
<path transform="scale(0.0040, -0.0040)" d="M220 135c11 0 106 -2 106 -87c0 -89 -114 -183 -220 -183c-11 0 -106 2 -106 87c0 89 114 183 220 183z" fill="currentColor"/>
</g>
</a>
<g transform="translate(22.8775, 78.4573)">
<rect x="-0.0611" y="-2.5581" width="0.1222" height="3.4412" ry="0.0364" fill="currentColor"/>
</g>
<a style="color:inherit;" xlink:href="textedit:///Users/marc.mouries/projects/Sheet-Music/Folk_Jewish/Hatikva/hatikva.ly:33:10:11">
<g transform="translate(28.4348, 75.7073)">
<path transform="scale(0.0040, -0.0040)" d="M220 135c11 0 106 -2 106 -87c0 -89 -114 -183 -220 -183c-11 0 -106 2 -106 87c0 89 114 183 220 183z" fill="currentColor"/>
</g>
</a>
<g transform="translate(28.4959, 78.4573)">
<rect x="-0.0611" y="-2.5581" width="0.1222" height="3.4412" ry="0.0364" fill="currentColor"/>
</g>
<a style="color:inherit;" xlink:href="textedit:///Users/marc.mouries/projects/Sheet-Music/Folk_Jewish/Hatikva/hatikva.ly:33:17:18">
<g transform="translate(36.2937, 76.2573)">
<path transform="scale(0.0040, -0.0040)" d="M220 135c11 0 106 -2 106 -87c0 -89 -114 -183 -220 -183c-11 0 -106 2 -106 87c0 89 114 183 220 183z" fill="currentColor"/>
</g>
</a>
<g transform="translate(36.3548, 78.4573)">
<rect x="-0.0611" y="-2.0081" width="0.1222" height="3.6581" ry="0.0364" fill="currentColor"/>
</g>
<a style="color:inherit;" xlink:href="textedit:///Users/marc.mouries/projects/Sheet-Music/Folk_Jewish/Hatikva/hatikva.ly:33:21:22">
<g transform="translate(46.2254, 76.2573)">
<path transform="scale(0.0040, -0.0040)" d="M220 135c11 0 106 -2 106 -87c0 -89 -114 -183 -220 -183c-11 0 -106 2 -106 87c0 89 114 183 220 183z" fill="currentColor"/>
</g>
</a>
<g transform="translate(46.2865, 78.4573)">
<rect x="-0.0611" y="-2.0081" width="0.1222" height="3.6581" ry="0.0364" fill="currentColor"/>
</g>
<a style="color:inherit;" xlink:href="textedit:///Users/marc.mouries/projects/Sheet-Music/Folk_Jewish/Hatikva/hatikva.ly:33:28:29">
<g transform="translate(58.3634, 76.8073)">
<path transform="scale(0.0040, -0.0040)" d="M220 135c11 0 106 -2 106 -87c0 -89 -114 -183 -220 -183c-11 0 -106 2 -106 87c0 89 114 183 220 183z" fill="currentColor"/>
</g>
</a>
<g transform="translate(58.4245, 78.4573)">
<rect x="-0.0611" y="-1.4581" width="0.1222" height="3.4435" ry="0.0364" fill="currentColor"/>
</g>
<a style="color:inherit;" xlink:href="textedit:///Users/marc.mouries/projects/Sheet-Music/Folk_Jewish/Hatikva/hatikva.ly:33:32:33">
<g transform="translate(63.9818, 77.3573)">
<path transform="scale(0.0040, -0.0040)" d="M220 135c11 0 106 -2 106 -87c0 -89 -114 -183 -220 -183c-11 0 -106 2 -106 87c0 89 114 183 220 183z" fill="currentColor"/>
</g>
</a>
<g transform="translate(64.0429, 78.4573)">
<rect x="-0.0611" y="-0.9081" width="0.1222" height="3.1058" ry="0.0364" fill="currentColor"/>
</g>
<a style="color:inherit;" xlink:href="textedit:///Users/marc.mouries/projects/Sheet-Music/Folk_Jewish/Hatikva/hatikva.ly:33:34:35">
<g transform="translate(69.6003, 76.8073)">
<path transform="scale(0.0040, -0.0040)" d="M220 135c11 0 106 -2 106 -87c0 -89 -114 -183 -220 -183c-11 0 -106 2 -106 87c0 89 114 183 220 183z" fill="currentColor"/>
</g>
</a>
<g transform="translate(69.6614, 78.4573)">
<rect x="-0.0611" y="-1.4581" width="0.1222" height="2.7728" ry="0.0364" fill="currentColor"/>
</g>
<a style="color:inherit;" xlink:href="textedit:///Users/marc.mouries/projects/Sheet-Music/Folk_Jewish/Hatikva/hatikva.ly:33:36:37">
<g transform="translate(75.2187, 76.2573)">
<path transform="scale(0.0040, -0.0040)" d="M220 135c11 0 106 -2 106 -87c0 -89 -114 -183 -220 -183c-11 0 -106 2 -106 87c0 89 114 183 220 183z" fill="currentColor"/>
</g>
</a>
<g transform="translate(75.2798, 78.4573)">
<rect x="-0.0611" y="-2.0081" width="0.1222" height="3.1105" ry="0.0364" fill="currentColor"/>
</g>
<a style="color:inherit;" xlink:href="textedit:///Users/marc.mouries/projects/Sheet-Music/Folk_Jewish/Hatikva/hatikva.ly:33:42:43">
<g transform="translate(83.9954, 77.3573)">
<path transform="scale(0.0040, -0.0040)" d="M315 66c0 23 -18 42 -42 42c-40 0 -206 -113 -234 -146c-7 -8 -10 -18 -10 -28c0 -23 18 -42 42 -42c40 0 206 113 234 146c7 8 10 18 10 28zM263 135c39 0 81 -13 81 -69c0 -27 -18 -112 -76 -151c-22 -15 -86 -50 -188 -50c-39 0 -80 13 -80 69c0 27 17 112 75 151
c22 15 86 50 188 50z" fill="currentColor"/>
</g>
</a>
<g transform="translate(84.0565, 78.4573)">
<rect x="-0.0611" y="-0.8359" width="0.1222" height="3.5859" ry="0.0364" fill="currentColor"/>
</g>
<g transform="translate(5.1732, 90.8552)">
<rect x="78.2818" y="-0.1020" width="2.0620" height="0.2040" ry="0.1020" fill="currentColor"/>
</g>
<g transform="translate(5.1732, 90.8552)">
<rect x="69.3501" y="-0.1020" width="1.9578" height="0.2040" ry="0.1020" fill="currentColor"/>
</g>
<g transform="translate(5.1732, 89.7552)">
<rect x="63.6723" y="-0.1020" width="1.9578" height="0.2040" ry="0.1020" fill="currentColor"/>
</g>
<g transform="translate(5.1732, 90.8552)">
<rect x="63.6723" y="-0.1020" width="1.9578" height="0.2040" ry="0.1020" fill="currentColor"/>
</g>
<g transform="translate(5.1732, 89.7552)">
<rect x="57.9944" y="-0.1020" width="1.9578" height="0.2040" ry="0.1020" fill="currentColor"/>
</g>
<g transform="translate(5.1732, 90.8552)">
<rect x="57.9944" y="-0.1020" width="1.9578" height="0.2040" ry="0.1020" fill="currentColor"/>
</g>
<g transform="translate(5.1732, 89.7552)">
<rect x="52.3166" y="-0.1020" width="1.9578" height="0.2040" ry="0.1020" fill="currentColor"/>
</g>
<g transform="translate(5.1732, 90.8552)">
<rect x="52.3166" y="-0.1020" width="1.9578" height="0.2040" ry="0.1020" fill="currentColor"/>
</g>
<g transform="translate(5.1732, 89.7552)">
<rect x="40.0263" y="-0.1020" width="1.9578" height="0.2040" ry="0.1020" fill="currentColor"/>
</g>
<g transform="translate(5.1732, 90.8552)">
<rect x="40.0263" y="-0.1020" width="1.9578" height="0.2040" ry="0.1020" fill="currentColor"/>
</g>
<g transform="translate(5.1732, 89.7552)">
<rect x="29.9759" y="-0.1020" width="1.9578" height="0.2040" ry="0.1020" fill="currentColor"/>
</g>
<g transform="translate(5.1732, 90.8552)">
<rect x="29.9759" y="-0.1020" width="1.9578" height="0.2040" ry="0.1020" fill="currentColor"/>
</g>
<g transform="translate(5.1732, 89.7552)">
<rect x="17.6856" y="-0.1020" width="1.9578" height="0.2040" ry="0.1020" fill="currentColor"/>
</g>
<g transform="translate(5.1732, 90.8552)">
<rect x="17.6856" y="-0.1020" width="1.9578" height="0.2040" ry="0.1020" fill="currentColor"/>
</g>
<g transform="translate(5.1732, 96.3552)">
<line stroke-linejoin="round" stroke-linecap="round" stroke-width="0.0940" stroke="currentColor" x1="0.0470" y1="0" x2="93.0711" y2="0"/>
</g>
<g transform="translate(5.1732, 95.2552)">
<line stroke-linejoin="round" stroke-linecap="round" stroke-width="0.0940" stroke="currentColor" x1="0.0470" y1="0" x2="93.0711" y2="0"/>
</g>
<g transform="translate(5.1732, 94.1552)">
<line stroke-linejoin="round" stroke-linecap="round" stroke-width="0.0940" stroke="currentColor" x1="0.0470" y1="0" x2="93.0711" y2="0"/>
</g>
<g transform="translate(5.1732, 93.0552)">
<line stroke-linejoin="round" stroke-linecap="round" stroke-width="0.0940" stroke="currentColor" x1="0.0470" y1="0" x2="93.0711" y2="0"/>
</g>
<g transform="translate(5.1732, 91.9552)">
<line stroke-linejoin="round" stroke-linecap="round" stroke-width="0.0940" stroke="currentColor" x1="0.0470" y1="0" x2="93.0711" y2="0"/>
</g>
<g transform="translate(98.1127, 94.1552)">
<rect x="0.0000" y="-2.2000" width="0.1786" height="4.4000" ry="0.0000" fill="currentColor"/>
</g>
<g transform="translate(80.3846, 94.1552)">
<rect x="0.0000" y="-2.2000" width="0.1786" height="4.4000" ry="0.0000" fill="currentColor"/>
</g>
<g transform="translate(55.4335, 94.1552)">
<rect x="0.0000" y="-2.2000" width="0.1786" height="4.4000" ry="0.0000" fill="currentColor"/>
</g>
<g transform="translate(33.0927, 94.1552)">
<rect x="0.0000" y="-2.2000" width="0.1786" height="4.4000" ry="0.0000" fill="currentColor"/>
</g>
<g transform="translate(69.1718, 94.1552)">
<polygon stroke-linejoin="round" stroke-linecap="round" stroke-width="0.0727" fill="currentColor" stroke="currentColor" points="5.7637 -0.0106 5.7637 0.4446 0.0364 0.2276 0.0364 -0.2276"/>
</g>
<g transform="translate(5.9732, 95.2552)">
<path transform="scale(0.0040, -0.0040)" d="M267 -593l-1 -41h-5c-108 0 -196 88 -196 196c0 58 54 104 113 104c54 0 95 -48 95 -104c0 -52 -43 -95 -95 -95c-11 0 -23 3 -34 8c26 -40 69 -68 119 -68h4zM644 2c0 -112 -73 -212 -180 -245c3 -35 5 -71 5 -107c0 -19 -1 -38 -2 -57c-7 -119 -87 -224 -201 -227l1 41
c43 1 161 25 161 246c0 31 -1 63 -4 94c-5 -1 -44 -8 -89 -8c-193 0 -333 179 -333 373c0 177 132 307 249 441c-28 95 -50 169 -50 345c0 116 56 226 150 294c5 4 13 3 18 -1c67 -81 132 -245 132 -358c0 -143 -86 -255 -181 -364c20 -69 38 -138 55 -208c2 0 7 1 14 1
c155 0 255 -128 255 -260zM460 -204c70 24 115 91 115 165c0 91 -68 182 -176 192c19 -89 48 -246 61 -357zM73 30c0 -146 141 -250 265 -250c1 0 47 0 82 6c-7 63 -29 202 -64 366c-79 -9 -124 -62 -124 -120c0 -44 26 -91 82 -123c5 -4 6 -10 6 -15c0 -11 -9 -21 -21 -21
c-15 0 -125 61 -125 186c0 88 58 173 159 196c-14 59 -30 119 -46 177c-107 -121 -214 -242 -214 -402zM431 915c0 34 0 66 -21 132c-99 -49 -162 -150 -162 -260c0 -56 12 -119 35 -197c81 97 148 199 148 325z" fill="currentColor"/>
</g>
<g transform="translate(9.5846, 94.1552)">
<path transform="scale(0.0040, -0.0040)" d="M26 43l-1 -68v-11c0 -22 0 -44 3 -66c46 38 95 80 95 139c0 34 -14 68 -44 68c-31 0 -52 -29 -53 -62zM-14 -137l-12 598c8 5 17 6 26 6s18 -1 26 -6l-7 -348c25 20 57 32 90 32c52 0 91 -47 91 -101c0 -81 -88 -118 -150 -169c-15 -12 -22 -35 -42 -35
c-12 0 -22 10 -22 23z" fill="currentColor"/>
</g>
<g transform="translate(3.4350, 90.8844)">
<text font-family="serif" font-size="1.7465" text-anchor="start" fill="currentColor">
<tspan>17</tspan>
</text>
</g>
<g transform="translate(57.8161, 94.3722)">
<polygon stroke-linejoin="round" stroke-linecap="round" stroke-width="0.0727" fill="currentColor" stroke="currentColor" points="5.7637 -0.4446 5.7637 0.0106 0.0364 0.2276 0.0364 -0.2276"/>
</g>
<a style="color:inherit;" xlink:href="textedit:///Users/marc.mouries/projects/Sheet-Music/Folk_Jewish/Hatikva/hatikva.ly:34:3:4">
<g transform="translate(12.8846, 93.0552)">
<path transform="scale(0.0040, -0.0040)" d="M220 135c11 0 106 -2 106 -87c0 -89 -114 -183 -220 -183c-11 0 -106 2 -106 87c0 89 114 183 220 183z" fill="currentColor"/>
</g>
</a>
<g transform="translate(12.9458, 94.1552)">
<rect x="-0.0611" y="-0.9081" width="0.1222" height="3.6581" ry="0.0364" fill="currentColor"/>
</g>
<a style="color:inherit;" xlink:href="textedit:///Users/marc.mouries/projects/Sheet-Music/Folk_Jewish/Hatikva/hatikva.ly:34:7:8">
<g transform="translate(23.1851, 89.2052)">
<path transform="scale(0.0040, -0.0040)" d="M220 135c11 0 106 -2 106 -87c0 -89 -114 -183 -220 -183c-11 0 -106 2 -106 87c0 89 114 183 220 183z" fill="currentColor"/>
</g>
</a>
<g transform="translate(23.2462, 94.1552)">
<rect x="-0.0611" y="-4.7581" width="0.1222" height="4.7581" ry="0.0364" fill="currentColor"/>
</g>
<a style="color:inherit;" xlink:href="textedit:///Users/marc.mouries/projects/Sheet-Music/Folk_Jewish/Hatikva/hatikva.ly:34:17:18">
<g transform="translate(35.4754, 89.2052)">
<path transform="scale(0.0040, -0.0040)" d="M220 135c11 0 106 -2 106 -87c0 -89 -114 -183 -220 -183c-11 0 -106 2 -106 87c0 89 114 183 220 183z" fill="currentColor"/>
</g>
</a>
<g transform="translate(35.5365, 94.1552)">
<rect x="-0.0611" y="-4.7581" width="0.1222" height="4.7581" ry="0.0364" fill="currentColor"/>
</g>
<a style="color:inherit;" xlink:href="textedit:///Users/marc.mouries/projects/Sheet-Music/Folk_Jewish/Hatikva/hatikva.ly:34:21:22">
<g transform="translate(45.5259, 89.2052)">
<path transform="scale(0.0040, -0.0040)" d="M220 135c11 0 106 -2 106 -87c0 -89 -114 -183 -220 -183c-11 0 -106 2 -106 87c0 89 114 183 220 183z" fill="currentColor"/>
</g>
</a>
<g transform="translate(45.5870, 94.1552)">
<rect x="-0.0611" y="-4.7581" width="0.1222" height="4.7581" ry="0.0364" fill="currentColor"/>
</g>
<a style="color:inherit;" xlink:href="textedit:///Users/marc.mouries/projects/Sheet-Music/Folk_Jewish/Hatikva/hatikva.ly:34:28:29">
<g transform="translate(57.8161, 89.7552)">
<path transform="scale(0.0040, -0.0040)" d="M220 135c11 0 106 -2 106 -87c0 -89 -114 -183 -220 -183c-11 0 -106 2 -106 87c0 89 114 183 220 183z" fill="currentColor"/>
</g>
</a>
<g transform="translate(57.8773, 94.1552)">
<rect x="-0.0611" y="-4.2081" width="0.1222" height="4.4228" ry="0.0364" fill="currentColor"/>
</g>
<a style="color:inherit;" xlink:href="textedit:///Users/marc.mouries/projects/Sheet-Music/Folk_Jewish/Hatikva/hatikva.ly:34:32:33">
<g transform="translate(63.4940, 89.2052)">
<path transform="scale(0.0040, -0.0040)" d="M220 135c11 0 106 -2 106 -87c0 -89 -114 -183 -220 -183c-11 0 -106 2 -106 87c0 89 114 183 220 183z" fill="currentColor"/>
</g>
</a>
<g transform="translate(63.5551, 94.1552)">
<rect x="-0.0611" y="-4.7581" width="0.1222" height="4.7604" ry="0.0364" fill="currentColor"/>
</g>
<a style="color:inherit;" xlink:href="textedit:///Users/marc.mouries/projects/Sheet-Music/Folk_Jewish/Hatikva/hatikva.ly:34:34:35">
<g transform="translate(69.1718, 89.7552)">
<path transform="scale(0.0040, -0.0040)" d="M220 135c11 0 106 -2 106 -87c0 -89 -114 -183 -220 -183c-11 0 -106 2 -106 87c0 89 114 183 220 183z" fill="currentColor"/>
</g>
</a>
<g transform="translate(69.2329, 94.1552)">
<rect x="-0.0611" y="-4.2081" width="0.1222" height="4.2104" ry="0.0364" fill="currentColor"/>
</g>
<a style="color:inherit;" xlink:href="textedit:///Users/marc.mouries/projects/Sheet-Music/Folk_Jewish/Hatikva/hatikva.ly:34:36:37">
<g transform="translate(74.8496, 90.3052)">
<path transform="scale(0.0040, -0.0040)" d="M220 135c11 0 106 -2 106 -87c0 -89 -114 -183 -220 -183c-11 0 -106 2 -106 87c0 89 114 183 220 183z" fill="currentColor"/>
</g>
</a>
<g transform="translate(74.9107, 94.1552)">
<rect x="-0.0611" y="-3.6581" width="0.1222" height="3.8728" ry="0.0364" fill="currentColor"/>
</g>
<a style="color:inherit;" xlink:href="textedit:///Users/marc.mouries/projects/Sheet-Music/Folk_Jewish/Hatikva/hatikva.ly:34:42:43">
<g transform="translate(83.7987, 90.8552)">
<path transform="scale(0.0040, -0.0040)" d="M315 66c0 23 -18 42 -42 42c-40 0 -206 -113 -234 -146c-7 -8 -10 -18 -10 -28c0 -23 18 -42 42 -42c40 0 206 113 234 146c7 8 10 18 10 28zM263 135c39 0 81 -13 81 -69c0 -27 -18 -112 -76 -151c-22 -15 -86 -50 -188 -50c-39 0 -80 13 -80 69c0 27 17 112 75 151
c22 15 86 50 188 50z" fill="currentColor"/>
</g>
</a>
<g transform="translate(83.8598, 94.1552)">
<rect x="-0.0611" y="-3.0359" width="0.1222" height="3.5859" ry="0.0364" fill="currentColor"/>
</g>
<g transform="translate(5.1732, 106.5532)">
<rect x="78.2818" y="-0.1020" width="2.0620" height="0.2040" ry="0.1020" fill="currentColor"/>
</g>
<g transform="translate(5.1732, 106.5532)">
<rect x="69.3501" y="-0.1020" width="1.9578" height="0.2040" ry="0.1020" fill="currentColor"/>
</g>
<g transform="translate(5.1732, 105.4532)">
<rect x="63.6723" y="-0.1020" width="1.9578" height="0.2040" ry="0.1020" fill="currentColor"/>
</g>
<g transform="translate(5.1732, 106.5532)">
<rect x="63.6723" y="-0.1020" width="1.9578" height="0.2040" ry="0.1020" fill="currentColor"/>
</g>
<g transform="translate(5.1732, 105.4532)">
<rect x="57.9944" y="-0.1020" width="1.9578" height="0.2040" ry="0.1020" fill="currentColor"/>
</g>
<g transform="translate(5.1732, 106.5532)">
<rect x="57.9944" y="-0.1020" width="1.9578" height="0.2040" ry="0.1020" fill="currentColor"/>
</g>
<g transform="translate(5.1732, 105.4532)">
<rect x="52.3166" y="-0.1020" width="1.9578" height="0.2040" ry="0.1020" fill="currentColor"/>
</g>
<g transform="translate(5.1732, 106.5532)">
<rect x="52.3166" y="-0.1020" width="1.9578" height="0.2040" ry="0.1020" fill="currentColor"/>
</g>
<g transform="translate(5.1732, 105.4532)">
<rect x="40.0263" y="-0.1020" width="1.9578" height="0.2040" ry="0.1020" fill="currentColor"/>
</g>
<g transform="translate(5.1732, 106.5532)">
<rect x="40.0263" y="-0.1020" width="1.9578" height="0.2040" ry="0.1020" fill="currentColor"/>
</g>
<g transform="translate(5.1732, 105.4532)">
<rect x="29.9759" y="-0.1020" width="1.9578" height="0.2040" ry="0.1020" fill="currentColor"/>
</g>
<g transform="translate(5.1732, 106.5532)">
<rect x="29.9759" y="-0.1020" width="1.9578" height="0.2040" ry="0.1020" fill="currentColor"/>
</g>
<g transform="translate(5.1732, 105.4532)">
<rect x="17.6856" y="-0.1020" width="1.9578" height="0.2040" ry="0.1020" fill="currentColor"/>
</g>
<g transform="translate(5.1732, 106.5532)">
<rect x="17.6856" y="-0.1020" width="1.9578" height="0.2040" ry="0.1020" fill="currentColor"/>
</g>
<g transform="translate(5.1732, 112.0532)">
<line stroke-linejoin="round" stroke-linecap="round" stroke-width="0.0940" stroke="currentColor" x1="0.0470" y1="0" x2="93.0711" y2="0"/>
</g>
<g transform="translate(5.1732, 110.9532)">
<line stroke-linejoin="round" stroke-linecap="round" stroke-width="0.0940" stroke="currentColor" x1="0.0470" y1="0" x2="93.0711" y2="0"/>
</g>
<g transform="translate(5.1732, 109.8532)">
<line stroke-linejoin="round" stroke-linecap="round" stroke-width="0.0940" stroke="currentColor" x1="0.0470" y1="0" x2="93.0711" y2="0"/>
</g>
<g transform="translate(5.1732, 108.7532)">
<line stroke-linejoin="round" stroke-linecap="round" stroke-width="0.0940" stroke="currentColor" x1="0.0470" y1="0" x2="93.0711" y2="0"/>
</g>
<g transform="translate(5.1732, 107.6532)">
<line stroke-linejoin="round" stroke-linecap="round" stroke-width="0.0940" stroke="currentColor" x1="0.0470" y1="0" x2="93.0711" y2="0"/>
</g>
<g transform="translate(98.1127, 109.8532)">
<rect x="0.0000" y="-2.2000" width="0.1786" height="4.4000" ry="0.0000" fill="currentColor"/>
</g>
<g transform="translate(80.3846, 109.8532)">
<rect x="0.0000" y="-2.2000" width="0.1786" height="4.4000" ry="0.0000" fill="currentColor"/>
</g>
<g transform="translate(55.4335, 109.8532)">
<rect x="0.0000" y="-2.2000" width="0.1786" height="4.4000" ry="0.0000" fill="currentColor"/>
</g>
<g transform="translate(33.0927, 109.8532)">
<rect x="0.0000" y="-2.2000" width="0.1786" height="4.4000" ry="0.0000" fill="currentColor"/>
</g>
<g transform="translate(69.1718, 109.8532)">
<polygon stroke-linejoin="round" stroke-linecap="round" stroke-width="0.0727" fill="currentColor" stroke="currentColor" points="5.7637 -0.0106 5.7637 0.4446 0.0364 0.2276 0.0364 -0.2276"/>
</g>
<g transform="translate(5.9732, 110.9532)">
<path transform="scale(0.0040, -0.0040)" d="M267 -593l-1 -41h-5c-108 0 -196 88 -196 196c0 58 54 104 113 104c54 0 95 -48 95 -104c0 -52 -43 -95 -95 -95c-11 0 -23 3 -34 8c26 -40 69 -68 119 -68h4zM644 2c0 -112 -73 -212 -180 -245c3 -35 5 -71 5 -107c0 -19 -1 -38 -2 -57c-7 -119 -87 -224 -201 -227l1 41
c43 1 161 25 161 246c0 31 -1 63 -4 94c-5 -1 -44 -8 -89 -8c-193 0 -333 179 -333 373c0 177 132 307 249 441c-28 95 -50 169 -50 345c0 116 56 226 150 294c5 4 13 3 18 -1c67 -81 132 -245 132 -358c0 -143 -86 -255 -181 -364c20 -69 38 -138 55 -208c2 0 7 1 14 1
c155 0 255 -128 255 -260zM460 -204c70 24 115 91 115 165c0 91 -68 182 -176 192c19 -89 48 -246 61 -357zM73 30c0 -146 141 -250 265 -250c1 0 47 0 82 6c-7 63 -29 202 -64 366c-79 -9 -124 -62 -124 -120c0 -44 26 -91 82 -123c5 -4 6 -10 6 -15c0 -11 -9 -21 -21 -21
c-15 0 -125 61 -125 186c0 88 58 173 159 196c-14 59 -30 119 -46 177c-107 -121 -214 -242 -214 -402zM431 915c0 34 0 66 -21 132c-99 -49 -162 -150 -162 -260c0 -56 12 -119 35 -197c81 97 148 199 148 325z" fill="currentColor"/>
</g>
<g transform="translate(9.5846, 109.8532)">
<path transform="scale(0.0040, -0.0040)" d="M26 43l-1 -68v-11c0 -22 0 -44 3 -66c46 38 95 80 95 139c0 34 -14 68 -44 68c-31 0 -52 -29 -53 -62zM-14 -137l-12 598c8 5 17 6 26 6s18 -1 26 -6l-7 -348c25 20 57 32 90 32c52 0 91 -47 91 -101c0 -81 -88 -118 -150 -169c-15 -12 -22 -35 -42 -35
c-12 0 -22 10 -22 23z" fill="currentColor"/>
</g>
<g transform="translate(3.4350, 106.6061)">
<text font-family="serif" font-size="1.7465" text-anchor="start" fill="currentColor">
<tspan>21</tspan>
</text>
</g>
<g transform="translate(57.8161, 110.0701)">
<polygon stroke-linejoin="round" stroke-linecap="round" stroke-width="0.0727" fill="currentColor" stroke="currentColor" points="5.7637 -0.4446 5.7637 0.0106 0.0364 0.2276 0.0364 -0.2276"/>
</g>
<a style="color:inherit;" xlink:href="textedit:///Users/marc.mouries/projects/Sheet-Music/Folk_Jewish/Hatikva/hatikva.ly:35:3:4">
<g transform="translate(12.8846, 108.7532)">
<path transform="scale(0.0040, -0.0040)" d="M220 135c11 0 106 -2 106 -87c0 -89 -114 -183 -220 -183c-11 0 -106 2 -106 87c0 89 114 183 220 183z" fill="currentColor"/>
</g>
</a>
<g transform="translate(12.9458, 109.8532)">
<rect x="-0.0611" y="-0.9081" width="0.1222" height="3.6581" ry="0.0364" fill="currentColor"/>
</g>
<a style="color:inherit;" xlink:href="textedit:///Users/marc.mouries/projects/Sheet-Music/Folk_Jewish/Hatikva/hatikva.ly:35:7:8">
<g transform="translate(23.1851, 104.9032)">
<path transform="scale(0.0040, -0.0040)" d="M220 135c11 0 106 -2 106 -87c0 -89 -114 -183 -220 -183c-11 0 -106 2 -106 87c0 89 114 183 220 183z" fill="currentColor"/>
</g>
</a>
<g transform="translate(23.2462, 109.8532)">
<rect x="-0.0611" y="-4.7581" width="0.1222" height="4.7581" ry="0.0364" fill="currentColor"/>
</g>
<a style="color:inherit;" xlink:href="textedit:///Users/marc.mouries/projects/Sheet-Music/Folk_Jewish/Hatikva/hatikva.ly:35:17:18">
<g transform="translate(35.4754, 104.9032)">
<path transform="scale(0.0040, -0.0040)" d="M220 135c11 0 106 -2 106 -87c0 -89 -114 -183 -220 -183c-11 0 -106 2 -106 87c0 89 114 183 220 183z" fill="currentColor"/>
</g>
</a>
<g transform="translate(35.5365, 109.8532)">
<rect x="-0.0611" y="-4.7581" width="0.1222" height="4.7581" ry="0.0364" fill="currentColor"/>
</g>
<a style="color:inherit;" xlink:href="textedit:///Users/marc.mouries/projects/Sheet-Music/Folk_Jewish/Hatikva/hatikva.ly:35:21:22">
<g transform="translate(45.5259, 104.9032)">
<path transform="scale(0.0040, -0.0040)" d="M220 135c11 0 106 -2 106 -87c0 -89 -114 -183 -220 -183c-11 0 -106 2 -106 87c0 89 114 183 220 183z" fill="currentColor"/>
</g>
</a>
<g transform="translate(45.5870, 109.8532)">
<rect x="-0.0611" y="-4.7581" width="0.1222" height="4.7581" ry="0.0364" fill="currentColor"/>
</g>
<a style="color:inherit;" xlink:href="textedit:///Users/marc.mouries/projects/Sheet-Music/Folk_Jewish/Hatikva/hatikva.ly:35:28:29">
<g transform="translate(57.8161, 105.4532)">
<path transform="scale(0.0040, -0.0040)" d="M220 135c11 0 106 -2 106 -87c0 -89 -114 -183 -220 -183c-11 0 -106 2 -106 87c0 89 114 183 220 183z" fill="currentColor"/>
</g>
</a>
<g transform="translate(57.8773, 109.8532)">
<rect x="-0.0611" y="-4.2081" width="0.1222" height="4.4228" ry="0.0364" fill="currentColor"/>
</g>
<a style="color:inherit;" xlink:href="textedit:///Users/marc.mouries/projects/Sheet-Music/Folk_Jewish/Hatikva/hatikva.ly:35:32:33">
<g transform="translate(63.4940, 104.9032)">
<path transform="scale(0.0040, -0.0040)" d="M220 135c11 0 106 -2 106 -87c0 -89 -114 -183 -220 -183c-11 0 -106 2 -106 87c0 89 114 183 220 183z" fill="currentColor"/>
</g>
</a>
<g transform="translate(63.5551, 109.8532)">
<rect x="-0.0611" y="-4.7581" width="0.1222" height="4.7604" ry="0.0364" fill="currentColor"/>
</g>
<a style="color:inherit;" xlink:href="textedit:///Users/marc.mouries/projects/Sheet-Music/Folk_Jewish/Hatikva/hatikva.ly:35:34:35">
<g transform="translate(69.1718, 105.4532)">
<path transform="scale(0.0040, -0.0040)" d="M220 135c11 0 106 -2 106 -87c0 -89 -114 -183 -220 -183c-11 0 -106 2 -106 87c0 89 114 183 220 183z" fill="currentColor"/>
</g>
</a>
<g transform="translate(69.2329, 109.8532)">
<rect x="-0.0611" y="-4.2081" width="0.1222" height="4.2104" ry="0.0364" fill="currentColor"/>
</g>
<a style="color:inherit;" xlink:href="textedit:///Users/marc.mouries/projects/Sheet-Music/Folk_Jewish/Hatikva/hatikva.ly:35:36:37">
<g transform="translate(74.8496, 106.0032)">
<path transform="scale(0.0040, -0.0040)" d="M220 135c11 0 106 -2 106 -87c0 -89 -114 -183 -220 -183c-11 0 -106 2 -106 87c0 89 114 183 220 183z" fill="currentColor"/>
</g>
</a>
<g transform="translate(74.9107, 109.8532)">
<rect x="-0.0611" y="-3.6581" width="0.1222" height="3.8728" ry="0.0364" fill="currentColor"/>
</g>
<a style="color:inherit;" xlink:href="textedit:///Users/marc.mouries/projects/Sheet-Music/Folk_Jewish/Hatikva/hatikva.ly:35:42:43">
<g transform="translate(83.7987, 106.5532)">
<path transform="scale(0.0040, -0.0040)" d="M315 66c0 23 -18 42 -42 42c-40 0 -206 -113 -234 -146c-7 -8 -10 -18 -10 -28c0 -23 18 -42 42 -42c40 0 206 113 234 146c7 8 10 18 10 28zM263 135c39 0 81 -13 81 -69c0 -27 -18 -112 -76 -151c-22 -15 -86 -50 -188 -50c-39 0 -80 13 -80 69c0 27 17 112 75 151
c22 15 86 50 188 50z" fill="currentColor"/>
</g>
</a>
<g transform="translate(83.8598, 109.8532)">
<rect x="-0.0611" y="-3.0359" width="0.1222" height="3.5859" ry="0.0364" fill="currentColor"/>
</g>
<g transform="translate(5.1732, 122.2511)">
<rect x="73.0565" y="-0.1020" width="1.9578" height="0.2040" ry="0.1020" fill="currentColor"/>
</g>
<g transform="translate(5.1732, 121.1511)">
<rect x="65.6615" y="-0.1020" width="1.9578" height="0.2040" ry="0.1020" fill="currentColor"/>
</g>
<g transform="translate(5.1732, 122.2511)">
<rect x="65.6615" y="-0.1020" width="1.9578" height="0.2040" ry="0.1020" fill="currentColor"/>
</g>
<g transform="translate(5.1732, 122.2511)">
<rect x="60.3866" y="-0.1020" width="1.9578" height="0.2040" ry="0.1020" fill="currentColor"/>
</g>
<g transform="translate(5.1732, 122.2511)">
<rect x="55.1117" y="-0.1020" width="1.9578" height="0.2040" ry="0.1020" fill="currentColor"/>
</g>
<g transform="translate(5.1732, 127.7511)">
<line stroke-linejoin="round" stroke-linecap="round" stroke-width="0.0940" stroke="currentColor" x1="0.0470" y1="0" x2="93.0711" y2="0"/>
</g>
<g transform="translate(5.1732, 126.6511)">
<line stroke-linejoin="round" stroke-linecap="round" stroke-width="0.0940" stroke="currentColor" x1="0.0470" y1="0" x2="93.0711" y2="0"/>
</g>
<g transform="translate(5.1732, 125.5511)">
<line stroke-linejoin="round" stroke-linecap="round" stroke-width="0.0940" stroke="currentColor" x1="0.0470" y1="0" x2="93.0711" y2="0"/>
</g>
<g transform="translate(5.1732, 124.4511)">
<line stroke-linejoin="round" stroke-linecap="round" stroke-width="0.0940" stroke="currentColor" x1="0.0470" y1="0" x2="93.0711" y2="0"/>
</g>
<g transform="translate(5.1732, 123.3511)">
<line stroke-linejoin="round" stroke-linecap="round" stroke-width="0.0940" stroke="currentColor" x1="0.0470" y1="0" x2="93.0711" y2="0"/>
</g>
<g transform="translate(98.1127, 125.5511)">
<rect x="0.0000" y="-2.2000" width="0.1786" height="4.4000" ry="0.0000" fill="currentColor"/>
</g>
<g transform="translate(76.2930, 125.5511)">
<rect x="0.0000" y="-2.2000" width="0.1786" height="4.4000" ry="0.0000" fill="currentColor"/>
</g>
<g transform="translate(53.0420, 125.5511)">
<rect x="0.0000" y="-2.2000" width="0.1786" height="4.4000" ry="0.0000" fill="currentColor"/>
</g>
<g transform="translate(32.4646, 125.5511)">
<rect x="0.0000" y="-2.2000" width="0.1786" height="4.4000" ry="0.0000" fill="currentColor"/>
</g>
<g transform="translate(87.8005, 126.4341)">
<polygon stroke-linejoin="round" stroke-linecap="round" stroke-width="0.0727" fill="currentColor" stroke="currentColor" points="5.3607 -0.0106 5.3607 0.4446 0.0364 0.2276 0.0364 -0.2276"/>
</g>
<g transform="translate(5.9732, 126.6511)">
<path transform="scale(0.0040, -0.0040)" d="M267 -593l-1 -41h-5c-108 0 -196 88 -196 196c0 58 54 104 113 104c54 0 95 -48 95 -104c0 -52 -43 -95 -95 -95c-11 0 -23 3 -34 8c26 -40 69 -68 119 -68h4zM644 2c0 -112 -73 -212 -180 -245c3 -35 5 -71 5 -107c0 -19 -1 -38 -2 -57c-7 -119 -87 -224 -201 -227l1 41
c43 1 161 25 161 246c0 31 -1 63 -4 94c-5 -1 -44 -8 -89 -8c-193 0 -333 179 -333 373c0 177 132 307 249 441c-28 95 -50 169 -50 345c0 116 56 226 150 294c5 4 13 3 18 -1c67 -81 132 -245 132 -358c0 -143 -86 -255 -181 -364c20 -69 38 -138 55 -208c2 0 7 1 14 1
c155 0 255 -128 255 -260zM460 -204c70 24 115 91 115 165c0 91 -68 182 -176 192c19 -89 48 -246 61 -357zM73 30c0 -146 141 -250 265 -250c1 0 47 0 82 6c-7 63 -29 202 -64 366c-79 -9 -124 -62 -124 -120c0 -44 26 -91 82 -123c5 -4 6 -10 6 -15c0 -11 -9 -21 -21 -21
c-15 0 -125 61 -125 186c0 88 58 173 159 196c-14 59 -30 119 -46 177c-107 -121 -214 -242 -214 -402zM431 915c0 34 0 66 -21 132c-99 -49 -162 -150 -162 -260c0 -56 12 -119 35 -197c81 97 148 199 148 325z" fill="currentColor"/>
</g>
<g transform="translate(9.5846, 125.5511)">
<path transform="scale(0.0040, -0.0040)" d="M26 43l-1 -68v-11c0 -22 0 -44 3 -66c46 38 95 80 95 139c0 34 -14 68 -44 68c-31 0 -52 -29 -53 -62zM-14 -137l-12 598c8 5 17 6 26 6s18 -1 26 -6l-7 -348c25 20 57 32 90 32c52 0 91 -47 91 -101c0 -81 -88 -118 -150 -169c-15 -12 -22 -35 -42 -35
c-12 0 -22 10 -22 23z" fill="currentColor"/>
</g>
<g transform="translate(3.4350, 122.2836)">
<text font-family="serif" font-size="1.7465" text-anchor="start" fill="currentColor">
<tspan>25</tspan>
</text>
</g>
<g transform="translate(65.8861, 125.7681)">
<polygon stroke-linejoin="round" stroke-linecap="round" stroke-width="0.0727" fill="currentColor" stroke="currentColor" points="5.3607 -0.4446 5.3607 0.0106 0.0364 0.2276 0.0364 -0.2276"/>
</g>
<a style="color:inherit;" xlink:href="textedit:///Users/marc.mouries/projects/Sheet-Music/Folk_Jewish/Hatikva/hatikva.ly:36:3:4">
<g transform="translate(12.8846, 122.8011)">
<path transform="scale(0.0040, -0.0040)" d="M220 135c11 0 106 -2 106 -87c0 -89 -114 -183 -220 -183c-11 0 -106 2 -106 87c0 89 114 183 220 183z" fill="currentColor"/>
</g>
</a>
<g transform="translate(12.9458, 125.5511)">
<rect x="-0.0611" y="-2.5581" width="0.1222" height="3.6581" ry="0.0364" fill="currentColor"/>
</g>
<g transform="translate(55.3364, 125.7681)">
<polygon stroke-linejoin="round" stroke-linecap="round" stroke-width="0.0727" fill="currentColor" stroke="currentColor" points="5.3607 -0.4446 5.3607 0.0106 0.0364 0.2276 0.0364 -0.2276"/>
</g>
<a style="color:inherit;" xlink:href="textedit:///Users/marc.mouries/projects/Sheet-Music/Folk_Jewish/Hatikva/hatikva.ly:36:7:8">
<g transform="translate(22.1292, 122.8011)">
<path transform="scale(0.0040, -0.0040)" d="M220 135c11 0 106 -2 106 -87c0 -89 -114 -183 -220 -183c-11 0 -106 2 -106 87c0 89 114 183 220 183z" fill="currentColor"/>
</g>
</a>
<g transform="translate(22.1903, 125.5511)">
<rect x="-0.0611" y="-2.5581" width="0.1222" height="3.4412" ry="0.0364" fill="currentColor"/>
</g>
<g transform="translate(22.1292, 126.4341)">
<polygon stroke-linejoin="round" stroke-linecap="round" stroke-width="0.0727" fill="currentColor" stroke="currentColor" points="5.3607 -0.2276 5.3607 0.2276 0.0364 0.2276 0.0364 -0.2276"/>
</g>
<a style="color:inherit;" xlink:href="textedit:///Users/marc.mouries/projects/Sheet-Music/Folk_Jewish/Hatikva/hatikva.ly:36:10:11">
<g transform="translate(27.4040, 122.8011)">
<path transform="scale(0.0040, -0.0040)" d="M220 135c11 0 106 -2 106 -87c0 -89 -114 -183 -220 -183c-11 0 -106 2 -106 87c0 89 114 183 220 183z" fill="currentColor"/>
</g>
</a>
<g transform="translate(27.4652, 125.5511)">
<rect x="-0.0611" y="-2.5581" width="0.1222" height="3.4412" ry="0.0364" fill="currentColor"/>
</g>
<a style="color:inherit;" xlink:href="textedit:///Users/marc.mouries/projects/Sheet-Music/Folk_Jewish/Hatikva/hatikva.ly:36:17:18">
<g transform="translate(34.7905, 123.3511)">
<path transform="scale(0.0040, -0.0040)" d="M220 135c11 0 106 -2 106 -87c0 -89 -114 -183 -220 -183c-11 0 -106 2 -106 87c0 89 114 183 220 183z" fill="currentColor"/>
</g>
</a>
<g transform="translate(34.8516, 125.5511)">
<rect x="-0.0611" y="-2.0081" width="0.1222" height="3.6581" ry="0.0364" fill="currentColor"/>
</g>
<a style="color:inherit;" xlink:href="textedit:///Users/marc.mouries/projects/Sheet-Music/Folk_Jewish/Hatikva/hatikva.ly:36:21:22">
<g transform="translate(44.0350, 123.3511)">
<path transform="scale(0.0040, -0.0040)" d="M220 135c11 0 106 -2 106 -87c0 -89 -114 -183 -220 -183c-11 0 -106 2 -106 87c0 89 114 183 220 183z" fill="currentColor"/>
</g>
</a>
<g transform="translate(44.0961, 125.5511)">
<rect x="-0.0611" y="-2.0081" width="0.1222" height="3.6581" ry="0.0364" fill="currentColor"/>
</g>
<a style="color:inherit;" xlink:href="textedit:///Users/marc.mouries/projects/Sheet-Music/Folk_Jewish/Hatikva/hatikva.ly:36:28:29">
<g transform="translate(55.3364, 122.8011)">
<path transform="scale(0.0040, -0.0040)" d="M220 135c11 0 106 -2 106 -87c0 -89 -114 -183 -220 -183c-11 0 -106 2 -106 87c0 89 114 183 220 183z" fill="currentColor"/>
</g>
</a>
<g transform="translate(55.3975, 125.5511)">
<rect x="-0.0611" y="-2.5581" width="0.1222" height="2.7727" ry="0.0364" fill="currentColor"/>
</g>
<a style="color:inherit;" xlink:href="textedit:///Users/marc.mouries/projects/Sheet-Music/Folk_Jewish/Hatikva/hatikva.ly:36:32:33">
<g transform="translate(60.6113, 122.2511)">
<path transform="scale(0.0040, -0.0040)" d="M220 135c11 0 106 -2 106 -87c0 -89 -114 -183 -220 -183c-11 0 -106 2 -106 87c0 89 114 183 220 183z" fill="currentColor"/>
</g>
</a>
<g transform="translate(60.6724, 125.5511)">
<rect x="-0.0611" y="-3.1081" width="0.1222" height="3.1106" ry="0.0364" fill="currentColor"/>
</g>
<a style="color:inherit;" xlink:href="textedit:///Users/marc.mouries/projects/Sheet-Music/Folk_Jewish/Hatikva/hatikva.ly:36:34:35">
<g transform="translate(65.8861, 121.7011)">
<path transform="scale(0.0040, -0.0040)" d="M220 135c11 0 106 -2 106 -87c0 -89 -114 -183 -220 -183c-11 0 -106 2 -106 87c0 89 114 183 220 183z" fill="currentColor"/>
</g>
</a>
<g transform="translate(65.9472, 125.5511)">
<rect x="-0.0611" y="-3.6581" width="0.1222" height="3.8727" ry="0.0364" fill="currentColor"/>
</g>
<a style="color:inherit;" xlink:href="textedit:///Users/marc.mouries/projects/Sheet-Music/Folk_Jewish/Hatikva/hatikva.ly:36:37:38">
<g transform="translate(71.1610, 121.1511)">
<path transform="scale(0.0040, -0.0040)" d="M220 135c11 0 106 -2 106 -87c0 -89 -114 -183 -220 -183c-11 0 -106 2 -106 87c0 89 114 183 220 183z" fill="currentColor"/>
</g>
</a>
<g transform="translate(71.2221, 125.5511)">
<rect x="-0.0611" y="-4.2081" width="0.1222" height="4.2106" ry="0.0364" fill="currentColor"/>
</g>
<a style="color:inherit;" xlink:href="textedit:///Users/marc.mouries/projects/Sheet-Music/Folk_Jewish/Hatikva/hatikva.ly:36:42:43">
<g transform="translate(78.5560, 122.2511)">
<path transform="scale(0.0040, -0.0040)" d="M220 135c11 0 106 -2 106 -87c0 -89 -114 -183 -220 -183c-11 0 -106 2 -106 87c0 89 114 183 220 183z" fill="currentColor"/>
</g>
</a>
<g transform="translate(78.6171, 125.5511)">
<rect x="-0.0611" y="-3.1081" width="0.1222" height="3.6581" ry="0.0364" fill="currentColor"/>
</g>
<a style="color:inherit;" xlink:href="textedit:///Users/marc.mouries/projects/Sheet-Music/Folk_Jewish/Hatikva/hatikva.ly:36:45:46">
<g transform="translate(87.8005, 122.8011)">
<path transform="scale(0.0040, -0.0040)" d="M220 135c11 0 106 -2 106 -87c0 -89 -114 -183 -220 -183c-11 0 -106 2 -106 87c0 89 114 183 220 183z" fill="currentColor"/>
</g>
</a>
<g transform="translate(87.8616, 125.5511)">
<rect x="-0.0611" y="-2.5581" width="0.1222" height="3.4436" ry="0.0364" fill="currentColor"/>
</g>
<a style="color:inherit;" xlink:href="textedit:///Users/marc.mouries/projects/Sheet-Music/Folk_Jewish/Hatikva/hatikva.ly:36:48:49">
<g transform="translate(93.0754, 123.3511)">
<path transform="scale(0.0040, -0.0040)" d="M220 135c11 0 106 -2 106 -87c0 -89 -114 -183 -220 -183c-11 0 -106 2 -106 87c0 89 114 183 220 183z" fill="currentColor"/>
</g>
</a>
<g transform="translate(93.1365, 125.5511)">
<rect x="-0.0611" y="-2.0081" width="0.1222" height="3.1057" ry="0.0364" fill="currentColor"/>
</g>
<g transform="translate(5.1732, 143.4490)">
<line stroke-linejoin="round" stroke-linecap="round" stroke-width="0.0940" stroke="currentColor" x1="0.0470" y1="0" x2="93.0711" y2="0"/>
</g>
<g transform="translate(5.1732, 142.3490)">
<line stroke-linejoin="round" stroke-linecap="round" stroke-width="0.0940" stroke="currentColor" x1="0.0470" y1="0" x2="93.0711" y2="0"/>
</g>
<g transform="translate(5.1732, 141.2490)">
<line stroke-linejoin="round" stroke-linecap="round" stroke-width="0.0940" stroke="currentColor" x1="0.0470" y1="0" x2="93.0711" y2="0"/>
</g>
<g transform="translate(5.1732, 140.1490)">
<line stroke-linejoin="round" stroke-linecap="round" stroke-width="0.0940" stroke="currentColor" x1="0.0470" y1="0" x2="93.0711" y2="0"/>
</g>
<g transform="translate(5.1732, 139.0490)">
<line stroke-linejoin="round" stroke-linecap="round" stroke-width="0.0940" stroke="currentColor" x1="0.0470" y1="0" x2="93.0711" y2="0"/>
</g>
<g transform="translate(98.1127, 141.2490)">
<rect x="0.0000" y="-2.2000" width="0.1786" height="4.4000" ry="0.0000" fill="currentColor"/>
</g>
<g transform="translate(80.5872, 141.2490)">
<rect x="0.0000" y="-2.2000" width="0.1786" height="4.4000" ry="0.0000" fill="currentColor"/>
</g>
<g transform="translate(55.9196, 141.2490)">
<rect x="0.0000" y="-2.2000" width="0.1786" height="4.4000" ry="0.0000" fill="currentColor"/>
</g>
<g transform="translate(32.5338, 141.2490)">
<rect x="0.0000" y="-2.2000" width="0.1786" height="4.4000" ry="0.0000" fill="currentColor"/>
</g>
<g transform="translate(69.6003, 142.5660)">
<polygon stroke-linejoin="round" stroke-linecap="round" stroke-width="0.0727" fill="currentColor" stroke="currentColor" points="5.7043 -0.4446 5.7043 0.0106 0.0364 0.2276 0.0364 -0.2276"/>
</g>
<g transform="translate(5.9732, 142.3490)">
<path transform="scale(0.0040, -0.0040)" d="M267 -593l-1 -41h-5c-108 0 -196 88 -196 196c0 58 54 104 113 104c54 0 95 -48 95 -104c0 -52 -43 -95 -95 -95c-11 0 -23 3 -34 8c26 -40 69 -68 119 -68h4zM644 2c0 -112 -73 -212 -180 -245c3 -35 5 -71 5 -107c0 -19 -1 -38 -2 -57c-7 -119 -87 -224 -201 -227l1 41
c43 1 161 25 161 246c0 31 -1 63 -4 94c-5 -1 -44 -8 -89 -8c-193 0 -333 179 -333 373c0 177 132 307 249 441c-28 95 -50 169 -50 345c0 116 56 226 150 294c5 4 13 3 18 -1c67 -81 132 -245 132 -358c0 -143 -86 -255 -181 -364c20 -69 38 -138 55 -208c2 0 7 1 14 1
c155 0 255 -128 255 -260zM460 -204c70 24 115 91 115 165c0 91 -68 182 -176 192c19 -89 48 -246 61 -357zM73 30c0 -146 141 -250 265 -250c1 0 47 0 82 6c-7 63 -29 202 -64 366c-79 -9 -124 -62 -124 -120c0 -44 26 -91 82 -123c5 -4 6 -10 6 -15c0 -11 -9 -21 -21 -21
c-15 0 -125 61 -125 186c0 88 58 173 159 196c-14 59 -30 119 -46 177c-107 -121 -214 -242 -214 -402zM431 915c0 34 0 66 -21 132c-99 -49 -162 -150 -162 -260c0 -56 12 -119 35 -197c81 97 148 199 148 325z" fill="currentColor"/>
</g>
<g transform="translate(9.5846, 141.2490)">
<path transform="scale(0.0040, -0.0040)" d="M26 43l-1 -68v-11c0 -22 0 -44 3 -66c46 38 95 80 95 139c0 34 -14 68 -44 68c-31 0 -52 -29 -53 -62zM-14 -137l-12 598c8 5 17 6 26 6s18 -1 26 -6l-7 -348c25 20 57 32 90 32c52 0 91 -47 91 -101c0 -81 -88 -118 -150 -169c-15 -12 -22 -35 -42 -35
c-12 0 -22 10 -22 23z" fill="currentColor"/>
</g>
<g transform="translate(3.4350, 137.9781)">
<text font-family="serif" font-size="1.7465" text-anchor="start" fill="currentColor">
<tspan>29</tspan>
</text>
</g>
<g transform="translate(58.3634, 143.2321)">
<polygon stroke-linejoin="round" stroke-linecap="round" stroke-width="0.0727" fill="currentColor" stroke="currentColor" points="5.7043 -0.0106 5.7043 0.4446 0.0364 0.2276 0.0364 -0.2276"/>
</g>
<a style="color:inherit;" xlink:href="textedit:///Users/marc.mouries/projects/Sheet-Music/Folk_Jewish/Hatikva/hatikva.ly:37:3:4">
<g transform="translate(12.8846, 138.4990)">
<path transform="scale(0.0040, -0.0040)" d="M220 135c11 0 106 -2 106 -87c0 -89 -114 -183 -220 -183c-11 0 -106 2 -106 87c0 89 114 183 220 183z" fill="currentColor"/>
</g>
</a>
<g transform="translate(12.9458, 141.2490)">
<rect x="-0.0611" y="-2.5581" width="0.1222" height="3.6581" ry="0.0364" fill="currentColor"/>
</g>
<g transform="translate(44.9202, 142.3490)">
<polygon stroke-linejoin="round" stroke-linecap="round" stroke-width="0.0727" fill="currentColor" stroke="currentColor" points="5.7043 -0.2276 5.7043 0.2276 0.0364 0.2276 0.0364 -0.2276"/>
</g>
<a style="color:inherit;" xlink:href="textedit:///Users/marc.mouries/projects/Sheet-Music/Folk_Jewish/Hatikva/hatikva.ly:37:7:8">
<g transform="translate(22.8164, 138.4990)">
<path transform="scale(0.0040, -0.0040)" d="M220 135c11 0 106 -2 106 -87c0 -89 -114 -183 -220 -183c-11 0 -106 2 -106 87c0 89 114 183 220 183z" fill="currentColor"/>
</g>
</a>
<g transform="translate(22.8775, 141.2490)">
<rect x="-0.0611" y="-2.5581" width="0.1222" height="3.6581" ry="0.0364" fill="currentColor"/>
</g>
<a style="color:inherit;" xlink:href="textedit:///Users/marc.mouries/projects/Sheet-Music/Folk_Jewish/Hatikva/hatikva.ly:37:17:18">
<g transform="translate(34.9885, 139.0490)">
<path transform="scale(0.0040, -0.0040)" d="M220 135c11 0 106 -2 106 -87c0 -89 -114 -183 -220 -183c-11 0 -106 2 -106 87c0 89 114 183 220 183z" fill="currentColor"/>
</g>
</a>
<g transform="translate(35.0496, 141.2490)">
<rect x="-0.0611" y="-2.0081" width="0.1222" height="3.6581" ry="0.0364" fill="currentColor"/>
</g>
<a style="color:inherit;" xlink:href="textedit:///Users/marc.mouries/projects/Sheet-Music/Folk_Jewish/Hatikva/hatikva.ly:37:21:22">
<g transform="translate(44.9202, 139.0490)">
<path transform="scale(0.0040, -0.0040)" d="M220 135c11 0 106 -2 106 -87c0 -89 -114 -183 -220 -183c-11 0 -106 2 -106 87c0 89 114 183 220 183z" fill="currentColor"/>
</g>
</a>
<g transform="translate(44.9814, 141.2490)">
<rect x="-0.0611" y="-2.0081" width="0.1222" height="3.1081" ry="0.0364" fill="currentColor"/>
</g>
<a style="color:inherit;" xlink:href="textedit:///Users/marc.mouries/projects/Sheet-Music/Folk_Jewish/Hatikva/hatikva.ly:37:24:25">
<g transform="translate(50.5387, 139.0490)">
<path transform="scale(0.0040, -0.0040)" d="M220 135c11 0 106 -2 106 -87c0 -89 -114 -183 -220 -183c-11 0 -106 2 -106 87c0 89 114 183 220 183z" fill="currentColor"/>
</g>
</a>
<g transform="translate(50.5998, 141.2490)">
<rect x="-0.0611" y="-2.0081" width="0.1222" height="3.1081" ry="0.0364" fill="currentColor"/>
</g>
<a style="color:inherit;" xlink:href="textedit:///Users/marc.mouries/projects/Sheet-Music/Folk_Jewish/Hatikva/hatikva.ly:37:28:29">
<g transform="translate(58.3634, 139.5990)">
<path transform="scale(0.0040, -0.0040)" d="M220 135c11 0 106 -2 106 -87c0 -89 -114 -183 -220 -183c-11 0 -106 2 -106 87c0 89 114 183 220 183z" fill="currentColor"/>
</g>
</a>
<g transform="translate(58.4245, 141.2490)">
<rect x="-0.0611" y="-1.4581" width="0.1222" height="3.4435" ry="0.0364" fill="currentColor"/>
</g>
<a style="color:inherit;" xlink:href="textedit:///Users/marc.mouries/projects/Sheet-Music/Folk_Jewish/Hatikva/hatikva.ly:37:32:33">
<g transform="translate(63.9818, 140.1490)">
<path transform="scale(0.0040, -0.0040)" d="M220 135c11 0 106 -2 106 -87c0 -89 -114 -183 -220 -183c-11 0 -106 2 -106 87c0 89 114 183 220 183z" fill="currentColor"/>
</g>
</a>
<g transform="translate(64.0429, 141.2490)">
<rect x="-0.0611" y="-0.9081" width="0.1222" height="3.1058" ry="0.0364" fill="currentColor"/>
</g>
<a style="color:inherit;" xlink:href="textedit:///Users/marc.mouries/projects/Sheet-Music/Folk_Jewish/Hatikva/hatikva.ly:37:34:35">
<g transform="translate(69.6003, 139.5990)">
<path transform="scale(0.0040, -0.0040)" d="M220 135c11 0 106 -2 106 -87c0 -89 -114 -183 -220 -183c-11 0 -106 2 -106 87c0 89 114 183 220 183z" fill="currentColor"/>
</g>
</a>
<g transform="translate(69.6614, 141.2490)">
<rect x="-0.0611" y="-1.4581" width="0.1222" height="2.7728" ry="0.0364" fill="currentColor"/>
</g>
<a style="color:inherit;" xlink:href="textedit:///Users/marc.mouries/projects/Sheet-Music/Folk_Jewish/Hatikva/hatikva.ly:37:36:37">
<g transform="translate(75.2187, 139.0490)">
<path transform="scale(0.0040, -0.0040)" d="M220 135c11 0 106 -2 106 -87c0 -89 -114 -183 -220 -183c-11 0 -106 2 -106 87c0 89 114 183 220 183z" fill="currentColor"/>
</g>
</a>
<g transform="translate(75.2798, 141.2490)">
<rect x="-0.0611" y="-2.0081" width="0.1222" height="3.1105" ry="0.0364" fill="currentColor"/>
</g>
<a style="color:inherit;" xlink:href="textedit:///Users/marc.mouries/projects/Sheet-Music/Folk_Jewish/Hatikva/hatikva.ly:37:42:43">
<g transform="translate(83.9954, 140.1490)">
<path transform="scale(0.0040, -0.0040)" d="M315 66c0 23 -18 42 -42 42c-40 0 -206 -113 -234 -146c-7 -8 -10 -18 -10 -28c0 -23 18 -42 42 -42c40 0 206 113 234 146c7 8 10 18 10 28zM263 135c39 0 81 -13 81 -69c0 -27 -18 -112 -76 -151c-22 -15 -86 -50 -188 -50c-39 0 -80 13 -80 69c0 27 17 112 75 151
c22 15 86 50 188 50z" fill="currentColor"/>
</g>
</a>
<g transform="translate(84.0565, 141.2490)">
<rect x="-0.0611" y="-0.8359" width="0.1222" height="3.5859" ry="0.0364" fill="currentColor"/>
</g>
</svg>
