<svg xmlns="http://www.w3.org/2000/svg" xmlns:xlink="http://www.w3.org/1999/xlink" version="1.2" width="210.00mm" height="297.00mm" viewBox="0.0000 -0.0000 119.5016 169.0094">
<style type="text/css">
<![CDATA[
tspan { white-space: pre; }
]]>
</style>
<g transform="translate(30.6607, 6.9166)">
<text font-family="Optima" font-weight="bold" font-size="3.4921" text-anchor="start" fill="currentColor">
<tspan>FROM</tspan>
</text>
</g>
<g transform="translate(40.5281, 6.9166)">
<text font-family="Optima" font-weight="bold" font-size="4.4002" text-anchor="start" fill="currentColor">
<tspan> </tspan>
</text>
</g>
<g transform="translate(41.7573, 6.9166)">
<text font-family="Optima" font-weight="bold" font-size="3.4921" text-anchor="start" fill="currentColor">
<tspan>THE</tspan>
</text>
</g>
<g transform="translate(48.1762, 6.9166)">
<text font-family="Optima" font-weight="bold" font-size="4.4002" text-anchor="start" fill="currentColor">
<tspan> M</tspan>
</text>
</g>
<g transform="translate(53.3318, 6.9166)">
<text font-family="Optima" font-weight="bold" font-size="3.4921" text-anchor="start" fill="currentColor">
<tspan>OVIE</tspan>
</text>
</g>
<g transform="translate(61.3214, 6.9166)">
<text font-family="Optima" font-weight="bold" font-size="4.4002" text-anchor="start" fill="currentColor">
<tspan> S</tspan>
</text>
</g>
<g transform="translate(64.7357, 6.9166)">
<text font-family="Optima" font-weight="bold" font-size="3.4921" text-anchor="start" fill="currentColor">
<tspan>WING</tspan>
</text>
</g>
<g transform="translate(74.8421, 6.9166)">
<text font-family="Optima" font-weight="bold" font-size="4.4002" text-anchor="start" fill="currentColor">
<tspan> (2002)</tspan>
</text>
</g>
<g transform="translate(80.5554, 6.9166)">
<text font-family="Optima" font-size="1.9600" text-anchor="start" fill="currentColor">
<tspan>Mandino Reinhardt &amp; Tchavolo Schmitt</tspan>
</text>
</g>
<g transform="translate(5.6906, 10.5094)">
<rect x="-0.5000" y="-0.1000" width="4.8241" height="0.1000" ry="0.0000" fill="currentColor"/>
</g>
<g transform="translate(5.6906, 8.1194)">
<rect x="-0.5000" y="-0.1000" width="4.8241" height="0.1000" ry="0.0000" fill="currentColor"/>
</g>
<g transform="translate(5.1906, 10.0094)">
<rect x="0" y="-1.8900" width="0.1000" height="2.2900" ry="0.0000" fill="currentColor"/>
</g>
<g transform="translate(9.9146, 10.0094)">
<rect x="0" y="-1.8900" width="0.1000" height="2.2900" ry="0.0000" fill="currentColor"/>
</g>
<g transform="translate(5.6906, 10.0094)">
<text font-family="serif" font-size="2.2001" text-anchor="start" fill="currentColor">
<tspan>In A</tspan>
</text>
</g>
<g transform="translate(62.8256, 32.1359)">
<rect x="0.0000" y="-2.2000" width="0.1900" height="4.4000" ry="0.0000" fill="currentColor"/>
</g>
<g transform="translate(5.6906, 28.8359)">
<rect x="95.0734" y="-0.1050" width="1.9563" height="0.2100" ry="0.1050" fill="currentColor"/>
</g>
<g transform="translate(5.6906, 28.8359)">
<rect x="86.2445" y="-0.1050" width="1.8967" height="0.2100" ry="0.1050" fill="currentColor"/>
</g>
<g transform="translate(5.6906, 28.8359)">
<rect x="80.8004" y="-0.1050" width="1.9563" height="0.2100" ry="0.1050" fill="currentColor"/>
</g>
<g transform="translate(5.6906, 28.8359)">
<rect x="50.6149" y="-0.1050" width="1.9563" height="0.2100" ry="0.1050" fill="currentColor"/>
</g>
<g transform="translate(5.6906, 28.8359)">
<rect x="44.2423" y="-0.1050" width="1.9563" height="0.2100" ry="0.1050" fill="currentColor"/>
</g>
<g transform="translate(5.6906, 27.7359)">
<rect x="35.2440" y="-0.1050" width="2.0660" height="0.2100" ry="0.1050" fill="currentColor"/>
</g>
<g transform="translate(5.6906, 28.8359)">
<rect x="35.2440" y="-0.1050" width="2.0660" height="0.2100" ry="0.1050" fill="currentColor"/>
</g>
<g transform="translate(5.6906, 28.8359)">
<rect x="29.9692" y="-0.1050" width="1.9563" height="0.2100" ry="0.1050" fill="currentColor"/>
</g>
<g transform="translate(5.6906, 28.8359)">
<rect x="8.3557" y="-0.1050" width="2.0660" height="0.2100" ry="0.1050" fill="currentColor"/>
</g>
<g transform="translate(5.6906, 34.3359)">
<line stroke-linejoin="round" stroke-linecap="round" stroke-width="0.1000" stroke="currentColor" x1="0.0500" y1="0" x2="108.0705" y2="0"/>
</g>
<g transform="translate(5.6906, 33.2359)">
<line stroke-linejoin="round" stroke-linecap="round" stroke-width="0.1000" stroke="currentColor" x1="0.0500" y1="0" x2="108.0705" y2="0"/>
</g>
<g transform="translate(5.6906, 32.1359)">
<line stroke-linejoin="round" stroke-linecap="round" stroke-width="0.1000" stroke="currentColor" x1="0.0500" y1="0" x2="108.0705" y2="0"/>
</g>
<g transform="translate(5.6906, 31.0359)">
<line stroke-linejoin="round" stroke-linecap="round" stroke-width="0.1000" stroke="currentColor" x1="0.0500" y1="0" x2="108.0705" y2="0"/>
</g>
<g transform="translate(5.6906, 29.9359)">
<line stroke-linejoin="round" stroke-linecap="round" stroke-width="0.1000" stroke="currentColor" x1="0.0500" y1="0" x2="108.0705" y2="0"/>
</g>
<g transform="translate(113.6210, 32.1359)">
<rect x="0.0000" y="-2.2000" width="0.1900" height="4.4000" ry="0.0000" fill="currentColor"/>
</g>
<g transform="translate(90.4054, 32.1359)">
<rect x="0.0000" y="-2.2000" width="0.1900" height="4.4000" ry="0.0000" fill="currentColor"/>
</g>
<g transform="translate(39.5743, 32.1359)">
<rect x="0.0000" y="-2.2000" width="0.1900" height="4.4000" ry="0.0000" fill="currentColor"/>
</g>
<g transform="translate(64.6581, 32.1359)">
<rect x="-0.0650" y="-2.4910" width="0.1300" height="3.5910" ry="0.0400" fill="currentColor"/>
</g>
<g transform="translate(23.3705, 34.5499)">
<polygon stroke-linejoin="round" stroke-linecap="round" stroke-width="0.0800" fill="currentColor" stroke="currentColor" points="12.7053 -1.7520 12.7053 -1.3040 0.0400 0.2240 0.0400 -0.2240"/>
</g>
<a style="color:inherit;" xlink:href="textedit:///Users/marc.mouries/projects/Sheet-Music/Gypsy-Jazz/Swing_Movie/Swing_Movie_.ly:30:2:3">
<g transform="translate(14.3905, 26.6909)">
<text font-family="sans-serif" font-size="2.6163" text-anchor="start" fill="currentColor">
<tspan>A</tspan>
</text>
</g>
<g transform="translate(16.1660, 25.5017)">
<text font-family="sans-serif" font-size="1.8500" text-anchor="start" fill="currentColor">
<tspan>7</tspan>
</text>
</g>
</a>
<a style="color:inherit;" xlink:href="textedit:///Users/marc.mouries/projects/Sheet-Music/Gypsy-Jazz/Swing_Movie/Swing_Movie_.ly:36:2:3">
<g transform="translate(14.3905, 28.8359)">
<path transform="scale(0.0040, -0.0040)" d="M314 65c0 23 -19 41 -42 41c-39 0 -204 -110 -231 -143c-7 -8 -10 -18 -10 -28c0 -23 19 -41 42 -41c39 0 203 110 230 143c7 8 11 18 11 28zM262 136c41 0 82 -14 82 -71c0 -26 -16 -112 -74 -151c-25 -17 -87 -50 -187 -50c-41 0 -83 14 -83 71c0 26 16 112 74 151
c25 17 88 50 188 50z" fill="currentColor"/>
</g>
</a>
<g transform="translate(6.4906, 33.2359)">
<path transform="scale(0.0040, -0.0040)" d="M266 -635h-6c-108 0 -195 88 -195 197c0 58 53 103 112 103c54 0 95 -47 95 -103c0 -52 -43 -95 -95 -95c-11 0 -21 2 -31 6c26 -39 68 -65 117 -65h4zM461 -203c68 24 113 90 113 164c0 90 -66 179 -173 190c19 -89 48 -242 60 -354zM74 28c0 -145 141 -247 264 -247
c1 0 47 0 82 6c-7 64 -29 203 -63 364c-79 -8 -124 -61 -124 -119c0 -44 25 -91 81 -123c5 -5 7 -10 7 -15c0 -11 -10 -22 -22 -22c-15 0 -126 62 -126 187c0 88 58 174 160 197c-14 58 -29 117 -46 175c-107 -121 -213 -243 -213 -403zM250 553c-29 96 -52 170 -52 346
c0 115 55 224 149 292c6 5 14 5 20 0c68 -80 133 -245 133 -358c0 -143 -86 -255 -180 -364c21 -68 39 -138 56 -207c2 0 7 1 13 1c155 0 256 -128 256 -261c0 -113 -74 -212 -180 -246c3 -35 5 -70 5 -105c0 -19 -1 -39 -2 -58c-7 -119 -88 -225 -202 -228l1 43
c93 2 153 92 159 191c1 18 2 37 2 55c0 31 -1 61 -4 92c-5 -1 -44 -8 -89 -8c-193 0 -333 180 -333 374c0 177 131 306 248 441zM428 916c0 34 1 66 -20 129c-99 -48 -162 -149 -162 -259c0 -52 12 -115 36 -194c80 97 146 198 146 324z" fill="currentColor"/>
</g>
<a style="color:inherit;" xlink:href="textedit:///Users/marc.mouries/projects/Sheet-Music/Gypsy-Jazz/Swing_Movie/Swing_Movie_.ly:24:2:3">
</a>
<a style="color:inherit;" xlink:href="textedit:///Users/marc.mouries/projects/Sheet-Music/Gypsy-Jazz/Swing_Movie/Swing_Movie_.ly:23:2:3">
<g transform="translate(10.6906, 32.1359)">
<path transform="scale(0.0040, -0.0040)" d="M250 262c116 0 176 -106 176 -163c0 -40 -30 -72 -67 -72c-31 0 -75 25 -75 75c0 38 27 77 72 77c4 0 9 0 14 -1c-28 37 -72 59 -120 59c-106 0 -113 -73 -113 -186v-51v-51c0 -113 7 -187 113 -187c80 0 139 70 158 151c2 7 7 10 12 10c6 0 13 -4 13 -12
c0 -22 -50 -174 -183 -174c-59 0 -250 19 -250 263c0 62 18 262 250 262z" fill="currentColor"/>
</g>
</a>
<a style="color:inherit;" xlink:href="textedit:///Users/marc.mouries/projects/Sheet-Music/Gypsy-Jazz/Swing_Movie/Swing_Movie_.ly:25:2:3">
<g transform="translate(10.6906, 23.1821)">
<rect x="1.0449" y="-2.6727" width="0.1158" height="2.5129" ry="0.0193" fill="currentColor"/>
</g>
<g transform="translate(10.6906, 23.1821)">
<path transform="scale(0.0036, -0.0036)" d="M215 137c67 0 111 -37 111 -92c0 -90 -111 -182 -215 -182c-67 0 -111 37 -111 92c0 90 111 182 215 182z" fill="currentColor"/>
</g>
<g transform="translate(11.8512, 23.6709)">
<text font-family="serif" font-size="2.2001" text-anchor="start" fill="currentColor">
<tspan> = 200</tspan>
</text>
</g>
</a>
<g transform="translate(14.4555, 32.1359)">
<rect x="-0.0650" y="-3.0410" width="0.1300" height="3.5910" ry="0.0400" fill="currentColor"/>
</g>
<a style="color:inherit;" xlink:href="textedit:///Users/marc.mouries/projects/Sheet-Music/Gypsy-Jazz/Swing_Movie/Swing_Movie_.ly:36:6:7">
<g transform="translate(23.3705, 31.5859)">
<path transform="scale(0.0040, -0.0040)" d="M218 136c66 0 108 -36 108 -89c0 -89 -113 -183 -218 -183c-66 0 -108 36 -108 89c0 89 113 183 218 183z" fill="currentColor"/>
</g>
</a>
<g transform="translate(23.4355, 32.1359)">
<rect x="-0.0650" y="-0.3639" width="0.1300" height="2.7701" ry="0.0400" fill="currentColor"/>
</g>
<g transform="translate(21.9205, 31.5859)">
<path transform="scale(0.0040, -0.0040)" d="M0 119c0 8 5 15 13 18l46 17v158c0 10 8 19 18 19s19 -9 19 -19v-145l83 31v158c0 10 9 19 19 19s18 -9 18 -19v-145l32 12c2 1 5 1 7 1c11 0 20 -9 20 -20v-60c0 -8 -5 -16 -13 -19l-46 -16v-160l32 11c2 1 5 1 7 1c11 0 20 -9 20 -20v-60c0 -8 -5 -15 -13 -18l-46 -17
v-158c0 -10 -8 -19 -18 -19s-19 9 -19 19v145l-83 -31v-158c0 -10 -9 -19 -19 -19s-18 9 -18 19v145l-32 -12c-2 -1 -5 -1 -7 -1c-11 0 -20 9 -20 20v60c0 8 5 16 13 19l46 16v160l-32 -11c-2 -1 -5 -1 -7 -1c-11 0 -20 9 -20 20v60zM179 95l-83 -30v-160l83 30v160z" fill="currentColor"/>
</g>
<a style="color:inherit;" xlink:href="textedit:///Users/marc.mouries/projects/Sheet-Music/Gypsy-Jazz/Swing_Movie/Swing_Movie_.ly:36:11:12">
<g transform="translate(27.2090, 31.0359)">
<path transform="scale(0.0040, -0.0040)" d="M218 136c66 0 108 -36 108 -89c0 -89 -113 -183 -218 -183c-66 0 -108 36 -108 89c0 89 113 183 218 183z" fill="currentColor"/>
</g>
</a>
<g transform="translate(27.2740, 32.1359)">
<rect x="-0.0650" y="-0.9139" width="0.1300" height="2.8599" ry="0.0400" fill="currentColor"/>
</g>
<a style="color:inherit;" xlink:href="textedit:///Users/marc.mouries/projects/Sheet-Music/Gypsy-Jazz/Swing_Movie/Swing_Movie_.ly:36:13:14">
<g transform="translate(31.8974, 29.9359)">
<path transform="scale(0.0040, -0.0040)" d="M218 136c66 0 108 -36 108 -89c0 -89 -113 -183 -218 -183c-66 0 -108 36 -108 89c0 89 113 183 218 183z" fill="currentColor"/>
</g>
</a>
<g transform="translate(31.9624, 32.1359)">
<rect x="-0.0650" y="-2.0139" width="0.1300" height="3.3978" ry="0.0400" fill="currentColor"/>
</g>
<g transform="translate(30.4474, 29.9359)">
<path transform="scale(0.0040, -0.0040)" d="M0 119c0 8 5 15 13 18l46 17v158c0 10 8 19 18 19s19 -9 19 -19v-145l83 31v158c0 10 9 19 19 19s18 -9 18 -19v-145l32 12c2 1 5 1 7 1c11 0 20 -9 20 -20v-60c0 -8 -5 -16 -13 -19l-46 -16v-160l32 11c2 1 5 1 7 1c11 0 20 -9 20 -20v-60c0 -8 -5 -15 -13 -18l-46 -17
v-158c0 -10 -8 -19 -18 -19s-19 9 -19 19v145l-83 -31v-158c0 -10 -9 -19 -19 -19s-18 9 -18 19v145l-32 -12c-2 -1 -5 -1 -7 -1c-11 0 -20 9 -20 20v60c0 8 5 16 13 19l46 16v160l-32 -11c-2 -1 -5 -1 -7 -1c-11 0 -20 9 -20 20v60zM179 95l-83 -30v-160l83 30v160z" fill="currentColor"/>
</g>
<a style="color:inherit;" xlink:href="textedit:///Users/marc.mouries/projects/Sheet-Music/Gypsy-Jazz/Swing_Movie/Swing_Movie_.ly:36:16:17">
<g transform="translate(35.9858, 28.8359)">
<path transform="scale(0.0040, -0.0040)" d="M218 136c66 0 108 -36 108 -89c0 -89 -113 -183 -218 -183c-66 0 -108 36 -108 89c0 89 113 183 218 183z" fill="currentColor"/>
</g>
</a>
<g transform="translate(36.0508, 32.1359)">
<rect x="-0.0650" y="-3.1139" width="0.1300" height="4.0077" ry="0.0400" fill="currentColor"/>
</g>
<a style="color:inherit;" xlink:href="textedit:///Users/marc.mouries/projects/Sheet-Music/Gypsy-Jazz/Swing_Movie/Swing_Movie_.ly:30:7:8">
<g transform="translate(41.2789, 26.6909)">
<text font-family="sans-serif" font-size="2.6163" text-anchor="start" fill="currentColor">
<tspan>D</tspan>
</text>
</g>
<g transform="translate(43.2933, 25.5017)">
<text font-family="sans-serif" font-size="1.8500" text-anchor="start" fill="currentColor">
<tspan>7</tspan>
</text>
</g>
</a>
<a style="color:inherit;" xlink:href="textedit:///Users/marc.mouries/projects/Sheet-Music/Gypsy-Jazz/Swing_Movie/Swing_Movie_.ly:37:2:3">
<g transform="translate(41.2789, 27.7359)">
<path transform="scale(0.0040, -0.0040)" d="M314 65c0 23 -19 41 -42 41c-39 0 -204 -110 -231 -143c-7 -8 -10 -18 -10 -28c0 -23 19 -41 42 -41c39 0 203 110 230 143c7 8 11 18 11 28zM262 136c41 0 82 -14 82 -71c0 -26 -16 -112 -74 -151c-25 -17 -87 -50 -187 -50c-41 0 -83 14 -83 71c0 26 16 112 74 151
c25 17 88 50 188 50z" fill="currentColor"/>
</g>
</a>
<g transform="translate(41.3439, 32.1359)">
<rect x="-0.0650" y="-4.1410" width="0.1300" height="4.1410" ry="0.0400" fill="currentColor"/>
</g>
<a style="color:inherit;" xlink:href="textedit:///Users/marc.mouries/projects/Sheet-Music/Gypsy-Jazz/Swing_Movie/Swing_Movie_.ly:30:12:13">
<g transform="translate(50.2589, 26.6909)">
<text font-family="sans-serif" font-size="2.6163" text-anchor="start" fill="currentColor">
<tspan>A</tspan>
</text>
</g>
<g transform="translate(52.0343, 25.5017)">
<text font-family="sans-serif" font-size="1.8500" text-anchor="start" fill="currentColor">
<tspan>9</tspan>
</text>
</g>
</a>
<a style="color:inherit;" xlink:href="textedit:///Users/marc.mouries/projects/Sheet-Music/Gypsy-Jazz/Swing_Movie/Swing_Movie_.ly:37:5:6">
<g transform="translate(50.2589, 28.2859)">
<path transform="scale(0.0040, -0.0040)" d="M218 136c66 0 108 -36 108 -89c0 -89 -113 -183 -218 -183c-66 0 -108 36 -108 89c0 89 113 183 218 183z" fill="currentColor"/>
</g>
</a>
<g transform="translate(50.3239, 32.1359)">
<rect x="-0.0650" y="-3.6639" width="0.1300" height="3.6639" ry="0.0400" fill="currentColor"/>
</g>
<a style="color:inherit;" xlink:href="textedit:///Users/marc.mouries/projects/Sheet-Music/Gypsy-Jazz/Swing_Movie/Swing_Movie_.ly:37:8:9">
<g transform="translate(56.6315, 28.8359)">
<path transform="scale(0.0040, -0.0040)" d="M218 136c66 0 108 -36 108 -89c0 -89 -113 -183 -218 -183c-66 0 -108 36 -108 89c0 89 113 183 218 183z" fill="currentColor"/>
</g>
</a>
<g transform="translate(56.6965, 32.1359)">
<rect x="-0.0650" y="-3.1139" width="0.1300" height="3.6639" ry="0.0400" fill="currentColor"/>
</g>
<a style="color:inherit;" xlink:href="textedit:///Users/marc.mouries/projects/Sheet-Music/Gypsy-Jazz/Swing_Movie/Swing_Movie_.ly:38:2:3">
<g transform="translate(64.5931, 29.3859)">
<path transform="scale(0.0040, -0.0040)" d="M314 65c0 23 -19 41 -42 41c-39 0 -204 -110 -231 -143c-7 -8 -10 -18 -10 -28c0 -23 19 -41 42 -41c39 0 203 110 230 143c7 8 11 18 11 28zM262 136c41 0 82 -14 82 -71c0 -26 -16 -112 -74 -151c-25 -17 -87 -50 -187 -50c-41 0 -83 14 -83 71c0 26 16 112 74 151
c25 17 88 50 188 50z" fill="currentColor"/>
</g>
</a>
<g transform="translate(74.4517, 33.0219)">
<polygon stroke-linejoin="round" stroke-linecap="round" stroke-width="0.0800" fill="currentColor" stroke="currentColor" points="12.4553 -0.8960 12.4553 -0.4480 0.0400 0.2240 0.0400 -0.2240"/>
</g>
<a style="color:inherit;" xlink:href="textedit:///Users/marc.mouries/projects/Sheet-Music/Gypsy-Jazz/Swing_Movie/Swing_Movie_.ly:38:5:6">
<g transform="translate(74.4517, 29.9359)">
<path transform="scale(0.0040, -0.0040)" d="M218 136c66 0 108 -36 108 -89c0 -89 -113 -183 -218 -183c-66 0 -108 36 -108 89c0 89 113 183 218 183z" fill="currentColor"/>
</g>
</a>
<g transform="translate(74.5167, 32.1359)">
<rect x="-0.0650" y="-2.0139" width="0.1300" height="2.8964" ry="0.0400" fill="currentColor"/>
</g>
<g transform="translate(73.0017, 29.9359)">
<path transform="scale(0.0040, -0.0040)" d="M0 119c0 8 5 15 13 18l46 17v158c0 10 8 19 18 19s19 -9 19 -19v-145l83 31v158c0 10 9 19 19 19s18 -9 18 -19v-145l32 12c2 1 5 1 7 1c11 0 20 -9 20 -20v-60c0 -8 -5 -16 -13 -19l-46 -16v-160l32 11c2 1 5 1 7 1c11 0 20 -9 20 -20v-60c0 -8 -5 -15 -13 -18l-46 -17
v-158c0 -10 -8 -19 -18 -19s-19 9 -19 19v145l-83 -31v-158c0 -10 -9 -19 -19 -19s-18 9 -18 19v145l-32 -12c-2 -1 -5 -1 -7 -1c-11 0 -20 9 -20 20v60c0 8 5 16 13 19l46 16v160l-32 -11c-2 -1 -5 -1 -7 -1c-11 0 -20 9 -20 20v60zM179 95l-83 -30v-160l83 30v160z" fill="currentColor"/>
</g>
<a style="color:inherit;" xlink:href="textedit:///Users/marc.mouries/projects/Sheet-Music/Gypsy-Jazz/Swing_Movie/Swing_Movie_.ly:38:9:10">
<g transform="translate(78.2901, 29.3859)">
<path transform="scale(0.0040, -0.0040)" d="M218 136c66 0 108 -36 108 -89c0 -89 -113 -183 -218 -183c-66 0 -108 36 -108 89c0 89 113 183 218 183z" fill="currentColor"/>
</g>
</a>
<g transform="translate(78.3551, 32.1359)">
<rect x="-0.0650" y="-2.5639" width="0.1300" height="3.2400" ry="0.0400" fill="currentColor"/>
</g>
<a style="color:inherit;" xlink:href="textedit:///Users/marc.mouries/projects/Sheet-Music/Gypsy-Jazz/Swing_Movie/Swing_Movie_.ly:38:11:12">
<g transform="translate(82.9785, 29.3859)">
<path transform="scale(0.0040, -0.0040)" d="M218 136c66 0 108 -36 108 -89c0 -89 -113 -183 -218 -183c-66 0 -108 36 -108 89c0 89 113 183 218 183z" fill="currentColor"/>
</g>
</a>
<g transform="translate(83.0435, 32.1359)">
<rect x="-0.0650" y="-2.5639" width="0.1300" height="2.9878" ry="0.0400" fill="currentColor"/>
</g>
<g transform="translate(81.5285, 29.3859)">
<path transform="scale(0.0040, -0.0040)" d="M0 119c0 8 5 15 13 18l46 17v158c0 10 8 19 18 19s19 -9 19 -19v-145l83 31v158c0 10 9 19 19 19s18 -9 18 -19v-145l32 12c2 1 5 1 7 1c11 0 20 -9 20 -20v-60c0 -8 -5 -16 -13 -19l-46 -16v-160l32 11c2 1 5 1 7 1c11 0 20 -9 20 -20v-60c0 -8 -5 -15 -13 -18l-46 -17
v-158c0 -10 -8 -19 -18 -19s-19 9 -19 19v145l-83 -31v-158c0 -10 -9 -19 -19 -19s-18 9 -18 19v145l-32 -12c-2 -1 -5 -1 -7 -1c-11 0 -20 9 -20 20v60c0 8 5 16 13 19l46 16v160l-32 -11c-2 -1 -5 -1 -7 -1c-11 0 -20 9 -20 20v60zM179 95l-83 -30v-160l83 30v160z" fill="currentColor"/>
</g>
<g transform="translate(107.5277, 32.1359)">
<rect x="-0.0650" y="-2.5639" width="0.1300" height="3.6639" ry="0.0400" fill="currentColor"/>
</g>
<a style="color:inherit;" xlink:href="textedit:///Users/marc.mouries/projects/Sheet-Music/Gypsy-Jazz/Swing_Movie/Swing_Movie_.ly:38:14:15">
<g transform="translate(86.8170, 28.8359)">
<path transform="scale(0.0040, -0.0040)" d="M218 136c66 0 108 -36 108 -89c0 -89 -113 -183 -218 -183c-66 0 -108 36 -108 89c0 89 113 183 218 183z" fill="currentColor"/>
</g>
</a>
<g transform="translate(86.8820, 32.1359)">
<rect x="-0.0650" y="-3.1139" width="0.1300" height="3.3314" ry="0.0400" fill="currentColor"/>
</g>
<a style="color:inherit;" xlink:href="textedit:///Users/marc.mouries/projects/Sheet-Music/Gypsy-Jazz/Swing_Movie/Swing_Movie_.ly:39:9:10">
<g transform="translate(107.4627, 29.3859)">
<path transform="scale(0.0040, -0.0040)" d="M218 136c66 0 108 -36 108 -89c0 -89 -113 -183 -218 -183c-66 0 -108 36 -108 89c0 89 113 183 218 183z" fill="currentColor"/>
</g>
</a>
<a style="color:inherit;" xlink:href="textedit:///Users/marc.mouries/projects/Sheet-Music/Gypsy-Jazz/Swing_Movie/Swing_Movie_.ly:39:2:3">
<g transform="translate(92.1100, 28.2859)">
<path transform="scale(0.0040, -0.0040)" d="M314 65c0 23 -19 41 -42 41c-39 0 -204 -110 -231 -143c-7 -8 -10 -18 -10 -28c0 -23 19 -41 42 -41c39 0 203 110 230 143c7 8 11 18 11 28zM262 136c41 0 82 -14 82 -71c0 -26 -16 -112 -74 -151c-25 -17 -87 -50 -187 -50c-41 0 -83 14 -83 71c0 26 16 112 74 151
c25 17 88 50 188 50z" fill="currentColor"/>
</g>
</a>
<g transform="translate(92.1750, 32.1359)">
<rect x="-0.0650" y="-3.5910" width="0.1300" height="3.5910" ry="0.0400" fill="currentColor"/>
</g>
<g transform="translate(90.9600, 28.2859)">
<path transform="scale(0.0040, -0.0040)" d="M27 41l-1 -66v-11c0 -22 1 -44 4 -66c45 38 93 80 93 139c0 33 -14 67 -43 67c-31 0 -52 -30 -53 -63zM-15 -138l-12 595c8 5 18 8 27 8s19 -3 27 -8l-7 -345c25 21 58 34 91 34c52 0 89 -48 89 -102c0 -80 -86 -117 -147 -169c-15 -13 -24 -38 -45 -38
c-13 0 -23 11 -23 25z" fill="currentColor"/>
</g>
<a style="color:inherit;" xlink:href="textedit:///Users/marc.mouries/projects/Sheet-Music/Gypsy-Jazz/Swing_Movie/Swing_Movie_.ly:39:6:7">
<g transform="translate(101.0900, 28.8359)">
<path transform="scale(0.0040, -0.0040)" d="M218 136c66 0 108 -36 108 -89c0 -89 -113 -183 -218 -183c-66 0 -108 36 -108 89c0 89 113 183 218 183z" fill="currentColor"/>
</g>
</a>
<g transform="translate(101.1550, 32.1359)">
<rect x="-0.0650" y="-3.1139" width="0.1300" height="3.6639" ry="0.0400" fill="currentColor"/>
</g>
<g transform="translate(5.6906, 44.8359)">
<rect x="26.9581" y="-0.1050" width="1.9563" height="0.2100" ry="0.1050" fill="currentColor"/>
</g>
<g transform="translate(5.6906, 44.8359)">
<rect x="22.4504" y="-0.1050" width="1.9563" height="0.2100" ry="0.1050" fill="currentColor"/>
</g>
<g transform="translate(5.6906, 43.7359)">
<rect x="17.9427" y="-0.1050" width="1.9563" height="0.2100" ry="0.1050" fill="currentColor"/>
</g>
<g transform="translate(5.6906, 44.8359)">
<rect x="17.9427" y="-0.1050" width="1.9563" height="0.2100" ry="0.1050" fill="currentColor"/>
</g>
<g transform="translate(5.6906, 43.7359)">
<rect x="13.4351" y="-0.1050" width="1.9563" height="0.2100" ry="0.1050" fill="currentColor"/>
</g>
<g transform="translate(5.6906, 44.8359)">
<rect x="13.4351" y="-0.1050" width="1.9563" height="0.2100" ry="0.1050" fill="currentColor"/>
</g>
<g transform="translate(5.6906, 50.3359)">
<line stroke-linejoin="round" stroke-linecap="round" stroke-width="0.1000" stroke="currentColor" x1="0.0500" y1="0" x2="108.0705" y2="0"/>
</g>
<g transform="translate(5.6906, 49.2359)">
<line stroke-linejoin="round" stroke-linecap="round" stroke-width="0.1000" stroke="currentColor" x1="0.0500" y1="0" x2="108.0705" y2="0"/>
</g>
<g transform="translate(5.6906, 48.1359)">
<line stroke-linejoin="round" stroke-linecap="round" stroke-width="0.1000" stroke="currentColor" x1="0.0500" y1="0" x2="108.0705" y2="0"/>
</g>
<g transform="translate(5.6906, 47.0359)">
<line stroke-linejoin="round" stroke-linecap="round" stroke-width="0.1000" stroke="currentColor" x1="0.0500" y1="0" x2="108.0705" y2="0"/>
</g>
<g transform="translate(5.6906, 45.9359)">
<line stroke-linejoin="round" stroke-linecap="round" stroke-width="0.1000" stroke="currentColor" x1="0.0500" y1="0" x2="108.0705" y2="0"/>
</g>
<g transform="translate(113.6210, 48.1359)">
<rect x="0.0000" y="-2.2000" width="0.1900" height="4.4000" ry="0.0000" fill="currentColor"/>
</g>
<g transform="translate(84.5617, 48.1359)">
<rect x="0.0000" y="-2.2000" width="0.1900" height="4.4000" ry="0.0000" fill="currentColor"/>
</g>
<g transform="translate(45.7955, 48.1359)">
<rect x="0.0000" y="-2.2000" width="0.1900" height="4.4000" ry="0.0000" fill="currentColor"/>
</g>
<g transform="translate(6.4906, 49.2359)">
<path transform="scale(0.0040, -0.0040)" d="M266 -635h-6c-108 0 -195 88 -195 197c0 58 53 103 112 103c54 0 95 -47 95 -103c0 -52 -43 -95 -95 -95c-11 0 -21 2 -31 6c26 -39 68 -65 117 -65h4zM461 -203c68 24 113 90 113 164c0 90 -66 179 -173 190c19 -89 48 -242 60 -354zM74 28c0 -145 141 -247 264 -247
c1 0 47 0 82 6c-7 64 -29 203 -63 364c-79 -8 -124 -61 -124 -119c0 -44 25 -91 81 -123c5 -5 7 -10 7 -15c0 -11 -10 -22 -22 -22c-15 0 -126 62 -126 187c0 88 58 174 160 197c-14 58 -29 117 -46 175c-107 -121 -213 -243 -213 -403zM250 553c-29 96 -52 170 -52 346
c0 115 55 224 149 292c6 5 14 5 20 0c68 -80 133 -245 133 -358c0 -143 -86 -255 -180 -364c21 -68 39 -138 56 -207c2 0 7 1 13 1c155 0 256 -128 256 -261c0 -113 -74 -212 -180 -246c3 -35 5 -70 5 -105c0 -19 -1 -39 -2 -58c-7 -119 -88 -225 -202 -228l1 43
c93 2 153 92 159 191c1 18 2 37 2 55c0 31 -1 61 -4 92c-5 -1 -44 -8 -89 -8c-193 0 -333 180 -333 374c0 177 131 306 248 441zM428 916c0 34 1 66 -20 129c-99 -48 -162 -149 -162 -259c0 -52 12 -115 36 -194c80 97 146 198 146 324z" fill="currentColor"/>
</g>
<g transform="translate(4.8028, 44.8655)">
<text font-family="serif" font-size="1.7461" text-anchor="start" fill="currentColor">
<tspan>5</tspan>
</text>
</g>
<g transform="translate(75.7485, 50.5499)">
<polygon stroke-linejoin="round" stroke-linecap="round" stroke-width="0.0800" fill="currentColor" stroke="currentColor" points="4.5977 -0.4380 4.5977 0.0100 0.0400 0.2240 0.0400 -0.2240"/>
</g>
<a style="color:inherit;" xlink:href="textedit:///Users/marc.mouries/projects/Sheet-Music/Gypsy-Jazz/Swing_Movie/Swing_Movie_.ly:41:2:3">
<g transform="translate(11.4906, 45.9359)">
<path transform="scale(0.0040, -0.0040)" d="M218 136c66 0 108 -36 108 -89c0 -89 -113 -183 -218 -183c-66 0 -108 36 -108 89c0 89 113 183 218 183z" fill="currentColor"/>
</g>
</a>
<g transform="translate(11.5556, 48.1359)">
<rect x="-0.0650" y="-2.0139" width="0.1300" height="3.6639" ry="0.0400" fill="currentColor"/>
</g>
<g transform="translate(10.0406, 45.9359)">
<path transform="scale(0.0040, -0.0040)" d="M0 119c0 8 5 15 13 18l46 17v158c0 10 8 19 18 19s19 -9 19 -19v-145l83 31v158c0 10 9 19 19 19s18 -9 18 -19v-145l32 12c2 1 5 1 7 1c11 0 20 -9 20 -20v-60c0 -8 -5 -16 -13 -19l-46 -16v-160l32 11c2 1 5 1 7 1c11 0 20 -9 20 -20v-60c0 -8 -5 -15 -13 -18l-46 -17
v-158c0 -10 -8 -19 -18 -19s-19 9 -19 19v145l-83 -31v-158c0 -10 -9 -19 -19 -19s-18 9 -18 19v145l-32 -12c-2 -1 -5 -1 -7 -1c-11 0 -20 9 -20 20v60c0 8 5 16 13 19l46 16v160l-32 -11c-2 -1 -5 -1 -7 -1c-11 0 -20 9 -20 20v60zM179 95l-83 -30v-160l83 30v160z" fill="currentColor"/>
</g>
<a style="color:inherit;" xlink:href="textedit:///Users/marc.mouries/projects/Sheet-Music/Gypsy-Jazz/Swing_Movie/Swing_Movie_.ly:46:28:29">
<g transform="translate(80.2562, 48.1359)">
<path stroke-width="0.0800" stroke-linejoin="round" stroke-linecap="round" stroke="currentColor" fill="currentColor" d="M1.5042 -1.3449C2.3566 -2.1543 5.2567 -2.1543 6.1091 -1.3449L6.1091 -1.3449C5.2567 -2.0343 2.3566 -2.0343 1.5042 -1.3449z"/>
</g>
</a>
<a style="color:inherit;" xlink:href="textedit:///Users/marc.mouries/projects/Sheet-Music/Gypsy-Jazz/Swing_Movie/Swing_Movie_.ly:43:3:4">
<g transform="translate(19.4517, 43.1859)">
<path transform="scale(0.0040, -0.0040)" d="M218 136c66 0 108 -36 108 -89c0 -89 -113 -183 -218 -183c-66 0 -108 36 -108 89c0 89 113 183 218 183z" fill="currentColor"/>
</g>
</a>
<a style="color:inherit;" xlink:href="textedit:///Users/marc.mouries/projects/Sheet-Music/Gypsy-Jazz/Swing_Movie/Swing_Movie_.ly:43:6:7">
<g transform="translate(19.6428, 42.0909)">
<path transform="scale(0.0022, -0.0022)" d="M148 501c10 0 41 -15 72 -15c32 0 63 15 76 15c15 0 26 -11 26 -21c0 -4 -1 -7 -4 -10l-264 -291h134v4c0 60 50 41 75 85c7 11 8 24 14 36c3 7 10 10 17 10c11 0 24 -8 24 -25v-110h70c18 0 27 -14 27 -27s-9 -27 -27 -27h-70c2 -45 36 -82 80 -82c14 0 22 -10 22 -21
s-8 -22 -22 -22c-49 0 -96 14 -145 14s-97 -14 -146 -14c-14 0 -21 11 -21 22s7 21 21 21c44 0 79 37 81 82h-134c-43 0 -57 25 -57 42c0 5 1 10 3 12c73 81 123 182 123 291c0 17 11 31 25 31z" fill="currentColor"/>
</g>
</a>
<g transform="translate(19.5167, 48.1359)">
<rect x="-0.0650" y="-4.7639" width="0.1300" height="4.7669" ry="0.0400" fill="currentColor"/>
</g>
<g transform="translate(48.8110, 45.0499)">
<polygon stroke-linejoin="round" stroke-linecap="round" stroke-width="0.0800" fill="currentColor" stroke="currentColor" points="15.1330 0.4480 15.1330 0.8960 0.0400 0.2240 0.0400 -0.2240"/>
</g>
<a style="color:inherit;" xlink:href="textedit:///Users/marc.mouries/projects/Sheet-Music/Gypsy-Jazz/Swing_Movie/Swing_Movie_.ly:43:9:10">
<g transform="translate(23.9593, 43.7359)">
<path transform="scale(0.0040, -0.0040)" d="M218 136c66 0 108 -36 108 -89c0 -89 -113 -183 -218 -183c-66 0 -108 36 -108 89c0 89 113 183 218 183z" fill="currentColor"/>
</g>
</a>
<g transform="translate(24.0243, 48.1359)">
<rect x="-0.0650" y="-4.2139" width="0.1300" height="4.4249" ry="0.0400" fill="currentColor"/>
</g>
<g transform="translate(28.4670, 49.0219)">
<polygon stroke-linejoin="round" stroke-linecap="round" stroke-width="0.0800" fill="currentColor" stroke="currentColor" points="13.1130 1.0900 13.1130 1.5380 0.0400 0.2240 0.0400 -0.2240"/>
</g>
<a style="color:inherit;" xlink:href="textedit:///Users/marc.mouries/projects/Sheet-Music/Gypsy-Jazz/Swing_Movie/Swing_Movie_.ly:43:11:12">
<g transform="translate(28.4670, 44.2859)">
<path transform="scale(0.0040, -0.0040)" d="M218 136c66 0 108 -36 108 -89c0 -89 -113 -183 -218 -183c-66 0 -108 36 -108 89c0 89 113 183 218 183z" fill="currentColor"/>
</g>
</a>
<g transform="translate(28.5320, 48.1359)">
<rect x="-0.0650" y="-3.6639" width="0.1300" height="4.5564" ry="0.0400" fill="currentColor"/>
</g>
<g transform="translate(19.4517, 48.1359)">
<polygon stroke-linejoin="round" stroke-linecap="round" stroke-width="0.0800" fill="currentColor" stroke="currentColor" points="4.5977 -0.0100 4.5977 0.4380 0.0400 0.2240 0.0400 -0.2240"/>
</g>
<a style="color:inherit;" xlink:href="textedit:///Users/marc.mouries/projects/Sheet-Music/Gypsy-Jazz/Swing_Movie/Swing_Movie_.ly:43:15:16">
<g transform="translate(32.9747, 44.8359)">
<path transform="scale(0.0040, -0.0040)" d="M218 136c66 0 108 -36 108 -89c0 -89 -113 -183 -218 -183c-66 0 -108 36 -108 89c0 89 113 183 218 183z" fill="currentColor"/>
</g>
</a>
<g transform="translate(33.0397, 48.1359)">
<rect x="-0.0650" y="-3.1139" width="0.1300" height="4.4567" ry="0.0400" fill="currentColor"/>
</g>
<a style="color:inherit;" xlink:href="textedit:///Users/marc.mouries/projects/Sheet-Music/Gypsy-Jazz/Swing_Movie/Swing_Movie_.ly:43:18:19">
<g transform="translate(37.2323, 45.9359)">
<path transform="scale(0.0040, -0.0040)" d="M218 136c66 0 108 -36 108 -89c0 -89 -113 -183 -218 -183c-66 0 -108 36 -108 89c0 89 113 183 218 183z" fill="currentColor"/>
</g>
</a>
<g transform="translate(37.2973, 48.1359)">
<rect x="-0.0650" y="-2.0139" width="0.1300" height="3.7821" ry="0.0400" fill="currentColor"/>
</g>
<a style="color:inherit;" xlink:href="textedit:///Users/marc.mouries/projects/Sheet-Music/Gypsy-Jazz/Swing_Movie/Swing_Movie_.ly:44:2:3">
<g transform="translate(41.4900, 47.0359)">
<path transform="scale(0.0040, -0.0040)" d="M218 136c66 0 108 -36 108 -89c0 -89 -113 -183 -218 -183c-66 0 -108 36 -108 89c0 89 113 183 218 183z" fill="currentColor"/>
</g>
</a>
<g transform="translate(41.5550, 48.1359)">
<rect x="-0.0650" y="-0.9139" width="0.1300" height="3.1074" ry="0.0400" fill="currentColor"/>
</g>
<a style="color:inherit;" xlink:href="textedit:///Users/marc.mouries/projects/Sheet-Music/Gypsy-Jazz/Swing_Movie/Swing_Movie_.ly:46:3:4">
<g transform="translate(47.6368, 48.1359)">
<path transform="scale(0.0040, -0.0040)" d="M218 136c66 0 108 -36 108 -89c0 -89 -113 -183 -218 -183c-66 0 -108 36 -108 89c0 89 113 183 218 183z" fill="currentColor"/>
</g>
</a>
<g transform="translate(48.8760, 48.1359)">
<rect x="-0.0650" y="-3.0831" width="0.1300" height="2.8970" ry="0.0400" fill="currentColor"/>
</g>
<a style="color:inherit;" xlink:href="textedit:///Users/marc.mouries/projects/Sheet-Music/Gypsy-Jazz/Swing_Movie/Swing_Movie_.ly:46:6:7">
<g transform="translate(52.8144, 48.1359)">
<path transform="scale(0.0040, -0.0040)" d="M218 136c66 0 108 -36 108 -89c0 -89 -113 -183 -218 -183c-66 0 -108 36 -108 89c0 89 113 183 218 183z" fill="currentColor"/>
</g>
</a>
<g transform="translate(54.0536, 48.1359)">
<rect x="-0.0650" y="-2.8538" width="0.1300" height="2.6677" ry="0.0400" fill="currentColor"/>
</g>
<g transform="translate(51.6644, 48.1359)">
<path transform="scale(0.0040, -0.0040)" d="M27 41l-1 -66v-11c0 -22 1 -44 4 -66c45 38 93 80 93 139c0 33 -14 67 -43 67c-31 0 -52 -30 -53 -63zM-15 -138l-12 595c8 5 18 8 27 8s19 -3 27 -8l-7 -345c25 21 58 34 91 34c52 0 89 -48 89 -102c0 -80 -86 -117 -147 -169c-15 -13 -24 -38 -45 -38
c-13 0 -23 11 -23 25z" fill="currentColor"/>
</g>
<a style="color:inherit;" xlink:href="textedit:///Users/marc.mouries/projects/Sheet-Music/Gypsy-Jazz/Swing_Movie/Swing_Movie_.ly:46:9:10">
<g transform="translate(57.3221, 48.6859)">
<path transform="scale(0.0040, -0.0040)" d="M218 136c66 0 108 -36 108 -89c0 -89 -113 -183 -218 -183c-66 0 -108 36 -108 89c0 89 113 183 218 183z" fill="currentColor"/>
</g>
</a>
<g transform="translate(58.5613, 48.1359)">
<rect x="-0.0650" y="-2.6542" width="0.1300" height="3.0181" ry="0.0400" fill="currentColor"/>
</g>
<a style="color:inherit;" xlink:href="textedit:///Users/marc.mouries/projects/Sheet-Music/Gypsy-Jazz/Swing_Movie/Swing_Movie_.ly:46:12:13">
<g transform="translate(62.6798, 49.2359)">
<path transform="scale(0.0040, -0.0040)" d="M218 136c66 0 108 -36 108 -89c0 -89 -113 -183 -218 -183c-66 0 -108 36 -108 89c0 89 113 183 218 183z" fill="currentColor"/>
</g>
</a>
<g transform="translate(63.9190, 48.1359)">
<rect x="-0.0650" y="-2.4169" width="0.1300" height="3.3308" ry="0.0400" fill="currentColor"/>
</g>
<g transform="translate(61.2298, 49.2359)">
<path transform="scale(0.0040, -0.0040)" d="M0 119c0 8 5 15 13 18l46 17v158c0 10 8 19 18 19s19 -9 19 -19v-145l83 31v158c0 10 9 19 19 19s18 -9 18 -19v-145l32 12c2 1 5 1 7 1c11 0 20 -9 20 -20v-60c0 -8 -5 -16 -13 -19l-46 -16v-160l32 11c2 1 5 1 7 1c11 0 20 -9 20 -20v-60c0 -8 -5 -15 -13 -18l-46 -17
v-158c0 -10 -8 -19 -18 -19s-19 9 -19 19v145l-83 -31v-158c0 -10 -9 -19 -19 -19s-18 9 -18 19v145l-32 -12c-2 -1 -5 -1 -7 -1c-11 0 -20 9 -20 20v60c0 8 5 16 13 19l46 16v160l-32 -11c-2 -1 -5 -1 -7 -1c-11 0 -20 9 -20 20v60zM179 95l-83 -30v-160l83 30v160z" fill="currentColor"/>
</g>
<a style="color:inherit;" xlink:href="textedit:///Users/marc.mouries/projects/Sheet-Music/Gypsy-Jazz/Swing_Movie/Swing_Movie_.ly:46:17:18">
<g transform="translate(68.0374, 45.9359)">
<path transform="scale(0.0040, -0.0040)" d="M218 136c66 0 108 -36 108 -89c0 -89 -113 -183 -218 -183c-66 0 -108 36 -108 89c0 89 113 183 218 183z" fill="currentColor"/>
</g>
</a>
<g transform="translate(68.1024, 48.1359)">
<rect x="-0.0650" y="-2.0139" width="0.1300" height="3.6639" ry="0.0400" fill="currentColor"/>
</g>
<g transform="translate(66.5874, 45.9359)">
<path transform="scale(0.0040, -0.0040)" d="M0 119c0 8 5 15 13 18l46 17v158c0 10 8 19 18 19s19 -9 19 -19v-145l83 31v158c0 10 9 19 19 19s18 -9 18 -19v-145l32 12c2 1 5 1 7 1c11 0 20 -9 20 -20v-60c0 -8 -5 -16 -13 -19l-46 -16v-160l32 11c2 1 5 1 7 1c11 0 20 -9 20 -20v-60c0 -8 -5 -15 -13 -18l-46 -17
v-158c0 -10 -8 -19 -18 -19s-19 9 -19 19v145l-83 -31v-158c0 -10 -9 -19 -19 -19s-18 9 -18 19v145l-32 -12c-2 -1 -5 -1 -7 -1c-11 0 -20 9 -20 20v60c0 8 5 16 13 19l46 16v160l-32 -11c-2 -1 -5 -1 -7 -1c-11 0 -20 9 -20 20v60zM179 95l-83 -30v-160l83 30v160z" fill="currentColor"/>
</g>
<a style="color:inherit;" xlink:href="textedit:///Users/marc.mouries/projects/Sheet-Music/Gypsy-Jazz/Swing_Movie/Swing_Movie_.ly:46:22:23">
<g transform="translate(75.7485, 47.5859)">
<path transform="scale(0.0040, -0.0040)" d="M218 136c66 0 108 -36 108 -89c0 -89 -113 -183 -218 -183c-66 0 -108 36 -108 89c0 89 113 183 218 183z" fill="currentColor"/>
</g>
</a>
<g transform="translate(75.8135, 48.1359)">
<rect x="-0.0650" y="-0.3639" width="0.1300" height="2.7749" ry="0.0400" fill="currentColor"/>
</g>
<g transform="translate(74.2985, 47.5859)">
<path transform="scale(0.0040, -0.0040)" d="M0 119c0 8 5 15 13 18l46 17v158c0 10 8 19 18 19s19 -9 19 -19v-145l83 31v158c0 10 9 19 19 19s18 -9 18 -19v-145l32 12c2 1 5 1 7 1c11 0 20 -9 20 -20v-60c0 -8 -5 -16 -13 -19l-46 -16v-160l32 11c2 1 5 1 7 1c11 0 20 -9 20 -20v-60c0 -8 -5 -15 -13 -18l-46 -17
v-158c0 -10 -8 -19 -18 -19s-19 9 -19 19v145l-83 -31v-158c0 -10 -9 -19 -19 -19s-18 9 -18 19v145l-32 -12c-2 -1 -5 -1 -7 -1c-11 0 -20 9 -20 20v60c0 8 5 16 13 19l46 16v160l-32 -11c-2 -1 -5 -1 -7 -1c-11 0 -20 9 -20 20v60zM179 95l-83 -30v-160l83 30v160z" fill="currentColor"/>
</g>
<a style="color:inherit;" xlink:href="textedit:///Users/marc.mouries/projects/Sheet-Music/Gypsy-Jazz/Swing_Movie/Swing_Movie_.ly:46:26:27">
<g transform="translate(80.2562, 47.0359)">
<path transform="scale(0.0040, -0.0040)" d="M218 136c66 0 108 -36 108 -89c0 -89 -113 -183 -218 -183c-66 0 -108 36 -108 89c0 89 113 183 218 183z" fill="currentColor"/>
</g>
</a>
<g transform="translate(80.3212, 48.1359)">
<rect x="-0.0650" y="-0.9139" width="0.1300" height="3.1169" ry="0.0400" fill="currentColor"/>
</g>
<a style="color:inherit;" xlink:href="textedit:///Users/marc.mouries/projects/Sheet-Music/Gypsy-Jazz/Swing_Movie/Swing_Movie_.ly:47:2:3">
<g transform="translate(86.5653, 47.0359)">
<path transform="scale(0.0040, -0.0040)" d="M314 65c0 23 -19 41 -42 41c-39 0 -204 -110 -231 -143c-7 -8 -10 -18 -10 -28c0 -23 19 -41 42 -41c39 0 203 110 230 143c7 8 11 18 11 28zM262 136c41 0 82 -14 82 -71c0 -26 -16 -112 -74 -151c-25 -17 -87 -50 -187 -50c-41 0 -83 14 -83 71c0 26 16 112 74 151
c25 17 88 50 188 50z" fill="currentColor"/>
</g>
</a>
<g transform="translate(86.6303, 48.1359)">
<rect x="-0.0650" y="-0.8410" width="0.1300" height="3.5910" ry="0.0400" fill="currentColor"/>
</g>
<a style="color:inherit;" xlink:href="textedit:///Users/marc.mouries/projects/Sheet-Music/Gypsy-Jazz/Swing_Movie/Swing_Movie_.ly:47:5:6">
<g transform="translate(97.5530, 47.5859)">
<path transform="scale(0.0040, -0.0040)" d="M218 136c66 0 108 -36 108 -89c0 -89 -113 -183 -218 -183c-66 0 -108 36 -108 89c0 89 113 183 218 183z" fill="currentColor"/>
</g>
</a>
<g transform="translate(97.6180, 48.1359)">
<rect x="-0.0650" y="-0.3639" width="0.1300" height="3.6639" ry="0.0400" fill="currentColor"/>
</g>
<g transform="translate(97.6830, 51.3959)">
<path transform="scale(0.0040, -0.0040)" d="M0 0h-16v250h16v-250zM0 0v250c97 59 224 148 224 259c0 57 -15 112 -40 163c-3 16 10 27 23 27c7 0 15 -3 20 -11c25 -56 40 -117 40 -179c0 -203 -267 -306 -267 -509z" fill="currentColor"/>
</g>
<g transform="translate(96.1030, 47.5859)">
<path transform="scale(0.0040, -0.0040)" d="M0 119c0 8 5 15 13 18l46 17v158c0 10 8 19 18 19s19 -9 19 -19v-145l83 31v158c0 10 9 19 19 19s18 -9 18 -19v-145l32 12c2 1 5 1 7 1c11 0 20 -9 20 -20v-60c0 -8 -5 -16 -13 -19l-46 -16v-160l32 11c2 1 5 1 7 1c11 0 20 -9 20 -20v-60c0 -8 -5 -15 -13 -18l-46 -17
v-158c0 -10 -8 -19 -18 -19s-19 9 -19 19v145l-83 -31v-158c0 -10 -9 -19 -19 -19s-18 9 -18 19v145l-32 -12c-2 -1 -5 -1 -7 -1c-11 0 -20 9 -20 20v60c0 8 5 16 13 19l46 16v160l-32 -11c-2 -1 -5 -1 -7 -1c-11 0 -20 9 -20 20v60zM179 95l-83 -30v-160l83 30v160z" fill="currentColor"/>
</g>
<a style="color:inherit;" xlink:href="textedit:///Users/marc.mouries/projects/Sheet-Music/Gypsy-Jazz/Swing_Movie/Swing_Movie_.ly:47:9:10">
<g transform="translate(102.0607, 48.1359)">
<path transform="scale(0.0040, -0.0040)" d="M70 205c79 0 46 -98 91 -98c16 0 54 48 61 63c6 12 23 12 28 0l-123 -420c-8 -7 -17 -10 -27 -10s-20 3 -28 10l117 326c-34 -12 -69 -22 -105 -22c-47 0 -87 34 -87 79c0 40 33 72 73 72z" fill="currentColor"/>
</g>
</a>
<a style="color:inherit;" xlink:href="textedit:///Users/marc.mouries/projects/Sheet-Music/Gypsy-Jazz/Swing_Movie/Swing_Movie_.ly:47:12:13">
<g transform="translate(106.2641, 48.1359)">
<path transform="scale(0.0040, -0.0040)" d="M-6 78c0 59 124 83 124 182c0 24 -8 49 -25 69l-35 42c-3 3 -4 7 -4 10c0 9 9 15 17 15c4 0 8 -1 11 -5l151 -180c7 -9 10 -17 10 -25c0 -59 -124 -83 -124 -182c0 -24 7 -49 24 -69l84 -99c3 -3 4 -7 4 -10c0 -9 -8 -16 -16 -16s-45 44 -109 44c-16 0 -53 0 -53 -67
c0 -35 11 -74 28 -94c7 -8 -5 -19 -12 -11c-45 54 -92 148 -92 202c0 41 27 42 40 42c33 0 78 -13 119 -31l-132 158c-7 9 -10 17 -10 25z" fill="currentColor"/>
</g>
</a>
<g transform="translate(5.6906, 60.6359)">
<rect x="-0.5000" y="-0.1000" width="4.9606" height="0.1000" ry="0.0000" fill="currentColor"/>
</g>
<g transform="translate(5.6906, 58.2792)">
<rect x="-0.5000" y="-0.1000" width="4.9606" height="0.1000" ry="0.0000" fill="currentColor"/>
</g>
<g transform="translate(5.1906, 60.1359)">
<rect x="0" y="-1.8567" width="0.1000" height="2.2567" ry="0.0000" fill="currentColor"/>
</g>
<g transform="translate(10.0512, 60.1359)">
<rect x="0" y="-1.8567" width="0.1000" height="2.2567" ry="0.0000" fill="currentColor"/>
</g>
<g transform="translate(5.6906, 60.1359)">
<text font-family="serif" font-size="2.2001" text-anchor="start" fill="currentColor">
<tspan>In D</tspan>
</text>
</g>
<g transform="translate(62.9148, 80.0994)">
<rect x="0.0000" y="-2.2000" width="0.1900" height="4.4000" ry="0.0000" fill="currentColor"/>
</g>
<g transform="translate(5.6906, 82.2994)">
<line stroke-linejoin="round" stroke-linecap="round" stroke-width="0.1000" stroke="currentColor" x1="0.0500" y1="0" x2="108.0705" y2="0"/>
</g>
<g transform="translate(5.6906, 81.1994)">
<line stroke-linejoin="round" stroke-linecap="round" stroke-width="0.1000" stroke="currentColor" x1="0.0500" y1="0" x2="108.0705" y2="0"/>
</g>
<g transform="translate(5.6906, 80.0994)">
<line stroke-linejoin="round" stroke-linecap="round" stroke-width="0.1000" stroke="currentColor" x1="0.0500" y1="0" x2="108.0705" y2="0"/>
</g>
<g transform="translate(5.6906, 78.9994)">
<line stroke-linejoin="round" stroke-linecap="round" stroke-width="0.1000" stroke="currentColor" x1="0.0500" y1="0" x2="108.0705" y2="0"/>
</g>
<g transform="translate(5.6906, 77.8994)">
<line stroke-linejoin="round" stroke-linecap="round" stroke-width="0.1000" stroke="currentColor" x1="0.0500" y1="0" x2="108.0705" y2="0"/>
</g>
<g transform="translate(113.6210, 80.0994)">
<rect x="0.0000" y="-2.2000" width="0.1900" height="4.4000" ry="0.0000" fill="currentColor"/>
</g>
<g transform="translate(89.9854, 80.0994)">
<rect x="0.0000" y="-2.2000" width="0.1900" height="4.4000" ry="0.0000" fill="currentColor"/>
</g>
<g transform="translate(40.0797, 80.0994)">
<rect x="0.0000" y="-2.2000" width="0.1900" height="4.4000" ry="0.0000" fill="currentColor"/>
</g>
<g transform="translate(64.6765, 80.0994)">
<rect x="-0.0650" y="-0.2910" width="0.1300" height="3.5910" ry="0.0400" fill="currentColor"/>
</g>
<g transform="translate(25.4188, 77.8994)">
<polygon stroke-linejoin="round" stroke-linecap="round" stroke-width="0.0800" fill="currentColor" stroke="currentColor" points="12.0929 -1.8740 12.0929 -1.4260 0.0400 0.2240 0.0400 -0.2240"/>
</g>
<a style="color:inherit;" xlink:href="textedit:///Users/marc.mouries/projects/Sheet-Music/Gypsy-Jazz/Swing_Movie/Swing_Movie_.ly:30:2:3">
<g transform="translate(15.7606, 76.8174)">
<text font-family="sans-serif" font-size="2.6163" text-anchor="start" fill="currentColor">
<tspan>D</tspan>
</text>
</g>
<g transform="translate(17.7750, 75.6282)">
<text font-family="sans-serif" font-size="1.8500" text-anchor="start" fill="currentColor">
<tspan>7</tspan>
</text>
</g>
</a>
<a style="color:inherit;" xlink:href="textedit:///Users/marc.mouries/projects/Sheet-Music/Gypsy-Jazz/Swing_Movie/Swing_Movie_.ly:36:2:3">
<g transform="translate(15.7606, 78.9994)">
<path transform="scale(0.0040, -0.0040)" d="M314 65c0 23 -19 41 -42 41c-39 0 -204 -110 -231 -143c-7 -8 -10 -18 -10 -28c0 -23 19 -41 42 -41c39 0 203 110 230 143c7 8 11 18 11 28zM262 136c41 0 82 -14 82 -71c0 -26 -16 -112 -74 -151c-25 -17 -87 -50 -187 -50c-41 0 -83 14 -83 71c0 26 16 112 74 151
c25 17 88 50 188 50z" fill="currentColor"/>
</g>
</a>
<g transform="translate(6.4906, 81.1994)">
<path transform="scale(0.0040, -0.0040)" d="M266 -635h-6c-108 0 -195 88 -195 197c0 58 53 103 112 103c54 0 95 -47 95 -103c0 -52 -43 -95 -95 -95c-11 0 -21 2 -31 6c26 -39 68 -65 117 -65h4zM461 -203c68 24 113 90 113 164c0 90 -66 179 -173 190c19 -89 48 -242 60 -354zM74 28c0 -145 141 -247 264 -247
c1 0 47 0 82 6c-7 64 -29 203 -63 364c-79 -8 -124 -61 -124 -119c0 -44 25 -91 81 -123c5 -5 7 -10 7 -15c0 -11 -10 -22 -22 -22c-15 0 -126 62 -126 187c0 88 58 174 160 197c-14 58 -29 117 -46 175c-107 -121 -213 -243 -213 -403zM250 553c-29 96 -52 170 -52 346
c0 115 55 224 149 292c6 5 14 5 20 0c68 -80 133 -245 133 -358c0 -143 -86 -255 -180 -364c21 -68 39 -138 56 -207c2 0 7 1 13 1c155 0 256 -128 256 -261c0 -113 -74 -212 -180 -246c3 -35 5 -70 5 -105c0 -19 -1 -39 -2 -58c-7 -119 -88 -225 -202 -228l1 43
c93 2 153 92 159 191c1 18 2 37 2 55c0 31 -1 61 -4 92c-5 -1 -44 -8 -89 -8c-193 0 -333 180 -333 374c0 177 131 306 248 441zM428 916c0 34 1 66 -20 129c-99 -48 -162 -149 -162 -259c0 -52 12 -115 36 -194c80 97 146 198 146 324z" fill="currentColor"/>
</g>
<a style="color:inherit;" xlink:href="textedit:///Users/marc.mouries/projects/Sheet-Music/Gypsy-Jazz/Swing_Movie/Swing_Movie_.ly:24:2:3">
<g transform="translate(10.1106, 80.0994)">
<path transform="scale(0.0040, -0.0040)" d="M27 41l-1 -66v-11c0 -22 1 -44 4 -66c45 38 93 80 93 139c0 33 -14 67 -43 67c-31 0 -52 -30 -53 -63zM-15 -138l-12 595c8 5 18 8 27 8s19 -3 27 -8l-7 -345c25 21 58 34 91 34c52 0 89 -48 89 -102c0 -80 -86 -117 -147 -169c-15 -13 -24 -38 -45 -38
c-13 0 -23 11 -23 25z" fill="currentColor"/>
</g>
</a>
<a style="color:inherit;" xlink:href="textedit:///Users/marc.mouries/projects/Sheet-Music/Gypsy-Jazz/Swing_Movie/Swing_Movie_.ly:23:2:3">
<g transform="translate(12.0606, 80.0994)">
<path transform="scale(0.0040, -0.0040)" d="M250 262c116 0 176 -106 176 -163c0 -40 -30 -72 -67 -72c-31 0 -75 25 -75 75c0 38 27 77 72 77c4 0 9 0 14 -1c-28 37 -72 59 -120 59c-106 0 -113 -73 -113 -186v-51v-51c0 -113 7 -187 113 -187c80 0 139 70 158 151c2 7 7 10 12 10c6 0 13 -4 13 -12
c0 -22 -50 -174 -183 -174c-59 0 -250 19 -250 263c0 62 18 262 250 262z" fill="currentColor"/>
</g>
</a>
<a style="color:inherit;" xlink:href="textedit:///Users/marc.mouries/projects/Sheet-Music/Gypsy-Jazz/Swing_Movie/Swing_Movie_.ly:25:2:3">
<g transform="translate(12.0606, 73.3086)">
<rect x="1.0449" y="-2.6727" width="0.1158" height="2.5129" ry="0.0193" fill="currentColor"/>
</g>
<g transform="translate(12.0606, 73.3086)">
<path transform="scale(0.0036, -0.0036)" d="M215 137c67 0 111 -37 111 -92c0 -90 -111 -182 -215 -182c-67 0 -111 37 -111 92c0 90 111 182 215 182z" fill="currentColor"/>
</g>
<g transform="translate(13.2212, 73.7974)">
<text font-family="serif" font-size="2.2001" text-anchor="start" fill="currentColor">
<tspan> = 200</tspan>
</text>
</g>
</a>
<g transform="translate(15.8256, 80.0994)">
<rect x="-0.0650" y="-0.8410" width="0.1300" height="3.5910" ry="0.0400" fill="currentColor"/>
</g>
<a style="color:inherit;" xlink:href="textedit:///Users/marc.mouries/projects/Sheet-Music/Gypsy-Jazz/Swing_Movie/Swing_Movie_.ly:36:6:7">
<g transform="translate(24.2446, 81.7494)">
<path transform="scale(0.0040, -0.0040)" d="M218 136c66 0 108 -36 108 -89c0 -89 -113 -183 -218 -183c-66 0 -108 36 -108 89c0 89 113 183 218 183z" fill="currentColor"/>
</g>
</a>
<g transform="translate(25.4838, 80.0994)">
<rect x="-0.0650" y="-2.2088" width="0.1300" height="3.6727" ry="0.0400" fill="currentColor"/>
</g>
<g transform="translate(22.7946, 81.7494)">
<path transform="scale(0.0040, -0.0040)" d="M0 119c0 8 5 15 13 18l46 17v158c0 10 8 19 18 19s19 -9 19 -19v-145l83 31v158c0 10 9 19 19 19s18 -9 18 -19v-145l32 12c2 1 5 1 7 1c11 0 20 -9 20 -20v-60c0 -8 -5 -16 -13 -19l-46 -16v-160l32 11c2 1 5 1 7 1c11 0 20 -9 20 -20v-60c0 -8 -5 -15 -13 -18l-46 -17
v-158c0 -10 -8 -19 -18 -19s-19 9 -19 19v145l-83 -31v-158c0 -10 -9 -19 -19 -19s-18 9 -18 19v145l-32 -12c-2 -1 -5 -1 -7 -1c-11 0 -20 9 -20 20v60c0 8 5 16 13 19l46 16v160l-32 -11c-2 -1 -5 -1 -7 -1c-11 0 -20 9 -20 20v60zM179 95l-83 -30v-160l83 30v160z" fill="currentColor"/>
</g>
<a style="color:inherit;" xlink:href="textedit:///Users/marc.mouries/projects/Sheet-Music/Gypsy-Jazz/Swing_Movie/Swing_Movie_.ly:36:11:12">
<g transform="translate(28.0174, 81.1994)">
<path transform="scale(0.0040, -0.0040)" d="M218 136c66 0 108 -36 108 -89c0 -89 -113 -183 -218 -183c-66 0 -108 36 -108 89c0 89 113 183 218 183z" fill="currentColor"/>
</g>
</a>
<g transform="translate(29.2566, 80.0994)">
<rect x="-0.0650" y="-2.7219" width="0.1300" height="3.6358" ry="0.0400" fill="currentColor"/>
</g>
<a style="color:inherit;" xlink:href="textedit:///Users/marc.mouries/projects/Sheet-Music/Gypsy-Jazz/Swing_Movie/Swing_Movie_.ly:36:13:14">
<g transform="translate(32.2246, 80.0994)">
<path transform="scale(0.0040, -0.0040)" d="M218 136c66 0 108 -36 108 -89c0 -89 -113 -183 -218 -183c-66 0 -108 36 -108 89c0 89 113 183 218 183z" fill="currentColor"/>
</g>
</a>
<g transform="translate(33.4638, 80.0994)">
<rect x="-0.0650" y="-3.2941" width="0.1300" height="3.1080" ry="0.0400" fill="currentColor"/>
</g>
<g transform="translate(31.1903, 80.0994)">
<path transform="scale(0.0040, -0.0040)" d="M-7 375c8 4 17 7 25 7s16 -3 24 -7l-2 -183l106 20h3c10 0 18 -7 18 -17l7 -570c-8 -4 -17 -7 -25 -7s-16 3 -24 7l2 183l-106 -20h-3c-10 0 -18 7 -18 17zM131 112l-92 -17l-3 -207l92 17z" fill="currentColor"/>
</g>
<a style="color:inherit;" xlink:href="textedit:///Users/marc.mouries/projects/Sheet-Music/Gypsy-Jazz/Swing_Movie/Swing_Movie_.ly:36:16:17">
<g transform="translate(36.2474, 78.9994)">
<path transform="scale(0.0040, -0.0040)" d="M218 136c66 0 108 -36 108 -89c0 -89 -113 -183 -218 -183c-66 0 -108 36 -108 89c0 89 113 183 218 183z" fill="currentColor"/>
</g>
</a>
<g transform="translate(37.4867, 80.0994)">
<rect x="-0.0650" y="-3.8412" width="0.1300" height="2.5551" ry="0.0400" fill="currentColor"/>
</g>
<a style="color:inherit;" xlink:href="textedit:///Users/marc.mouries/projects/Sheet-Music/Gypsy-Jazz/Swing_Movie/Swing_Movie_.ly:30:7:8">
<g transform="translate(41.8506, 76.8174)">
<text font-family="sans-serif" font-size="2.6163" text-anchor="start" fill="currentColor">
<tspan>G</tspan>
</text>
</g>
<g transform="translate(43.8651, 75.6282)">
<text font-family="sans-serif" font-size="1.8500" text-anchor="start" fill="currentColor">
<tspan>7</tspan>
</text>
</g>
</a>
<a style="color:inherit;" xlink:href="textedit:///Users/marc.mouries/projects/Sheet-Music/Gypsy-Jazz/Swing_Movie/Swing_Movie_.ly:37:2:3">
<g transform="translate(41.8506, 77.8994)">
<path transform="scale(0.0040, -0.0040)" d="M314 65c0 23 -19 41 -42 41c-39 0 -204 -110 -231 -143c-7 -8 -10 -18 -10 -28c0 -23 19 -41 42 -41c39 0 203 110 230 143c7 8 11 18 11 28zM262 136c41 0 82 -14 82 -71c0 -26 -16 -112 -74 -151c-25 -17 -87 -50 -187 -50c-41 0 -83 14 -83 71c0 26 16 112 74 151
c25 17 88 50 188 50z" fill="currentColor"/>
</g>
</a>
<g transform="translate(41.9156, 80.0994)">
<rect x="-0.0650" y="-1.9410" width="0.1300" height="3.5910" ry="0.0400" fill="currentColor"/>
</g>
<a style="color:inherit;" xlink:href="textedit:///Users/marc.mouries/projects/Sheet-Music/Gypsy-Jazz/Swing_Movie/Swing_Movie_.ly:30:12:13">
<g transform="translate(50.6339, 76.8174)">
<text font-family="sans-serif" font-size="2.6163" text-anchor="start" fill="currentColor">
<tspan>D</tspan>
</text>
</g>
<g transform="translate(52.6484, 75.6282)">
<text font-family="sans-serif" font-size="1.8500" text-anchor="start" fill="currentColor">
<tspan>9</tspan>
</text>
</g>
</a>
<a style="color:inherit;" xlink:href="textedit:///Users/marc.mouries/projects/Sheet-Music/Gypsy-Jazz/Swing_Movie/Swing_Movie_.ly:37:5:6">
<g transform="translate(50.6339, 78.4494)">
<path transform="scale(0.0040, -0.0040)" d="M218 136c66 0 108 -36 108 -89c0 -89 -113 -183 -218 -183c-66 0 -108 36 -108 89c0 89 113 183 218 183z" fill="currentColor"/>
</g>
</a>
<g transform="translate(50.6989, 80.0994)">
<rect x="-0.0650" y="-1.4639" width="0.1300" height="3.6639" ry="0.0400" fill="currentColor"/>
</g>
<a style="color:inherit;" xlink:href="textedit:///Users/marc.mouries/projects/Sheet-Music/Gypsy-Jazz/Swing_Movie/Swing_Movie_.ly:37:8:9">
<g transform="translate(56.8755, 78.9994)">
<path transform="scale(0.0040, -0.0040)" d="M218 136c66 0 108 -36 108 -89c0 -89 -113 -183 -218 -183c-66 0 -108 36 -108 89c0 89 113 183 218 183z" fill="currentColor"/>
</g>
</a>
<g transform="translate(56.9405, 80.0994)">
<rect x="-0.0650" y="-0.9139" width="0.1300" height="3.6639" ry="0.0400" fill="currentColor"/>
</g>
<a style="color:inherit;" xlink:href="textedit:///Users/marc.mouries/projects/Sheet-Music/Gypsy-Jazz/Swing_Movie/Swing_Movie_.ly:38:2:3">
<g transform="translate(64.6115, 79.5494)">
<path transform="scale(0.0040, -0.0040)" d="M314 65c0 23 -19 41 -42 41c-39 0 -204 -110 -231 -143c-7 -8 -10 -18 -10 -28c0 -23 19 -41 42 -41c39 0 203 110 230 143c7 8 11 18 11 28zM262 136c41 0 82 -14 82 -71c0 -26 -16 -112 -74 -151c-25 -17 -87 -50 -187 -50c-41 0 -83 14 -83 71c0 26 16 112 74 151
c25 17 88 50 188 50z" fill="currentColor"/>
</g>
</a>
<g transform="translate(74.2461, 83.1854)">
<polygon stroke-linejoin="round" stroke-linecap="round" stroke-width="0.0800" fill="currentColor" stroke="currentColor" points="12.2586 -0.8960 12.2586 -0.4480 0.0400 0.2240 0.0400 -0.2240"/>
</g>
<a style="color:inherit;" xlink:href="textedit:///Users/marc.mouries/projects/Sheet-Music/Gypsy-Jazz/Swing_Movie/Swing_Movie_.ly:38:5:6">
<g transform="translate(74.2461, 80.0994)">
<path transform="scale(0.0040, -0.0040)" d="M218 136c66 0 108 -36 108 -89c0 -89 -113 -183 -218 -183c-66 0 -108 36 -108 89c0 89 113 183 218 183z" fill="currentColor"/>
</g>
</a>
<g transform="translate(74.3111, 80.0994)">
<rect x="-0.0650" y="0.1861" width="0.1300" height="2.8963" ry="0.0400" fill="currentColor"/>
</g>
<g transform="translate(73.2001, 80.0994)">
<path transform="scale(0.0040, -0.0040)" d="M-7 375c8 4 17 7 25 7s16 -3 24 -7l-2 -183l106 20h3c10 0 18 -7 18 -17l7 -570c-8 -4 -17 -7 -25 -7s-16 3 -24 7l2 183l-106 -20h-3c-10 0 -18 7 -18 17zM131 112l-92 -17l-3 -207l92 17z" fill="currentColor"/>
</g>
<a style="color:inherit;" xlink:href="textedit:///Users/marc.mouries/projects/Sheet-Music/Gypsy-Jazz/Swing_Movie/Swing_Movie_.ly:38:9:10">
<g transform="translate(78.0189, 79.5494)">
<path transform="scale(0.0040, -0.0040)" d="M218 136c66 0 108 -36 108 -89c0 -89 -113 -183 -218 -183c-66 0 -108 36 -108 89c0 89 113 183 218 183z" fill="currentColor"/>
</g>
</a>
<g transform="translate(78.0839, 80.0994)">
<rect x="-0.0650" y="-0.3639" width="0.1300" height="3.2402" ry="0.0400" fill="currentColor"/>
</g>
<a style="color:inherit;" xlink:href="textedit:///Users/marc.mouries/projects/Sheet-Music/Gypsy-Jazz/Swing_Movie/Swing_Movie_.ly:38:11:12">
<g transform="translate(82.6418, 79.5494)">
<path transform="scale(0.0040, -0.0040)" d="M218 136c66 0 108 -36 108 -89c0 -89 -113 -183 -218 -183c-66 0 -108 36 -108 89c0 89 113 183 218 183z" fill="currentColor"/>
</g>
</a>
<g transform="translate(82.7068, 80.0994)">
<rect x="-0.0650" y="-0.3639" width="0.1300" height="2.9876" ry="0.0400" fill="currentColor"/>
</g>
<g transform="translate(81.1918, 79.5494)">
<path transform="scale(0.0040, -0.0040)" d="M0 119c0 8 5 15 13 18l46 17v158c0 10 8 19 18 19s19 -9 19 -19v-145l83 31v158c0 10 9 19 19 19s18 -9 18 -19v-145l32 12c2 1 5 1 7 1c11 0 20 -9 20 -20v-60c0 -8 -5 -16 -13 -19l-46 -16v-160l32 11c2 1 5 1 7 1c11 0 20 -9 20 -20v-60c0 -8 -5 -15 -13 -18l-46 -17
v-158c0 -10 -8 -19 -18 -19s-19 9 -19 19v145l-83 -31v-158c0 -10 -9 -19 -19 -19s-18 9 -18 19v145l-32 -12c-2 -1 -5 -1 -7 -1c-11 0 -20 9 -20 20v60c0 8 5 16 13 19l46 16v160l-32 -11c-2 -1 -5 -1 -7 -1c-11 0 -20 9 -20 20v60zM179 95l-83 -30v-160l83 30v160z" fill="currentColor"/>
</g>
<g transform="translate(107.6110, 80.0994)">
<rect x="-0.0650" y="-0.3639" width="0.1300" height="3.6639" ry="0.0400" fill="currentColor"/>
</g>
<a style="color:inherit;" xlink:href="textedit:///Users/marc.mouries/projects/Sheet-Music/Gypsy-Jazz/Swing_Movie/Swing_Movie_.ly:38:14:15">
<g transform="translate(86.4147, 78.9994)">
<path transform="scale(0.0040, -0.0040)" d="M218 136c66 0 108 -36 108 -89c0 -89 -113 -183 -218 -183c-66 0 -108 36 -108 89c0 89 113 183 218 183z" fill="currentColor"/>
</g>
</a>
<g transform="translate(86.4797, 80.0994)">
<rect x="-0.0650" y="-0.9139" width="0.1300" height="3.3314" ry="0.0400" fill="currentColor"/>
</g>
<a style="color:inherit;" xlink:href="textedit:///Users/marc.mouries/projects/Sheet-Music/Gypsy-Jazz/Swing_Movie/Swing_Movie_.ly:39:9:10">
<g transform="translate(107.5460, 79.5494)">
<path transform="scale(0.0040, -0.0040)" d="M218 136c66 0 108 -36 108 -89c0 -89 -113 -183 -218 -183c-66 0 -108 36 -108 89c0 89 113 183 218 183z" fill="currentColor"/>
</g>
</a>
<a style="color:inherit;" xlink:href="textedit:///Users/marc.mouries/projects/Sheet-Music/Gypsy-Jazz/Swing_Movie/Swing_Movie_.ly:39:2:3">
<g transform="translate(92.5211, 78.4494)">
<path transform="scale(0.0040, -0.0040)" d="M314 65c0 23 -19 41 -42 41c-39 0 -204 -110 -231 -143c-7 -8 -10 -18 -10 -28c0 -23 19 -41 42 -41c39 0 203 110 230 143c7 8 11 18 11 28zM262 136c41 0 82 -14 82 -71c0 -26 -16 -112 -74 -151c-25 -17 -87 -50 -187 -50c-41 0 -83 14 -83 71c0 26 16 112 74 151
c25 17 88 50 188 50z" fill="currentColor"/>
</g>
</a>
<g transform="translate(92.5861, 80.0994)">
<rect x="-0.0650" y="-1.3910" width="0.1300" height="3.5910" ry="0.0400" fill="currentColor"/>
</g>
<g transform="translate(91.3711, 78.4494)">
<path transform="scale(0.0040, -0.0040)" d="M27 41l-1 -66v-11c0 -22 1 -44 4 -66c45 38 93 80 93 139c0 33 -14 67 -43 67c-31 0 -52 -30 -53 -63zM-15 -138l-12 595c8 5 18 8 27 8s19 -3 27 -8l-7 -345c25 21 58 34 91 34c52 0 89 -48 89 -102c0 -80 -86 -117 -147 -169c-15 -13 -24 -38 -45 -38
c-13 0 -23 11 -23 25z" fill="currentColor"/>
</g>
<a style="color:inherit;" xlink:href="textedit:///Users/marc.mouries/projects/Sheet-Music/Gypsy-Jazz/Swing_Movie/Swing_Movie_.ly:39:6:7">
<g transform="translate(101.3044, 78.9994)">
<path transform="scale(0.0040, -0.0040)" d="M218 136c66 0 108 -36 108 -89c0 -89 -113 -183 -218 -183c-66 0 -108 36 -108 89c0 89 113 183 218 183z" fill="currentColor"/>
</g>
</a>
<g transform="translate(101.3694, 80.0994)">
<rect x="-0.0650" y="-0.9139" width="0.1300" height="3.6639" ry="0.0400" fill="currentColor"/>
</g>
<g transform="translate(5.6906, 99.3994)">
<rect x="58.0398" y="-0.1050" width="1.8053" height="0.2100" ry="0.1050" fill="currentColor"/>
</g>
<g transform="translate(5.6906, 98.2994)">
<line stroke-linejoin="round" stroke-linecap="round" stroke-width="0.1000" stroke="currentColor" x1="0.0500" y1="0" x2="108.0705" y2="0"/>
</g>
<g transform="translate(5.6906, 97.1994)">
<line stroke-linejoin="round" stroke-linecap="round" stroke-width="0.1000" stroke="currentColor" x1="0.0500" y1="0" x2="108.0705" y2="0"/>
</g>
<g transform="translate(5.6906, 96.0994)">
<line stroke-linejoin="round" stroke-linecap="round" stroke-width="0.1000" stroke="currentColor" x1="0.0500" y1="0" x2="108.0705" y2="0"/>
</g>
<g transform="translate(5.6906, 94.9994)">
<line stroke-linejoin="round" stroke-linecap="round" stroke-width="0.1000" stroke="currentColor" x1="0.0500" y1="0" x2="108.0705" y2="0"/>
</g>
<g transform="translate(5.6906, 93.8994)">
<line stroke-linejoin="round" stroke-linecap="round" stroke-width="0.1000" stroke="currentColor" x1="0.0500" y1="0" x2="108.0705" y2="0"/>
</g>
<g transform="translate(113.6210, 96.0994)">
<rect x="0.0000" y="-2.2000" width="0.1900" height="4.4000" ry="0.0000" fill="currentColor"/>
</g>
<g transform="translate(85.2335, 96.0994)">
<rect x="0.0000" y="-2.2000" width="0.1900" height="4.4000" ry="0.0000" fill="currentColor"/>
</g>
<g transform="translate(47.2831, 96.0994)">
<rect x="0.0000" y="-2.2000" width="0.1900" height="4.4000" ry="0.0000" fill="currentColor"/>
</g>
<g transform="translate(6.4906, 97.1994)">
<path transform="scale(0.0040, -0.0040)" d="M266 -635h-6c-108 0 -195 88 -195 197c0 58 53 103 112 103c54 0 95 -47 95 -103c0 -52 -43 -95 -95 -95c-11 0 -21 2 -31 6c26 -39 68 -65 117 -65h4zM461 -203c68 24 113 90 113 164c0 90 -66 179 -173 190c19 -89 48 -242 60 -354zM74 28c0 -145 141 -247 264 -247
c1 0 47 0 82 6c-7 64 -29 203 -63 364c-79 -8 -124 -61 -124 -119c0 -44 25 -91 81 -123c5 -5 7 -10 7 -15c0 -11 -10 -22 -22 -22c-15 0 -126 62 -126 187c0 88 58 174 160 197c-14 58 -29 117 -46 175c-107 -121 -213 -243 -213 -403zM250 553c-29 96 -52 170 -52 346
c0 115 55 224 149 292c6 5 14 5 20 0c68 -80 133 -245 133 -358c0 -143 -86 -255 -180 -364c21 -68 39 -138 56 -207c2 0 7 1 13 1c155 0 256 -128 256 -261c0 -113 -74 -212 -180 -246c3 -35 5 -70 5 -105c0 -19 -1 -39 -2 -58c-7 -119 -88 -225 -202 -228l1 43
c93 2 153 92 159 191c1 18 2 37 2 55c0 31 -1 61 -4 92c-5 -1 -44 -8 -89 -8c-193 0 -333 180 -333 374c0 177 131 306 248 441zM428 916c0 34 1 66 -20 129c-99 -48 -162 -149 -162 -259c0 -52 12 -115 36 -194c80 97 146 198 146 324z" fill="currentColor"/>
</g>
<g transform="translate(10.1106, 96.0994)">
<path transform="scale(0.0040, -0.0040)" d="M27 41l-1 -66v-11c0 -22 1 -44 4 -66c45 38 93 80 93 139c0 33 -14 67 -43 67c-31 0 -52 -30 -53 -63zM-15 -138l-12 595c8 5 18 8 27 8s19 -3 27 -8l-7 -345c25 21 58 34 91 34c52 0 89 -48 89 -102c0 -80 -86 -117 -147 -169c-15 -13 -24 -38 -45 -38
c-13 0 -23 11 -23 25z" fill="currentColor"/>
</g>
<g transform="translate(4.8028, 92.8290)">
<text font-family="serif" font-size="1.7461" text-anchor="start" fill="currentColor">
<tspan>5</tspan>
</text>
</g>
<g transform="translate(77.3454, 94.1134)">
<polygon stroke-linejoin="round" stroke-linecap="round" stroke-width="0.0800" fill="currentColor" stroke="currentColor" points="4.5200 -0.4380 4.5200 0.0100 0.0400 0.2240 0.0400 -0.2240"/>
</g>
<a style="color:inherit;" xlink:href="textedit:///Users/marc.mouries/projects/Sheet-Music/Gypsy-Jazz/Swing_Movie/Swing_Movie_.ly:41:2:3">
<g transform="translate(13.4566, 96.0994)">
<path transform="scale(0.0040, -0.0040)" d="M218 136c66 0 108 -36 108 -89c0 -89 -113 -183 -218 -183c-66 0 -108 36 -108 89c0 89 113 183 218 183z" fill="currentColor"/>
</g>
</a>
<g transform="translate(13.5216, 96.0994)">
<rect x="-0.0650" y="0.1861" width="0.1300" height="3.4806" ry="0.0400" fill="currentColor"/>
</g>
<g transform="translate(12.4106, 96.0994)">
<path transform="scale(0.0040, -0.0040)" d="M-7 375c8 4 17 7 25 7s16 -3 24 -7l-2 -183l106 20h3c10 0 18 -7 18 -17l7 -570c-8 -4 -17 -7 -25 -7s-16 3 -24 7l2 183l-106 -20h-3c-10 0 -18 7 -18 17zM131 112l-92 -17l-3 -207l92 17z" fill="currentColor"/>
</g>
<a style="color:inherit;" xlink:href="textedit:///Users/marc.mouries/projects/Sheet-Music/Gypsy-Jazz/Swing_Movie/Swing_Movie_.ly:46:28:29">
<g transform="translate(80.6012, 96.0994)">
<path stroke-width="0.0800" stroke-linejoin="round" stroke-linecap="round" stroke="currentColor" fill="currentColor" d="M1.5042 1.3435C2.3708 2.1594 5.3778 2.1594 6.2444 1.3435L6.2444 1.3435C5.3778 2.0394 2.3708 2.0394 1.5042 1.3435z"/>
</g>
</a>
<a style="color:inherit;" xlink:href="textedit:///Users/marc.mouries/projects/Sheet-Music/Gypsy-Jazz/Swing_Movie/Swing_Movie_.ly:43:3:4">
<g transform="translate(21.2624, 93.3494)">
<path transform="scale(0.0040, -0.0040)" d="M218 136c66 0 108 -36 108 -89c0 -89 -113 -183 -218 -183c-66 0 -108 36 -108 89c0 89 113 183 218 183z" fill="currentColor"/>
</g>
</a>
<a style="color:inherit;" xlink:href="textedit:///Users/marc.mouries/projects/Sheet-Music/Gypsy-Jazz/Swing_Movie/Swing_Movie_.ly:43:6:7">
<g transform="translate(21.4536, 92.2544)">
<path transform="scale(0.0022, -0.0022)" d="M148 501c10 0 41 -15 72 -15c32 0 63 15 76 15c15 0 26 -11 26 -21c0 -4 -1 -7 -4 -10l-264 -291h134v4c0 60 50 41 75 85c7 11 8 24 14 36c3 7 10 10 17 10c11 0 24 -8 24 -25v-110h70c18 0 27 -14 27 -27s-9 -27 -27 -27h-70c2 -45 36 -82 80 -82c14 0 22 -10 22 -21
s-8 -22 -22 -22c-49 0 -96 14 -145 14s-97 -14 -146 -14c-14 0 -21 11 -21 22s7 21 21 21c44 0 79 37 81 82h-134c-43 0 -57 25 -57 42c0 5 1 10 3 12c73 81 123 182 123 291c0 17 11 31 25 31z" fill="currentColor"/>
</g>
</a>
<g transform="translate(21.3274, 96.0994)">
<rect x="-0.0650" y="-2.5639" width="0.1300" height="3.4529" ry="0.0400" fill="currentColor"/>
</g>
<g transform="translate(50.2695, 95.2134)">
<polygon stroke-linejoin="round" stroke-linecap="round" stroke-width="0.0800" fill="currentColor" stroke="currentColor" points="14.9001 0.4480 14.9001 0.8960 0.0400 0.2240 0.0400 -0.2240"/>
</g>
<a style="color:inherit;" xlink:href="textedit:///Users/marc.mouries/projects/Sheet-Music/Gypsy-Jazz/Swing_Movie/Swing_Movie_.ly:43:9:10">
<g transform="translate(25.6924, 93.8994)">
<path transform="scale(0.0040, -0.0040)" d="M218 136c66 0 108 -36 108 -89c0 -89 -113 -183 -218 -183c-66 0 -108 36 -108 89c0 89 113 183 218 183z" fill="currentColor"/>
</g>
</a>
<g transform="translate(25.7574, 96.0994)">
<rect x="-0.0650" y="-2.0139" width="0.1300" height="3.1108" ry="0.0400" fill="currentColor"/>
</g>
<g transform="translate(30.1224, 98.2994)">
<polygon stroke-linejoin="round" stroke-linecap="round" stroke-width="0.0800" fill="currentColor" stroke="currentColor" points="12.8800 1.4260 12.8800 1.8740 0.0400 0.2240 0.0400 -0.2240"/>
</g>
<a style="color:inherit;" xlink:href="textedit:///Users/marc.mouries/projects/Sheet-Music/Gypsy-Jazz/Swing_Movie/Swing_Movie_.ly:43:11:12">
<g transform="translate(30.1224, 94.4494)">
<path transform="scale(0.0040, -0.0040)" d="M218 136c66 0 108 -36 108 -89c0 -89 -113 -183 -218 -183c-66 0 -108 36 -108 89c0 89 113 183 218 183z" fill="currentColor"/>
</g>
</a>
<g transform="translate(30.1874, 96.0994)">
<rect x="-0.0650" y="-1.4639" width="0.1300" height="3.6722" ry="0.0400" fill="currentColor"/>
</g>
<g transform="translate(21.2624, 96.9854)">
<polygon stroke-linejoin="round" stroke-linecap="round" stroke-width="0.0800" fill="currentColor" stroke="currentColor" points="4.5200 -0.0100 4.5200 0.4380 0.0400 0.2240 0.0400 -0.2240"/>
</g>
<a style="color:inherit;" xlink:href="textedit:///Users/marc.mouries/projects/Sheet-Music/Gypsy-Jazz/Swing_Movie/Swing_Movie_.ly:43:15:16">
<g transform="translate(34.5524, 94.9994)">
<path transform="scale(0.0040, -0.0040)" d="M218 136c66 0 108 -36 108 -89c0 -89 -113 -183 -218 -183c-66 0 -108 36 -108 89c0 89 113 183 218 183z" fill="currentColor"/>
</g>
</a>
<g transform="translate(34.6174, 96.0994)">
<rect x="-0.0650" y="-0.9139" width="0.1300" height="3.6879" ry="0.0400" fill="currentColor"/>
</g>
<a style="color:inherit;" xlink:href="textedit:///Users/marc.mouries/projects/Sheet-Music/Gypsy-Jazz/Swing_Movie/Swing_Movie_.ly:43:18:19">
<g transform="translate(38.7324, 96.0994)">
<path transform="scale(0.0040, -0.0040)" d="M218 136c66 0 108 -36 108 -89c0 -89 -113 -183 -218 -183c-66 0 -108 36 -108 89c0 89 113 183 218 183z" fill="currentColor"/>
</g>
</a>
<g transform="translate(38.7974, 96.0994)">
<rect x="-0.0650" y="0.1861" width="0.1300" height="3.1218" ry="0.0400" fill="currentColor"/>
</g>
<a style="color:inherit;" xlink:href="textedit:///Users/marc.mouries/projects/Sheet-Music/Gypsy-Jazz/Swing_Movie/Swing_Movie_.ly:44:2:3">
<g transform="translate(42.9124, 97.1994)">
<path transform="scale(0.0040, -0.0040)" d="M218 136c66 0 108 -36 108 -89c0 -89 -113 -183 -218 -183c-66 0 -108 36 -108 89c0 89 113 183 218 183z" fill="currentColor"/>
</g>
</a>
<g transform="translate(42.9774, 96.0994)">
<rect x="-0.0650" y="1.2861" width="0.1300" height="2.5556" ry="0.0400" fill="currentColor"/>
</g>
<a style="color:inherit;" xlink:href="textedit:///Users/marc.mouries/projects/Sheet-Music/Gypsy-Jazz/Swing_Movie/Swing_Movie_.ly:46:3:4">
<g transform="translate(49.0953, 98.2994)">
<path transform="scale(0.0040, -0.0040)" d="M218 136c66 0 108 -36 108 -89c0 -89 -113 -183 -218 -183c-66 0 -108 36 -108 89c0 89 113 183 218 183z" fill="currentColor"/>
</g>
</a>
<g transform="translate(50.3345, 96.0994)">
<rect x="-0.0650" y="-0.8831" width="0.1300" height="2.8970" ry="0.0400" fill="currentColor"/>
</g>
<a style="color:inherit;" xlink:href="textedit:///Users/marc.mouries/projects/Sheet-Music/Gypsy-Jazz/Swing_Movie/Swing_Movie_.ly:46:6:7">
<g transform="translate(54.1953, 98.2994)">
<path transform="scale(0.0040, -0.0040)" d="M218 136c66 0 108 -36 108 -89c0 -89 -113 -183 -218 -183c-66 0 -108 36 -108 89c0 89 113 183 218 183z" fill="currentColor"/>
</g>
</a>
<g transform="translate(55.4345, 96.0994)">
<rect x="-0.0650" y="-0.6537" width="0.1300" height="2.6676" ry="0.0400" fill="currentColor"/>
</g>
<g transform="translate(53.0453, 98.2994)">
<path transform="scale(0.0040, -0.0040)" d="M27 41l-1 -66v-11c0 -22 1 -44 4 -66c45 38 93 80 93 139c0 33 -14 67 -43 67c-31 0 -52 -30 -53 -63zM-15 -138l-12 595c8 5 18 8 27 8s19 -3 27 -8l-7 -345c25 21 58 34 91 34c52 0 89 -48 89 -102c0 -80 -86 -117 -147 -169c-15 -13 -24 -38 -45 -38
c-13 0 -23 11 -23 25z" fill="currentColor"/>
</g>
<a style="color:inherit;" xlink:href="textedit:///Users/marc.mouries/projects/Sheet-Music/Gypsy-Jazz/Swing_Movie/Swing_Movie_.ly:46:9:10">
<g transform="translate(58.6253, 98.8494)">
<path transform="scale(0.0040, -0.0040)" d="M218 136c66 0 108 -36 108 -89c0 -89 -113 -183 -218 -183c-66 0 -108 36 -108 89c0 89 113 183 218 183z" fill="currentColor"/>
</g>
</a>
<g transform="translate(59.8645, 96.0994)">
<rect x="-0.0650" y="-0.4544" width="0.1300" height="3.0183" ry="0.0400" fill="currentColor"/>
</g>
<a style="color:inherit;" xlink:href="textedit:///Users/marc.mouries/projects/Sheet-Music/Gypsy-Jazz/Swing_Movie/Swing_Movie_.ly:46:12:13">
<g transform="translate(63.9053, 99.3994)">
<path transform="scale(0.0040, -0.0040)" d="M218 136c66 0 108 -36 108 -89c0 -89 -113 -183 -218 -183c-66 0 -108 36 -108 89c0 89 113 183 218 183z" fill="currentColor"/>
</g>
</a>
<g transform="translate(65.1446, 96.0994)">
<rect x="-0.0650" y="-0.2169" width="0.1300" height="3.3308" ry="0.0400" fill="currentColor"/>
</g>
<g transform="translate(62.4553, 99.3994)">
<path transform="scale(0.0040, -0.0040)" d="M0 119c0 8 5 15 13 18l46 17v158c0 10 8 19 18 19s19 -9 19 -19v-145l83 31v158c0 10 9 19 19 19s18 -9 18 -19v-145l32 12c2 1 5 1 7 1c11 0 20 -9 20 -20v-60c0 -8 -5 -16 -13 -19l-46 -16v-160l32 11c2 1 5 1 7 1c11 0 20 -9 20 -20v-60c0 -8 -5 -15 -13 -18l-46 -17
v-158c0 -10 -8 -19 -18 -19s-19 9 -19 19v145l-83 -31v-158c0 -10 -9 -19 -19 -19s-18 9 -18 19v145l-32 -12c-2 -1 -5 -1 -7 -1c-11 0 -20 9 -20 20v60c0 8 5 16 13 19l46 16v160l-32 -11c-2 -1 -5 -1 -7 -1c-11 0 -20 9 -20 20v60zM179 95l-83 -30v-160l83 30v160z" fill="currentColor"/>
</g>
<a style="color:inherit;" xlink:href="textedit:///Users/marc.mouries/projects/Sheet-Music/Gypsy-Jazz/Swing_Movie/Swing_Movie_.ly:46:17:18">
<g transform="translate(68.7814, 96.0994)">
<path transform="scale(0.0040, -0.0040)" d="M218 136c66 0 108 -36 108 -89c0 -89 -113 -183 -218 -183c-66 0 -108 36 -108 89c0 89 113 183 218 183z" fill="currentColor"/>
</g>
</a>
<g transform="translate(68.8464, 96.0994)">
<rect x="-0.0650" y="0.1861" width="0.1300" height="3.4806" ry="0.0400" fill="currentColor"/>
</g>
<g transform="translate(67.7354, 96.0994)">
<path transform="scale(0.0040, -0.0040)" d="M-7 375c8 4 17 7 25 7s16 -3 24 -7l-2 -183l106 20h3c10 0 18 -7 18 -17l7 -570c-8 -4 -17 -7 -25 -7s-16 3 -24 7l2 183l-106 -20h-3c-10 0 -18 7 -18 17zM131 112l-92 -17l-3 -207l92 17z" fill="currentColor"/>
</g>
<a style="color:inherit;" xlink:href="textedit:///Users/marc.mouries/projects/Sheet-Music/Gypsy-Jazz/Swing_Movie/Swing_Movie_.ly:46:22:23">
<g transform="translate(76.1712, 97.7494)">
<path transform="scale(0.0040, -0.0040)" d="M218 136c66 0 108 -36 108 -89c0 -89 -113 -183 -218 -183c-66 0 -108 36 -108 89c0 89 113 183 218 183z" fill="currentColor"/>
</g>
</a>
<g transform="translate(77.4104, 96.0994)">
<rect x="-0.0650" y="-1.9891" width="0.1300" height="3.4529" ry="0.0400" fill="currentColor"/>
</g>
<g transform="translate(74.7212, 97.7494)">
<path transform="scale(0.0040, -0.0040)" d="M0 119c0 8 5 15 13 18l46 17v158c0 10 8 19 18 19s19 -9 19 -19v-145l83 31v158c0 10 9 19 19 19s18 -9 18 -19v-145l32 12c2 1 5 1 7 1c11 0 20 -9 20 -20v-60c0 -8 -5 -16 -13 -19l-46 -16v-160l32 11c2 1 5 1 7 1c11 0 20 -9 20 -20v-60c0 -8 -5 -15 -13 -18l-46 -17
v-158c0 -10 -8 -19 -18 -19s-19 9 -19 19v145l-83 -31v-158c0 -10 -9 -19 -19 -19s-18 9 -18 19v145l-32 -12c-2 -1 -5 -1 -7 -1c-11 0 -20 9 -20 20v60c0 8 5 16 13 19l46 16v160l-32 -11c-2 -1 -5 -1 -7 -1c-11 0 -20 9 -20 20v60zM179 95l-83 -30v-160l83 30v160z" fill="currentColor"/>
</g>
<a style="color:inherit;" xlink:href="textedit:///Users/marc.mouries/projects/Sheet-Music/Gypsy-Jazz/Swing_Movie/Swing_Movie_.ly:46:26:27">
<g transform="translate(80.6012, 97.1994)">
<path transform="scale(0.0040, -0.0040)" d="M218 136c66 0 108 -36 108 -89c0 -89 -113 -183 -218 -183c-66 0 -108 36 -108 89c0 89 113 183 218 183z" fill="currentColor"/>
</g>
</a>
<g transform="translate(81.8405, 96.0994)">
<rect x="-0.0650" y="-2.1969" width="0.1300" height="3.1108" ry="0.0400" fill="currentColor"/>
</g>
<a style="color:inherit;" xlink:href="textedit:///Users/marc.mouries/projects/Sheet-Music/Gypsy-Jazz/Swing_Movie/Swing_Movie_.ly:47:2:3">
<g transform="translate(87.0456, 97.1994)">
<path transform="scale(0.0040, -0.0040)" d="M314 65c0 23 -19 41 -42 41c-39 0 -204 -110 -231 -143c-7 -8 -10 -18 -10 -28c0 -23 19 -41 42 -41c39 0 203 110 230 143c7 8 11 18 11 28zM262 136c41 0 82 -14 82 -71c0 -26 -16 -112 -74 -151c-25 -17 -87 -50 -187 -50c-41 0 -83 14 -83 71c0 26 16 112 74 151
c25 17 88 50 188 50z" fill="currentColor"/>
</g>
</a>
<g transform="translate(88.3580, 96.0994)">
<rect x="-0.0650" y="-2.7500" width="0.1300" height="3.5910" ry="0.0400" fill="currentColor"/>
</g>
<a style="color:inherit;" xlink:href="textedit:///Users/marc.mouries/projects/Sheet-Music/Gypsy-Jazz/Swing_Movie/Swing_Movie_.ly:47:5:6">
<g transform="translate(97.8004, 97.7494)">
<path transform="scale(0.0040, -0.0040)" d="M218 136c66 0 108 -36 108 -89c0 -89 -113 -183 -218 -183c-66 0 -108 36 -108 89c0 89 113 183 218 183z" fill="currentColor"/>
</g>
</a>
<g transform="translate(99.0396, 96.0994)">
<rect x="-0.0650" y="-2.2000" width="0.1300" height="3.6639" ry="0.0400" fill="currentColor"/>
</g>
<g transform="translate(99.1046, 93.9394)">
<path transform="scale(0.0040, -0.0040)" d="M0 0v-250h-16v250h16zM0 0c0 -197 207 -336 207 -533c0 -71 -15 -141 -41 -207c-5 -8 -13 -12 -20 -12c-13 0 -26 11 -23 27c26 61 42 126 42 192c0 103 -94 208 -165 283v250z" fill="currentColor"/>
</g>
<g transform="translate(96.3504, 97.7494)">
<path transform="scale(0.0040, -0.0040)" d="M0 119c0 8 5 15 13 18l46 17v158c0 10 8 19 18 19s19 -9 19 -19v-145l83 31v158c0 10 9 19 19 19s18 -9 18 -19v-145l32 12c2 1 5 1 7 1c11 0 20 -9 20 -20v-60c0 -8 -5 -16 -13 -19l-46 -16v-160l32 11c2 1 5 1 7 1c11 0 20 -9 20 -20v-60c0 -8 -5 -15 -13 -18l-46 -17
v-158c0 -10 -8 -19 -18 -19s-19 9 -19 19v145l-83 -31v-158c0 -10 -9 -19 -19 -19s-18 9 -18 19v145l-32 -12c-2 -1 -5 -1 -7 -1c-11 0 -20 9 -20 20v60c0 8 5 16 13 19l46 16v160l-32 -11c-2 -1 -5 -1 -7 -1c-11 0 -20 9 -20 20v60zM179 95l-83 -30v-160l83 30v160z" fill="currentColor"/>
</g>
<a style="color:inherit;" xlink:href="textedit:///Users/marc.mouries/projects/Sheet-Music/Gypsy-Jazz/Swing_Movie/Swing_Movie_.ly:47:9:10">
<g transform="translate(102.2936, 96.0994)">
<path transform="scale(0.0040, -0.0040)" d="M70 205c79 0 46 -98 91 -98c16 0 54 48 61 63c6 12 23 12 28 0l-123 -420c-8 -7 -17 -10 -27 -10s-20 3 -28 10l117 326c-34 -12 -69 -22 -105 -22c-47 0 -87 34 -87 79c0 40 33 72 73 72z" fill="currentColor"/>
</g>
</a>
<a style="color:inherit;" xlink:href="textedit:///Users/marc.mouries/projects/Sheet-Music/Gypsy-Jazz/Swing_Movie/Swing_Movie_.ly:47:12:13">
<g transform="translate(106.4194, 96.0994)">
<path transform="scale(0.0040, -0.0040)" d="M-6 78c0 59 124 83 124 182c0 24 -8 49 -25 69l-35 42c-3 3 -4 7 -4 10c0 9 9 15 17 15c4 0 8 -1 11 -5l151 -180c7 -9 10 -17 10 -25c0 -59 -124 -83 -124 -182c0 -24 7 -49 24 -69l84 -99c3 -3 4 -7 4 -10c0 -9 -8 -16 -16 -16s-45 44 -109 44c-16 0 -53 0 -53 -67
c0 -35 11 -74 28 -94c7 -8 -5 -19 -12 -11c-45 54 -92 148 -92 202c0 41 27 42 40 42c33 0 78 -13 119 -31l-132 158c-7 9 -10 17 -10 25z" fill="currentColor"/>
</g>
</a>
</svg>
