<svg xmlns="http://www.w3.org/2000/svg" xmlns:xlink="http://www.w3.org/1999/xlink" version="1.2" width="210.00mm" height="297.00mm" viewBox="0.0000 -0.0000 119.5016 169.0094">
<style type="text/css">
<![CDATA[
tspan { white-space: pre; }
]]>
</style>
<g transform="translate(5.6906, 4.3320)">
<text font-family="serif" font-size="2.2001" text-anchor="start" fill="currentColor">
<tspan>4</tspan>
</text>
</g>
<g transform="translate(5.6906, 7.7000)">
<rect x="56.0184" y="-0.0937" width="1.5487" height="0.1873" ry="0.0937" fill="currentColor"/>
</g>
<g transform="translate(5.6906, 7.7000)">
<rect x="10.9227" y="-0.0937" width="1.5487" height="0.1873" ry="0.0937" fill="currentColor"/>
</g>
<g transform="translate(5.6906, 12.0653)">
<line stroke-linejoin="round" stroke-linecap="round" stroke-width="0.1000" stroke="currentColor" x1="0.0500" y1="0" x2="108.0705" y2="0"/>
</g>
<g transform="translate(5.6906, 11.1923)">
<line stroke-linejoin="round" stroke-linecap="round" stroke-width="0.1000" stroke="currentColor" x1="0.0500" y1="0" x2="108.0705" y2="0"/>
</g>
<g transform="translate(5.6906, 10.3192)">
<line stroke-linejoin="round" stroke-linecap="round" stroke-width="0.1000" stroke="currentColor" x1="0.0500" y1="0" x2="108.0705" y2="0"/>
</g>
<g transform="translate(5.6906, 9.4461)">
<line stroke-linejoin="round" stroke-linecap="round" stroke-width="0.1000" stroke="currentColor" x1="0.0500" y1="0" x2="108.0705" y2="0"/>
</g>
<g transform="translate(5.6906, 8.5730)">
<line stroke-linejoin="round" stroke-linecap="round" stroke-width="0.1000" stroke="currentColor" x1="0.0500" y1="0" x2="108.0705" y2="0"/>
</g>
<g transform="translate(113.6602, 10.3192)">
<rect x="0.0000" y="-1.7461" width="0.1508" height="3.4923" ry="0.0000" fill="currentColor"/>
</g>
<g transform="translate(106.5900, 10.3192)">
<rect x="0.0000" y="-1.7461" width="0.1508" height="3.4923" ry="0.0000" fill="currentColor"/>
</g>
<g transform="translate(101.5841, 10.3192)">
<rect x="0.0000" y="-1.7461" width="0.1508" height="3.4923" ry="0.0000" fill="currentColor"/>
</g>
<g transform="translate(96.5782, 10.3192)">
<rect x="0.0000" y="-1.7461" width="0.1508" height="3.4923" ry="0.0000" fill="currentColor"/>
</g>
<g transform="translate(91.5605, 10.3192)">
<rect x="0.0000" y="-1.7461" width="0.1508" height="3.4923" ry="0.0000" fill="currentColor"/>
</g>
<g transform="translate(86.8960, 10.3192)">
<rect x="0.0000" y="-1.7461" width="0.1508" height="3.4923" ry="0.0000" fill="currentColor"/>
</g>
<g transform="translate(82.1798, 10.3192)">
<rect x="0.0000" y="-1.7461" width="0.1508" height="3.4923" ry="0.0000" fill="currentColor"/>
</g>
<g transform="translate(77.2454, 10.3192)">
<rect x="0.0000" y="-1.7461" width="0.1508" height="3.4923" ry="0.0000" fill="currentColor"/>
</g>
<g transform="translate(70.4402, 10.3192)">
<rect x="0.0000" y="-1.7461" width="0.1508" height="3.4923" ry="0.0000" fill="currentColor"/>
</g>
<g transform="translate(63.8214, 10.3192)">
<rect x="0.0000" y="-1.7461" width="0.1508" height="3.4923" ry="0.0000" fill="currentColor"/>
</g>
<g transform="translate(57.1196, 10.3192)">
<rect x="0.0000" y="-1.7461" width="0.1508" height="3.4923" ry="0.0000" fill="currentColor"/>
</g>
<g transform="translate(52.1137, 10.3192)">
<rect x="0.0000" y="-1.7461" width="0.1508" height="3.4923" ry="0.0000" fill="currentColor"/>
</g>
<g transform="translate(47.1078, 10.3192)">
<rect x="0.0000" y="-1.7461" width="0.1508" height="3.4923" ry="0.0000" fill="currentColor"/>
</g>
<g transform="translate(42.1020, 10.3192)">
<rect x="0.0000" y="-1.7461" width="0.1508" height="3.4923" ry="0.0000" fill="currentColor"/>
</g>
<g transform="translate(37.0842, 10.3192)">
<rect x="0.0000" y="-1.7461" width="0.1508" height="3.4923" ry="0.0000" fill="currentColor"/>
</g>
<g transform="translate(32.1498, 10.3192)">
<rect x="0.0000" y="-1.7461" width="0.1508" height="3.4923" ry="0.0000" fill="currentColor"/>
</g>
<g transform="translate(25.3446, 10.3192)">
<rect x="0.0000" y="-1.7461" width="0.1508" height="3.4923" ry="0.0000" fill="currentColor"/>
</g>
<g transform="translate(18.7258, 10.3192)">
<rect x="0.0000" y="-1.7461" width="0.1508" height="3.4923" ry="0.0000" fill="currentColor"/>
</g>
<g transform="translate(12.8339, 10.3192)">
<path transform="scale(0.0032, -0.0032)" d="M-9 78c0 59 124 84 124 182c0 25 -9 50 -26 70l-31 37c-3 4 -4 8 -4 12c0 10 9 18 19 18c5 0 9 -1 13 -6l149 -178c7 -9 11 -17 11 -26c0 -59 -124 -84 -124 -182c0 -25 9 -51 26 -71l79 -94c3 -4 4 -8 4 -12c0 -10 -9 -18 -19 -18c-11 0 -38 40 -102 40
c-23 0 -55 -4 -55 -65c0 -33 11 -73 27 -92c8 -9 -6 -20 -14 -11c-44 53 -92 145 -92 199c0 41 26 43 46 43c30 0 69 -9 106 -23l-126 151c-7 9 -11 17 -11 26z" fill="currentColor"/>
</g>
<g transform="translate(14.5884, 8.5730)">
<path transform="scale(0.0032, -0.0032)" d="M212 138c68 0 113 -38 113 -95c0 -90 -109 -181 -212 -181c-68 0 -113 38 -113 95c0 90 109 181 212 181z" fill="currentColor"/>
</g>
<g transform="translate(14.5242, 14.6637)">
<path transform="scale(0.0032, -0.0032)" d="M161 30c77 0 97 178 97 180c0 18 -7 33 -25 33c-61 0 -103 -126 -103 -175c0 -22 9 -38 31 -38zM-53 140c0 4 53 152 136 152c35 0 57 -22 64 -52c29 31 67 52 103 52c69 0 107 -49 107 -114c0 -118 -104 -188 -159 -188c-67 0 -91 38 -100 12l-25 -74
c-1 -3 -2 -7 -2 -10c0 -43 55 -20 55 -48c0 -8 -6 -16 -16 -16c-4 0 -48 5 -113 5c-62 0 -112 -5 -113 -5c-10 0 -16 8 -16 16c0 35 87 0 104 49l99 290c3 8 5 16 5 22c0 7 -2 12 -10 12c-33 0 -58 -61 -74 -97c-6 -14 -19 -20 -29 -20c-9 0 -16 5 -16 14z" fill="currentColor"/>
</g>
<g transform="translate(15.1046, 6.7970)">
<path transform="scale(0.0032, -0.0032)" d="M-175 333h350c7 0 12 -5 12 -12v-303c0 -10 -7 -18 -17 -18s-18 8 -18 18v182h-304v-182c0 -10 -8 -18 -18 -18s-17 8 -17 18v303c0 7 5 12 12 12z" fill="currentColor"/>
</g>
<g transform="translate(14.6534, 10.3192)">
<rect x="-0.0650" y="-1.6102" width="0.1300" height="2.9198" ry="0.0400" fill="currentColor"/>
</g>
<g transform="translate(107.3999, 10.3192)">
<path stroke-width="0.0800" stroke-linejoin="round" stroke-linecap="round" stroke="currentColor" fill="currentColor" d="M1.3325 -1.3654C2.2001 -2.3931 4.0434 -2.3931 4.9110 -1.3654L4.9110 -1.3654C4.0434 -2.2731 2.2001 -2.2731 1.3325 -1.3654z"/>
</g>
<g transform="translate(16.8714, 7.7000)">
<path transform="scale(0.0032, -0.0032)" d="M212 138c68 0 113 -38 113 -95c0 -90 -109 -181 -212 -181c-68 0 -113 38 -113 95c0 90 109 181 212 181z" fill="currentColor"/>
</g>
<g transform="translate(16.9364, 10.3192)">
<rect x="-0.0650" y="-2.4832" width="0.1300" height="2.9198" ry="0.0400" fill="currentColor"/>
</g>
<g transform="translate(98.1305, 10.3192)">
<path stroke-width="0.0800" stroke-linejoin="round" stroke-linecap="round" stroke="currentColor" fill="currentColor" d="M0.7492 2.4327C1.6017 3.2422 4.5026 3.2422 5.3551 2.4327L5.3551 2.4327C4.5026 3.1222 1.6017 3.1222 0.7492 2.4327z"/>
</g>
<g transform="translate(19.6631, 8.1365)">
<path transform="scale(0.0032, -0.0032)" d="M212 138c68 0 113 -38 113 -95c0 -90 -109 -181 -212 -181c-68 0 -113 38 -113 95c0 90 109 181 212 181z" fill="currentColor"/>
</g>
<g transform="translate(20.1793, 6.9931)">
<path transform="scale(0.0032, -0.0032)" d="M122 505c3 9 11 15 20 15c11 0 20 -9 20 -20c0 -2 1 -4 0 -6l-142 -479c-3 -9 -11 -15 -20 -15s-17 6 -20 15l-142 479c-1 2 0 4 0 6c0 11 9 20 20 20c9 0 17 -6 20 -15l85 -287l37 -161l37 161z" fill="currentColor"/>
</g>
<g transform="translate(19.7281, 10.3192)">
<rect x="-0.0650" y="-2.0467" width="0.1300" height="2.9198" ry="0.0400" fill="currentColor"/>
</g>
<g transform="translate(93.1246, 10.3192)">
<path stroke-width="0.0800" stroke-linejoin="round" stroke-linecap="round" stroke="currentColor" fill="currentColor" d="M0.7492 2.4327C1.6017 3.2422 4.5026 3.2422 5.3551 2.4327L5.3551 2.4327C4.5026 3.1222 1.6017 3.1222 0.7492 2.4327z"/>
</g>
<g transform="translate(21.6961, 8.5730)">
<path transform="scale(0.0032, -0.0032)" d="M212 138c68 0 113 -38 113 -95c0 -90 -109 -181 -212 -181c-68 0 -113 38 -113 95c0 90 109 181 212 181z" fill="currentColor"/>
</g>
<g transform="translate(21.7611, 10.3192)">
<rect x="-0.0650" y="-1.6102" width="0.1300" height="2.9198" ry="0.0400" fill="currentColor"/>
</g>
<g transform="translate(23.4791, 9.8827)">
<path transform="scale(0.0032, -0.0032)" d="M212 138c68 0 113 -38 113 -95c0 -90 -109 -181 -212 -181c-68 0 -113 38 -113 95c0 90 109 181 212 181z" fill="currentColor"/>
</g>
<g transform="translate(23.5441, 10.3192)">
<rect x="-0.0650" y="-0.3005" width="0.1300" height="2.9198" ry="0.0400" fill="currentColor"/>
</g>
<g transform="translate(88.5750, 14.1363)">
<line stroke-linejoin="round" stroke-linecap="round" stroke-width="0.1000" stroke="currentColor" x1="0.0000" y1="0.5820" x2="12.1599" y2="0.0000"/>
</g>
<g transform="translate(88.5750, 14.1363)">
<line stroke-linejoin="round" stroke-linecap="round" stroke-width="0.1000" stroke="currentColor" x1="0.0000" y1="-0.5820" x2="12.1599" y2="-0.0000"/>
</g>
<g transform="translate(71.3496, 10.3192)">
<path stroke-width="0.0800" stroke-linejoin="round" stroke-linecap="round" stroke="currentColor" fill="currentColor" d="M0.4440 -1.0062C1.2035 -2.0856 3.3743 -2.5517 4.5100 -1.8792L4.5100 -1.8792C3.3995 -2.4344 1.2287 -1.9683 0.4440 -1.0062z"/>
</g>
<g transform="translate(26.2540, 10.3192)">
<path transform="scale(0.0032, -0.0032)" d="M212 138c68 0 113 -38 113 -95c0 -90 -109 -181 -212 -181c-68 0 -113 38 -113 95c0 90 109 181 212 181z" fill="currentColor"/>
</g>
<g transform="translate(26.7702, 8.3048)">
<path transform="scale(0.0032, -0.0032)" d="M-175 333h350c7 0 12 -5 12 -12v-303c0 -10 -7 -18 -17 -18s-18 8 -18 18v182h-304v-182c0 -10 -8 -18 -18 -18s-17 8 -17 18v303c0 7 5 12 12 12z" fill="currentColor"/>
</g>
<g transform="translate(26.3190, 10.3192)">
<rect x="-0.0650" y="0.1360" width="0.1300" height="2.7742" ry="0.0400" fill="currentColor"/>
</g>
<g transform="translate(64.7587, 10.3192)">
<path stroke-width="0.0800" stroke-linejoin="round" stroke-linecap="round" stroke="currentColor" fill="currentColor" d="M0.6594 -3.0579C1.9214 -3.4712 3.9632 -2.5369 4.4754 -1.3117L4.4754 -1.3117C3.9133 -2.4278 1.8715 -3.3621 0.6594 -3.0579z"/>
</g>
<g transform="translate(28.2869, 9.8827)">
<path transform="scale(0.0032, -0.0032)" d="M212 138c68 0 113 -38 113 -95c0 -90 -109 -181 -212 -181c-68 0 -113 38 -113 95c0 90 109 181 212 181z" fill="currentColor"/>
</g>
<g transform="translate(28.3519, 10.3192)">
<rect x="-0.0650" y="-0.3005" width="0.1300" height="2.9198" ry="0.0400" fill="currentColor"/>
</g>
<g transform="translate(30.3199, 9.4461)">
<path transform="scale(0.0032, -0.0032)" d="M212 138c68 0 113 -38 113 -95c0 -90 -109 -181 -212 -181c-68 0 -113 38 -113 95c0 90 109 181 212 181z" fill="currentColor"/>
</g>
<g transform="translate(30.3849, 10.3192)">
<rect x="-0.0650" y="-0.7371" width="0.1300" height="2.9198" ry="0.0400" fill="currentColor"/>
</g>
<g transform="translate(59.6840, 10.3192)">
<path stroke-width="0.0800" stroke-linejoin="round" stroke-linecap="round" stroke="currentColor" fill="currentColor" d="M0.3933 -2.6214C0.7731 -3.4290 1.8545 -3.8426 2.6763 -3.4944L2.6763 -3.4944C1.8974 -3.7305 0.8160 -3.3169 0.3933 -2.6214z"/>
</g>
<g transform="translate(61.7807, 14.1875)">
<line stroke-linejoin="round" stroke-linecap="round" stroke-width="0.1000" stroke="currentColor" x1="0.0000" y1="0.0000" x2="14.6673" y2="0.5820"/>
</g>
<g transform="translate(61.7807, 14.1875)">
<line stroke-linejoin="round" stroke-linecap="round" stroke-width="0.1000" stroke="currentColor" x1="0.0000" y1="-0.0000" x2="14.6673" y2="-0.5820"/>
</g>
<g transform="translate(33.7020, 10.7557)">
<path transform="scale(0.0032, -0.0032)" d="M310 63c0 22 -17 40 -40 40c-38 0 -197 -107 -224 -139c-7 -8 -10 -17 -10 -27c0 -22 17 -40 40 -40c38 0 197 107 224 139c7 8 10 17 10 27zM256 138c55 0 90 -22 90 -77c0 -25 -15 -112 -73 -151c-34 -23 -92 -48 -183 -48c-55 0 -90 22 -90 77c0 25 15 112 73 151
c34 23 92 48 183 48z" fill="currentColor"/>
</g>
<g transform="translate(34.2512, 7.5254)">
<path transform="scale(0.0032, -0.0032)" d="M122 505c3 9 11 15 20 15c11 0 20 -9 20 -20c0 -2 1 -4 0 -6l-142 -479c-3 -9 -11 -15 -20 -15s-17 6 -20 15l-142 479c-1 2 0 4 0 6c0 11 9 20 20 20c9 0 17 -6 20 -15l85 -287l37 -161l37 161z" fill="currentColor"/>
</g>
<g transform="translate(35.1508, 10.7557)">
<path transform="scale(0.0032, -0.0032)" d="M0 0c0 30 25 55 55 55s55 -25 55 -55s-25 -55 -55 -55s-55 25 -55 55z" fill="currentColor"/>
</g>
<g transform="translate(34.7354, 10.3192)">
<rect x="-0.0650" y="-2.6192" width="0.1300" height="2.8608" ry="0.0400" fill="currentColor"/>
</g>
<g transform="translate(48.6601, 10.3192)">
<path stroke-width="0.0800" stroke-linejoin="round" stroke-linecap="round" stroke="currentColor" fill="currentColor" d="M1.2984 1.7461C2.0210 2.4884 4.0832 2.4884 4.8059 1.7461L4.8059 1.7461C4.0832 2.3684 2.0210 2.3684 1.2984 1.7461z"/>
</g>
<g transform="translate(38.6484, 11.6288)">
<path transform="scale(0.0032, -0.0032)" d="M310 63c0 22 -17 40 -40 40c-38 0 -197 -107 -224 -139c-7 -8 -10 -17 -10 -27c0 -22 17 -40 40 -40c38 0 197 107 224 139c7 8 10 17 10 27zM256 138c55 0 90 -22 90 -77c0 -25 -15 -112 -73 -151c-34 -23 -92 -48 -183 -48c-55 0 -90 22 -90 77c0 25 15 112 73 151
c34 23 92 48 183 48z" fill="currentColor"/>
</g>
<g transform="translate(38.6854, 14.4784)">
<path transform="scale(0.0032, -0.0032)" d="M252 237l-49 -160c-30 -99 -121 -255 -218 -255c-46 0 -87 32 -87 76c0 39 17 77 52 77c24 0 44 -20 44 -44c0 -30 -38 -25 -38 -55c0 -10 11 -10 23 -10h6c46 0 61 54 73 102l67 269h-45c-12 0 -22 10 -22 22s10 23 22 23h58c32 95 118 187 212 187c46 0 87 -31 87 -75
c0 -39 -17 -78 -52 -78c-24 0 -44 20 -44 44c0 30 38 25 38 55c0 10 -10 11 -22 11h-7c-58 0 -69 -81 -85 -144h50c12 0 23 -11 23 -23s-11 -22 -23 -22h-63z" fill="currentColor"/>
</g>
<g transform="translate(39.1975, 12.5019)">
<path transform="scale(0.0032, -0.0032)" d="M127 -23h-254c-13 0 -23 10 -23 23s10 23 23 23h254c13 0 23 -10 23 -23s-10 -23 -23 -23z" fill="currentColor"/>
</g>
<g transform="translate(39.1975, 8.3048)">
<path transform="scale(0.0032, -0.0032)" d="M-175 333h350c7 0 12 -5 12 -12v-303c0 -10 -7 -18 -17 -18s-18 8 -18 18v182h-304v-182c0 -10 -8 -18 -18 -18s-17 8 -17 18v303c0 7 5 12 12 12z" fill="currentColor"/>
</g>
<g transform="translate(40.0971, 11.6288)">
<path transform="scale(0.0032, -0.0032)" d="M0 0c0 30 25 55 55 55s55 -25 55 -55s-25 -55 -55 -55s-55 25 -55 55z" fill="currentColor"/>
</g>
<g transform="translate(39.6817, 10.3192)">
<rect x="-0.0650" y="-1.7461" width="0.1300" height="2.8608" ry="0.0400" fill="currentColor"/>
</g>
<g transform="translate(43.6542, 10.3192)">
<path stroke-width="0.0800" stroke-linejoin="round" stroke-linecap="round" stroke="currentColor" fill="currentColor" d="M1.2984 1.7461C2.0210 2.4884 4.0832 2.4884 4.8059 1.7461L4.8059 1.7461C4.0832 2.3684 2.0210 2.3684 1.2984 1.7461z"/>
</g>
<g transform="translate(43.6542, 11.6288)">
<path transform="scale(0.0032, -0.0032)" d="M310 63c0 22 -17 40 -40 40c-38 0 -197 -107 -224 -139c-7 -8 -10 -17 -10 -27c0 -22 17 -40 40 -40c38 0 197 107 224 139c7 8 10 17 10 27zM256 138c55 0 90 -22 90 -77c0 -25 -15 -112 -73 -151c-34 -23 -92 -48 -183 -48c-55 0 -90 22 -90 77c0 25 15 112 73 151
c34 23 92 48 183 48z" fill="currentColor"/>
</g>
<g transform="translate(44.2034, 12.5019)">
<path transform="scale(0.0032, -0.0032)" d="M127 -23h-254c-13 0 -23 10 -23 23s10 23 23 23h254c13 0 23 -10 23 -23s-10 -23 -23 -23z" fill="currentColor"/>
</g>
<g transform="translate(45.1030, 11.6288)">
<path transform="scale(0.0032, -0.0032)" d="M0 0c0 30 25 55 55 55s55 -25 55 -55s-25 -55 -55 -55s-55 25 -55 55z" fill="currentColor"/>
</g>
<g transform="translate(44.6876, 10.3192)">
<rect x="-0.0650" y="-1.7461" width="0.1300" height="2.8608" ry="0.0400" fill="currentColor"/>
</g>
<g transform="translate(38.6484, 10.3192)">
<path stroke-width="0.0800" stroke-linejoin="round" stroke-linecap="round" stroke="currentColor" fill="currentColor" d="M1.2984 1.7461C2.0210 2.4884 4.0832 2.4884 4.8059 1.7461L4.8059 1.7461C4.0832 2.3684 2.0210 2.3684 1.2984 1.7461z"/>
</g>
<g transform="translate(48.6601, 11.6288)">
<path transform="scale(0.0032, -0.0032)" d="M310 63c0 22 -17 40 -40 40c-38 0 -197 -107 -224 -139c-7 -8 -10 -17 -10 -27c0 -22 17 -40 40 -40c38 0 197 107 224 139c7 8 10 17 10 27zM256 138c55 0 90 -22 90 -77c0 -25 -15 -112 -73 -151c-34 -23 -92 -48 -183 -48c-55 0 -90 22 -90 77c0 25 15 112 73 151
c34 23 92 48 183 48z" fill="currentColor"/>
</g>
<g transform="translate(49.2093, 12.5019)">
<path transform="scale(0.0032, -0.0032)" d="M127 -23h-254c-13 0 -23 10 -23 23s10 23 23 23h254c13 0 23 -10 23 -23s-10 -23 -23 -23z" fill="currentColor"/>
</g>
<g transform="translate(50.1089, 11.6288)">
<path transform="scale(0.0032, -0.0032)" d="M0 0c0 30 25 55 55 55s55 -25 55 -55s-25 -55 -55 -55s-55 25 -55 55z" fill="currentColor"/>
</g>
<g transform="translate(49.6935, 10.3192)">
<rect x="-0.0650" y="-1.7461" width="0.1300" height="2.8608" ry="0.0400" fill="currentColor"/>
</g>
<g transform="translate(26.2540, 10.3192)">
<path stroke-width="0.0800" stroke-linejoin="round" stroke-linecap="round" stroke="currentColor" fill="currentColor" d="M0.4440 -1.0062C1.2035 -2.0856 3.3743 -2.5517 4.5100 -1.8792L4.5100 -1.8792C3.3995 -2.4344 1.2287 -1.9683 0.4440 -1.0062z"/>
</g>
<g transform="translate(53.6660, 11.6288)">
<path transform="scale(0.0032, -0.0032)" d="M310 63c0 22 -17 40 -40 40c-38 0 -197 -107 -224 -139c-7 -8 -10 -17 -10 -27c0 -22 17 -40 40 -40c38 0 197 107 224 139c7 8 10 17 10 27zM256 138c55 0 90 -22 90 -77c0 -25 -15 -112 -73 -151c-34 -23 -92 -48 -183 -48c-55 0 -90 22 -90 77c0 25 15 112 73 151
c34 23 92 48 183 48z" fill="currentColor"/>
</g>
<g transform="translate(54.2152, 12.5019)">
<path transform="scale(0.0032, -0.0032)" d="M127 -23h-254c-13 0 -23 10 -23 23s10 23 23 23h254c13 0 23 -10 23 -23s-10 -23 -23 -23z" fill="currentColor"/>
</g>
<g transform="translate(55.1147, 11.6288)">
<path transform="scale(0.0032, -0.0032)" d="M0 0c0 30 25 55 55 55s55 -25 55 -55s-25 -55 -55 -55s-55 25 -55 55z" fill="currentColor"/>
</g>
<g transform="translate(54.6994, 10.3192)">
<rect x="-0.0650" y="-1.7461" width="0.1300" height="2.8608" ry="0.0400" fill="currentColor"/>
</g>
<g transform="translate(19.6631, 10.3192)">
<path stroke-width="0.0800" stroke-linejoin="round" stroke-linecap="round" stroke="currentColor" fill="currentColor" d="M0.6594 -3.0579C1.9214 -3.4712 3.9632 -2.5369 4.4754 -1.3117L4.4754 -1.3117C3.9133 -2.4278 1.8715 -3.3621 0.6594 -3.0579z"/>
</g>
<g transform="translate(57.9295, 10.3192)">
<path transform="scale(0.0032, -0.0032)" d="M-9 78c0 59 124 84 124 182c0 25 -9 50 -26 70l-31 37c-3 4 -4 8 -4 12c0 10 9 18 19 18c5 0 9 -1 13 -6l149 -178c7 -9 11 -17 11 -26c0 -59 -124 -84 -124 -182c0 -25 9 -51 26 -71l79 -94c3 -4 4 -8 4 -12c0 -10 -9 -18 -19 -18c-11 0 -38 40 -102 40
c-23 0 -55 -4 -55 -65c0 -33 11 -73 27 -92c8 -9 -6 -20 -14 -11c-44 53 -92 145 -92 199c0 41 26 43 46 43c30 0 69 -9 106 -23l-126 151c-7 9 -11 17 -11 26z" fill="currentColor"/>
</g>
<g transform="translate(14.5884, 10.3192)">
<path stroke-width="0.0800" stroke-linejoin="round" stroke-linecap="round" stroke="currentColor" fill="currentColor" d="M0.3933 -2.6214C0.7731 -3.4290 1.8545 -3.8426 2.6763 -3.4944L2.6763 -3.4944C1.8974 -3.7305 0.8160 -3.3169 0.3933 -2.6214z"/>
</g>
<g transform="translate(59.6840, 8.5730)">
<path transform="scale(0.0032, -0.0032)" d="M212 138c68 0 113 -38 113 -95c0 -90 -109 -181 -212 -181c-68 0 -113 38 -113 95c0 90 109 181 212 181z" fill="currentColor"/>
</g>
<g transform="translate(59.6198, 14.6637)">
<path transform="scale(0.0032, -0.0032)" d="M161 30c77 0 97 178 97 180c0 18 -7 33 -25 33c-61 0 -103 -126 -103 -175c0 -22 9 -38 31 -38zM-53 140c0 4 53 152 136 152c35 0 57 -22 64 -52c29 31 67 52 103 52c69 0 107 -49 107 -114c0 -118 -104 -188 -159 -188c-67 0 -91 38 -100 12l-25 -74
c-1 -3 -2 -7 -2 -10c0 -43 55 -20 55 -48c0 -8 -6 -16 -16 -16c-4 0 -48 5 -113 5c-62 0 -112 -5 -113 -5c-10 0 -16 8 -16 16c0 35 87 0 104 49l99 290c3 8 5 16 5 22c0 7 -2 12 -10 12c-33 0 -58 -61 -74 -97c-6 -14 -19 -20 -29 -20c-9 0 -16 5 -16 14z" fill="currentColor"/>
</g>
<g transform="translate(60.2003, 6.7970)">
<path transform="scale(0.0032, -0.0032)" d="M-175 333h350c7 0 12 -5 12 -12v-303c0 -10 -7 -18 -17 -18s-18 8 -18 18v182h-304v-182c0 -10 -8 -18 -18 -18s-17 8 -17 18v303c0 7 5 12 12 12z" fill="currentColor"/>
</g>
<g transform="translate(59.7490, 10.3192)">
<rect x="-0.0650" y="-1.6102" width="0.1300" height="2.9198" ry="0.0400" fill="currentColor"/>
</g>
<g transform="translate(16.6851, 14.1875)">
<line stroke-linejoin="round" stroke-linecap="round" stroke-width="0.1000" stroke="currentColor" x1="0.0000" y1="0.0000" x2="14.6673" y2="0.5820"/>
</g>
<g transform="translate(16.6851, 14.1875)">
<line stroke-linejoin="round" stroke-linecap="round" stroke-width="0.1000" stroke="currentColor" x1="0.0000" y1="-0.0000" x2="14.6673" y2="-0.5820"/>
</g>
<g transform="translate(61.9670, 7.7000)">
<path transform="scale(0.0032, -0.0032)" d="M212 138c68 0 113 -38 113 -95c0 -90 -109 -181 -212 -181c-68 0 -113 38 -113 95c0 90 109 181 212 181z" fill="currentColor"/>
</g>
<g transform="translate(62.0320, 10.3192)">
<rect x="-0.0650" y="-2.4832" width="0.1300" height="2.9198" ry="0.0400" fill="currentColor"/>
</g>
<g transform="translate(64.7587, 8.1365)">
<path transform="scale(0.0032, -0.0032)" d="M212 138c68 0 113 -38 113 -95c0 -90 -109 -181 -212 -181c-68 0 -113 38 -113 95c0 90 109 181 212 181z" fill="currentColor"/>
</g>
<g transform="translate(65.2750, 6.9931)">
<path transform="scale(0.0032, -0.0032)" d="M122 505c3 9 11 15 20 15c11 0 20 -9 20 -20c0 -2 1 -4 0 -6l-142 -479c-3 -9 -11 -15 -20 -15s-17 6 -20 15l-142 479c-1 2 0 4 0 6c0 11 9 20 20 20c9 0 17 -6 20 -15l85 -287l37 -161l37 161z" fill="currentColor"/>
</g>
<g transform="translate(3.9151, 7.5230)">
<text font-family="serif" font-size="1.7461" text-anchor="start" fill="currentColor">
<tspan>44</tspan>
</text>
</g>
<g transform="translate(64.8237, 10.3192)">
<rect x="-0.0650" y="-2.0467" width="0.1300" height="2.9198" ry="0.0400" fill="currentColor"/>
</g>
<g transform="translate(66.7917, 8.5730)">
<path transform="scale(0.0032, -0.0032)" d="M212 138c68 0 113 -38 113 -95c0 -90 -109 -181 -212 -181c-68 0 -113 38 -113 95c0 90 109 181 212 181z" fill="currentColor"/>
</g>
<g transform="translate(66.8567, 10.3192)">
<rect x="-0.0650" y="-1.6102" width="0.1300" height="2.9198" ry="0.0400" fill="currentColor"/>
</g>
<g transform="translate(68.5747, 9.8827)">
<path transform="scale(0.0032, -0.0032)" d="M212 138c68 0 113 -38 113 -95c0 -90 -109 -181 -212 -181c-68 0 -113 38 -113 95c0 90 109 181 212 181z" fill="currentColor"/>
</g>
<g transform="translate(68.6397, 10.3192)">
<rect x="-0.0650" y="-0.3005" width="0.1300" height="2.9198" ry="0.0400" fill="currentColor"/>
</g>
<g transform="translate(71.3496, 10.3192)">
<path transform="scale(0.0032, -0.0032)" d="M212 138c68 0 113 -38 113 -95c0 -90 -109 -181 -212 -181c-68 0 -113 38 -113 95c0 90 109 181 212 181z" fill="currentColor"/>
</g>
<g transform="translate(71.8658, 8.3048)">
<path transform="scale(0.0032, -0.0032)" d="M-175 333h350c7 0 12 -5 12 -12v-303c0 -10 -7 -18 -17 -18s-18 8 -18 18v182h-304v-182c0 -10 -8 -18 -18 -18s-17 8 -17 18v303c0 7 5 12 12 12z" fill="currentColor"/>
</g>
<g transform="translate(9.1035, 8.5730)">
<path transform="scale(0.0032, -0.0032)" d="M0 116c0 10 6 19 16 23l40 15v154c0 12 9 21 21 21s21 -9 21 -21v-138l79 30v154c0 12 9 21 21 21s21 -9 21 -21v-138l22 8c3 1 6 2 9 2c13 0 25 -11 25 -25v-54c0 -10 -6 -20 -16 -24l-40 -15v-155l22 9c3 1 6 1 9 1c13 0 25 -11 25 -25v-54c0 -10 -6 -19 -16 -23
l-40 -15v-154c0 -12 -9 -21 -21 -21s-21 9 -21 21v138l-79 -30v-154c0 -12 -9 -21 -21 -21s-21 9 -21 21v138l-22 -8c-3 -1 -6 -2 -9 -2c-13 0 -25 11 -25 25v54c0 10 6 20 16 24l40 15v155l-22 -9c-3 -1 -6 -1 -9 -1c-13 0 -25 11 -25 25v54zM177 92l-79 -30v-154l79 30
v154z" fill="currentColor"/>
</g>
<g transform="translate(9.9765, 9.8827)">
<path transform="scale(0.0032, -0.0032)" d="M0 116c0 10 6 19 16 23l40 15v154c0 12 9 21 21 21s21 -9 21 -21v-138l79 30v154c0 12 9 21 21 21s21 -9 21 -21v-138l22 8c3 1 6 2 9 2c13 0 25 -11 25 -25v-54c0 -10 -6 -20 -16 -24l-40 -15v-155l22 9c3 1 6 1 9 1c13 0 25 -11 25 -25v-54c0 -10 -6 -19 -16 -23
l-40 -15v-154c0 -12 -9 -21 -21 -21s-21 9 -21 21v138l-79 -30v-154c0 -12 -9 -21 -21 -21s-21 9 -21 21v138l-22 -8c-3 -1 -6 -2 -9 -2c-13 0 -25 11 -25 25v54c0 10 6 20 16 24l40 15v155l-22 -9c-3 -1 -6 -1 -9 -1c-13 0 -25 11 -25 25v54zM177 92l-79 -30v-154l79 30
v154z" fill="currentColor"/>
</g>
<g transform="translate(71.4146, 10.3192)">
<rect x="-0.0650" y="0.1360" width="0.1300" height="2.7742" ry="0.0400" fill="currentColor"/>
</g>
<g transform="translate(73.3826, 9.8827)">
<path transform="scale(0.0032, -0.0032)" d="M212 138c68 0 113 -38 113 -95c0 -90 -109 -181 -212 -181c-68 0 -113 38 -113 95c0 90 109 181 212 181z" fill="currentColor"/>
</g>
<g transform="translate(73.4476, 10.3192)">
<rect x="-0.0650" y="-0.3005" width="0.1300" height="2.9198" ry="0.0400" fill="currentColor"/>
</g>
<g transform="translate(75.4156, 9.4461)">
<path transform="scale(0.0032, -0.0032)" d="M212 138c68 0 113 -38 113 -95c0 -90 -109 -181 -212 -181c-68 0 -113 38 -113 95c0 90 109 181 212 181z" fill="currentColor"/>
</g>
<g transform="translate(75.4806, 10.3192)">
<rect x="-0.0650" y="-0.7371" width="0.1300" height="2.9198" ry="0.0400" fill="currentColor"/>
</g>
<g transform="translate(78.7977, 10.7557)">
<path transform="scale(0.0032, -0.0032)" d="M310 63c0 22 -17 40 -40 40c-38 0 -197 -107 -224 -139c-7 -8 -10 -17 -10 -27c0 -22 17 -40 40 -40c38 0 197 107 224 139c7 8 10 17 10 27zM256 138c55 0 90 -22 90 -77c0 -25 -15 -112 -73 -151c-34 -23 -92 -48 -183 -48c-55 0 -90 22 -90 77c0 25 15 112 73 151
c34 23 92 48 183 48z" fill="currentColor"/>
</g>
<g transform="translate(79.3469, 7.5254)">
<path transform="scale(0.0032, -0.0032)" d="M122 505c3 9 11 15 20 15c11 0 20 -9 20 -20c0 -2 1 -4 0 -6l-142 -479c-3 -9 -11 -15 -20 -15s-17 6 -20 15l-142 479c-1 2 0 4 0 6c0 11 9 20 20 20c9 0 17 -6 20 -15l85 -287l37 -161l37 161z" fill="currentColor"/>
</g>
<g transform="translate(6.3255, 11.1923)">
<path transform="scale(0.0032, -0.0032)" d="M647 2c0 -114 -75 -214 -180 -248c3 -33 4 -66 4 -99c0 -21 0 -41 -1 -62c-7 -122 -92 -229 -211 -229c-108 0 -196 88 -196 197c0 58 54 103 113 103c54 0 95 -47 95 -103c0 -52 -43 -95 -95 -95c-9 0 -18 1 -27 4c25 -37 66 -61 113 -61c93 0 156 91 162 191
c1 19 2 38 2 57c0 29 -1 58 -3 87c-5 -1 -44 -8 -88 -8c-194 0 -333 181 -333 376c0 177 129 308 244 443c-34 103 -55 171 -55 347c0 114 54 221 147 288c8 6 18 5 25 -1c68 -79 135 -242 135 -356c0 -142 -84 -255 -176 -364c21 -68 40 -136 57 -205c1 0 5 1 10 1
c157 0 258 -129 258 -263zM463 -201c64 24 110 88 110 161c0 88 -64 175 -167 188c28 -133 49 -269 57 -349zM77 25c0 -144 141 -243 261 -243c1 0 46 -1 81 5c-7 66 -27 208 -60 362c-79 -8 -124 -60 -124 -118c0 -43 25 -88 80 -120c5 -5 7 -11 7 -17
c0 -12 -10 -23 -23 -23c-16 0 -128 62 -128 188c0 89 60 177 163 200c-14 57 -30 113 -47 169c-105 -122 -210 -243 -210 -403zM242 784c0 -39 10 -95 39 -188c78 97 142 199 142 324c0 33 0 60 -20 118c-99 -46 -161 -145 -161 -254z" fill="currentColor"/>
</g>
<g transform="translate(80.2464, 10.7557)">
<path transform="scale(0.0032, -0.0032)" d="M0 0c0 30 25 55 55 55s55 -25 55 -55s-25 -55 -55 -55s-55 25 -55 55z" fill="currentColor"/>
</g>
<g transform="translate(79.8310, 10.3192)">
<rect x="-0.0650" y="-2.6192" width="0.1300" height="2.8608" ry="0.0400" fill="currentColor"/>
</g>
<g transform="translate(83.8391, 9.8827)">
<path transform="scale(0.0032, -0.0032)" d="M310 63c0 22 -17 40 -40 40c-38 0 -197 -107 -224 -139c-7 -8 -10 -17 -10 -27c0 -22 17 -40 40 -40c38 0 197 107 224 139c7 8 10 17 10 27zM256 138c55 0 90 -22 90 -77c0 -25 -15 -112 -73 -151c-34 -23 -92 -48 -183 -48c-55 0 -90 22 -90 77c0 25 15 112 73 151
c34 23 92 48 183 48z" fill="currentColor"/>
</g>
<g transform="translate(84.3883, 8.3048)">
<path transform="scale(0.0032, -0.0032)" d="M-175 333h350c7 0 12 -5 12 -12v-303c0 -10 -7 -18 -17 -18s-18 8 -18 18v182h-304v-182c0 -10 -8 -18 -18 -18s-17 8 -17 18v303c0 7 5 12 12 12z" fill="currentColor"/>
</g>
<g transform="translate(85.2878, 9.8827)">
<path transform="scale(0.0032, -0.0032)" d="M0 0c0 30 25 55 55 55s55 -25 55 -55s-25 -55 -55 -55s-55 25 -55 55z" fill="currentColor"/>
</g>
<g transform="translate(83.9041, 10.3192)">
<rect x="-0.0650" y="-0.2416" width="0.1300" height="2.8608" ry="0.0400" fill="currentColor"/>
</g>
<g transform="translate(110.8923, 9.8827)">
<path transform="scale(0.0032, -0.0032)" d="M-7 375c8 5 17 7 26 7s17 -2 25 -7l-2 -192l102 23h4c10 0 19 -8 19 -18l7 -563c-8 -5 -17 -7 -26 -7s-18 2 -26 7l3 192l-102 -23h-4c-10 0 -19 8 -19 18zM129 110l-88 -19l-3 -201l88 19z" fill="currentColor"/>
</g>
<g transform="translate(88.5750, 8.5730)">
<path transform="scale(0.0032, -0.0032)" d="M310 63c0 22 -17 40 -40 40c-38 0 -197 -107 -224 -139c-7 -8 -10 -17 -10 -27c0 -22 17 -40 40 -40c38 0 197 107 224 139c7 8 10 17 10 27zM256 138c55 0 90 -22 90 -77c0 -25 -15 -112 -73 -151c-34 -23 -92 -48 -183 -48c-55 0 -90 22 -90 77c0 25 15 112 73 151
c34 23 92 48 183 48z" fill="currentColor"/>
</g>
<g transform="translate(89.1241, 7.9598)">
<path transform="scale(0.0032, -0.0032)" d="M122 505c3 9 11 15 20 15c11 0 20 -9 20 -20c0 -2 1 -4 0 -6l-142 -479c-3 -9 -11 -15 -20 -15s-17 6 -20 15l-142 479c-1 2 0 4 0 6c0 11 9 20 20 20c9 0 17 -6 20 -15l85 -287l37 -161l37 161z" fill="currentColor"/>
</g>
<g transform="translate(90.0237, 8.1365)">
<path transform="scale(0.0032, -0.0032)" d="M0 0c0 30 25 55 55 55s55 -25 55 -55s-25 -55 -55 -55s-55 25 -55 55z" fill="currentColor"/>
</g>
<g transform="translate(88.6400, 10.3192)">
<rect x="-0.0650" y="-1.5512" width="0.1300" height="2.8608" ry="0.0400" fill="currentColor"/>
</g>
<g transform="translate(111.8597, 10.3192)">
<rect x="-0.0650" y="-0.3005" width="0.1300" height="2.9198" ry="0.0400" fill="currentColor"/>
</g>
<g transform="translate(93.1246, 12.0653)">
<path transform="scale(0.0032, -0.0032)" d="M310 63c0 22 -17 40 -40 40c-38 0 -197 -107 -224 -139c-7 -8 -10 -17 -10 -27c0 -22 17 -40 40 -40c38 0 197 107 224 139c7 8 10 17 10 27zM256 138c55 0 90 -22 90 -77c0 -25 -15 -112 -73 -151c-34 -23 -92 -48 -183 -48c-55 0 -90 22 -90 77c0 25 15 112 73 151
c34 23 92 48 183 48z" fill="currentColor"/>
</g>
<g transform="translate(93.6738, 8.3048)">
<path transform="scale(0.0032, -0.0032)" d="M-175 333h350c7 0 12 -5 12 -12v-303c0 -10 -7 -18 -17 -18s-18 8 -18 18v182h-304v-182c0 -10 -8 -18 -18 -18s-17 8 -17 18v303c0 7 5 12 12 12z" fill="currentColor"/>
</g>
<g transform="translate(94.5734, 11.6288)">
<path transform="scale(0.0032, -0.0032)" d="M0 0c0 30 25 55 55 55s55 -25 55 -55s-25 -55 -55 -55s-55 25 -55 55z" fill="currentColor"/>
</g>
<g transform="translate(94.1580, 10.3192)">
<rect x="-0.0650" y="-1.3096" width="0.1300" height="2.8608" ry="0.0400" fill="currentColor"/>
</g>
<g transform="translate(111.7947, 9.8827)">
<path transform="scale(0.0032, -0.0032)" d="M212 138c68 0 113 -38 113 -95c0 -90 -109 -181 -212 -181c-68 0 -113 38 -113 95c0 90 109 181 212 181z" fill="currentColor"/>
</g>
<g transform="translate(98.1305, 12.0653)">
<path transform="scale(0.0032, -0.0032)" d="M310 63c0 22 -17 40 -40 40c-38 0 -197 -107 -224 -139c-7 -8 -10 -17 -10 -27c0 -22 17 -40 40 -40c38 0 197 107 224 139c7 8 10 17 10 27zM256 138c55 0 90 -22 90 -77c0 -25 -15 -112 -73 -151c-34 -23 -92 -48 -183 -48c-55 0 -90 22 -90 77c0 25 15 112 73 151
c34 23 92 48 183 48z" fill="currentColor"/>
</g>
<g transform="translate(99.5792, 11.6288)">
<path transform="scale(0.0032, -0.0032)" d="M0 0c0 30 25 55 55 55s55 -25 55 -55s-25 -55 -55 -55s-55 25 -55 55z" fill="currentColor"/>
</g>
<g transform="translate(99.1639, 10.3192)">
<rect x="-0.0650" y="-1.3096" width="0.1300" height="2.8608" ry="0.0400" fill="currentColor"/>
</g>
<g transform="translate(103.1364, 12.0653)">
<path transform="scale(0.0032, -0.0032)" d="M310 63c0 22 -17 40 -40 40c-38 0 -197 -107 -224 -139c-7 -8 -10 -17 -10 -27c0 -22 17 -40 40 -40c38 0 197 107 224 139c7 8 10 17 10 27zM256 138c55 0 90 -22 90 -77c0 -25 -15 -112 -73 -151c-34 -23 -92 -48 -183 -48c-55 0 -90 22 -90 77c0 25 15 112 73 151
c34 23 92 48 183 48z" fill="currentColor"/>
</g>
<g transform="translate(104.5851, 11.6288)">
<path transform="scale(0.0032, -0.0032)" d="M0 0c0 30 25 55 55 55s55 -25 55 -55s-25 -55 -55 -55s-55 25 -55 55z" fill="currentColor"/>
</g>
<g transform="translate(104.1697, 10.3192)">
<rect x="-0.0650" y="-1.3096" width="0.1300" height="2.8608" ry="0.0400" fill="currentColor"/>
</g>
<g transform="translate(109.5248, 10.3192)">
<rect x="-0.0650" y="0.1360" width="0.1300" height="2.7742" ry="0.0400" fill="currentColor"/>
</g>
<g transform="translate(109.4598, 10.3192)">
<path transform="scale(0.0032, -0.0032)" d="M212 138c68 0 113 -38 113 -95c0 -90 -109 -181 -212 -181c-68 0 -113 38 -113 95c0 90 109 181 212 181z" fill="currentColor"/>
</g>
<g transform="translate(107.3999, 10.7557)">
<path transform="scale(0.0032, -0.0032)" d="M212 138c68 0 113 -38 113 -95c0 -90 -109 -181 -212 -181c-68 0 -113 38 -113 95c0 90 109 181 212 181z" fill="currentColor"/>
</g>
<g transform="translate(107.3357, 13.5662)">
<path transform="scale(0.0032, -0.0032)" d="M161 30c77 0 97 178 97 180c0 18 -7 33 -25 33c-61 0 -103 -126 -103 -175c0 -22 9 -38 31 -38zM-53 140c0 4 53 152 136 152c35 0 57 -22 64 -52c29 31 67 52 103 52c69 0 107 -49 107 -114c0 -118 -104 -188 -159 -188c-67 0 -91 38 -100 12l-25 -74
c-1 -3 -2 -7 -2 -10c0 -43 55 -20 55 -48c0 -8 -6 -16 -16 -16c-4 0 -48 5 -113 5c-62 0 -112 -5 -113 -5c-10 0 -16 8 -16 16c0 35 87 0 104 49l99 290c3 8 5 16 5 22c0 7 -2 12 -10 12c-33 0 -58 -61 -74 -97c-6 -14 -19 -20 -29 -20c-9 0 -16 5 -16 14z" fill="currentColor"/>
</g>
<g transform="translate(107.9161, 7.5254)">
<path transform="scale(0.0032, -0.0032)" d="M122 505c3 9 11 15 20 15c11 0 20 -9 20 -20c0 -2 1 -4 0 -6l-142 -479c-3 -9 -11 -15 -20 -15s-17 6 -20 15l-142 479c-1 2 0 4 0 6c0 11 9 20 20 20c9 0 17 -6 20 -15l85 -287l37 -161l37 161z" fill="currentColor"/>
</g>
<g transform="translate(108.3674, 10.3192)">
<rect x="-0.0650" y="-2.6192" width="0.1300" height="2.9198" ry="0.0400" fill="currentColor"/>
</g>
<g transform="translate(5.6906, 30.6857)">
<rect x="37.6213" y="-0.0937" width="1.5487" height="0.1873" ry="0.0937" fill="currentColor"/>
</g>
<g transform="translate(5.6906, 35.0510)">
<line stroke-linejoin="round" stroke-linecap="round" stroke-width="0.1000" stroke="currentColor" x1="0.0500" y1="0" x2="108.0705" y2="0"/>
</g>
<g transform="translate(5.6906, 34.1780)">
<line stroke-linejoin="round" stroke-linecap="round" stroke-width="0.1000" stroke="currentColor" x1="0.0500" y1="0" x2="108.0705" y2="0"/>
</g>
<g transform="translate(5.6906, 33.3049)">
<line stroke-linejoin="round" stroke-linecap="round" stroke-width="0.1000" stroke="currentColor" x1="0.0500" y1="0" x2="108.0705" y2="0"/>
</g>
<g transform="translate(5.6906, 32.4318)">
<line stroke-linejoin="round" stroke-linecap="round" stroke-width="0.1000" stroke="currentColor" x1="0.0500" y1="0" x2="108.0705" y2="0"/>
</g>
<g transform="translate(5.6906, 31.5588)">
<line stroke-linejoin="round" stroke-linecap="round" stroke-width="0.1000" stroke="currentColor" x1="0.0500" y1="0" x2="108.0705" y2="0"/>
</g>
<g transform="translate(113.3348, 33.3049)">
<rect x="0.0000" y="-1.7461" width="0.4762" height="3.4923" ry="0.0000" fill="currentColor"/>
</g>
<g transform="translate(112.9459, 33.3049)">
<rect x="0.0000" y="-1.7461" width="0.1508" height="3.4923" ry="0.0000" fill="currentColor"/>
</g>
<g transform="translate(108.3544, 33.3049)">
<rect x="0.0000" y="-1.7461" width="0.1508" height="3.4923" ry="0.0000" fill="currentColor"/>
</g>
<g transform="translate(103.4740, 33.3049)">
<rect x="0.0000" y="-1.7461" width="0.1508" height="3.4923" ry="0.0000" fill="currentColor"/>
</g>
<g transform="translate(96.8818, 33.3049)">
<rect x="0.0000" y="-1.7461" width="0.1508" height="3.4923" ry="0.0000" fill="currentColor"/>
</g>
<g transform="translate(89.7870, 33.3049)">
<rect x="0.0000" y="-1.7461" width="0.1508" height="3.4923" ry="0.0000" fill="currentColor"/>
</g>
<g transform="translate(82.6765, 33.3049)">
<rect x="0.0000" y="-1.7461" width="0.1508" height="3.4923" ry="0.0000" fill="currentColor"/>
</g>
<g transform="translate(75.3665, 33.3049)">
<rect x="0.0000" y="-1.7461" width="0.1508" height="3.4923" ry="0.0000" fill="currentColor"/>
</g>
<g transform="translate(70.5322, 33.3049)">
<rect x="0.0000" y="-1.7461" width="0.1508" height="3.4923" ry="0.0000" fill="currentColor"/>
</g>
<g transform="translate(65.9564, 33.3049)">
<rect x="0.0000" y="-1.7461" width="0.1508" height="3.4923" ry="0.0000" fill="currentColor"/>
</g>
<g transform="translate(60.4974, 33.3049)">
<rect x="0.0000" y="-1.7461" width="0.1508" height="3.4923" ry="0.0000" fill="currentColor"/>
</g>
<g transform="translate(55.9059, 33.3049)">
<rect x="0.0000" y="-1.7461" width="0.1508" height="3.4923" ry="0.0000" fill="currentColor"/>
</g>
<g transform="translate(49.3619, 33.3049)">
<rect x="0.0000" y="-1.7461" width="0.1508" height="3.4923" ry="0.0000" fill="currentColor"/>
</g>
<g transform="translate(42.6658, 33.3049)">
<rect x="0.0000" y="-1.7461" width="0.1508" height="3.4923" ry="0.0000" fill="currentColor"/>
</g>
<g transform="translate(35.6178, 33.3049)">
<rect x="0.0000" y="-1.7461" width="0.1508" height="3.4923" ry="0.0000" fill="currentColor"/>
</g>
<g transform="translate(30.1588, 33.3049)">
<rect x="0.0000" y="-1.7461" width="0.1508" height="3.4923" ry="0.0000" fill="currentColor"/>
</g>
<g transform="translate(25.5673, 33.3049)">
<rect x="0.0000" y="-1.7461" width="0.1508" height="3.4923" ry="0.0000" fill="currentColor"/>
</g>
<g transform="translate(18.4471, 33.3049)">
<rect x="0.0000" y="-1.7461" width="0.1508" height="3.4923" ry="0.0000" fill="currentColor"/>
</g>
<g transform="translate(12.8339, 31.9953)">
<path transform="scale(0.0032, -0.0032)" d="M212 138c68 0 113 -38 113 -95c0 -90 -109 -181 -212 -181c-68 0 -113 38 -113 95c0 90 109 181 212 181z" fill="currentColor"/>
</g>
<g transform="translate(13.3501, 30.7822)">
<path transform="scale(0.0032, -0.0032)" d="M-175 333h350c7 0 12 -5 12 -12v-303c0 -10 -7 -18 -17 -18s-18 8 -18 18v182h-304v-182c0 -10 -8 -18 -18 -18s-17 8 -17 18v303c0 7 5 12 12 12z" fill="currentColor"/>
</g>
<g transform="translate(12.8989, 33.3049)">
<rect x="-0.0650" y="-1.1736" width="0.1300" height="2.9198" ry="0.0400" fill="currentColor"/>
</g>
<g transform="translate(101.2725, 33.3049)">
<path stroke-width="0.0800" stroke-linejoin="round" stroke-linecap="round" stroke="currentColor" fill="currentColor" d="M1.3325 -1.4427C2.0727 -2.2840 3.7312 -2.4384 4.6140 -1.7483L4.6140 -1.7483C3.7423 -2.3190 2.0838 -2.1645 1.3325 -1.4427z"/>
</g>
<g transform="translate(14.8322, 32.4318)">
<path transform="scale(0.0032, -0.0032)" d="M212 138c68 0 113 -38 113 -95c0 -90 -109 -181 -212 -181c-68 0 -113 38 -113 95c0 90 109 181 212 181z" fill="currentColor"/>
</g>
<g transform="translate(14.8972, 33.3049)">
<rect x="-0.0650" y="-0.7371" width="0.1300" height="2.9198" ry="0.0400" fill="currentColor"/>
</g>
<g transform="translate(16.5805, 33.3049)">
<path transform="scale(0.0032, -0.0032)" d="M212 138c68 0 113 -38 113 -95c0 -90 -109 -181 -212 -181c-68 0 -113 38 -113 95c0 90 109 181 212 181z" fill="currentColor"/>
</g>
<g transform="translate(16.6455, 33.3049)">
<rect x="-0.0650" y="0.1360" width="0.1300" height="2.7742" ry="0.0400" fill="currentColor"/>
</g>
<g transform="translate(90.7177, 33.3049)">
<path stroke-width="0.0800" stroke-linejoin="round" stroke-linecap="round" stroke="currentColor" fill="currentColor" d="M0.5842 -2.1848C1.7604 -2.8963 4.1085 -2.4232 4.9174 -1.3117L4.9174 -1.3117C4.0848 -2.3056 1.7367 -2.7787 0.5842 -2.1848z"/>
</g>
<g transform="translate(90.7177, 36.8617)">
<line stroke-linejoin="round" stroke-linecap="round" stroke-width="0.1000" stroke="currentColor" x1="0.0000" y1="0.5820" x2="11.5873" y2="0.0000"/>
</g>
<g transform="translate(90.7177, 36.8617)">
<line stroke-linejoin="round" stroke-linecap="round" stroke-width="0.1000" stroke="currentColor" x1="0.0000" y1="-0.5820" x2="11.5873" y2="-0.0000"/>
</g>
<g transform="translate(19.3675, 32.4318)">
<path transform="scale(0.0032, -0.0032)" d="M212 138c68 0 113 -38 113 -95c0 -90 -109 -181 -212 -181c-68 0 -113 38 -113 95c0 90 109 181 212 181z" fill="currentColor"/>
</g>
<g transform="translate(19.8837, 31.0434)">
<path transform="scale(0.0032, -0.0032)" d="M122 505c3 9 11 15 20 15c11 0 20 -9 20 -20c0 -2 1 -4 0 -6l-142 -479c-3 -9 -11 -15 -20 -15s-17 6 -20 15l-142 479c-1 2 0 4 0 6c0 11 9 20 20 20c9 0 17 -6 20 -15l85 -287l37 -161l37 161z" fill="currentColor"/>
</g>
<g transform="translate(19.4325, 33.3049)">
<rect x="-0.0650" y="-0.7371" width="0.1300" height="2.9198" ry="0.0400" fill="currentColor"/>
</g>
<g transform="translate(83.6229, 33.3049)">
<path stroke-width="0.0800" stroke-linejoin="round" stroke-linecap="round" stroke="currentColor" fill="currentColor" d="M0.5842 -2.1848C1.7604 -2.8963 4.1085 -2.4232 4.9174 -1.3117L4.9174 -1.3117C4.0848 -2.3056 1.7367 -2.7787 0.5842 -2.1848z"/>
</g>
<g transform="translate(21.7024, 32.8684)">
<path transform="scale(0.0032, -0.0032)" d="M212 138c68 0 113 -38 113 -95c0 -90 -109 -181 -212 -181c-68 0 -113 38 -113 95c0 90 109 181 212 181z" fill="currentColor"/>
</g>
<g transform="translate(21.7674, 33.3049)">
<rect x="-0.0650" y="-0.3005" width="0.1300" height="2.9198" ry="0.0400" fill="currentColor"/>
</g>
<g transform="translate(20.8000, 32.8684)">
<path transform="scale(0.0032, -0.0032)" d="M-7 375c8 5 17 7 26 7s17 -2 25 -7l-2 -192l102 23h4c10 0 19 -8 19 -18l7 -563c-8 -5 -17 -7 -26 -7s-18 2 -26 7l3 192l-102 -23h-4c-10 0 -19 8 -19 18zM129 110l-88 -19l-3 -201l88 19z" fill="currentColor"/>
</g>
<g transform="translate(76.2472, 33.3049)">
<path stroke-width="0.0800" stroke-linejoin="round" stroke-linecap="round" stroke="currentColor" fill="currentColor" d="M0.4037 -1.0062C1.1139 -2.3010 3.7151 -3.2007 5.0735 -2.6214L5.0735 -2.6214C3.7543 -3.0873 1.1531 -2.1876 0.4037 -1.0062z"/>
</g>
<g transform="translate(23.7007, 33.3049)">
<path transform="scale(0.0032, -0.0032)" d="M212 138c68 0 113 -38 113 -95c0 -90 -109 -181 -212 -181c-68 0 -113 38 -113 95c0 90 109 181 212 181z" fill="currentColor"/>
</g>
<g transform="translate(23.7657, 33.3049)">
<rect x="-0.0650" y="0.1360" width="0.1300" height="2.7742" ry="0.0400" fill="currentColor"/>
</g>
<g transform="translate(67.6004, 36.2569)">
<line stroke-linejoin="round" stroke-linecap="round" stroke-width="0.1000" stroke="currentColor" x1="0.0000" y1="0.0000" x2="6.9169" y2="0.5820"/>
</g>
<g transform="translate(67.6004, 36.2569)">
<line stroke-linejoin="round" stroke-linecap="round" stroke-width="0.1000" stroke="currentColor" x1="0.0000" y1="-0.0000" x2="6.9169" y2="-0.5820"/>
</g>
<g transform="translate(27.2111, 32.4318)">
<path transform="scale(0.0032, -0.0032)" d="M310 63c0 22 -17 40 -40 40c-38 0 -197 -107 -224 -139c-7 -8 -10 -17 -10 -27c0 -22 17 -40 40 -40c38 0 197 107 224 139c7 8 10 17 10 27zM256 138c55 0 90 -22 90 -77c0 -25 -15 -112 -73 -151c-34 -23 -92 -48 -183 -48c-55 0 -90 22 -90 77c0 25 15 112 73 151
c34 23 92 48 183 48z" fill="currentColor"/>
</g>
<g transform="translate(27.7603, 30.9695)">
<path transform="scale(0.0032, -0.0032)" d="M-175 333h350c7 0 12 -5 12 -12v-303c0 -10 -7 -18 -17 -18s-18 8 -18 18v182h-304v-182c0 -10 -8 -18 -18 -18s-17 8 -17 18v303c0 7 5 12 12 12z" fill="currentColor"/>
</g>
<g transform="translate(28.6599, 31.9953)">
<path transform="scale(0.0032, -0.0032)" d="M0 0c0 30 25 55 55 55s55 -25 55 -55s-25 -55 -55 -55s-55 25 -55 55z" fill="currentColor"/>
</g>
<g transform="translate(27.2761, 33.3049)">
<rect x="-0.0650" y="-0.6782" width="0.1300" height="2.8608" ry="0.0400" fill="currentColor"/>
</g>
<g transform="translate(64.1612, 33.3049)">
<path stroke-width="0.1000" stroke-linejoin="round" stroke-linecap="round" stroke="currentColor" fill="currentColor" d="M0.4056 -1.8792C0.9257 -3.0904 2.7201 -3.7007 3.8707 -3.0579L3.8707 -3.0579C2.7555 -3.5966 0.9611 -2.9862 0.4056 -1.8792z"/>
</g>
<g transform="translate(31.0758, 32.4318)">
<path transform="scale(0.0032, -0.0032)" d="M310 63c0 22 -17 40 -40 40c-38 0 -197 -107 -224 -139c-7 -8 -10 -17 -10 -27c0 -22 17 -40 40 -40c38 0 197 107 224 139c7 8 10 17 10 27zM256 138c55 0 90 -22 90 -77c0 -25 -15 -112 -73 -151c-34 -23 -92 -48 -183 -48c-55 0 -90 22 -90 77c0 25 15 112 73 151
c34 23 92 48 183 48z" fill="currentColor"/>
</g>
<g transform="translate(31.1408, 33.3049)">
<rect x="-0.0650" y="-0.6782" width="0.1300" height="2.8608" ry="0.0400" fill="currentColor"/>
</g>
<g transform="translate(57.5497, 33.3049)">
<path stroke-width="0.0800" stroke-linejoin="round" stroke-linecap="round" stroke="currentColor" fill="currentColor" d="M0.7492 -1.7461C1.4662 -2.4852 3.4969 -2.4852 4.2139 -1.7461L4.2139 -1.7461C3.4969 -2.3652 1.4662 -2.3652 0.7492 -1.7461z"/>
</g>
<g transform="translate(33.8226, 32.4318)">
<path transform="scale(0.0032, -0.0032)" d="M212 138c68 0 113 -38 113 -95c0 -90 -109 -181 -212 -181c-68 0 -113 38 -113 95c0 90 109 181 212 181z" fill="currentColor"/>
</g>
<g transform="translate(34.3388, 30.7106)">
<path transform="scale(0.0032, -0.0032)" d="M122 505c3 9 11 15 20 15c11 0 20 -9 20 -20c0 -2 1 -4 0 -6l-142 -479c-3 -9 -11 -15 -20 -15s-17 6 -20 15l-142 479c-1 2 0 4 0 6c0 11 9 20 20 20c9 0 17 -6 20 -15l85 -287l37 -161l37 161z" fill="currentColor"/>
</g>
<g transform="translate(33.8876, 33.3049)">
<rect x="-0.0650" y="-0.7371" width="0.1300" height="2.9198" ry="0.0400" fill="currentColor"/>
</g>
<g transform="translate(57.5497, 36.6397)">
<line stroke-linejoin="round" stroke-linecap="round" stroke-width="0.1000" stroke="currentColor" x1="0.0000" y1="0.5820" x2="7.6440" y2="0.0000"/>
</g>
<g transform="translate(57.5497, 36.6397)">
<line stroke-linejoin="round" stroke-linecap="round" stroke-width="0.1000" stroke="currentColor" x1="0.0000" y1="-0.5820" x2="7.6440" y2="-0.0000"/>
</g>
<g transform="translate(36.5486, 31.9953)">
<path transform="scale(0.0032, -0.0032)" d="M212 138c68 0 113 -38 113 -95c0 -90 -109 -181 -212 -181c-68 0 -113 38 -113 95c0 90 109 181 212 181z" fill="currentColor"/>
</g>
<g transform="translate(36.6136, 33.3049)">
<rect x="-0.0650" y="-1.1736" width="0.1300" height="2.9198" ry="0.0400" fill="currentColor"/>
</g>
<g transform="translate(50.2926, 33.3049)">
<path stroke-width="0.0800" stroke-linejoin="round" stroke-linecap="round" stroke="currentColor" fill="currentColor" d="M0.6195 -2.1848C1.7657 -2.7303 3.7387 -2.1096 4.3662 -1.0062L4.3662 -1.0062C3.7027 -1.9951 1.7297 -2.6158 0.6195 -2.1848z"/>
</g>
<g transform="translate(38.8834, 31.5588)">
<path transform="scale(0.0032, -0.0032)" d="M212 138c68 0 113 -38 113 -95c0 -90 -109 -181 -212 -181c-68 0 -113 38 -113 95c0 90 109 181 212 181z" fill="currentColor"/>
</g>
<g transform="translate(38.9484, 33.3049)">
<rect x="-0.0650" y="-1.6102" width="0.1300" height="2.9198" ry="0.0400" fill="currentColor"/>
</g>
<g transform="translate(37.9810, 31.5588)">
<path transform="scale(0.0032, -0.0032)" d="M-7 375c8 5 17 7 26 7s17 -2 25 -7l-2 -192l102 23h4c10 0 19 -8 19 -18l7 -563c-8 -5 -17 -7 -26 -7s-18 2 -26 7l3 192l-102 -23h-4c-10 0 -19 8 -19 18zM129 110l-88 -19l-3 -201l88 19z" fill="currentColor"/>
</g>
<g transform="translate(43.5700, 33.3049)">
<path stroke-width="0.0800" stroke-linejoin="round" stroke-linecap="round" stroke="currentColor" fill="currentColor" d="M0.6452 -3.4944C1.9104 -3.9709 4.0629 -3.1010 4.6419 -1.8792L4.6419 -1.8792C4.0180 -2.9897 1.8655 -3.8596 0.6452 -3.4944z"/>
</g>
<g transform="translate(40.8818, 31.1222)">
<path transform="scale(0.0032, -0.0032)" d="M212 138c68 0 113 -38 113 -95c0 -90 -109 -181 -212 -181c-68 0 -113 38 -113 95c0 90 109 181 212 181z" fill="currentColor"/>
</g>
<g transform="translate(40.9468, 33.3049)">
<rect x="-0.0650" y="-2.0467" width="0.1300" height="2.9198" ry="0.0400" fill="currentColor"/>
</g>
<g transform="translate(36.5486, 36.9386)">
<line stroke-linejoin="round" stroke-linecap="round" stroke-width="0.1000" stroke="currentColor" x1="0.0000" y1="0.0000" x2="12.0506" y2="0.5820"/>
</g>
<g transform="translate(36.5486, 36.9386)">
<line stroke-linejoin="round" stroke-linecap="round" stroke-width="0.1000" stroke="currentColor" x1="0.0000" y1="-0.0000" x2="12.0506" y2="-0.5820"/>
</g>
<g transform="translate(43.5700, 30.6857)">
<path transform="scale(0.0032, -0.0032)" d="M212 138c68 0 113 -38 113 -95c0 -90 -109 -181 -212 -181c-68 0 -113 38 -113 95c0 90 109 181 212 181z" fill="currentColor"/>
</g>
<g transform="translate(44.0863, 29.5145)">
<path transform="scale(0.0032, -0.0032)" d="M-175 333h350c7 0 12 -5 12 -12v-303c0 -10 -7 -18 -17 -18s-18 8 -18 18v182h-304v-182c0 -10 -8 -18 -18 -18s-17 8 -17 18v303c0 7 5 12 12 12z" fill="currentColor"/>
</g>
<g transform="translate(43.6350, 33.3049)">
<rect x="-0.0650" y="-2.4832" width="0.1300" height="2.9198" ry="0.0400" fill="currentColor"/>
</g>
<g transform="translate(33.8226, 33.3049)">
<path stroke-width="0.1000" stroke-linejoin="round" stroke-linecap="round" stroke="currentColor" fill="currentColor" d="M0.4596 -1.8792C1.6137 -3.4062 5.9311 -4.1270 7.5187 -3.0579L7.5187 -3.0579C5.9492 -4.0185 1.6318 -3.2977 0.4596 -1.8792z"/>
</g>
<g transform="translate(45.5683, 32.8684)">
<path transform="scale(0.0032, -0.0032)" d="M212 138c68 0 113 -38 113 -95c0 -90 -109 -181 -212 -181c-68 0 -113 38 -113 95c0 90 109 181 212 181z" fill="currentColor"/>
</g>
<g transform="translate(45.6333, 33.3049)">
<rect x="-0.0650" y="-0.3005" width="0.1300" height="2.9198" ry="0.0400" fill="currentColor"/>
</g>
<g transform="translate(44.6659, 32.8684)">
<path transform="scale(0.0032, -0.0032)" d="M-7 375c8 5 17 7 26 7s17 -2 25 -7l-2 -192l102 23h4c10 0 19 -8 19 -18l7 -563c-8 -5 -17 -7 -26 -7s-18 2 -26 7l3 192l-102 -23h-4c-10 0 -19 8 -19 18zM129 110l-88 -19l-3 -201l88 19z" fill="currentColor"/>
</g>
<g transform="translate(47.5667, 32.4318)">
<path transform="scale(0.0032, -0.0032)" d="M212 138c68 0 113 -38 113 -95c0 -90 -109 -181 -212 -181c-68 0 -113 38 -113 95c0 90 109 181 212 181z" fill="currentColor"/>
</g>
<g transform="translate(47.6317, 33.3049)">
<rect x="-0.0650" y="-0.7371" width="0.1300" height="2.9198" ry="0.0400" fill="currentColor"/>
</g>
<g transform="translate(27.2111, 33.3049)">
<path stroke-width="0.0800" stroke-linejoin="round" stroke-linecap="round" stroke="currentColor" fill="currentColor" d="M0.7492 -1.7461C1.4662 -2.4852 3.4969 -2.4852 4.2139 -1.7461L4.2139 -1.7461C3.4969 -2.3652 1.4662 -2.3652 0.7492 -1.7461z"/>
</g>
<g transform="translate(19.3675, 33.3049)">
<path stroke-width="0.0800" stroke-linejoin="round" stroke-linecap="round" stroke="currentColor" fill="currentColor" d="M0.5842 -1.8792C1.7604 -2.5907 4.1085 -2.1176 4.9174 -1.0062L4.9174 -1.0062C4.0848 -2.0000 1.7367 -2.4731 0.5842 -1.8792z"/>
</g>
<g transform="translate(50.2926, 31.9953)">
<path transform="scale(0.0032, -0.0032)" d="M212 138c68 0 113 -38 113 -95c0 -90 -109 -181 -212 -181c-68 0 -113 38 -113 95c0 90 109 181 212 181z" fill="currentColor"/>
</g>
<g transform="translate(50.8089, 30.7959)">
<path transform="scale(0.0032, -0.0032)" d="M122 505c3 9 11 15 20 15c11 0 20 -9 20 -20c0 -2 1 -4 0 -6l-142 -479c-3 -9 -11 -15 -20 -15s-17 6 -20 15l-142 479c-1 2 0 4 0 6c0 11 9 20 20 20c9 0 17 -6 20 -15l85 -287l37 -161l37 161z" fill="currentColor"/>
</g>
<g transform="translate(50.3576, 33.3049)">
<rect x="-0.0650" y="-1.1736" width="0.1300" height="2.9198" ry="0.0400" fill="currentColor"/>
</g>
<g transform="translate(12.8339, 33.3049)">
<path stroke-width="0.0800" stroke-linejoin="round" stroke-linecap="round" stroke="currentColor" fill="currentColor" d="M0.6195 -2.1848C1.7657 -2.7303 3.7387 -2.1096 4.3662 -1.0062L4.3662 -1.0062C3.7027 -1.9951 1.7297 -2.6158 0.6195 -2.1848z"/>
</g>
<g transform="translate(52.2910, 32.4318)">
<path transform="scale(0.0032, -0.0032)" d="M212 138c68 0 113 -38 113 -95c0 -90 -109 -181 -212 -181c-68 0 -113 38 -113 95c0 90 109 181 212 181z" fill="currentColor"/>
</g>
<g transform="translate(52.3560, 33.3049)">
<rect x="-0.0650" y="-0.7371" width="0.1300" height="2.9198" ry="0.0400" fill="currentColor"/>
</g>
<g transform="translate(54.0393, 33.3049)">
<path transform="scale(0.0032, -0.0032)" d="M212 138c68 0 113 -38 113 -95c0 -90 -109 -181 -212 -181c-68 0 -113 38 -113 95c0 90 109 181 212 181z" fill="currentColor"/>
</g>
<g transform="translate(54.1043, 33.3049)">
<rect x="-0.0650" y="0.1360" width="0.1300" height="2.7742" ry="0.0400" fill="currentColor"/>
</g>
<g transform="translate(57.5497, 32.4318)">
<path transform="scale(0.0032, -0.0032)" d="M310 63c0 22 -17 40 -40 40c-38 0 -197 -107 -224 -139c-7 -8 -10 -17 -10 -27c0 -22 17 -40 40 -40c38 0 197 107 224 139c7 8 10 17 10 27zM256 138c55 0 90 -22 90 -77c0 -25 -15 -112 -73 -151c-34 -23 -92 -48 -183 -48c-55 0 -90 22 -90 77c0 25 15 112 73 151
c34 23 92 48 183 48z" fill="currentColor"/>
</g>
<g transform="translate(58.0989, 30.9695)">
<path transform="scale(0.0032, -0.0032)" d="M-175 333h350c7 0 12 -5 12 -12v-303c0 -10 -7 -18 -17 -18s-18 8 -18 18v182h-304v-182c0 -10 -8 -18 -18 -18s-17 8 -17 18v303c0 7 5 12 12 12z" fill="currentColor"/>
</g>
<g transform="translate(58.9984, 31.9953)">
<path transform="scale(0.0032, -0.0032)" d="M0 0c0 30 25 55 55 55s55 -25 55 -55s-25 -55 -55 -55s-55 25 -55 55z" fill="currentColor"/>
</g>
<g transform="translate(57.6147, 33.3049)">
<rect x="-0.0650" y="-0.6782" width="0.1300" height="2.8608" ry="0.0400" fill="currentColor"/>
</g>
<g transform="translate(61.4144, 32.4318)">
<path transform="scale(0.0032, -0.0032)" d="M310 63c0 22 -17 40 -40 40c-38 0 -197 -107 -224 -139c-7 -8 -10 -17 -10 -27c0 -22 17 -40 40 -40c38 0 197 107 224 139c7 8 10 17 10 27zM256 138c55 0 90 -22 90 -77c0 -25 -15 -112 -73 -151c-34 -23 -92 -48 -183 -48c-55 0 -90 22 -90 77c0 25 15 112 73 151
c34 23 92 48 183 48z" fill="currentColor"/>
</g>
<g transform="translate(3.9151, 30.4883)">
<text font-family="serif" font-size="1.7461" text-anchor="start" fill="currentColor">
<tspan>62</tspan>
</text>
</g>
<g transform="translate(61.4794, 33.3049)">
<rect x="-0.0650" y="-0.6782" width="0.1300" height="2.8608" ry="0.0400" fill="currentColor"/>
</g>
<g transform="translate(64.1612, 32.4318)">
<path transform="scale(0.0032, -0.0032)" d="M212 138c68 0 113 -38 113 -95c0 -90 -109 -181 -212 -181c-68 0 -113 38 -113 95c0 90 109 181 212 181z" fill="currentColor"/>
</g>
<g transform="translate(64.6774, 30.4554)">
<path transform="scale(0.0032, -0.0032)" d="M122 505c3 9 11 15 20 15c11 0 20 -9 20 -20c0 -2 1 -4 0 -6l-142 -479c-3 -9 -11 -15 -20 -15s-17 6 -20 15l-142 479c-1 2 0 4 0 6c0 11 9 20 20 20c9 0 17 -6 20 -15l85 -287l37 -161l37 161z" fill="currentColor"/>
</g>
<g transform="translate(64.2262, 33.3049)">
<rect x="-0.0650" y="-0.7371" width="0.1300" height="2.9198" ry="0.0400" fill="currentColor"/>
</g>
<g transform="translate(67.6004, 31.1222)">
<path transform="scale(0.0032, -0.0032)" d="M310 63c0 22 -17 40 -40 40c-38 0 -197 -107 -224 -139c-7 -8 -10 -17 -10 -27c0 -22 17 -40 40 -40c38 0 197 107 224 139c7 8 10 17 10 27zM256 138c55 0 90 -22 90 -77c0 -25 -15 -112 -73 -151c-34 -23 -92 -48 -183 -48c-55 0 -90 22 -90 77c0 25 15 112 73 151
c34 23 92 48 183 48z" fill="currentColor"/>
</g>
<g transform="translate(9.1035, 31.5588)">
<path transform="scale(0.0032, -0.0032)" d="M0 116c0 10 6 19 16 23l40 15v154c0 12 9 21 21 21s21 -9 21 -21v-138l79 30v154c0 12 9 21 21 21s21 -9 21 -21v-138l22 8c3 1 6 2 9 2c13 0 25 -11 25 -25v-54c0 -10 -6 -20 -16 -24l-40 -15v-155l22 9c3 1 6 1 9 1c13 0 25 -11 25 -25v-54c0 -10 -6 -19 -16 -23
l-40 -15v-154c0 -12 -9 -21 -21 -21s-21 9 -21 21v138l-79 -30v-154c0 -12 -9 -21 -21 -21s-21 9 -21 21v138l-22 -8c-3 -1 -6 -2 -9 -2c-13 0 -25 11 -25 25v54c0 10 6 20 16 24l40 15v155l-22 -9c-3 -1 -6 -1 -9 -1c-13 0 -25 11 -25 25v54zM177 92l-79 -30v-154l79 30
v154z" fill="currentColor"/>
</g>
<g transform="translate(9.9765, 32.8684)">
<path transform="scale(0.0032, -0.0032)" d="M0 116c0 10 6 19 16 23l40 15v154c0 12 9 21 21 21s21 -9 21 -21v-138l79 30v154c0 12 9 21 21 21s21 -9 21 -21v-138l22 8c3 1 6 2 9 2c13 0 25 -11 25 -25v-54c0 -10 -6 -20 -16 -24l-40 -15v-155l22 9c3 1 6 1 9 1c13 0 25 -11 25 -25v-54c0 -10 -6 -19 -16 -23
l-40 -15v-154c0 -12 -9 -21 -21 -21s-21 9 -21 21v138l-79 -30v-154c0 -12 -9 -21 -21 -21s-21 9 -21 21v138l-22 -8c-3 -1 -6 -2 -9 -2c-13 0 -25 11 -25 25v54c0 10 6 20 16 24l40 15v155l-22 -9c-3 -1 -6 -1 -9 -1c-13 0 -25 11 -25 25v54zM177 92l-79 -30v-154l79 30
v154z" fill="currentColor"/>
</g>
<g transform="translate(69.0492, 31.1222)">
<path transform="scale(0.0032, -0.0032)" d="M0 0c0 30 25 55 55 55s55 -25 55 -55s-25 -55 -55 -55s-55 25 -55 55z" fill="currentColor"/>
</g>
<g transform="translate(67.6654, 33.3049)">
<rect x="-0.0650" y="-1.9878" width="0.1300" height="2.8608" ry="0.0400" fill="currentColor"/>
</g>
<g transform="translate(72.4545, 31.5588)">
<path transform="scale(0.0032, -0.0032)" d="M310 63c0 22 -17 40 -40 40c-38 0 -197 -107 -224 -139c-7 -8 -10 -17 -10 -27c0 -22 17 -40 40 -40c38 0 197 107 224 139c7 8 10 17 10 27zM256 138c55 0 90 -22 90 -77c0 -25 -15 -112 -73 -151c-34 -23 -92 -48 -183 -48c-55 0 -90 22 -90 77c0 25 15 112 73 151
c34 23 92 48 183 48z" fill="currentColor"/>
</g>
<g transform="translate(73.0037, 30.8245)">
<path transform="scale(0.0032, -0.0032)" d="M-175 333h350c7 0 12 -5 12 -12v-303c0 -10 -7 -18 -17 -18s-18 8 -18 18v182h-304v-182c0 -10 -8 -18 -18 -18s-17 8 -17 18v303c0 7 5 12 12 12z" fill="currentColor"/>
</g>
<g transform="translate(6.3255, 34.1780)">
<path transform="scale(0.0032, -0.0032)" d="M647 2c0 -114 -75 -214 -180 -248c3 -33 4 -66 4 -99c0 -21 0 -41 -1 -62c-7 -122 -92 -229 -211 -229c-108 0 -196 88 -196 197c0 58 54 103 113 103c54 0 95 -47 95 -103c0 -52 -43 -95 -95 -95c-9 0 -18 1 -27 4c25 -37 66 -61 113 -61c93 0 156 91 162 191
c1 19 2 38 2 57c0 29 -1 58 -3 87c-5 -1 -44 -8 -88 -8c-194 0 -333 181 -333 376c0 177 129 308 244 443c-34 103 -55 171 -55 347c0 114 54 221 147 288c8 6 18 5 25 -1c68 -79 135 -242 135 -356c0 -142 -84 -255 -176 -364c21 -68 40 -136 57 -205c1 0 5 1 10 1
c157 0 258 -129 258 -263zM463 -201c64 24 110 88 110 161c0 88 -64 175 -167 188c28 -133 49 -269 57 -349zM77 25c0 -144 141 -243 261 -243c1 0 46 -1 81 5c-7 66 -27 208 -60 362c-79 -8 -124 -60 -124 -118c0 -43 25 -88 80 -120c5 -5 7 -11 7 -17
c0 -12 -10 -23 -23 -23c-16 0 -128 62 -128 188c0 89 60 177 163 200c-14 57 -30 113 -47 169c-105 -122 -210 -243 -210 -403zM242 784c0 -39 10 -95 39 -188c78 97 142 199 142 324c0 33 0 60 -20 118c-99 -46 -161 -145 -161 -254z" fill="currentColor"/>
</g>
<g transform="translate(73.9032, 31.1222)">
<path transform="scale(0.0032, -0.0032)" d="M0 0c0 30 25 55 55 55s55 -25 55 -55s-25 -55 -55 -55s-55 25 -55 55z" fill="currentColor"/>
</g>
<g transform="translate(72.5195, 33.3049)">
<rect x="-0.0650" y="-1.5512" width="0.1300" height="2.8608" ry="0.0400" fill="currentColor"/>
</g>
<g transform="translate(71.5521, 31.5588)">
<path transform="scale(0.0032, -0.0032)" d="M-7 375c8 5 17 7 26 7s17 -2 25 -7l-2 -192l102 23h4c10 0 19 -8 19 -18l7 -563c-8 -5 -17 -7 -26 -7s-18 2 -26 7l3 192l-102 -23h-4c-10 0 -19 8 -19 18zM129 110l-88 -19l-3 -201l88 19z" fill="currentColor"/>
</g>
<g transform="translate(76.2472, 33.3049)">
<path transform="scale(0.0032, -0.0032)" d="M212 138c68 0 113 -38 113 -95c0 -90 -109 -181 -212 -181c-68 0 -113 38 -113 95c0 90 109 181 212 181z" fill="currentColor"/>
</g>
<g transform="translate(76.7635, 31.2905)">
<path transform="scale(0.0032, -0.0032)" d="M122 505c3 9 11 15 20 15c11 0 20 -9 20 -20c0 -2 1 -4 0 -6l-142 -479c-3 -9 -11 -15 -20 -15s-17 6 -20 15l-142 479c-1 2 0 4 0 6c0 11 9 20 20 20c9 0 17 -6 20 -15l85 -287l37 -161l37 161z" fill="currentColor"/>
</g>
<g transform="translate(76.3122, 33.3049)">
<rect x="-0.0650" y="0.1360" width="0.1300" height="2.7742" ry="0.0400" fill="currentColor"/>
</g>
<g transform="translate(78.5821, 32.8684)">
<path transform="scale(0.0032, -0.0032)" d="M212 138c68 0 113 -38 113 -95c0 -90 -109 -181 -212 -181c-68 0 -113 38 -113 95c0 90 109 181 212 181z" fill="currentColor"/>
</g>
<g transform="translate(78.6471, 33.3049)">
<rect x="-0.0650" y="-0.3005" width="0.1300" height="2.9198" ry="0.0400" fill="currentColor"/>
</g>
<g transform="translate(77.6797, 32.8684)">
<path transform="scale(0.0032, -0.0032)" d="M-7 375c8 5 17 7 26 7s17 -2 25 -7l-2 -192l102 23h4c10 0 19 -8 19 -18l7 -563c-8 -5 -17 -7 -26 -7s-18 2 -26 7l3 192l-102 -23h-4c-10 0 -19 8 -19 18zM129 110l-88 -19l-3 -201l88 19z" fill="currentColor"/>
</g>
<g transform="translate(80.9170, 31.5588)">
<path transform="scale(0.0032, -0.0032)" d="M212 138c68 0 113 -38 113 -95c0 -90 -109 -181 -212 -181c-68 0 -113 38 -113 95c0 90 109 181 212 181z" fill="currentColor"/>
</g>
<g transform="translate(80.9820, 33.3049)">
<rect x="-0.0650" y="-1.6102" width="0.1300" height="2.9198" ry="0.0400" fill="currentColor"/>
</g>
<g transform="translate(80.0146, 31.5588)">
<path transform="scale(0.0032, -0.0032)" d="M-7 375c8 5 17 7 26 7s17 -2 25 -7l-2 -192l102 23h4c10 0 19 -8 19 -18l7 -563c-8 -5 -17 -7 -26 -7s-18 2 -26 7l3 192l-102 -23h-4c-10 0 -19 8 -19 18zM129 110l-88 -19l-3 -201l88 19z" fill="currentColor"/>
</g>
<g transform="translate(83.6229, 31.9953)">
<path transform="scale(0.0032, -0.0032)" d="M212 138c68 0 113 -38 113 -95c0 -90 -109 -181 -212 -181c-68 0 -113 38 -113 95c0 90 109 181 212 181z" fill="currentColor"/>
</g>
<g transform="translate(84.1391, 30.7165)">
<path transform="scale(0.0032, -0.0032)" d="M-175 333h350c7 0 12 -5 12 -12v-303c0 -10 -7 -18 -17 -18s-18 8 -18 18v182h-304v-182c0 -10 -8 -18 -18 -18s-17 8 -17 18v303c0 7 5 12 12 12z" fill="currentColor"/>
</g>
<g transform="translate(83.6879, 33.3049)">
<rect x="-0.0650" y="-1.1736" width="0.1300" height="2.9198" ry="0.0400" fill="currentColor"/>
</g>
<g transform="translate(85.6212, 32.4318)">
<path transform="scale(0.0032, -0.0032)" d="M212 138c68 0 113 -38 113 -95c0 -90 -109 -181 -212 -181c-68 0 -113 38 -113 95c0 90 109 181 212 181z" fill="currentColor"/>
</g>
<g transform="translate(85.6862, 33.3049)">
<rect x="-0.0650" y="-0.7371" width="0.1300" height="2.9198" ry="0.0400" fill="currentColor"/>
</g>
<g transform="translate(87.9561, 32.8684)">
<path transform="scale(0.0032, -0.0032)" d="M212 138c68 0 113 -38 113 -95c0 -90 -109 -181 -212 -181c-68 0 -113 38 -113 95c0 90 109 181 212 181z" fill="currentColor"/>
</g>
<g transform="translate(88.0211, 33.3049)">
<rect x="-0.0650" y="-0.3005" width="0.1300" height="2.9198" ry="0.0400" fill="currentColor"/>
</g>
<g transform="translate(87.0537, 32.8684)">
<path transform="scale(0.0032, -0.0032)" d="M-7 375c8 5 17 7 26 7s17 -2 25 -7l-2 -192l102 23h4c10 0 19 -8 19 -18l7 -563c-8 -5 -17 -7 -26 -7s-18 2 -26 7l3 192l-102 -23h-4c-10 0 -19 8 -19 18zM129 110l-88 -19l-3 -201l88 19z" fill="currentColor"/>
</g>
<g transform="translate(90.7177, 31.9953)">
<path transform="scale(0.0032, -0.0032)" d="M212 138c68 0 113 -38 113 -95c0 -90 -109 -181 -212 -181c-68 0 -113 38 -113 95c0 90 109 181 212 181z" fill="currentColor"/>
</g>
<g transform="translate(91.2340, 30.7378)">
<path transform="scale(0.0032, -0.0032)" d="M122 505c3 9 11 15 20 15c11 0 20 -9 20 -20c0 -2 1 -4 0 -6l-142 -479c-3 -9 -11 -15 -20 -15s-17 6 -20 15l-142 479c-1 2 0 4 0 6c0 11 9 20 20 20c9 0 17 -6 20 -15l85 -287l37 -161l37 161z" fill="currentColor"/>
</g>
<g transform="translate(90.7827, 33.3049)">
<rect x="-0.0650" y="-1.1736" width="0.1300" height="2.9198" ry="0.0400" fill="currentColor"/>
</g>
<g transform="translate(92.7161, 32.4318)">
<path transform="scale(0.0032, -0.0032)" d="M212 138c68 0 113 -38 113 -95c0 -90 -109 -181 -212 -181c-68 0 -113 38 -113 95c0 90 109 181 212 181z" fill="currentColor"/>
</g>
<g transform="translate(92.7811, 33.3049)">
<rect x="-0.0650" y="-0.7371" width="0.1300" height="2.9198" ry="0.0400" fill="currentColor"/>
</g>
<g transform="translate(95.0510, 32.8684)">
<path transform="scale(0.0032, -0.0032)" d="M212 138c68 0 113 -38 113 -95c0 -90 -109 -181 -212 -181c-68 0 -113 38 -113 95c0 90 109 181 212 181z" fill="currentColor"/>
</g>
<g transform="translate(95.1160, 33.3049)">
<rect x="-0.0650" y="-0.3005" width="0.1300" height="2.9198" ry="0.0400" fill="currentColor"/>
</g>
<g transform="translate(94.1485, 32.8684)">
<path transform="scale(0.0032, -0.0032)" d="M-7 375c8 5 17 7 26 7s17 -2 25 -7l-2 -192l102 23h4c10 0 19 -8 19 -18l7 -563c-8 -5 -17 -7 -26 -7s-18 2 -26 7l3 192l-102 -23h-4c-10 0 -19 8 -19 18zM129 110l-88 -19l-3 -201l88 19z" fill="currentColor"/>
</g>
<g transform="translate(110.0631, 33.3049)">
<rect x="-0.0650" y="-0.6782" width="0.1300" height="2.8608" ry="0.0400" fill="currentColor"/>
</g>
<g transform="translate(111.4469, 31.9953)">
<path transform="scale(0.0032, -0.0032)" d="M0 0c0 30 25 55 55 55s55 -25 55 -55s-25 -55 -55 -55s-55 25 -55 55z" fill="currentColor"/>
</g>
<g transform="translate(98.5257, 34.6145)">
<path transform="scale(0.0032, -0.0032)" d="M310 63c0 22 -17 40 -40 40c-38 0 -197 -107 -224 -139c-7 -8 -10 -17 -10 -27c0 -22 17 -40 40 -40c38 0 197 107 224 139c7 8 10 17 10 27zM256 138c55 0 90 -22 90 -77c0 -25 -15 -112 -73 -151c-34 -23 -92 -48 -183 -48c-55 0 -90 22 -90 77c0 25 15 112 73 151
c34 23 92 48 183 48z" fill="currentColor"/>
</g>
<g transform="translate(99.0749, 31.2905)">
<path transform="scale(0.0032, -0.0032)" d="M-175 333h350c7 0 12 -5 12 -12v-303c0 -10 -7 -18 -17 -18s-18 8 -18 18v182h-304v-182c0 -10 -8 -18 -18 -18s-17 8 -17 18v303c0 7 5 12 12 12z" fill="currentColor"/>
</g>
<g transform="translate(99.5591, 33.3049)">
<rect x="-0.0650" y="-1.7461" width="0.1300" height="2.8608" ry="0.0400" fill="currentColor"/>
</g>
<g transform="translate(97.6327, 34.6145)">
<path transform="scale(0.0032, -0.0032)" d="M-7 375c8 5 17 7 26 7s17 -2 25 -7l-2 -192l102 23h4c10 0 19 -8 19 -18l7 -563c-8 -5 -17 -7 -26 -7s-18 2 -26 7l3 192l-102 -23h-4c-10 0 -19 8 -19 18zM129 110l-88 -19l-3 -201l88 19z" fill="currentColor"/>
</g>
<g transform="translate(101.2725, 34.1780)">
<path transform="scale(0.0032, -0.0032)" d="M212 138c68 0 113 -38 113 -95c0 -90 -109 -181 -212 -181c-68 0 -113 38 -113 95c0 90 109 181 212 181z" fill="currentColor"/>
</g>
<g transform="translate(101.7888, 30.9476)">
<path transform="scale(0.0032, -0.0032)" d="M122 505c3 9 11 15 20 15c11 0 20 -9 20 -20c0 -2 1 -4 0 -6l-142 -479c-3 -9 -11 -15 -20 -15s-17 6 -20 15l-142 479c-1 2 0 4 0 6c0 11 9 20 20 20c9 0 17 -6 20 -15l85 -287l37 -161l37 161z" fill="currentColor"/>
</g>
<g transform="translate(102.2400, 33.3049)">
<rect x="-0.0650" y="-2.1827" width="0.1300" height="2.9198" ry="0.0400" fill="currentColor"/>
</g>
<g transform="translate(105.3709, 32.8684)">
<path transform="scale(0.0032, -0.0032)" d="M310 63c0 22 -17 40 -40 40c-38 0 -197 -107 -224 -139c-7 -8 -10 -17 -10 -27c0 -22 17 -40 40 -40c38 0 197 107 224 139c7 8 10 17 10 27zM256 138c55 0 90 -22 90 -77c0 -25 -15 -112 -73 -151c-34 -23 -92 -48 -183 -48c-55 0 -90 22 -90 77c0 25 15 112 73 151
c34 23 92 48 183 48z" fill="currentColor"/>
</g>
<g transform="translate(106.8197, 32.8684)">
<path transform="scale(0.0032, -0.0032)" d="M0 0c0 30 25 55 55 55s55 -25 55 -55s-25 -55 -55 -55s-55 25 -55 55z" fill="currentColor"/>
</g>
<g transform="translate(105.4359, 33.3049)">
<rect x="-0.0650" y="-0.2416" width="0.1300" height="2.8608" ry="0.0400" fill="currentColor"/>
</g>
<g transform="translate(104.4685, 32.8684)">
<path transform="scale(0.0032, -0.0032)" d="M-7 375c8 5 17 7 26 7s17 -2 25 -7l-2 -192l102 23h4c10 0 19 -8 19 -18l7 -563c-8 -5 -17 -7 -26 -7s-18 2 -26 7l3 192l-102 -23h-4c-10 0 -19 8 -19 18zM129 110l-88 -19l-3 -201l88 19z" fill="currentColor"/>
</g>
<g transform="translate(110.5473, 31.2905)">
<path transform="scale(0.0032, -0.0032)" d="M-175 333h350c7 0 12 -5 12 -12v-303c0 -10 -7 -18 -17 -18s-18 8 -18 18v182h-304v-182c0 -10 -8 -18 -18 -18s-17 8 -17 18v303c0 7 5 12 12 12z" fill="currentColor"/>
</g>
<g transform="translate(109.9981, 32.4318)">
<path transform="scale(0.0032, -0.0032)" d="M310 63c0 22 -17 40 -40 40c-38 0 -197 -107 -224 -139c-7 -8 -10 -17 -10 -27c0 -22 17 -40 40 -40c38 0 197 107 224 139c7 8 10 17 10 27zM256 138c55 0 90 -22 90 -77c0 -25 -15 -112 -73 -151c-34 -23 -92 -48 -183 -48c-55 0 -90 22 -90 77c0 25 15 112 73 151
c34 23 92 48 183 48z" fill="currentColor"/>
</g>
<g transform="translate(110.5473, 29.8142)">
<path transform="scale(0.0032, -0.0032)" d="M-71 49c0 39 32 71 71 71s71 -32 71 -71s-32 -71 -71 -71s-71 32 -71 71zM0 366c257 0 335 -332 335 -369c0 -11 -10 -19 -21 -19c-10 0 -20 7 -23 22c-26 146 -145 259 -291 259s-265 -113 -291 -259c-3 -15 -13 -22 -23 -22c-11 0 -21 8 -21 19c0 37 78 369 335 369z
" fill="currentColor"/>
</g>
</svg>
