<svg xmlns="http://www.w3.org/2000/svg" xmlns:xlink="http://www.w3.org/1999/xlink" version="1.2" width="210.00mm" height="297.00mm" viewBox="0.0000 -0.0000 119.5016 169.0094">
<style type="text/css">
<![CDATA[
tspan { white-space: pre; }
]]>
</style>
<g transform="translate(48.2274, 6.9166)">
<text font-family="Optima" font-weight="bold" font-size="4.3999" text-anchor="start" fill="currentColor">
<tspan>S</tspan>
</text>
</g>
<g transform="translate(50.4126, 6.9166)">
<text font-family="Optima" font-weight="bold" font-size="3.4923" text-anchor="start" fill="currentColor">
<tspan>WING</tspan>
</text>
</g>
<g transform="translate(60.5190, 6.9166)">
<text font-family="Optima" font-weight="bold" font-size="4.3999" text-anchor="start" fill="currentColor">
<tspan> L</tspan>
</text>
</g>
<g transform="translate(63.9333, 6.9166)">
<text font-family="Optima" font-weight="bold" font-size="3.4923" text-anchor="start" fill="currentColor">
<tspan>ICKS</tspan>
</text>
</g>
<g transform="translate(100.6659, 6.9166)">
<text font-family="Optima" font-size="2.2000" text-anchor="start" fill="currentColor">
<tspan>Marc Mouries</tspan>
</text>
</g>
<g transform="translate(110.3949, 25.9141)">
<rect x="0.0000" y="-2.2000" width="0.1900" height="4.4000" ry="0.0000" fill="currentColor"/>
</g>
<g transform="translate(5.6906, 29.2141)">
<rect x="83.7143" y="-0.1050" width="1.9563" height="0.2100" ry="0.1050" fill="currentColor"/>
</g>
<g transform="translate(5.6906, 29.2141)">
<rect x="80.9600" y="-0.1050" width="1.9563" height="0.2100" ry="0.1050" fill="currentColor"/>
</g>
<g transform="translate(5.6906, 30.3141)">
<rect x="80.9600" y="-0.1050" width="1.9563" height="0.2100" ry="0.1050" fill="currentColor"/>
</g>
<g transform="translate(5.6906, 22.6141)">
<rect x="43.3596" y="-0.1050" width="1.9563" height="0.2100" ry="0.1050" fill="currentColor"/>
</g>
<g transform="translate(11.3811, 28.1141)">
<line stroke-linejoin="round" stroke-linecap="round" stroke-width="0.1000" stroke="currentColor" x1="0.0500" y1="0" x2="99.1538" y2="0"/>
</g>
<g transform="translate(11.3811, 27.0141)">
<line stroke-linejoin="round" stroke-linecap="round" stroke-width="0.1000" stroke="currentColor" x1="0.0500" y1="0" x2="99.1538" y2="0"/>
</g>
<g transform="translate(11.3811, 25.9141)">
<line stroke-linejoin="round" stroke-linecap="round" stroke-width="0.1000" stroke="currentColor" x1="0.0500" y1="0" x2="99.1538" y2="0"/>
</g>
<g transform="translate(11.3811, 24.8141)">
<line stroke-linejoin="round" stroke-linecap="round" stroke-width="0.1000" stroke="currentColor" x1="0.0500" y1="0" x2="99.1538" y2="0"/>
</g>
<g transform="translate(11.3811, 23.7141)">
<line stroke-linejoin="round" stroke-linecap="round" stroke-width="0.1000" stroke="currentColor" x1="0.0500" y1="0" x2="99.1538" y2="0"/>
</g>
<g transform="translate(85.8867, 25.9141)">
<rect x="0.0000" y="-2.2000" width="0.1900" height="4.4000" ry="0.0000" fill="currentColor"/>
</g>
<g transform="translate(70.4109, 25.9141)">
<rect x="0.0000" y="-2.2000" width="0.1900" height="4.4000" ry="0.0000" fill="currentColor"/>
</g>
<g transform="translate(42.4614, 25.9141)">
<rect x="0.0000" y="-2.2000" width="0.1900" height="4.4000" ry="0.0000" fill="currentColor"/>
</g>
<g transform="translate(98.8580, 29.0001)">
<polygon stroke-linejoin="round" stroke-linecap="round" stroke-width="0.0800" fill="currentColor" stroke="currentColor" points="9.3726 -1.9960 9.3726 -1.5480 0.0400 0.2240 0.0400 -0.2240"/>
</g>
<g transform="translate(88.1509, 25.7001)">
<polygon stroke-linejoin="round" stroke-linecap="round" stroke-width="0.0800" fill="currentColor" stroke="currentColor" points="9.3726 -1.3240 9.3726 -0.8760 0.0400 0.2240 0.0400 -0.2240"/>
</g>
<a style="color:inherit;" xlink:href="textedit:///Users/Marc/Projects/violin-music.github.io/tunes/Gypsy-Jazz/Swing-Licks/licks_Swing.ly:23:2:3">
<g transform="translate(20.0811, 23.1641)">
<text font-family="sans-serif" font-size="2.6165" text-anchor="start" fill="currentColor">
<tspan>D</tspan>
</text>
</g>
<g transform="translate(22.0956, 21.9749)">
<text font-family="sans-serif" font-size="1.8500" text-anchor="start" fill="currentColor">
<tspan>7</tspan>
</text>
</g>
</a>
<a style="color:inherit;" xlink:href="textedit:///Users/Marc/Projects/violin-music.github.io/tunes/Gypsy-Jazz/Swing-Licks/licks_Swing.ly:28:2:3">
<g transform="translate(20.0811, 28.6641)">
<path transform="scale(0.0040, -0.0040)" d="M218 136c66 0 108 -36 108 -89c0 -89 -113 -183 -218 -183c-66 0 -108 36 -108 89c0 89 113 183 218 183z" fill="currentColor"/>
</g>
</a>
<g transform="translate(12.1811, 27.0141)">
<path transform="scale(0.0040, -0.0040)" d="M266 -635h-6c-108 0 -195 88 -195 197c0 58 53 103 112 103c54 0 95 -47 95 -103c0 -52 -43 -95 -95 -95c-11 0 -21 2 -31 6c26 -39 68 -65 117 -65h4zM461 -203c68 24 113 90 113 164c0 90 -66 179 -173 190c19 -89 48 -242 60 -354zM74 28c0 -145 141 -247 264 -247
c1 0 47 0 82 6c-7 64 -29 203 -63 364c-79 -8 -124 -61 -124 -119c0 -44 25 -91 81 -123c5 -5 7 -10 7 -15c0 -11 -10 -22 -22 -22c-15 0 -126 62 -126 187c0 88 58 174 160 197c-14 58 -29 117 -46 175c-107 -121 -213 -243 -213 -403zM250 553c-29 96 -52 170 -52 346
c0 115 55 224 149 292c6 5 14 5 20 0c68 -80 133 -245 133 -358c0 -143 -86 -255 -180 -364c21 -68 39 -138 56 -207c2 0 7 1 13 1c155 0 256 -128 256 -261c0 -113 -74 -212 -180 -246c3 -35 5 -70 5 -105c0 -19 -1 -39 -2 -58c-7 -119 -88 -225 -202 -228l1 43
c93 2 153 92 159 191c1 18 2 37 2 55c0 31 -1 61 -4 92c-5 -1 -44 -8 -89 -8c-193 0 -333 180 -333 374c0 177 131 306 248 441zM428 916c0 34 1 66 -20 129c-99 -48 -162 -149 -162 -259c0 -52 12 -115 36 -194c80 97 146 198 146 324z" fill="currentColor"/>
</g>
<g transform="translate(16.3811, 25.9141)">
<path transform="scale(0.0040, -0.0040)" d="M250 262c116 0 176 -106 176 -163c0 -40 -30 -72 -67 -72c-31 0 -75 25 -75 75c0 38 27 77 72 77c4 0 9 0 14 -1c-28 37 -72 59 -120 59c-106 0 -113 -73 -113 -186v-51v-51c0 -113 7 -187 113 -187c80 0 139 70 158 151c2 7 7 10 12 10c6 0 13 -4 13 -12
c0 -22 -50 -174 -183 -174c-59 0 -250 19 -250 263c0 62 18 262 250 262z" fill="currentColor"/>
</g>
<a style="color:inherit;" xlink:href="textedit:///Users/Marc/Projects/violin-music.github.io/tunes/Gypsy-Jazz/Swing-Licks/licks_Swing.ly:18:2:3">
<g transform="translate(16.3811, 19.6553)">
<rect x="1.0449" y="-2.6727" width="0.1158" height="2.5129" ry="0.0193" fill="currentColor"/>
</g>
<g transform="translate(16.3811, 19.6553)">
<path transform="scale(0.0036, -0.0036)" d="M215 137c67 0 111 -37 111 -92c0 -90 -111 -182 -215 -182c-67 0 -111 37 -111 92c0 90 111 182 215 182z" fill="currentColor"/>
</g>
<g transform="translate(17.5418, 20.1441)">
<text font-family="serif" font-size="2.2000" text-anchor="start" fill="currentColor">
<tspan> = 200</tspan>
</text>
</g>
</a>
<g transform="translate(21.3203, 25.9141)">
<rect x="-0.0650" y="-0.2191" width="0.1300" height="2.7830" ry="0.0400" fill="currentColor"/>
</g>
<a style="color:inherit;" xlink:href="textedit:///Users/Marc/Projects/violin-music.github.io/tunes/Gypsy-Jazz/Swing-Licks/licks_Swing.ly:32:14:15">
<g transform="translate(96.2593, 25.9141)">
<path stroke-width="0.0800" stroke-linejoin="round" stroke-linecap="round" stroke="currentColor" fill="currentColor" d="M0.4826 0.5550C0.8991 -0.3961 2.1086 -0.9081 3.0814 -0.5450L3.0814 -0.5450C2.1554 -0.7976 0.9459 -0.2856 0.4826 0.5550z"/>
</g>
</a>
<a style="color:inherit;" xlink:href="textedit:///Users/Marc/Projects/violin-music.github.io/tunes/Gypsy-Jazz/Swing-Licks/licks_Swing.ly:28:5:6">
<g transform="translate(23.4353, 28.6641)">
<path transform="scale(0.0040, -0.0040)" d="M218 136c66 0 108 -36 108 -89c0 -89 -113 -183 -218 -183c-66 0 -108 36 -108 89c0 89 113 183 218 183z" fill="currentColor"/>
</g>
</a>
<g transform="translate(24.6745, 25.9141)">
<rect x="-0.0650" y="-0.4846" width="0.1300" height="3.0484" ry="0.0400" fill="currentColor"/>
</g>
<g transform="translate(21.9853, 28.6641)">
<path transform="scale(0.0040, -0.0040)" d="M0 119c0 8 5 15 13 18l46 17v158c0 10 8 19 18 19s19 -9 19 -19v-145l83 31v158c0 10 9 19 19 19s18 -9 18 -19v-145l32 12c2 1 5 1 7 1c11 0 20 -9 20 -20v-60c0 -8 -5 -16 -13 -19l-46 -16v-160l32 11c2 1 5 1 7 1c11 0 20 -9 20 -20v-60c0 -8 -5 -15 -13 -18l-46 -17
v-158c0 -10 -8 -19 -18 -19s-19 9 -19 19v145l-83 -31v-158c0 -10 -9 -19 -19 -19s-18 9 -18 19v145l-32 -12c-2 -1 -5 -1 -7 -1c-11 0 -20 9 -20 20v60c0 8 5 16 13 19l46 16v160l-32 -11c-2 -1 -5 -1 -7 -1c-11 0 -20 9 -20 20v60zM179 95l-83 -30v-160l83 30v160z" fill="currentColor"/>
</g>
<a style="color:inherit;" xlink:href="textedit:///Users/Marc/Projects/violin-music.github.io/tunes/Gypsy-Jazz/Swing-Licks/licks_Swing.ly:32:7:8">
<g transform="translate(89.7309, 25.9141)">
<path stroke-width="0.0800" stroke-linejoin="round" stroke-linecap="round" stroke="currentColor" fill="currentColor" d="M0.7945 4.3950C1.8834 4.8818 3.4145 4.3512 3.9687 3.2950L3.9687 3.2950C3.3752 4.2379 1.8441 4.7684 0.7945 4.3950z"/>
</g>
</a>
<a style="color:inherit;" xlink:href="textedit:///Users/Marc/Projects/violin-music.github.io/tunes/Gypsy-Jazz/Swing-Licks/licks_Swing.ly:28:9:10">
<g transform="translate(25.9395, 28.1141)">
<path transform="scale(0.0040, -0.0040)" d="M218 136c66 0 108 -36 108 -89c0 -89 -113 -183 -218 -183c-66 0 -108 36 -108 89c0 89 113 183 218 183z" fill="currentColor"/>
</g>
</a>
<g transform="translate(27.1787, 25.9141)">
<rect x="-0.0650" y="-0.6827" width="0.1300" height="2.6966" ry="0.0400" fill="currentColor"/>
</g>
<g transform="translate(72.6751, 22.6141)">
<polygon stroke-linejoin="round" stroke-linecap="round" stroke-width="0.0800" fill="currentColor" stroke="currentColor" points="2.5942 -0.0100 2.5942 0.4380 0.0400 0.2240 0.0400 -0.2240"/>
</g>
<a style="color:inherit;" xlink:href="textedit:///Users/Marc/Projects/violin-music.github.io/tunes/Gypsy-Jazz/Swing-Licks/licks_Swing.ly:28:12:13">
<g transform="translate(28.4437, 27.5641)">
<path transform="scale(0.0040, -0.0040)" d="M218 136c66 0 108 -36 108 -89c0 -89 -113 -183 -218 -183c-66 0 -108 36 -108 89c0 89 113 183 218 183z" fill="currentColor"/>
</g>
</a>
<g transform="translate(29.6829, 25.9141)">
<rect x="-0.0650" y="-0.8809" width="0.1300" height="2.3448" ry="0.0400" fill="currentColor"/>
</g>
<g transform="translate(59.8891, 27.9001)">
<polygon stroke-linejoin="round" stroke-linecap="round" stroke-width="0.0800" fill="currentColor" stroke="currentColor" points="8.2026 1.0900 8.2026 1.5380 0.0400 0.2240 0.0400 -0.2240"/>
</g>
<a style="color:inherit;" xlink:href="textedit:///Users/Marc/Projects/violin-music.github.io/tunes/Gypsy-Jazz/Swing-Licks/licks_Swing.ly:28:15:16">
<g transform="translate(31.7979, 27.5641)">
<path transform="scale(0.0040, -0.0040)" d="M218 136c66 0 108 -36 108 -89c0 -89 -113 -183 -218 -183c-66 0 -108 36 -108 89c0 89 113 183 218 183z" fill="currentColor"/>
</g>
</a>
<g transform="translate(33.0372, 25.9141)">
<rect x="-0.0650" y="-2.2123" width="0.1300" height="3.6762" ry="0.0400" fill="currentColor"/>
</g>
<g transform="translate(30.3479, 27.5641)">
<path transform="scale(0.0040, -0.0040)" d="M0 119c0 8 5 15 13 18l46 17v158c0 10 8 19 18 19s19 -9 19 -19v-145l83 31v158c0 10 9 19 19 19s18 -9 18 -19v-145l32 12c2 1 5 1 7 1c11 0 20 -9 20 -20v-60c0 -8 -5 -16 -13 -19l-46 -16v-160l32 11c2 1 5 1 7 1c11 0 20 -9 20 -20v-60c0 -8 -5 -15 -13 -18l-46 -17
v-158c0 -10 -8 -19 -18 -19s-19 9 -19 19v145l-83 -31v-158c0 -10 -9 -19 -19 -19s-18 9 -18 19v145l-32 -12c-2 -1 -5 -1 -7 -1c-11 0 -20 9 -20 20v60c0 8 5 16 13 19l46 16v160l-32 -11c-2 -1 -5 -1 -7 -1c-11 0 -20 9 -20 20v60zM179 95l-83 -30v-160l83 30v160z" fill="currentColor"/>
</g>
<a style="color:inherit;" xlink:href="textedit:///Users/Marc/Projects/violin-music.github.io/tunes/Gypsy-Jazz/Swing-Licks/licks_Swing.ly:30:5:6">
<g transform="translate(62.3933, 25.9141)">
<path stroke-width="0.0800" stroke-linejoin="round" stroke-linecap="round" stroke="currentColor" fill="currentColor" d="M0.7427 -2.3600C1.7803 -2.9868 3.4052 -2.6404 4.0970 -1.6450L4.0970 -1.6450C3.3802 -2.5231 1.7552 -2.8695 0.7427 -2.3600z"/>
</g>
</a>
<a style="color:inherit;" xlink:href="textedit:///Users/Marc/Projects/violin-music.github.io/tunes/Gypsy-Jazz/Swing-Licks/licks_Swing.ly:28:19:20">
<g transform="translate(34.5522, 26.4641)">
<path transform="scale(0.0040, -0.0040)" d="M218 136c66 0 108 -36 108 -89c0 -89 -113 -183 -218 -183c-66 0 -108 36 -108 89c0 89 113 183 218 183z" fill="currentColor"/>
</g>
</a>
<g transform="translate(35.7914, 25.9141)">
<rect x="-0.0650" y="-2.7321" width="0.1300" height="3.0960" ry="0.0400" fill="currentColor"/>
</g>
<g transform="translate(52.7305, 26.8001)">
<polygon stroke-linejoin="round" stroke-linecap="round" stroke-width="0.0800" fill="currentColor" stroke="currentColor" points="5.1444 -0.0100 5.1444 0.4380 0.0400 0.2240 0.0400 -0.2240"/>
</g>
<a style="color:inherit;" xlink:href="textedit:///Users/Marc/Projects/violin-music.github.io/tunes/Gypsy-Jazz/Swing-Licks/licks_Swing.ly:28:21:22">
<g transform="translate(37.9064, 25.3641)">
<path transform="scale(0.0040, -0.0040)" d="M218 136c66 0 108 -36 108 -89c0 -89 -113 -183 -218 -183c-66 0 -108 36 -108 89c0 89 113 183 218 183z" fill="currentColor"/>
</g>
</a>
<g transform="translate(39.1456, 25.9141)">
<rect x="-0.0650" y="-3.3651" width="0.1300" height="2.6290" ry="0.0400" fill="currentColor"/>
</g>
<g transform="translate(36.4564, 25.3641)">
<path transform="scale(0.0040, -0.0040)" d="M0 119c0 8 5 15 13 18l46 17v158c0 10 8 19 18 19s19 -9 19 -19v-145l83 31v158c0 10 9 19 19 19s18 -9 18 -19v-145l32 12c2 1 5 1 7 1c11 0 20 -9 20 -20v-60c0 -8 -5 -16 -13 -19l-46 -16v-160l32 11c2 1 5 1 7 1c11 0 20 -9 20 -20v-60c0 -8 -5 -15 -13 -18l-46 -17
v-158c0 -10 -8 -19 -18 -19s-19 9 -19 19v145l-83 -31v-158c0 -10 -9 -19 -19 -19s-18 9 -18 19v145l-32 -12c-2 -1 -5 -1 -7 -1c-11 0 -20 9 -20 20v60c0 8 5 16 13 19l46 16v160l-32 -11c-2 -1 -5 -1 -7 -1c-11 0 -20 9 -20 20v60zM179 95l-83 -30v-160l83 30v160z" fill="currentColor"/>
</g>
<g transform="translate(46.6220, 26.8001)">
<polygon stroke-linejoin="round" stroke-linecap="round" stroke-width="0.0800" fill="currentColor" stroke="currentColor" points="2.8442 -0.8960 2.8442 -0.4480 0.0400 0.2240 0.0400 -0.2240"/>
</g>
<a style="color:inherit;" xlink:href="textedit:///Users/Marc/Projects/violin-music.github.io/tunes/Gypsy-Jazz/Swing-Licks/licks_Swing.ly:28:24:25">
<g transform="translate(40.4106, 24.8141)">
<path transform="scale(0.0040, -0.0040)" d="M218 136c66 0 108 -36 108 -89c0 -89 -113 -183 -218 -183c-66 0 -108 36 -108 89c0 89 113 183 218 183z" fill="currentColor"/>
</g>
</a>
<g transform="translate(41.6498, 25.9141)">
<rect x="-0.0650" y="-3.8377" width="0.1300" height="2.5516" ry="0.0400" fill="currentColor"/>
</g>
<a style="color:inherit;" xlink:href="textedit:///Users/Marc/Projects/violin-music.github.io/tunes/Gypsy-Jazz/Swing-Licks/licks_Swing.ly:29:27:28">
<g transform="translate(54.8788, 28.8535)">
<text font-family="serif" font-style="italic" font-size="1.7459" text-anchor="start" fill="currentColor">
<tspan>3</tspan>
</text>
</g>
</a>
<a style="color:inherit;" xlink:href="textedit:///Users/Marc/Projects/violin-music.github.io/tunes/Gypsy-Jazz/Swing-Licks/licks_Swing.ly:29:27:28">
</a>
<a style="color:inherit;" xlink:href="textedit:///Users/Marc/Projects/violin-music.github.io/tunes/Gypsy-Jazz/Swing-Licks/licks_Swing.ly:29:17:18">
<g transform="translate(43.3334, 23.7141)">
<path transform="scale(0.0028, -0.0028)" d="M208 139c69 0 117 -40 117 -99c0 -91 -107 -179 -209 -179c-69 0 -116 40 -116 99c0 91 106 179 208 179z" fill="currentColor"/>
</g>
</a>
<g transform="translate(44.1863, 25.9141)">
<rect x="-0.0650" y="-4.8400" width="0.1300" height="2.5256" ry="0.0400" fill="currentColor"/>
</g>
<g transform="translate(44.2513, 21.1141)">
<path transform="scale(0.0028, -0.0028)" d="M115 -723c0 12 43 85 43 193c0 101 -90 205 -158 280h-21v250h21c0 -196 207 -334 207 -530c0 -71 -15 -140 -41 -206c-5 -10 -14 -13 -23 -13c-14 0 -28 10 -28 26z" fill="currentColor"/>
</g>
<a style="color:inherit;" xlink:href="textedit:///Users/Marc/Projects/violin-music.github.io/tunes/Gypsy-Jazz/Swing-Licks/licks_Swing.ly:29:43:44">
<g transform="translate(52.7305, 25.9141)">
<path stroke-width="0.0800" stroke-linejoin="round" stroke-linecap="round" stroke="currentColor" fill="currentColor" d="M0.6521 -3.8450C1.8417 -4.9331 4.5169 -4.9331 5.7065 -3.8450L5.7065 -3.8450C4.5169 -4.8131 1.8417 -4.8131 0.6521 -3.8450z"/>
</g>
</a>
<g transform="translate(32.9722, 23.7141)">
<polygon stroke-linejoin="round" stroke-linecap="round" stroke-width="0.0800" fill="currentColor" stroke="currentColor" points="8.7026 -1.8740 8.7026 -1.4260 0.0400 0.2240 0.0400 -0.2240"/>
</g>
<a style="color:inherit;" xlink:href="textedit:///Users/Marc/Projects/violin-music.github.io/tunes/Gypsy-Jazz/Swing-Licks/licks_Swing.ly:29:21:22">
<g transform="translate(46.6220, 23.7141)">
<path transform="scale(0.0040, -0.0040)" d="M218 136c66 0 108 -36 108 -89c0 -89 -113 -183 -218 -183c-66 0 -108 36 -108 89c0 89 113 183 218 183z" fill="currentColor"/>
</g>
</a>
<g transform="translate(46.6870, 25.9141)">
<rect x="-0.0650" y="-2.0139" width="0.1300" height="2.8847" ry="0.0400" fill="currentColor"/>
</g>
<g transform="translate(45.1720, 23.7141)">
<path transform="scale(0.0040, -0.0040)" d="M0 119c0 8 5 15 13 18l46 17v158c0 10 8 19 18 19s19 -9 19 -19v-145l83 31v158c0 10 9 19 19 19s18 -9 18 -19v-145l32 12c2 1 5 1 7 1c11 0 20 -9 20 -20v-60c0 -8 -5 -16 -13 -19l-46 -16v-160l32 11c2 1 5 1 7 1c11 0 20 -9 20 -20v-60c0 -8 -5 -15 -13 -18l-46 -17
v-158c0 -10 -8 -19 -18 -19s-19 9 -19 19v145l-83 -31v-158c0 -10 -9 -19 -19 -19s-18 9 -18 19v145l-32 -12c-2 -1 -5 -1 -7 -1c-11 0 -20 9 -20 20v60c0 8 5 16 13 19l46 16v160l-32 -11c-2 -1 -5 -1 -7 -1c-11 0 -20 9 -20 20v60zM179 95l-83 -30v-160l83 30v160z" fill="currentColor"/>
</g>
<a style="color:inherit;" xlink:href="textedit:///Users/Marc/Projects/violin-music.github.io/tunes/Gypsy-Jazz/Swing-Licks/licks_Swing.ly:29:25:26">
<g transform="translate(49.3762, 22.6141)">
<path transform="scale(0.0040, -0.0040)" d="M218 136c66 0 108 -36 108 -89c0 -89 -113 -183 -218 -183c-66 0 -108 36 -108 89c0 89 113 183 218 183z" fill="currentColor"/>
</g>
</a>
<g transform="translate(49.4412, 25.9141)">
<rect x="-0.0650" y="-3.1139" width="0.1300" height="3.3430" ry="0.0400" fill="currentColor"/>
</g>
<a style="color:inherit;" xlink:href="textedit:///opt/local/share/lilypond/2.24.4/ly/grace-init.ly:33:6:7">
<g transform="translate(43.3334, 25.9141)">
<path stroke-width="0.0800" stroke-linejoin="round" stroke-linecap="round" stroke="currentColor" fill="currentColor" d="M0.3599 -1.2560C0.8449 -0.3563 2.0638 0.0452 2.9886 -0.3900L2.9886 -0.3900C2.1014 -0.0688 0.8825 -0.4703 0.3599 -1.2560z"/>
</g>
</a>
<a style="color:inherit;" xlink:href="textedit:///Users/Marc/Projects/violin-music.github.io/tunes/Gypsy-Jazz/Swing-Licks/licks_Swing.ly:29:40:41">
<g transform="translate(52.7305, 23.1641)">
<path transform="scale(0.0040, -0.0040)" d="M218 136c66 0 108 -36 108 -89c0 -89 -113 -183 -218 -183c-66 0 -108 36 -108 89c0 89 113 183 218 183z" fill="currentColor"/>
</g>
</a>
<g transform="translate(52.7955, 25.9141)">
<rect x="-0.0650" y="-2.5639" width="0.1300" height="3.4526" ry="0.0400" fill="currentColor"/>
</g>
<g transform="translate(51.2805, 23.1641)">
<path transform="scale(0.0040, -0.0040)" d="M0 119c0 8 5 15 13 18l46 17v158c0 10 8 19 18 19s19 -9 19 -19v-145l83 31v158c0 10 9 19 19 19s18 -9 18 -19v-145l32 12c2 1 5 1 7 1c11 0 20 -9 20 -20v-60c0 -8 -5 -16 -13 -19l-46 -16v-160l32 11c2 1 5 1 7 1c11 0 20 -9 20 -20v-60c0 -8 -5 -15 -13 -18l-46 -17
v-158c0 -10 -8 -19 -18 -19s-19 9 -19 19v145l-83 -31v-158c0 -10 -9 -19 -19 -19s-18 9 -18 19v145l-32 -12c-2 -1 -5 -1 -7 -1c-11 0 -20 9 -20 20v60c0 8 5 16 13 19l46 16v160l-32 -11c-2 -1 -5 -1 -7 -1c-11 0 -20 9 -20 20v60zM179 95l-83 -30v-160l83 30v160z" fill="currentColor"/>
</g>
<g transform="translate(21.2553, 25.7001)">
<polygon stroke-linejoin="round" stroke-linecap="round" stroke-width="0.0800" fill="currentColor" stroke="currentColor" points="8.4526 -0.8960 8.4526 -0.4480 0.0400 0.2240 0.0400 -0.2240"/>
</g>
<a style="color:inherit;" xlink:href="textedit:///Users/Marc/Projects/violin-music.github.io/tunes/Gypsy-Jazz/Swing-Licks/licks_Swing.ly:29:45:46">
<g transform="translate(55.6807, 23.1641)">
<path transform="scale(0.0040, -0.0040)" d="M218 136c66 0 108 -36 108 -89c0 -89 -113 -183 -218 -183c-66 0 -108 36 -108 89c0 89 113 183 218 183z" fill="currentColor"/>
</g>
</a>
<g transform="translate(55.7457, 25.9141)">
<rect x="-0.0650" y="-2.5639" width="0.1300" height="3.5744" ry="0.0400" fill="currentColor"/>
</g>
<g transform="translate(54.6347, 23.1641)">
<path transform="scale(0.0040, -0.0040)" d="M-7 375c8 4 17 7 25 7s16 -3 24 -7l-2 -183l106 20h3c10 0 18 -7 18 -17l7 -570c-8 -4 -17 -7 -25 -7s-16 3 -24 7l2 183l-106 -20h-3c-10 0 -18 7 -18 17zM131 112l-92 -17l-3 -207l92 17z" fill="currentColor"/>
</g>
<a style="color:inherit;" xlink:href="textedit:///Users/Marc/Projects/violin-music.github.io/tunes/Gypsy-Jazz/Swing-Licks/licks_Swing.ly:28:13:14">
<g transform="translate(28.4437, 25.9141)">
<path stroke-width="0.0800" stroke-linejoin="round" stroke-linecap="round" stroke="currentColor" fill="currentColor" d="M0.6521 2.7450C1.5206 3.5606 3.1379 3.5606 4.0063 2.7450L4.0063 2.7450C3.1379 3.4406 1.5206 3.4406 0.6521 2.7450z"/>
</g>
</a>
<a style="color:inherit;" xlink:href="textedit:///Users/Marc/Projects/violin-music.github.io/tunes/Gypsy-Jazz/Swing-Licks/licks_Swing.ly:29:47:48">
<g transform="translate(57.7849, 23.7141)">
<path transform="scale(0.0040, -0.0040)" d="M218 136c66 0 108 -36 108 -89c0 -89 -113 -183 -218 -183c-66 0 -108 36 -108 89c0 89 113 183 218 183z" fill="currentColor"/>
</g>
</a>
<g transform="translate(57.8499, 25.9141)">
<rect x="-0.0650" y="-2.0139" width="0.1300" height="3.1112" ry="0.0400" fill="currentColor"/>
</g>
<a style="color:inherit;" xlink:href="textedit:///Users/Marc/Projects/violin-music.github.io/tunes/Gypsy-Jazz/Swing-Licks/licks_Swing.ly:28:7:8">
<g transform="translate(23.4353, 25.9141)">
<path stroke-width="0.0800" stroke-linejoin="round" stroke-linecap="round" stroke="currentColor" fill="currentColor" d="M0.7454 3.8450C1.5672 4.3414 2.7114 4.0901 3.2496 3.2950L3.2496 3.2950C2.6857 3.9729 1.5414 4.2242 0.7454 3.8450z"/>
</g>
</a>
<a style="color:inherit;" xlink:href="textedit:///Users/Marc/Projects/violin-music.github.io/tunes/Gypsy-Jazz/Swing-Licks/licks_Swing.ly:30:2:3">
<g transform="translate(59.8891, 24.2641)">
<path transform="scale(0.0040, -0.0040)" d="M218 136c66 0 108 -36 108 -89c0 -89 -113 -183 -218 -183c-66 0 -108 36 -108 89c0 89 113 183 218 183z" fill="currentColor"/>
</g>
</a>
<g transform="translate(59.9541, 25.9141)">
<rect x="-0.0650" y="-1.4639" width="0.1300" height="3.4603" ry="0.0400" fill="currentColor"/>
</g>
<a style="color:inherit;" xlink:href="textedit:///Users/Marc/Projects/violin-music.github.io/tunes/Gypsy-Jazz/Swing-Licks/licks_Swing.ly:30:4:5">
<g transform="translate(62.3933, 24.8141)">
<path transform="scale(0.0040, -0.0040)" d="M218 136c66 0 108 -36 108 -89c0 -89 -113 -183 -218 -183c-66 0 -108 36 -108 89c0 89 113 183 218 183z" fill="currentColor"/>
</g>
</a>
<g transform="translate(62.4583, 25.9141)">
<rect x="-0.0650" y="-0.9139" width="0.1300" height="3.3095" ry="0.0400" fill="currentColor"/>
</g>
<a style="color:inherit;" xlink:href="textedit:///Users/Marc/Projects/violin-music.github.io/tunes/Gypsy-Jazz/Swing-Licks/licks_Swing.ly:30:7:8">
<g transform="translate(65.7475, 25.3641)">
<path transform="scale(0.0040, -0.0040)" d="M218 136c66 0 108 -36 108 -89c0 -89 -113 -183 -218 -183c-66 0 -108 36 -108 89c0 89 113 183 218 183z" fill="currentColor"/>
</g>
</a>
<g transform="translate(65.8125, 25.9141)">
<rect x="-0.0650" y="-0.3639" width="0.1300" height="3.2942" ry="0.0400" fill="currentColor"/>
</g>
<g transform="translate(64.2975, 25.3641)">
<path transform="scale(0.0040, -0.0040)" d="M0 119c0 8 5 15 13 18l46 17v158c0 10 8 19 18 19s19 -9 19 -19v-145l83 31v158c0 10 9 19 19 19s18 -9 18 -19v-145l32 12c2 1 5 1 7 1c11 0 20 -9 20 -20v-60c0 -8 -5 -16 -13 -19l-46 -16v-160l32 11c2 1 5 1 7 1c11 0 20 -9 20 -20v-60c0 -8 -5 -15 -13 -18l-46 -17
v-158c0 -10 -8 -19 -18 -19s-19 9 -19 19v145l-83 -31v-158c0 -10 -9 -19 -19 -19s-18 9 -18 19v145l-32 -12c-2 -1 -5 -1 -7 -1c-11 0 -20 9 -20 20v60c0 8 5 16 13 19l46 16v160l-32 -11c-2 -1 -5 -1 -7 -1c-11 0 -20 9 -20 20v60zM179 95l-83 -30v-160l83 30v160z" fill="currentColor"/>
</g>
<a style="color:inherit;" xlink:href="textedit:///Users/Marc/Projects/violin-music.github.io/tunes/Gypsy-Jazz/Swing-Licks/licks_Swing.ly:30:11:12">
<g transform="translate(68.0017, 26.4641)">
<path transform="scale(0.0040, -0.0040)" d="M218 136c66 0 108 -36 108 -89c0 -89 -113 -183 -218 -183c-66 0 -108 36 -108 89c0 89 113 183 218 183z" fill="currentColor"/>
</g>
</a>
<g transform="translate(68.0667, 25.9141)">
<rect x="-0.0650" y="0.7361" width="0.1300" height="2.5535" ry="0.0400" fill="currentColor"/>
</g>
<a style="color:inherit;" xlink:href="textedit:///Users/Marc/Projects/violin-music.github.io/tunes/Gypsy-Jazz/Swing-Licks/licks_Swing.ly:31:2:3">
<g transform="translate(71.5009, 25.9141)">
<path transform="scale(0.0040, -0.0040)" d="M218 136c66 0 108 -36 108 -89c0 -89 -113 -183 -218 -183c-66 0 -108 36 -108 89c0 89 113 183 218 183z" fill="currentColor"/>
</g>
</a>
<g transform="translate(72.7401, 25.9141)">
<rect x="-0.0650" y="-3.2947" width="0.1300" height="3.1086" ry="0.0400" fill="currentColor"/>
</g>
<a style="color:inherit;" xlink:href="textedit:///Users/Marc/Projects/violin-music.github.io/tunes/Gypsy-Jazz/Swing-Licks/licks_Swing.ly:31:5:6">
<g transform="translate(74.0051, 26.4641)">
<path transform="scale(0.0040, -0.0040)" d="M218 136c66 0 108 -36 108 -89c0 -89 -113 -183 -218 -183c-66 0 -108 36 -108 89c0 89 113 183 218 183z" fill="currentColor"/>
</g>
</a>
<g transform="translate(75.2443, 25.9141)">
<rect x="-0.0650" y="-3.0913" width="0.1300" height="3.4552" ry="0.0400" fill="currentColor"/>
</g>
<a style="color:inherit;" xlink:href="textedit:///Users/Marc/Projects/violin-music.github.io/tunes/Gypsy-Jazz/Swing-Licks/licks_Swing.ly:31:7:8">
<g transform="translate(76.5093, 25.9141)">
<path transform="scale(0.0040, -0.0040)" d="M70 205c79 0 46 -98 91 -98c16 0 54 48 61 63c6 12 23 12 28 0l-123 -420c-8 -7 -17 -10 -27 -10s-20 3 -28 10l117 326c-34 -12 -69 -22 -105 -22c-47 0 -87 34 -87 79c0 40 33 72 73 72z" fill="currentColor"/>
</g>
</a>
<a style="color:inherit;" xlink:href="textedit:///Users/Marc/Projects/violin-music.github.io/tunes/Gypsy-Jazz/Swing-Licks/licks_Swing.ly:31:10:11">
<g transform="translate(78.7093, 28.1141)">
<path transform="scale(0.0040, -0.0040)" d="M314 65c0 23 -19 41 -42 41c-39 0 -204 -110 -231 -143c-7 -8 -10 -18 -10 -28c0 -23 19 -41 42 -41c39 0 203 110 230 143c7 8 11 18 11 28zM262 136c41 0 82 -14 82 -71c0 -26 -16 -112 -74 -151c-25 -17 -87 -50 -187 -50c-41 0 -83 14 -83 71c0 26 16 112 74 151
c25 17 88 50 188 50z" fill="currentColor"/>
</g>
</a>
<g transform="translate(80.0217, 25.9141)">
<rect x="-0.0650" y="-1.6500" width="0.1300" height="3.5910" ry="0.0400" fill="currentColor"/>
</g>
<a style="color:inherit;" xlink:href="textedit:///Users/Marc/Projects/violin-music.github.io/tunes/Gypsy-Jazz/Swing-Licks/licks_Swing.ly:31:13:14">
<g transform="translate(83.6867, 25.9141)">
<path transform="scale(0.0040, -0.0040)" d="M70 205c79 0 46 -98 91 -98c16 0 54 48 61 63c6 12 23 12 28 0l-123 -420c-8 -7 -17 -10 -27 -10s-20 3 -28 10l117 326c-34 -12 -69 -22 -105 -22c-47 0 -87 34 -87 79c0 40 33 72 73 72z" fill="currentColor"/>
</g>
</a>
<a style="color:inherit;" xlink:href="textedit:///Users/Marc/Projects/violin-music.github.io/tunes/Gypsy-Jazz/Swing-Licks/licks_Swing.ly:32:2:3">
<g transform="translate(86.9767, 30.3141)">
<path transform="scale(0.0040, -0.0040)" d="M218 136c66 0 108 -36 108 -89c0 -89 -113 -183 -218 -183c-66 0 -108 36 -108 89c0 89 113 183 218 183z" fill="currentColor"/>
</g>
</a>
<g transform="translate(88.2159, 25.9141)">
<rect x="-0.0650" y="-0.2216" width="0.1300" height="4.4355" ry="0.0400" fill="currentColor"/>
</g>
<a style="color:inherit;" xlink:href="textedit:///Users/Marc/Projects/violin-music.github.io/tunes/Gypsy-Jazz/Swing-Licks/licks_Swing.ly:32:6:7">
<g transform="translate(89.7309, 29.2141)">
<path transform="scale(0.0040, -0.0040)" d="M218 136c66 0 108 -36 108 -89c0 -89 -113 -183 -218 -183c-66 0 -108 36 -108 89c0 89 113 183 218 183z" fill="currentColor"/>
</g>
</a>
<g transform="translate(90.9701, 25.9141)">
<rect x="-0.0650" y="-0.5435" width="0.1300" height="3.6574" ry="0.0400" fill="currentColor"/>
</g>
<g transform="translate(106.6907, 23.7141)">
<path transform="scale(0.0040, -0.0040)" d="M0 119c0 8 5 15 13 18l46 17v158c0 10 8 19 18 19s19 -9 19 -19v-145l83 31v158c0 10 9 19 19 19s18 -9 18 -19v-145l32 12c2 1 5 1 7 1c11 0 20 -9 20 -20v-60c0 -8 -5 -16 -13 -19l-46 -16v-160l32 11c2 1 5 1 7 1c11 0 20 -9 20 -20v-60c0 -8 -5 -15 -13 -18l-46 -17
v-158c0 -10 -8 -19 -18 -19s-19 9 -19 19v145l-83 -31v-158c0 -10 -9 -19 -19 -19s-18 9 -18 19v145l-32 -12c-2 -1 -5 -1 -7 -1c-11 0 -20 9 -20 20v60c0 8 5 16 13 19l46 16v160l-32 -11c-2 -1 -5 -1 -7 -1c-11 0 -20 9 -20 20v60zM179 95l-83 -30v-160l83 30v160z" fill="currentColor"/>
</g>
<a style="color:inherit;" xlink:href="textedit:///Users/Marc/Projects/violin-music.github.io/tunes/Gypsy-Jazz/Swing-Licks/licks_Swing.ly:32:8:9">
<g transform="translate(92.9051, 28.1141)">
<path transform="scale(0.0040, -0.0040)" d="M218 136c66 0 108 -36 108 -89c0 -89 -113 -183 -218 -183c-66 0 -108 36 -108 89c0 89 113 183 218 183z" fill="currentColor"/>
</g>
</a>
<g transform="translate(94.1443, 25.9141)">
<rect x="-0.0650" y="-0.9144" width="0.1300" height="2.9283" ry="0.0400" fill="currentColor"/>
</g>
<g transform="translate(91.7551, 28.1141)">
<path transform="scale(0.0040, -0.0040)" d="M27 41l-1 -66v-11c0 -22 1 -44 4 -66c45 38 93 80 93 139c0 33 -14 67 -43 67c-31 0 -52 -30 -53 -63zM-15 -138l-12 595c8 5 18 8 27 8s19 -3 27 -8l-7 -345c25 21 58 34 91 34c52 0 89 -48 89 -102c0 -80 -86 -117 -147 -169c-15 -13 -24 -38 -45 -38
c-13 0 -23 11 -23 25z" fill="currentColor"/>
</g>
<a style="color:inherit;" xlink:href="textedit:///Users/Marc/Projects/violin-music.github.io/tunes/Gypsy-Jazz/Swing-Licks/licks_Swing.ly:32:12:13">
<g transform="translate(96.2593, 27.5641)">
<path transform="scale(0.0040, -0.0040)" d="M218 136c66 0 108 -36 108 -89c0 -89 -113 -183 -218 -183c-66 0 -108 36 -108 89c0 89 113 183 218 183z" fill="currentColor"/>
</g>
</a>
<g transform="translate(97.4985, 25.9141)">
<rect x="-0.0650" y="-1.3064" width="0.1300" height="2.7703" ry="0.0400" fill="currentColor"/>
</g>
<g transform="translate(94.8093, 27.5641)">
<path transform="scale(0.0040, -0.0040)" d="M0 119c0 8 5 15 13 18l46 17v158c0 10 8 19 18 19s19 -9 19 -19v-145l83 31v158c0 10 9 19 19 19s18 -9 18 -19v-145l32 12c2 1 5 1 7 1c11 0 20 -9 20 -20v-60c0 -8 -5 -16 -13 -19l-46 -16v-160l32 11c2 1 5 1 7 1c11 0 20 -9 20 -20v-60c0 -8 -5 -15 -13 -18l-46 -17
v-158c0 -10 -8 -19 -18 -19s-19 9 -19 19v145l-83 -31v-158c0 -10 -9 -19 -19 -19s-18 9 -18 19v145l-32 -12c-2 -1 -5 -1 -7 -1c-11 0 -20 9 -20 20v60c0 8 5 16 13 19l46 16v160l-32 -11c-2 -1 -5 -1 -7 -1c-11 0 -20 9 -20 20v60zM179 95l-83 -30v-160l83 30v160z" fill="currentColor"/>
</g>
<a style="color:inherit;" xlink:href="textedit:///Users/Marc/Projects/violin-music.github.io/tunes/Gypsy-Jazz/Swing-Licks/licks_Swing.ly:32:16:17">
<g transform="translate(98.8580, 26.4641)">
<path transform="scale(0.0040, -0.0040)" d="M218 136c66 0 108 -36 108 -89c0 -89 -113 -183 -218 -183c-66 0 -108 36 -108 89c0 89 113 183 218 183z" fill="currentColor"/>
</g>
</a>
<g transform="translate(98.9230, 25.9141)">
<rect x="-0.0650" y="0.7361" width="0.1300" height="2.3377" ry="0.0400" fill="currentColor"/>
</g>
<a style="color:inherit;" xlink:href="textedit:///Users/Marc/Projects/violin-music.github.io/tunes/Gypsy-Jazz/Swing-Licks/licks_Swing.ly:32:19:20">
<g transform="translate(101.6122, 25.3641)">
<path transform="scale(0.0040, -0.0040)" d="M218 136c66 0 108 -36 108 -89c0 -89 -113 -183 -218 -183c-66 0 -108 36 -108 89c0 89 113 183 218 183z" fill="currentColor"/>
</g>
</a>
<g transform="translate(101.6772, 25.9141)">
<rect x="-0.0650" y="-0.3639" width="0.1300" height="2.9192" ry="0.0400" fill="currentColor"/>
</g>
<a style="color:inherit;" xlink:href="textedit:///Users/Marc/Projects/violin-music.github.io/tunes/Gypsy-Jazz/Swing-Licks/licks_Swing.ly:32:21:22">
<g transform="translate(104.7865, 24.2641)">
<path transform="scale(0.0040, -0.0040)" d="M218 136c66 0 108 -36 108 -89c0 -89 -113 -183 -218 -183c-66 0 -108 36 -108 89c0 89 113 183 218 183z" fill="currentColor"/>
</g>
</a>
<g transform="translate(104.8515, 25.9141)">
<rect x="-0.0650" y="-1.4639" width="0.1300" height="3.4216" ry="0.0400" fill="currentColor"/>
</g>
<g transform="translate(103.6365, 24.2641)">
<path transform="scale(0.0040, -0.0040)" d="M27 41l-1 -66v-11c0 -22 1 -44 4 -66c45 38 93 80 93 139c0 33 -14 67 -43 67c-31 0 -52 -30 -53 -63zM-15 -138l-12 595c8 5 18 8 27 8s19 -3 27 -8l-7 -345c25 21 58 34 91 34c52 0 89 -48 89 -102c0 -80 -86 -117 -147 -169c-15 -13 -24 -38 -45 -38
c-13 0 -23 11 -23 25z" fill="currentColor"/>
</g>
<g transform="translate(108.2057, 25.9141)">
<rect x="-0.0650" y="-2.0139" width="0.1300" height="3.3401" ry="0.0400" fill="currentColor"/>
</g>
<a style="color:inherit;" xlink:href="textedit:///Users/Marc/Projects/violin-music.github.io/tunes/Gypsy-Jazz/Swing-Licks/licks_Swing.ly:32:24:25">
<g transform="translate(108.1407, 23.7141)">
<path transform="scale(0.0040, -0.0040)" d="M218 136c66 0 108 -36 108 -89c0 -89 -113 -183 -218 -183c-66 0 -108 36 -108 89c0 89 113 183 218 183z" fill="currentColor"/>
</g>
</a>
<g transform="translate(98.1039, 40.6454)">
<rect x="0.0000" y="-2.2000" width="0.1900" height="4.4000" ry="0.0000" fill="currentColor"/>
</g>
<g transform="translate(5.6906, 43.9454)">
<rect x="87.3831" y="-0.1050" width="1.9563" height="0.2100" ry="0.1050" fill="currentColor"/>
</g>
<g transform="translate(5.6906, 43.9454)">
<rect x="82.1247" y="-0.1050" width="1.9563" height="0.2100" ry="0.1050" fill="currentColor"/>
</g>
<g transform="translate(5.6906, 45.0454)">
<rect x="82.1247" y="-0.1050" width="1.9563" height="0.2100" ry="0.1050" fill="currentColor"/>
</g>
<g transform="translate(5.6906, 43.9454)">
<rect x="79.6205" y="-0.1050" width="1.9563" height="0.2100" ry="0.1050" fill="currentColor"/>
</g>
<g transform="translate(5.6906, 45.0454)">
<rect x="79.6205" y="-0.1050" width="1.9563" height="0.2100" ry="0.1050" fill="currentColor"/>
</g>
<g transform="translate(5.6906, 43.9454)">
<rect x="77.3663" y="-0.1050" width="1.9563" height="0.2100" ry="0.1050" fill="currentColor"/>
</g>
<g transform="translate(5.6906, 43.9454)">
<rect x="74.8621" y="-0.1050" width="1.9563" height="0.2100" ry="0.1050" fill="currentColor"/>
</g>
<g transform="translate(5.6906, 45.0454)">
<rect x="74.8621" y="-0.1050" width="1.9563" height="0.2100" ry="0.1050" fill="currentColor"/>
</g>
<g transform="translate(5.6906, 37.3454)">
<rect x="25.8692" y="-0.1050" width="1.9563" height="0.2100" ry="0.1050" fill="currentColor"/>
</g>
<g transform="translate(5.6906, 37.3454)">
<rect x="22.0664" y="-0.1050" width="1.9563" height="0.2100" ry="0.1050" fill="currentColor"/>
</g>
<g transform="translate(11.3811, 42.8454)">
<line stroke-linejoin="round" stroke-linecap="round" stroke-width="0.1000" stroke="currentColor" x1="0.0500" y1="0" x2="86.8628" y2="0"/>
</g>
<g transform="translate(11.3811, 41.7454)">
<line stroke-linejoin="round" stroke-linecap="round" stroke-width="0.1000" stroke="currentColor" x1="0.0500" y1="0" x2="86.8628" y2="0"/>
</g>
<g transform="translate(11.3811, 40.6454)">
<line stroke-linejoin="round" stroke-linecap="round" stroke-width="0.1000" stroke="currentColor" x1="0.0500" y1="0" x2="86.8628" y2="0"/>
</g>
<g transform="translate(11.3811, 39.5454)">
<line stroke-linejoin="round" stroke-linecap="round" stroke-width="0.1000" stroke="currentColor" x1="0.0500" y1="0" x2="86.8628" y2="0"/>
</g>
<g transform="translate(11.3811, 38.4454)">
<line stroke-linejoin="round" stroke-linecap="round" stroke-width="0.1000" stroke="currentColor" x1="0.0500" y1="0" x2="86.8628" y2="0"/>
</g>
<g transform="translate(77.5345, 40.6454)">
<rect x="0.0000" y="-2.2000" width="0.1900" height="4.4000" ry="0.0000" fill="currentColor"/>
</g>
<g transform="translate(55.0728, 40.6454)">
<rect x="0.0000" y="-2.2000" width="0.1900" height="4.4000" ry="0.0000" fill="currentColor"/>
</g>
<g transform="translate(30.5873, 40.6454)">
<rect x="0.0000" y="-2.2000" width="0.1900" height="4.4000" ry="0.0000" fill="currentColor"/>
</g>
<a style="color:inherit;" xlink:href="textedit:///Users/Marc/Projects/violin-music.github.io/tunes/Gypsy-Jazz/Swing-Licks/licks_Swing.ly:47:2:3">
<g transform="translate(20.0811, 35.6962)">
<text font-family="sans-serif" font-size="2.6165" text-anchor="start" fill="currentColor">
<tspan>A</tspan>
</text>
</g>
<g transform="translate(21.8565, 35.6962)">
<text font-family="sans-serif" font-size="2.6165" text-anchor="start" fill="currentColor">
<tspan>m</tspan>
</text>
</g>
<g transform="translate(24.4173, 34.5070)">
<text font-family="sans-serif" font-size="1.8500" text-anchor="start" fill="currentColor">
<tspan>6</tspan>
</text>
</g>
</a>
<a style="color:inherit;" xlink:href="textedit:///Users/Marc/Projects/violin-music.github.io/tunes/Gypsy-Jazz/Swing-Licks/licks_Swing.ly:50:2:3">
<g transform="translate(20.0811, 40.6454)">
<path transform="scale(0.0040, -0.0040)" d="M365 0h-355c-6 0 -10 4 -10 10v136c0 6 4 10 10 10h355c6 0 10 -4 10 -10v-136c0 -6 -4 -10 -10 -10z" fill="currentColor"/>
</g>
</a>
<g transform="translate(12.1811, 41.7454)">
<path transform="scale(0.0040, -0.0040)" d="M266 -635h-6c-108 0 -195 88 -195 197c0 58 53 103 112 103c54 0 95 -47 95 -103c0 -52 -43 -95 -95 -95c-11 0 -21 2 -31 6c26 -39 68 -65 117 -65h4zM461 -203c68 24 113 90 113 164c0 90 -66 179 -173 190c19 -89 48 -242 60 -354zM74 28c0 -145 141 -247 264 -247
c1 0 47 0 82 6c-7 64 -29 203 -63 364c-79 -8 -124 -61 -124 -119c0 -44 25 -91 81 -123c5 -5 7 -10 7 -15c0 -11 -10 -22 -22 -22c-15 0 -126 62 -126 187c0 88 58 174 160 197c-14 58 -29 117 -46 175c-107 -121 -213 -243 -213 -403zM250 553c-29 96 -52 170 -52 346
c0 115 55 224 149 292c6 5 14 5 20 0c68 -80 133 -245 133 -358c0 -143 -86 -255 -180 -364c21 -68 39 -138 56 -207c2 0 7 1 13 1c155 0 256 -128 256 -261c0 -113 -74 -212 -180 -246c3 -35 5 -70 5 -105c0 -19 -1 -39 -2 -58c-7 -119 -88 -225 -202 -228l1 43
c93 2 153 92 159 191c1 18 2 37 2 55c0 31 -1 61 -4 92c-5 -1 -44 -8 -89 -8c-193 0 -333 180 -333 374c0 177 131 306 248 441zM428 916c0 34 1 66 -20 129c-99 -48 -162 -149 -162 -259c0 -52 12 -115 36 -194c80 97 146 198 146 324z" fill="currentColor"/>
</g>
<g transform="translate(16.3811, 40.6454)">
<path transform="scale(0.0040, -0.0040)" d="M250 262c116 0 176 -106 176 -163c0 -40 -30 -72 -67 -72c-31 0 -75 25 -75 75c0 38 27 77 72 77c4 0 9 0 14 -1c-28 37 -72 59 -120 59c-106 0 -113 -73 -113 -186v-51v-51c0 -113 7 -187 113 -187c80 0 139 70 158 151c2 7 7 10 12 10c6 0 13 -4 13 -12
c0 -22 -50 -174 -183 -174c-59 0 -250 19 -250 263c0 62 18 262 250 262z" fill="currentColor"/>
</g>
<a style="color:inherit;" xlink:href="textedit:///Users/Marc/Projects/violin-music.github.io/tunes/Gypsy-Jazz/Swing-Licks/licks_Swing.ly:18:2:3">
<g transform="translate(16.3811, 32.1621)">
<rect x="1.0449" y="-2.6727" width="0.1158" height="2.5129" ry="0.0193" fill="currentColor"/>
</g>
<g transform="translate(16.3811, 32.1621)">
<path transform="scale(0.0036, -0.0036)" d="M215 137c67 0 111 -37 111 -92c0 -90 -111 -182 -215 -182c-67 0 -111 37 -111 92c0 90 111 182 215 182z" fill="currentColor"/>
</g>
<g transform="translate(17.5418, 32.6509)">
<text font-family="serif" font-size="2.2000" text-anchor="start" fill="currentColor">
<tspan> = 200</tspan>
</text>
</g>
</a>
<g transform="translate(22.0311, 40.0954)">
<path transform="scale(0.0040, -0.0040)" d="M0 0c0 31 25 56 56 56s56 -25 56 -56s-25 -56 -56 -56s-56 25 -56 56z" fill="currentColor"/>
</g>
<g transform="translate(79.7987, 40.4314)">
<polygon stroke-linejoin="round" stroke-linecap="round" stroke-width="0.0800" fill="currentColor" stroke="currentColor" points="7.1026 -0.0100 7.1026 0.4380 0.0400 0.2240 0.0400 -0.2240"/>
</g>
<a style="color:inherit;" xlink:href="textedit:///Users/Marc/Projects/violin-music.github.io/tunes/Gypsy-Jazz/Swing-Licks/licks_Swing.ly:50:6:7">
<g transform="translate(25.8831, 40.6454)">
<path transform="scale(0.0040, -0.0040)" d="M70 205c79 0 46 -98 91 -98c16 0 54 48 61 63c6 12 23 12 28 0l-123 -420c-8 -7 -17 -10 -27 -10s-20 3 -28 10l117 326c-34 -12 -69 -22 -105 -22c-47 0 -87 34 -87 79c0 40 33 72 73 72z" fill="currentColor"/>
</g>
</a>
<a style="color:inherit;" xlink:href="textedit:///Users/Marc/Projects/violin-music.github.io/tunes/Gypsy-Jazz/Swing-Licks/licks_Swing.ly:53:12:13">
<g transform="translate(85.6371, 40.6454)">
<path stroke-width="0.0800" stroke-linejoin="round" stroke-linecap="round" stroke="currentColor" fill="currentColor" d="M0.8521 6.0500C1.3589 6.6405 2.4495 6.6405 2.9563 6.0500L2.9563 6.0500C2.4495 6.5205 1.3589 6.5205 0.8521 6.0500z"/>
</g>
</a>
<a style="color:inherit;" xlink:href="textedit:///Users/Marc/Projects/violin-music.github.io/tunes/Gypsy-Jazz/Swing-Licks/licks_Swing.ly:50:9:10">
<g transform="translate(28.0831, 37.3454)">
<path transform="scale(0.0040, -0.0040)" d="M218 136c66 0 108 -36 108 -89c0 -89 -113 -183 -218 -183c-66 0 -108 36 -108 89c0 89 113 183 218 183z" fill="currentColor"/>
</g>
</a>
<g transform="translate(28.1481, 40.6454)">
<rect x="-0.0650" y="-3.1139" width="0.1300" height="3.6639" ry="0.0400" fill="currentColor"/>
</g>
<g transform="translate(28.2131, 41.1554)">
<path transform="scale(0.0040, -0.0040)" d="M0 0h-16v250h16v-250zM0 0v250c97 59 224 148 224 259c0 57 -15 112 -40 163c-3 16 10 27 23 27c7 0 15 -3 20 -11c25 -56 40 -117 40 -179c0 -203 -267 -306 -267 -509z" fill="currentColor"/>
</g>
<g transform="translate(67.8539, 36.7954)">
<polygon stroke-linejoin="round" stroke-linecap="round" stroke-width="0.0800" fill="currentColor" stroke="currentColor" points="8.2026 1.2120 8.2026 1.6600 0.0400 0.2240 0.0400 -0.2240"/>
</g>
<a style="color:inherit;" xlink:href="textedit:///Users/Marc/Projects/violin-music.github.io/tunes/Gypsy-Jazz/Swing-Licks/licks_Swing.ly:52:26:27">
<g transform="translate(74.7923, 40.6454)">
<path stroke-width="0.0800" stroke-linejoin="round" stroke-linecap="round" stroke="currentColor" fill="currentColor" d="M0.5322 2.7450C1.2332 3.9099 3.1522 4.4607 4.3643 3.8450L4.3643 3.8450C3.1853 4.3454 1.2663 3.7945 0.5322 2.7450z"/>
</g>
</a>
<a style="color:inherit;" xlink:href="textedit:///Users/Marc/Projects/violin-music.github.io/tunes/Gypsy-Jazz/Swing-Licks/licks_Swing.ly:47:9:10">
<g transform="translate(31.8858, 35.6962)">
<text font-family="sans-serif" font-size="2.6165" text-anchor="start" fill="currentColor">
<tspan>A</tspan>
</text>
</g>
<g transform="translate(33.6613, 35.6962)">
<text font-family="sans-serif" font-size="2.6165" text-anchor="start" fill="currentColor">
<tspan>m</tspan>
</text>
</g>
<g transform="translate(36.2220, 34.5070)">
<text font-family="sans-serif" font-size="1.8500" text-anchor="start" fill="currentColor">
<tspan>6</tspan>
</text>
</g>
</a>
<a style="color:inherit;" xlink:href="textedit:///Users/Marc/Projects/violin-music.github.io/tunes/Gypsy-Jazz/Swing-Licks/licks_Swing.ly:51:2:3">
<g transform="translate(31.8858, 37.3454)">
<path transform="scale(0.0040, -0.0040)" d="M218 136c66 0 108 -36 108 -89c0 -89 -113 -183 -218 -183c-66 0 -108 36 -108 89c0 89 113 183 218 183z" fill="currentColor"/>
</g>
</a>
<g transform="translate(31.9508, 40.6454)">
<rect x="-0.0650" y="-3.1139" width="0.1300" height="3.3404" ry="0.0400" fill="currentColor"/>
</g>
<a style="color:inherit;" xlink:href="textedit:///Users/Marc/Projects/violin-music.github.io/tunes/Gypsy-Jazz/Swing-Licks/licks_Swing.ly:52:19:20">
<g transform="translate(68.9339, 40.6454)">
<path stroke-width="0.0800" stroke-linejoin="round" stroke-linecap="round" stroke="currentColor" fill="currentColor" d="M0.5860 1.2600C1.1678 2.0120 2.3095 2.1875 3.0903 1.6450L3.0903 1.6450C2.3277 2.0689 1.1860 1.8934 0.5860 1.2600z"/>
</g>
</a>
<a style="color:inherit;" xlink:href="textedit:///Users/Marc/Projects/violin-music.github.io/tunes/Gypsy-Jazz/Swing-Licks/licks_Swing.ly:51:5:6">
<g transform="translate(35.2400, 38.4454)">
<path transform="scale(0.0040, -0.0040)" d="M218 136c66 0 108 -36 108 -89c0 -89 -113 -183 -218 -183c-66 0 -108 36 -108 89c0 89 113 183 218 183z" fill="currentColor"/>
</g>
</a>
<g transform="translate(35.3050, 40.6454)">
<rect x="-0.0650" y="-2.0139" width="0.1300" height="2.8874" ry="0.0400" fill="currentColor"/>
</g>
<g transform="translate(33.7900, 38.4454)">
<path transform="scale(0.0040, -0.0040)" d="M0 119c0 8 5 15 13 18l46 17v158c0 10 8 19 18 19s19 -9 19 -19v-145l83 31v158c0 10 9 19 19 19s18 -9 18 -19v-145l32 12c2 1 5 1 7 1c11 0 20 -9 20 -20v-60c0 -8 -5 -16 -13 -19l-46 -16v-160l32 11c2 1 5 1 7 1c11 0 20 -9 20 -20v-60c0 -8 -5 -15 -13 -18l-46 -17
v-158c0 -10 -8 -19 -18 -19s-19 9 -19 19v145l-83 -31v-158c0 -10 -9 -19 -19 -19s-18 9 -18 19v145l-32 -12c-2 -1 -5 -1 -7 -1c-11 0 -20 9 -20 20v60c0 8 5 16 13 19l46 16v160l-32 -11c-2 -1 -5 -1 -7 -1c-11 0 -20 9 -20 20v60zM179 95l-83 -30v-160l83 30v160z" fill="currentColor"/>
</g>
<a style="color:inherit;" xlink:href="textedit:///Users/Marc/Projects/violin-music.github.io/tunes/Gypsy-Jazz/Swing-Licks/licks_Swing.ly:51:23:24">
<g transform="translate(37.7443, 38.9954)">
<path transform="scale(0.0040, -0.0040)" d="M218 136c66 0 108 -36 108 -89c0 -89 -113 -183 -218 -183c-66 0 -108 36 -108 89c0 89 113 183 218 183z" fill="currentColor"/>
</g>
</a>
<g transform="translate(37.8093, 40.6454)">
<rect x="-0.0650" y="-1.4639" width="0.1300" height="3.8920" ry="0.0400" fill="currentColor"/>
</g>
<g transform="translate(57.3371, 38.4454)">
<polygon stroke-linejoin="round" stroke-linecap="round" stroke-width="0.0800" fill="currentColor" stroke="currentColor" points="8.1026 -1.8740 8.1026 -1.4260 0.0400 0.2240 0.0400 -0.2240"/>
</g>
<a style="color:inherit;" xlink:href="textedit:///Users/Marc/Projects/violin-music.github.io/tunes/Gypsy-Jazz/Swing-Licks/licks_Swing.ly:51:25:26">
<g transform="translate(39.5985, 40.0954)">
<path transform="scale(0.0040, -0.0040)" d="M218 136c66 0 108 -36 108 -89c0 -89 -113 -183 -218 -183c-66 0 -108 36 -108 89c0 89 113 183 218 183z" fill="currentColor"/>
</g>
</a>
<g transform="translate(39.6635, 40.6454)">
<rect x="-0.0650" y="-0.3639" width="0.1300" height="3.1938" ry="0.0400" fill="currentColor"/>
</g>
<a style="color:inherit;" xlink:href="textedit:///Users/Marc/Projects/violin-music.github.io/tunes/Gypsy-Jazz/Swing-Licks/licks_Swing.ly:52:13:14">
<g transform="translate(64.1755, 40.6454)">
<path stroke-width="0.0800" stroke-linejoin="round" stroke-linecap="round" stroke="currentColor" fill="currentColor" d="M1.5042 -0.8525C1.7328 -0.5402 2.0756 -0.5402 2.3042 -0.8525L2.3042 -0.8525C2.0756 -0.6602 1.7328 -0.6602 1.5042 -0.8525z"/>
</g>
</a>
<a style="color:inherit;" xlink:href="textedit:///Users/Marc/Projects/violin-music.github.io/tunes/Gypsy-Jazz/Swing-Licks/licks_Swing.ly:51:27:28">
<g transform="translate(41.7027, 40.6454)">
<path transform="scale(0.0040, -0.0040)" d="M218 136c66 0 108 -36 108 -89c0 -89 -113 -183 -218 -183c-66 0 -108 36 -108 89c0 89 113 183 218 183z" fill="currentColor"/>
</g>
</a>
<g transform="translate(41.7677, 40.6454)">
<rect x="-0.0650" y="0.1861" width="0.1300" height="3.0998" ry="0.0400" fill="currentColor"/>
</g>
<a style="color:inherit;" xlink:href="textedit:///Users/Marc/Projects/violin-music.github.io/tunes/Gypsy-Jazz/Swing-Licks/licks_Swing.ly:52:10:11">
<g transform="translate(61.4213, 40.6454)">
<path stroke-width="0.0800" stroke-linejoin="round" stroke-linecap="round" stroke="currentColor" fill="currentColor" d="M0.8134 1.2921C1.8183 1.7537 3.1130 1.2366 3.5676 0.1921L3.5676 0.1921C3.0684 1.1251 1.7738 1.6422 0.8134 1.2921z"/>
</g>
</a>
<a style="color:inherit;" xlink:href="textedit:///Users/Marc/Projects/violin-music.github.io/tunes/Gypsy-Jazz/Swing-Licks/licks_Swing.ly:51:30:31">
<g transform="translate(43.7838, 41.1954)">
<path transform="scale(0.0040, -0.0040)" d="M218 136c66 0 108 -36 108 -89c0 -89 -113 -183 -218 -183c-66 0 -108 36 -108 89c0 89 113 183 218 183z" fill="currentColor"/>
</g>
</a>
<g transform="translate(45.0230, 40.6454)">
<rect x="-0.0650" y="-2.1934" width="0.1300" height="2.5573" ry="0.0400" fill="currentColor"/>
</g>
<a style="color:inherit;" xlink:href="textedit:///Users/Marc/Projects/violin-music.github.io/tunes/Gypsy-Jazz/Swing-Licks/licks_Swing.ly:51:33:34">
<g transform="translate(47.1380, 42.2954)">
<path transform="scale(0.0040, -0.0040)" d="M218 136c66 0 108 -36 108 -89c0 -89 -113 -183 -218 -183c-66 0 -108 36 -108 89c0 89 113 183 218 183z" fill="currentColor"/>
</g>
</a>
<g transform="translate(48.3772, 40.6454)">
<rect x="-0.0650" y="-1.8509" width="0.1300" height="3.3148" ry="0.0400" fill="currentColor"/>
</g>
<g transform="translate(45.6880, 42.2954)">
<path transform="scale(0.0040, -0.0040)" d="M0 119c0 8 5 15 13 18l46 17v158c0 10 8 19 18 19s19 -9 19 -19v-145l83 31v158c0 10 9 19 19 19s18 -9 18 -19v-145l32 12c2 1 5 1 7 1c11 0 20 -9 20 -20v-60c0 -8 -5 -16 -13 -19l-46 -16v-160l32 11c2 1 5 1 7 1c11 0 20 -9 20 -20v-60c0 -8 -5 -15 -13 -18l-46 -17
v-158c0 -10 -8 -19 -18 -19s-19 9 -19 19v145l-83 -31v-158c0 -10 -9 -19 -19 -19s-18 9 -18 19v145l-32 -12c-2 -1 -5 -1 -7 -1c-11 0 -20 9 -20 20v60c0 8 5 16 13 19l46 16v160l-32 -11c-2 -1 -5 -1 -7 -1c-11 0 -20 9 -20 20v60zM179 95l-83 -30v-160l83 30v160z" fill="currentColor"/>
</g>
<g transform="translate(44.9580, 38.4454)">
<polygon stroke-linejoin="round" stroke-linecap="round" stroke-width="0.0800" fill="currentColor" stroke="currentColor" points="8.6369 0.6620 8.6369 1.1100 0.0400 0.2240 0.0400 -0.2240"/>
</g>
<a style="color:inherit;" xlink:href="textedit:///Users/Marc/Projects/violin-music.github.io/tunes/Gypsy-Jazz/Swing-Licks/licks_Swing.ly:51:37:38">
<g transform="translate(49.3922, 43.3954)">
<path transform="scale(0.0040, -0.0040)" d="M218 136c66 0 108 -36 108 -89c0 -89 -113 -183 -218 -183c-66 0 -108 36 -108 89c0 89 113 183 218 183z" fill="currentColor"/>
</g>
</a>
<g transform="translate(50.6314, 40.6454)">
<rect x="-0.0650" y="-1.6207" width="0.1300" height="4.1846" ry="0.0400" fill="currentColor"/>
</g>
<a style="color:inherit;" xlink:href="textedit:///Users/Marc/Projects/violin-music.github.io/tunes/Gypsy-Jazz/Swing-Licks/licks_Swing.ly:52:2:3">
<g transform="translate(52.3307, 40.6454)">
<path stroke-width="0.0800" stroke-linejoin="round" stroke-linecap="round" stroke="currentColor" fill="currentColor" d="M1.5042 2.2000C2.0152 2.7940 3.1211 2.7940 3.6321 2.2000L3.6321 2.2000C3.1211 2.6740 2.0152 2.6740 1.5042 2.2000z"/>
</g>
</a>
<a style="color:inherit;" xlink:href="textedit:///Users/Marc/Projects/violin-music.github.io/tunes/Gypsy-Jazz/Swing-Licks/licks_Swing.ly:51:40:41">
<g transform="translate(52.3307, 42.2954)">
<path transform="scale(0.0040, -0.0040)" d="M218 136c66 0 108 -36 108 -89c0 -89 -113 -183 -218 -183c-66 0 -108 36 -108 89c0 89 113 183 218 183z" fill="currentColor"/>
</g>
</a>
<g transform="translate(53.5699, 40.6454)">
<rect x="-0.0650" y="-1.3206" width="0.1300" height="2.7845" ry="0.0400" fill="currentColor"/>
</g>
<g transform="translate(51.2964, 42.2954)">
<path transform="scale(0.0040, -0.0040)" d="M-7 375c8 4 17 7 25 7s16 -3 24 -7l-2 -183l106 20h3c10 0 18 -7 18 -17l7 -570c-8 -4 -17 -7 -25 -7s-16 3 -24 7l2 183l-106 -20h-3c-10 0 -18 7 -18 17zM131 112l-92 -17l-3 -207l92 17z" fill="currentColor"/>
</g>
<a style="color:inherit;" xlink:href="textedit:///Users/Marc/Projects/violin-music.github.io/tunes/Gypsy-Jazz/Swing-Licks/licks_Swing.ly:51:35:36">
<g transform="translate(47.1380, 40.6454)">
<path stroke-width="0.0800" stroke-linejoin="round" stroke-linecap="round" stroke="currentColor" fill="currentColor" d="M0.4615 2.7450C0.7908 3.6285 1.8166 4.1291 2.7157 3.8450L2.7157 3.8450C1.8692 4.0212 0.8434 3.5207 0.4615 2.7450z"/>
</g>
</a>
<g transform="translate(37.7443, 43.0594)">
<polygon stroke-linejoin="round" stroke-linecap="round" stroke-width="0.0800" fill="currentColor" stroke="currentColor" points="4.0484 0.6620 4.0484 1.1100 0.0400 0.2240 0.0400 -0.2240"/>
</g>
<a style="color:inherit;" xlink:href="textedit:///Users/Marc/Projects/violin-music.github.io/tunes/Gypsy-Jazz/Swing-Licks/licks_Swing.ly:47:17:18">
<g transform="translate(56.1628, 35.6962)">
<text font-family="sans-serif" font-size="2.6165" text-anchor="start" fill="currentColor">
<tspan>D</tspan>
</text>
</g>
<g transform="translate(58.1773, 34.5070)">
<text font-family="sans-serif" font-size="1.8500" text-anchor="start" fill="currentColor">
<tspan>7</tspan>
</text>
</g>
</a>
<a style="color:inherit;" xlink:href="textedit:///Users/Marc/Projects/violin-music.github.io/tunes/Gypsy-Jazz/Swing-Licks/licks_Swing.ly:52:4:5">
<g transform="translate(56.1628, 42.2954)">
<path transform="scale(0.0040, -0.0040)" d="M218 136c66 0 108 -36 108 -89c0 -89 -113 -183 -218 -183c-66 0 -108 36 -108 89c0 89 113 183 218 183z" fill="currentColor"/>
</g>
</a>
<g transform="translate(57.4021, 40.6454)">
<rect x="-0.0650" y="-2.2132" width="0.1300" height="3.6771" ry="0.0400" fill="currentColor"/>
</g>
<g transform="translate(31.8858, 40.8594)">
<polygon stroke-linejoin="round" stroke-linecap="round" stroke-width="0.0800" fill="currentColor" stroke="currentColor" points="3.4442 0.4480 3.4442 0.8960 0.0400 0.2240 0.0400 -0.2240"/>
</g>
<a style="color:inherit;" xlink:href="textedit:///Users/Marc/Projects/violin-music.github.io/tunes/Gypsy-Jazz/Swing-Licks/licks_Swing.ly:52:7:8">
<g transform="translate(58.9171, 41.1954)">
<path transform="scale(0.0040, -0.0040)" d="M218 136c66 0 108 -36 108 -89c0 -89 -113 -183 -218 -183c-66 0 -108 36 -108 89c0 89 113 183 218 183z" fill="currentColor"/>
</g>
</a>
<g transform="translate(60.1563, 40.6454)">
<rect x="-0.0650" y="-2.7713" width="0.1300" height="3.1352" ry="0.0400" fill="currentColor"/>
</g>
<g transform="translate(89.3155, 37.3454)">
<polygon stroke-linejoin="round" stroke-linecap="round" stroke-width="0.0800" fill="currentColor" stroke="currentColor" points="5.3484 -2.6380 5.3484 -2.1900 0.0400 0.2240 0.0400 -0.2240"/>
</g>
<a style="color:inherit;" xlink:href="textedit:///Users/Marc/Projects/violin-music.github.io/tunes/Gypsy-Jazz/Swing-Licks/licks_Swing.ly:52:9:10">
<g transform="translate(61.4213, 40.6454)">
<path transform="scale(0.0040, -0.0040)" d="M218 136c66 0 108 -36 108 -89c0 -89 -113 -183 -218 -183c-66 0 -108 36 -108 89c0 89 113 183 218 183z" fill="currentColor"/>
</g>
</a>
<g transform="translate(62.6605, 40.6454)">
<rect x="-0.0650" y="-3.2787" width="0.1300" height="3.0926" ry="0.0400" fill="currentColor"/>
</g>
<a style="color:inherit;" xlink:href="textedit:///Users/Marc/Projects/violin-music.github.io/tunes/Gypsy-Jazz/Swing-Licks/licks_Swing.ly:51:9:10">
<g transform="translate(39.3446, 45.4598)">
<text font-family="serif" font-style="italic" font-size="1.7459" text-anchor="start" fill="currentColor">
<tspan>3</tspan>
</text>
</g>
</a>
<a style="color:inherit;" xlink:href="textedit:///Users/Marc/Projects/violin-music.github.io/tunes/Gypsy-Jazz/Swing-Licks/licks_Swing.ly:51:9:10">
</a>
<a style="color:inherit;" xlink:href="textedit:///Users/Marc/Projects/violin-music.github.io/tunes/Gypsy-Jazz/Swing-Licks/licks_Swing.ly:52:12:13">
<g transform="translate(64.1755, 39.5454)">
<path transform="scale(0.0040, -0.0040)" d="M218 136c66 0 108 -36 108 -89c0 -89 -113 -183 -218 -183c-66 0 -108 36 -108 89c0 89 113 183 218 183z" fill="currentColor"/>
</g>
</a>
<g transform="translate(65.4147, 40.6454)">
<rect x="-0.0650" y="-3.8368" width="0.1300" height="2.5507" ry="0.0400" fill="currentColor"/>
</g>
<a style="color:inherit;" xlink:href="textedit:///Users/Marc/Projects/violin-music.github.io/tunes/Gypsy-Jazz/Swing-Licks/licks_Swing.ly:51:7:8">
<g transform="translate(35.2400, 40.6454)">
<path stroke-width="0.0800" stroke-linejoin="round" stroke-linecap="round" stroke="currentColor" fill="currentColor" d="M0.7822 -3.2950C2.9064 -4.1766 8.1948 -2.4926 9.4180 -0.5450L9.4180 -0.5450C8.1584 -2.3782 2.8700 -4.0623 0.7822 -3.2950z"/>
</g>
</a>
<a style="color:inherit;" xlink:href="textedit:///Users/Marc/Projects/violin-music.github.io/tunes/Gypsy-Jazz/Swing-Licks/licks_Swing.ly:52:16:17">
<g transform="translate(66.6797, 39.5454)">
<path transform="scale(0.0040, -0.0040)" d="M218 136c66 0 108 -36 108 -89c0 -89 -113 -183 -218 -183c-66 0 -108 36 -108 89c0 89 113 183 218 183z" fill="currentColor"/>
</g>
</a>
<g transform="translate(67.9189, 40.6454)">
<rect x="-0.0650" y="-3.8387" width="0.1300" height="2.5526" ry="0.0400" fill="currentColor"/>
</g>
<a style="color:inherit;" xlink:href="textedit:///Users/Marc/Projects/violin-music.github.io/tunes/Gypsy-Jazz/Swing-Licks/licks_Swing.ly:52:18:19">
<g transform="translate(68.9339, 40.6454)">
<path transform="scale(0.0040, -0.0040)" d="M218 136c66 0 108 -36 108 -89c0 -89 -113 -183 -218 -183c-66 0 -108 36 -108 89c0 89 113 183 218 183z" fill="currentColor"/>
</g>
</a>
<g transform="translate(70.1731, 40.6454)">
<rect x="-0.0650" y="-3.4460" width="0.1300" height="3.2598" ry="0.0400" fill="currentColor"/>
</g>
<a style="color:inherit;" xlink:href="textedit:///Users/Marc/Projects/violin-music.github.io/tunes/Gypsy-Jazz/Swing-Licks/licks_Swing.ly:50:12:13">
<g transform="translate(28.0831, 40.6454)">
<path stroke-width="0.0800" stroke-linejoin="round" stroke-linecap="round" stroke="currentColor" fill="currentColor" d="M0.8521 -4.1000C1.5608 -4.8341 3.5462 -4.8341 4.2549 -4.1000L4.2549 -4.1000C3.5462 -4.7141 1.5608 -4.7141 0.8521 -4.1000z"/>
</g>
</a>
<a style="color:inherit;" xlink:href="textedit:///Users/Marc/Projects/violin-music.github.io/tunes/Gypsy-Jazz/Swing-Licks/licks_Swing.ly:52:21:22">
<g transform="translate(71.4381, 41.1954)">
<path transform="scale(0.0040, -0.0040)" d="M218 136c66 0 108 -36 108 -89c0 -89 -113 -183 -218 -183c-66 0 -108 36 -108 89c0 89 113 183 218 183z" fill="currentColor"/>
</g>
</a>
<g transform="translate(72.6773, 40.6454)">
<rect x="-0.0650" y="-3.0097" width="0.1300" height="3.3736" ry="0.0400" fill="currentColor"/>
</g>
<a style="color:inherit;" xlink:href="textedit:///Users/Marc/Projects/violin-music.github.io/tunes/Gypsy-Jazz/Swing-Licks/licks_Swing.ly:52:24:25">
<g transform="translate(74.7923, 42.2954)">
<path transform="scale(0.0040, -0.0040)" d="M218 136c66 0 108 -36 108 -89c0 -89 -113 -183 -218 -183c-66 0 -108 36 -108 89c0 89 113 183 218 183z" fill="currentColor"/>
</g>
</a>
<g transform="translate(76.0315, 40.6454)">
<rect x="-0.0650" y="-2.4253" width="0.1300" height="3.8892" ry="0.0400" fill="currentColor"/>
</g>
<g transform="translate(73.3423, 42.2954)">
<path transform="scale(0.0040, -0.0040)" d="M0 119c0 8 5 15 13 18l46 17v158c0 10 8 19 18 19s19 -9 19 -19v-145l83 31v158c0 10 9 19 19 19s18 -9 18 -19v-145l32 12c2 1 5 1 7 1c11 0 20 -9 20 -20v-60c0 -8 -5 -16 -13 -19l-46 -16v-160l32 11c2 1 5 1 7 1c11 0 20 -9 20 -20v-60c0 -8 -5 -15 -13 -18l-46 -17
v-158c0 -10 -8 -19 -18 -19s-19 9 -19 19v145l-83 -31v-158c0 -10 -9 -19 -19 -19s-18 9 -18 19v145l-32 -12c-2 -1 -5 -1 -7 -1c-11 0 -20 9 -20 20v60c0 8 5 16 13 19l46 16v160l-32 -11c-2 -1 -5 -1 -7 -1c-11 0 -20 9 -20 20v60zM179 95l-83 -30v-160l83 30v160z" fill="currentColor"/>
</g>
<a style="color:inherit;" xlink:href="textedit:///Users/Marc/Projects/violin-music.github.io/tunes/Gypsy-Jazz/Swing-Licks/licks_Swing.ly:47:23:24">
<g transform="translate(78.6245, 35.6962)">
<text font-family="sans-serif" font-size="2.6165" text-anchor="start" fill="currentColor">
<tspan>G</tspan>
</text>
</g>
<g transform="translate(80.6389, 34.5070)">
<text font-family="sans-serif" font-size="1.8500" text-anchor="start" fill="currentColor">
<tspan>7</tspan>
</text>
</g>
</a>
<a style="color:inherit;" xlink:href="textedit:///Users/Marc/Projects/violin-music.github.io/tunes/Gypsy-Jazz/Swing-Licks/licks_Swing.ly:53:2:3">
<g transform="translate(78.6245, 43.3954)">
<path transform="scale(0.0040, -0.0040)" d="M218 136c66 0 108 -36 108 -89c0 -89 -113 -183 -218 -183c-66 0 -108 36 -108 89c0 89 113 183 218 183z" fill="currentColor"/>
</g>
</a>
<g transform="translate(79.8637, 40.6454)">
<rect x="-0.0650" y="-0.2121" width="0.1300" height="2.7759" ry="0.0400" fill="currentColor"/>
</g>
<a style="color:inherit;" xlink:href="textedit:///Users/Marc/Projects/violin-music.github.io/tunes/Gypsy-Jazz/Swing-Licks/licks_Swing.ly:53:6:7">
<g transform="translate(80.8787, 45.0454)">
<path transform="scale(0.0040, -0.0040)" d="M218 136c66 0 108 -36 108 -89c0 -89 -113 -183 -218 -183c-66 0 -108 36 -108 89c0 89 113 183 218 183z" fill="currentColor"/>
</g>
</a>
<g transform="translate(82.1179, 40.6454)">
<rect x="-0.0650" y="-0.1445" width="0.1300" height="4.3584" ry="0.0400" fill="currentColor"/>
</g>
<a style="color:inherit;" xlink:href="textedit:///Users/Marc/Projects/violin-music.github.io/tunes/Gypsy-Jazz/Swing-Licks/licks_Swing.ly:53:8:9">
<g transform="translate(83.3829, 44.4954)">
<path transform="scale(0.0040, -0.0040)" d="M218 136c66 0 108 -36 108 -89c0 -89 -113 -183 -218 -183c-66 0 -108 36 -108 89c0 89 113 183 218 183z" fill="currentColor"/>
</g>
</a>
<g transform="translate(84.6221, 40.6454)">
<rect x="-0.0650" y="-0.0695" width="0.1300" height="3.7334" ry="0.0400" fill="currentColor"/>
</g>
<a style="color:inherit;" xlink:href="textedit:///Users/Marc/Projects/violin-music.github.io/tunes/Gypsy-Jazz/Swing-Licks/licks_Swing.ly:53:10:11">
<g transform="translate(85.6371, 45.5954)">
<path transform="scale(0.0040, -0.0040)" d="M218 136c66 0 108 -36 108 -89c0 -89 -113 -183 -218 -183c-66 0 -108 36 -108 89c0 89 113 183 218 183z" fill="currentColor"/>
</g>
</a>
<g transform="translate(86.8763, 40.6454)">
<rect x="-0.0650" y="-0.0019" width="0.1300" height="4.7658" ry="0.0400" fill="currentColor"/>
</g>
<a style="color:inherit;" xlink:href="textedit:///Users/Marc/Projects/violin-music.github.io/tunes/Gypsy-Jazz/Swing-Licks/licks_Swing.ly:53:14:15">
<g transform="translate(88.1413, 45.5954)">
<path transform="scale(0.0040, -0.0040)" d="M218 136c66 0 108 -36 108 -89c0 -89 -113 -183 -218 -183c-66 0 -108 36 -108 89c0 89 113 183 218 183z" fill="currentColor"/>
</g>
</a>
<g transform="translate(89.3805, 40.6454)">
<rect x="-0.0650" y="-3.3291" width="0.1300" height="8.0930" ry="0.0400" fill="currentColor"/>
</g>
<a style="color:inherit;" xlink:href="textedit:///Users/Marc/Projects/violin-music.github.io/tunes/Gypsy-Jazz/Swing-Licks/licks_Swing.ly:54:3:4">
<g transform="translate(90.8955, 43.3954)">
<path transform="scale(0.0040, -0.0040)" d="M218 136c66 0 108 -36 108 -89c0 -89 -113 -183 -218 -183c-66 0 -108 36 -108 89c0 89 113 183 218 183z" fill="currentColor"/>
</g>
</a>
<a style="color:inherit;" xlink:href="textedit:///Users/Marc/Projects/violin-music.github.io/tunes/Gypsy-Jazz/Swing-Licks/licks_Swing.ly:54:6:7">
<g transform="translate(90.8997, 39.5454)">
<path transform="scale(0.0040, -0.0040)" d="M87 51c-2 -2 -3 -4 -3 -6s1 -5 3 -7l109 -120c2 -2 4 -4 7 -4s5 2 7 4l28 31c2 2 3 4 3 6s-1 5 -3 7l-109 120c-2 2 -4 4 -7 4s-5 -2 -7 -4zM0 0c0 11 65 55 155 175c2 2 5 4 8 4c12 0 46 -67 159 -172c2 -2 3 -4 3 -7c0 -11 -65 -55 -155 -175c-2 -2 -4 -4 -7 -4
c-12 0 -47 67 -160 172c-2 2 -3 4 -3 7z" fill="currentColor"/>
</g>
</a>
<g transform="translate(92.1347, 40.6454)">
<rect x="-0.0650" y="-4.5630" width="0.1300" height="7.1269" ry="0.0400" fill="currentColor"/>
</g>
<a style="color:inherit;" xlink:href="textedit:///Users/Marc/Projects/violin-music.github.io/tunes/Gypsy-Jazz/Swing-Licks/licks_Swing.ly:54:22:23">
<g transform="translate(93.3997, 43.9454)">
<path transform="scale(0.0040, -0.0040)" d="M218 136c66 0 108 -36 108 -89c0 -89 -113 -183 -218 -183c-66 0 -108 36 -108 89c0 89 113 183 218 183z" fill="currentColor"/>
</g>
</a>
<a style="color:inherit;" xlink:href="textedit:///Users/Marc/Projects/violin-music.github.io/tunes/Gypsy-Jazz/Swing-Licks/licks_Swing.ly:54:24:25">
<g transform="translate(93.4039, 37.8954)">
<path transform="scale(0.0040, -0.0040)" d="M87 51c-2 -2 -3 -4 -3 -6s1 -5 3 -7l109 -120c2 -2 4 -4 7 -4s5 2 7 4l28 31c2 2 3 4 3 6s-1 5 -3 7l-109 120c-2 2 -4 4 -7 4s-5 -2 -7 -4zM0 0c0 11 65 55 155 175c2 2 5 4 8 4c12 0 46 -67 159 -172c2 -2 3 -4 3 -7c0 -11 -65 -55 -155 -175c-2 -2 -4 -4 -7 -4
c-12 0 -47 67 -160 172c-2 2 -3 4 -3 7z" fill="currentColor"/>
</g>
</a>
<g transform="translate(94.6389, 40.6454)">
<rect x="-0.0650" y="-5.6849" width="0.1300" height="8.7988" ry="0.0400" fill="currentColor"/>
</g>
<a style="color:inherit;" xlink:href="textedit:///Users/Marc/Projects/violin-music.github.io/tunes/Gypsy-Jazz/Swing-Licks/licks_Swing.ly:55:2:3">
<g transform="translate(95.9039, 40.6454)">
<path transform="scale(0.0040, -0.0040)" d="M70 205c79 0 46 -98 91 -98c16 0 54 48 61 63c6 12 23 12 28 0l-123 -420c-8 -7 -17 -10 -27 -10s-20 3 -28 10l117 326c-34 -12 -69 -22 -105 -22c-47 0 -87 34 -87 79c0 40 33 72 73 72z" fill="currentColor"/>
</g>
</a>
</svg>
