<svg xmlns="http://www.w3.org/2000/svg" xmlns:xlink="http://www.w3.org/1999/xlink" version="1.2" width="210.00mm" height="297.00mm" viewBox="0.0000 -0.0000 119.5016 169.0094">
<style type="text/css">
<![CDATA[
tspan { white-space: pre; }
]]>
</style>
<g transform="translate(48.5859, 6.9166)">
<text font-family="Optima" font-weight="bold" font-size="4.4002" text-anchor="start" fill="currentColor">
<tspan>S</tspan>
</text>
</g>
<g transform="translate(50.7711, 6.9166)">
<text font-family="Optima" font-weight="bold" font-size="3.4921" text-anchor="start" fill="currentColor">
<tspan>I</tspan>
</text>
</g>
<g transform="translate(51.9320, 6.9166)">
<text font-family="Optima" font-weight="bold" font-size="4.4002" text-anchor="start" fill="currentColor">
<tspan> T</tspan>
</text>
</g>
<g transform="translate(55.2780, 6.9166)">
<text font-family="Optima" font-weight="bold" font-size="3.4921" text-anchor="start" fill="currentColor">
<tspan>U</tspan>
</text>
</g>
<g transform="translate(58.0095, 6.9166)">
<text font-family="Optima" font-weight="bold" font-size="4.4002" text-anchor="start" fill="currentColor">
<tspan> S</tspan>
</text>
</g>
<g transform="translate(61.4238, 6.9166)">
<text font-family="Optima" font-weight="bold" font-size="3.4921" text-anchor="start" fill="currentColor">
<tspan>AVAIS</tspan>
</text>
</g>
<g transform="translate(98.8221, 6.9166)">
<text font-family="Optima" font-size="1.9600" text-anchor="start" fill="currentColor">
<tspan>Django Reinhardt</tspan>
</text>
</g>
<g transform="translate(92.2540, 28.9507)">
<rect x="0.0000" y="-2.2000" width="0.1900" height="4.4000" ry="0.0000" fill="currentColor"/>
</g>
<g transform="translate(5.6906, 25.6507)">
<rect x="76.4659" y="-0.1050" width="1.9563" height="0.2100" ry="0.1050" fill="currentColor"/>
</g>
<g transform="translate(5.6906, 25.6507)">
<rect x="73.9617" y="-0.1050" width="1.9563" height="0.2100" ry="0.1050" fill="currentColor"/>
</g>
<g transform="translate(5.6906, 25.6507)">
<rect x="71.4575" y="-0.1050" width="1.9563" height="0.2100" ry="0.1050" fill="currentColor"/>
</g>
<g transform="translate(5.6906, 25.6507)">
<rect x="67.6862" y="-0.1050" width="1.9563" height="0.2100" ry="0.1050" fill="currentColor"/>
</g>
<g transform="translate(5.6906, 24.5507)">
<rect x="63.2800" y="-0.1050" width="1.9563" height="0.2100" ry="0.1050" fill="currentColor"/>
</g>
<g transform="translate(5.6906, 25.6507)">
<rect x="63.2800" y="-0.1050" width="1.9563" height="0.2100" ry="0.1050" fill="currentColor"/>
</g>
<g transform="translate(5.6906, 25.6507)">
<rect x="26.9814" y="-0.1050" width="1.9563" height="0.2100" ry="0.1050" fill="currentColor"/>
</g>
<g transform="translate(5.6906, 25.6507)">
<rect x="24.4771" y="-0.1050" width="1.9563" height="0.2100" ry="0.1050" fill="currentColor"/>
</g>
<g transform="translate(11.3811, 31.1507)">
<line stroke-linejoin="round" stroke-linecap="round" stroke-width="0.1000" stroke="currentColor" x1="0.0500" y1="0" x2="81.0129" y2="0"/>
</g>
<g transform="translate(11.3811, 30.0507)">
<line stroke-linejoin="round" stroke-linecap="round" stroke-width="0.1000" stroke="currentColor" x1="0.0500" y1="0" x2="81.0129" y2="0"/>
</g>
<g transform="translate(11.3811, 28.9507)">
<line stroke-linejoin="round" stroke-linecap="round" stroke-width="0.1000" stroke="currentColor" x1="0.0500" y1="0" x2="81.0129" y2="0"/>
</g>
<g transform="translate(11.3811, 27.8507)">
<line stroke-linejoin="round" stroke-linecap="round" stroke-width="0.1000" stroke="currentColor" x1="0.0500" y1="0" x2="81.0129" y2="0"/>
</g>
<g transform="translate(11.3811, 26.7507)">
<line stroke-linejoin="round" stroke-linecap="round" stroke-width="0.1000" stroke="currentColor" x1="0.0500" y1="0" x2="81.0129" y2="0"/>
</g>
<g transform="translate(76.2070, 28.9507)">
<rect x="0.0000" y="-2.2000" width="0.1900" height="4.4000" ry="0.0000" fill="currentColor"/>
</g>
<g transform="translate(58.2440, 28.9507)">
<rect x="0.0000" y="-2.2000" width="0.1900" height="4.4000" ry="0.0000" fill="currentColor"/>
</g>
<g transform="translate(39.9083, 28.9507)">
<rect x="0.0000" y="-2.2000" width="0.1900" height="4.4000" ry="0.0000" fill="currentColor"/>
</g>
<g transform="translate(77.4741, 28.9507)">
<polygon stroke-linejoin="round" stroke-linecap="round" stroke-width="0.0800" fill="currentColor" stroke="currentColor" points="7.6026 -0.0100 7.6026 0.4380 0.0400 0.2240 0.0400 -0.2240"/>
</g>
<a style="color:inherit;" xlink:href="textedit:///Users/marc.mouries/projects/Sheet-Music/Gypsy-Jazz/Si-Tu-Savais/Si-tu-savais-%28Cm%29.ly:22:2:3">
<g transform="translate(22.7311, 22.9913)">
<text font-family="sans-serif" font-size="2.6163" text-anchor="start" fill="currentColor">
<tspan>B</tspan>
</text>
</g>
<g transform="translate(24.5407, 22.9913)">
<text font-family="sans-serif" font-size="2.6163" text-anchor="start" fill="currentColor">
<tspan>m</tspan>
</text>
</g>
</a>
<a style="color:inherit;" xlink:href="textedit:///Users/marc.mouries/projects/Sheet-Music/Gypsy-Jazz/Si-Tu-Savais/Si-tu-savais-%28Cm%29.ly:29:1:2">
<g transform="translate(22.7311, 28.9507)">
<path transform="scale(0.0040, -0.0040)" d="M218 136c66 0 108 -36 108 -89c0 -89 -113 -183 -218 -183c-66 0 -108 36 -108 89c0 89 113 183 218 183z" fill="currentColor"/>
</g>
</a>
<g transform="translate(12.1811, 30.0507)">
<path transform="scale(0.0040, -0.0040)" d="M266 -635h-6c-108 0 -195 88 -195 197c0 58 53 103 112 103c54 0 95 -47 95 -103c0 -52 -43 -95 -95 -95c-11 0 -21 2 -31 6c26 -39 68 -65 117 -65h4zM461 -203c68 24 113 90 113 164c0 90 -66 179 -173 190c19 -89 48 -242 60 -354zM74 28c0 -145 141 -247 264 -247
c1 0 47 0 82 6c-7 64 -29 203 -63 364c-79 -8 -124 -61 -124 -119c0 -44 25 -91 81 -123c5 -5 7 -10 7 -15c0 -11 -10 -22 -22 -22c-15 0 -126 62 -126 187c0 88 58 174 160 197c-14 58 -29 117 -46 175c-107 -121 -213 -243 -213 -403zM250 553c-29 96 -52 170 -52 346
c0 115 55 224 149 292c6 5 14 5 20 0c68 -80 133 -245 133 -358c0 -143 -86 -255 -180 -364c21 -68 39 -138 56 -207c2 0 7 1 13 1c155 0 256 -128 256 -261c0 -113 -74 -212 -180 -246c3 -35 5 -70 5 -105c0 -19 -1 -39 -2 -58c-7 -119 -88 -225 -202 -228l1 43
c93 2 153 92 159 191c1 18 2 37 2 55c0 31 -1 61 -4 92c-5 -1 -44 -8 -89 -8c-193 0 -333 180 -333 374c0 177 131 306 248 441zM428 916c0 34 1 66 -20 129c-99 -48 -162 -149 -162 -259c0 -52 12 -115 36 -194c80 97 146 198 146 324z" fill="currentColor"/>
</g>
<a style="color:inherit;" xlink:href="textedit:///Users/marc.mouries/projects/Sheet-Music/Gypsy-Jazz/Si-Tu-Savais/Si-tu-savais-%28Cm%29.ly:17:2:3">
<g transform="translate(15.6811, 26.7507)">
<path transform="scale(0.0040, -0.0040)" d="M0 119c0 8 5 15 13 18l46 17v158c0 10 8 19 18 19s19 -9 19 -19v-145l83 31v158c0 10 9 19 19 19s18 -9 18 -19v-145l32 12c2 1 5 1 7 1c11 0 20 -9 20 -20v-60c0 -8 -5 -16 -13 -19l-46 -16v-160l32 11c2 1 5 1 7 1c11 0 20 -9 20 -20v-60c0 -8 -5 -15 -13 -18l-46 -17
v-158c0 -10 -8 -19 -18 -19s-19 9 -19 19v145l-83 -31v-158c0 -10 -9 -19 -19 -19s-18 9 -18 19v145l-32 -12c-2 -1 -5 -1 -7 -1c-11 0 -20 9 -20 20v60c0 8 5 16 13 19l46 16v160l-32 -11c-2 -1 -5 -1 -7 -1c-11 0 -20 9 -20 20v60zM179 95l-83 -30v-160l83 30v160z" fill="currentColor"/>
</g>
<g transform="translate(16.7811, 28.4007)">
<path transform="scale(0.0040, -0.0040)" d="M0 119c0 8 5 15 13 18l46 17v158c0 10 8 19 18 19s19 -9 19 -19v-145l83 31v158c0 10 9 19 19 19s18 -9 18 -19v-145l32 12c2 1 5 1 7 1c11 0 20 -9 20 -20v-60c0 -8 -5 -16 -13 -19l-46 -16v-160l32 11c2 1 5 1 7 1c11 0 20 -9 20 -20v-60c0 -8 -5 -15 -13 -18l-46 -17
v-158c0 -10 -8 -19 -18 -19s-19 9 -19 19v145l-83 -31v-158c0 -10 -9 -19 -19 -19s-18 9 -18 19v145l-32 -12c-2 -1 -5 -1 -7 -1c-11 0 -20 9 -20 20v60c0 8 5 16 13 19l46 16v160l-32 -11c-2 -1 -5 -1 -7 -1c-11 0 -20 9 -20 20v60zM179 95l-83 -30v-160l83 30v160z" fill="currentColor"/>
</g>
</a>
<a style="color:inherit;" xlink:href="textedit:///Users/marc.mouries/projects/Sheet-Music/Gypsy-Jazz/Si-Tu-Savais/Si-tu-savais-%28Cm%29.ly:16:2:3">
<g transform="translate(19.0311, 28.9507)">
<path transform="scale(0.0040, -0.0040)" d="M250 262c116 0 176 -106 176 -163c0 -40 -30 -72 -67 -72c-31 0 -75 25 -75 75c0 38 27 77 72 77c4 0 9 0 14 -1c-28 37 -72 59 -120 59c-106 0 -113 -73 -113 -186v-51v-51c0 -113 7 -187 113 -187c80 0 139 70 158 151c2 7 7 10 12 10c6 0 13 -4 13 -12
c0 -22 -50 -174 -183 -174c-59 0 -250 19 -250 263c0 62 18 262 250 262z" fill="currentColor"/>
</g>
</a>
<a style="color:inherit;" xlink:href="textedit:///Users/marc.mouries/projects/Sheet-Music/Gypsy-Jazz/Si-Tu-Savais/Si-tu-savais-%28Cm%29.ly:18:2:3">
<g transform="translate(19.0311, 20.1146)">
<rect x="1.0449" y="-2.6727" width="0.1158" height="2.5129" ry="0.0193" fill="currentColor"/>
</g>
<g transform="translate(19.0311, 20.1146)">
<path transform="scale(0.0036, -0.0036)" d="M215 137c67 0 111 -37 111 -92c0 -90 -111 -182 -215 -182c-67 0 -111 37 -111 92c0 90 111 182 215 182z" fill="currentColor"/>
</g>
<g transform="translate(20.1918, 20.6034)">
<text font-family="serif" font-size="2.2001" text-anchor="start" fill="currentColor">
<tspan> = 100</tspan>
</text>
</g>
</a>
<g transform="translate(22.7961, 28.9507)">
<rect x="-0.0650" y="0.1861" width="0.1300" height="3.3153" ry="0.0400" fill="currentColor"/>
</g>
<a style="color:inherit;" xlink:href="textedit:///Users/marc.mouries/projects/Sheet-Music/Gypsy-Jazz/Si-Tu-Savais/Si-tu-savais-%28Cm%29.ly:32:11:12">
<g transform="translate(84.9868, 28.9507)">
<path stroke-width="0.0800" stroke-linejoin="round" stroke-linecap="round" stroke="currentColor" fill="currentColor" d="M0.8521 -3.8500C1.3654 -4.4459 2.4796 -4.4459 2.9929 -3.8500L2.9929 -3.8500C2.4796 -4.3259 1.3654 -4.3259 0.8521 -3.8500z"/>
</g>
</a>
<a style="color:inherit;" xlink:href="textedit:///Users/marc.mouries/projects/Sheet-Music/Gypsy-Jazz/Si-Tu-Savais/Si-tu-savais-%28Cm%29.ly:29:4:5">
<g transform="translate(25.2353, 28.4007)">
<path transform="scale(0.0040, -0.0040)" d="M218 136c66 0 108 -36 108 -89c0 -89 -113 -183 -218 -183c-66 0 -108 36 -108 89c0 89 113 183 218 183z" fill="currentColor"/>
</g>
</a>
<g transform="translate(25.3003, 28.9507)">
<rect x="-0.0650" y="-0.3639" width="0.1300" height="3.3805" ry="0.0400" fill="currentColor"/>
</g>
<g transform="translate(61.5340, 32.0367)">
<polygon stroke-linejoin="round" stroke-linecap="round" stroke-width="0.0800" fill="currentColor" stroke="currentColor" points="5.0984 -0.8960 5.0984 -0.4480 0.0400 0.2240 0.0400 -0.2240"/>
</g>
<a style="color:inherit;" xlink:href="textedit:///Users/marc.mouries/projects/Sheet-Music/Gypsy-Jazz/Si-Tu-Savais/Si-tu-savais-%28Cm%29.ly:29:7:8">
<g transform="translate(27.7395, 27.8507)">
<path transform="scale(0.0040, -0.0040)" d="M218 136c66 0 108 -36 108 -89c0 -89 -113 -183 -218 -183c-66 0 -108 36 -108 89c0 89 113 183 218 183z" fill="currentColor"/>
</g>
</a>
<g transform="translate(27.8045, 28.9507)">
<rect x="-0.0650" y="-0.9139" width="0.1300" height="3.4457" ry="0.0400" fill="currentColor"/>
</g>
<a style="color:inherit;" xlink:href="textedit:///Users/marc.mouries/projects/Sheet-Music/Gypsy-Jazz/Si-Tu-Savais/Si-tu-savais-%28Cm%29.ly:29:9:10">
<g transform="translate(30.4938, 25.6507)">
<path transform="scale(0.0040, -0.0040)" d="M218 136c66 0 108 -36 108 -89c0 -89 -113 -183 -218 -183c-66 0 -108 36 -108 89c0 89 113 183 218 183z" fill="currentColor"/>
</g>
</a>
<g transform="translate(30.5588, 28.9507)">
<rect x="-0.0650" y="-3.1139" width="0.1300" height="5.1125" ry="0.0400" fill="currentColor"/>
</g>
<g transform="translate(41.2269, 32.0367)">
<polygon stroke-linejoin="round" stroke-linecap="round" stroke-width="0.0800" fill="currentColor" stroke="currentColor" points="7.5486 -0.2240 7.5486 0.2240 0.0400 0.2240 0.0400 -0.2240"/>
</g>
<a style="color:inherit;" xlink:href="textedit:///Users/marc.mouries/projects/Sheet-Music/Gypsy-Jazz/Si-Tu-Savais/Si-tu-savais-%28Cm%29.ly:22:7:8">
<g transform="translate(32.9980, 22.9913)">
<text font-family="sans-serif" font-size="2.6163" text-anchor="start" fill="currentColor">
<tspan>F</tspan>
</text>
</g>
<g transform="translate(34.5003, 22.3913)">
<path transform="scale(0.0042, -0.0042)" d="M0 119c0 8 5 15 13 18l46 17v158c0 10 8 19 18 19s19 -9 19 -19v-145l83 31v158c0 10 9 19 19 19s18 -9 18 -19v-145l32 12c2 1 5 1 7 1c11 0 20 -9 20 -20v-60c0 -8 -5 -16 -13 -19l-46 -16v-160l32 11c2 1 5 1 7 1c11 0 20 -9 20 -20v-60c0 -8 -5 -15 -13 -18l-46 -17
v-158c0 -10 -8 -19 -18 -19s-19 9 -19 19v145l-83 -31v-158c0 -10 -9 -19 -19 -19s-18 9 -18 19v145l-32 -12c-2 -1 -5 -1 -7 -1c-11 0 -20 9 -20 20v60c0 8 5 16 13 19l46 16v160l-32 -11c-2 -1 -5 -1 -7 -1c-11 0 -20 9 -20 20v60zM179 95l-83 -30v-160l83 30v160z" fill="currentColor"/>
</g>
<g transform="translate(35.6657, 21.8021)">
<text font-family="sans-serif" font-size="1.8500" text-anchor="start" fill="currentColor">
<tspan>7</tspan>
</text>
</g>
</a>
<a style="color:inherit;" xlink:href="textedit:///Users/marc.mouries/projects/Sheet-Music/Gypsy-Jazz/Si-Tu-Savais/Si-tu-savais-%28Cm%29.ly:29:14:15">
<g transform="translate(32.9980, 25.6507)">
<path transform="scale(0.0040, -0.0040)" d="M218 136c66 0 108 -36 108 -89c0 -89 -113 -183 -218 -183c-66 0 -108 36 -108 89c0 89 113 183 218 183z" fill="currentColor"/>
</g>
</a>
<g transform="translate(34.7522, 25.1007)">
<path transform="scale(0.0040, -0.0040)" d="M0 0c0 31 25 56 56 56s56 -25 56 -56s-25 -56 -56 -56s-56 25 -56 56z" fill="currentColor"/>
</g>
<g transform="translate(33.0630, 28.9507)">
<rect x="-0.0650" y="-3.1139" width="0.1300" height="3.6639" ry="0.0400" fill="currentColor"/>
</g>
<a style="color:inherit;" xlink:href="textedit:///Users/marc.mouries/projects/Sheet-Music/Gypsy-Jazz/Si-Tu-Savais/Si-tu-savais-%28Cm%29.ly:30:13:14">
<g transform="translate(48.6856, 28.9507)">
<path stroke-width="0.0800" stroke-linejoin="round" stroke-linecap="round" stroke="currentColor" fill="currentColor" d="M0.8521 -3.0000C1.3589 -3.5905 2.4495 -3.5905 2.9563 -3.0000L2.9563 -3.0000C2.4495 -3.4705 1.3589 -3.4705 0.8521 -3.0000z"/>
</g>
</a>
<a style="color:inherit;" xlink:href="textedit:///Users/marc.mouries/projects/Sheet-Music/Gypsy-Jazz/Si-Tu-Savais/Si-tu-savais-%28Cm%29.ly:29:18:19">
<g transform="translate(37.4041, 26.2007)">
<path transform="scale(0.0040, -0.0040)" d="M218 136c66 0 108 -36 108 -89c0 -89 -113 -183 -218 -183c-66 0 -108 36 -108 89c0 89 113 183 218 183z" fill="currentColor"/>
</g>
</a>
<g transform="translate(37.4691, 28.9507)">
<rect x="-0.0650" y="-2.5639" width="0.1300" height="3.6639" ry="0.0400" fill="currentColor"/>
</g>
<g transform="translate(37.5341, 30.0107)">
<path transform="scale(0.0040, -0.0040)" d="M0 0h-16v250h16v-250zM0 0v250c97 59 224 148 224 259c0 57 -15 112 -40 163c-3 16 10 27 23 27c7 0 15 -3 20 -11c25 -56 40 -117 40 -179c0 -203 -267 -306 -267 -509z" fill="currentColor"/>
</g>
<g transform="translate(22.7311, 32.4647)">
<polygon stroke-linejoin="round" stroke-linecap="round" stroke-width="0.0800" fill="currentColor" stroke="currentColor" points="7.8526 -1.7520 7.8526 -1.3040 0.0400 0.2240 0.0400 -0.2240"/>
</g>
<a style="color:inherit;" xlink:href="textedit:///Users/marc.mouries/projects/Sheet-Music/Gypsy-Jazz/Si-Tu-Savais/Si-tu-savais-%28Cm%29.ly:22:15:16">
<g transform="translate(41.2269, 22.9913)">
<text font-family="sans-serif" font-size="2.6163" text-anchor="start" fill="currentColor">
<tspan>B</tspan>
</text>
</g>
<g transform="translate(43.0365, 22.9913)">
<text font-family="sans-serif" font-size="2.6163" text-anchor="start" fill="currentColor">
<tspan>m</tspan>
</text>
</g>
</a>
<a style="color:inherit;" xlink:href="textedit:///Users/marc.mouries/projects/Sheet-Music/Gypsy-Jazz/Si-Tu-Savais/Si-tu-savais-%28Cm%29.ly:30:1:2">
<g transform="translate(41.2269, 26.7507)">
<path transform="scale(0.0040, -0.0040)" d="M218 136c66 0 108 -36 108 -89c0 -89 -113 -183 -218 -183c-66 0 -108 36 -108 89c0 89 113 183 218 183z" fill="currentColor"/>
</g>
</a>
<g transform="translate(41.2919, 28.9507)">
<rect x="-0.0650" y="-2.0139" width="0.1300" height="5.0999" ry="0.0400" fill="currentColor"/>
</g>
<a style="color:inherit;" xlink:href="textedit:///Users/marc.mouries/projects/Sheet-Music/Gypsy-Jazz/Si-Tu-Savais/Si-tu-savais-%28Cm%29.ly:29:12:13">
<g transform="translate(30.4938, 28.9507)">
<path stroke-width="0.0800" stroke-linejoin="round" stroke-linecap="round" stroke="currentColor" fill="currentColor" d="M0.8521 -4.1000C1.3589 -4.6905 2.4495 -4.6905 2.9563 -4.1000L2.9563 -4.1000C2.4495 -4.5705 1.3589 -4.5705 0.8521 -4.1000z"/>
</g>
</a>
<a style="color:inherit;" xlink:href="textedit:///Users/marc.mouries/projects/Sheet-Music/Gypsy-Jazz/Si-Tu-Savais/Si-tu-savais-%28Cm%29.ly:30:5:6">
<g transform="translate(43.4811, 27.8507)">
<path transform="scale(0.0040, -0.0040)" d="M218 136c66 0 108 -36 108 -89c0 -89 -113 -183 -218 -183c-66 0 -108 36 -108 89c0 89 113 183 218 183z" fill="currentColor"/>
</g>
</a>
<g transform="translate(43.5461, 28.9507)">
<rect x="-0.0650" y="-0.9139" width="0.1300" height="3.9999" ry="0.0400" fill="currentColor"/>
</g>
<a style="color:inherit;" xlink:href="textedit:///Users/marc.mouries/projects/Sheet-Music/Gypsy-Jazz/Si-Tu-Savais/Si-tu-savais-%28Cm%29.ly:30:7:8">
<g transform="translate(45.7353, 28.9507)">
<path transform="scale(0.0040, -0.0040)" d="M218 136c66 0 108 -36 108 -89c0 -89 -113 -183 -218 -183c-66 0 -108 36 -108 89c0 89 113 183 218 183z" fill="currentColor"/>
</g>
</a>
<g transform="translate(45.8003, 28.9507)">
<rect x="-0.0650" y="0.1861" width="0.1300" height="2.8999" ry="0.0400" fill="currentColor"/>
</g>
<a style="color:inherit;" xlink:href="textedit:///Users/marc.mouries/projects/Sheet-Music/Gypsy-Jazz/Si-Tu-Savais/Si-tu-savais-%28Cm%29.ly:30:9:10">
<g transform="translate(48.6856, 26.7507)">
<path transform="scale(0.0040, -0.0040)" d="M218 136c66 0 108 -36 108 -89c0 -89 -113 -183 -218 -183c-66 0 -108 36 -108 89c0 89 113 183 218 183z" fill="currentColor"/>
</g>
</a>
<g transform="translate(48.7506, 28.9507)">
<rect x="-0.0650" y="-2.0139" width="0.1300" height="5.0999" ry="0.0400" fill="currentColor"/>
</g>
<g transform="translate(47.6396, 26.7507)">
<path transform="scale(0.0040, -0.0040)" d="M-7 375c8 4 17 7 25 7s16 -3 24 -7l-2 -183l106 20h3c10 0 18 -7 18 -17l7 -570c-8 -4 -17 -7 -25 -7s-16 3 -24 7l2 183l-106 -20h-3c-10 0 -18 7 -18 17zM131 112l-92 -17l-3 -207l92 17z" fill="currentColor"/>
</g>
<a style="color:inherit;" xlink:href="textedit:///Users/marc.mouries/projects/Sheet-Music/Gypsy-Jazz/Si-Tu-Savais/Si-tu-savais-%28Cm%29.ly:22:20:21">
<g transform="translate(51.1898, 22.9913)">
<text font-family="sans-serif" font-size="2.6163" text-anchor="start" fill="currentColor">
<tspan>G</tspan>
</text>
</g>
<g transform="translate(53.2042, 21.8021)">
<text font-family="sans-serif" font-size="1.8500" text-anchor="start" fill="currentColor">
<tspan>7</tspan>
</text>
</g>
</a>
<a style="color:inherit;" xlink:href="textedit:///Users/marc.mouries/projects/Sheet-Music/Gypsy-Jazz/Si-Tu-Savais/Si-tu-savais-%28Cm%29.ly:30:15:16">
<g transform="translate(51.1898, 26.7507)">
<path transform="scale(0.0040, -0.0040)" d="M218 136c66 0 108 -36 108 -89c0 -89 -113 -183 -218 -183c-66 0 -108 36 -108 89c0 89 113 183 218 183z" fill="currentColor"/>
</g>
</a>
<g transform="translate(51.2548, 28.9507)">
<rect x="-0.0650" y="-2.0139" width="0.1300" height="3.6639" ry="0.0400" fill="currentColor"/>
</g>
<a style="color:inherit;" xlink:href="textedit:///Users/marc.mouries/projects/Sheet-Music/Gypsy-Jazz/Si-Tu-Savais/Si-tu-savais-%28Cm%29.ly:30:18:19">
<g transform="translate(54.8940, 28.9507)">
<path transform="scale(0.0040, -0.0040)" d="M-6 78c0 59 124 83 124 182c0 24 -8 49 -25 69l-35 42c-3 3 -4 7 -4 10c0 9 9 15 17 15c4 0 8 -1 11 -5l151 -180c7 -9 10 -17 10 -25c0 -59 -124 -83 -124 -182c0 -24 7 -49 24 -69l84 -99c3 -3 4 -7 4 -10c0 -9 -8 -16 -16 -16s-45 44 -109 44c-16 0 -53 0 -53 -67
c0 -35 11 -74 28 -94c7 -8 -5 -19 -12 -11c-45 54 -92 148 -92 202c0 41 27 42 40 42c33 0 78 -13 119 -31l-132 158c-7 9 -10 17 -10 25z" fill="currentColor"/>
</g>
</a>
<a style="color:inherit;" xlink:href="textedit:///Users/marc.mouries/projects/Sheet-Music/Gypsy-Jazz/Si-Tu-Savais/Si-tu-savais-%28Cm%29.ly:23:2:3">
<g transform="translate(59.3340, 22.9913)">
<text font-family="sans-serif" font-size="2.6163" text-anchor="start" fill="currentColor">
<tspan>B</tspan>
</text>
</g>
<g transform="translate(61.1436, 22.9913)">
<text font-family="sans-serif" font-size="2.6163" text-anchor="start" fill="currentColor">
<tspan>m</tspan>
</text>
</g>
</a>
<a style="color:inherit;" xlink:href="textedit:///Users/marc.mouries/projects/Sheet-Music/Gypsy-Jazz/Si-Tu-Savais/Si-tu-savais-%28Cm%29.ly:31:2:3">
<g transform="translate(59.3340, 28.9507)">
<path transform="scale(0.0040, -0.0040)" d="M70 205c79 0 46 -98 91 -98c16 0 54 48 61 63c6 12 23 12 28 0l-123 -420c-8 -7 -17 -10 -27 -10s-20 3 -28 10l117 326c-34 -12 -69 -22 -105 -22c-47 0 -87 34 -87 79c0 40 33 72 73 72z" fill="currentColor"/>
</g>
</a>
<a style="color:inherit;" xlink:href="textedit:///Users/marc.mouries/projects/Sheet-Music/Gypsy-Jazz/Si-Tu-Savais/Si-tu-savais-%28Cm%29.ly:31:5:6">
<g transform="translate(61.5340, 28.9507)">
<path transform="scale(0.0040, -0.0040)" d="M218 136c66 0 108 -36 108 -89c0 -89 -113 -183 -218 -183c-66 0 -108 36 -108 89c0 89 113 183 218 183z" fill="currentColor"/>
</g>
</a>
<g transform="translate(61.5990, 28.9507)">
<rect x="-0.0650" y="0.1861" width="0.1300" height="2.8914" ry="0.0400" fill="currentColor"/>
</g>
<a style="color:inherit;" xlink:href="textedit:///Users/marc.mouries/projects/Sheet-Music/Gypsy-Jazz/Si-Tu-Savais/Si-tu-savais-%28Cm%29.ly:31:9:10">
<g transform="translate(64.0382, 28.4007)">
<path transform="scale(0.0040, -0.0040)" d="M218 136c66 0 108 -36 108 -89c0 -89 -113 -183 -218 -183c-66 0 -108 36 -108 89c0 89 113 183 218 183z" fill="currentColor"/>
</g>
</a>
<g transform="translate(64.1032, 28.9507)">
<rect x="-0.0650" y="-0.3639" width="0.1300" height="3.1139" ry="0.0400" fill="currentColor"/>
</g>
<a style="color:inherit;" xlink:href="textedit:///Users/marc.mouries/projects/Sheet-Music/Gypsy-Jazz/Si-Tu-Savais/Si-tu-savais-%28Cm%29.ly:31:12:13">
<g transform="translate(66.5424, 27.8507)">
<path transform="scale(0.0040, -0.0040)" d="M218 136c66 0 108 -36 108 -89c0 -89 -113 -183 -218 -183c-66 0 -108 36 -108 89c0 89 113 183 218 183z" fill="currentColor"/>
</g>
</a>
<g transform="translate(66.6074, 28.9507)">
<rect x="-0.0650" y="-0.9139" width="0.1300" height="3.3364" ry="0.0400" fill="currentColor"/>
</g>
<a style="color:inherit;" xlink:href="textedit:///Users/marc.mouries/projects/Sheet-Music/Gypsy-Jazz/Si-Tu-Savais/Si-tu-savais-%28Cm%29.ly:23:7:8">
<g transform="translate(69.2966, 22.9913)">
<text font-family="sans-serif" font-size="2.6163" text-anchor="start" fill="currentColor">
<tspan>A</tspan>
</text>
</g>
<g transform="translate(71.0721, 21.8021)">
<text font-family="sans-serif" font-size="1.8500" text-anchor="start" fill="currentColor">
<tspan>7</tspan>
</text>
</g>
</a>
<a style="color:inherit;" xlink:href="textedit:///Users/marc.mouries/projects/Sheet-Music/Gypsy-Jazz/Si-Tu-Savais/Si-tu-savais-%28Cm%29.ly:31:15:16">
<g transform="translate(69.2966, 24.5507)">
<path transform="scale(0.0040, -0.0040)" d="M218 136c66 0 108 -36 108 -89c0 -89 -113 -183 -218 -183c-66 0 -108 36 -108 89c0 89 113 183 218 183z" fill="currentColor"/>
</g>
</a>
<g transform="translate(71.0508, 24.0007)">
<path transform="scale(0.0040, -0.0040)" d="M0 0c0 31 25 56 56 56s56 -25 56 -56s-25 -56 -56 -56s-56 25 -56 56z" fill="currentColor"/>
</g>
<g transform="translate(69.3616, 28.9507)">
<rect x="-0.0650" y="-4.2139" width="0.1300" height="4.2139" ry="0.0400" fill="currentColor"/>
</g>
<a style="color:inherit;" xlink:href="textedit:///Users/marc.mouries/projects/Sheet-Music/Gypsy-Jazz/Si-Tu-Savais/Si-tu-savais-%28Cm%29.ly:31:21:22">
<g transform="translate(73.7028, 25.1007)">
<path transform="scale(0.0040, -0.0040)" d="M218 136c66 0 108 -36 108 -89c0 -89 -113 -183 -218 -183c-66 0 -108 36 -108 89c0 89 113 183 218 183z" fill="currentColor"/>
</g>
</a>
<g transform="translate(73.7678, 28.9507)">
<rect x="-0.0650" y="-3.6639" width="0.1300" height="3.6639" ry="0.0400" fill="currentColor"/>
</g>
<g transform="translate(73.8328, 28.9107)">
<path transform="scale(0.0040, -0.0040)" d="M0 0h-16v250h16v-250zM0 0v250c97 59 224 148 224 259c0 57 -15 112 -40 163c-3 16 10 27 23 27c7 0 15 -3 20 -11c25 -56 40 -117 40 -179c0 -203 -267 -306 -267 -509z" fill="currentColor"/>
</g>
<a style="color:inherit;" xlink:href="textedit:///Users/marc.mouries/projects/Sheet-Music/Gypsy-Jazz/Si-Tu-Savais/Si-tu-savais-%28Cm%29.ly:23:14:15">
<g transform="translate(77.4741, 22.9913)">
<text font-family="sans-serif" font-size="2.6163" text-anchor="start" fill="currentColor">
<tspan>D</tspan>
</text>
</g>
</a>
<a style="color:inherit;" xlink:href="textedit:///Users/marc.mouries/projects/Sheet-Music/Gypsy-Jazz/Si-Tu-Savais/Si-tu-savais-%28Cm%29.ly:32:2:3">
<g transform="translate(77.4741, 25.6507)">
<path transform="scale(0.0040, -0.0040)" d="M218 136c66 0 108 -36 108 -89c0 -89 -113 -183 -218 -183c-66 0 -108 36 -108 89c0 89 113 183 218 183z" fill="currentColor"/>
</g>
</a>
<g transform="translate(77.5391, 28.9507)">
<rect x="-0.0650" y="-3.1139" width="0.1300" height="3.1157" ry="0.0400" fill="currentColor"/>
</g>
<a style="color:inherit;" xlink:href="textedit:///Users/marc.mouries/projects/Sheet-Music/Gypsy-Jazz/Si-Tu-Savais/Si-tu-savais-%28Cm%29.ly:32:5:6">
<g transform="translate(79.9783, 25.1007)">
<path transform="scale(0.0040, -0.0040)" d="M218 136c66 0 108 -36 108 -89c0 -89 -113 -183 -218 -183c-66 0 -108 36 -108 89c0 89 113 183 218 183z" fill="currentColor"/>
</g>
</a>
<g transform="translate(80.0433, 28.9507)">
<rect x="-0.0650" y="-3.6639" width="0.1300" height="3.7358" ry="0.0400" fill="currentColor"/>
</g>
<g transform="translate(87.5560, 28.9507)">
<rect x="-0.0650" y="-2.4910" width="0.1300" height="3.5910" ry="0.0400" fill="currentColor"/>
</g>
<a style="color:inherit;" xlink:href="textedit:///Users/marc.mouries/projects/Sheet-Music/Gypsy-Jazz/Si-Tu-Savais/Si-tu-savais-%28Cm%29.ly:32:7:8">
<g transform="translate(82.4826, 25.6507)">
<path transform="scale(0.0040, -0.0040)" d="M218 136c66 0 108 -36 108 -89c0 -89 -113 -183 -218 -183c-66 0 -108 36 -108 89c0 89 113 183 218 183z" fill="currentColor"/>
</g>
</a>
<g transform="translate(82.5476, 28.9507)">
<rect x="-0.0650" y="-3.1139" width="0.1300" height="3.2560" ry="0.0400" fill="currentColor"/>
</g>
<a style="color:inherit;" xlink:href="textedit:///Users/marc.mouries/projects/Sheet-Music/Gypsy-Jazz/Si-Tu-Savais/Si-tu-savais-%28Cm%29.ly:32:13:14">
<g transform="translate(87.4910, 26.2007)">
<path transform="scale(0.0040, -0.0040)" d="M314 65c0 23 -19 41 -42 41c-39 0 -204 -110 -231 -143c-7 -8 -10 -18 -10 -28c0 -23 19 -41 42 -41c39 0 203 110 230 143c7 8 11 18 11 28zM262 136c41 0 82 -14 82 -71c0 -26 -16 -112 -74 -151c-25 -17 -87 -50 -187 -50c-41 0 -83 14 -83 71c0 26 16 112 74 151
c25 17 88 50 188 50z" fill="currentColor"/>
</g>
</a>
<a style="color:inherit;" xlink:href="textedit:///Users/marc.mouries/projects/Sheet-Music/Gypsy-Jazz/Si-Tu-Savais/Si-tu-savais-%28Cm%29.ly:32:9:10">
<g transform="translate(84.9868, 26.2007)">
<path transform="scale(0.0040, -0.0040)" d="M218 136c66 0 108 -36 108 -89c0 -89 -113 -183 -218 -183c-66 0 -108 36 -108 89c0 89 113 183 218 183z" fill="currentColor"/>
</g>
</a>
<g transform="translate(85.0518, 28.9507)">
<rect x="-0.0650" y="-2.5639" width="0.1300" height="2.7761" ry="0.0400" fill="currentColor"/>
</g>
<a style="color:inherit;" xlink:href="textedit:///Users/marc.mouries/projects/Sheet-Music/Gypsy-Jazz/Si-Tu-Savais/Si-tu-savais-%28Cm%29.ly:23:17:18">
<g transform="translate(87.4910, 22.9913)">
<text font-family="sans-serif" font-size="2.6163" text-anchor="start" fill="currentColor">
<tspan>F</tspan>
</text>
</g>
<g transform="translate(88.9933, 22.3913)">
<path transform="scale(0.0042, -0.0042)" d="M0 119c0 8 5 15 13 18l46 17v158c0 10 8 19 18 19s19 -9 19 -19v-145l83 31v158c0 10 9 19 19 19s18 -9 18 -19v-145l32 12c2 1 5 1 7 1c11 0 20 -9 20 -20v-60c0 -8 -5 -16 -13 -19l-46 -16v-160l32 11c2 1 5 1 7 1c11 0 20 -9 20 -20v-60c0 -8 -5 -15 -13 -18l-46 -17
v-158c0 -10 -8 -19 -18 -19s-19 9 -19 19v145l-83 -31v-158c0 -10 -9 -19 -19 -19s-18 9 -18 19v145l-32 -12c-2 -1 -5 -1 -7 -1c-11 0 -20 9 -20 20v60c0 8 5 16 13 19l46 16v160l-32 -11c-2 -1 -5 -1 -7 -1c-11 0 -20 9 -20 20v60zM179 95l-83 -30v-160l83 30v160z" fill="currentColor"/>
</g>
<g transform="translate(90.1587, 21.8021)">
<text font-family="sans-serif" font-size="1.8500" text-anchor="start" fill="currentColor">
<tspan>7</tspan>
</text>
</g>
</a>
</svg>
