<svg xmlns="http://www.w3.org/2000/svg" xmlns:xlink="http://www.w3.org/1999/xlink" version="1.2" width="215.90mm" height="279.40mm" viewBox="0.0000 -0.0000 122.8590 158.9940">
<style type="text/css">
<![CDATA[
tspan { white-space: pre; }
]]>
</style>
<g transform="translate(43.2140, 13.1051)">
<text font-family="Optima" font-weight="bold" font-size="4.3999" text-anchor="start" fill="currentColor">
<tspan>C</tspan>
</text>
</g>
<g transform="translate(46.1504, 13.1051)">
<text font-family="Optima" font-weight="bold" font-size="3.4923" text-anchor="start" fill="currentColor">
<tspan>AROL</tspan>
</text>
</g>
<g transform="translate(55.2325, 13.1051)">
<text font-family="Optima" font-weight="bold" font-size="4.3999" text-anchor="start" fill="currentColor">
<tspan> </tspan>
</text>
</g>
<g transform="translate(56.4616, 13.1051)">
<text font-family="Optima" font-weight="bold" font-size="3.4923" text-anchor="start" fill="currentColor">
<tspan>OF</tspan>
</text>
</g>
<g transform="translate(61.1051, 13.1051)">
<text font-family="Optima" font-weight="bold" font-size="4.3999" text-anchor="start" fill="currentColor">
<tspan> </tspan>
</text>
</g>
<g transform="translate(62.3343, 13.1051)">
<text font-family="Optima" font-weight="bold" font-size="3.4923" text-anchor="start" fill="currentColor">
<tspan>THE</tspan>
</text>
</g>
<g transform="translate(68.7532, 13.1051)">
<text font-family="Optima" font-weight="bold" font-size="4.3999" text-anchor="start" fill="currentColor">
<tspan> B</tspan>
</text>
</g>
<g transform="translate(72.6797, 13.1051)">
<text font-family="Optima" font-weight="bold" font-size="3.4923" text-anchor="start" fill="currentColor">
<tspan>ELLS</tspan>
</text>
</g>
<g transform="translate(47.6356, 16.1051)">
<text font-family="Optima" font-size="2.2000" text-anchor="start" fill="currentColor">
<tspan>Shchedryk (Щедрик) - SATB</tspan>
</text>
</g>
<g transform="translate(81.0022, 13.1051)">
<text font-family="Optima" font-size="2.2000" text-anchor="start" fill="currentColor">
<tspan>Mykola Leontovych (1877–1921)</tspan>
</text>
</g>
<g transform="translate(16.1697, 49.6130)">
<line stroke-linejoin="round" stroke-linecap="round" stroke-width="0.1000" stroke="currentColor" x1="0.0500" y1="0" x2="96.1601" y2="0"/>
</g>
<g transform="translate(16.1697, 48.5130)">
<line stroke-linejoin="round" stroke-linecap="round" stroke-width="0.1000" stroke="currentColor" x1="0.0500" y1="0" x2="96.1601" y2="0"/>
</g>
<g transform="translate(16.1697, 47.4130)">
<line stroke-linejoin="round" stroke-linecap="round" stroke-width="0.1000" stroke="currentColor" x1="0.0500" y1="0" x2="96.1601" y2="0"/>
</g>
<g transform="translate(16.1697, 46.3130)">
<line stroke-linejoin="round" stroke-linecap="round" stroke-width="0.1000" stroke="currentColor" x1="0.0500" y1="0" x2="96.1601" y2="0"/>
</g>
<g transform="translate(16.1697, 45.2130)">
<line stroke-linejoin="round" stroke-linecap="round" stroke-width="0.1000" stroke="currentColor" x1="0.0500" y1="0" x2="96.1601" y2="0"/>
</g>
<g transform="translate(112.2798, 38.8197)">
<rect x="0.0000" y="72.9770" width="0.1000" height="8.8948" ry="0.0000" fill="currentColor"/>
</g>
<g transform="translate(112.2798, 38.8197)">
<rect x="0.0000" y="54.6563" width="0.1000" height="13.8707" ry="0.0000" fill="currentColor"/>
</g>
<g transform="translate(112.2798, 38.8197)">
<rect x="0.0000" y="41.3115" width="0.1000" height="8.8948" ry="0.0000" fill="currentColor"/>
</g>
<g transform="translate(112.2798, 38.8197)">
<rect x="0.0000" y="27.9667" width="0.1000" height="8.8948" ry="0.0000" fill="currentColor"/>
</g>
<g transform="translate(112.2798, 38.8197)">
<rect x="0.0000" y="10.8433" width="0.1000" height="12.6734" ry="0.0000" fill="currentColor"/>
</g>
<g transform="translate(112.2798, 38.8197)">
<rect x="0.0000" y="72.9270" width="0.1000" height="8.9448" ry="0.0000" fill="currentColor"/>
</g>
<g transform="translate(112.2798, 122.8914)">
<rect x="0.0000" y="-2.2500" width="0.1000" height="4.4500" ry="0.0000" fill="currentColor"/>
</g>
<g transform="translate(112.2798, 109.5466)">
<rect x="0.0000" y="-2.2500" width="0.1000" height="4.5000" ry="0.0000" fill="currentColor"/>
</g>
<g transform="translate(112.2798, 91.2260)">
<rect x="0.0000" y="-2.2500" width="0.1000" height="4.5000" ry="0.0000" fill="currentColor"/>
</g>
<g transform="translate(16.1697, 66.7363)">
<line stroke-linejoin="round" stroke-linecap="round" stroke-width="0.1000" stroke="currentColor" x1="0.0500" y1="0" x2="96.1601" y2="0"/>
</g>
<g transform="translate(16.1697, 65.6363)">
<line stroke-linejoin="round" stroke-linecap="round" stroke-width="0.1000" stroke="currentColor" x1="0.0500" y1="0" x2="96.1601" y2="0"/>
</g>
<g transform="translate(16.1697, 64.5363)">
<line stroke-linejoin="round" stroke-linecap="round" stroke-width="0.1000" stroke="currentColor" x1="0.0500" y1="0" x2="96.1601" y2="0"/>
</g>
<g transform="translate(16.1697, 63.4363)">
<line stroke-linejoin="round" stroke-linecap="round" stroke-width="0.1000" stroke="currentColor" x1="0.0500" y1="0" x2="96.1601" y2="0"/>
</g>
<g transform="translate(16.1697, 62.3363)">
<line stroke-linejoin="round" stroke-linecap="round" stroke-width="0.1000" stroke="currentColor" x1="0.0500" y1="0" x2="96.1601" y2="0"/>
</g>
<g transform="translate(112.2798, 77.8812)">
<rect x="0.0000" y="-2.2500" width="0.1000" height="4.5000" ry="0.0000" fill="currentColor"/>
</g>
<g transform="translate(112.2798, 64.5363)">
<rect x="0.0000" y="-2.2500" width="0.1000" height="4.5000" ry="0.0000" fill="currentColor"/>
</g>
<g transform="translate(112.2798, 47.4130)">
<rect x="0.0000" y="-2.2000" width="0.1000" height="4.4500" ry="0.0000" fill="currentColor"/>
</g>
<g transform="translate(96.5521, 38.8197)">
<rect x="0.0000" y="72.9770" width="0.1000" height="8.8948" ry="0.0000" fill="currentColor"/>
</g>
<g transform="translate(96.5521, 38.8197)">
<rect x="0.0000" y="54.6563" width="0.1000" height="13.8707" ry="0.0000" fill="currentColor"/>
</g>
<g transform="translate(96.5521, 38.8197)">
<rect x="0.0000" y="41.3115" width="0.1000" height="8.8948" ry="0.0000" fill="currentColor"/>
</g>
<g transform="translate(96.5521, 38.8197)">
<rect x="0.0000" y="27.9667" width="0.1000" height="8.8948" ry="0.0000" fill="currentColor"/>
</g>
<g transform="translate(96.5521, 38.8197)">
<rect x="0.0000" y="10.8433" width="0.1000" height="12.6734" ry="0.0000" fill="currentColor"/>
</g>
<g transform="translate(96.5521, 38.8197)">
<rect x="0.0000" y="72.9270" width="0.1000" height="8.9448" ry="0.0000" fill="currentColor"/>
</g>
<g transform="translate(16.1697, 80.0812)">
<line stroke-linejoin="round" stroke-linecap="round" stroke-width="0.1000" stroke="currentColor" x1="0.0500" y1="0" x2="96.1601" y2="0"/>
</g>
<g transform="translate(16.1697, 78.9812)">
<line stroke-linejoin="round" stroke-linecap="round" stroke-width="0.1000" stroke="currentColor" x1="0.0500" y1="0" x2="96.1601" y2="0"/>
</g>
<g transform="translate(16.1697, 77.8812)">
<line stroke-linejoin="round" stroke-linecap="round" stroke-width="0.1000" stroke="currentColor" x1="0.0500" y1="0" x2="96.1601" y2="0"/>
</g>
<g transform="translate(16.1697, 76.7812)">
<line stroke-linejoin="round" stroke-linecap="round" stroke-width="0.1000" stroke="currentColor" x1="0.0500" y1="0" x2="96.1601" y2="0"/>
</g>
<g transform="translate(16.1697, 75.6812)">
<line stroke-linejoin="round" stroke-linecap="round" stroke-width="0.1000" stroke="currentColor" x1="0.0500" y1="0" x2="96.1601" y2="0"/>
</g>
<g transform="translate(96.5521, 122.8914)">
<rect x="0.0000" y="-2.2500" width="0.1000" height="4.4500" ry="0.0000" fill="currentColor"/>
</g>
<g transform="translate(96.5521, 109.5466)">
<rect x="0.0000" y="-2.2500" width="0.1000" height="4.5000" ry="0.0000" fill="currentColor"/>
</g>
<g transform="translate(96.5521, 91.2260)">
<rect x="0.0000" y="-2.2500" width="0.1000" height="4.5000" ry="0.0000" fill="currentColor"/>
</g>
<g transform="translate(96.5521, 77.8812)">
<rect x="0.0000" y="-2.2500" width="0.1000" height="4.5000" ry="0.0000" fill="currentColor"/>
</g>
<g transform="translate(96.5521, 64.5363)">
<rect x="0.0000" y="-2.2500" width="0.1000" height="4.5000" ry="0.0000" fill="currentColor"/>
</g>
<g transform="translate(16.1697, 93.4260)">
<line stroke-linejoin="round" stroke-linecap="round" stroke-width="0.1000" stroke="currentColor" x1="0.0500" y1="0" x2="96.1601" y2="0"/>
</g>
<g transform="translate(16.1697, 92.3260)">
<line stroke-linejoin="round" stroke-linecap="round" stroke-width="0.1000" stroke="currentColor" x1="0.0500" y1="0" x2="96.1601" y2="0"/>
</g>
<g transform="translate(16.1697, 91.2260)">
<line stroke-linejoin="round" stroke-linecap="round" stroke-width="0.1000" stroke="currentColor" x1="0.0500" y1="0" x2="96.1601" y2="0"/>
</g>
<g transform="translate(16.1697, 90.1260)">
<line stroke-linejoin="round" stroke-linecap="round" stroke-width="0.1000" stroke="currentColor" x1="0.0500" y1="0" x2="96.1601" y2="0"/>
</g>
<g transform="translate(16.1697, 89.0260)">
<line stroke-linejoin="round" stroke-linecap="round" stroke-width="0.1000" stroke="currentColor" x1="0.0500" y1="0" x2="96.1601" y2="0"/>
</g>
<g transform="translate(96.5521, 47.4130)">
<rect x="0.0000" y="-2.2000" width="0.1000" height="4.4500" ry="0.0000" fill="currentColor"/>
</g>
<g transform="translate(80.3271, 38.8197)">
<rect x="0.0000" y="72.9770" width="0.1000" height="8.8948" ry="0.0000" fill="currentColor"/>
</g>
<g transform="translate(80.3271, 38.8197)">
<rect x="0.0000" y="54.6563" width="0.1000" height="13.8707" ry="0.0000" fill="currentColor"/>
</g>
<g transform="translate(80.3271, 38.8197)">
<rect x="0.0000" y="41.3115" width="0.1000" height="8.8948" ry="0.0000" fill="currentColor"/>
</g>
<g transform="translate(80.3271, 38.8197)">
<rect x="0.0000" y="27.9667" width="0.1000" height="8.8948" ry="0.0000" fill="currentColor"/>
</g>
<g transform="translate(80.3271, 38.8197)">
<rect x="0.0000" y="10.8433" width="0.1000" height="12.6734" ry="0.0000" fill="currentColor"/>
</g>
<g transform="translate(80.3271, 38.8197)">
<rect x="0.0000" y="72.9270" width="0.1000" height="8.9448" ry="0.0000" fill="currentColor"/>
</g>
<g transform="translate(80.3271, 122.8914)">
<rect x="0.0000" y="-2.2500" width="0.1000" height="4.4500" ry="0.0000" fill="currentColor"/>
</g>
<g transform="translate(80.3271, 109.5466)">
<rect x="0.0000" y="-2.2500" width="0.1000" height="4.5000" ry="0.0000" fill="currentColor"/>
</g>
<g transform="translate(80.3271, 91.2260)">
<rect x="0.0000" y="-2.2500" width="0.1000" height="4.5000" ry="0.0000" fill="currentColor"/>
</g>
<g transform="translate(80.3271, 77.8812)">
<rect x="0.0000" y="-2.2500" width="0.1000" height="4.5000" ry="0.0000" fill="currentColor"/>
</g>
<g transform="translate(16.1697, 111.7466)">
<line stroke-linejoin="round" stroke-linecap="round" stroke-width="0.1000" stroke="currentColor" x1="0.0500" y1="0" x2="96.1601" y2="0"/>
</g>
<g transform="translate(16.1697, 110.6466)">
<line stroke-linejoin="round" stroke-linecap="round" stroke-width="0.1000" stroke="currentColor" x1="0.0500" y1="0" x2="96.1601" y2="0"/>
</g>
<g transform="translate(16.1697, 109.5466)">
<line stroke-linejoin="round" stroke-linecap="round" stroke-width="0.1000" stroke="currentColor" x1="0.0500" y1="0" x2="96.1601" y2="0"/>
</g>
<g transform="translate(16.1697, 108.4466)">
<line stroke-linejoin="round" stroke-linecap="round" stroke-width="0.1000" stroke="currentColor" x1="0.0500" y1="0" x2="96.1601" y2="0"/>
</g>
<g transform="translate(16.1697, 107.3466)">
<line stroke-linejoin="round" stroke-linecap="round" stroke-width="0.1000" stroke="currentColor" x1="0.0500" y1="0" x2="96.1601" y2="0"/>
</g>
<g transform="translate(80.3271, 64.5363)">
<rect x="0.0000" y="-2.2500" width="0.1000" height="4.5000" ry="0.0000" fill="currentColor"/>
</g>
<g transform="translate(80.3271, 47.4130)">
<rect x="0.0000" y="-2.2000" width="0.1000" height="4.4500" ry="0.0000" fill="currentColor"/>
</g>
<g transform="translate(65.4365, 38.8197)">
<rect x="0.0000" y="72.9770" width="0.1000" height="8.8948" ry="0.0000" fill="currentColor"/>
</g>
<g transform="translate(65.4365, 38.8197)">
<rect x="0.0000" y="54.6563" width="0.1000" height="13.8707" ry="0.0000" fill="currentColor"/>
</g>
<g transform="translate(65.4365, 38.8197)">
<rect x="0.0000" y="41.3115" width="0.1000" height="8.8948" ry="0.0000" fill="currentColor"/>
</g>
<g transform="translate(65.4365, 38.8197)">
<rect x="0.0000" y="27.9667" width="0.1000" height="8.8948" ry="0.0000" fill="currentColor"/>
</g>
<g transform="translate(65.4365, 38.8197)">
<rect x="0.0000" y="10.8433" width="0.1000" height="12.6734" ry="0.0000" fill="currentColor"/>
</g>
<g transform="translate(16.1697, 125.0914)">
<line stroke-linejoin="round" stroke-linecap="round" stroke-width="0.1000" stroke="currentColor" x1="0.0500" y1="0" x2="96.1601" y2="0"/>
</g>
<g transform="translate(16.1697, 123.9914)">
<line stroke-linejoin="round" stroke-linecap="round" stroke-width="0.1000" stroke="currentColor" x1="0.0500" y1="0" x2="96.1601" y2="0"/>
</g>
<g transform="translate(16.1697, 122.8914)">
<line stroke-linejoin="round" stroke-linecap="round" stroke-width="0.1000" stroke="currentColor" x1="0.0500" y1="0" x2="96.1601" y2="0"/>
</g>
<g transform="translate(16.1697, 121.7914)">
<line stroke-linejoin="round" stroke-linecap="round" stroke-width="0.1000" stroke="currentColor" x1="0.0500" y1="0" x2="96.1601" y2="0"/>
</g>
<g transform="translate(16.1697, 120.6914)">
<line stroke-linejoin="round" stroke-linecap="round" stroke-width="0.1000" stroke="currentColor" x1="0.0500" y1="0" x2="96.1601" y2="0"/>
</g>
<g transform="translate(65.4365, 38.8197)">
<rect x="0.0000" y="72.9270" width="0.1000" height="8.9448" ry="0.0000" fill="currentColor"/>
</g>
<g transform="translate(65.4365, 122.8914)">
<rect x="0.0000" y="-2.2500" width="0.1000" height="4.4500" ry="0.0000" fill="currentColor"/>
</g>
<g transform="translate(65.4365, 109.5466)">
<rect x="0.0000" y="-2.2500" width="0.1000" height="4.5000" ry="0.0000" fill="currentColor"/>
</g>
<g transform="translate(65.4365, 91.2260)">
<rect x="0.0000" y="-2.2500" width="0.1000" height="4.5000" ry="0.0000" fill="currentColor"/>
</g>
<g transform="translate(65.4365, 77.8812)">
<rect x="0.0000" y="-2.2500" width="0.1000" height="4.5000" ry="0.0000" fill="currentColor"/>
</g>
<g transform="translate(65.4365, 64.5363)">
<rect x="0.0000" y="-2.2500" width="0.1000" height="4.5000" ry="0.0000" fill="currentColor"/>
</g>
<g transform="translate(65.4365, 47.4130)">
<rect x="0.0000" y="-2.2000" width="0.1000" height="4.4500" ry="0.0000" fill="currentColor"/>
</g>
<g transform="translate(46.7048, 38.8197)">
<rect x="0.0000" y="72.9770" width="0.1000" height="8.8948" ry="0.0000" fill="currentColor"/>
</g>
<g transform="translate(45.9048, 38.8197)">
<rect x="0.0000" y="72.9770" width="0.5000" height="8.8948" ry="0.0000" fill="currentColor"/>
</g>
<g transform="translate(46.7048, 38.8197)">
<rect x="0.0000" y="54.6563" width="0.1000" height="13.8707" ry="0.0000" fill="currentColor"/>
</g>
<g transform="translate(45.9048, 38.8197)">
<rect x="0.0000" y="54.6563" width="0.5000" height="13.8707" ry="0.0000" fill="currentColor"/>
</g>
<g transform="translate(46.7048, 38.8197)">
<rect x="0.0000" y="41.3115" width="0.1000" height="8.8948" ry="0.0000" fill="currentColor"/>
</g>
<g transform="translate(45.9048, 38.8197)">
<rect x="0.0000" y="41.3115" width="0.5000" height="8.8948" ry="0.0000" fill="currentColor"/>
</g>
<g transform="translate(46.7048, 38.8197)">
<rect x="0.0000" y="27.9667" width="0.1000" height="8.8948" ry="0.0000" fill="currentColor"/>
</g>
<g transform="translate(45.9048, 38.8197)">
<rect x="0.0000" y="27.9667" width="0.5000" height="8.8948" ry="0.0000" fill="currentColor"/>
</g>
<g transform="translate(46.7048, 38.8197)">
<rect x="0.0000" y="10.8433" width="0.1000" height="12.6734" ry="0.0000" fill="currentColor"/>
</g>
<g transform="translate(45.9048, 38.8197)">
<rect x="0.0000" y="10.8433" width="0.5000" height="12.6734" ry="0.0000" fill="currentColor"/>
</g>
<g transform="translate(46.7048, 38.8197)">
<rect x="0.0000" y="72.9270" width="0.1000" height="8.9448" ry="0.0000" fill="currentColor"/>
</g>
<g transform="translate(45.9048, 38.8197)">
<rect x="0.0000" y="72.9270" width="0.5000" height="8.9448" ry="0.0000" fill="currentColor"/>
</g>
<g transform="translate(47.1048, 122.3414)">
<path transform="scale(0.0050, -0.0050)" d="M0 0c0 32 25 57 57 57s57 -25 57 -57s-25 -57 -57 -57s-57 25 -57 57z" fill="currentColor"/>
</g>
<g transform="translate(47.1048, 123.4414)">
<path transform="scale(0.0050, -0.0050)" d="M0 0c0 32 25 57 57 57s57 -25 57 -57s-25 -57 -57 -57s-57 25 -57 57z" fill="currentColor"/>
</g>
<g transform="translate(46.7048, 122.8914)">
<rect x="0.0000" y="-2.2500" width="0.1000" height="4.4500" ry="0.0000" fill="currentColor"/>
</g>
<g transform="translate(45.9048, 122.8914)">
<rect x="0.0000" y="-2.2500" width="0.5000" height="4.4500" ry="0.0000" fill="currentColor"/>
</g>
<g transform="translate(47.1048, 108.9966)">
<path transform="scale(0.0050, -0.0050)" d="M0 0c0 32 25 57 57 57s57 -25 57 -57s-25 -57 -57 -57s-57 25 -57 57z" fill="currentColor"/>
</g>
<g transform="translate(47.1048, 110.0966)">
<path transform="scale(0.0050, -0.0050)" d="M0 0c0 32 25 57 57 57s57 -25 57 -57s-25 -57 -57 -57s-57 25 -57 57z" fill="currentColor"/>
</g>
<g transform="translate(46.7048, 109.5466)">
<rect x="0.0000" y="-2.2500" width="0.1000" height="4.5000" ry="0.0000" fill="currentColor"/>
</g>
<g transform="translate(45.9048, 109.5466)">
<rect x="0.0000" y="-2.2500" width="0.5000" height="4.5000" ry="0.0000" fill="currentColor"/>
</g>
<g transform="translate(47.1048, 90.6760)">
<path transform="scale(0.0050, -0.0050)" d="M0 0c0 32 25 57 57 57s57 -25 57 -57s-25 -57 -57 -57s-57 25 -57 57z" fill="currentColor"/>
</g>
<g transform="translate(47.1048, 91.7760)">
<path transform="scale(0.0050, -0.0050)" d="M0 0c0 32 25 57 57 57s57 -25 57 -57s-25 -57 -57 -57s-57 25 -57 57z" fill="currentColor"/>
</g>
<g transform="translate(46.7048, 91.2260)">
<rect x="0.0000" y="-2.2500" width="0.1000" height="4.5000" ry="0.0000" fill="currentColor"/>
</g>
<g transform="translate(45.9048, 91.2260)">
<rect x="0.0000" y="-2.2500" width="0.5000" height="4.5000" ry="0.0000" fill="currentColor"/>
</g>
<g transform="translate(47.1048, 77.3312)">
<path transform="scale(0.0050, -0.0050)" d="M0 0c0 32 25 57 57 57s57 -25 57 -57s-25 -57 -57 -57s-57 25 -57 57z" fill="currentColor"/>
</g>
<g transform="translate(47.1048, 78.4312)">
<path transform="scale(0.0050, -0.0050)" d="M0 0c0 32 25 57 57 57s57 -25 57 -57s-25 -57 -57 -57s-57 25 -57 57z" fill="currentColor"/>
</g>
<g transform="translate(46.7048, 77.8812)">
<rect x="0.0000" y="-2.2500" width="0.1000" height="4.5000" ry="0.0000" fill="currentColor"/>
</g>
<g transform="translate(45.9048, 77.8812)">
<rect x="0.0000" y="-2.2500" width="0.5000" height="4.5000" ry="0.0000" fill="currentColor"/>
</g>
<g transform="translate(47.1048, 63.9863)">
<path transform="scale(0.0050, -0.0050)" d="M0 0c0 32 25 57 57 57s57 -25 57 -57s-25 -57 -57 -57s-57 25 -57 57z" fill="currentColor"/>
</g>
<g transform="translate(47.1048, 65.0863)">
<path transform="scale(0.0050, -0.0050)" d="M0 0c0 32 25 57 57 57s57 -25 57 -57s-25 -57 -57 -57s-57 25 -57 57z" fill="currentColor"/>
</g>
<g transform="translate(46.7048, 64.5363)">
<rect x="0.0000" y="-2.2500" width="0.1000" height="4.5000" ry="0.0000" fill="currentColor"/>
</g>
<g transform="translate(45.9048, 64.5363)">
<rect x="0.0000" y="-2.2500" width="0.5000" height="4.5000" ry="0.0000" fill="currentColor"/>
</g>
<g transform="translate(47.1048, 46.8630)">
<path transform="scale(0.0050, -0.0050)" d="M0 0c0 32 25 57 57 57s57 -25 57 -57s-25 -57 -57 -57s-57 25 -57 57z" fill="currentColor"/>
</g>
<g transform="translate(47.1048, 47.9630)">
<path transform="scale(0.0050, -0.0050)" d="M0 0c0 32 25 57 57 57s57 -25 57 -57s-25 -57 -57 -57s-57 25 -57 57z" fill="currentColor"/>
</g>
<g transform="translate(46.7048, 47.4130)">
<rect x="0.0000" y="-2.2000" width="0.1000" height="4.4500" ry="0.0000" fill="currentColor"/>
</g>
<g transform="translate(45.9048, 47.4130)">
<rect x="0.0000" y="-2.2000" width="0.5000" height="4.4500" ry="0.0000" fill="currentColor"/>
</g>
<g transform="translate(103.5734, 106.4606)">
<polygon stroke-linejoin="round" stroke-linecap="round" stroke-width="0.0800" fill="currentColor" stroke="currentColor" points="3.0495 -0.4380 3.0495 0.0100 0.0400 0.2240 0.0400 -0.2240"/>
</g>
<g transform="translate(103.5734, 44.3270)">
<polygon stroke-linejoin="round" stroke-linecap="round" stroke-width="0.0800" fill="currentColor" stroke="currentColor" points="3.0495 -0.4380 3.0495 0.0100 0.0400 0.2240 0.0400 -0.2240"/>
</g>
<a style="color:inherit;" xlink:href="textedit:///Users/Marc/Projects/violin-music.github.io/tunes/Christmas/Carol-of-the-bells/Carol-of-the-bells_SATB.ly:72:2:3">
<g transform="translate(27.4656, 47.4130)">
<path transform="scale(0.0042, -0.0042)" d="M218 136c66 0 108 -36 108 -89c0 -89 -113 -183 -218 -183c-66 0 -108 36 -108 89c0 89 113 183 218 183z" fill="currentColor"/>
</g>
</a>
<a style="color:inherit;" xlink:href="textedit:///Users/Marc/Projects/violin-music.github.io/tunes/Christmas/Carol-of-the-bells/Carol-of-the-bells_SATB.ly:72:11:12">
<g transform="translate(27.4656, 43.6937)">
<text font-family="Linux Libertine" font-size="2.7502" text-anchor="start" fill="currentColor">
<tspan>Solo</tspan>
</text>
</g>
</a>
<a style="color:inherit;" xlink:href="textedit:///Users/Marc/Projects/violin-music.github.io/tunes/Christmas/Carol-of-the-bells/Carol-of-the-bells_SATB.ly:72:7:8">
<g transform="translate(26.5292, 53.0671)">
<g>
<path transform="scale(0.0045, -0.0045)" d="M-40 140c0 12 55 158 148 158c22 0 37 -20 41 -45c22 27 51 45 81 45c24 0 39 -21 44 -47c21 27 51 47 80 47c33 0 59 -34 59 -68c0 -5 -1 -10 -2 -15l-35 -149c0 -2 -1 -4 -1 -5c0 -5 2 -8 7 -8c21 0 48 36 60 36c6 0 10 -4 10 -9c0 -10 -75 -86 -136 -86
c-20 0 -32 13 -32 32c0 3 0 6 1 10l39 165c1 5 2 9 2 14c0 10 -4 18 -14 18c-16 0 -33 -16 -39 -32l-53 -184c-3 -9 -12 -17 -21 -17h-44c-9 0 -14 8 -11 17l52 184c2 6 3 11 3 16c0 9 -4 16 -13 16c-16 0 -35 -15 -41 -32l-63 -184c-3 -9 -13 -17 -22 -17h-43
c-9 0 -14 8 -11 17l63 184c2 5 2 10 2 15c0 10 -3 17 -13 17c-29 0 -54 -53 -66 -87c-3 -10 -13 -15 -21 -15c-6 0 -11 3 -11 9z" fill="currentColor"/>

<path transform="translate(1.8096, 0.0000) scale(0.0045, -0.0045)" d="M253 248l-50 -164c-30 -99 -121 -255 -218 -255c-45 0 -87 25 -87 66c0 39 17 78 52 78c24 0 44 -20 44 -44c0 -30 -38 -25 -38 -55c0 -10 11 -11 23 -11h6c49 0 60 60 73 111l69 274h-51c-10 0 -18 8 -18 18s8 18 18 18h60c31 96 119 192 214 192c45 0 87 -25 87 -66
c0 -39 -17 -78 -52 -78c-24 0 -44 20 -44 44c0 30 38 25 38 55c0 10 -10 10 -22 10h-7c-63 0 -70 -90 -86 -157h56c10 0 18 -8 18 -18s-8 -18 -18 -18h-67z" fill="currentColor"/>
</g>
</g>
</a>
<a style="color:inherit;" xlink:href="textedit:///Users/Marc/Projects/violin-music.github.io/tunes/Christmas/Carol-of-the-bells/Carol-of-the-bells_SATB.ly:72:5:6">
<g transform="translate(28.1511, 44.5015)">
<path transform="scale(0.0042, -0.0042)" d="M-173 68c-8 2 -15 9 -15 18c0 10 9 19 19 19c2 0 3 -1 5 -1l337 -86c8 -2 15 -9 15 -18s-7 -16 -15 -18l-337 -86c-2 0 -3 -1 -5 -1c-10 0 -19 9 -19 19c0 9 7 16 15 18l206 53l109 15l-109 15z" fill="currentColor"/>
</g>
</a>
<g transform="translate(16.9697, 48.5130)">
<path transform="scale(0.0040, -0.0040)" d="M266 -635h-6c-108 0 -195 88 -195 197c0 58 53 103 112 103c54 0 95 -47 95 -103c0 -52 -43 -95 -95 -95c-11 0 -21 2 -31 6c26 -39 68 -65 117 -65h4zM461 -203c68 24 113 90 113 164c0 90 -66 179 -173 190c19 -89 48 -242 60 -354zM74 28c0 -145 141 -247 264 -247
c1 0 47 0 82 6c-7 64 -29 203 -63 364c-79 -8 -124 -61 -124 -119c0 -44 25 -91 81 -123c5 -5 7 -10 7 -15c0 -11 -10 -22 -22 -22c-15 0 -126 62 -126 187c0 88 58 174 160 197c-14 58 -29 117 -46 175c-107 -121 -213 -243 -213 -403zM250 553c-29 96 -52 170 -52 346
c0 115 55 224 149 292c6 5 14 5 20 0c68 -80 133 -245 133 -358c0 -143 -86 -255 -180 -364c21 -68 39 -138 56 -207c2 0 7 1 13 1c155 0 256 -128 256 -261c0 -113 -74 -212 -180 -246c3 -35 5 -70 5 -105c0 -19 -1 -39 -2 -58c-7 -119 -88 -225 -202 -228l1 43
c93 2 153 92 159 191c1 18 2 37 2 55c0 31 -1 61 -4 92c-5 -1 -44 -8 -89 -8c-193 0 -333 180 -333 374c0 177 131 306 248 441zM428 916c0 34 1 66 -20 129c-99 -48 -162 -149 -162 -259c0 -52 12 -115 36 -194c80 97 146 198 146 324z" fill="currentColor"/>
</g>
<a style="color:inherit;" xlink:href="textedit:///Users/Marc/Projects/violin-music.github.io/tunes/Christmas/Carol-of-the-bells/Carol-of-the-bells_SATB.ly:67:2:3">
<g transform="translate(20.5958, 47.4130)">
<path transform="scale(0.0042, -0.0042)" d="M27 41l-1 -66v-11c0 -22 1 -44 4 -66c45 38 93 80 93 139c0 33 -14 67 -43 67c-31 0 -52 -30 -53 -63zM-15 -138l-12 595c8 5 18 8 27 8s19 -3 27 -8l-7 -345c25 21 58 34 91 34c52 0 89 -48 89 -102c0 -80 -86 -117 -147 -169c-15 -13 -24 -38 -45 -38
c-13 0 -23 11 -23 25z" fill="currentColor"/>
</g>
<g transform="translate(21.5629, 45.7630)">
<path transform="scale(0.0042, -0.0042)" d="M27 41l-1 -66v-11c0 -22 1 -44 4 -66c45 38 93 80 93 139c0 33 -14 67 -43 67c-31 0 -52 -30 -53 -63zM-15 -138l-12 595c8 5 18 8 27 8s19 -3 27 -8l-7 -345c25 21 58 34 91 34c52 0 89 -48 89 -102c0 -80 -86 -117 -147 -169c-15 -13 -24 -38 -45 -38
c-13 0 -23 11 -23 25z" fill="currentColor"/>
</g>
</a>
<a style="color:inherit;" xlink:href="textedit:///Users/Marc/Projects/violin-music.github.io/tunes/Christmas/Carol-of-the-bells/Carol-of-the-bells_SATB.ly:68:2:3">
<g transform="translate(23.7074, 47.4130)">
<path transform="scale(0.0045, -0.0045)" d="M260 264c0 -32 70 -21 70 -124c0 -91 -78 -140 -177 -140c-78 0 -153 41 -153 112c0 36 30 66 66 66s65 -30 65 -66c0 -25 -40 -28 -40 -53c0 -26 32 -37 62 -37c49 0 64 61 64 118v7c0 58 -1 103 -52 103h-80c-9 0 -14 7 -14 14s5 14 14 14h80c52 0 52 48 52 108
c0 55 -19 92 -69 92c-27 0 -55 -9 -55 -33c0 -22 35 -25 35 -47c0 -32 -25 -58 -57 -58s-58 26 -58 58c0 63 66 102 135 102c90 0 168 -33 168 -114c0 -124 -56 -82 -56 -122z" fill="currentColor"/>
</g>
<g transform="translate(23.5538, 49.6581)">
<path transform="scale(0.0045, -0.0045)" d="M198 113h113c0 -47 28 -91 71 -91c7 0 11 -5 11 -11s-4 -11 -11 -11c-43 0 -84 13 -127 13s-85 -13 -128 -13c-7 0 -11 5 -11 11s4 11 11 11c43 0 71 44 71 91zM-2 147c0 13 143 147 143 337c0 10 8 19 16 16c22 -7 45 -13 69 -13s47 6 69 13c13 4 22 -9 16 -16
l-283 -331h170v138c0 33 35 26 67 70c11 15 17 33 25 50c4 10 21 6 21 -8v-250h71c9 0 14 -7 14 -14s-5 -14 -14 -14h-71v-12h-113v12h-170c-22 0 -30 13 -30 22z" fill="currentColor"/>
</g>
</a>
<a style="color:inherit;" xlink:href="textedit:///Users/Marc/Projects/violin-music.github.io/tunes/Christmas/Carol-of-the-bells/Carol-of-the-bells_SATB.ly:194:2:3">
<g transform="translate(25.7439, 55.3659)">
<text font-family="Optima" font-size="1.8500" text-anchor="start" fill="currentColor">
<tspan>Щед-</tspan>
</text>
</g>
</a>
<a style="color:inherit;" xlink:href="textedit:///Users/Marc/Projects/violin-music.github.io/tunes/Christmas/Carol-of-the-bells/Carol-of-the-bells_SATB.ly:218:2:3">
<g transform="translate(25.4367, 58.1659)">
<text font-family="Optima" font-size="1.8500" text-anchor="start" fill="currentColor">
<tspan>Shche-</tspan>
</text>
</g>
</a>
<g transform="translate(16.9697, 65.6363)">
<path transform="scale(0.0040, -0.0040)" d="M266 -635h-6c-108 0 -195 88 -195 197c0 58 53 103 112 103c54 0 95 -47 95 -103c0 -52 -43 -95 -95 -95c-11 0 -21 2 -31 6c26 -39 68 -65 117 -65h4zM461 -203c68 24 113 90 113 164c0 90 -66 179 -173 190c19 -89 48 -242 60 -354zM74 28c0 -145 141 -247 264 -247
c1 0 47 0 82 6c-7 64 -29 203 -63 364c-79 -8 -124 -61 -124 -119c0 -44 25 -91 81 -123c5 -5 7 -10 7 -15c0 -11 -10 -22 -22 -22c-15 0 -126 62 -126 187c0 88 58 174 160 197c-14 58 -29 117 -46 175c-107 -121 -213 -243 -213 -403zM250 553c-29 96 -52 170 -52 346
c0 115 55 224 149 292c6 5 14 5 20 0c68 -80 133 -245 133 -358c0 -143 -86 -255 -180 -364c21 -68 39 -138 56 -207c2 0 7 1 13 1c155 0 256 -128 256 -261c0 -113 -74 -212 -180 -246c3 -35 5 -70 5 -105c0 -19 -1 -39 -2 -58c-7 -119 -88 -225 -202 -228l1 43
c93 2 153 92 159 191c1 18 2 37 2 55c0 31 -1 61 -4 92c-5 -1 -44 -8 -89 -8c-193 0 -333 180 -333 374c0 177 131 306 248 441zM428 916c0 34 1 66 -20 129c-99 -48 -162 -149 -162 -259c0 -52 12 -115 36 -194c80 97 146 198 146 324z" fill="currentColor"/>
</g>
<a style="color:inherit;" xlink:href="textedit:///Users/Marc/Projects/violin-music.github.io/tunes/Christmas/Carol-of-the-bells/Carol-of-the-bells_SATB.ly:67:2:3">
<g transform="translate(20.5958, 64.5363)">
<path transform="scale(0.0042, -0.0042)" d="M27 41l-1 -66v-11c0 -22 1 -44 4 -66c45 38 93 80 93 139c0 33 -14 67 -43 67c-31 0 -52 -30 -53 -63zM-15 -138l-12 595c8 5 18 8 27 8s19 -3 27 -8l-7 -345c25 21 58 34 91 34c52 0 89 -48 89 -102c0 -80 -86 -117 -147 -169c-15 -13 -24 -38 -45 -38
c-13 0 -23 11 -23 25z" fill="currentColor"/>
</g>
<g transform="translate(21.5629, 62.8863)">
<path transform="scale(0.0042, -0.0042)" d="M27 41l-1 -66v-11c0 -22 1 -44 4 -66c45 38 93 80 93 139c0 33 -14 67 -43 67c-31 0 -52 -30 -53 -63zM-15 -138l-12 595c8 5 18 8 27 8s19 -3 27 -8l-7 -345c25 21 58 34 91 34c52 0 89 -48 89 -102c0 -80 -86 -117 -147 -169c-15 -13 -24 -38 -45 -38
c-13 0 -23 11 -23 25z" fill="currentColor"/>
</g>
</a>
<a style="color:inherit;" xlink:href="textedit:///Users/Marc/Projects/violin-music.github.io/tunes/Christmas/Carol-of-the-bells/Carol-of-the-bells_SATB.ly:68:2:3">
<g transform="translate(23.7074, 64.5363)">
<path transform="scale(0.0045, -0.0045)" d="M260 264c0 -32 70 -21 70 -124c0 -91 -78 -140 -177 -140c-78 0 -153 41 -153 112c0 36 30 66 66 66s65 -30 65 -66c0 -25 -40 -28 -40 -53c0 -26 32 -37 62 -37c49 0 64 61 64 118v7c0 58 -1 103 -52 103h-80c-9 0 -14 7 -14 14s5 14 14 14h80c52 0 52 48 52 108
c0 55 -19 92 -69 92c-27 0 -55 -9 -55 -33c0 -22 35 -25 35 -47c0 -32 -25 -58 -57 -58s-58 26 -58 58c0 63 66 102 135 102c90 0 168 -33 168 -114c0 -124 -56 -82 -56 -122z" fill="currentColor"/>
</g>
<g transform="translate(23.5538, 66.7815)">
<path transform="scale(0.0045, -0.0045)" d="M198 113h113c0 -47 28 -91 71 -91c7 0 11 -5 11 -11s-4 -11 -11 -11c-43 0 -84 13 -127 13s-85 -13 -128 -13c-7 0 -11 5 -11 11s4 11 11 11c43 0 71 44 71 91zM-2 147c0 13 143 147 143 337c0 10 8 19 16 16c22 -7 45 -13 69 -13s47 6 69 13c13 4 22 -9 16 -16
l-283 -331h170v138c0 33 35 26 67 70c11 15 17 33 25 50c4 10 21 6 21 -8v-250h71c9 0 14 -7 14 -14s-5 -14 -14 -14h-71v-12h-113v12h-170c-22 0 -30 13 -30 22z" fill="currentColor"/>
</g>
</a>
<g transform="translate(16.9697, 78.9812)">
<path transform="scale(0.0040, -0.0040)" d="M266 -635h-6c-108 0 -195 88 -195 197c0 58 53 103 112 103c54 0 95 -47 95 -103c0 -52 -43 -95 -95 -95c-11 0 -21 2 -31 6c26 -39 68 -65 117 -65h4zM461 -203c68 24 113 90 113 164c0 90 -66 179 -173 190c19 -89 48 -242 60 -354zM74 28c0 -145 141 -247 264 -247
c1 0 47 0 82 6c-7 64 -29 203 -63 364c-79 -8 -124 -61 -124 -119c0 -44 25 -91 81 -123c5 -5 7 -10 7 -15c0 -11 -10 -22 -22 -22c-15 0 -126 62 -126 187c0 88 58 174 160 197c-14 58 -29 117 -46 175c-107 -121 -213 -243 -213 -403zM250 553c-29 96 -52 170 -52 346
c0 115 55 224 149 292c6 5 14 5 20 0c68 -80 133 -245 133 -358c0 -143 -86 -255 -180 -364c21 -68 39 -138 56 -207c2 0 7 1 13 1c155 0 256 -128 256 -261c0 -113 -74 -212 -180 -246c3 -35 5 -70 5 -105c0 -19 -1 -39 -2 -58c-7 -119 -88 -225 -202 -228l1 43
c93 2 153 92 159 191c1 18 2 37 2 55c0 31 -1 61 -4 92c-5 -1 -44 -8 -89 -8c-193 0 -333 180 -333 374c0 177 131 306 248 441zM428 916c0 34 1 66 -20 129c-99 -48 -162 -149 -162 -259c0 -52 12 -115 36 -194c80 97 146 198 146 324z" fill="currentColor"/>
</g>
<g transform="translate(17.4413, 82.7673)">
<text font-family="Linux Libertine" font-style="italic" font-size="1.7328" text-anchor="start" fill="currentColor">
<tspan>8</tspan>
</text>
</g>
<a style="color:inherit;" xlink:href="textedit:///Users/Marc/Projects/violin-music.github.io/tunes/Christmas/Carol-of-the-bells/Carol-of-the-bells_SATB.ly:67:2:3">
<g transform="translate(20.5958, 77.8812)">
<path transform="scale(0.0042, -0.0042)" d="M27 41l-1 -66v-11c0 -22 1 -44 4 -66c45 38 93 80 93 139c0 33 -14 67 -43 67c-31 0 -52 -30 -53 -63zM-15 -138l-12 595c8 5 18 8 27 8s19 -3 27 -8l-7 -345c25 21 58 34 91 34c52 0 89 -48 89 -102c0 -80 -86 -117 -147 -169c-15 -13 -24 -38 -45 -38
c-13 0 -23 11 -23 25z" fill="currentColor"/>
</g>
<g transform="translate(21.5629, 76.2312)">
<path transform="scale(0.0042, -0.0042)" d="M27 41l-1 -66v-11c0 -22 1 -44 4 -66c45 38 93 80 93 139c0 33 -14 67 -43 67c-31 0 -52 -30 -53 -63zM-15 -138l-12 595c8 5 18 8 27 8s19 -3 27 -8l-7 -345c25 21 58 34 91 34c52 0 89 -48 89 -102c0 -80 -86 -117 -147 -169c-15 -13 -24 -38 -45 -38
c-13 0 -23 11 -23 25z" fill="currentColor"/>
</g>
</a>
<a style="color:inherit;" xlink:href="textedit:///Users/Marc/Projects/violin-music.github.io/tunes/Christmas/Carol-of-the-bells/Carol-of-the-bells_SATB.ly:68:2:3">
<g transform="translate(23.7074, 77.8812)">
<path transform="scale(0.0045, -0.0045)" d="M260 264c0 -32 70 -21 70 -124c0 -91 -78 -140 -177 -140c-78 0 -153 41 -153 112c0 36 30 66 66 66s65 -30 65 -66c0 -25 -40 -28 -40 -53c0 -26 32 -37 62 -37c49 0 64 61 64 118v7c0 58 -1 103 -52 103h-80c-9 0 -14 7 -14 14s5 14 14 14h80c52 0 52 48 52 108
c0 55 -19 92 -69 92c-27 0 -55 -9 -55 -33c0 -22 35 -25 35 -47c0 -32 -25 -58 -57 -58s-58 26 -58 58c0 63 66 102 135 102c90 0 168 -33 168 -114c0 -124 -56 -82 -56 -122z" fill="currentColor"/>
</g>
<g transform="translate(23.5538, 80.1263)">
<path transform="scale(0.0045, -0.0045)" d="M198 113h113c0 -47 28 -91 71 -91c7 0 11 -5 11 -11s-4 -11 -11 -11c-43 0 -84 13 -127 13s-85 -13 -128 -13c-7 0 -11 5 -11 11s4 11 11 11c43 0 71 44 71 91zM-2 147c0 13 143 147 143 337c0 10 8 19 16 16c22 -7 45 -13 69 -13s47 6 69 13c13 4 22 -9 16 -16
l-283 -331h170v138c0 33 35 26 67 70c11 15 17 33 25 50c4 10 21 6 21 -8v-250h71c9 0 14 -7 14 -14s-5 -14 -14 -14h-71v-12h-113v12h-170c-22 0 -30 13 -30 22z" fill="currentColor"/>
</g>
</a>
<g transform="translate(16.9697, 90.1260)">
<path transform="scale(0.0040, -0.0040)" d="M557 -125c0 28 23 51 51 51s51 -23 51 -51s-23 -51 -51 -51s-51 23 -51 51zM557 125c0 28 23 51 51 51s51 -23 51 -51s-23 -51 -51 -51s-51 23 -51 51zM232 263c172 0 293 -88 293 -251c0 -263 -263 -414 -516 -521c-3 -3 -6 -4 -9 -4c-7 0 -13 6 -13 13c0 3 1 6 4 9
c202 118 412 265 412 493c0 120 -63 235 -171 235c-74 0 -129 -54 -154 -126c11 5 22 8 34 8c55 0 100 -45 100 -100c0 -58 -44 -106 -100 -106c-60 0 -112 47 -112 106c0 133 102 244 232 244z" fill="currentColor"/>
</g>
<a style="color:inherit;" xlink:href="textedit:///Users/Marc/Projects/violin-music.github.io/tunes/Christmas/Carol-of-the-bells/Carol-of-the-bells_SATB.ly:67:2:3">
<g transform="translate(20.5958, 92.3260)">
<path transform="scale(0.0042, -0.0042)" d="M27 41l-1 -66v-11c0 -22 1 -44 4 -66c45 38 93 80 93 139c0 33 -14 67 -43 67c-31 0 -52 -30 -53 -63zM-15 -138l-12 595c8 5 18 8 27 8s19 -3 27 -8l-7 -345c25 21 58 34 91 34c52 0 89 -48 89 -102c0 -80 -86 -117 -147 -169c-15 -13 -24 -38 -45 -38
c-13 0 -23 11 -23 25z" fill="currentColor"/>
</g>
<g transform="translate(21.5629, 90.6760)">
<path transform="scale(0.0042, -0.0042)" d="M27 41l-1 -66v-11c0 -22 1 -44 4 -66c45 38 93 80 93 139c0 33 -14 67 -43 67c-31 0 -52 -30 -53 -63zM-15 -138l-12 595c8 5 18 8 27 8s19 -3 27 -8l-7 -345c25 21 58 34 91 34c52 0 89 -48 89 -102c0 -80 -86 -117 -147 -169c-15 -13 -24 -38 -45 -38
c-13 0 -23 11 -23 25z" fill="currentColor"/>
</g>
</a>
<a style="color:inherit;" xlink:href="textedit:///Users/Marc/Projects/violin-music.github.io/tunes/Christmas/Carol-of-the-bells/Carol-of-the-bells_SATB.ly:68:2:3">
<g transform="translate(23.7074, 91.2260)">
<path transform="scale(0.0045, -0.0045)" d="M260 264c0 -32 70 -21 70 -124c0 -91 -78 -140 -177 -140c-78 0 -153 41 -153 112c0 36 30 66 66 66s65 -30 65 -66c0 -25 -40 -28 -40 -53c0 -26 32 -37 62 -37c49 0 64 61 64 118v7c0 58 -1 103 -52 103h-80c-9 0 -14 7 -14 14s5 14 14 14h80c52 0 52 48 52 108
c0 55 -19 92 -69 92c-27 0 -55 -9 -55 -33c0 -22 35 -25 35 -47c0 -32 -25 -58 -57 -58s-58 26 -58 58c0 63 66 102 135 102c90 0 168 -33 168 -114c0 -124 -56 -82 -56 -122z" fill="currentColor"/>
</g>
<g transform="translate(23.5538, 93.4711)">
<path transform="scale(0.0045, -0.0045)" d="M198 113h113c0 -47 28 -91 71 -91c7 0 11 -5 11 -11s-4 -11 -11 -11c-43 0 -84 13 -127 13s-85 -13 -128 -13c-7 0 -11 5 -11 11s4 11 11 11c43 0 71 44 71 91zM-2 147c0 13 143 147 143 337c0 10 8 19 16 16c22 -7 45 -13 69 -13s47 6 69 13c13 4 22 -9 16 -16
l-283 -331h170v138c0 33 35 26 67 70c11 15 17 33 25 50c4 10 21 6 21 -8v-250h71c9 0 14 -7 14 -14s-5 -14 -14 -14h-71v-12h-113v12h-170c-22 0 -30 13 -30 22z" fill="currentColor"/>
</g>
</a>
<a style="color:inherit;" xlink:href="textedit:///Users/Marc/Projects/violin-music.github.io/tunes/Christmas/Carol-of-the-bells/Carol-of-the-bells_SATB.ly:72:2:3">
<g transform="translate(27.4656, 109.5466)">
<path transform="scale(0.0042, -0.0042)" d="M218 136c66 0 108 -36 108 -89c0 -89 -113 -183 -218 -183c-66 0 -108 36 -108 89c0 89 113 183 218 183z" fill="currentColor"/>
</g>
</a>
<g transform="translate(16.9697, 110.6466)">
<path transform="scale(0.0040, -0.0040)" d="M266 -635h-6c-108 0 -195 88 -195 197c0 58 53 103 112 103c54 0 95 -47 95 -103c0 -52 -43 -95 -95 -95c-11 0 -21 2 -31 6c26 -39 68 -65 117 -65h4zM461 -203c68 24 113 90 113 164c0 90 -66 179 -173 190c19 -89 48 -242 60 -354zM74 28c0 -145 141 -247 264 -247
c1 0 47 0 82 6c-7 64 -29 203 -63 364c-79 -8 -124 -61 -124 -119c0 -44 25 -91 81 -123c5 -5 7 -10 7 -15c0 -11 -10 -22 -22 -22c-15 0 -126 62 -126 187c0 88 58 174 160 197c-14 58 -29 117 -46 175c-107 -121 -213 -243 -213 -403zM250 553c-29 96 -52 170 -52 346
c0 115 55 224 149 292c6 5 14 5 20 0c68 -80 133 -245 133 -358c0 -143 -86 -255 -180 -364c21 -68 39 -138 56 -207c2 0 7 1 13 1c155 0 256 -128 256 -261c0 -113 -74 -212 -180 -246c3 -35 5 -70 5 -105c0 -19 -1 -39 -2 -58c-7 -119 -88 -225 -202 -228l1 43
c93 2 153 92 159 191c1 18 2 37 2 55c0 31 -1 61 -4 92c-5 -1 -44 -8 -89 -8c-193 0 -333 180 -333 374c0 177 131 306 248 441zM428 916c0 34 1 66 -20 129c-99 -48 -162 -149 -162 -259c0 -52 12 -115 36 -194c80 97 146 198 146 324z" fill="currentColor"/>
</g>
<a style="color:inherit;" xlink:href="textedit:///Users/Marc/Projects/violin-music.github.io/tunes/Christmas/Carol-of-the-bells/Carol-of-the-bells_SATB.ly:67:2:3">
<g transform="translate(20.5958, 109.5466)">
<path transform="scale(0.0042, -0.0042)" d="M27 41l-1 -66v-11c0 -22 1 -44 4 -66c45 38 93 80 93 139c0 33 -14 67 -43 67c-31 0 -52 -30 -53 -63zM-15 -138l-12 595c8 5 18 8 27 8s19 -3 27 -8l-7 -345c25 21 58 34 91 34c52 0 89 -48 89 -102c0 -80 -86 -117 -147 -169c-15 -13 -24 -38 -45 -38
c-13 0 -23 11 -23 25z" fill="currentColor"/>
</g>
<g transform="translate(21.5629, 107.8966)">
<path transform="scale(0.0042, -0.0042)" d="M27 41l-1 -66v-11c0 -22 1 -44 4 -66c45 38 93 80 93 139c0 33 -14 67 -43 67c-31 0 -52 -30 -53 -63zM-15 -138l-12 595c8 5 18 8 27 8s19 -3 27 -8l-7 -345c25 21 58 34 91 34c52 0 89 -48 89 -102c0 -80 -86 -117 -147 -169c-15 -13 -24 -38 -45 -38
c-13 0 -23 11 -23 25z" fill="currentColor"/>
</g>
</a>
<a style="color:inherit;" xlink:href="textedit:///Users/Marc/Projects/violin-music.github.io/tunes/Christmas/Carol-of-the-bells/Carol-of-the-bells_SATB.ly:68:2:3">
<g transform="translate(23.7074, 109.5466)">
<path transform="scale(0.0045, -0.0045)" d="M260 264c0 -32 70 -21 70 -124c0 -91 -78 -140 -177 -140c-78 0 -153 41 -153 112c0 36 30 66 66 66s65 -30 65 -66c0 -25 -40 -28 -40 -53c0 -26 32 -37 62 -37c49 0 64 61 64 118v7c0 58 -1 103 -52 103h-80c-9 0 -14 7 -14 14s5 14 14 14h80c52 0 52 48 52 108
c0 55 -19 92 -69 92c-27 0 -55 -9 -55 -33c0 -22 35 -25 35 -47c0 -32 -25 -58 -57 -58s-58 26 -58 58c0 63 66 102 135 102c90 0 168 -33 168 -114c0 -124 -56 -82 -56 -122z" fill="currentColor"/>
</g>
<g transform="translate(23.5538, 111.7917)">
<path transform="scale(0.0045, -0.0045)" d="M198 113h113c0 -47 28 -91 71 -91c7 0 11 -5 11 -11s-4 -11 -11 -11c-43 0 -84 13 -127 13s-85 -13 -128 -13c-7 0 -11 5 -11 11s4 11 11 11c43 0 71 44 71 91zM-2 147c0 13 143 147 143 337c0 10 8 19 16 16c22 -7 45 -13 69 -13s47 6 69 13c13 4 22 -9 16 -16
l-283 -331h170v138c0 33 35 26 67 70c11 15 17 33 25 50c4 10 21 6 21 -8v-250h71c9 0 14 -7 14 -14s-5 -14 -14 -14h-71v-12h-113v12h-170c-22 0 -30 13 -30 22z" fill="currentColor"/>
</g>
</a>
<g transform="translate(16.9697, 121.7914)">
<path transform="scale(0.0040, -0.0040)" d="M557 -125c0 28 23 51 51 51s51 -23 51 -51s-23 -51 -51 -51s-51 23 -51 51zM557 125c0 28 23 51 51 51s51 -23 51 -51s-23 -51 -51 -51s-51 23 -51 51zM232 263c172 0 293 -88 293 -251c0 -263 -263 -414 -516 -521c-3 -3 -6 -4 -9 -4c-7 0 -13 6 -13 13c0 3 1 6 4 9
c202 118 412 265 412 493c0 120 -63 235 -171 235c-74 0 -129 -54 -154 -126c11 5 22 8 34 8c55 0 100 -45 100 -100c0 -58 -44 -106 -100 -106c-60 0 -112 47 -112 106c0 133 102 244 232 244z" fill="currentColor"/>
</g>
<a style="color:inherit;" xlink:href="textedit:///Users/Marc/Projects/violin-music.github.io/tunes/Christmas/Carol-of-the-bells/Carol-of-the-bells_SATB.ly:67:2:3">
<g transform="translate(20.5958, 123.9914)">
<path transform="scale(0.0042, -0.0042)" d="M27 41l-1 -66v-11c0 -22 1 -44 4 -66c45 38 93 80 93 139c0 33 -14 67 -43 67c-31 0 -52 -30 -53 -63zM-15 -138l-12 595c8 5 18 8 27 8s19 -3 27 -8l-7 -345c25 21 58 34 91 34c52 0 89 -48 89 -102c0 -80 -86 -117 -147 -169c-15 -13 -24 -38 -45 -38
c-13 0 -23 11 -23 25z" fill="currentColor"/>
</g>
<g transform="translate(21.5629, 122.3414)">
<path transform="scale(0.0042, -0.0042)" d="M27 41l-1 -66v-11c0 -22 1 -44 4 -66c45 38 93 80 93 139c0 33 -14 67 -43 67c-31 0 -52 -30 -53 -63zM-15 -138l-12 595c8 5 18 8 27 8s19 -3 27 -8l-7 -345c25 21 58 34 91 34c52 0 89 -48 89 -102c0 -80 -86 -117 -147 -169c-15 -13 -24 -38 -45 -38
c-13 0 -23 11 -23 25z" fill="currentColor"/>
</g>
</a>
<a style="color:inherit;" xlink:href="textedit:///Users/Marc/Projects/violin-music.github.io/tunes/Christmas/Carol-of-the-bells/Carol-of-the-bells_SATB.ly:68:2:3">
<g transform="translate(23.7074, 122.8914)">
<path transform="scale(0.0045, -0.0045)" d="M260 264c0 -32 70 -21 70 -124c0 -91 -78 -140 -177 -140c-78 0 -153 41 -153 112c0 36 30 66 66 66s65 -30 65 -66c0 -25 -40 -28 -40 -53c0 -26 32 -37 62 -37c49 0 64 61 64 118v7c0 58 -1 103 -52 103h-80c-9 0 -14 7 -14 14s5 14 14 14h80c52 0 52 48 52 108
c0 55 -19 92 -69 92c-27 0 -55 -9 -55 -33c0 -22 35 -25 35 -47c0 -32 -25 -58 -57 -58s-58 26 -58 58c0 63 66 102 135 102c90 0 168 -33 168 -114c0 -124 -56 -82 -56 -122z" fill="currentColor"/>
</g>
<g transform="translate(23.5538, 125.1365)">
<path transform="scale(0.0045, -0.0045)" d="M198 113h113c0 -47 28 -91 71 -91c7 0 11 -5 11 -11s-4 -11 -11 -11c-43 0 -84 13 -127 13s-85 -13 -128 -13c-7 0 -11 5 -11 11s4 11 11 11c43 0 71 44 71 91zM-2 147c0 13 143 147 143 337c0 10 8 19 16 16c22 -7 45 -13 69 -13s47 6 69 13c13 4 22 -9 16 -16
l-283 -331h170v138c0 33 35 26 67 70c11 15 17 33 25 50c4 10 21 6 21 -8v-250h71c9 0 14 -7 14 -14s-5 -14 -14 -14h-71v-12h-113v12h-170c-22 0 -30 13 -30 22z" fill="currentColor"/>
</g>
</a>
<a style="color:inherit;" xlink:href="textedit:///Users/Marc/Projects/violin-music.github.io/tunes/Christmas/Carol-of-the-bells/Carol-of-the-bells_SATB.ly:342:6:7">
<g transform="translate(23.5538, 40.9092)">
<text font-family="Linux Libertine" font-weight="bold" font-size="2.7502" text-anchor="start" fill="currentColor">
<tspan>Allegretto</tspan>
</text>
</g>
</a>
<g transform="translate(27.5306, 47.4130)">
<rect x="-0.0650" y="0.1956" width="0.1300" height="3.4710" ry="0.0400" fill="currentColor"/>
</g>
<g transform="translate(28.7715, 109.5466)">
<rect x="-0.0650" y="-3.6667" width="0.1300" height="3.4710" ry="0.0400" fill="currentColor"/>
</g>
<a style="color:inherit;" xlink:href="textedit:///Users/Marc/Projects/violin-music.github.io/tunes/Christmas/Carol-of-the-bells/Carol-of-the-bells_SATB.ly:72:18:19">
<g transform="translate(32.3713, 47.9630)">
<path transform="scale(0.0042, -0.0042)" d="M218 136c66 0 108 -36 108 -89c0 -89 -113 -183 -218 -183c-66 0 -108 36 -108 89c0 89 113 183 218 183z" fill="currentColor"/>
</g>
</a>
<a style="color:inherit;" xlink:href="textedit:///Users/Marc/Projects/violin-music.github.io/tunes/Christmas/Carol-of-the-bells/Carol-of-the-bells_SATB.ly:194:7:8">
<g transform="translate(31.3325, 55.3659)">
<text font-family="Optima" font-size="1.8500" text-anchor="start" fill="currentColor">
<tspan>рик</tspan>
</text>
</g>
</a>
<a style="color:inherit;" xlink:href="textedit:///Users/Marc/Projects/violin-music.github.io/tunes/Christmas/Carol-of-the-bells/Carol-of-the-bells_SATB.ly:218:9:10">
<g transform="translate(31.3154, 58.1659)">
<text font-family="Optima" font-size="1.8500" text-anchor="start" fill="currentColor">
<tspan>dryk</tspan>
</text>
</g>
</a>
<a style="color:inherit;" xlink:href="textedit:///Users/Marc/Projects/violin-music.github.io/tunes/Christmas/Carol-of-the-bells/Carol-of-the-bells_SATB.ly:72:18:19">
<g transform="translate(32.3713, 110.0966)">
<path transform="scale(0.0042, -0.0042)" d="M218 136c66 0 108 -36 108 -89c0 -89 -113 -183 -218 -183c-66 0 -108 36 -108 89c0 89 113 183 218 183z" fill="currentColor"/>
</g>
</a>
<g transform="translate(33.6772, 47.4130)">
<rect x="-0.0650" y="-3.0888" width="0.1300" height="3.4432" ry="0.0400" fill="currentColor"/>
</g>
<g transform="translate(33.6772, 109.5466)">
<rect x="-0.0650" y="-3.0888" width="0.1300" height="3.4432" ry="0.0400" fill="currentColor"/>
</g>
<a style="color:inherit;" xlink:href="textedit:///Users/Marc/Projects/violin-music.github.io/tunes/Christmas/Carol-of-the-bells/Carol-of-the-bells_SATB.ly:72:21:22">
<g transform="translate(37.1746, 47.4130)">
<path transform="scale(0.0042, -0.0042)" d="M218 136c66 0 108 -36 108 -89c0 -89 -113 -183 -218 -183c-66 0 -108 36 -108 89c0 89 113 183 218 183z" fill="currentColor"/>
</g>
</a>
<a style="color:inherit;" xlink:href="textedit:///Users/Marc/Projects/violin-music.github.io/tunes/Christmas/Carol-of-the-bells/Carol-of-the-bells_SATB.ly:194:11:12">
<g transform="translate(35.6066, 55.3659)">
<text font-family="Optima" font-size="1.8500" text-anchor="start" fill="currentColor">
<tspan>щед-</tspan>
</text>
</g>
</a>
<a style="color:inherit;" xlink:href="textedit:///Users/Marc/Projects/violin-music.github.io/tunes/Christmas/Carol-of-the-bells/Carol-of-the-bells_SATB.ly:218:14:15">
<g transform="translate(35.2481, 58.1659)">
<text font-family="Optima" font-size="1.8500" text-anchor="start" fill="currentColor">
<tspan>shche-</tspan>
</text>
</g>
</a>
<a style="color:inherit;" xlink:href="textedit:///Users/Marc/Projects/violin-music.github.io/tunes/Christmas/Carol-of-the-bells/Carol-of-the-bells_SATB.ly:72:21:22">
<g transform="translate(37.1746, 109.5466)">
<path transform="scale(0.0042, -0.0042)" d="M218 136c66 0 108 -36 108 -89c0 -89 -113 -183 -218 -183c-66 0 -108 36 -108 89c0 89 113 183 218 183z" fill="currentColor"/>
</g>
</a>
<g transform="translate(38.4805, 47.4130)">
<rect x="-0.0650" y="-3.2972" width="0.1300" height="3.1016" ry="0.0400" fill="currentColor"/>
</g>
<g transform="translate(38.4805, 109.5466)">
<rect x="-0.0650" y="-3.2972" width="0.1300" height="3.1016" ry="0.0400" fill="currentColor"/>
</g>
<a style="color:inherit;" xlink:href="textedit:///Users/Marc/Projects/violin-music.github.io/tunes/Christmas/Carol-of-the-bells/Carol-of-the-bells_SATB.ly:72:24:25">
<g transform="translate(42.2339, 48.5130)">
<path transform="scale(0.0042, -0.0042)" d="M218 136c66 0 108 -36 108 -89c0 -89 -113 -183 -218 -183c-66 0 -108 36 -108 89c0 89 113 183 218 183z" fill="currentColor"/>
</g>
</a>
<a style="color:inherit;" xlink:href="textedit:///Users/Marc/Projects/violin-music.github.io/tunes/Christmas/Carol-of-the-bells/Carol-of-the-bells_SATB.ly:72:26:27">
<g transform="translate(41.0218, 51.8433)">
<text font-family="Linux Libertine" font-style="italic" font-size="2.4504" text-anchor="start" fill="currentColor">
<tspan>ten.</tspan>
</text>
</g>
</a>
<a style="color:inherit;" xlink:href="textedit:///Users/Marc/Projects/violin-music.github.io/tunes/Christmas/Carol-of-the-bells/Carol-of-the-bells_SATB.ly:194:16:17">
<g transform="translate(40.9391, 55.3659)">
<text font-family="Optima" font-size="1.8500" text-anchor="start" fill="currentColor">
<tspan>рик,</tspan>
</text>
</g>
</a>
<a style="color:inherit;" xlink:href="textedit:///Users/Marc/Projects/violin-music.github.io/tunes/Christmas/Carol-of-the-bells/Carol-of-the-bells_SATB.ly:218:21:22">
<g transform="translate(40.9220, 58.1659)">
<text font-family="Optima" font-size="1.8500" text-anchor="start" fill="currentColor">
<tspan>dryk,</tspan>
</text>
</g>
</a>
<a style="color:inherit;" xlink:href="textedit:///Users/Marc/Projects/violin-music.github.io/tunes/Christmas/Carol-of-the-bells/Carol-of-the-bells_SATB.ly:72:24:25">
<g transform="translate(42.2339, 110.6466)">
<path transform="scale(0.0042, -0.0042)" d="M218 136c66 0 108 -36 108 -89c0 -89 -113 -183 -218 -183c-66 0 -108 36 -108 89c0 89 113 183 218 183z" fill="currentColor"/>
</g>
</a>
<g transform="translate(43.5398, 47.4130)">
<rect x="-0.0650" y="-2.7500" width="0.1300" height="3.6544" ry="0.0400" fill="currentColor"/>
</g>
<g transform="translate(43.5398, 109.5466)">
<rect x="-0.0650" y="-2.7500" width="0.1300" height="3.6544" ry="0.0400" fill="currentColor"/>
</g>
<a style="color:inherit;" xlink:href="textedit:///Users/Marc/Projects/violin-music.github.io/tunes/Christmas/Carol-of-the-bells/Carol-of-the-bells_SATB.ly:74:4:5">
<g transform="translate(49.1313, 47.4130)">
<path transform="scale(0.0042, -0.0042)" d="M218 136c66 0 108 -36 108 -89c0 -89 -113 -183 -218 -183c-66 0 -108 36 -108 89c0 89 113 183 218 183z" fill="currentColor"/>
</g>
</a>
<a style="color:inherit;" xlink:href="textedit:///Users/Marc/Projects/violin-music.github.io/tunes/Christmas/Carol-of-the-bells/Carol-of-the-bells_SATB.ly:74:6:7">
<g transform="translate(49.8167, 44.5015)">
<path transform="scale(0.0042, -0.0042)" d="M-173 68c-8 2 -15 9 -15 18c0 10 9 19 19 19c2 0 3 -1 5 -1l337 -86c8 -2 15 -9 15 -18s-7 -16 -15 -18l-337 -86c-2 0 -3 -1 -5 -1c-10 0 -19 9 -19 19c0 9 7 16 15 18l206 53l109 15l-109 15z" fill="currentColor"/>
</g>
</a>
<a style="color:inherit;" xlink:href="textedit:///Users/Marc/Projects/violin-music.github.io/tunes/Christmas/Carol-of-the-bells/Carol-of-the-bells_SATB.ly:194:21:22">
<g transform="translate(47.5633, 55.3659)">
<text font-family="Optima" font-size="1.8500" text-anchor="start" fill="currentColor">
<tspan>щед-</tspan>
</text>
</g>
</a>
<a style="color:inherit;" xlink:href="textedit:///Users/Marc/Projects/violin-music.github.io/tunes/Christmas/Carol-of-the-bells/Carol-of-the-bells_SATB.ly:218:27:28">
<g transform="translate(47.2048, 58.1659)">
<text font-family="Optima" font-size="1.8500" text-anchor="start" fill="currentColor">
<tspan>shche-</tspan>
</text>
</g>
</a>
<a style="color:inherit;" xlink:href="textedit:///Users/Marc/Projects/violin-music.github.io/tunes/Christmas/Carol-of-the-bells/Carol-of-the-bells_SATB.ly:170:10:11">
<g transform="translate(103.6776, 125.0914)">
<path transform="scale(0.0042, -0.0042)" d="M365 -156h-355c-6 0 -10 4 -10 10v136c0 6 4 10 10 10h355c6 0 10 -4 10 -10v-136c0 -6 -4 -10 -10 -10z" fill="currentColor"/>
</g>
</a>
<a style="color:inherit;" xlink:href="textedit:///Users/Marc/Projects/violin-music.github.io/tunes/Christmas/Carol-of-the-bells/Carol-of-the-bells_SATB.ly:143:10:11">
<g transform="translate(103.6776, 120.6914)">
<path transform="scale(0.0042, -0.0042)" d="M365 -156h-355c-6 0 -10 4 -10 10v136c0 6 4 10 10 10h355c6 0 10 -4 10 -10v-136c0 -6 -4 -10 -10 -10z" fill="currentColor"/>
</g>
</a>
<a style="color:inherit;" xlink:href="textedit:///Users/Marc/Projects/violin-music.github.io/tunes/Christmas/Carol-of-the-bells/Carol-of-the-bells_SATB.ly:74:4:5">
<g transform="translate(49.1313, 109.5466)">
<path transform="scale(0.0042, -0.0042)" d="M218 136c66 0 108 -36 108 -89c0 -89 -113 -183 -218 -183c-66 0 -108 36 -108 89c0 89 113 183 218 183z" fill="currentColor"/>
</g>
</a>
<a style="color:inherit;" xlink:href="textedit:///Users/Marc/Projects/violin-music.github.io/tunes/Christmas/Carol-of-the-bells/Carol-of-the-bells_SATB.ly:170:10:11">
<g transform="translate(103.6776, 90.1260)">
<path transform="scale(0.0042, -0.0042)" d="M365 -156h-355c-6 0 -10 4 -10 10v136c0 6 4 10 10 10h355c6 0 10 -4 10 -10v-136c0 -6 -4 -10 -10 -10z" fill="currentColor"/>
</g>
</a>
<a style="color:inherit;" xlink:href="textedit:///Users/Marc/Projects/violin-music.github.io/tunes/Christmas/Carol-of-the-bells/Carol-of-the-bells_SATB.ly:143:10:11">
<g transform="translate(103.6776, 76.7812)">
<path transform="scale(0.0042, -0.0042)" d="M365 -156h-355c-6 0 -10 4 -10 10v136c0 6 4 10 10 10h355c6 0 10 -4 10 -10v-136c0 -6 -4 -10 -10 -10z" fill="currentColor"/>
</g>
</a>
<g transform="translate(49.1963, 47.4130)">
<rect x="-0.0650" y="0.1956" width="0.1300" height="3.4710" ry="0.0400" fill="currentColor"/>
</g>
<g transform="translate(50.4372, 109.5466)">
<rect x="-0.0650" y="-3.6667" width="0.1300" height="3.4710" ry="0.0400" fill="currentColor"/>
</g>
<a style="color:inherit;" xlink:href="textedit:///Users/Marc/Projects/violin-music.github.io/tunes/Christmas/Carol-of-the-bells/Carol-of-the-bells_SATB.ly:74:9:10">
<g transform="translate(53.5761, 47.9630)">
<path transform="scale(0.0042, -0.0042)" d="M218 136c66 0 108 -36 108 -89c0 -89 -113 -183 -218 -183c-66 0 -108 36 -108 89c0 89 113 183 218 183z" fill="currentColor"/>
</g>
</a>
<a style="color:inherit;" xlink:href="textedit:///Users/Marc/Projects/violin-music.github.io/tunes/Christmas/Carol-of-the-bells/Carol-of-the-bells_SATB.ly:194:26:27">
<g transform="translate(53.1177, 55.3659)">
<text font-family="Optima" font-size="1.8500" text-anchor="start" fill="currentColor">
<tspan>рi-</tspan>
</text>
</g>
</a>
<a style="color:inherit;" xlink:href="textedit:///Users/Marc/Projects/violin-music.github.io/tunes/Christmas/Carol-of-the-bells/Carol-of-the-bells_SATB.ly:218:34:35">
<g transform="translate(52.8787, 58.1659)">
<text font-family="Optima" font-size="1.8500" text-anchor="start" fill="currentColor">
<tspan>dri-</tspan>
</text>
</g>
</a>
<a style="color:inherit;" xlink:href="textedit:///Users/Marc/Projects/violin-music.github.io/tunes/Christmas/Carol-of-the-bells/Carol-of-the-bells_SATB.ly:74:9:10">
<g transform="translate(53.5761, 110.0966)">
<path transform="scale(0.0042, -0.0042)" d="M218 136c66 0 108 -36 108 -89c0 -89 -113 -183 -218 -183c-66 0 -108 36 -108 89c0 89 113 183 218 183z" fill="currentColor"/>
</g>
</a>
<g transform="translate(54.8820, 47.4130)">
<rect x="-0.0650" y="-3.0893" width="0.1300" height="3.4437" ry="0.0400" fill="currentColor"/>
</g>
<g transform="translate(54.8820, 109.5466)">
<rect x="-0.0650" y="-3.0893" width="0.1300" height="3.4437" ry="0.0400" fill="currentColor"/>
</g>
<a style="color:inherit;" xlink:href="textedit:///Users/Marc/Projects/violin-music.github.io/tunes/Christmas/Carol-of-the-bells/Carol-of-the-bells_SATB.ly:74:12:13">
<g transform="translate(57.6623, 47.4130)">
<path transform="scale(0.0042, -0.0042)" d="M218 136c66 0 108 -36 108 -89c0 -89 -113 -183 -218 -183c-66 0 -108 36 -108 89c0 89 113 183 218 183z" fill="currentColor"/>
</g>
</a>
<a style="color:inherit;" xlink:href="textedit:///Users/Marc/Projects/violin-music.github.io/tunes/Christmas/Carol-of-the-bells/Carol-of-the-bells_SATB.ly:194:30:31">
<g transform="translate(56.3675, 55.3659)">
<text font-family="Optima" font-size="1.8500" text-anchor="start" fill="currentColor">
<tspan>воч-</tspan>
</text>
</g>
</a>
<a style="color:inherit;" xlink:href="textedit:///Users/Marc/Projects/violin-music.github.io/tunes/Christmas/Carol-of-the-bells/Carol-of-the-bells_SATB.ly:218:39:40">
<g transform="translate(56.0943, 58.1659)">
<text font-family="Optima" font-size="1.8500" text-anchor="start" fill="currentColor">
<tspan>voch-</tspan>
</text>
</g>
</a>
<a style="color:inherit;" xlink:href="textedit:///Users/Marc/Projects/violin-music.github.io/tunes/Christmas/Carol-of-the-bells/Carol-of-the-bells_SATB.ly:74:12:13">
<g transform="translate(57.6623, 109.5466)">
<path transform="scale(0.0042, -0.0042)" d="M218 136c66 0 108 -36 108 -89c0 -89 -113 -183 -218 -183c-66 0 -108 36 -108 89c0 89 113 183 218 183z" fill="currentColor"/>
</g>
</a>
<g transform="translate(58.9682, 47.4130)">
<rect x="-0.0650" y="-3.2967" width="0.1300" height="3.1011" ry="0.0400" fill="currentColor"/>
</g>
<g transform="translate(58.9682, 109.5466)">
<rect x="-0.0650" y="-3.2967" width="0.1300" height="3.1011" ry="0.0400" fill="currentColor"/>
</g>
<a style="color:inherit;" xlink:href="textedit:///Users/Marc/Projects/violin-music.github.io/tunes/Christmas/Carol-of-the-bells/Carol-of-the-bells_SATB.ly:74:15:16">
<g transform="translate(61.7657, 48.5130)">
<path transform="scale(0.0042, -0.0042)" d="M218 136c66 0 108 -36 108 -89c0 -89 -113 -183 -218 -183c-66 0 -108 36 -108 89c0 89 113 183 218 183z" fill="currentColor"/>
</g>
</a>
<a style="color:inherit;" xlink:href="textedit:///Users/Marc/Projects/violin-music.github.io/tunes/Christmas/Carol-of-the-bells/Carol-of-the-bells_SATB.ly:74:17:18">
<g transform="translate(60.5536, 51.8433)">
<text font-family="Linux Libertine" font-style="italic" font-size="2.4504" text-anchor="start" fill="currentColor">
<tspan>ten.</tspan>
</text>
</g>
</a>
<a style="color:inherit;" xlink:href="textedit:///Users/Marc/Projects/violin-music.github.io/tunes/Christmas/Carol-of-the-bells/Carol-of-the-bells_SATB.ly:194:35:36">
<g transform="translate(60.7781, 55.3659)">
<text font-family="Optima" font-size="1.8500" text-anchor="start" fill="currentColor">
<tspan>ка-,</tspan>
</text>
</g>
</a>
<a style="color:inherit;" xlink:href="textedit:///Users/Marc/Projects/violin-music.github.io/tunes/Christmas/Carol-of-the-bells/Carol-of-the-bells_SATB.ly:218:45:46">
<g transform="translate(61.2732, 58.1659)">
<text font-family="Optima" font-size="1.8500" text-anchor="start" fill="currentColor">
<tspan>ka,</tspan>
</text>
</g>
</a>
<a style="color:inherit;" xlink:href="textedit:///Users/Marc/Projects/violin-music.github.io/tunes/Christmas/Carol-of-the-bells/Carol-of-the-bells_SATB.ly:74:15:16">
<g transform="translate(61.7657, 110.6466)">
<path transform="scale(0.0042, -0.0042)" d="M218 136c66 0 108 -36 108 -89c0 -89 -113 -183 -218 -183c-66 0 -108 36 -108 89c0 89 113 183 218 183z" fill="currentColor"/>
</g>
</a>
<g transform="translate(63.0716, 47.4130)">
<rect x="-0.0650" y="-2.7500" width="0.1300" height="3.6544" ry="0.0400" fill="currentColor"/>
</g>
<g transform="translate(63.0716, 109.5466)">
<rect x="-0.0650" y="-2.7500" width="0.1300" height="3.6544" ry="0.0400" fill="currentColor"/>
</g>
<g transform="translate(86.2910, 106.4606)">
<polygon stroke-linejoin="round" stroke-linecap="round" stroke-width="0.0800" fill="currentColor" stroke="currentColor" points="4.0397 -0.4380 4.0397 0.0100 0.0400 0.2240 0.0400 -0.2240"/>
</g>
<a style="color:inherit;" xlink:href="textedit:///Users/Marc/Projects/violin-music.github.io/tunes/Christmas/Carol-of-the-bells/Carol-of-the-bells_SATB.ly:75:4:5">
<g transform="translate(67.3338, 47.4130)">
<path transform="scale(0.0042, -0.0042)" d="M218 136c66 0 108 -36 108 -89c0 -89 -113 -183 -218 -183c-66 0 -108 36 -108 89c0 89 113 183 218 183z" fill="currentColor"/>
</g>
</a>
<a style="color:inherit;" xlink:href="textedit:///Users/Marc/Projects/violin-music.github.io/tunes/Christmas/Carol-of-the-bells/Carol-of-the-bells_SATB.ly:75:6:7">
<g transform="translate(67.3338, 52.8140)">
<g>
<path transform="scale(0.0045, -0.0045)" d="M161 32c79 0 97 176 97 178c0 18 -7 33 -25 33c-60 0 -102 -122 -102 -172c0 -23 8 -39 30 -39zM-54 141c0 2 52 151 134 151c36 0 60 -21 67 -52c29 31 67 52 103 52c69 0 107 -49 107 -114c0 -118 -105 -186 -158 -186s-71 21 -85 21c-7 0 -13 -3 -15 -9l-32 -91
c-1 -2 -1 -4 -1 -6c0 -34 59 -17 59 -40c0 -6 -5 -13 -13 -13c-3 0 -50 5 -116 5s-114 -5 -117 -5c-8 0 -12 7 -12 13c0 29 87 -2 101 38l103 304c2 6 4 13 4 19c0 9 -3 15 -12 15c-34 0 -65 -60 -81 -97c-5 -11 -15 -16 -23 -16c-7 0 -13 4 -13 11z" fill="currentColor"/>

<path transform="translate(1.6047, 0.0000) scale(0.0045, -0.0045)" d="M161 32c79 0 97 176 97 178c0 18 -7 33 -25 33c-60 0 -102 -122 -102 -172c0 -23 8 -39 30 -39zM-54 141c0 2 52 151 134 151c36 0 60 -21 67 -52c29 31 67 52 103 52c69 0 107 -49 107 -114c0 -118 -105 -186 -158 -186s-71 21 -85 21c-7 0 -13 -3 -15 -9l-32 -91
c-1 -2 -1 -4 -1 -6c0 -34 59 -17 59 -40c0 -6 -5 -13 -13 -13c-3 0 -50 5 -116 5s-114 -5 -117 -5c-8 0 -12 7 -12 13c0 29 87 -2 101 38l103 304c2 6 4 13 4 19c0 9 -3 15 -12 15c-34 0 -65 -60 -81 -97c-5 -11 -15 -16 -23 -16c-7 0 -13 4 -13 11z" fill="currentColor"/>
</g>
</g>
<g transform="translate(71.1433, 52.8140)">
<text font-family="Linux Libertine" font-style="italic" font-size="2.4504" text-anchor="start" fill="currentColor">
<tspan>simile</tspan>
</text>
</g>
</a>
<a style="color:inherit;" xlink:href="textedit:///Users/Marc/Projects/violin-music.github.io/tunes/Christmas/Carol-of-the-bells/Carol-of-the-bells_SATB.ly:75:65:66">
<g transform="translate(67.3338, 44.6130)">
<text font-family="Linux Libertine" font-size="2.7502" text-anchor="start" fill="currentColor">
<tspan>All</tspan>
</text>
</g>
</a>
<g transform="translate(16.1097, 85.1522)">
<rect x="0.0000" y="-39.9892" width="0.1600" height="79.9784" ry="0.0500" fill="currentColor"/>
</g>
<a style="color:inherit;" xlink:href="textedit:///Users/Marc/Projects/violin-music.github.io/tunes/Christmas/Carol-of-the-bells/Carol-of-the-bells_SATB.ly:195:2:3">
<g transform="translate(65.9365, 55.3659)">
<text font-family="Optima" font-size="1.8500" text-anchor="start" fill="currentColor">
<tspan>при-</tspan>
</text>
</g>
</a>
<a style="color:inherit;" xlink:href="textedit:///Users/Marc/Projects/violin-music.github.io/tunes/Christmas/Carol-of-the-bells/Carol-of-the-bells_SATB.ly:219:2:3">
<g transform="translate(66.4316, 58.1659)">
<text font-family="Optima" font-size="1.8500" text-anchor="start" fill="currentColor">
<tspan>pry-</tspan>
</text>
</g>
</a>
<g transform="translate(15.8097, 85.1522)">
<path transform="scale(0.0050, -0.0050)" d="M-189 -1791c0 1188 -441 1773 -441 1791c0 54 441 558 441 1791c0 1251 -414 2439 -414 3870c0 819 144 1629 567 2340c27 45 99 0 72 -45c-333 -549 -441 -1161 -441 -1791c0 -1242 405 -2412 405 -3825c0 -828 -144 -1629 -567 -2340c423 -711 567 -1512 567 -2340
c0 -1413 -405 -2583 -405 -3825c0 -630 108 -1242 441 -1791c27 -45 -45 -90 -72 -45c-423 711 -567 1521 -567 2340c0 1431 414 2619 414 3870z" fill="currentColor"/>
</g>
<g transform="translate(12.5058, 116.2190)">
<path transform="scale(0.0050, -0.0050)" d="M-84 -396c0 276 -140 392 -140 396c0 20 140 104 140 396c0 284 -116 540 -116 856c0 200 48 392 188 540c16 16 40 -8 24 -24c-104 -108 -136 -244 -136 -392c0 -280 108 -524 108 -836c0 -200 -44 -392 -180 -540c136 -148 180 -340 180 -540
c0 -312 -108 -556 -108 -836c0 -148 32 -284 136 -392c16 -16 -8 -40 -24 -24c-140 148 -188 340 -188 540c0 316 116 572 116 856z" fill="currentColor"/>
</g>
<a style="color:inherit;" xlink:href="textedit:///Users/Marc/Projects/violin-music.github.io/tunes/Christmas/Carol-of-the-bells/Carol-of-the-bells_SATB.ly:75:4:5">
<g transform="translate(67.3338, 109.5466)">
<path transform="scale(0.0042, -0.0042)" d="M218 136c66 0 108 -36 108 -89c0 -89 -113 -183 -218 -183c-66 0 -108 36 -108 89c0 89 113 183 218 183z" fill="currentColor"/>
</g>
</a>
<g transform="translate(0.7994, 113.9791)">
<text font-family="Linux Libertine" font-size="2.7502" text-anchor="start" fill="currentColor">
<tspan>Piano</tspan>
</text>
</g>
<g transform="translate(0.7994, 116.9791)">
<text font-family="Linux Libertine" font-size="2.4504" text-anchor="start" fill="currentColor">
<tspan>(for reh.</tspan>
</text>
</g>
<g transform="translate(0.7994, 119.9791)">
<text font-family="Linux Libertine" font-size="2.4504" text-anchor="start" fill="currentColor">
<tspan>only)</tspan>
</text>
</g>
<g transform="translate(67.3988, 47.4130)">
<rect x="-0.0650" y="0.1956" width="0.1300" height="3.4710" ry="0.0400" fill="currentColor"/>
</g>
<g transform="translate(68.6397, 109.5466)">
<rect x="-0.0650" y="-3.6667" width="0.1300" height="3.4710" ry="0.0400" fill="currentColor"/>
</g>
<a style="color:inherit;" xlink:href="textedit:///Users/Marc/Projects/violin-music.github.io/tunes/Christmas/Carol-of-the-bells/Carol-of-the-bells_SATB.ly:168:2:3">
<g transform="translate(34.8287, 125.0914)">
<path transform="scale(0.0042, -0.0042)" d="M365 -156h-355c-6 0 -10 4 -10 10v136c0 6 4 10 10 10h355c6 0 10 -4 10 -10v-136c0 -6 -4 -10 -10 -10z" fill="currentColor"/>
</g>
</a>
<a style="color:inherit;" xlink:href="textedit:///Users/Marc/Projects/violin-music.github.io/tunes/Christmas/Carol-of-the-bells/Carol-of-the-bells_SATB.ly:75:71:72">
<g transform="translate(71.2152, 47.9630)">
<path transform="scale(0.0042, -0.0042)" d="M218 136c66 0 108 -36 108 -89c0 -89 -113 -183 -218 -183c-66 0 -108 36 -108 89c0 89 113 183 218 183z" fill="currentColor"/>
</g>
</a>
<a style="color:inherit;" xlink:href="textedit:///Users/Marc/Projects/violin-music.github.io/tunes/Christmas/Carol-of-the-bells/Carol-of-the-bells_SATB.ly:195:7:8">
<g transform="translate(70.5520, 55.3659)">
<text font-family="Optima" font-size="1.8500" text-anchor="start" fill="currentColor">
<tspan>лe-</tspan>
</text>
</g>
</a>
<a style="color:inherit;" xlink:href="textedit:///Users/Marc/Projects/violin-music.github.io/tunes/Christmas/Carol-of-the-bells/Carol-of-the-bells_SATB.ly:219:7:8">
<g transform="translate(70.8764, 58.1659)">
<text font-family="Optima" font-size="1.8500" text-anchor="start" fill="currentColor">
<tspan>le-</tspan>
</text>
</g>
</a>
<a style="color:inherit;" xlink:href="textedit:///Users/Marc/Projects/violin-music.github.io/tunes/Christmas/Carol-of-the-bells/Carol-of-the-bells_SATB.ly:75:71:72">
<g transform="translate(71.2152, 110.0966)">
<path transform="scale(0.0042, -0.0042)" d="M218 136c66 0 108 -36 108 -89c0 -89 -113 -183 -218 -183c-66 0 -108 36 -108 89c0 89 113 183 218 183z" fill="currentColor"/>
</g>
</a>
<g transform="translate(72.5211, 47.4130)">
<rect x="-0.0650" y="-3.0907" width="0.1300" height="3.4451" ry="0.0400" fill="currentColor"/>
</g>
<g transform="translate(72.5211, 109.5466)">
<rect x="-0.0650" y="-3.0907" width="0.1300" height="3.4451" ry="0.0400" fill="currentColor"/>
</g>
<g transform="translate(86.2910, 44.3270)">
<polygon stroke-linejoin="round" stroke-linecap="round" stroke-width="0.0800" fill="currentColor" stroke="currentColor" points="4.0397 -0.4380 4.0397 0.0100 0.0400 0.2240 0.0400 -0.2240"/>
</g>
<a style="color:inherit;" xlink:href="textedit:///Users/Marc/Projects/violin-music.github.io/tunes/Christmas/Carol-of-the-bells/Carol-of-the-bells_SATB.ly:75:74:75">
<g transform="translate(74.0382, 47.4130)">
<path transform="scale(0.0042, -0.0042)" d="M218 136c66 0 108 -36 108 -89c0 -89 -113 -183 -218 -183c-66 0 -108 36 -108 89c0 89 113 183 218 183z" fill="currentColor"/>
</g>
</a>
<a style="color:inherit;" xlink:href="textedit:///Users/Marc/Projects/violin-music.github.io/tunes/Christmas/Carol-of-the-bells/Carol-of-the-bells_SATB.ly:195:11:12">
<g transform="translate(73.6993, 55.3659)">
<text font-family="Optima" font-size="1.8500" text-anchor="start" fill="currentColor">
<tspan>тi-</tspan>
</text>
</g>
</a>
<a style="color:inherit;" xlink:href="textedit:///Users/Marc/Projects/violin-music.github.io/tunes/Christmas/Carol-of-the-bells/Carol-of-the-bells_SATB.ly:219:11:12">
<g transform="translate(73.9042, 58.1659)">
<text font-family="Optima" font-size="1.8500" text-anchor="start" fill="currentColor">
<tspan>ti-</tspan>
</text>
</g>
</a>
<a style="color:inherit;" xlink:href="textedit:///Users/Marc/Projects/violin-music.github.io/tunes/Christmas/Carol-of-the-bells/Carol-of-the-bells_SATB.ly:75:74:75">
<g transform="translate(74.0382, 109.5466)">
<path transform="scale(0.0042, -0.0042)" d="M218 136c66 0 108 -36 108 -89c0 -89 -113 -183 -218 -183c-66 0 -108 36 -108 89c0 89 113 183 218 183z" fill="currentColor"/>
</g>
</a>
<g transform="translate(75.3441, 47.4130)">
<rect x="-0.0650" y="-3.2953" width="0.1300" height="3.0997" ry="0.0400" fill="currentColor"/>
</g>
<g transform="translate(75.3441, 109.5466)">
<rect x="-0.0650" y="-3.2953" width="0.1300" height="3.0997" ry="0.0400" fill="currentColor"/>
</g>
<a style="color:inherit;" xlink:href="textedit:///Users/Marc/Projects/violin-music.github.io/tunes/Christmas/Carol-of-the-bells/Carol-of-the-bells_SATB.ly:75:77:78">
<g transform="translate(76.6563, 48.5130)">
<path transform="scale(0.0042, -0.0042)" d="M218 136c66 0 108 -36 108 -89c0 -89 -113 -183 -218 -183c-66 0 -108 36 -108 89c0 89 113 183 218 183z" fill="currentColor"/>
</g>
</a>
<a style="color:inherit;" xlink:href="textedit:///Users/Marc/Projects/violin-music.github.io/tunes/Christmas/Carol-of-the-bells/Carol-of-the-bells_SATB.ly:195:15:16">
<g transform="translate(76.1979, 55.3659)">
<text font-family="Optima" font-size="1.8500" text-anchor="start" fill="currentColor">
<tspan>ла</tspan>
</text>
</g>
</a>
<a style="color:inherit;" xlink:href="textedit:///Users/Marc/Projects/violin-music.github.io/tunes/Christmas/Carol-of-the-bells/Carol-of-the-bells_SATB.ly:219:15:16">
<g transform="translate(76.6247, 58.1659)">
<text font-family="Optima" font-size="1.8500" text-anchor="start" fill="currentColor">
<tspan>la</tspan>
</text>
</g>
</a>
<a style="color:inherit;" xlink:href="textedit:///Users/Marc/Projects/violin-music.github.io/tunes/Christmas/Carol-of-the-bells/Carol-of-the-bells_SATB.ly:75:77:78">
<g transform="translate(76.6563, 110.6466)">
<path transform="scale(0.0042, -0.0042)" d="M218 136c66 0 108 -36 108 -89c0 -89 -113 -183 -218 -183c-66 0 -108 36 -108 89c0 89 113 183 218 183z" fill="currentColor"/>
</g>
</a>
<g transform="translate(77.9622, 47.4130)">
<rect x="-0.0650" y="-2.7500" width="0.1300" height="3.6544" ry="0.0400" fill="currentColor"/>
</g>
<g transform="translate(77.9622, 109.5466)">
<rect x="-0.0650" y="-2.7500" width="0.1300" height="3.6544" ry="0.0400" fill="currentColor"/>
</g>
<a style="color:inherit;" xlink:href="textedit:///Users/Marc/Projects/violin-music.github.io/tunes/Christmas/Carol-of-the-bells/Carol-of-the-bells_SATB.ly:76:4:5">
<g transform="translate(81.5928, 47.4130)">
<path transform="scale(0.0042, -0.0042)" d="M218 136c66 0 108 -36 108 -89c0 -89 -113 -183 -218 -183c-66 0 -108 36 -108 89c0 89 113 183 218 183z" fill="currentColor"/>
</g>
</a>
<a style="color:inherit;" xlink:href="textedit:///Users/Marc/Projects/violin-music.github.io/tunes/Christmas/Carol-of-the-bells/Carol-of-the-bells_SATB.ly:141:2:3">
<g transform="translate(34.8287, 120.6914)">
<path transform="scale(0.0042, -0.0042)" d="M365 -156h-355c-6 0 -10 4 -10 10v136c0 6 4 10 10 10h355c6 0 10 -4 10 -10v-136c0 -6 -4 -10 -10 -10z" fill="currentColor"/>
</g>
</a>
<a style="color:inherit;" xlink:href="textedit:///Users/Marc/Projects/violin-music.github.io/tunes/Christmas/Carol-of-the-bells/Carol-of-the-bells_SATB.ly:195:18:19">
<g transform="translate(80.8271, 55.3659)">
<text font-family="Optima" font-size="1.8500" text-anchor="start" fill="currentColor">
<tspan>ла-</tspan>
</text>
</g>
</a>
<a style="color:inherit;" xlink:href="textedit:///Users/Marc/Projects/violin-music.github.io/tunes/Christmas/Carol-of-the-bells/Carol-of-the-bells_SATB.ly:219:18:19">
<g transform="translate(81.2539, 58.1659)">
<text font-family="Optima" font-size="1.8500" text-anchor="start" fill="currentColor">
<tspan>la-</tspan>
</text>
</g>
</a>
<a style="color:inherit;" xlink:href="textedit:///Users/Marc/Projects/violin-music.github.io/tunes/Christmas/Carol-of-the-bells/Carol-of-the-bells_SATB.ly:113:2:3">
<g transform="translate(34.8287, 111.7466)">
<path transform="scale(0.0042, -0.0042)" d="M365 -156h-355c-6 0 -10 4 -10 10v136c0 6 4 10 10 10h355c6 0 10 -4 10 -10v-136c0 -6 -4 -10 -10 -10z" fill="currentColor"/>
</g>
</a>
<g transform="translate(11.5558, 44.8817)">
<path transform="scale(0.0050, -0.0050)" d="M0 -56v91c0 12 10 21 22 21h43c164 0 281 136 377 272c10 14 32 -1 22 -15c-103 -145 -222 -369 -399 -369h-65z" fill="currentColor"/>
</g>
<g transform="translate(11.5558, 93.7572)">
<path transform="scale(0.0050, -0.0050)" d="M0 56h65c177 0 296 -224 399 -369c10 -14 -12 -29 -22 -15c-96 136 -213 272 -377 272h-43c-12 0 -22 9 -22 21v91z" fill="currentColor"/>
</g>
<g transform="translate(11.5558, 69.3195)">
<rect x="0.0000" y="-24.2015" width="0.4500" height="48.4030" ry="0.0000" fill="currentColor"/>
</g>
<a style="color:inherit;" xlink:href="textedit:///Users/Marc/Projects/violin-music.github.io/tunes/Christmas/Carol-of-the-bells/Carol-of-the-bells_SATB.ly:76:4:5">
<g transform="translate(81.5928, 109.5466)">
<path transform="scale(0.0042, -0.0042)" d="M218 136c66 0 108 -36 108 -89c0 -89 -113 -183 -218 -183c-66 0 -108 36 -108 89c0 89 113 183 218 183z" fill="currentColor"/>
</g>
</a>
<g transform="translate(81.6578, 47.4130)">
<rect x="-0.0650" y="0.1956" width="0.1300" height="3.4710" ry="0.0400" fill="currentColor"/>
</g>
<g transform="translate(82.8987, 109.5466)">
<rect x="-0.0650" y="-3.6667" width="0.1300" height="3.4710" ry="0.0400" fill="currentColor"/>
</g>
<a style="color:inherit;" xlink:href="textedit:///Users/Marc/Projects/violin-music.github.io/tunes/Christmas/Carol-of-the-bells/Carol-of-the-bells_SATB.ly:76:7:8">
<g transform="translate(85.0501, 47.9630)">
<path transform="scale(0.0042, -0.0042)" d="M218 136c66 0 108 -36 108 -89c0 -89 -113 -183 -218 -183c-66 0 -108 36 -108 89c0 89 113 183 218 183z" fill="currentColor"/>
</g>
</a>
<a style="color:inherit;" xlink:href="textedit:///Users/Marc/Projects/violin-music.github.io/tunes/Christmas/Carol-of-the-bells/Carol-of-the-bells_SATB.ly:195:22:23">
<g transform="translate(84.2162, 55.3659)">
<text font-family="Optima" font-size="1.8500" text-anchor="start" fill="currentColor">
<tspan>стi-</tspan>
</text>
</g>
</a>
<a style="color:inherit;" xlink:href="textedit:///Users/Marc/Projects/violin-music.github.io/tunes/Christmas/Carol-of-the-bells/Carol-of-the-bells_SATB.ly:219:22:23">
<g transform="translate(84.5576, 58.1659)">
<text font-family="Optima" font-size="1.8500" text-anchor="start" fill="currentColor">
<tspan>sti-</tspan>
</text>
</g>
</a>
<a style="color:inherit;" xlink:href="textedit:///Users/Marc/Projects/violin-music.github.io/tunes/Christmas/Carol-of-the-bells/Carol-of-the-bells_SATB.ly:76:7:8">
<g transform="translate(85.0501, 110.0966)">
<path transform="scale(0.0042, -0.0042)" d="M218 136c66 0 108 -36 108 -89c0 -89 -113 -183 -218 -183c-66 0 -108 36 -108 89c0 89 113 183 218 183z" fill="currentColor"/>
</g>
</a>
<g transform="translate(86.3560, 47.4130)">
<rect x="-0.0650" y="-3.0894" width="0.1300" height="3.4438" ry="0.0400" fill="currentColor"/>
</g>
<g transform="translate(86.3560, 109.5466)">
<rect x="-0.0650" y="-3.0894" width="0.1300" height="3.4438" ry="0.0400" fill="currentColor"/>
</g>
<a style="color:inherit;" xlink:href="textedit:///Users/Marc/Projects/violin-music.github.io/tunes/Christmas/Carol-of-the-bells/Carol-of-the-bells_SATB.ly:76:10:11">
<g transform="translate(88.9998, 47.4130)">
<path transform="scale(0.0042, -0.0042)" d="M218 136c66 0 108 -36 108 -89c0 -89 -113 -183 -218 -183c-66 0 -108 36 -108 89c0 89 113 183 218 183z" fill="currentColor"/>
</g>
</a>
<a style="color:inherit;" xlink:href="textedit:///Users/Marc/Projects/violin-music.github.io/tunes/Christmas/Carol-of-the-bells/Carol-of-the-bells_SATB.ly:195:27:28">
<g transform="translate(87.7050, 55.3659)">
<text font-family="Optima" font-size="1.8500" text-anchor="start" fill="currentColor">
<tspan>воч-</tspan>
</text>
</g>
</a>
<a style="color:inherit;" xlink:href="textedit:///Users/Marc/Projects/violin-music.github.io/tunes/Christmas/Carol-of-the-bells/Carol-of-the-bells_SATB.ly:219:27:28">
<g transform="translate(87.4318, 58.1659)">
<text font-family="Optima" font-size="1.8500" text-anchor="start" fill="currentColor">
<tspan>voch-</tspan>
</text>
</g>
</a>
<a style="color:inherit;" xlink:href="textedit:///Users/Marc/Projects/violin-music.github.io/tunes/Christmas/Carol-of-the-bells/Carol-of-the-bells_SATB.ly:76:10:11">
<g transform="translate(88.9998, 109.5466)">
<path transform="scale(0.0042, -0.0042)" d="M218 136c66 0 108 -36 108 -89c0 -89 -113 -183 -218 -183c-66 0 -108 36 -108 89c0 89 113 183 218 183z" fill="currentColor"/>
</g>
</a>
<g transform="translate(90.3057, 47.4130)">
<rect x="-0.0650" y="-3.2966" width="0.1300" height="3.1010" ry="0.0400" fill="currentColor"/>
</g>
<g transform="translate(90.3057, 109.5466)">
<rect x="-0.0650" y="-3.2966" width="0.1300" height="3.1010" ry="0.0400" fill="currentColor"/>
</g>
<a style="color:inherit;" xlink:href="textedit:///Users/Marc/Projects/violin-music.github.io/tunes/Christmas/Carol-of-the-bells/Carol-of-the-bells_SATB.ly:76:13:14">
<g transform="translate(92.8812, 48.5130)">
<path transform="scale(0.0042, -0.0042)" d="M218 136c66 0 108 -36 108 -89c0 -89 -113 -183 -218 -183c-66 0 -108 36 -108 89c0 89 113 183 218 183z" fill="currentColor"/>
</g>
</a>
<a style="color:inherit;" xlink:href="textedit:///Users/Marc/Projects/violin-music.github.io/tunes/Christmas/Carol-of-the-bells/Carol-of-the-bells_SATB.ly:195:32:33">
<g transform="translate(92.2009, 55.3659)">
<text font-family="Optima" font-size="1.8500" text-anchor="start" fill="currentColor">
<tspan>ка,</tspan>
</text>
</g>
</a>
<a style="color:inherit;" xlink:href="textedit:///Users/Marc/Projects/violin-music.github.io/tunes/Christmas/Carol-of-the-bells/Carol-of-the-bells_SATB.ly:219:33:34">
<g transform="translate(92.3887, 58.1659)">
<text font-family="Optima" font-size="1.8500" text-anchor="start" fill="currentColor">
<tspan>ka,</tspan>
</text>
</g>
</a>
<a style="color:inherit;" xlink:href="textedit:///Users/Marc/Projects/violin-music.github.io/tunes/Christmas/Carol-of-the-bells/Carol-of-the-bells_SATB.ly:76:13:14">
<g transform="translate(92.8812, 110.6466)">
<path transform="scale(0.0042, -0.0042)" d="M218 136c66 0 108 -36 108 -89c0 -89 -113 -183 -218 -183c-66 0 -108 36 -108 89c0 89 113 183 218 183z" fill="currentColor"/>
</g>
</a>
<g transform="translate(94.1871, 47.4130)">
<rect x="-0.0650" y="-2.7500" width="0.1300" height="3.6544" ry="0.0400" fill="currentColor"/>
</g>
<g transform="translate(94.1871, 109.5466)">
<rect x="-0.0650" y="-2.7500" width="0.1300" height="3.6544" ry="0.0400" fill="currentColor"/>
</g>
<a style="color:inherit;" xlink:href="textedit:///Users/Marc/Projects/violin-music.github.io/tunes/Christmas/Carol-of-the-bells/Carol-of-the-bells_SATB.ly:170:8:9">
<g transform="translate(87.7013, 125.0914)">
<path transform="scale(0.0042, -0.0042)" d="M365 -156h-355c-6 0 -10 4 -10 10v136c0 6 4 10 10 10h355c6 0 10 -4 10 -10v-136c0 -6 -4 -10 -10 -10z" fill="currentColor"/>
</g>
</a>
<a style="color:inherit;" xlink:href="textedit:///Users/Marc/Projects/violin-music.github.io/tunes/Christmas/Carol-of-the-bells/Carol-of-the-bells_SATB.ly:77:4:5">
<g transform="translate(98.1933, 47.4130)">
<path transform="scale(0.0042, -0.0042)" d="M218 136c66 0 108 -36 108 -89c0 -89 -113 -183 -218 -183c-66 0 -108 36 -108 89c0 89 113 183 218 183z" fill="currentColor"/>
</g>
</a>
<a style="color:inherit;" xlink:href="textedit:///Users/Marc/Projects/violin-music.github.io/tunes/Christmas/Carol-of-the-bells/Carol-of-the-bells_SATB.ly:77:6:7">
<g transform="translate(98.1933, 52.8303)">
<text font-family="Linux Libertine" font-style="italic" font-size="2.4504" text-anchor="start" fill="currentColor">
<tspan>poco cresc.</tspan>
</text>
</g>
</a>
<g transform="translate(7.3306, 92.2257)">
<text font-family="Linux Libertine" font-size="2.7502" text-anchor="start" fill="currentColor">
<tspan>B</tspan>
</text>
</g>
<a style="color:inherit;" xlink:href="textedit:///Users/Marc/Projects/violin-music.github.io/tunes/Christmas/Carol-of-the-bells/Carol-of-the-bells_SATB.ly:196:2:3">
<g transform="translate(97.0521, 55.3659)">
<text font-family="Optima" font-size="1.8500" text-anchor="start" fill="currentColor">
<tspan>ста-</tspan>
</text>
</g>
</a>
<a style="color:inherit;" xlink:href="textedit:///Users/Marc/Projects/violin-music.github.io/tunes/Christmas/Carol-of-the-bells/Carol-of-the-bells_SATB.ly:220:2:3">
<g transform="translate(97.4960, 58.1659)">
<text font-family="Optima" font-size="1.8500" text-anchor="start" fill="currentColor">
<tspan>sta-</tspan>
</text>
</g>
</a>
<a style="color:inherit;" xlink:href="textedit:///Users/Marc/Projects/violin-music.github.io/tunes/Christmas/Carol-of-the-bells/Carol-of-the-bells_SATB.ly:116:4:5">
<g transform="translate(98.1933, 65.6363)">
<path transform="scale(0.0042, -0.0042)" d="M314 65c0 23 -19 41 -42 41c-39 0 -204 -110 -231 -143c-7 -8 -10 -18 -10 -28c0 -23 19 -41 42 -41c39 0 203 110 230 143c7 8 11 18 11 28zM262 136c41 0 82 -14 82 -71c0 -26 -16 -112 -74 -151c-25 -17 -87 -50 -187 -50c-41 0 -83 14 -83 71c0 26 16 112 74 151
c25 17 88 50 188 50z" fill="currentColor"/>
</g>
</a>
<a style="color:inherit;" xlink:href="textedit:///Users/Marc/Projects/violin-music.github.io/tunes/Christmas/Carol-of-the-bells/Carol-of-the-bells_SATB.ly:116:7:8">
<g transform="translate(97.3125, 60.9760)">
<g>
<path transform="scale(0.0045, -0.0045)" d="M161 32c79 0 97 176 97 178c0 18 -7 33 -25 33c-60 0 -102 -122 -102 -172c0 -23 8 -39 30 -39zM-54 141c0 2 52 151 134 151c36 0 60 -21 67 -52c29 31 67 52 103 52c69 0 107 -49 107 -114c0 -118 -105 -186 -158 -186s-71 21 -85 21c-7 0 -13 -3 -15 -9l-32 -91
c-1 -2 -1 -4 -1 -6c0 -34 59 -17 59 -40c0 -6 -5 -13 -13 -13c-3 0 -50 5 -116 5s-114 -5 -117 -5c-8 0 -12 7 -12 13c0 29 87 -2 101 38l103 304c2 6 4 13 4 19c0 9 -3 15 -12 15c-34 0 -65 -60 -81 -97c-5 -11 -15 -16 -23 -16c-7 0 -13 4 -13 11z" fill="currentColor"/>

<path transform="translate(1.6047, 0.0000) scale(0.0045, -0.0045)" d="M161 32c79 0 97 176 97 178c0 18 -7 33 -25 33c-60 0 -102 -122 -102 -172c0 -23 8 -39 30 -39zM-54 141c0 2 52 151 134 151c36 0 60 -21 67 -52c29 31 67 52 103 52c69 0 107 -49 107 -114c0 -118 -105 -186 -158 -186s-71 21 -85 21c-7 0 -13 -3 -15 -9l-32 -91
c-1 -2 -1 -4 -1 -6c0 -34 59 -17 59 -40c0 -6 -5 -13 -13 -13c-3 0 -50 5 -116 5s-114 -5 -117 -5c-8 0 -12 7 -12 13c0 29 87 -2 101 38l103 304c2 6 4 13 4 19c0 9 -3 15 -12 15c-34 0 -65 -60 -81 -97c-5 -11 -15 -16 -23 -16c-7 0 -13 4 -13 11z" fill="currentColor"/>
</g>
</g>
</a>
<a style="color:inherit;" xlink:href="textedit:///Users/Marc/Projects/violin-music.github.io/tunes/Christmas/Carol-of-the-bells/Carol-of-the-bells_SATB.ly:168:2:3">
<g transform="translate(34.8287, 90.1260)">
<path transform="scale(0.0042, -0.0042)" d="M365 -156h-355c-6 0 -10 4 -10 10v136c0 6 4 10 10 10h355c6 0 10 -4 10 -10v-136c0 -6 -4 -10 -10 -10z" fill="currentColor"/>
</g>
</a>
<a style="color:inherit;" xlink:href="textedit:///Users/Marc/Projects/violin-music.github.io/tunes/Christmas/Carol-of-the-bells/Carol-of-the-bells_SATB.ly:243:2:3">
<g transform="translate(97.0905, 70.0363)">
<text font-family="Optima" font-size="1.8500" text-anchor="start" fill="currentColor">
<tspan>ста-</tspan>
</text>
</g>
</a>
<a style="color:inherit;" xlink:href="textedit:///Users/Marc/Projects/violin-music.github.io/tunes/Christmas/Carol-of-the-bells/Carol-of-the-bells_SATB.ly:258:2:3">
<g transform="translate(97.5344, 72.8363)">
<text font-family="Optima" font-size="1.8500" text-anchor="start" fill="currentColor">
<tspan>sta-</tspan>
</text>
</g>
</a>
<a style="color:inherit;" xlink:href="textedit:///Users/Marc/Projects/violin-music.github.io/tunes/Christmas/Carol-of-the-bells/Carol-of-the-bells_SATB.ly:77:4:5">
<g transform="translate(98.1933, 109.5466)">
<path transform="scale(0.0042, -0.0042)" d="M218 136c66 0 108 -36 108 -89c0 -89 -113 -183 -218 -183c-66 0 -108 36 -108 89c0 89 113 183 218 183z" fill="currentColor"/>
</g>
</a>
<a style="color:inherit;" xlink:href="textedit:///Users/Marc/Projects/violin-music.github.io/tunes/Christmas/Carol-of-the-bells/Carol-of-the-bells_SATB.ly:116:4:5">
<g transform="translate(98.1933, 110.6466)">
<path transform="scale(0.0042, -0.0042)" d="M314 65c0 23 -19 41 -42 41c-39 0 -204 -110 -231 -143c-7 -8 -10 -18 -10 -28c0 -23 19 -41 42 -41c39 0 203 110 230 143c7 8 11 18 11 28zM262 136c41 0 82 -14 82 -71c0 -26 -16 -112 -74 -151c-25 -17 -87 -50 -187 -50c-41 0 -83 14 -83 71c0 26 16 112 74 151
c25 17 88 50 188 50z" fill="currentColor"/>
</g>
</a>
<g transform="translate(7.4160, 78.8809)">
<text font-family="Linux Libertine" font-size="2.7502" text-anchor="start" fill="currentColor">
<tspan>T</tspan>
</text>
</g>
<g transform="translate(98.2583, 47.4130)">
<rect x="-0.0650" y="0.1956" width="0.1300" height="3.4710" ry="0.0400" fill="currentColor"/>
</g>
<g transform="translate(100.1141, 65.0863)">
<path transform="scale(0.0042, -0.0042)" d="M0 0c0 31 25 56 56 56s56 -25 56 -56s-25 -56 -56 -56s-56 25 -56 56z" fill="currentColor"/>
</g>
<g transform="translate(99.5761, 64.5363)">
<rect x="-0.0650" y="-2.7500" width="0.1300" height="3.5778" ry="0.0400" fill="currentColor"/>
</g>
<g transform="translate(99.4992, 109.5466)">
<rect x="-0.0650" y="-3.6667" width="0.1300" height="3.4710" ry="0.0400" fill="currentColor"/>
</g>
<g transform="translate(100.1141, 111.1966)">
<path transform="scale(0.0042, -0.0042)" d="M0 0c0 31 25 56 56 56s56 -25 56 -56s-25 -56 -56 -56s-56 25 -56 56z" fill="currentColor"/>
</g>
<g transform="translate(98.2583, 109.5466)">
<rect x="-0.0650" y="1.3722" width="0.1300" height="3.0278" ry="0.0400" fill="currentColor"/>
</g>
<a style="color:inherit;" xlink:href="textedit:///Users/Marc/Projects/violin-music.github.io/tunes/Christmas/Carol-of-the-bells/Carol-of-the-bells_SATB.ly:141:2:3">
<g transform="translate(34.8287, 76.7812)">
<path transform="scale(0.0042, -0.0042)" d="M365 -156h-355c-6 0 -10 4 -10 10v136c0 6 4 10 10 10h355c6 0 10 -4 10 -10v-136c0 -6 -4 -10 -10 -10z" fill="currentColor"/>
</g>
</a>
<a style="color:inherit;" xlink:href="textedit:///Users/Marc/Projects/violin-music.github.io/tunes/Christmas/Carol-of-the-bells/Carol-of-the-bells_SATB.ly:77:49:50">
<g transform="translate(102.3325, 47.9630)">
<path transform="scale(0.0042, -0.0042)" d="M218 136c66 0 108 -36 108 -89c0 -89 -113 -183 -218 -183c-66 0 -108 36 -108 89c0 89 113 183 218 183z" fill="currentColor"/>
</g>
</a>
<a style="color:inherit;" xlink:href="textedit:///Users/Marc/Projects/violin-music.github.io/tunes/Christmas/Carol-of-the-bells/Carol-of-the-bells_SATB.ly:196:7:8">
<g transform="translate(101.8741, 55.3659)">
<text font-family="Optima" font-size="1.8500" text-anchor="start" fill="currentColor">
<tspan>ла</tspan>
</text>
</g>
</a>
<a style="color:inherit;" xlink:href="textedit:///Users/Marc/Projects/violin-music.github.io/tunes/Christmas/Carol-of-the-bells/Carol-of-the-bells_SATB.ly:220:7:8">
<g transform="translate(102.3009, 58.1659)">
<text font-family="Optima" font-size="1.8500" text-anchor="start" fill="currentColor">
<tspan>la</tspan>
</text>
</g>
</a>
<a style="color:inherit;" xlink:href="textedit:///Users/Marc/Projects/violin-music.github.io/tunes/Christmas/Carol-of-the-bells/Carol-of-the-bells_SATB.ly:77:49:50">
<g transform="translate(102.3325, 110.0966)">
<path transform="scale(0.0042, -0.0042)" d="M218 136c66 0 108 -36 108 -89c0 -89 -113 -183 -218 -183c-66 0 -108 36 -108 89c0 89 113 183 218 183z" fill="currentColor"/>
</g>
</a>
<g transform="translate(103.6384, 47.4130)">
<rect x="-0.0650" y="-3.0905" width="0.1300" height="3.4449" ry="0.0400" fill="currentColor"/>
</g>
<g transform="translate(103.6384, 109.5466)">
<rect x="-0.0650" y="-3.0905" width="0.1300" height="3.4449" ry="0.0400" fill="currentColor"/>
</g>
<a style="color:inherit;" xlink:href="textedit:///Users/Marc/Projects/violin-music.github.io/tunes/Christmas/Carol-of-the-bells/Carol-of-the-bells_SATB.ly:143:8:9">
<g transform="translate(87.7013, 120.6914)">
<path transform="scale(0.0042, -0.0042)" d="M365 -156h-355c-6 0 -10 4 -10 10v136c0 6 4 10 10 10h355c6 0 10 -4 10 -10v-136c0 -6 -4 -10 -10 -10z" fill="currentColor"/>
</g>
</a>
<a style="color:inherit;" xlink:href="textedit:///Users/Marc/Projects/violin-music.github.io/tunes/Christmas/Carol-of-the-bells/Carol-of-the-bells_SATB.ly:77:52:53">
<g transform="translate(105.2920, 47.4130)">
<path transform="scale(0.0042, -0.0042)" d="M218 136c66 0 108 -36 108 -89c0 -89 -113 -183 -218 -183c-66 0 -108 36 -108 89c0 89 113 183 218 183z" fill="currentColor"/>
</g>
</a>
<a style="color:inherit;" xlink:href="textedit:///Users/Marc/Projects/violin-music.github.io/tunes/Christmas/Carol-of-the-bells/Carol-of-the-bells_SATB.ly:196:10:11">
<g transform="translate(104.6117, 55.3659)">
<text font-family="Optima" font-size="1.8500" text-anchor="start" fill="currentColor">
<tspan>со-</tspan>
</text>
</g>
</a>
<a style="color:inherit;" xlink:href="textedit:///Users/Marc/Projects/violin-music.github.io/tunes/Christmas/Carol-of-the-bells/Carol-of-the-bells_SATB.ly:220:10:11">
<g transform="translate(104.7995, 58.1659)">
<text font-family="Optima" font-size="1.8500" text-anchor="start" fill="currentColor">
<tspan>so-</tspan>
</text>
</g>
</a>
<a style="color:inherit;" xlink:href="textedit:///Users/Marc/Projects/violin-music.github.io/tunes/Christmas/Carol-of-the-bells/Carol-of-the-bells_SATB.ly:77:52:53">
<g transform="translate(105.2920, 109.5466)">
<path transform="scale(0.0042, -0.0042)" d="M218 136c66 0 108 -36 108 -89c0 -89 -113 -183 -218 -183c-66 0 -108 36 -108 89c0 89 113 183 218 183z" fill="currentColor"/>
</g>
</a>
<g transform="translate(106.5979, 47.4130)">
<rect x="-0.0650" y="-3.2955" width="0.1300" height="3.0999" ry="0.0400" fill="currentColor"/>
</g>
<g transform="translate(106.5979, 109.5466)">
<rect x="-0.0650" y="-3.2955" width="0.1300" height="3.0999" ry="0.0400" fill="currentColor"/>
</g>
<a style="color:inherit;" xlink:href="textedit:///Users/Marc/Projects/violin-music.github.io/tunes/Christmas/Carol-of-the-bells/Carol-of-the-bells_SATB.ly:77:55:56">
<g transform="translate(107.9272, 48.5130)">
<path transform="scale(0.0042, -0.0042)" d="M218 136c66 0 108 -36 108 -89c0 -89 -113 -183 -218 -183c-66 0 -108 36 -108 89c0 89 113 183 218 183z" fill="currentColor"/>
</g>
</a>
<a style="color:inherit;" xlink:href="textedit:///Users/Marc/Projects/violin-music.github.io/tunes/Christmas/Carol-of-the-bells/Carol-of-the-bells_SATB.ly:196:14:15">
<g transform="translate(107.7932, 55.3659)">
<text font-family="Optima" font-size="1.8500" text-anchor="start" fill="currentColor">
<tspan>бi</tspan>
</text>
</g>
</a>
<a style="color:inherit;" xlink:href="textedit:///Users/Marc/Projects/violin-music.github.io/tunes/Christmas/Carol-of-the-bells/Carol-of-the-bells_SATB.ly:220:14:15">
<g transform="translate(107.8444, 58.1659)">
<text font-family="Optima" font-size="1.8500" text-anchor="start" fill="currentColor">
<tspan>bi</tspan>
</text>
</g>
</a>
<a style="color:inherit;" xlink:href="textedit:///Users/Marc/Projects/violin-music.github.io/tunes/Christmas/Carol-of-the-bells/Carol-of-the-bells_SATB.ly:77:55:56">
<g transform="translate(107.9272, 110.6466)">
<path transform="scale(0.0042, -0.0042)" d="M218 136c66 0 108 -36 108 -89c0 -89 -113 -183 -218 -183c-66 0 -108 36 -108 89c0 89 113 183 218 183z" fill="currentColor"/>
</g>
</a>
<g transform="translate(109.2331, 47.4130)">
<rect x="-0.0650" y="-2.7500" width="0.1300" height="3.6544" ry="0.0400" fill="currentColor"/>
</g>
<g transform="translate(109.2331, 109.5466)">
<rect x="-0.0650" y="-2.7500" width="0.1300" height="3.6544" ry="0.0400" fill="currentColor"/>
</g>
<a style="color:inherit;" xlink:href="textedit:///Users/Marc/Projects/violin-music.github.io/tunes/Christmas/Carol-of-the-bells/Carol-of-the-bells_SATB.ly:115:8:9">
<g transform="translate(87.7013, 111.7466)">
<path transform="scale(0.0042, -0.0042)" d="M365 -156h-355c-6 0 -10 4 -10 10v136c0 6 4 10 10 10h355c6 0 10 -4 10 -10v-136c0 -6 -4 -10 -10 -10z" fill="currentColor"/>
</g>
</a>
<g transform="translate(7.3306, 65.5361)">
<text font-family="Linux Libertine" font-size="2.7502" text-anchor="start" fill="currentColor">
<tspan>A</tspan>
</text>
</g>
<a style="color:inherit;" xlink:href="textedit:///Users/Marc/Projects/violin-music.github.io/tunes/Christmas/Carol-of-the-bells/Carol-of-the-bells_SATB.ly:113:2:3">
<g transform="translate(34.8287, 63.4363)">
<path transform="scale(0.0042, -0.0042)" d="M365 -156h-355c-6 0 -10 4 -10 10v136c0 6 4 10 10 10h355c6 0 10 -4 10 -10v-136c0 -6 -4 -10 -10 -10z" fill="currentColor"/>
</g>
</a>
<g transform="translate(7.3306, 48.4128)">
<text font-family="Linux Libertine" font-size="2.7502" text-anchor="start" fill="currentColor">
<tspan>S</tspan>
</text>
</g>
<g transform="translate(33.6122, 44.3270)">
<polygon stroke-linejoin="round" stroke-linecap="round" stroke-width="0.0800" fill="currentColor" stroke="currentColor" points="4.8933 -0.4380 4.8933 0.0100 0.0400 0.2240 0.0400 -0.2240"/>
</g>
<g transform="translate(33.6122, 106.4606)">
<polygon stroke-linejoin="round" stroke-linecap="round" stroke-width="0.0800" fill="currentColor" stroke="currentColor" points="4.8933 -0.4380 4.8933 0.0100 0.0400 0.2240 0.0400 -0.2240"/>
</g>
<a style="color:inherit;" xlink:href="textedit:///Users/Marc/Projects/violin-music.github.io/tunes/Christmas/Carol-of-the-bells/Carol-of-the-bells_SATB.ly:115:4:5">
<g transform="translate(55.7678, 63.4363)">
<path transform="scale(0.0042, -0.0042)" d="M365 -156h-355c-6 0 -10 4 -10 10v136c0 6 4 10 10 10h355c6 0 10 -4 10 -10v-136c0 -6 -4 -10 -10 -10z" fill="currentColor"/>
</g>
</a>
<a style="color:inherit;" xlink:href="textedit:///Users/Marc/Projects/violin-music.github.io/tunes/Christmas/Carol-of-the-bells/Carol-of-the-bells_SATB.ly:143:4:5">
<g transform="translate(55.7678, 76.7812)">
<path transform="scale(0.0042, -0.0042)" d="M365 -156h-355c-6 0 -10 4 -10 10v136c0 6 4 10 10 10h355c6 0 10 -4 10 -10v-136c0 -6 -4 -10 -10 -10z" fill="currentColor"/>
</g>
</a>
<a style="color:inherit;" xlink:href="textedit:///Users/Marc/Projects/violin-music.github.io/tunes/Christmas/Carol-of-the-bells/Carol-of-the-bells_SATB.ly:170:4:5">
<g transform="translate(55.7678, 90.1260)">
<path transform="scale(0.0042, -0.0042)" d="M365 -156h-355c-6 0 -10 4 -10 10v136c0 6 4 10 10 10h355c6 0 10 -4 10 -10v-136c0 -6 -4 -10 -10 -10z" fill="currentColor"/>
</g>
</a>
<a style="color:inherit;" xlink:href="textedit:///Users/Marc/Projects/violin-music.github.io/tunes/Christmas/Carol-of-the-bells/Carol-of-the-bells_SATB.ly:115:4:5">
<g transform="translate(55.7678, 111.7466)">
<path transform="scale(0.0042, -0.0042)" d="M365 -156h-355c-6 0 -10 4 -10 10v136c0 6 4 10 10 10h355c6 0 10 -4 10 -10v-136c0 -6 -4 -10 -10 -10z" fill="currentColor"/>
</g>
</a>
<a style="color:inherit;" xlink:href="textedit:///Users/Marc/Projects/violin-music.github.io/tunes/Christmas/Carol-of-the-bells/Carol-of-the-bells_SATB.ly:143:4:5">
<g transform="translate(55.7678, 120.6914)">
<path transform="scale(0.0042, -0.0042)" d="M365 -156h-355c-6 0 -10 4 -10 10v136c0 6 4 10 10 10h355c6 0 10 -4 10 -10v-136c0 -6 -4 -10 -10 -10z" fill="currentColor"/>
</g>
</a>
<a style="color:inherit;" xlink:href="textedit:///Users/Marc/Projects/violin-music.github.io/tunes/Christmas/Carol-of-the-bells/Carol-of-the-bells_SATB.ly:170:4:5">
<g transform="translate(55.7678, 125.0914)">
<path transform="scale(0.0042, -0.0042)" d="M365 -156h-355c-6 0 -10 4 -10 10v136c0 6 4 10 10 10h355c6 0 10 -4 10 -10v-136c0 -6 -4 -10 -10 -10z" fill="currentColor"/>
</g>
</a>
<g transform="translate(54.8170, 44.3270)">
<polygon stroke-linejoin="round" stroke-linecap="round" stroke-width="0.0800" fill="currentColor" stroke="currentColor" points="4.1763 -0.4380 4.1763 0.0100 0.0400 0.2240 0.0400 -0.2240"/>
</g>
<g transform="translate(54.8170, 106.4606)">
<polygon stroke-linejoin="round" stroke-linecap="round" stroke-width="0.0800" fill="currentColor" stroke="currentColor" points="4.1763 -0.4380 4.1763 0.0100 0.0400 0.2240 0.0400 -0.2240"/>
</g>
<a style="color:inherit;" xlink:href="textedit:///Users/Marc/Projects/violin-music.github.io/tunes/Christmas/Carol-of-the-bells/Carol-of-the-bells_SATB.ly:115:6:7">
<g transform="translate(72.1435, 63.4363)">
<path transform="scale(0.0042, -0.0042)" d="M365 -156h-355c-6 0 -10 4 -10 10v136c0 6 4 10 10 10h355c6 0 10 -4 10 -10v-136c0 -6 -4 -10 -10 -10z" fill="currentColor"/>
</g>
</a>
<a style="color:inherit;" xlink:href="textedit:///Users/Marc/Projects/violin-music.github.io/tunes/Christmas/Carol-of-the-bells/Carol-of-the-bells_SATB.ly:143:6:7">
<g transform="translate(72.1435, 76.7812)">
<path transform="scale(0.0042, -0.0042)" d="M365 -156h-355c-6 0 -10 4 -10 10v136c0 6 4 10 10 10h355c6 0 10 -4 10 -10v-136c0 -6 -4 -10 -10 -10z" fill="currentColor"/>
</g>
</a>
<a style="color:inherit;" xlink:href="textedit:///Users/Marc/Projects/violin-music.github.io/tunes/Christmas/Carol-of-the-bells/Carol-of-the-bells_SATB.ly:170:6:7">
<g transform="translate(72.1435, 90.1260)">
<path transform="scale(0.0042, -0.0042)" d="M365 -156h-355c-6 0 -10 4 -10 10v136c0 6 4 10 10 10h355c6 0 10 -4 10 -10v-136c0 -6 -4 -10 -10 -10z" fill="currentColor"/>
</g>
</a>
<a style="color:inherit;" xlink:href="textedit:///Users/Marc/Projects/violin-music.github.io/tunes/Christmas/Carol-of-the-bells/Carol-of-the-bells_SATB.ly:115:6:7">
<g transform="translate(72.1435, 111.7466)">
<path transform="scale(0.0042, -0.0042)" d="M365 -156h-355c-6 0 -10 4 -10 10v136c0 6 4 10 10 10h355c6 0 10 -4 10 -10v-136c0 -6 -4 -10 -10 -10z" fill="currentColor"/>
</g>
</a>
<a style="color:inherit;" xlink:href="textedit:///Users/Marc/Projects/violin-music.github.io/tunes/Christmas/Carol-of-the-bells/Carol-of-the-bells_SATB.ly:143:6:7">
<g transform="translate(72.1435, 120.6914)">
<path transform="scale(0.0042, -0.0042)" d="M365 -156h-355c-6 0 -10 4 -10 10v136c0 6 4 10 10 10h355c6 0 10 -4 10 -10v-136c0 -6 -4 -10 -10 -10z" fill="currentColor"/>
</g>
</a>
<a style="color:inherit;" xlink:href="textedit:///Users/Marc/Projects/violin-music.github.io/tunes/Christmas/Carol-of-the-bells/Carol-of-the-bells_SATB.ly:170:6:7">
<g transform="translate(72.1435, 125.0914)">
<path transform="scale(0.0042, -0.0042)" d="M365 -156h-355c-6 0 -10 4 -10 10v136c0 6 4 10 10 10h355c6 0 10 -4 10 -10v-136c0 -6 -4 -10 -10 -10z" fill="currentColor"/>
</g>
</a>
<g transform="translate(72.4561, 44.3270)">
<polygon stroke-linejoin="round" stroke-linecap="round" stroke-width="0.0800" fill="currentColor" stroke="currentColor" points="2.9130 -0.4380 2.9130 0.0100 0.0400 0.2240 0.0400 -0.2240"/>
</g>
<g transform="translate(72.4561, 106.4606)">
<polygon stroke-linejoin="round" stroke-linecap="round" stroke-width="0.0800" fill="currentColor" stroke="currentColor" points="2.9130 -0.4380 2.9130 0.0100 0.0400 0.2240 0.0400 -0.2240"/>
</g>
<a style="color:inherit;" xlink:href="textedit:///Users/Marc/Projects/violin-music.github.io/tunes/Christmas/Carol-of-the-bells/Carol-of-the-bells_SATB.ly:115:8:9">
<g transform="translate(87.7013, 63.4363)">
<path transform="scale(0.0042, -0.0042)" d="M365 -156h-355c-6 0 -10 4 -10 10v136c0 6 4 10 10 10h355c6 0 10 -4 10 -10v-136c0 -6 -4 -10 -10 -10z" fill="currentColor"/>
</g>
</a>
<a style="color:inherit;" xlink:href="textedit:///Users/Marc/Projects/violin-music.github.io/tunes/Christmas/Carol-of-the-bells/Carol-of-the-bells_SATB.ly:143:8:9">
<g transform="translate(87.7013, 76.7812)">
<path transform="scale(0.0042, -0.0042)" d="M365 -156h-355c-6 0 -10 4 -10 10v136c0 6 4 10 10 10h355c6 0 10 -4 10 -10v-136c0 -6 -4 -10 -10 -10z" fill="currentColor"/>
</g>
</a>
<a style="color:inherit;" xlink:href="textedit:///Users/Marc/Projects/violin-music.github.io/tunes/Christmas/Carol-of-the-bells/Carol-of-the-bells_SATB.ly:170:8:9">
<g transform="translate(87.7013, 90.1260)">
<path transform="scale(0.0042, -0.0042)" d="M365 -156h-355c-6 0 -10 4 -10 10v136c0 6 4 10 10 10h355c6 0 10 -4 10 -10v-136c0 -6 -4 -10 -10 -10z" fill="currentColor"/>
</g>
</a>
</svg>
