<svg xmlns="http://www.w3.org/2000/svg" xmlns:xlink="http://www.w3.org/1999/xlink" version="1.2" width="210.00mm" height="297.00mm" viewBox="0.0000 -0.0000 119.5016 169.0094">
<style type="text/css">
<![CDATA[
tspan { white-space: pre; }
]]>
</style>
<g transform="translate(5.6906, 4.3320)">
<text font-family="serif" font-size="2.2001" text-anchor="start" fill="currentColor">
<tspan>2</tspan>
</text>
</g>
<g transform="translate(5.6906, 17.2000)">
<rect x="100.9139" y="-0.1050" width="2.0660" height="0.2100" ry="0.1050" fill="currentColor"/>
</g>
<g transform="translate(5.6906, 18.3000)">
<rect x="100.9139" y="-0.1050" width="2.0660" height="0.2100" ry="0.1050" fill="currentColor"/>
</g>
<g transform="translate(5.6906, 17.2000)">
<rect x="94.4934" y="-0.1050" width="1.9563" height="0.2100" ry="0.1050" fill="currentColor"/>
</g>
<g transform="translate(5.6906, 18.3000)">
<rect x="94.4934" y="-0.1050" width="1.9563" height="0.2100" ry="0.1050" fill="currentColor"/>
</g>
<g transform="translate(5.6906, 10.6000)">
<rect x="91.6829" y="-0.1050" width="1.9563" height="0.2100" ry="0.1050" fill="currentColor"/>
</g>
<g transform="translate(5.6906, 17.2000)">
<rect x="91.6829" y="-0.1050" width="1.9563" height="0.2100" ry="0.1050" fill="currentColor"/>
</g>
<g transform="translate(5.6906, 17.2000)">
<rect x="86.6486" y="-0.1050" width="1.9563" height="0.2100" ry="0.1050" fill="currentColor"/>
</g>
<g transform="translate(5.6906, 17.2000)">
<rect x="82.6570" y="-0.1050" width="1.9563" height="0.2100" ry="0.1050" fill="currentColor"/>
</g>
<g transform="translate(5.6906, 17.2000)">
<rect x="79.6462" y="-0.1050" width="1.9563" height="0.2100" ry="0.1050" fill="currentColor"/>
</g>
<g transform="translate(5.6906, 10.6000)">
<rect x="74.1880" y="-0.1050" width="2.0660" height="0.2100" ry="0.1050" fill="currentColor"/>
</g>
<g transform="translate(5.6906, 10.6000)">
<rect x="70.0534" y="-0.1050" width="1.9563" height="0.2100" ry="0.1050" fill="currentColor"/>
</g>
<g transform="translate(5.6906, 17.2000)">
<rect x="59.2947" y="-0.1050" width="1.9563" height="0.2100" ry="0.1050" fill="currentColor"/>
</g>
<g transform="translate(5.6906, 17.2000)">
<rect x="55.3031" y="-0.1050" width="1.9563" height="0.2100" ry="0.1050" fill="currentColor"/>
</g>
<g transform="translate(5.6906, 17.2000)">
<rect x="51.9850" y="-0.1050" width="1.9563" height="0.2100" ry="0.1050" fill="currentColor"/>
</g>
<g transform="translate(5.6906, 17.2000)">
<rect x="47.7948" y="-0.1050" width="1.9563" height="0.2100" ry="0.1050" fill="currentColor"/>
</g>
<g transform="translate(5.6906, 18.3000)">
<rect x="47.7948" y="-0.1050" width="1.9563" height="0.2100" ry="0.1050" fill="currentColor"/>
</g>
<g transform="translate(5.6906, 19.4000)">
<rect x="47.7948" y="-0.1050" width="1.9563" height="0.2100" ry="0.1050" fill="currentColor"/>
</g>
<g transform="translate(5.6906, 17.2000)">
<rect x="43.6045" y="-0.1050" width="1.9563" height="0.2100" ry="0.1050" fill="currentColor"/>
</g>
<g transform="translate(5.6906, 18.3000)">
<rect x="43.6045" y="-0.1050" width="1.9563" height="0.2100" ry="0.1050" fill="currentColor"/>
</g>
<g transform="translate(5.6906, 17.2000)">
<rect x="35.9481" y="-0.1050" width="1.9563" height="0.2100" ry="0.1050" fill="currentColor"/>
</g>
<g transform="translate(5.6906, 10.6000)">
<rect x="30.4537" y="-0.1050" width="1.9563" height="0.2100" ry="0.1050" fill="currentColor"/>
</g>
<g transform="translate(5.6906, 17.2000)">
<rect x="30.4537" y="-0.1050" width="1.9563" height="0.2100" ry="0.1050" fill="currentColor"/>
</g>
<g transform="translate(5.6906, 18.3000)">
<rect x="30.4537" y="-0.1050" width="1.9563" height="0.2100" ry="0.1050" fill="currentColor"/>
</g>
<g transform="translate(5.6906, 17.2000)">
<rect x="26.1801" y="-0.1050" width="1.9563" height="0.2100" ry="0.1050" fill="currentColor"/>
</g>
<g transform="translate(5.6906, 18.3000)">
<rect x="26.1801" y="-0.1050" width="1.9563" height="0.2100" ry="0.1050" fill="currentColor"/>
</g>
<g transform="translate(5.6906, 17.2000)">
<rect x="19.2545" y="-0.1050" width="1.9563" height="0.2100" ry="0.1050" fill="currentColor"/>
</g>
<g transform="translate(5.6906, 18.3000)">
<rect x="19.2545" y="-0.1050" width="1.9563" height="0.2100" ry="0.1050" fill="currentColor"/>
</g>
<g transform="translate(5.6906, 17.2000)">
<rect x="15.0642" y="-0.1050" width="1.9563" height="0.2100" ry="0.1050" fill="currentColor"/>
</g>
<g transform="translate(5.6906, 18.3000)">
<rect x="15.0642" y="-0.1050" width="1.9563" height="0.2100" ry="0.1050" fill="currentColor"/>
</g>
<g transform="translate(5.6906, 17.2000)">
<rect x="10.8740" y="-0.1050" width="1.9563" height="0.2100" ry="0.1050" fill="currentColor"/>
</g>
<g transform="translate(5.6906, 18.3000)">
<rect x="10.8740" y="-0.1050" width="1.9563" height="0.2100" ry="0.1050" fill="currentColor"/>
</g>
<g transform="translate(5.6906, 16.1000)">
<line stroke-linejoin="round" stroke-linecap="round" stroke-width="0.1000" stroke="currentColor" x1="0.0500" y1="0" x2="108.0705" y2="0"/>
</g>
<g transform="translate(5.6906, 15.0000)">
<line stroke-linejoin="round" stroke-linecap="round" stroke-width="0.1000" stroke="currentColor" x1="0.0500" y1="0" x2="108.0705" y2="0"/>
</g>
<g transform="translate(5.6906, 13.9000)">
<line stroke-linejoin="round" stroke-linecap="round" stroke-width="0.1000" stroke="currentColor" x1="0.0500" y1="0" x2="108.0705" y2="0"/>
</g>
<g transform="translate(5.6906, 12.8000)">
<line stroke-linejoin="round" stroke-linecap="round" stroke-width="0.1000" stroke="currentColor" x1="0.0500" y1="0" x2="108.0705" y2="0"/>
</g>
<g transform="translate(5.6906, 11.7000)">
<line stroke-linejoin="round" stroke-linecap="round" stroke-width="0.1000" stroke="currentColor" x1="0.0500" y1="0" x2="108.0705" y2="0"/>
</g>
<g transform="translate(113.2110, 34.2632)">
<rect x="0.0000" y="-2.2000" width="0.6000" height="4.4000" ry="0.0000" fill="currentColor"/>
</g>
<g transform="translate(112.7210, 34.2632)">
<rect x="0.0000" y="-2.2000" width="0.1900" height="4.4000" ry="0.0000" fill="currentColor"/>
</g>
<g transform="translate(113.2110, 13.9000)">
<rect x="0.0000" y="-2.2000" width="0.6000" height="4.4000" ry="0.0000" fill="currentColor"/>
</g>
<g transform="translate(112.7210, 13.9000)">
<rect x="0.0000" y="-2.2000" width="0.1900" height="4.4000" ry="0.0000" fill="currentColor"/>
</g>
<g transform="translate(104.7677, 34.2632)">
<rect x="0.0000" y="-2.2000" width="0.1900" height="4.4000" ry="0.0000" fill="currentColor"/>
</g>
<g transform="translate(104.7677, 13.9000)">
<rect x="0.0000" y="-2.2000" width="0.1900" height="4.4000" ry="0.0000" fill="currentColor"/>
</g>
<g transform="translate(5.6906, 37.5632)">
<rect x="100.9139" y="-0.1050" width="2.0660" height="0.2100" ry="0.1050" fill="currentColor"/>
</g>
<g transform="translate(5.6906, 36.4632)">
<line stroke-linejoin="round" stroke-linecap="round" stroke-width="0.1000" stroke="currentColor" x1="0.0500" y1="0" x2="108.0705" y2="0"/>
</g>
<g transform="translate(5.6906, 35.3632)">
<line stroke-linejoin="round" stroke-linecap="round" stroke-width="0.1000" stroke="currentColor" x1="0.0500" y1="0" x2="108.0705" y2="0"/>
</g>
<g transform="translate(5.6906, 34.2632)">
<line stroke-linejoin="round" stroke-linecap="round" stroke-width="0.1000" stroke="currentColor" x1="0.0500" y1="0" x2="108.0705" y2="0"/>
</g>
<g transform="translate(5.6906, 33.1632)">
<line stroke-linejoin="round" stroke-linecap="round" stroke-width="0.1000" stroke="currentColor" x1="0.0500" y1="0" x2="108.0705" y2="0"/>
</g>
<g transform="translate(5.6906, 32.0632)">
<line stroke-linejoin="round" stroke-linecap="round" stroke-width="0.1000" stroke="currentColor" x1="0.0500" y1="0" x2="108.0705" y2="0"/>
</g>
<g transform="translate(91.4840, 34.2632)">
<rect x="0.0000" y="-2.2000" width="0.1900" height="4.4000" ry="0.0000" fill="currentColor"/>
</g>
<g transform="translate(91.4840, 13.9000)">
<rect x="0.0000" y="-2.2000" width="0.1900" height="4.4000" ry="0.0000" fill="currentColor"/>
</g>
<g transform="translate(78.8054, 34.2632)">
<rect x="0.0000" y="-2.2000" width="0.1900" height="4.4000" ry="0.0000" fill="currentColor"/>
</g>
<g transform="translate(78.8054, 13.9000)">
<rect x="0.0000" y="-2.2000" width="0.1900" height="4.4000" ry="0.0000" fill="currentColor"/>
</g>
<g transform="translate(64.1301, 34.2632)">
<rect x="0.0000" y="-2.2000" width="0.1900" height="4.4000" ry="0.0000" fill="currentColor"/>
</g>
<g transform="translate(64.1301, 13.9000)">
<rect x="0.0000" y="-2.2000" width="0.1900" height="4.4000" ry="0.0000" fill="currentColor"/>
</g>
<g transform="translate(48.4400, 34.2632)">
<rect x="0.0000" y="-2.2000" width="0.1900" height="4.4000" ry="0.0000" fill="currentColor"/>
</g>
<g transform="translate(48.4400, 13.9000)">
<rect x="0.0000" y="-2.2000" width="0.1900" height="4.4000" ry="0.0000" fill="currentColor"/>
</g>
<g transform="translate(31.0156, 34.2632)">
<rect x="0.0000" y="-2.2000" width="0.1900" height="4.4000" ry="0.0000" fill="currentColor"/>
</g>
<g transform="translate(31.0156, 13.9000)">
<rect x="0.0000" y="-2.2000" width="0.1900" height="4.4000" ry="0.0000" fill="currentColor"/>
</g>
<g transform="translate(6.4906, 15.0000)">
<path transform="scale(0.0040, -0.0040)" d="M266 -635h-6c-108 0 -195 88 -195 197c0 58 53 103 112 103c54 0 95 -47 95 -103c0 -52 -43 -95 -95 -95c-11 0 -21 2 -31 6c26 -39 68 -65 117 -65h4zM461 -203c68 24 113 90 113 164c0 90 -66 179 -173 190c19 -89 48 -242 60 -354zM74 28c0 -145 141 -247 264 -247
c1 0 47 0 82 6c-7 64 -29 203 -63 364c-79 -8 -124 -61 -124 -119c0 -44 25 -91 81 -123c5 -5 7 -10 7 -15c0 -11 -10 -22 -22 -22c-15 0 -126 62 -126 187c0 88 58 174 160 197c-14 58 -29 117 -46 175c-107 -121 -213 -243 -213 -403zM250 553c-29 96 -52 170 -52 346
c0 115 55 224 149 292c6 5 14 5 20 0c68 -80 133 -245 133 -358c0 -143 -86 -255 -180 -364c21 -68 39 -138 56 -207c2 0 7 1 13 1c155 0 256 -128 256 -261c0 -113 -74 -212 -180 -246c3 -35 5 -70 5 -105c0 -19 -1 -39 -2 -58c-7 -119 -88 -225 -202 -228l1 43
c93 2 153 92 159 191c1 18 2 37 2 55c0 31 -1 61 -4 92c-5 -1 -44 -8 -89 -8c-193 0 -333 180 -333 374c0 177 131 306 248 441zM428 916c0 34 1 66 -20 129c-99 -48 -162 -149 -162 -259c0 -52 12 -115 36 -194c80 97 146 198 146 324z" fill="currentColor"/>
</g>
<g transform="translate(9.9906, 11.7000)">
<path transform="scale(0.0040, -0.0040)" d="M0 119c0 8 5 15 13 18l46 17v158c0 10 8 19 18 19s19 -9 19 -19v-145l83 31v158c0 10 9 19 19 19s18 -9 18 -19v-145l32 12c2 1 5 1 7 1c11 0 20 -9 20 -20v-60c0 -8 -5 -16 -13 -19l-46 -16v-160l32 11c2 1 5 1 7 1c11 0 20 -9 20 -20v-60c0 -8 -5 -15 -13 -18l-46 -17
v-158c0 -10 -8 -19 -18 -19s-19 9 -19 19v145l-83 -31v-158c0 -10 -9 -19 -19 -19s-18 9 -18 19v145l-32 -12c-2 -1 -5 -1 -7 -1c-11 0 -20 9 -20 20v60c0 8 5 16 13 19l46 16v160l-32 -11c-2 -1 -5 -1 -7 -1c-11 0 -20 9 -20 20v60zM179 95l-83 -30v-160l83 30v160z" fill="currentColor"/>
</g>
<g transform="translate(11.0906, 13.3500)">
<path transform="scale(0.0040, -0.0040)" d="M0 119c0 8 5 15 13 18l46 17v158c0 10 8 19 18 19s19 -9 19 -19v-145l83 31v158c0 10 9 19 19 19s18 -9 18 -19v-145l32 12c2 1 5 1 7 1c11 0 20 -9 20 -20v-60c0 -8 -5 -16 -13 -19l-46 -16v-160l32 11c2 1 5 1 7 1c11 0 20 -9 20 -20v-60c0 -8 -5 -15 -13 -18l-46 -17
v-158c0 -10 -8 -19 -18 -19s-19 9 -19 19v145l-83 -31v-158c0 -10 -9 -19 -19 -19s-18 9 -18 19v145l-32 -12c-2 -1 -5 -1 -7 -1c-11 0 -20 9 -20 20v60c0 8 5 16 13 19l46 16v160l-32 -11c-2 -1 -5 -1 -7 -1c-11 0 -20 9 -20 20v60zM179 95l-83 -30v-160l83 30v160z" fill="currentColor"/>
</g>
<g transform="translate(12.1906, 11.1500)">
<path transform="scale(0.0040, -0.0040)" d="M0 119c0 8 5 15 13 18l46 17v158c0 10 8 19 18 19s19 -9 19 -19v-145l83 31v158c0 10 9 19 19 19s18 -9 18 -19v-145l32 12c2 1 5 1 7 1c11 0 20 -9 20 -20v-60c0 -8 -5 -16 -13 -19l-46 -16v-160l32 11c2 1 5 1 7 1c11 0 20 -9 20 -20v-60c0 -8 -5 -15 -13 -18l-46 -17
v-158c0 -10 -8 -19 -18 -19s-19 9 -19 19v145l-83 -31v-158c0 -10 -9 -19 -19 -19s-18 9 -18 19v145l-32 -12c-2 -1 -5 -1 -7 -1c-11 0 -20 9 -20 20v60c0 8 5 16 13 19l46 16v160l-32 -11c-2 -1 -5 -1 -7 -1c-11 0 -20 9 -20 20v60zM179 95l-83 -30v-160l83 30v160z" fill="currentColor"/>
</g>
<g transform="translate(13.2906, 12.8000)">
<path transform="scale(0.0040, -0.0040)" d="M0 119c0 8 5 15 13 18l46 17v158c0 10 8 19 18 19s19 -9 19 -19v-145l83 31v158c0 10 9 19 19 19s18 -9 18 -19v-145l32 12c2 1 5 1 7 1c11 0 20 -9 20 -20v-60c0 -8 -5 -16 -13 -19l-46 -16v-160l32 11c2 1 5 1 7 1c11 0 20 -9 20 -20v-60c0 -8 -5 -15 -13 -18l-46 -17
v-158c0 -10 -8 -19 -18 -19s-19 9 -19 19v145l-83 -31v-158c0 -10 -9 -19 -19 -19s-18 9 -18 19v145l-32 -12c-2 -1 -5 -1 -7 -1c-11 0 -20 9 -20 20v60c0 8 5 16 13 19l46 16v160l-32 -11c-2 -1 -5 -1 -7 -1c-11 0 -20 9 -20 20v60zM179 95l-83 -30v-160l83 30v160z" fill="currentColor"/>
</g>
<g transform="translate(6.4906, 33.1632)">
<path transform="scale(0.0040, -0.0040)" d="M557 -125c0 28 23 51 51 51s51 -23 51 -51s-23 -51 -51 -51s-51 23 -51 51zM557 125c0 28 23 51 51 51s51 -23 51 -51s-23 -51 -51 -51s-51 23 -51 51zM232 263c172 0 293 -88 293 -251c0 -263 -263 -414 -516 -521c-3 -3 -6 -4 -9 -4c-7 0 -13 6 -13 13c0 3 1 6 4 9
c202 118 412 265 412 493c0 120 -63 235 -171 235c-74 0 -129 -54 -154 -126c11 5 22 8 34 8c55 0 100 -45 100 -100c0 -58 -44 -106 -100 -106c-60 0 -112 47 -112 106c0 133 102 244 232 244z" fill="currentColor"/>
</g>
<g transform="translate(9.9906, 33.1632)">
<path transform="scale(0.0040, -0.0040)" d="M0 119c0 8 5 15 13 18l46 17v158c0 10 8 19 18 19s19 -9 19 -19v-145l83 31v158c0 10 9 19 19 19s18 -9 18 -19v-145l32 12c2 1 5 1 7 1c11 0 20 -9 20 -20v-60c0 -8 -5 -16 -13 -19l-46 -16v-160l32 11c2 1 5 1 7 1c11 0 20 -9 20 -20v-60c0 -8 -5 -15 -13 -18l-46 -17
v-158c0 -10 -8 -19 -18 -19s-19 9 -19 19v145l-83 -31v-158c0 -10 -9 -19 -19 -19s-18 9 -18 19v145l-32 -12c-2 -1 -5 -1 -7 -1c-11 0 -20 9 -20 20v60c0 8 5 16 13 19l46 16v160l-32 -11c-2 -1 -5 -1 -7 -1c-11 0 -20 9 -20 20v60zM179 95l-83 -30v-160l83 30v160z" fill="currentColor"/>
</g>
<g transform="translate(11.0906, 34.8132)">
<path transform="scale(0.0040, -0.0040)" d="M0 119c0 8 5 15 13 18l46 17v158c0 10 8 19 18 19s19 -9 19 -19v-145l83 31v158c0 10 9 19 19 19s18 -9 18 -19v-145l32 12c2 1 5 1 7 1c11 0 20 -9 20 -20v-60c0 -8 -5 -16 -13 -19l-46 -16v-160l32 11c2 1 5 1 7 1c11 0 20 -9 20 -20v-60c0 -8 -5 -15 -13 -18l-46 -17
v-158c0 -10 -8 -19 -18 -19s-19 9 -19 19v145l-83 -31v-158c0 -10 -9 -19 -19 -19s-18 9 -18 19v145l-32 -12c-2 -1 -5 -1 -7 -1c-11 0 -20 9 -20 20v60c0 8 5 16 13 19l46 16v160l-32 -11c-2 -1 -5 -1 -7 -1c-11 0 -20 9 -20 20v60zM179 95l-83 -30v-160l83 30v160z" fill="currentColor"/>
</g>
<g transform="translate(12.1906, 32.6132)">
<path transform="scale(0.0040, -0.0040)" d="M0 119c0 8 5 15 13 18l46 17v158c0 10 8 19 18 19s19 -9 19 -19v-145l83 31v158c0 10 9 19 19 19s18 -9 18 -19v-145l32 12c2 1 5 1 7 1c11 0 20 -9 20 -20v-60c0 -8 -5 -16 -13 -19l-46 -16v-160l32 11c2 1 5 1 7 1c11 0 20 -9 20 -20v-60c0 -8 -5 -15 -13 -18l-46 -17
v-158c0 -10 -8 -19 -18 -19s-19 9 -19 19v145l-83 -31v-158c0 -10 -9 -19 -19 -19s-18 9 -18 19v145l-32 -12c-2 -1 -5 -1 -7 -1c-11 0 -20 9 -20 20v60c0 8 5 16 13 19l46 16v160l-32 -11c-2 -1 -5 -1 -7 -1c-11 0 -20 9 -20 20v60zM179 95l-83 -30v-160l83 30v160z" fill="currentColor"/>
</g>
<g transform="translate(13.2906, 34.2632)">
<path transform="scale(0.0040, -0.0040)" d="M0 119c0 8 5 15 13 18l46 17v158c0 10 8 19 18 19s19 -9 19 -19v-145l83 31v158c0 10 9 19 19 19s18 -9 18 -19v-145l32 12c2 1 5 1 7 1c11 0 20 -9 20 -20v-60c0 -8 -5 -16 -13 -19l-46 -16v-160l32 11c2 1 5 1 7 1c11 0 20 -9 20 -20v-60c0 -8 -5 -15 -13 -18l-46 -17
v-158c0 -10 -8 -19 -18 -19s-19 9 -19 19v145l-83 -31v-158c0 -10 -9 -19 -19 -19s-18 9 -18 19v145l-32 -12c-2 -1 -5 -1 -7 -1c-11 0 -20 9 -20 20v60c0 8 5 16 13 19l46 16v160l-32 -11c-2 -1 -5 -1 -7 -1c-11 0 -20 9 -20 20v60zM179 95l-83 -30v-160l83 30v160z" fill="currentColor"/>
</g>
<a style="color:inherit;" xlink:href="textedit:///Users/marc.mouries/projects/Sheet-Music/Folk_USA/The-Star-Spangled-Banner/The-Star-Spangled-Banner.ly:53:8:9">
<g transform="translate(16.8906, 13.3500)">
<path transform="scale(0.0040, -0.0040)" d="M218 136c66 0 108 -36 108 -89c0 -89 -113 -183 -218 -183c-66 0 -108 36 -108 89c0 89 113 183 218 183z" fill="currentColor"/>
</g>
</a>
<a style="color:inherit;" xlink:href="textedit:///Users/marc.mouries/projects/Sheet-Music/Folk_USA/The-Star-Spangled-Banner/The-Star-Spangled-Banner.ly:95:8:9">
<g transform="translate(16.8906, 18.3000)">
<path transform="scale(0.0040, -0.0040)" d="M218 136c66 0 108 -36 108 -89c0 -89 -113 -183 -218 -183c-66 0 -108 36 -108 89c0 89 113 183 218 183z" fill="currentColor"/>
</g>
</a>
<a style="color:inherit;" xlink:href="textedit:///Users/marc.mouries/projects/Sheet-Music/Folk_USA/The-Star-Spangled-Banner/The-Star-Spangled-Banner.ly:153:55:56">
<g transform="translate(16.2282, 22.9260)">
<text font-family="Optima" font-size="1.7461" text-anchor="start" fill="currentColor">
<tspan>star</tspan>
</text>
</g>
</a>
<a style="color:inherit;" xlink:href="textedit:///Users/marc.mouries/projects/Sheet-Music/Folk_USA/The-Star-Spangled-Banner/The-Star-Spangled-Banner.ly:163:68:69">
<g transform="translate(16.1428, 25.7260)">
<text font-family="Optima" font-size="1.7461" text-anchor="start" fill="currentColor">
<tspan>ban</tspan>
</text>
</g>
</a>
<a style="color:inherit;" xlink:href="textedit:///Users/marc.mouries/projects/Sheet-Music/Folk_USA/The-Star-Spangled-Banner/The-Star-Spangled-Banner.ly:173:68:69">
<g transform="translate(16.1428, 28.5260)">
<text font-family="Optima" font-size="1.7461" text-anchor="start" fill="currentColor">
<tspan>ban</tspan>
</text>
</g>
</a>
<a style="color:inherit;" xlink:href="textedit:///Users/marc.mouries/projects/Sheet-Music/Folk_USA/The-Star-Spangled-Banner/The-Star-Spangled-Banner.ly:137:8:9">
<g transform="translate(16.8906, 35.9132)">
<path transform="scale(0.0040, -0.0040)" d="M218 136c66 0 108 -36 108 -89c0 -89 -113 -183 -218 -183c-66 0 -108 36 -108 89c0 89 113 183 218 183z" fill="currentColor"/>
</g>
</a>
<g transform="translate(18.1298, 13.9000)">
<rect x="-0.0650" y="-4.0333" width="0.1300" height="3.2972" ry="0.0400" fill="currentColor"/>
</g>
<g transform="translate(16.9556, 13.9000)">
<rect x="-0.0650" y="4.5861" width="0.1300" height="2.5639" ry="0.0400" fill="currentColor"/>
</g>
<g transform="translate(18.1298, 34.2632)">
<rect x="-0.0650" y="-2.2000" width="0.1300" height="3.6639" ry="0.0400" fill="currentColor"/>
</g>
<a style="color:inherit;" xlink:href="textedit:///Users/marc.mouries/projects/Sheet-Music/Folk_USA/The-Star-Spangled-Banner/The-Star-Spangled-Banner.ly:53:12:13">
<g transform="translate(21.0808, 13.3500)">
<path transform="scale(0.0040, -0.0040)" d="M218 136c66 0 108 -36 108 -89c0 -89 -113 -183 -218 -183c-66 0 -108 36 -108 89c0 89 113 183 218 183z" fill="currentColor"/>
</g>
</a>
<a style="color:inherit;" xlink:href="textedit:///Users/marc.mouries/projects/Sheet-Music/Folk_USA/The-Star-Spangled-Banner/The-Star-Spangled-Banner.ly:95:10:11">
<g transform="translate(21.0808, 18.3000)">
<path transform="scale(0.0040, -0.0040)" d="M218 136c66 0 108 -36 108 -89c0 -89 -113 -183 -218 -183c-66 0 -108 36 -108 89c0 89 113 183 218 183z" fill="currentColor"/>
</g>
</a>
<a style="color:inherit;" xlink:href="textedit:///Users/marc.mouries/projects/Sheet-Music/Folk_USA/The-Star-Spangled-Banner/The-Star-Spangled-Banner.ly:153:63:64">
<g transform="translate(19.9916, 22.9260)">
<text font-family="Optima" font-size="1.7461" text-anchor="start" fill="currentColor">
<tspan>span</tspan>
</text>
</g>
</a>
<a style="color:inherit;" xlink:href="textedit:///Users/marc.mouries/projects/Sheet-Music/Folk_USA/The-Star-Spangled-Banner/The-Star-Spangled-Banner.ly:163:75:76">
<g transform="translate(20.3501, 25.7260)">
<text font-family="Optima" font-size="1.7461" text-anchor="start" fill="currentColor">
<tspan>ner,</tspan>
</text>
</g>
</a>
<a style="color:inherit;" xlink:href="textedit:///Users/marc.mouries/projects/Sheet-Music/Folk_USA/The-Star-Spangled-Banner/The-Star-Spangled-Banner.ly:173:75:76">
<g transform="translate(20.5209, 28.5260)">
<text font-family="Optima" font-size="1.7461" text-anchor="start" fill="currentColor">
<tspan>ner</tspan>
</text>
</g>
</a>
<a style="color:inherit;" xlink:href="textedit:///Users/marc.mouries/projects/Sheet-Music/Folk_USA/The-Star-Spangled-Banner/The-Star-Spangled-Banner.ly:137:10:11">
<g transform="translate(21.0808, 35.9132)">
<path transform="scale(0.0040, -0.0040)" d="M218 136c66 0 108 -36 108 -89c0 -89 -113 -183 -218 -183c-66 0 -108 36 -108 89c0 89 113 183 218 183z" fill="currentColor"/>
</g>
</a>
<g transform="translate(22.3201, 13.9000)">
<rect x="-0.0650" y="-4.0333" width="0.1300" height="3.2972" ry="0.0400" fill="currentColor"/>
</g>
<g transform="translate(21.1458, 13.9000)">
<rect x="-0.0650" y="4.5861" width="0.1300" height="2.5639" ry="0.0400" fill="currentColor"/>
</g>
<g transform="translate(22.3201, 34.2632)">
<rect x="-0.0650" y="-2.2000" width="0.1300" height="3.6639" ry="0.0400" fill="currentColor"/>
</g>
<a style="color:inherit;" xlink:href="textedit:///Users/marc.mouries/projects/Sheet-Music/Folk_USA/The-Star-Spangled-Banner/The-Star-Spangled-Banner.ly:53:15:16">
<g transform="translate(25.2711, 13.3500)">
<path transform="scale(0.0040, -0.0040)" d="M218 136c66 0 108 -36 108 -89c0 -89 -113 -183 -218 -183c-66 0 -108 36 -108 89c0 89 113 183 218 183z" fill="currentColor"/>
</g>
</a>
<a style="color:inherit;" xlink:href="textedit:///Users/marc.mouries/projects/Sheet-Music/Folk_USA/The-Star-Spangled-Banner/The-Star-Spangled-Banner.ly:95:12:13">
<g transform="translate(25.2711, 18.3000)">
<path transform="scale(0.0040, -0.0040)" d="M218 136c66 0 108 -36 108 -89c0 -89 -113 -183 -218 -183c-66 0 -108 36 -108 89c0 89 113 183 218 183z" fill="currentColor"/>
</g>
</a>
<a style="color:inherit;" xlink:href="textedit:///Users/marc.mouries/projects/Sheet-Music/Folk_USA/The-Star-Spangled-Banner/The-Star-Spangled-Banner.ly:153:71:72">
<g transform="translate(24.3185, 22.9260)">
<text font-family="Optima" font-size="1.7461" text-anchor="start" fill="currentColor">
<tspan>gled</tspan>
</text>
</g>
</a>
<a style="color:inherit;" xlink:href="textedit:///Users/marc.mouries/projects/Sheet-Music/Folk_USA/The-Star-Spangled-Banner/The-Star-Spangled-Banner.ly:163:80:81">
<g transform="translate(24.4721, 25.7260)">
<text font-family="Optima" font-size="1.7461" text-anchor="start" fill="currentColor">
<tspan>Oh,</tspan>
</text>
</g>
</a>
<a style="color:inherit;" xlink:href="textedit:///Users/marc.mouries/projects/Sheet-Music/Folk_USA/The-Star-Spangled-Banner/The-Star-Spangled-Banner.ly:173:79:80">
<g transform="translate(25.2062, 28.5260)">
<text font-family="Optima" font-size="1.7461" text-anchor="start" fill="currentColor">
<tspan>in</tspan>
</text>
</g>
</a>
<a style="color:inherit;" xlink:href="textedit:///Users/marc.mouries/projects/Sheet-Music/Folk_USA/The-Star-Spangled-Banner/The-Star-Spangled-Banner.ly:137:12:13">
<g transform="translate(25.2711, 35.9132)">
<path transform="scale(0.0040, -0.0040)" d="M218 136c66 0 108 -36 108 -89c0 -89 -113 -183 -218 -183c-66 0 -108 36 -108 89c0 89 113 183 218 183z" fill="currentColor"/>
</g>
</a>
<g transform="translate(26.5103, 13.9000)">
<rect x="-0.0650" y="-4.0333" width="0.1300" height="3.2972" ry="0.0400" fill="currentColor"/>
</g>
<g transform="translate(25.3361, 13.9000)">
<rect x="-0.0650" y="4.5861" width="0.1300" height="2.5639" ry="0.0400" fill="currentColor"/>
</g>
<g transform="translate(26.5103, 34.2632)">
<rect x="-0.0650" y="-1.3092" width="0.1300" height="2.7731" ry="0.0400" fill="currentColor"/>
</g>
<a style="color:inherit;" xlink:href="textedit:///Users/marc.mouries/projects/Sheet-Music/Folk_USA/The-Star-Spangled-Banner/The-Star-Spangled-Banner.ly:137:16:17">
<g transform="translate(28.0183, 36.4632)">
<path transform="scale(0.0040, -0.0040)" d="M218 136c66 0 108 -36 108 -89c0 -89 -113 -183 -218 -183c-66 0 -108 36 -108 89c0 89 113 183 218 183z" fill="currentColor"/>
</g>
</a>
<g transform="translate(29.2575, 34.2632)">
<rect x="-0.0650" y="-1.1048" width="0.1300" height="3.1187" ry="0.0400" fill="currentColor"/>
</g>
<a style="color:inherit;" xlink:href="textedit:///Users/marc.mouries/projects/Sheet-Music/Folk_USA/The-Star-Spangled-Banner/The-Star-Spangled-Banner.ly:55:8:9">
<g transform="translate(32.1967, 11.7000)">
<path transform="scale(0.0040, -0.0040)" d="M218 136c66 0 108 -36 108 -89c0 -89 -113 -183 -218 -183c-66 0 -108 36 -108 89c0 89 113 183 218 183z" fill="currentColor"/>
</g>
</a>
<a style="color:inherit;" xlink:href="textedit:///Users/marc.mouries/projects/Sheet-Music/Folk_USA/The-Star-Spangled-Banner/The-Star-Spangled-Banner.ly:97:8:9">
<g transform="translate(32.1967, 18.3000)">
<path transform="scale(0.0040, -0.0040)" d="M218 136c66 0 108 -36 108 -89c0 -89 -113 -183 -218 -183c-66 0 -108 36 -108 89c0 89 113 183 218 183z" fill="currentColor"/>
</g>
</a>
<a style="color:inherit;" xlink:href="textedit:///Users/marc.mouries/projects/Sheet-Music/Folk_USA/The-Star-Spangled-Banner/The-Star-Spangled-Banner.ly:154:0:1">
<g transform="translate(31.4489, 22.9260)">
<text font-family="Optima" font-size="1.7461" text-anchor="start" fill="currentColor">
<tspan>ban</tspan>
</text>
</g>
</a>
<a style="color:inherit;" xlink:href="textedit:///Users/marc.mouries/projects/Sheet-Music/Folk_USA/The-Star-Spangled-Banner/The-Star-Spangled-Banner.ly:164:0:1">
<g transform="translate(31.2099, 25.7260)">
<text font-family="Optima" font-size="1.7461" text-anchor="start" fill="currentColor">
<tspan>long</tspan>
</text>
</g>
</a>
<a style="color:inherit;" xlink:href="textedit:///Users/marc.mouries/projects/Sheet-Music/Folk_USA/The-Star-Spangled-Banner/The-Star-Spangled-Banner.ly:174:0:1">
<g transform="translate(32.0806, 28.5260)">
<text font-family="Optima" font-size="1.7461" text-anchor="start" fill="currentColor">
<tspan>tri</tspan>
</text>
</g>
</a>
<a style="color:inherit;" xlink:href="textedit:///Users/marc.mouries/projects/Sheet-Music/Folk_USA/The-Star-Spangled-Banner/The-Star-Spangled-Banner.ly:139:8:9">
<g transform="translate(32.1967, 37.0132)">
<path transform="scale(0.0040, -0.0040)" d="M218 136c66 0 108 -36 108 -89c0 -89 -113 -183 -218 -183c-66 0 -108 36 -108 89c0 89 113 183 218 183z" fill="currentColor"/>
</g>
</a>
<g transform="translate(33.4359, 13.9000)">
<rect x="-0.0650" y="-5.1333" width="0.1300" height="2.7472" ry="0.0400" fill="currentColor"/>
</g>
<g transform="translate(32.2617, 13.9000)">
<rect x="-0.0650" y="4.5861" width="0.1300" height="2.5639" ry="0.0400" fill="currentColor"/>
</g>
<g transform="translate(33.4359, 34.2632)">
<rect x="-0.0650" y="-1.1000" width="0.1300" height="3.6639" ry="0.0400" fill="currentColor"/>
</g>
<a style="color:inherit;" xlink:href="textedit:///Users/marc.mouries/projects/Sheet-Music/Folk_USA/The-Star-Spangled-Banner/The-Star-Spangled-Banner.ly:55:11:12">
<g transform="translate(36.4703, 10.6000)">
<path transform="scale(0.0040, -0.0040)" d="M218 136c66 0 108 -36 108 -89c0 -89 -113 -183 -218 -183c-66 0 -108 36 -108 89c0 89 113 183 218 183z" fill="currentColor"/>
</g>
</a>
<a style="color:inherit;" xlink:href="textedit:///Users/marc.mouries/projects/Sheet-Music/Folk_USA/The-Star-Spangled-Banner/The-Star-Spangled-Banner.ly:97:10:11">
<g transform="translate(36.4703, 18.3000)">
<path transform="scale(0.0040, -0.0040)" d="M218 136c66 0 108 -36 108 -89c0 -89 -113 -183 -218 -183c-66 0 -108 36 -108 89c0 89 113 183 218 183z" fill="currentColor"/>
</g>
</a>
<a style="color:inherit;" xlink:href="textedit:///Users/marc.mouries/projects/Sheet-Music/Folk_USA/The-Star-Spangled-Banner/The-Star-Spangled-Banner.ly:154:7:8">
<g transform="translate(35.9103, 22.9260)">
<text font-family="Optima" font-size="1.7461" text-anchor="start" fill="currentColor">
<tspan>ner</tspan>
</text>
</g>
</a>
<a style="color:inherit;" xlink:href="textedit:///Users/marc.mouries/projects/Sheet-Music/Folk_USA/The-Star-Spangled-Banner/The-Star-Spangled-Banner.ly:164:5:6">
<g transform="translate(35.5347, 25.7260)">
<text font-family="Optima" font-size="1.7461" text-anchor="start" fill="currentColor">
<tspan>may</tspan>
</text>
</g>
</a>
<a style="color:inherit;" xlink:href="textedit:///Users/marc.mouries/projects/Sheet-Music/Folk_USA/The-Star-Spangled-Banner/The-Star-Spangled-Banner.ly:174:7:8">
<g transform="translate(34.9543, 28.5260)">
<text font-family="Optima" font-size="1.7461" text-anchor="start" fill="currentColor">
<tspan>umph</tspan>
</text>
</g>
</a>
<a style="color:inherit;" xlink:href="textedit:///Users/marc.mouries/projects/Sheet-Music/Folk_USA/The-Star-Spangled-Banner/The-Star-Spangled-Banner.ly:139:12:13">
<g transform="translate(36.4703, 37.0132)">
<path transform="scale(0.0040, -0.0040)" d="M218 136c66 0 108 -36 108 -89c0 -89 -113 -183 -218 -183c-66 0 -108 36 -108 89c0 89 113 183 218 183z" fill="currentColor"/>
</g>
</a>
<g transform="translate(37.7095, 13.9000)">
<rect x="-0.0650" y="-6.0424" width="0.1300" height="2.5563" ry="0.0400" fill="currentColor"/>
</g>
<g transform="translate(36.5353, 13.9000)">
<rect x="-0.0650" y="4.5861" width="0.1300" height="2.5639" ry="0.0400" fill="currentColor"/>
</g>
<g transform="translate(37.7095, 34.2632)">
<rect x="-0.0650" y="-0.8908" width="0.1300" height="3.4547" ry="0.0400" fill="currentColor"/>
</g>
<a style="color:inherit;" xlink:href="textedit:///Users/marc.mouries/projects/Sheet-Music/Folk_USA/The-Star-Spangled-Banner/The-Star-Spangled-Banner.ly:55:15:16">
<g transform="translate(39.2175, 11.1500)">
<path transform="scale(0.0040, -0.0040)" d="M218 136c66 0 108 -36 108 -89c0 -89 -113 -183 -218 -183c-66 0 -108 36 -108 89c0 89 113 183 218 183z" fill="currentColor"/>
</g>
</a>
<a style="color:inherit;" xlink:href="textedit:///Users/marc.mouries/projects/Sheet-Music/Folk_USA/The-Star-Spangled-Banner/The-Star-Spangled-Banner.ly:139:17:18">
<g transform="translate(39.2175, 36.4632)">
<path transform="scale(0.0040, -0.0040)" d="M218 136c66 0 108 -36 108 -89c0 -89 -113 -183 -218 -183c-66 0 -108 36 -108 89c0 89 113 183 218 183z" fill="currentColor"/>
</g>
</a>
<g transform="translate(40.4567, 13.9000)">
<rect x="-0.0650" y="-5.7216" width="0.1300" height="2.7855" ry="0.0400" fill="currentColor"/>
</g>
<g transform="translate(40.4567, 34.2632)">
<rect x="-0.0650" y="-1.0952" width="0.1300" height="3.1091" ry="0.0400" fill="currentColor"/>
</g>
<a style="color:inherit;" xlink:href="textedit:///Users/marc.mouries/projects/Sheet-Music/Folk_USA/The-Star-Spangled-Banner/The-Star-Spangled-Banner.ly:55:19:20">
<g transform="translate(41.9647, 11.7000)">
<path transform="scale(0.0040, -0.0040)" d="M218 136c66 0 108 -36 108 -89c0 -89 -113 -183 -218 -183c-66 0 -108 36 -108 89c0 89 113 183 218 183z" fill="currentColor"/>
</g>
</a>
<a style="color:inherit;" xlink:href="textedit:///Users/marc.mouries/projects/Sheet-Music/Folk_USA/The-Star-Spangled-Banner/The-Star-Spangled-Banner.ly:97:12:13">
<g transform="translate(41.9647, 17.2000)">
<path transform="scale(0.0040, -0.0040)" d="M218 136c66 0 108 -36 108 -89c0 -89 -113 -183 -218 -183c-66 0 -108 36 -108 89c0 89 113 183 218 183z" fill="currentColor"/>
</g>
</a>
<a style="color:inherit;" xlink:href="textedit:///Users/marc.mouries/projects/Sheet-Music/Folk_USA/The-Star-Spangled-Banner/The-Star-Spangled-Banner.ly:154:11:12">
<g transform="translate(41.3194, 22.9260)">
<text font-family="Optima" font-size="1.7461" text-anchor="start" fill="currentColor">
<tspan>still</tspan>
</text>
</g>
</a>
<a style="color:inherit;" xlink:href="textedit:///Users/marc.mouries/projects/Sheet-Music/Folk_USA/The-Star-Spangled-Banner/The-Star-Spangled-Banner.ly:164:9:10">
<g transform="translate(42.1388, 25.7260)">
<text font-family="Optima" font-size="1.7461" text-anchor="start" fill="currentColor">
<tspan>it</tspan>
</text>
</g>
</a>
<a style="color:inherit;" xlink:href="textedit:///Users/marc.mouries/projects/Sheet-Music/Folk_USA/The-Star-Spangled-Banner/The-Star-Spangled-Banner.ly:174:12:13">
<g transform="translate(40.8755, 28.5260)">
<text font-family="Optima" font-size="1.7461" text-anchor="start" fill="currentColor">
<tspan>shall</tspan>
</text>
</g>
</a>
<a style="color:inherit;" xlink:href="textedit:///Users/marc.mouries/projects/Sheet-Music/Folk_USA/The-Star-Spangled-Banner/The-Star-Spangled-Banner.ly:139:21:22">
<g transform="translate(41.9647, 35.9132)">
<path transform="scale(0.0040, -0.0040)" d="M218 136c66 0 108 -36 108 -89c0 -89 -113 -183 -218 -183c-66 0 -108 36 -108 89c0 89 113 183 218 183z" fill="currentColor"/>
</g>
</a>
<g transform="translate(43.2040, 13.9000)">
<rect x="-0.0650" y="-4.9441" width="0.1300" height="2.5580" ry="0.0400" fill="currentColor"/>
</g>
<g transform="translate(42.0297, 13.9000)">
<rect x="-0.0650" y="3.4861" width="0.1300" height="2.5639" ry="0.0400" fill="currentColor"/>
</g>
<g transform="translate(43.2040, 34.2632)">
<rect x="-0.0650" y="-1.9860" width="0.1300" height="3.4499" ry="0.0400" fill="currentColor"/>
</g>
<a style="color:inherit;" xlink:href="textedit:///Users/marc.mouries/projects/Sheet-Music/Folk_USA/The-Star-Spangled-Banner/The-Star-Spangled-Banner.ly:55:23:24">
<g transform="translate(45.5620, 12.2500)">
<path transform="scale(0.0040, -0.0040)" d="M218 136c66 0 108 -36 108 -89c0 -89 -113 -183 -218 -183c-66 0 -108 36 -108 89c0 89 113 183 218 183z" fill="currentColor"/>
</g>
</a>
<a style="color:inherit;" xlink:href="textedit:///Users/marc.mouries/projects/Sheet-Music/Folk_USA/The-Star-Spangled-Banner/The-Star-Spangled-Banner.ly:139:24:25">
<g transform="translate(45.5620, 35.9132)">
<path transform="scale(0.0040, -0.0040)" d="M218 136c66 0 108 -36 108 -89c0 -89 -113 -183 -218 -183c-66 0 -108 36 -108 89c0 89 113 183 218 183z" fill="currentColor"/>
</g>
</a>
<g transform="translate(46.8012, 13.9000)">
<rect x="-0.0650" y="-4.6199" width="0.1300" height="2.7838" ry="0.0400" fill="currentColor"/>
</g>
<g transform="translate(46.8012, 34.2632)">
<rect x="-0.0650" y="-1.9860" width="0.1300" height="3.4499" ry="0.0400" fill="currentColor"/>
</g>
<g transform="translate(44.1120, 35.9132)">
<path transform="scale(0.0040, -0.0040)" d="M0 119c0 8 5 15 13 18l46 17v158c0 10 8 19 18 19s19 -9 19 -19v-145l83 31v158c0 10 9 19 19 19s18 -9 18 -19v-145l32 12c2 1 5 1 7 1c11 0 20 -9 20 -20v-60c0 -8 -5 -16 -13 -19l-46 -16v-160l32 11c2 1 5 1 7 1c11 0 20 -9 20 -20v-60c0 -8 -5 -15 -13 -18l-46 -17
v-158c0 -10 -8 -19 -18 -19s-19 9 -19 19v145l-83 -31v-158c0 -10 -9 -19 -19 -19s-18 9 -18 19v145l-32 -12c-2 -1 -5 -1 -7 -1c-11 0 -20 9 -20 20v60c0 8 5 16 13 19l46 16v160l-32 -11c-2 -1 -5 -1 -7 -1c-11 0 -20 9 -20 20v60zM179 95l-83 -30v-160l83 30v160z" fill="currentColor"/>
</g>
<a style="color:inherit;" xlink:href="textedit:///Users/marc.mouries/projects/Sheet-Music/Folk_USA/The-Star-Spangled-Banner/The-Star-Spangled-Banner.ly:56:8:9">
<g transform="translate(49.6211, 12.2500)">
<path transform="scale(0.0040, -0.0040)" d="M218 136c66 0 108 -36 108 -89c0 -89 -113 -183 -218 -183c-66 0 -108 36 -108 89c0 89 113 183 218 183z" fill="currentColor"/>
</g>
</a>
<a style="color:inherit;" xlink:href="textedit:///Users/marc.mouries/projects/Sheet-Music/Folk_USA/The-Star-Spangled-Banner/The-Star-Spangled-Banner.ly:98:8:9">
<g transform="translate(49.6211, 18.8500)">
<path transform="scale(0.0040, -0.0040)" d="M218 136c66 0 108 -36 108 -89c0 -89 -113 -183 -218 -183c-66 0 -108 36 -108 89c0 89 113 183 218 183z" fill="currentColor"/>
</g>
</a>
<a style="color:inherit;" xlink:href="textedit:///Users/marc.mouries/projects/Sheet-Music/Folk_USA/The-Star-Spangled-Banner/The-Star-Spangled-Banner.ly:154:17:18">
<g transform="translate(49.6211, 22.9260)">
<text font-family="Optima" font-size="1.7461" text-anchor="start" fill="currentColor">
<tspan>wave</tspan>
</text>
</g>
</a>
<a style="color:inherit;" xlink:href="textedit:///Users/marc.mouries/projects/Sheet-Music/Folk_USA/The-Star-Spangled-Banner/The-Star-Spangled-Banner.ly:164:12:13">
<g transform="translate(49.6211, 25.7260)">
<text font-family="Optima" font-size="1.7461" text-anchor="start" fill="currentColor">
<tspan>wave</tspan>
</text>
</g>
</a>
<a style="color:inherit;" xlink:href="textedit:///Users/marc.mouries/projects/Sheet-Music/Folk_USA/The-Star-Spangled-Banner/The-Star-Spangled-Banner.ly:174:18:19">
<g transform="translate(49.6211, 28.5260)">
<text font-family="Optima" font-size="1.7461" text-anchor="start" fill="currentColor">
<tspan>wave</tspan>
</text>
</g>
</a>
<a style="color:inherit;" xlink:href="textedit:///Users/marc.mouries/projects/Sheet-Music/Folk_USA/The-Star-Spangled-Banner/The-Star-Spangled-Banner.ly:140:8:9">
<g transform="translate(49.6211, 35.3632)">
<path transform="scale(0.0040, -0.0040)" d="M314 65c0 23 -19 41 -42 41c-39 0 -204 -110 -231 -143c-7 -8 -10 -18 -10 -28c0 -23 19 -41 42 -41c39 0 203 110 230 143c7 8 11 18 11 28zM262 136c41 0 82 -14 82 -71c0 -26 -16 -112 -74 -151c-25 -17 -87 -50 -187 -50c-41 0 -83 14 -83 71c0 26 16 112 74 151
c25 17 88 50 188 50z" fill="currentColor"/>
</g>
</a>
<g transform="translate(50.8603, 13.9000)">
<rect x="-0.0650" y="-4.7667" width="0.1300" height="2.9306" ry="0.0400" fill="currentColor"/>
</g>
<g transform="translate(49.6861, 13.9000)">
<rect x="-0.0650" y="5.1361" width="0.1300" height="2.5639" ry="0.0400" fill="currentColor"/>
</g>
<g transform="translate(50.9335, 34.2632)">
<rect x="-0.0650" y="-2.7500" width="0.1300" height="3.5910" ry="0.0400" fill="currentColor"/>
</g>
<a style="color:inherit;" xlink:href="textedit:///Users/marc.mouries/projects/Sheet-Music/Folk_USA/The-Star-Spangled-Banner/The-Star-Spangled-Banner.ly:56:12:13">
<g transform="translate(53.8114, 12.8000)">
<path transform="scale(0.0040, -0.0040)" d="M218 136c66 0 108 -36 108 -89c0 -89 -113 -183 -218 -183c-66 0 -108 36 -108 89c0 89 113 183 218 183z" fill="currentColor"/>
</g>
</a>
<a style="color:inherit;" xlink:href="textedit:///Users/marc.mouries/projects/Sheet-Music/Folk_USA/The-Star-Spangled-Banner/The-Star-Spangled-Banner.ly:98:12:13">
<g transform="translate(53.8114, 19.4000)">
<path transform="scale(0.0040, -0.0040)" d="M218 136c66 0 108 -36 108 -89c0 -89 -113 -183 -218 -183c-66 0 -108 36 -108 89c0 89 113 183 218 183z" fill="currentColor"/>
</g>
</a>
<g transform="translate(55.0506, 13.9000)">
<rect x="-0.0650" y="-4.4000" width="0.1300" height="3.1139" ry="0.0400" fill="currentColor"/>
</g>
<g transform="translate(53.8764, 13.9000)">
<rect x="-0.0650" y="5.6861" width="0.1300" height="2.5639" ry="0.0400" fill="currentColor"/>
</g>
<a style="color:inherit;" xlink:href="textedit:///Users/marc.mouries/projects/Sheet-Music/Folk_USA/The-Star-Spangled-Banner/The-Star-Spangled-Banner.ly:56:16:17">
<g transform="translate(58.0016, 13.9000)">
<path transform="scale(0.0040, -0.0040)" d="M218 136c66 0 108 -36 108 -89c0 -89 -113 -183 -218 -183c-66 0 -108 36 -108 89c0 89 113 183 218 183z" fill="currentColor"/>
</g>
</a>
<a style="color:inherit;" xlink:href="textedit:///Users/marc.mouries/projects/Sheet-Music/Folk_USA/The-Star-Spangled-Banner/The-Star-Spangled-Banner.ly:98:16:17">
<g transform="translate(58.0016, 17.7500)">
<path transform="scale(0.0040, -0.0040)" d="M218 136c66 0 108 -36 108 -89c0 -89 -113 -183 -218 -183c-66 0 -108 36 -108 89c0 89 113 183 218 183z" fill="currentColor"/>
</g>
</a>
<a style="color:inherit;" xlink:href="textedit:///Users/marc.mouries/projects/Sheet-Music/Folk_USA/The-Star-Spangled-Banner/The-Star-Spangled-Banner.ly:154:22:23">
<g transform="translate(56.9466, 22.9260)">
<text font-family="Optima" font-size="1.7461" text-anchor="start" fill="currentColor">
<tspan>O'er</tspan>
</text>
</g>
</a>
<a style="color:inherit;" xlink:href="textedit:///Users/marc.mouries/projects/Sheet-Music/Folk_USA/The-Star-Spangled-Banner/The-Star-Spangled-Banner.ly:164:17:18">
<g transform="translate(56.9466, 25.7260)">
<text font-family="Optima" font-size="1.7461" text-anchor="start" fill="currentColor">
<tspan>O'er</tspan>
</text>
</g>
</a>
<a style="color:inherit;" xlink:href="textedit:///Users/marc.mouries/projects/Sheet-Music/Folk_USA/The-Star-Spangled-Banner/The-Star-Spangled-Banner.ly:174:23:24">
<g transform="translate(56.9466, 28.5260)">
<text font-family="Optima" font-size="1.7461" text-anchor="start" fill="currentColor">
<tspan>O'er</tspan>
</text>
</g>
</a>
<a style="color:inherit;" xlink:href="textedit:///Users/marc.mouries/projects/Sheet-Music/Folk_USA/The-Star-Spangled-Banner/The-Star-Spangled-Banner.ly:140:11:12">
<g transform="translate(58.0016, 35.3632)">
<path transform="scale(0.0040, -0.0040)" d="M218 136c66 0 108 -36 108 -89c0 -89 -113 -183 -218 -183c-66 0 -108 36 -108 89c0 89 113 183 218 183z" fill="currentColor"/>
</g>
</a>
<g transform="translate(59.2408, 13.9000)">
<rect x="-0.0650" y="-3.7125" width="0.1300" height="3.5264" ry="0.0400" fill="currentColor"/>
</g>
<g transform="translate(59.3058, 10.2275)">
<path transform="scale(0.0040, -0.0040)" d="M0 0v-250h-16v250h16zM0 0c0 -197 207 -336 207 -533c0 -71 -15 -141 -41 -207c-5 -8 -13 -12 -20 -12c-13 0 -26 11 -23 27c26 61 42 126 42 192c0 103 -94 208 -165 283v250z" fill="currentColor"/>
</g>
<g transform="translate(58.0666, 13.9000)">
<rect x="-0.0650" y="4.0361" width="0.1300" height="3.1139" ry="0.0400" fill="currentColor"/>
</g>
<g transform="translate(58.1316, 21.0100)">
<path transform="scale(0.0040, -0.0040)" d="M0 0h-16v250h16v-250zM0 0v250c97 59 224 148 224 259c0 57 -15 112 -40 163c-3 16 10 27 23 27c7 0 15 -3 20 -11c25 -56 40 -117 40 -179c0 -203 -267 -306 -267 -509z" fill="currentColor"/>
</g>
<g transform="translate(59.2408, 34.2632)">
<rect x="-0.0650" y="-2.7500" width="0.1300" height="3.6639" ry="0.0400" fill="currentColor"/>
</g>
<g transform="translate(59.3058, 31.5532)">
<path transform="scale(0.0040, -0.0040)" d="M0 0v-250h-16v250h16zM0 0c0 -197 207 -336 207 -533c0 -71 -15 -141 -41 -207c-5 -8 -13 -12 -20 -12c-13 0 -26 11 -23 27c26 61 42 126 42 192c0 103 -94 208 -165 283v250z" fill="currentColor"/>
</g>
<a style="color:inherit;" xlink:href="textedit:///Users/marc.mouries/projects/Sheet-Music/Folk_USA/The-Star-Spangled-Banner/The-Star-Spangled-Banner.ly:56:19:20">
<g transform="translate(61.3197, 13.9000)">
<path transform="scale(0.0040, -0.0040)" d="M218 136c66 0 108 -36 108 -89c0 -89 -113 -183 -218 -183c-66 0 -108 36 -108 89c0 89 113 183 218 183z" fill="currentColor"/>
</g>
</a>
<a style="color:inherit;" xlink:href="textedit:///Users/marc.mouries/projects/Sheet-Music/Folk_USA/The-Star-Spangled-Banner/The-Star-Spangled-Banner.ly:98:19:20">
<g transform="translate(61.3197, 17.7500)">
<path transform="scale(0.0040, -0.0040)" d="M218 136c66 0 108 -36 108 -89c0 -89 -113 -183 -218 -183c-66 0 -108 36 -108 89c0 89 113 183 218 183z" fill="currentColor"/>
</g>
</a>
<a style="color:inherit;" xlink:href="textedit:///Users/marc.mouries/projects/Sheet-Music/Folk_USA/The-Star-Spangled-Banner/The-Star-Spangled-Banner.ly:154:27:28">
<g transform="translate(60.8109, 22.9260)">
<text font-family="Optima" font-size="1.7461" text-anchor="start" fill="currentColor">
<tspan>the</tspan>
</text>
</g>
</a>
<a style="color:inherit;" xlink:href="textedit:///Users/marc.mouries/projects/Sheet-Music/Folk_USA/The-Star-Spangled-Banner/The-Star-Spangled-Banner.ly:164:22:23">
<g transform="translate(60.8109, 25.7260)">
<text font-family="Optima" font-size="1.7461" text-anchor="start" fill="currentColor">
<tspan>the</tspan>
</text>
</g>
</a>
<a style="color:inherit;" xlink:href="textedit:///Users/marc.mouries/projects/Sheet-Music/Folk_USA/The-Star-Spangled-Banner/The-Star-Spangled-Banner.ly:174:28:29">
<g transform="translate(60.8109, 28.5260)">
<text font-family="Optima" font-size="1.7461" text-anchor="start" fill="currentColor">
<tspan>the</tspan>
</text>
</g>
</a>
<a style="color:inherit;" xlink:href="textedit:///Users/marc.mouries/projects/Sheet-Music/Folk_USA/The-Star-Spangled-Banner/The-Star-Spangled-Banner.ly:140:14:15">
<g transform="translate(61.3197, 35.9132)">
<path transform="scale(0.0040, -0.0040)" d="M218 136c66 0 108 -36 108 -89c0 -89 -113 -183 -218 -183c-66 0 -108 36 -108 89c0 89 113 183 218 183z" fill="currentColor"/>
</g>
</a>
<g transform="translate(62.5589, 13.9000)">
<rect x="-0.0650" y="-3.7125" width="0.1300" height="3.5264" ry="0.0400" fill="currentColor"/>
</g>
<g transform="translate(62.6239, 10.2275)">
<path transform="scale(0.0040, -0.0040)" d="M0 0v-250h-16v250h16zM0 0c0 -197 207 -336 207 -533c0 -71 -15 -141 -41 -207c-5 -8 -13 -12 -20 -12c-13 0 -26 11 -23 27c26 61 42 126 42 192c0 103 -94 208 -165 283v250z" fill="currentColor"/>
</g>
<g transform="translate(61.3847, 13.9000)">
<rect x="-0.0650" y="4.0361" width="0.1300" height="3.1139" ry="0.0400" fill="currentColor"/>
</g>
<g transform="translate(61.4497, 21.0100)">
<path transform="scale(0.0040, -0.0040)" d="M0 0h-16v250h16v-250zM0 0v250c97 59 224 148 224 259c0 57 -15 112 -40 163c-3 16 10 27 23 27c7 0 15 -3 20 -11c25 -56 40 -117 40 -179c0 -203 -267 -306 -267 -509z" fill="currentColor"/>
</g>
<g transform="translate(62.5589, 34.2632)">
<rect x="-0.0650" y="-2.2000" width="0.1300" height="3.6639" ry="0.0400" fill="currentColor"/>
</g>
<g transform="translate(62.6239, 32.1032)">
<path transform="scale(0.0040, -0.0040)" d="M0 0v-250h-16v250h16zM0 0c0 -197 207 -336 207 -533c0 -71 -15 -141 -41 -207c-5 -8 -13 -12 -20 -12c-13 0 -26 11 -23 27c26 61 42 126 42 192c0 103 -94 208 -165 283v250z" fill="currentColor"/>
</g>
<a style="color:inherit;" xlink:href="textedit:///Users/marc.mouries/projects/Sheet-Music/Folk_USA/The-Star-Spangled-Banner/The-Star-Spangled-Banner.ly:57:8:9">
<g transform="translate(65.3113, 12.2500)">
<path transform="scale(0.0040, -0.0040)" d="M218 136c66 0 108 -36 108 -89c0 -89 -113 -183 -218 -183c-66 0 -108 36 -108 89c0 89 113 183 218 183z" fill="currentColor"/>
</g>
</a>
<a style="color:inherit;" xlink:href="textedit:///Users/marc.mouries/projects/Sheet-Music/Folk_USA/The-Star-Spangled-Banner/The-Star-Spangled-Banner.ly:99:8:9">
<g transform="translate(65.3113, 17.7500)">
<path transform="scale(0.0040, -0.0040)" d="M218 136c66 0 108 -36 108 -89c0 -89 -113 -183 -218 -183c-66 0 -108 36 -108 89c0 89 113 183 218 183z" fill="currentColor"/>
</g>
</a>
<a style="color:inherit;" xlink:href="textedit:///Users/marc.mouries/projects/Sheet-Music/Folk_USA/The-Star-Spangled-Banner/The-Star-Spangled-Banner.ly:154:31:32">
<g transform="translate(64.3245, 22.9260)">
<text font-family="Optima" font-size="1.7461" text-anchor="start" fill="currentColor">
<tspan>land</tspan>
</text>
</g>
</a>
<a style="color:inherit;" xlink:href="textedit:///Users/marc.mouries/projects/Sheet-Music/Folk_USA/The-Star-Spangled-Banner/The-Star-Spangled-Banner.ly:164:26:27">
<g transform="translate(64.3245, 25.7260)">
<text font-family="Optima" font-size="1.7461" text-anchor="start" fill="currentColor">
<tspan>land</tspan>
</text>
</g>
</a>
<a style="color:inherit;" xlink:href="textedit:///Users/marc.mouries/projects/Sheet-Music/Folk_USA/The-Star-Spangled-Banner/The-Star-Spangled-Banner.ly:174:32:33">
<g transform="translate(64.3245, 28.5260)">
<text font-family="Optima" font-size="1.7461" text-anchor="start" fill="currentColor">
<tspan>land</tspan>
</text>
</g>
</a>
<a style="color:inherit;" xlink:href="textedit:///Users/marc.mouries/projects/Sheet-Music/Folk_USA/The-Star-Spangled-Banner/The-Star-Spangled-Banner.ly:141:8:9">
<g transform="translate(65.3113, 36.4632)">
<path transform="scale(0.0040, -0.0040)" d="M218 136c66 0 108 -36 108 -89c0 -89 -113 -183 -218 -183c-66 0 -108 36 -108 89c0 89 113 183 218 183z" fill="currentColor"/>
</g>
</a>
<g transform="translate(67.0655, 12.2500)">
<path transform="scale(0.0040, -0.0040)" d="M0 0c0 31 25 56 56 56s56 -25 56 -56s-25 -56 -56 -56s-56 25 -56 56z" fill="currentColor"/>
</g>
<g transform="translate(66.5505, 13.9000)">
<rect x="-0.0650" y="-4.7667" width="0.1300" height="2.9306" ry="0.0400" fill="currentColor"/>
</g>
<g transform="translate(67.0655, 17.7500)">
<path transform="scale(0.0040, -0.0040)" d="M0 0c0 31 25 56 56 56s56 -25 56 -56s-25 -56 -56 -56s-56 25 -56 56z" fill="currentColor"/>
</g>
<g transform="translate(65.3763, 13.9000)">
<rect x="-0.0650" y="4.0361" width="0.1300" height="2.5639" ry="0.0400" fill="currentColor"/>
</g>
<g transform="translate(67.0655, 35.9132)">
<path transform="scale(0.0040, -0.0040)" d="M0 0c0 31 25 56 56 56s56 -25 56 -56s-25 -56 -56 -56s-56 25 -56 56z" fill="currentColor"/>
</g>
<g transform="translate(66.5505, 34.2632)">
<rect x="-0.0650" y="-1.6500" width="0.1300" height="3.6639" ry="0.0400" fill="currentColor"/>
</g>
<a style="color:inherit;" xlink:href="textedit:///Users/marc.mouries/projects/Sheet-Music/Folk_USA/The-Star-Spangled-Banner/The-Star-Spangled-Banner.ly:57:12:13">
<g transform="translate(70.5123, 11.7000)">
<path transform="scale(0.0040, -0.0040)" d="M218 136c66 0 108 -36 108 -89c0 -89 -113 -183 -218 -183c-66 0 -108 36 -108 89c0 89 113 183 218 183z" fill="currentColor"/>
</g>
</a>
<a style="color:inherit;" xlink:href="textedit:///Users/marc.mouries/projects/Sheet-Music/Folk_USA/The-Star-Spangled-Banner/The-Star-Spangled-Banner.ly:99:12:13">
<g transform="translate(70.5123, 16.6500)">
<path transform="scale(0.0040, -0.0040)" d="M218 136c66 0 108 -36 108 -89c0 -89 -113 -183 -218 -183c-66 0 -108 36 -108 89c0 89 113 183 218 183z" fill="currentColor"/>
</g>
</a>
<a style="color:inherit;" xlink:href="textedit:///Users/marc.mouries/projects/Sheet-Music/Folk_USA/The-Star-Spangled-Banner/The-Star-Spangled-Banner.ly:154:36:37">
<g transform="translate(70.4474, 22.9260)">
<text font-family="Optima" font-size="1.7461" text-anchor="start" fill="currentColor">
<tspan>of</tspan>
</text>
</g>
</a>
<a style="color:inherit;" xlink:href="textedit:///Users/marc.mouries/projects/Sheet-Music/Folk_USA/The-Star-Spangled-Banner/The-Star-Spangled-Banner.ly:164:31:32">
<g transform="translate(70.4474, 25.7260)">
<text font-family="Optima" font-size="1.7461" text-anchor="start" fill="currentColor">
<tspan>of</tspan>
</text>
</g>
</a>
<a style="color:inherit;" xlink:href="textedit:///Users/marc.mouries/projects/Sheet-Music/Folk_USA/The-Star-Spangled-Banner/The-Star-Spangled-Banner.ly:174:37:38">
<g transform="translate(70.4474, 28.5260)">
<text font-family="Optima" font-size="1.7461" text-anchor="start" fill="currentColor">
<tspan>of</tspan>
</text>
</g>
</a>
<a style="color:inherit;" xlink:href="textedit:///Users/marc.mouries/projects/Sheet-Music/Folk_USA/The-Star-Spangled-Banner/The-Star-Spangled-Banner.ly:141:13:14">
<g transform="translate(70.5123, 35.3632)">
<path transform="scale(0.0040, -0.0040)" d="M218 136c66 0 108 -36 108 -89c0 -89 -113 -183 -218 -183c-66 0 -108 36 -108 89c0 89 113 183 218 183z" fill="currentColor"/>
</g>
</a>
<g transform="translate(71.7515, 13.9000)">
<rect x="-0.0650" y="-5.5000" width="0.1300" height="3.1139" ry="0.0400" fill="currentColor"/>
</g>
<g transform="translate(71.8165, 8.4400)">
<path transform="scale(0.0040, -0.0040)" d="M0 0v-250h-16v250h16zM0 0c0 -197 207 -336 207 -533c0 -71 -15 -141 -41 -207c-5 -8 -13 -12 -20 -12c-13 0 -26 11 -23 27c26 61 42 126 42 192c0 103 -94 208 -165 283v250z" fill="currentColor"/>
</g>
<g transform="translate(70.5773, 13.9000)">
<rect x="-0.0650" y="2.9361" width="0.1300" height="3.1139" ry="0.0400" fill="currentColor"/>
</g>
<g transform="translate(70.6423, 19.9100)">
<path transform="scale(0.0040, -0.0040)" d="M0 0h-16v250h16v-250zM0 0v250c97 59 224 148 224 259c0 57 -15 112 -40 163c-3 16 10 27 23 27c7 0 15 -3 20 -11c25 -56 40 -117 40 -179c0 -203 -267 -306 -267 -509z" fill="currentColor"/>
</g>
<g transform="translate(71.7515, 34.2632)">
<rect x="-0.0650" y="-2.7500" width="0.1300" height="3.6639" ry="0.0400" fill="currentColor"/>
</g>
<g transform="translate(71.8165, 31.5532)">
<path transform="scale(0.0040, -0.0040)" d="M0 0v-250h-16v250h16zM0 0c0 -197 207 -336 207 -533c0 -71 -15 -141 -41 -207c-5 -8 -13 -12 -20 -12c-13 0 -26 11 -23 27c26 61 42 126 42 192c0 103 -94 208 -165 283v250z" fill="currentColor"/>
</g>
<a style="color:inherit;" xlink:href="textedit:///Users/marc.mouries/projects/Sheet-Music/Folk_USA/The-Star-Spangled-Banner/The-Star-Spangled-Banner.ly:57:16:17">
<g transform="translate(73.3228, 11.1500)">
<path transform="scale(0.0040, -0.0040)" d="M218 136c66 0 108 -36 108 -89c0 -89 -113 -183 -218 -183c-66 0 -108 36 -108 89c0 89 113 183 218 183z" fill="currentColor"/>
</g>
</a>
<a style="color:inherit;" xlink:href="textedit:///Users/marc.mouries/projects/Sheet-Music/Folk_USA/The-Star-Spangled-Banner/The-Star-Spangled-Banner.ly:99:16:17">
<g transform="translate(73.3228, 16.1000)">
<path transform="scale(0.0040, -0.0040)" d="M218 136c66 0 108 -36 108 -89c0 -89 -113 -183 -218 -183c-66 0 -108 36 -108 89c0 89 113 183 218 183z" fill="currentColor"/>
</g>
</a>
<a style="color:inherit;" xlink:href="textedit:///Users/marc.mouries/projects/Sheet-Music/Folk_USA/The-Star-Spangled-Banner/The-Star-Spangled-Banner.ly:154:39:40">
<g transform="translate(73.3228, 22.9260)">
<text font-family="Optima" font-size="1.7461" text-anchor="start" fill="currentColor">
<tspan>the</tspan>
</text>
</g>
</a>
<a style="color:inherit;" xlink:href="textedit:///Users/marc.mouries/projects/Sheet-Music/Folk_USA/The-Star-Spangled-Banner/The-Star-Spangled-Banner.ly:164:34:35">
<g transform="translate(73.3228, 25.7260)">
<text font-family="Optima" font-size="1.7461" text-anchor="start" fill="currentColor">
<tspan>the</tspan>
</text>
</g>
</a>
<a style="color:inherit;" xlink:href="textedit:///Users/marc.mouries/projects/Sheet-Music/Folk_USA/The-Star-Spangled-Banner/The-Star-Spangled-Banner.ly:174:40:41">
<g transform="translate(73.3228, 28.5260)">
<text font-family="Optima" font-size="1.7461" text-anchor="start" fill="currentColor">
<tspan>the</tspan>
</text>
</g>
</a>
<a style="color:inherit;" xlink:href="textedit:///Users/marc.mouries/projects/Sheet-Music/Folk_USA/The-Star-Spangled-Banner/The-Star-Spangled-Banner.ly:141:16:17">
<g transform="translate(73.3228, 33.7132)">
<path transform="scale(0.0040, -0.0040)" d="M218 136c66 0 108 -36 108 -89c0 -89 -113 -183 -218 -183c-66 0 -108 36 -108 89c0 89 113 183 218 183z" fill="currentColor"/>
</g>
</a>
<g transform="translate(74.5620, 13.9000)">
<rect x="-0.0650" y="-5.7216" width="0.1300" height="2.7855" ry="0.0400" fill="currentColor"/>
</g>
<g transform="translate(73.3878, 13.9000)">
<rect x="-0.0650" y="2.3861" width="0.1300" height="2.5563" ry="0.0400" fill="currentColor"/>
</g>
<g transform="translate(73.3878, 34.2632)">
<rect x="-0.0650" y="-0.3639" width="0.1300" height="3.6639" ry="0.0400" fill="currentColor"/>
</g>
<a style="color:inherit;" xlink:href="textedit:///Users/marc.mouries/projects/Sheet-Music/Folk_USA/The-Star-Spangled-Banner/The-Star-Spangled-Banner.ly:57:20:21">
<g transform="translate(76.0700, 10.6000)">
<path transform="scale(0.0040, -0.0040)" d="M218 136c66 0 108 -36 108 -89c0 -89 -113 -183 -218 -183c-66 0 -108 36 -108 89c0 89 113 183 218 183z" fill="currentColor"/>
</g>
</a>
<a style="color:inherit;" xlink:href="textedit:///Users/marc.mouries/projects/Sheet-Music/Folk_USA/The-Star-Spangled-Banner/The-Star-Spangled-Banner.ly:99:19:20">
<g transform="translate(76.0700, 15.5500)">
<path transform="scale(0.0040, -0.0040)" d="M218 136c66 0 108 -36 108 -89c0 -89 -113 -183 -218 -183c-66 0 -108 36 -108 89c0 89 113 183 218 183z" fill="currentColor"/>
</g>
</a>
<g transform="translate(77.3092, 13.9000)">
<rect x="-0.0650" y="-6.0424" width="0.1300" height="2.5563" ry="0.0400" fill="currentColor"/>
</g>
<g transform="translate(76.1350, 13.9000)">
<rect x="-0.0650" y="1.8361" width="0.1300" height="2.7855" ry="0.0400" fill="currentColor"/>
</g>
<a style="color:inherit;" xlink:href="textedit:///Users/marc.mouries/projects/Sheet-Music/Folk_USA/The-Star-Spangled-Banner/The-Star-Spangled-Banner.ly:99:17:18">
<g transform="translate(73.3228, 18.8500)">
<polygon stroke-linejoin="round" stroke-linecap="round" stroke-width="0.0800" fill="currentColor" stroke="currentColor" points="2.8372 -0.5600 2.8372 -0.1120 0.0400 0.2240 0.0400 -0.2240"/>
</g>
</a>
<a style="color:inherit;" xlink:href="textedit:///Users/marc.mouries/projects/Sheet-Music/Folk_USA/The-Star-Spangled-Banner/The-Star-Spangled-Banner.ly:57:18:19">
<g transform="translate(74.4970, 8.1860)">
<polygon stroke-linejoin="round" stroke-linecap="round" stroke-width="0.0800" fill="currentColor" stroke="currentColor" points="2.8372 -0.5600 2.8372 -0.1120 0.0400 0.2240 0.0400 -0.2240"/>
</g>
</a>
<a style="color:inherit;" xlink:href="textedit:///Users/marc.mouries/projects/Sheet-Music/Folk_USA/The-Star-Spangled-Banner/The-Star-Spangled-Banner.ly:58:8:9">
<g transform="translate(80.2229, 10.0500)">
<path transform="scale(0.0040, -0.0040)" d="M314 65c0 23 -19 41 -42 41c-39 0 -204 -110 -231 -143c-7 -8 -10 -18 -10 -28c0 -23 19 -41 42 -41c39 0 203 110 230 143c7 8 11 18 11 28zM262 136c41 0 82 -14 82 -71c0 -26 -16 -112 -74 -151c-25 -17 -87 -50 -187 -50c-41 0 -83 14 -83 71c0 26 16 112 74 151
c25 17 88 50 188 50z" fill="currentColor"/>
</g>
</a>
<a style="color:inherit;" xlink:href="textedit:///Users/marc.mouries/projects/Sheet-Music/Folk_USA/The-Star-Spangled-Banner/The-Star-Spangled-Banner.ly:58:10:11">
<g transform="translate(80.9115, 6.7840)">
<path transform="scale(0.0040, -0.0040)" d="M-67 48c0 37 30 67 67 67s67 -30 67 -67s-30 -67 -67 -67s-67 30 -67 67zM0 363c255 0 332 -331 332 -366c0 -9 -10 -15 -19 -15s-17 5 -19 18c-26 148 -146 262 -294 262s-268 -114 -294 -262c-2 -13 -10 -18 -19 -18s-19 6 -19 15c0 35 77 366 332 366z" fill="currentColor"/>
</g>
</a>
<a style="color:inherit;" xlink:href="textedit:///Users/marc.mouries/projects/Sheet-Music/Folk_USA/The-Star-Spangled-Banner/The-Star-Spangled-Banner.ly:100:8:9">
<g transform="translate(80.2229, 15.0000)">
<path transform="scale(0.0040, -0.0040)" d="M314 65c0 23 -19 41 -42 41c-39 0 -204 -110 -231 -143c-7 -8 -10 -18 -10 -28c0 -23 19 -41 42 -41c39 0 203 110 230 143c7 8 11 18 11 28zM262 136c41 0 82 -14 82 -71c0 -26 -16 -112 -74 -151c-25 -17 -87 -50 -187 -50c-41 0 -83 14 -83 71c0 26 16 112 74 151
c25 17 88 50 188 50z" fill="currentColor"/>
</g>
</a>
<g transform="translate(5.6306, 24.0816)">
<rect x="0.0000" y="-12.4316" width="0.1600" height="24.8631" ry="0.0500" fill="currentColor"/>
</g>
<a style="color:inherit;" xlink:href="textedit:///Users/marc.mouries/projects/Sheet-Music/Folk_USA/The-Star-Spangled-Banner/The-Star-Spangled-Banner.ly:154:43:44">
<g transform="translate(79.2556, 22.9260)">
<text font-family="Optima" font-size="1.7461" text-anchor="start" fill="currentColor">
<tspan>free,</tspan>
</text>
</g>
</a>
<a style="color:inherit;" xlink:href="textedit:///Users/marc.mouries/projects/Sheet-Music/Folk_USA/The-Star-Spangled-Banner/The-Star-Spangled-Banner.ly:164:38:39">
<g transform="translate(79.2556, 25.7260)">
<text font-family="Optima" font-size="1.7461" text-anchor="start" fill="currentColor">
<tspan>free,</tspan>
</text>
</g>
</a>
<a style="color:inherit;" xlink:href="textedit:///Users/marc.mouries/projects/Sheet-Music/Folk_USA/The-Star-Spangled-Banner/The-Star-Spangled-Banner.ly:174:44:45">
<g transform="translate(79.2556, 28.5260)">
<text font-family="Optima" font-size="1.7461" text-anchor="start" fill="currentColor">
<tspan>free,</tspan>
</text>
</g>
</a>
<a style="color:inherit;" xlink:href="textedit:///Users/marc.mouries/projects/Sheet-Music/Folk_USA/The-Star-Spangled-Banner/The-Star-Spangled-Banner.ly:142:8:9">
<g transform="translate(80.2229, 33.7132)">
<path transform="scale(0.0040, -0.0040)" d="M314 65c0 23 -19 41 -42 41c-39 0 -204 -110 -231 -143c-7 -8 -10 -18 -10 -28c0 -23 19 -41 42 -41c39 0 203 110 230 143c7 8 11 18 11 28zM262 136c41 0 82 -14 82 -71c0 -26 -16 -112 -74 -151c-25 -17 -87 -50 -187 -50c-41 0 -83 14 -83 71c0 26 16 112 74 151
c25 17 88 50 188 50z" fill="currentColor"/>
</g>
</a>
<a style="color:inherit;" xlink:href="textedit:///Users/marc.mouries/projects/Sheet-Music/Folk_USA/The-Star-Spangled-Banner/The-Star-Spangled-Banner.ly:142:10:11">
<g transform="translate(80.9115, 31.4972)">
<path transform="scale(0.0040, -0.0040)" d="M-67 48c0 37 30 67 67 67s67 -30 67 -67s-30 -67 -67 -67s-67 30 -67 67zM0 363c255 0 332 -331 332 -366c0 -9 -10 -15 -19 -15s-17 5 -19 18c-26 148 -146 262 -294 262s-268 -114 -294 -262c-2 -13 -10 -18 -19 -18s-19 6 -19 15c0 35 77 366 332 366z" fill="currentColor"/>
</g>
</a>
<g transform="translate(4.3806, 11.4250)">
<path transform="scale(0.0040, -0.0040)" d="M0 -56v87c0 14 11 25 25 25h50c159 0 271 136 362 270c12 17 38 -1 26 -18c-99 -144 -215 -364 -388 -364h-75z" fill="currentColor"/>
</g>
<g transform="translate(4.3806, 36.7382)">
<path transform="scale(0.0040, -0.0040)" d="M0 56h75c173 0 289 -220 388 -364c12 -17 -14 -35 -26 -18c-91 134 -203 270 -362 270h-50c-14 0 -25 11 -25 25v87z" fill="currentColor"/>
</g>
<g transform="translate(4.3806, 24.0816)">
<rect x="0.0000" y="-12.4766" width="0.4500" height="24.9531" ry="0.0000" fill="currentColor"/>
</g>
<g transform="translate(81.5352, 13.9000)">
<rect x="-0.0650" y="-6.6000" width="0.1300" height="2.4910" ry="0.0400" fill="currentColor"/>
</g>
<g transform="translate(80.2879, 13.9000)">
<rect x="-0.0650" y="1.3590" width="0.1300" height="3.0410" ry="0.0400" fill="currentColor"/>
</g>
<g transform="translate(80.2879, 34.2632)">
<rect x="-0.0650" y="-0.2910" width="0.1300" height="3.5910" ry="0.0400" fill="currentColor"/>
</g>
<a style="color:inherit;" xlink:href="textedit:///Users/marc.mouries/projects/Sheet-Music/Folk_USA/The-Star-Spangled-Banner/The-Star-Spangled-Banner.ly:58:19:20">
<g transform="translate(85.6628, 12.2500)">
<path transform="scale(0.0040, -0.0040)" d="M218 136c66 0 108 -36 108 -89c0 -89 -113 -183 -218 -183c-66 0 -108 36 -108 89c0 89 113 183 218 183z" fill="currentColor"/>
</g>
</a>
<a style="color:inherit;" xlink:href="textedit:///Users/marc.mouries/projects/Sheet-Music/Folk_USA/The-Star-Spangled-Banner/The-Star-Spangled-Banner.ly:100:12:13">
<g transform="translate(85.6628, 17.7500)">
<path transform="scale(0.0040, -0.0040)" d="M218 136c66 0 108 -36 108 -89c0 -89 -113 -183 -218 -183c-66 0 -108 36 -108 89c0 89 113 183 218 183z" fill="currentColor"/>
</g>
</a>
<a style="color:inherit;" xlink:href="textedit:///Users/marc.mouries/projects/Sheet-Music/Folk_USA/The-Star-Spangled-Banner/The-Star-Spangled-Banner.ly:154:49:50">
<g transform="translate(84.9151, 22.9260)">
<text font-family="Optima" font-size="1.7461" text-anchor="start" fill="currentColor">
<tspan>and</tspan>
</text>
</g>
</a>
<a style="color:inherit;" xlink:href="textedit:///Users/marc.mouries/projects/Sheet-Music/Folk_USA/The-Star-Spangled-Banner/The-Star-Spangled-Banner.ly:164:44:45">
<g transform="translate(84.9151, 25.7260)">
<text font-family="Optima" font-size="1.7461" text-anchor="start" fill="currentColor">
<tspan>and</tspan>
</text>
</g>
</a>
<a style="color:inherit;" xlink:href="textedit:///Users/marc.mouries/projects/Sheet-Music/Folk_USA/The-Star-Spangled-Banner/The-Star-Spangled-Banner.ly:174:50:51">
<g transform="translate(84.9151, 28.5260)">
<text font-family="Optima" font-size="1.7461" text-anchor="start" fill="currentColor">
<tspan>and</tspan>
</text>
</g>
</a>
<a style="color:inherit;" xlink:href="textedit:///Users/marc.mouries/projects/Sheet-Music/Folk_USA/The-Star-Spangled-Banner/The-Star-Spangled-Banner.ly:142:19:20">
<g transform="translate(85.6628, 36.4632)">
<path transform="scale(0.0040, -0.0040)" d="M218 136c66 0 108 -36 108 -89c0 -89 -113 -183 -218 -183c-66 0 -108 36 -108 89c0 89 113 183 218 183z" fill="currentColor"/>
</g>
</a>
<g transform="translate(86.9020, 13.9000)">
<rect x="-0.0650" y="-4.9500" width="0.1300" height="3.1139" ry="0.0400" fill="currentColor"/>
</g>
<g transform="translate(86.9670, 8.9900)">
<path transform="scale(0.0040, -0.0040)" d="M0 0v-250h-16v250h16zM0 0c0 -197 207 -336 207 -533c0 -71 -15 -141 -41 -207c-5 -8 -13 -12 -20 -12c-13 0 -26 11 -23 27c26 61 42 126 42 192c0 103 -94 208 -165 283v250z" fill="currentColor"/>
</g>
<g transform="translate(85.7278, 13.9000)">
<rect x="-0.0650" y="4.0361" width="0.1300" height="3.1139" ry="0.0400" fill="currentColor"/>
</g>
<g transform="translate(85.7928, 21.0100)">
<path transform="scale(0.0040, -0.0040)" d="M0 0h-16v250h16v-250zM0 0v250c97 59 224 148 224 259c0 57 -15 112 -40 163c-3 16 10 27 23 27c7 0 15 -3 20 -11c25 -56 40 -117 40 -179c0 -203 -267 -306 -267 -509z" fill="currentColor"/>
</g>
<g transform="translate(86.9020, 34.2632)">
<rect x="-0.0650" y="-1.6500" width="0.1300" height="3.6639" ry="0.0400" fill="currentColor"/>
</g>
<g transform="translate(86.9670, 32.6532)">
<path transform="scale(0.0040, -0.0040)" d="M0 0v-250h-16v250h16zM0 0c0 -197 207 -336 207 -533c0 -71 -15 -141 -41 -207c-5 -8 -13 -12 -20 -12c-13 0 -26 11 -23 27c26 61 42 126 42 192c0 103 -94 208 -165 283v250z" fill="currentColor"/>
</g>
<a style="color:inherit;" xlink:href="textedit:///Users/marc.mouries/projects/Sheet-Music/Folk_USA/The-Star-Spangled-Banner/The-Star-Spangled-Banner.ly:58:23:24">
<g transform="translate(88.6736, 11.7000)">
<path transform="scale(0.0040, -0.0040)" d="M218 136c66 0 108 -36 108 -89c0 -89 -113 -183 -218 -183c-66 0 -108 36 -108 89c0 89 113 183 218 183z" fill="currentColor"/>
</g>
</a>
<a style="color:inherit;" xlink:href="textedit:///Users/marc.mouries/projects/Sheet-Music/Folk_USA/The-Star-Spangled-Banner/The-Star-Spangled-Banner.ly:100:16:17">
<g transform="translate(88.6736, 17.2000)">
<path transform="scale(0.0040, -0.0040)" d="M218 136c66 0 108 -36 108 -89c0 -89 -113 -183 -218 -183c-66 0 -108 36 -108 89c0 89 113 183 218 183z" fill="currentColor"/>
</g>
</a>
<a style="color:inherit;" xlink:href="textedit:///Users/marc.mouries/projects/Sheet-Music/Folk_USA/The-Star-Spangled-Banner/The-Star-Spangled-Banner.ly:154:53:54">
<g transform="translate(88.1648, 22.9260)">
<text font-family="Optima" font-size="1.7461" text-anchor="start" fill="currentColor">
<tspan>the</tspan>
</text>
</g>
</a>
<a style="color:inherit;" xlink:href="textedit:///Users/marc.mouries/projects/Sheet-Music/Folk_USA/The-Star-Spangled-Banner/The-Star-Spangled-Banner.ly:164:48:49">
<g transform="translate(88.1648, 25.7260)">
<text font-family="Optima" font-size="1.7461" text-anchor="start" fill="currentColor">
<tspan>the</tspan>
</text>
</g>
</a>
<a style="color:inherit;" xlink:href="textedit:///Users/marc.mouries/projects/Sheet-Music/Folk_USA/The-Star-Spangled-Banner/The-Star-Spangled-Banner.ly:174:54:55">
<g transform="translate(88.1648, 28.5260)">
<text font-family="Optima" font-size="1.7461" text-anchor="start" fill="currentColor">
<tspan>the</tspan>
</text>
</g>
</a>
<a style="color:inherit;" xlink:href="textedit:///Users/marc.mouries/projects/Sheet-Music/Folk_USA/The-Star-Spangled-Banner/The-Star-Spangled-Banner.ly:142:24:25">
<g transform="translate(88.6736, 35.9132)">
<path transform="scale(0.0040, -0.0040)" d="M218 136c66 0 108 -36 108 -89c0 -89 -113 -183 -218 -183c-66 0 -108 36 -108 89c0 89 113 183 218 183z" fill="currentColor"/>
</g>
</a>
<g transform="translate(89.9128, 13.9000)">
<rect x="-0.0650" y="-5.5000" width="0.1300" height="3.1139" ry="0.0400" fill="currentColor"/>
</g>
<g transform="translate(89.9778, 8.4400)">
<path transform="scale(0.0040, -0.0040)" d="M0 0v-250h-16v250h16zM0 0c0 -197 207 -336 207 -533c0 -71 -15 -141 -41 -207c-5 -8 -13 -12 -20 -12c-13 0 -26 11 -23 27c26 61 42 126 42 192c0 103 -94 208 -165 283v250z" fill="currentColor"/>
</g>
<g transform="translate(88.7386, 13.9000)">
<rect x="-0.0650" y="3.4861" width="0.1300" height="3.1139" ry="0.0400" fill="currentColor"/>
</g>
<g transform="translate(88.8036, 20.4600)">
<path transform="scale(0.0040, -0.0040)" d="M0 0h-16v250h16v-250zM0 0v250c97 59 224 148 224 259c0 57 -15 112 -40 163c-3 16 10 27 23 27c7 0 15 -3 20 -11c25 -56 40 -117 40 -179c0 -203 -267 -306 -267 -509z" fill="currentColor"/>
</g>
<g transform="translate(89.9128, 34.2632)">
<rect x="-0.0650" y="-2.2000" width="0.1300" height="3.6639" ry="0.0400" fill="currentColor"/>
</g>
<g transform="translate(89.9778, 32.1032)">
<path transform="scale(0.0040, -0.0040)" d="M0 0v-250h-16v250h16zM0 0c0 -197 207 -336 207 -533c0 -71 -15 -141 -41 -207c-5 -8 -13 -12 -20 -12c-13 0 -26 11 -23 27c26 61 42 126 42 192c0 103 -94 208 -165 283v250z" fill="currentColor"/>
</g>
<a style="color:inherit;" xlink:href="textedit:///Users/marc.mouries/projects/Sheet-Music/Folk_USA/The-Star-Spangled-Banner/The-Star-Spangled-Banner.ly:59:8:9">
<g transform="translate(92.6652, 11.1500)">
<path transform="scale(0.0040, -0.0040)" d="M218 136c66 0 108 -36 108 -89c0 -89 -113 -183 -218 -183c-66 0 -108 36 -108 89c0 89 113 183 218 183z" fill="currentColor"/>
</g>
</a>
<a style="color:inherit;" xlink:href="textedit:///Users/marc.mouries/projects/Sheet-Music/Folk_USA/The-Star-Spangled-Banner/The-Star-Spangled-Banner.ly:101:8:9">
<g transform="translate(92.6652, 17.7500)">
<path transform="scale(0.0040, -0.0040)" d="M218 136c66 0 108 -36 108 -89c0 -89 -113 -183 -218 -183c-66 0 -108 36 -108 89c0 89 113 183 218 183z" fill="currentColor"/>
</g>
</a>
<a style="color:inherit;" xlink:href="textedit:///Users/marc.mouries/projects/Sheet-Music/Folk_USA/The-Star-Spangled-Banner/The-Star-Spangled-Banner.ly:154:57:58">
<g transform="translate(91.1833, 22.9260)">
<text font-family="Optima" font-size="1.7461" text-anchor="start" fill="currentColor">
<tspan>home</tspan>
</text>
</g>
</a>
<a style="color:inherit;" xlink:href="textedit:///Users/marc.mouries/projects/Sheet-Music/Folk_USA/The-Star-Spangled-Banner/The-Star-Spangled-Banner.ly:164:52:53">
<g transform="translate(91.1833, 25.7260)">
<text font-family="Optima" font-size="1.7461" text-anchor="start" fill="currentColor">
<tspan>home</tspan>
</text>
</g>
</a>
<a style="color:inherit;" xlink:href="textedit:///Users/marc.mouries/projects/Sheet-Music/Folk_USA/The-Star-Spangled-Banner/The-Star-Spangled-Banner.ly:174:58:59">
<g transform="translate(91.1833, 28.5260)">
<text font-family="Optima" font-size="1.7461" text-anchor="start" fill="currentColor">
<tspan>home</tspan>
</text>
</g>
</a>
<a style="color:inherit;" xlink:href="textedit:///Users/marc.mouries/projects/Sheet-Music/Folk_USA/The-Star-Spangled-Banner/The-Star-Spangled-Banner.ly:143:8:9">
<g transform="translate(92.6652, 35.3632)">
<path transform="scale(0.0040, -0.0040)" d="M218 136c66 0 108 -36 108 -89c0 -89 -113 -183 -218 -183c-66 0 -108 36 -108 89c0 89 113 183 218 183z" fill="currentColor"/>
</g>
</a>
<g transform="translate(94.4194, 11.1500)">
<path transform="scale(0.0040, -0.0040)" d="M0 0c0 31 25 56 56 56s56 -25 56 -56s-25 -56 -56 -56s-56 25 -56 56z" fill="currentColor"/>
</g>
<g transform="translate(93.9044, 13.9000)">
<rect x="-0.0650" y="-5.5000" width="0.1300" height="2.5639" ry="0.0400" fill="currentColor"/>
</g>
<g transform="translate(94.4194, 17.7500)">
<path transform="scale(0.0040, -0.0040)" d="M0 0c0 31 25 56 56 56s56 -25 56 -56s-25 -56 -56 -56s-56 25 -56 56z" fill="currentColor"/>
</g>
<g transform="translate(92.7302, 13.9000)">
<rect x="-0.0650" y="4.0361" width="0.1300" height="2.5639" ry="0.0400" fill="currentColor"/>
</g>
<g transform="translate(94.4194, 34.8132)">
<path transform="scale(0.0040, -0.0040)" d="M0 0c0 31 25 56 56 56s56 -25 56 -56s-25 -56 -56 -56s-56 25 -56 56z" fill="currentColor"/>
</g>
<g transform="translate(93.9044, 34.2632)">
<rect x="-0.0650" y="-2.7500" width="0.1300" height="3.6639" ry="0.0400" fill="currentColor"/>
</g>
<a style="color:inherit;" xlink:href="textedit:///Users/marc.mouries/projects/Sheet-Music/Folk_USA/The-Star-Spangled-Banner/The-Star-Spangled-Banner.ly:59:13:14">
<g transform="translate(97.6995, 10.6000)">
<path transform="scale(0.0040, -0.0040)" d="M218 136c66 0 108 -36 108 -89c0 -89 -113 -183 -218 -183c-66 0 -108 36 -108 89c0 89 113 183 218 183z" fill="currentColor"/>
</g>
</a>
<a style="color:inherit;" xlink:href="textedit:///Users/marc.mouries/projects/Sheet-Music/Folk_USA/The-Star-Spangled-Banner/The-Star-Spangled-Banner.ly:101:12:13">
<g transform="translate(97.6995, 17.7500)">
<path transform="scale(0.0040, -0.0040)" d="M218 136c66 0 108 -36 108 -89c0 -89 -113 -183 -218 -183c-66 0 -108 36 -108 89c0 89 113 183 218 183z" fill="currentColor"/>
</g>
</a>
<a style="color:inherit;" xlink:href="textedit:///Users/marc.mouries/projects/Sheet-Music/Folk_USA/The-Star-Spangled-Banner/The-Star-Spangled-Banner.ly:154:62:63">
<g transform="translate(97.6346, 22.9260)">
<text font-family="Optima" font-size="1.7461" text-anchor="start" fill="currentColor">
<tspan>of</tspan>
</text>
</g>
</a>
<a style="color:inherit;" xlink:href="textedit:///Users/marc.mouries/projects/Sheet-Music/Folk_USA/The-Star-Spangled-Banner/The-Star-Spangled-Banner.ly:164:57:58">
<g transform="translate(97.6346, 25.7260)">
<text font-family="Optima" font-size="1.7461" text-anchor="start" fill="currentColor">
<tspan>of</tspan>
</text>
</g>
</a>
<a style="color:inherit;" xlink:href="textedit:///Users/marc.mouries/projects/Sheet-Music/Folk_USA/The-Star-Spangled-Banner/The-Star-Spangled-Banner.ly:174:63:64">
<g transform="translate(97.6346, 28.5260)">
<text font-family="Optima" font-size="1.7461" text-anchor="start" fill="currentColor">
<tspan>of</tspan>
</text>
</g>
</a>
<a style="color:inherit;" xlink:href="textedit:///Users/marc.mouries/projects/Sheet-Music/Folk_USA/The-Star-Spangled-Banner/The-Star-Spangled-Banner.ly:143:12:13">
<g transform="translate(97.6995, 35.3632)">
<path transform="scale(0.0040, -0.0040)" d="M218 136c66 0 108 -36 108 -89c0 -89 -113 -183 -218 -183c-66 0 -108 36 -108 89c0 89 113 183 218 183z" fill="currentColor"/>
</g>
</a>
<g transform="translate(98.9388, 13.9000)">
<rect x="-0.0650" y="-6.6000" width="0.1300" height="3.1139" ry="0.0400" fill="currentColor"/>
</g>
<g transform="translate(99.0038, 7.3400)">
<path transform="scale(0.0040, -0.0040)" d="M0 0v-250h-16v250h16zM0 0c0 -197 207 -336 207 -533c0 -71 -15 -141 -41 -207c-5 -8 -13 -12 -20 -12c-13 0 -26 11 -23 27c26 61 42 126 42 192c0 103 -94 208 -165 283v250z" fill="currentColor"/>
</g>
<g transform="translate(97.7645, 13.9000)">
<rect x="-0.0650" y="4.0361" width="0.1300" height="3.1139" ry="0.0400" fill="currentColor"/>
</g>
<g transform="translate(97.8295, 21.0100)">
<path transform="scale(0.0040, -0.0040)" d="M0 0h-16v250h16v-250zM0 0v250c97 59 224 148 224 259c0 57 -15 112 -40 163c-3 16 10 27 23 27c7 0 15 -3 20 -11c25 -56 40 -117 40 -179c0 -203 -267 -306 -267 -509z" fill="currentColor"/>
</g>
<g transform="translate(98.9388, 34.2632)">
<rect x="-0.0650" y="-2.7500" width="0.1300" height="3.6639" ry="0.0400" fill="currentColor"/>
</g>
<g transform="translate(99.0038, 31.5532)">
<path transform="scale(0.0040, -0.0040)" d="M0 0v-250h-16v250h16zM0 0c0 -197 207 -336 207 -533c0 -71 -15 -141 -41 -207c-5 -8 -13 -12 -20 -12c-13 0 -26 11 -23 27c26 61 42 126 42 192c0 103 -94 208 -165 283v250z" fill="currentColor"/>
</g>
<a style="color:inherit;" xlink:href="textedit:///Users/marc.mouries/projects/Sheet-Music/Folk_USA/The-Star-Spangled-Banner/The-Star-Spangled-Banner.ly:59:16:17">
<g transform="translate(100.5100, 11.7000)">
<path transform="scale(0.0040, -0.0040)" d="M218 136c66 0 108 -36 108 -89c0 -89 -113 -183 -218 -183c-66 0 -108 36 -108 89c0 89 113 183 218 183z" fill="currentColor"/>
</g>
</a>
<a style="color:inherit;" xlink:href="textedit:///Users/marc.mouries/projects/Sheet-Music/Folk_USA/The-Star-Spangled-Banner/The-Star-Spangled-Banner.ly:101:15:16">
<g transform="translate(100.5100, 18.3000)">
<path transform="scale(0.0040, -0.0040)" d="M218 136c66 0 108 -36 108 -89c0 -89 -113 -183 -218 -183c-66 0 -108 36 -108 89c0 89 113 183 218 183z" fill="currentColor"/>
</g>
</a>
<a style="color:inherit;" xlink:href="textedit:///Users/marc.mouries/projects/Sheet-Music/Folk_USA/The-Star-Spangled-Banner/The-Star-Spangled-Banner.ly:154:65:66">
<g transform="translate(100.0012, 22.9260)">
<text font-family="Optima" font-size="1.7461" text-anchor="start" fill="currentColor">
<tspan>the</tspan>
</text>
</g>
</a>
<a style="color:inherit;" xlink:href="textedit:///Users/marc.mouries/projects/Sheet-Music/Folk_USA/The-Star-Spangled-Banner/The-Star-Spangled-Banner.ly:164:60:61">
<g transform="translate(100.0012, 25.7260)">
<text font-family="Optima" font-size="1.7461" text-anchor="start" fill="currentColor">
<tspan>the</tspan>
</text>
</g>
</a>
<a style="color:inherit;" xlink:href="textedit:///Users/marc.mouries/projects/Sheet-Music/Folk_USA/The-Star-Spangled-Banner/The-Star-Spangled-Banner.ly:174:66:67">
<g transform="translate(100.0012, 28.5260)">
<text font-family="Optima" font-size="1.7461" text-anchor="start" fill="currentColor">
<tspan>the</tspan>
</text>
</g>
</a>
<a style="color:inherit;" xlink:href="textedit:///Users/marc.mouries/projects/Sheet-Music/Folk_USA/The-Star-Spangled-Banner/The-Star-Spangled-Banner.ly:143:15:16">
<g transform="translate(100.5100, 35.3632)">
<path transform="scale(0.0040, -0.0040)" d="M218 136c66 0 108 -36 108 -89c0 -89 -113 -183 -218 -183c-66 0 -108 36 -108 89c0 89 113 183 218 183z" fill="currentColor"/>
</g>
</a>
<g transform="translate(101.7492, 13.9000)">
<rect x="-0.0650" y="-5.1333" width="0.1300" height="2.7472" ry="0.0400" fill="currentColor"/>
</g>
<g transform="translate(100.5750, 13.9000)">
<rect x="-0.0650" y="4.5861" width="0.1300" height="2.5639" ry="0.0400" fill="currentColor"/>
</g>
<g transform="translate(101.7492, 34.2632)">
<rect x="-0.0650" y="-2.7500" width="0.1300" height="3.6639" ry="0.0400" fill="currentColor"/>
</g>
<a style="color:inherit;" xlink:href="textedit:///Users/marc.mouries/projects/Sheet-Music/Folk_USA/The-Star-Spangled-Banner/The-Star-Spangled-Banner.ly:60:8:9">
<g transform="translate(106.9488, 12.2500)">
<path transform="scale(0.0040, -0.0040)" d="M314 65c0 23 -19 41 -42 41c-39 0 -204 -110 -231 -143c-7 -8 -10 -18 -10 -28c0 -23 19 -41 42 -41c39 0 203 110 230 143c7 8 11 18 11 28zM262 136c41 0 82 -14 82 -71c0 -26 -16 -112 -74 -151c-25 -17 -87 -50 -187 -50c-41 0 -83 14 -83 71c0 26 16 112 74 151
c25 17 88 50 188 50z" fill="currentColor"/>
</g>
</a>
<a style="color:inherit;" xlink:href="textedit:///Users/marc.mouries/projects/Sheet-Music/Folk_USA/The-Star-Spangled-Banner/The-Star-Spangled-Banner.ly:102:8:9">
<g transform="translate(106.9488, 18.8500)">
<path transform="scale(0.0040, -0.0040)" d="M314 65c0 23 -19 41 -42 41c-39 0 -204 -110 -231 -143c-7 -8 -10 -18 -10 -28c0 -23 19 -41 42 -41c39 0 203 110 230 143c7 8 11 18 11 28zM262 136c41 0 82 -14 82 -71c0 -26 -16 -112 -74 -151c-25 -17 -87 -50 -187 -50c-41 0 -83 14 -83 71c0 26 16 112 74 151
c25 17 88 50 188 50z" fill="currentColor"/>
</g>
</a>
<a style="color:inherit;" xlink:href="textedit:///Users/marc.mouries/projects/Sheet-Music/Folk_USA/The-Star-Spangled-Banner/The-Star-Spangled-Banner.ly:154:69:70">
<g transform="translate(105.2816, 22.9260)">
<text font-family="Optima" font-size="1.7461" text-anchor="start" fill="currentColor">
<tspan>brave?</tspan>
</text>
</g>
</a>
<a style="color:inherit;" xlink:href="textedit:///Users/marc.mouries/projects/Sheet-Music/Folk_USA/The-Star-Spangled-Banner/The-Star-Spangled-Banner.ly:164:64:65">
<g transform="translate(105.3328, 25.7260)">
<text font-family="Optima" font-size="1.7461" text-anchor="start" fill="currentColor">
<tspan>brave!</tspan>
</text>
</g>
</a>
<a style="color:inherit;" xlink:href="textedit:///Users/marc.mouries/projects/Sheet-Music/Folk_USA/The-Star-Spangled-Banner/The-Star-Spangled-Banner.ly:174:70:71">
<g transform="translate(105.3328, 28.5260)">
<text font-family="Optima" font-size="1.7461" text-anchor="start" fill="currentColor">
<tspan>brave!</tspan>
</text>
</g>
</a>
<a style="color:inherit;" xlink:href="textedit:///Users/marc.mouries/projects/Sheet-Music/Folk_USA/The-Star-Spangled-Banner/The-Star-Spangled-Banner.ly:144:8:9">
<g transform="translate(106.9488, 37.5632)">
<path transform="scale(0.0040, -0.0040)" d="M314 65c0 23 -19 41 -42 41c-39 0 -204 -110 -231 -143c-7 -8 -10 -18 -10 -28c0 -23 19 -41 42 -41c39 0 203 110 230 143c7 8 11 18 11 28zM262 136c41 0 82 -14 82 -71c0 -26 -16 -112 -74 -151c-25 -17 -87 -50 -187 -50c-41 0 -83 14 -83 71c0 26 16 112 74 151
c25 17 88 50 188 50z" fill="currentColor"/>
</g>
</a>
<g transform="translate(108.2611, 13.9000)">
<rect x="-0.0650" y="-4.7667" width="0.1300" height="2.8577" ry="0.0400" fill="currentColor"/>
</g>
<g transform="translate(107.0138, 13.9000)">
<rect x="-0.0650" y="5.2090" width="0.1300" height="2.4910" ry="0.0400" fill="currentColor"/>
</g>
<g transform="translate(108.2611, 34.2632)">
<rect x="-0.0650" y="-0.5500" width="0.1300" height="3.5910" ry="0.0400" fill="currentColor"/>
</g>
<a style="color:inherit;" xlink:href="textedit:///Users/marc.mouries/projects/Sheet-Music/Folk_USA/The-Star-Spangled-Banner/The-Star-Spangled-Banner.ly:153:60:61">
<g transform="translate(19.0944, 22.9260)">
<rect x="0.0000" y="-0.5500" width="0.6600" height="0.1300" ry="0.0400" fill="currentColor"/>
</g>
</a>
<a style="color:inherit;" xlink:href="textedit:///Users/marc.mouries/projects/Sheet-Music/Folk_USA/The-Star-Spangled-Banner/The-Star-Spangled-Banner.ly:163:72:73">
<g transform="translate(19.3164, 25.7260)">
<rect x="0.0000" y="-0.5500" width="0.6600" height="0.1300" ry="0.0400" fill="currentColor"/>
</g>
</a>
<a style="color:inherit;" xlink:href="textedit:///Users/marc.mouries/projects/Sheet-Music/Folk_USA/The-Star-Spangled-Banner/The-Star-Spangled-Banner.ly:173:72:73">
<g transform="translate(19.4017, 28.5260)">
<rect x="0.0000" y="-0.5500" width="0.6600" height="0.1300" ry="0.0400" fill="currentColor"/>
</g>
</a>
<a style="color:inherit;" xlink:href="textedit:///Users/marc.mouries/projects/Sheet-Music/Folk_USA/The-Star-Spangled-Banner/The-Star-Spangled-Banner.ly:153:68:69">
<g transform="translate(23.5664, 22.9260)">
<rect x="0.0000" y="-0.5500" width="0.6600" height="0.1300" ry="0.0400" fill="currentColor"/>
</g>
</a>
<a style="color:inherit;" xlink:href="textedit:///Users/marc.mouries/projects/Sheet-Music/Folk_USA/The-Star-Spangled-Banner/The-Star-Spangled-Banner.ly:137:14:15">
<g transform="translate(26.4453, 32.9492)">
<polygon stroke-linejoin="round" stroke-linecap="round" stroke-width="0.0800" fill="currentColor" stroke="currentColor" points="2.8372 -0.0100 2.8372 0.4380 0.0400 0.2240 0.0400 -0.2240"/>
</g>
</a>
<a style="color:inherit;" xlink:href="textedit:///Users/marc.mouries/projects/Sheet-Music/Folk_USA/The-Star-Spangled-Banner/The-Star-Spangled-Banner.ly:154:4:5">
<g transform="translate(34.7495, 22.9260)">
<rect x="0.0000" y="-0.5500" width="0.6600" height="0.1300" ry="0.0400" fill="currentColor"/>
</g>
</a>
<a style="color:inherit;" xlink:href="textedit:///Users/marc.mouries/projects/Sheet-Music/Folk_USA/The-Star-Spangled-Banner/The-Star-Spangled-Banner.ly:174:4:5">
<g transform="translate(33.9557, 28.5260)">
<rect x="0.0000" y="-0.5500" width="0.6600" height="0.1300" ry="0.0400" fill="currentColor"/>
</g>
</a>
<a style="color:inherit;" xlink:href="textedit:///Users/marc.mouries/projects/Sheet-Music/Folk_USA/The-Star-Spangled-Banner/The-Star-Spangled-Banner.ly:55:13:14">
<g transform="translate(37.6445, 7.8500)">
<polygon stroke-linejoin="round" stroke-linecap="round" stroke-width="0.0800" fill="currentColor" stroke="currentColor" points="2.8372 0.1120 2.8372 0.5600 0.0400 0.2240 0.0400 -0.2240"/>
</g>
</a>
<a style="color:inherit;" xlink:href="textedit:///Users/marc.mouries/projects/Sheet-Music/Folk_USA/The-Star-Spangled-Banner/The-Star-Spangled-Banner.ly:139:15:16">
<g transform="translate(37.6445, 33.3772)">
<polygon stroke-linejoin="round" stroke-linecap="round" stroke-width="0.0800" fill="currentColor" stroke="currentColor" points="2.8372 -0.4380 2.8372 0.0100 0.0400 0.2240 0.0400 -0.2240"/>
</g>
</a>
<a style="color:inherit;" xlink:href="textedit:///Users/marc.mouries/projects/Sheet-Music/Folk_USA/The-Star-Spangled-Banner/The-Star-Spangled-Banner.ly:55:21:22">
<g transform="translate(43.1390, 8.9500)">
<polygon stroke-linejoin="round" stroke-linecap="round" stroke-width="0.0800" fill="currentColor" stroke="currentColor" points="3.6872 0.1120 3.6872 0.5600 0.0400 0.2240 0.0400 -0.2240"/>
</g>
</a>
<a style="color:inherit;" xlink:href="textedit:///Users/marc.mouries/projects/Sheet-Music/Folk_USA/The-Star-Spangled-Banner/The-Star-Spangled-Banner.ly:139:22:23">
<g transform="translate(43.1390, 32.2772)">
<polygon stroke-linejoin="round" stroke-linecap="round" stroke-width="0.0800" fill="currentColor" stroke="currentColor" points="3.6872 -0.2240 3.6872 0.2240 0.0400 0.2240 0.0400 -0.2240"/>
</g>
</a>
<a style="color:inherit;" xlink:href="textedit:///Users/marc.mouries/projects/Sheet-Music/Folk_USA/The-Star-Spangled-Banner/The-Star-Spangled-Banner.ly:56:10:11">
<g transform="translate(49.6211, 13.9000)">
<path stroke-width="0.0800" stroke-linejoin="round" stroke-linecap="round" stroke="currentColor" fill="currentColor" d="M1.6042 -2.7450C2.5862 -3.4797 4.2680 -3.2926 5.0645 -2.3600L5.0645 -2.3600C4.2547 -3.1733 2.5729 -3.3604 1.6042 -2.7450z"/>
</g>
</a>
<a style="color:inherit;" xlink:href="textedit:///Users/marc.mouries/projects/Sheet-Music/Folk_USA/The-Star-Spangled-Banner/The-Star-Spangled-Banner.ly:98:10:11">
<g transform="translate(49.6211, 13.9000)">
<path stroke-width="0.0800" stroke-linejoin="round" stroke-linecap="round" stroke="currentColor" fill="currentColor" d="M0.4300 6.0450C1.1858 7.0185 2.8699 7.2862 3.8903 6.5950L3.8903 6.5950C2.8887 7.1676 1.2046 6.9000 0.4300 6.0450z"/>
</g>
</a>
</svg>
