<svg xmlns="http://www.w3.org/2000/svg" xmlns:xlink="http://www.w3.org/1999/xlink" version="1.2" width="210.00mm" height="297.00mm" viewBox="0.0000 -0.0000 108.6378 153.6449">
<style type="text/css">
<![CDATA[
tspan { white-space: pre; }
]]>
</style>
<g transform="translate(44.5570, 5.8990)">
<text font-family="serif" font-weight="bold" font-size="3.4924" text-anchor="start" fill="currentColor">
<tspan>Ievan polkka</tspan>
</text>
</g>
<g transform="translate(83.2269, 9.3990)">
<text font-family="serif" font-size="2.2001" text-anchor="start" fill="currentColor">
<tspan>Trad. Finish Folk Song</tspan>
</text>
</g>
<g transform="translate(103.2859, 18.4672)">
<rect x="0.0000" y="-2.0000" width="0.1786" height="4.0000" ry="0.0000" fill="currentColor"/>
</g>
<g transform="translate(5.1732, 15.4672)">
<rect x="70.5928" y="-0.0970" width="1.9578" height="0.1940" ry="0.0970" fill="currentColor"/>
</g>
<g transform="translate(5.1732, 20.4672)">
<line stroke-linejoin="round" stroke-linecap="round" stroke-width="0.0940" stroke="currentColor" x1="0.0470" y1="0" x2="98.2443" y2="0"/>
</g>
<g transform="translate(5.1732, 19.4672)">
<line stroke-linejoin="round" stroke-linecap="round" stroke-width="0.0940" stroke="currentColor" x1="0.0470" y1="0" x2="98.2443" y2="0"/>
</g>
<g transform="translate(5.1732, 18.4672)">
<line stroke-linejoin="round" stroke-linecap="round" stroke-width="0.0940" stroke="currentColor" x1="0.0470" y1="0" x2="98.2443" y2="0"/>
</g>
<g transform="translate(5.1732, 17.4672)">
<line stroke-linejoin="round" stroke-linecap="round" stroke-width="0.0940" stroke="currentColor" x1="0.0470" y1="0" x2="98.2443" y2="0"/>
</g>
<g transform="translate(5.1732, 16.4672)">
<line stroke-linejoin="round" stroke-linecap="round" stroke-width="0.0940" stroke="currentColor" x1="0.0470" y1="0" x2="98.2443" y2="0"/>
</g>
<g transform="translate(89.6250, 18.4672)">
<rect x="0.0000" y="-2.0000" width="0.1786" height="4.0000" ry="0.0000" fill="currentColor"/>
</g>
<g transform="translate(73.0803, 17.9672)">
<path transform="scale(0.0040, -0.0040)" d="M0 0c0 31 26 57 57 57s56 -26 56 -57s-25 -57 -56 -57s-57 26 -57 57z" fill="currentColor"/>
</g>
<g transform="translate(73.0803, 18.9672)">
<path transform="scale(0.0040, -0.0040)" d="M0 0c0 31 26 57 57 57s56 -26 56 -57s-25 -57 -56 -57s-57 26 -57 57z" fill="currentColor"/>
</g>
<g transform="translate(74.2767, 18.4672)">
<rect x="0.0000" y="-2.0000" width="0.5642" height="4.0000" ry="0.0000" fill="currentColor"/>
</g>
<g transform="translate(73.8160, 18.4672)">
<rect x="0.0000" y="-2.0000" width="0.1786" height="4.0000" ry="0.0000" fill="currentColor"/>
</g>
<g transform="translate(59.2189, 18.4672)">
<rect x="0.0000" y="-2.0000" width="0.1786" height="4.0000" ry="0.0000" fill="currentColor"/>
</g>
<g transform="translate(44.0670, 18.4672)">
<rect x="0.0000" y="-2.0000" width="0.1786" height="4.0000" ry="0.0000" fill="currentColor"/>
</g>
<g transform="translate(28.9004, 18.4672)">
<rect x="0.0000" y="-2.0000" width="0.1786" height="4.0000" ry="0.0000" fill="currentColor"/>
</g>
<g transform="translate(75.6904, 14.4654)">
<g>
<path transform="scale(0.0025, -0.0025)" d="M92 66c-60 0 -41 -66 -72 -66c-10 0 -20 7 -20 20c0 154 232 163 232 335c0 51 -18 105 -63 105c-29 0 -58 -14 -58 -40s34 -39 34 -65c0 -36 -30 -66 -66 -66s-65 30 -65 66c0 82 71 145 155 145c97 0 188 -56 188 -145c0 -142 -135 -154 -229 -208h2
c86 0 116 -61 169 -61c45 0 29 39 56 39c10 0 21 -7 21 -19c0 -27 -46 -106 -141 -106c-91 0 -96 66 -143 66z" fill="currentColor"/>

<path transform="translate(0.9622, 0.0000) scale(0.0025, -0.0025)" d="M0 55c0 30 25 55 55 55s55 -25 55 -55s-25 -55 -55 -55s-55 25 -55 55z" fill="currentColor"/>
</g>
</g>
<g transform="translate(73.8160, 12.7054)">
<line stroke-linejoin="round" stroke-linecap="round" stroke-width="0.1504" stroke="currentColor" x1="29.5733" y1="-0.0000" x2="29.5733" y2="-0.0000"/>
</g>
<g transform="translate(73.8160, 12.7054)">
<line stroke-linejoin="round" stroke-linecap="round" stroke-width="0.1504" stroke="currentColor" x1="0.9497" y1="-0.0000" x2="0.9497" y2="2.0000"/>
</g>
<g transform="translate(73.8160, 12.7054)">
<line stroke-linejoin="round" stroke-linecap="round" stroke-width="0.1504" stroke="currentColor" x1="0.9497" y1="-0.0000" x2="29.5733" y2="-0.0000"/>
</g>
<g transform="translate(82.9768, 19.4672)">
<polygon stroke-linejoin="round" stroke-linecap="round" stroke-width="0.0727" fill="currentColor" stroke="currentColor" points="3.5281 -0.0106 3.5281 0.3966 0.0364 0.2036 0.0364 -0.2036"/>
</g>
<a style="color:inherit;" xlink:href="textedit:///Users/marc.mouries/projects/Sheet-Music/Folk_Finland/Ievan-Polkka/Ievan-polkka-%28Dm%29.ly:67:2:3">
<g transform="translate(15.1177, 15.9201)">
<text font-family="sans-serif" font-size="2.6164" text-anchor="start" fill="currentColor">
<tspan>D</tspan>
</text>
</g>
<g transform="translate(17.1352, 15.9201)">
<text font-family="sans-serif" font-size="2.6164" text-anchor="start" fill="currentColor">
<tspan>m</tspan>
</text>
</g>
</a>
<a style="color:inherit;" xlink:href="textedit:///Users/marc.mouries/projects/Sheet-Music/Folk_Finland/Ievan-Polkka/Ievan-polkka-%28Dm%29.ly:28:4:5">
<g transform="translate(15.1177, 18.9672)">
<path transform="scale(0.0040, -0.0040)" d="M220 135c11 0 106 -2 106 -87c0 -89 -114 -183 -220 -183c-11 0 -106 2 -106 87c0 89 114 183 220 183z" fill="currentColor"/>
</g>
</a>
<g transform="translate(5.9732, 19.4672)">
<path transform="scale(0.0040, -0.0040)" d="M267 -593l-1 -41h-5c-108 0 -196 88 -196 196c0 58 54 104 113 104c54 0 95 -48 95 -104c0 -52 -43 -95 -95 -95c-11 0 -23 3 -34 8c26 -40 69 -68 119 -68h4zM644 2c0 -112 -73 -212 -180 -245c3 -35 5 -71 5 -107c0 -19 -1 -38 -2 -57c-7 -119 -87 -224 -201 -227l1 41
c43 1 161 25 161 246c0 31 -1 63 -4 94c-5 -1 -44 -8 -89 -8c-193 0 -333 179 -333 373c0 177 132 307 249 441c-28 95 -50 169 -50 345c0 116 56 226 150 294c5 4 13 3 18 -1c67 -81 132 -245 132 -358c0 -143 -86 -255 -181 -364c20 -69 38 -138 55 -208c2 0 7 1 14 1
c155 0 255 -128 255 -260zM460 -204c70 24 115 91 115 165c0 91 -68 182 -176 192c19 -89 48 -246 61 -357zM73 30c0 -146 141 -250 265 -250c1 0 47 0 82 6c-7 63 -29 202 -64 366c-79 -9 -124 -62 -124 -120c0 -44 26 -91 82 -123c5 -4 6 -10 6 -15c0 -11 -9 -21 -21 -21
c-15 0 -125 61 -125 186c0 88 58 173 159 196c-14 59 -30 119 -46 177c-107 -121 -214 -242 -214 -402zM431 915c0 34 0 66 -21 132c-99 -49 -162 -150 -162 -260c0 -56 12 -119 35 -197c81 97 148 199 148 325z" fill="currentColor"/>
</g>
<a style="color:inherit;" xlink:href="textedit:///Users/marc.mouries/projects/Sheet-Music/Folk_Finland/Ievan-Polkka/Ievan-polkka-%28Dm%29.ly:19:2:3">
<g transform="translate(9.5846, 18.4672)">
<path transform="scale(0.0040, -0.0040)" d="M26 43l-1 -68v-11c0 -22 0 -44 3 -66c46 38 95 80 95 139c0 34 -14 68 -44 68c-31 0 -52 -29 -53 -62zM-14 -137l-12 598c8 5 17 6 26 6s18 -1 26 -6l-7 -348c25 20 57 32 90 32c52 0 91 -47 91 -101c0 -81 -88 -118 -150 -169c-15 -12 -22 -35 -42 -35
c-12 0 -22 10 -22 23z" fill="currentColor"/>
</g>
</a>
<a style="color:inherit;" xlink:href="textedit:///Users/marc.mouries/projects/Sheet-Music/Folk_Finland/Ievan-Polkka/Ievan-polkka-%28Dm%29.ly:18:2:3">
<g transform="translate(11.5967, 18.4672)">
<path transform="scale(0.0040, -0.0040)" d="M228 0c-88 0 -89 66 -144 66c-30 0 -59 -22 -62 -56c-1 -7 -6 -10 -11 -10c-6 0 -11 4 -11 11c0 154 232 170 232 344c0 60 -17 123 -69 123c-25 0 -47 -15 -47 -37c0 -27 35 -41 35 -68c0 -38 -31 -69 -69 -69s-69 31 -69 69c0 75 71 127 150 127c94 0 182 -57 182 -145
c0 -153 -155 -159 -250 -224c10 2 21 4 32 4c82 0 111 -59 171 -59c47 0 36 37 53 37c6 0 12 -4 12 -11c0 -21 -42 -102 -135 -102z" fill="currentColor"/>
</g>
<g transform="translate(11.5346, 20.4832)">
<path transform="scale(0.0040, -0.0040)" d="M198 113h113c0 -47 28 -91 71 -91c7 0 11 -5 11 -11s-4 -11 -11 -11c-43 0 -84 13 -127 13s-85 -13 -128 -13c-7 0 -11 5 -11 11s4 11 11 11c43 0 71 44 71 91zM-2 147c0 13 143 147 143 337c0 10 8 19 16 16c22 -7 45 -13 69 -13s47 6 69 13c13 4 22 -9 16 -16
l-283 -331h170v138c0 33 35 26 67 70c11 15 17 33 25 50c4 10 21 6 21 -8v-250h71c9 0 14 -7 14 -14s-5 -14 -14 -14h-71v-12h-113v12h-170c-22 0 -30 13 -30 22z" fill="currentColor"/>
</g>
</a>
<a style="color:inherit;" xlink:href="textedit:///Users/marc.mouries/projects/Sheet-Music/Folk_Finland/Ievan-Polkka/Ievan-polkka-%28Dm%29.ly:17:2:3">
<g transform="translate(11.5346, 13.0465)">
<rect x="1.0461" y="-2.6727" width="0.1158" height="2.5069" ry="0.0193" fill="currentColor"/>
</g>
<g transform="translate(11.5346, 13.0465)">
<path transform="scale(0.0036, -0.0036)" d="M218 136c66 0 108 -36 108 -89c0 -89 -113 -183 -218 -183c-66 0 -108 36 -108 89c0 89 113 183 218 183z" fill="currentColor"/>
</g>
<g transform="translate(12.6966, 13.5321)">
<text font-family="serif" font-size="2.2001" text-anchor="start" fill="currentColor">
<tspan> = 120</tspan>
</text>
</g>
</a>
<g transform="translate(15.1788, 18.4672)">
<rect x="-0.0611" y="0.6919" width="0.1222" height="2.2952" ry="0.0364" fill="currentColor"/>
</g>
<g transform="translate(76.0923, 18.4672)">
<polygon stroke-linejoin="round" stroke-linecap="round" stroke-width="0.0727" fill="currentColor" stroke="currentColor" points="3.5281 -0.0106 3.5281 0.3966 0.0364 0.2036 0.0364 -0.2036"/>
</g>
<a style="color:inherit;" xlink:href="textedit:///Users/marc.mouries/projects/Sheet-Music/Folk_Finland/Ievan-Polkka/Ievan-polkka-%28Dm%29.ly:28:7:8">
<g transform="translate(18.8099, 17.4672)">
<path transform="scale(0.0040, -0.0040)" d="M220 135c11 0 106 -2 106 -87c0 -89 -114 -183 -220 -183c-11 0 -106 2 -106 87c0 89 114 183 220 183z" fill="currentColor"/>
</g>
</a>
<g transform="translate(18.8710, 18.4672)">
<rect x="-0.0611" y="-0.8081" width="0.1222" height="3.0141" ry="0.0364" fill="currentColor"/>
</g>
<g transform="translate(60.8665, 19.6601)">
<polygon stroke-linejoin="round" stroke-linecap="round" stroke-width="0.0727" fill="currentColor" stroke="currentColor" points="3.2781 0.4104 3.2781 0.8177 0.0364 0.2036 0.0364 -0.2036"/>
</g>
<a style="color:inherit;" xlink:href="textedit:///Users/marc.mouries/projects/Sheet-Music/Folk_Finland/Ievan-Polkka/Ievan-polkka-%28Dm%29.ly:28:9:10">
<g transform="translate(22.2522, 17.4672)">
<path transform="scale(0.0040, -0.0040)" d="M220 135c11 0 106 -2 106 -87c0 -89 -114 -183 -220 -183c-11 0 -106 2 -106 87c0 89 114 183 220 183z" fill="currentColor"/>
</g>
</a>
<g transform="translate(22.3133, 18.4672)">
<rect x="-0.0611" y="-0.8081" width="0.1222" height="2.8048" ry="0.0364" fill="currentColor"/>
</g>
<g transform="translate(52.3206, 21.2742)">
<polygon stroke-linejoin="round" stroke-linecap="round" stroke-width="0.0727" fill="currentColor" stroke="currentColor" points="3.7781 -0.8177 3.7781 -0.4104 0.0364 0.2036 0.0364 -0.2036"/>
</g>
<a style="color:inherit;" xlink:href="textedit:///Users/marc.mouries/projects/Sheet-Music/Folk_Finland/Ievan-Polkka/Ievan-polkka-%28Dm%29.ly:28:11:12">
<g transform="translate(25.6944, 16.9672)">
<path transform="scale(0.0040, -0.0040)" d="M220 135c11 0 106 -2 106 -87c0 -89 -114 -183 -220 -183c-11 0 -106 2 -106 87c0 89 114 183 220 183z" fill="currentColor"/>
</g>
</a>
<g transform="translate(25.7555, 18.4672)">
<rect x="-0.0611" y="-1.3081" width="0.1222" height="3.1185" ry="0.0364" fill="currentColor"/>
</g>
<g transform="translate(45.6861, 20.6601)">
<polygon stroke-linejoin="round" stroke-linecap="round" stroke-width="0.0727" fill="currentColor" stroke="currentColor" points="3.2781 0.4104 3.2781 0.8177 0.0364 0.2036 0.0364 -0.2036"/>
</g>
<g transform="translate(37.1825, 20.2742)">
<polygon stroke-linejoin="round" stroke-linecap="round" stroke-width="0.0727" fill="currentColor" stroke="currentColor" points="3.7781 -0.8177 3.7781 -0.4104 0.0364 0.2036 0.0364 -0.2036"/>
</g>
<a style="color:inherit;" xlink:href="textedit:///Users/marc.mouries/projects/Sheet-Music/Folk_Finland/Ievan-Polkka/Ievan-polkka-%28Dm%29.ly:29:4:5">
<g transform="translate(30.5480, 16.4672)">
<path transform="scale(0.0040, -0.0040)" d="M220 135c11 0 106 -2 106 -87c0 -89 -114 -183 -220 -183c-11 0 -106 2 -106 87c0 89 114 183 220 183z" fill="currentColor"/>
</g>
</a>
<g transform="translate(30.6091, 18.4672)">
<rect x="-0.0611" y="-1.8081" width="0.1222" height="3.0125" ry="0.0364" fill="currentColor"/>
</g>
<g transform="translate(45.0953, 14.4780)">
<g>
<path transform="scale(0.0025, -0.0025)" d="M188 487c16 0 29 14 40 14c12 0 22 -14 22 -30v-346c0 -46 35 -85 79 -85c13 0 20 -10 20 -20s-7 -20 -20 -20c-47 0 -94 13 -141 13s-94 -13 -141 -13c-13 0 -20 10 -20 20s7 20 20 20c44 0 78 39 78 85v150c0 21 -15 33 -28 33c-7 0 -14 -3 -17 -10l-35 -71
c-5 -10 -14 -14 -22 -14c-13 0 -26 11 -26 25c0 4 1 8 3 12l125 250c2 4 6 5 10 5c17 0 36 -18 53 -18z" fill="currentColor"/>

<path transform="translate(0.9312, 0.0000) scale(0.0025, -0.0025)" d="M0 55c0 30 25 55 55 55s55 -25 55 -55s-25 -55 -55 -55s-55 25 -55 55z" fill="currentColor"/>
</g>
</g>
<g transform="translate(44.0670, 12.7054)">
<line stroke-linejoin="round" stroke-linecap="round" stroke-width="0.1504" stroke="currentColor" x1="29.8242" y1="-0.0000" x2="29.8242" y2="2.0000"/>
</g>
<g transform="translate(44.0670, 12.7054)">
<line stroke-linejoin="round" stroke-linecap="round" stroke-width="0.1504" stroke="currentColor" x1="0.1034" y1="-0.0000" x2="0.1034" y2="2.0000"/>
</g>
<g transform="translate(44.0670, 12.7054)">
<line stroke-linejoin="round" stroke-linecap="round" stroke-width="0.1504" stroke="currentColor" x1="0.1034" y1="-0.0000" x2="29.8242" y2="-0.0000"/>
</g>
<a style="color:inherit;" xlink:href="textedit:///Users/marc.mouries/projects/Sheet-Music/Folk_Finland/Ievan-Polkka/Ievan-polkka-%28Dm%29.ly:29:7:8">
<g transform="translate(33.7403, 17.4672)">
<path transform="scale(0.0040, -0.0040)" d="M220 135c11 0 106 -2 106 -87c0 -89 -114 -183 -220 -183c-11 0 -106 2 -106 87c0 89 114 183 220 183z" fill="currentColor"/>
</g>
</a>
<g transform="translate(33.8014, 18.4672)">
<rect x="-0.0611" y="-0.8081" width="0.1222" height="2.6038" ry="0.0364" fill="currentColor"/>
</g>
<g transform="translate(30.5480, 19.6601)">
<polygon stroke-linejoin="round" stroke-linecap="round" stroke-width="0.0727" fill="currentColor" stroke="currentColor" points="3.2781 0.4104 3.2781 0.8177 0.0364 0.2036 0.0364 -0.2036"/>
</g>
<a style="color:inherit;" xlink:href="textedit:///Users/marc.mouries/projects/Sheet-Music/Folk_Finland/Ievan-Polkka/Ievan-polkka-%28Dm%29.ly:29:9:10">
<g transform="translate(37.1825, 17.4672)">
<path transform="scale(0.0040, -0.0040)" d="M220 135c11 0 106 -2 106 -87c0 -89 -114 -183 -220 -183c-11 0 -106 2 -106 87c0 89 114 183 220 183z" fill="currentColor"/>
</g>
</a>
<g transform="translate(37.2437, 18.4672)">
<rect x="-0.0611" y="-0.8081" width="0.1222" height="2.6053" ry="0.0364" fill="currentColor"/>
</g>
<g transform="translate(22.2522, 20.4672)">
<polygon stroke-linejoin="round" stroke-linecap="round" stroke-width="0.0727" fill="currentColor" stroke="currentColor" points="3.5281 -0.3966 3.5281 0.0106 0.0364 0.2036 0.0364 -0.2036"/>
</g>
<a style="color:inherit;" xlink:href="textedit:///Users/marc.mouries/projects/Sheet-Music/Folk_Finland/Ievan-Polkka/Ievan-polkka-%28Dm%29.ly:29:11:12">
<g transform="translate(40.8748, 16.4672)">
<path transform="scale(0.0040, -0.0040)" d="M220 135c11 0 106 -2 106 -87c0 -89 -114 -183 -220 -183c-11 0 -106 2 -106 87c0 89 114 183 220 183z" fill="currentColor"/>
</g>
</a>
<g transform="translate(40.9359, 18.4672)">
<rect x="-0.0611" y="-1.8081" width="0.1222" height="3.0110" ry="0.0364" fill="currentColor"/>
</g>
<g transform="translate(15.1177, 21.4672)">
<polygon stroke-linejoin="round" stroke-linecap="round" stroke-width="0.0727" fill="currentColor" stroke="currentColor" points="3.7781 -1.0106 3.7781 -0.6034 0.0364 0.2036 0.0364 -0.2036"/>
</g>
<a style="color:inherit;" xlink:href="textedit:///Users/marc.mouries/projects/Sheet-Music/Folk_Finland/Ievan-Polkka/Ievan-polkka-%28Dm%29.ly:32:5:6">
<g transform="translate(45.6861, 16.9672)">
<path transform="scale(0.0040, -0.0040)" d="M220 135c11 0 106 -2 106 -87c0 -89 -114 -183 -220 -183c-11 0 -106 2 -106 87c0 89 114 183 220 183z" fill="currentColor"/>
</g>
</a>
<g transform="translate(45.7473, 18.4672)">
<rect x="-0.0611" y="-1.3081" width="0.1222" height="3.5125" ry="0.0364" fill="currentColor"/>
</g>
<a style="color:inherit;" xlink:href="textedit:///Users/marc.mouries/projects/Sheet-Music/Folk_Finland/Ievan-Polkka/Ievan-polkka-%28Dm%29.ly:32:8:9">
<g transform="translate(48.8784, 17.9672)">
<path transform="scale(0.0040, -0.0040)" d="M220 135c11 0 106 -2 106 -87c0 -89 -114 -183 -220 -183c-11 0 -106 2 -106 87c0 89 114 183 220 183z" fill="currentColor"/>
</g>
</a>
<g transform="translate(48.9395, 18.4672)">
<rect x="-0.0611" y="-0.3081" width="0.1222" height="3.1038" ry="0.0364" fill="currentColor"/>
</g>
<a style="color:inherit;" xlink:href="textedit:///Users/marc.mouries/projects/Sheet-Music/Folk_Finland/Ievan-Polkka/Ievan-polkka-%28Dm%29.ly:32:10:11">
<g transform="translate(52.3206, 17.9672)">
<path transform="scale(0.0040, -0.0040)" d="M220 135c11 0 106 -2 106 -87c0 -89 -114 -183 -220 -183c-11 0 -106 2 -106 87c0 89 114 183 220 183z" fill="currentColor"/>
</g>
</a>
<g transform="translate(52.3818, 18.4672)">
<rect x="-0.0611" y="-0.3081" width="0.1222" height="3.1053" ry="0.0364" fill="currentColor"/>
</g>
<a style="color:inherit;" xlink:href="textedit:///Users/marc.mouries/projects/Sheet-Music/Folk_Finland/Ievan-Polkka/Ievan-polkka-%28Dm%29.ly:32:13:14">
<g transform="translate(56.0129, 16.9672)">
<path transform="scale(0.0040, -0.0040)" d="M220 135c11 0 106 -2 106 -87c0 -89 -114 -183 -220 -183c-11 0 -106 2 -106 87c0 89 114 183 220 183z" fill="currentColor"/>
</g>
</a>
<g transform="translate(56.0740, 18.4672)">
<rect x="-0.0611" y="-1.3081" width="0.1222" height="3.5110" ry="0.0364" fill="currentColor"/>
</g>
<a style="color:inherit;" xlink:href="textedit:///Users/marc.mouries/projects/Sheet-Music/Folk_Finland/Ievan-Polkka/Ievan-polkka-%28Dm%29.ly:33:5:6">
<g transform="translate(60.8665, 16.4672)">
<path transform="scale(0.0040, -0.0040)" d="M220 135c11 0 106 -2 106 -87c0 -89 -114 -183 -220 -183c-11 0 -106 2 -106 87c0 89 114 183 220 183z" fill="currentColor"/>
</g>
</a>
<g transform="translate(91.2727, 19.6601)">
<polygon stroke-linejoin="round" stroke-linecap="round" stroke-width="0.0727" fill="currentColor" stroke="currentColor" points="3.2781 0.4104 3.2781 0.8177 0.0364 0.2036 0.0364 -0.2036"/>
</g>
<g transform="translate(60.9276, 18.4672)">
<rect x="-0.0611" y="-1.8081" width="0.1222" height="3.0125" ry="0.0364" fill="currentColor"/>
</g>
<a style="color:inherit;" xlink:href="textedit:///Users/marc.mouries/projects/Sheet-Music/Folk_Finland/Ievan-Polkka/Ievan-polkka-%28Dm%29.ly:33:8:9">
<g transform="translate(64.0588, 17.4672)">
<path transform="scale(0.0040, -0.0040)" d="M220 135c11 0 106 -2 106 -87c0 -89 -114 -183 -220 -183c-11 0 -106 2 -106 87c0 89 114 183 220 183z" fill="currentColor"/>
</g>
</a>
<g transform="translate(64.1199, 18.4672)">
<rect x="-0.0611" y="-0.8081" width="0.1222" height="2.6038" ry="0.0364" fill="currentColor"/>
</g>
<a style="color:inherit;" xlink:href="textedit:///Users/marc.mouries/projects/Sheet-Music/Folk_Finland/Ievan-Polkka/Ievan-polkka-%28Dm%29.ly:33:10:11">
<g transform="translate(67.5010, 17.4672)">
<path transform="scale(0.0040, -0.0040)" d="M220 135c11 0 106 -2 106 -87c0 -89 -114 -183 -220 -183c-11 0 -106 2 -106 87c0 89 114 183 220 183z" fill="currentColor"/>
</g>
</a>
<g transform="translate(67.5621, 18.4672)">
<rect x="-0.0611" y="-0.8081" width="0.1222" height="3.3081" ry="0.0364" fill="currentColor"/>
</g>
<a style="color:inherit;" xlink:href="textedit:///Users/marc.mouries/projects/Sheet-Music/Folk_Finland/Ievan-Polkka/Ievan-polkka-%28Dm%29.ly:34:5:6">
<g transform="translate(76.0923, 15.4672)">
<path transform="scale(0.0040, -0.0040)" d="M220 135c11 0 106 -2 106 -87c0 -89 -114 -183 -220 -183c-11 0 -106 2 -106 87c0 89 114 183 220 183z" fill="currentColor"/>
</g>
</a>
<g transform="translate(76.1534, 18.4672)">
<rect x="-0.0611" y="-2.8081" width="0.1222" height="2.8115" ry="0.0364" fill="currentColor"/>
</g>
<a style="color:inherit;" xlink:href="textedit:///Users/marc.mouries/projects/Sheet-Music/Folk_Finland/Ievan-Polkka/Ievan-polkka-%28Dm%29.ly:34:9:10">
<g transform="translate(79.5345, 15.9672)">
<path transform="scale(0.0040, -0.0040)" d="M220 135c11 0 106 -2 106 -87c0 -89 -114 -183 -220 -183c-11 0 -106 2 -106 87c0 89 114 183 220 183z" fill="currentColor"/>
</g>
</a>
<g transform="translate(79.5957, 18.4672)">
<rect x="-0.0611" y="-2.3081" width="0.1222" height="2.4978" ry="0.0364" fill="currentColor"/>
</g>
<a style="color:inherit;" xlink:href="textedit:///Users/marc.mouries/projects/Sheet-Music/Folk_Finland/Ievan-Polkka/Ievan-polkka-%28Dm%29.ly:34:11:12">
<g transform="translate(82.9768, 16.4672)">
<path transform="scale(0.0040, -0.0040)" d="M220 135c11 0 106 -2 106 -87c0 -89 -114 -183 -220 -183c-11 0 -106 2 -106 87c0 89 114 183 220 183z" fill="currentColor"/>
</g>
</a>
<g transform="translate(83.0379, 18.4672)">
<rect x="-0.0611" y="-1.8081" width="0.1222" height="2.8115" ry="0.0364" fill="currentColor"/>
</g>
<a style="color:inherit;" xlink:href="textedit:///Users/marc.mouries/projects/Sheet-Music/Folk_Finland/Ievan-Polkka/Ievan-polkka-%28Dm%29.ly:34:14:15">
<g transform="translate(86.4191, 16.9672)">
<path transform="scale(0.0040, -0.0040)" d="M220 135c11 0 106 -2 106 -87c0 -89 -114 -183 -220 -183c-11 0 -106 2 -106 87c0 89 114 183 220 183z" fill="currentColor"/>
</g>
</a>
<g transform="translate(86.4802, 18.4672)">
<rect x="-0.0611" y="-1.3081" width="0.1222" height="2.4978" ry="0.0364" fill="currentColor"/>
</g>
<g transform="translate(97.9683, 18.4672)">
<rect x="-0.0611" y="-0.8081" width="0.1222" height="3.3081" ry="0.0364" fill="currentColor"/>
</g>
<a style="color:inherit;" xlink:href="textedit:///Users/marc.mouries/projects/Sheet-Music/Folk_Finland/Ievan-Polkka/Ievan-polkka-%28Dm%29.ly:35:5:6">
<g transform="translate(91.2727, 16.4672)">
<path transform="scale(0.0040, -0.0040)" d="M220 135c11 0 106 -2 106 -87c0 -89 -114 -183 -220 -183c-11 0 -106 2 -106 87c0 89 114 183 220 183z" fill="currentColor"/>
</g>
</a>
<g transform="translate(91.3338, 18.4672)">
<rect x="-0.0611" y="-1.8081" width="0.1222" height="3.0125" ry="0.0364" fill="currentColor"/>
</g>
<a style="color:inherit;" xlink:href="textedit:///Users/marc.mouries/projects/Sheet-Music/Folk_Finland/Ievan-Polkka/Ievan-polkka-%28Dm%29.ly:35:10:11">
<g transform="translate(97.9072, 17.4672)">
<path transform="scale(0.0040, -0.0040)" d="M220 135c11 0 106 -2 106 -87c0 -89 -114 -183 -220 -183c-11 0 -106 2 -106 87c0 89 114 183 220 183z" fill="currentColor"/>
</g>
</a>
<a style="color:inherit;" xlink:href="textedit:///Users/marc.mouries/projects/Sheet-Music/Folk_Finland/Ievan-Polkka/Ievan-polkka-%28Dm%29.ly:35:8:9">
<g transform="translate(94.4649, 17.4672)">
<path transform="scale(0.0040, -0.0040)" d="M220 135c11 0 106 -2 106 -87c0 -89 -114 -183 -220 -183c-11 0 -106 2 -106 87c0 89 114 183 220 183z" fill="currentColor"/>
</g>
</a>
<g transform="translate(94.5260, 18.4672)">
<rect x="-0.0611" y="-0.8081" width="0.1222" height="2.6038" ry="0.0364" fill="currentColor"/>
</g>
<g transform="translate(5.1732, 27.4672)">
<rect x="13.2976" y="-0.0970" width="1.9578" height="0.1940" ry="0.0970" fill="currentColor"/>
</g>
<g transform="translate(5.1732, 27.4672)">
<rect x="9.1885" y="-0.0970" width="1.9578" height="0.1940" ry="0.0970" fill="currentColor"/>
</g>
<g transform="translate(5.1732, 32.4672)">
<line stroke-linejoin="round" stroke-linecap="round" stroke-width="0.0940" stroke="currentColor" x1="0.0470" y1="0" x2="98.2443" y2="0"/>
</g>
<g transform="translate(5.1732, 31.4672)">
<line stroke-linejoin="round" stroke-linecap="round" stroke-width="0.0940" stroke="currentColor" x1="0.0470" y1="0" x2="98.2443" y2="0"/>
</g>
<g transform="translate(5.1732, 30.4672)">
<line stroke-linejoin="round" stroke-linecap="round" stroke-width="0.0940" stroke="currentColor" x1="0.0470" y1="0" x2="98.2443" y2="0"/>
</g>
<g transform="translate(5.1732, 29.4672)">
<line stroke-linejoin="round" stroke-linecap="round" stroke-width="0.0940" stroke="currentColor" x1="0.0470" y1="0" x2="98.2443" y2="0"/>
</g>
<g transform="translate(5.1732, 28.4672)">
<line stroke-linejoin="round" stroke-linecap="round" stroke-width="0.0940" stroke="currentColor" x1="0.0470" y1="0" x2="98.2443" y2="0"/>
</g>
<g transform="translate(103.2859, 30.4672)">
<rect x="0.0000" y="-2.0000" width="0.1786" height="4.0000" ry="0.0000" fill="currentColor"/>
</g>
<g transform="translate(85.3433, 29.9672)">
<path transform="scale(0.0040, -0.0040)" d="M0 0c0 31 26 57 57 57s56 -26 56 -57s-25 -57 -56 -57s-57 26 -57 57z" fill="currentColor"/>
</g>
<g transform="translate(85.3433, 30.9672)">
<path transform="scale(0.0040, -0.0040)" d="M0 0c0 31 26 57 57 57s56 -26 56 -57s-25 -57 -56 -57s-57 26 -57 57z" fill="currentColor"/>
</g>
<g transform="translate(86.5396, 30.4672)">
<rect x="0.0000" y="-2.0000" width="0.5642" height="4.0000" ry="0.0000" fill="currentColor"/>
</g>
<g transform="translate(86.0789, 30.4672)">
<rect x="0.0000" y="-2.0000" width="0.1786" height="4.0000" ry="0.0000" fill="currentColor"/>
</g>
<g transform="translate(67.0091, 30.4672)">
<rect x="0.0000" y="-2.0000" width="0.1786" height="4.0000" ry="0.0000" fill="currentColor"/>
</g>
<g transform="translate(48.9574, 30.4672)">
<rect x="0.0000" y="-2.0000" width="0.1786" height="4.0000" ry="0.0000" fill="currentColor"/>
</g>
<g transform="translate(30.8882, 30.4672)">
<rect x="0.0000" y="-2.0000" width="0.1786" height="4.0000" ry="0.0000" fill="currentColor"/>
</g>
<g transform="translate(12.7916, 29.9672)">
<path transform="scale(0.0040, -0.0040)" d="M0 0c0 31 26 57 57 57s56 -26 56 -57s-25 -57 -56 -57s-57 26 -57 57z" fill="currentColor"/>
</g>
<g transform="translate(12.7916, 30.9672)">
<path transform="scale(0.0040, -0.0040)" d="M0 0c0 31 26 57 57 57s56 -26 56 -57s-25 -57 -56 -57s-57 26 -57 57z" fill="currentColor"/>
</g>
<g transform="translate(12.3309, 30.4672)">
<rect x="0.0000" y="-2.0000" width="0.1786" height="4.0000" ry="0.0000" fill="currentColor"/>
</g>
<g transform="translate(11.4846, 30.4672)">
<rect x="0.0000" y="-2.0000" width="0.5642" height="4.0000" ry="0.0000" fill="currentColor"/>
</g>
<g transform="translate(87.9534, 27.1049)">
<g>
<path transform="scale(0.0025, -0.0025)" d="M92 66c-60 0 -41 -66 -72 -66c-10 0 -20 7 -20 20c0 154 232 163 232 335c0 51 -18 105 -63 105c-29 0 -58 -14 -58 -40s34 -39 34 -65c0 -36 -30 -66 -66 -66s-65 30 -65 66c0 82 71 145 155 145c97 0 188 -56 188 -145c0 -142 -135 -154 -229 -208h2
c86 0 116 -61 169 -61c45 0 29 39 56 39c10 0 21 -7 21 -19c0 -27 -46 -106 -141 -106c-91 0 -96 66 -143 66z" fill="currentColor"/>

<path transform="translate(0.9622, 0.0000) scale(0.0025, -0.0025)" d="M0 55c0 30 25 55 55 55s55 -25 55 -55s-25 -55 -55 -55s-55 25 -55 55z" fill="currentColor"/>
</g>
</g>
<g transform="translate(86.0789, 25.3449)">
<line stroke-linejoin="round" stroke-linecap="round" stroke-width="0.1504" stroke="currentColor" x1="17.3104" y1="-0.0000" x2="17.3104" y2="-0.0000"/>
</g>
<g transform="translate(86.0789, 25.3449)">
<line stroke-linejoin="round" stroke-linecap="round" stroke-width="0.1504" stroke="currentColor" x1="0.9497" y1="-0.0000" x2="0.9497" y2="2.0000"/>
</g>
<g transform="translate(86.0789, 25.3449)">
<line stroke-linejoin="round" stroke-linecap="round" stroke-width="0.1504" stroke="currentColor" x1="0.9497" y1="-0.0000" x2="17.3104" y2="-0.0000"/>
</g>
<g transform="translate(5.9732, 31.4672)">
<path transform="scale(0.0040, -0.0040)" d="M267 -593l-1 -41h-5c-108 0 -196 88 -196 196c0 58 54 104 113 104c54 0 95 -48 95 -104c0 -52 -43 -95 -95 -95c-11 0 -23 3 -34 8c26 -40 69 -68 119 -68h4zM644 2c0 -112 -73 -212 -180 -245c3 -35 5 -71 5 -107c0 -19 -1 -38 -2 -57c-7 -119 -87 -224 -201 -227l1 41
c43 1 161 25 161 246c0 31 -1 63 -4 94c-5 -1 -44 -8 -89 -8c-193 0 -333 179 -333 373c0 177 132 307 249 441c-28 95 -50 169 -50 345c0 116 56 226 150 294c5 4 13 3 18 -1c67 -81 132 -245 132 -358c0 -143 -86 -255 -181 -364c20 -69 38 -138 55 -208c2 0 7 1 14 1
c155 0 255 -128 255 -260zM460 -204c70 24 115 91 115 165c0 91 -68 182 -176 192c19 -89 48 -246 61 -357zM73 30c0 -146 141 -250 265 -250c1 0 47 0 82 6c-7 63 -29 202 -64 366c-79 -9 -124 -62 -124 -120c0 -44 26 -91 82 -123c5 -4 6 -10 6 -15c0 -11 -9 -21 -21 -21
c-15 0 -125 61 -125 186c0 88 58 173 159 196c-14 59 -30 119 -46 177c-107 -121 -214 -242 -214 -402zM431 915c0 34 0 66 -21 132c-99 -49 -162 -150 -162 -260c0 -56 12 -119 35 -197c81 97 148 199 148 325z" fill="currentColor"/>
</g>
<g transform="translate(9.5846, 30.4672)">
<path transform="scale(0.0040, -0.0040)" d="M26 43l-1 -68v-11c0 -22 0 -44 3 -66c46 38 95 80 95 139c0 34 -14 68 -44 68c-31 0 -52 -29 -53 -62zM-14 -137l-12 598c8 5 17 6 26 6s18 -1 26 -6l-7 -348c25 20 57 32 90 32c52 0 91 -47 91 -101c0 -81 -88 -118 -150 -169c-15 -12 -22 -35 -42 -35
c-12 0 -22 10 -22 23z" fill="currentColor"/>
</g>
<g transform="translate(4.3041, 27.3963)">
<text font-family="serif" font-size="1.7465" text-anchor="start" fill="currentColor">
<tspan>7</tspan>
</text>
</g>
<g transform="translate(88.6053, 31.6601)">
<polygon stroke-linejoin="round" stroke-linecap="round" stroke-width="0.0727" fill="currentColor" stroke="currentColor" points="3.9450 0.4104 3.9450 0.8177 0.0364 0.2036 0.0364 -0.2036"/>
</g>
<a style="color:inherit;" xlink:href="textedit:///Users/marc.mouries/projects/Sheet-Music/Folk_Finland/Ievan-Polkka/Ievan-polkka-%28Dm%29.ly:39:5:6">
<g transform="translate(14.6880, 27.4672)">
<path transform="scale(0.0040, -0.0040)" d="M220 135c11 0 106 -2 106 -87c0 -89 -114 -183 -220 -183c-11 0 -106 2 -106 87c0 89 114 183 220 183z" fill="currentColor"/>
</g>
</a>
<g transform="translate(14.7492, 30.4672)">
<rect x="-0.0611" y="-2.8081" width="0.1222" height="2.8081" ry="0.0364" fill="currentColor"/>
</g>
<g transform="translate(76.8750, 32.2742)">
<polygon stroke-linejoin="round" stroke-linecap="round" stroke-width="0.0727" fill="currentColor" stroke="currentColor" points="4.4450 -0.8177 4.4450 -0.4104 0.0364 0.2036 0.0364 -0.2036"/>
</g>
<a style="color:inherit;" xlink:href="textedit:///Users/marc.mouries/projects/Sheet-Music/Folk_Finland/Ievan-Polkka/Ievan-polkka-%28Dm%29.ly:39:9:10">
<g transform="translate(18.7971, 27.4672)">
<path transform="scale(0.0040, -0.0040)" d="M220 135c11 0 106 -2 106 -87c0 -89 -114 -183 -220 -183c-11 0 -106 2 -106 87c0 89 114 183 220 183z" fill="currentColor"/>
</g>
</a>
<g transform="translate(18.8583, 30.4672)">
<rect x="-0.0611" y="-2.8081" width="0.1222" height="2.8081" ry="0.0364" fill="currentColor"/>
</g>
<g transform="translate(68.9068, 31.6601)">
<polygon stroke-linejoin="round" stroke-linecap="round" stroke-width="0.0727" fill="currentColor" stroke="currentColor" points="3.9450 0.4104 3.9450 0.8177 0.0364 0.2036 0.0364 -0.2036"/>
</g>
<a style="color:inherit;" xlink:href="textedit:///Users/marc.mouries/projects/Sheet-Music/Folk_Finland/Ievan-Polkka/Ievan-polkka-%28Dm%29.ly:39:11:12">
<g transform="translate(22.9063, 27.9672)">
<path transform="scale(0.0040, -0.0040)" d="M220 135c11 0 106 -2 106 -87c0 -89 -114 -183 -220 -183c-11 0 -106 2 -106 87c0 89 114 183 220 183z" fill="currentColor"/>
</g>
</a>
<g transform="translate(22.9674, 30.4672)">
<rect x="-0.0611" y="-2.3081" width="0.1222" height="3.1179" ry="0.0364" fill="currentColor"/>
</g>
<g transform="translate(59.0272, 31.4672)">
<polygon stroke-linejoin="round" stroke-linecap="round" stroke-width="0.0727" fill="currentColor" stroke="currentColor" points="4.1950 -0.0106 4.1950 0.3966 0.0364 0.2036 0.0364 -0.2036"/>
</g>
<a style="color:inherit;" xlink:href="textedit:///Users/marc.mouries/projects/Sheet-Music/Folk_Finland/Ievan-Polkka/Ievan-polkka-%28Dm%29.ly:39:13:14">
<g transform="translate(27.0154, 28.4672)">
<path transform="scale(0.0040, -0.0040)" d="M220 135c11 0 106 -2 106 -87c0 -89 -114 -183 -220 -183c-11 0 -106 2 -106 87c0 89 114 183 220 183z" fill="currentColor"/>
</g>
</a>
<g transform="translate(27.0765, 30.4672)">
<rect x="-0.0611" y="-1.8081" width="0.1222" height="2.8054" ry="0.0364" fill="currentColor"/>
</g>
<g transform="translate(68.0373, 27.1175)">
<g>
<path transform="scale(0.0025, -0.0025)" d="M188 487c16 0 29 14 40 14c12 0 22 -14 22 -30v-346c0 -46 35 -85 79 -85c13 0 20 -10 20 -20s-7 -20 -20 -20c-47 0 -94 13 -141 13s-94 -13 -141 -13c-13 0 -20 10 -20 20s7 20 20 20c44 0 78 39 78 85v150c0 21 -15 33 -28 33c-7 0 -14 -3 -17 -10l-35 -71
c-5 -10 -14 -14 -22 -14c-13 0 -26 11 -26 25c0 4 1 8 3 12l125 250c2 4 6 5 10 5c17 0 36 -18 53 -18z" fill="currentColor"/>

<path transform="translate(0.9312, 0.0000) scale(0.0025, -0.0025)" d="M0 55c0 30 25 55 55 55s55 -25 55 -55s-25 -55 -55 -55s-55 25 -55 55z" fill="currentColor"/>
</g>
</g>
<g transform="translate(67.0091, 25.3449)">
<line stroke-linejoin="round" stroke-linecap="round" stroke-width="0.1504" stroke="currentColor" x1="19.1450" y1="-0.0000" x2="19.1450" y2="2.0000"/>
</g>
<g transform="translate(67.0091, 25.3449)">
<line stroke-linejoin="round" stroke-linecap="round" stroke-width="0.1504" stroke="currentColor" x1="0.1034" y1="-0.0000" x2="0.1034" y2="2.0000"/>
</g>
<g transform="translate(67.0091, 25.3449)">
<line stroke-linejoin="round" stroke-linecap="round" stroke-width="0.1504" stroke="currentColor" x1="0.1034" y1="-0.0000" x2="19.1450" y2="-0.0000"/>
</g>
<g transform="translate(50.8090, 31.2742)">
<polygon stroke-linejoin="round" stroke-linecap="round" stroke-width="0.0727" fill="currentColor" stroke="currentColor" points="4.1950 -0.2036 4.1950 0.2036 0.0364 0.2036 0.0364 -0.2036"/>
</g>
<a style="color:inherit;" xlink:href="textedit:///Users/marc.mouries/projects/Sheet-Music/Folk_Finland/Ievan-Polkka/Ievan-polkka-%28Dm%29.ly:40:5:6">
<g transform="translate(32.7573, 28.9672)">
<path transform="scale(0.0040, -0.0040)" d="M220 135c11 0 106 -2 106 -87c0 -89 -114 -183 -220 -183c-11 0 -106 2 -106 87c0 89 114 183 220 183z" fill="currentColor"/>
</g>
</a>
<g transform="translate(32.8184, 30.4672)">
<rect x="-0.0611" y="-1.3081" width="0.1222" height="3.5106" ry="0.0364" fill="currentColor"/>
</g>
<g transform="translate(40.7255, 33.2742)">
<polygon stroke-linejoin="round" stroke-linecap="round" stroke-width="0.0727" fill="currentColor" stroke="currentColor" points="4.4450 -0.8177 4.4450 -0.4104 0.0364 0.2036 0.0364 -0.2036"/>
</g>
<a style="color:inherit;" xlink:href="textedit:///Users/marc.mouries/projects/Sheet-Music/Folk_Finland/Ievan-Polkka/Ievan-polkka-%28Dm%29.ly:40:8:9">
<g transform="translate(36.6164, 29.9672)">
<path transform="scale(0.0040, -0.0040)" d="M220 135c11 0 106 -2 106 -87c0 -89 -114 -183 -220 -183c-11 0 -106 2 -106 87c0 89 114 183 220 183z" fill="currentColor"/>
</g>
</a>
<g transform="translate(36.6775, 30.4672)">
<rect x="-0.0611" y="-0.3081" width="0.1222" height="3.1057" ry="0.0364" fill="currentColor"/>
</g>
<g transform="translate(32.7573, 32.6601)">
<polygon stroke-linejoin="round" stroke-linecap="round" stroke-width="0.0727" fill="currentColor" stroke="currentColor" points="3.9450 0.4104 3.9450 0.8177 0.0364 0.2036 0.0364 -0.2036"/>
</g>
<a style="color:inherit;" xlink:href="textedit:///Users/marc.mouries/projects/Sheet-Music/Folk_Finland/Ievan-Polkka/Ievan-polkka-%28Dm%29.ly:40:10:11">
<g transform="translate(40.7255, 29.9672)">
<path transform="scale(0.0040, -0.0040)" d="M220 135c11 0 106 -2 106 -87c0 -89 -114 -183 -220 -183c-11 0 -106 2 -106 87c0 89 114 183 220 183z" fill="currentColor"/>
</g>
</a>
<g transform="translate(40.7866, 30.4672)">
<rect x="-0.0611" y="-0.3081" width="0.1222" height="3.1068" ry="0.0364" fill="currentColor"/>
</g>
<g transform="translate(22.9063, 31.2742)">
<polygon stroke-linejoin="round" stroke-linecap="round" stroke-width="0.0727" fill="currentColor" stroke="currentColor" points="4.1950 -0.0106 4.1950 0.3966 0.0364 0.2036 0.0364 -0.2036"/>
</g>
<a style="color:inherit;" xlink:href="textedit:///Users/marc.mouries/projects/Sheet-Music/Folk_Finland/Ievan-Polkka/Ievan-polkka-%28Dm%29.ly:40:12:13">
<g transform="translate(45.0846, 28.9672)">
<path transform="scale(0.0040, -0.0040)" d="M220 135c11 0 106 -2 106 -87c0 -89 -114 -183 -220 -183c-11 0 -106 2 -106 87c0 89 114 183 220 183z" fill="currentColor"/>
</g>
</a>
<g transform="translate(45.1457, 30.4672)">
<rect x="-0.0611" y="-1.3081" width="0.1222" height="3.5095" ry="0.0364" fill="currentColor"/>
</g>
<g transform="translate(14.6880, 30.4672)">
<polygon stroke-linejoin="round" stroke-linecap="round" stroke-width="0.0727" fill="currentColor" stroke="currentColor" points="4.1950 -0.2036 4.1950 0.2036 0.0364 0.2036 0.0364 -0.2036"/>
</g>
<a style="color:inherit;" xlink:href="textedit:///Users/marc.mouries/projects/Sheet-Music/Folk_Finland/Ievan-Polkka/Ievan-polkka-%28Dm%29.ly:41:5:6">
<g transform="translate(50.8090, 27.9672)">
<path transform="scale(0.0040, -0.0040)" d="M220 135c11 0 106 -2 106 -87c0 -89 -114 -183 -220 -183c-11 0 -106 2 -106 87c0 89 114 183 220 183z" fill="currentColor"/>
</g>
</a>
<g transform="translate(50.8701, 30.4672)">
<rect x="-0.0611" y="-2.3081" width="0.1222" height="3.1152" ry="0.0364" fill="currentColor"/>
</g>
<a style="color:inherit;" xlink:href="textedit:///Users/marc.mouries/projects/Sheet-Music/Folk_Finland/Ievan-Polkka/Ievan-polkka-%28Dm%29.ly:41:8:9">
<g transform="translate(54.9181, 27.9672)">
<path transform="scale(0.0040, -0.0040)" d="M220 135c11 0 106 -2 106 -87c0 -89 -114 -183 -220 -183c-11 0 -106 2 -106 87c0 89 114 183 220 183z" fill="currentColor"/>
</g>
</a>
<g transform="translate(54.9792, 30.4672)">
<rect x="-0.0611" y="-2.3081" width="0.1222" height="3.1152" ry="0.0364" fill="currentColor"/>
</g>
<a style="color:inherit;" xlink:href="textedit:///Users/marc.mouries/projects/Sheet-Music/Folk_Finland/Ievan-Polkka/Ievan-polkka-%28Dm%29.ly:41:10:11">
<g transform="translate(59.0272, 28.4672)">
<path transform="scale(0.0040, -0.0040)" d="M220 135c11 0 106 -2 106 -87c0 -89 -114 -183 -220 -183c-11 0 -106 2 -106 87c0 89 114 183 220 183z" fill="currentColor"/>
</g>
</a>
<g transform="translate(59.0883, 30.4672)">
<rect x="-0.0611" y="-1.8081" width="0.1222" height="2.8109" ry="0.0364" fill="currentColor"/>
</g>
<a style="color:inherit;" xlink:href="textedit:///Users/marc.mouries/projects/Sheet-Music/Folk_Finland/Ievan-Polkka/Ievan-polkka-%28Dm%29.ly:41:12:13">
<g transform="translate(63.1363, 28.9672)">
<path transform="scale(0.0040, -0.0040)" d="M220 135c11 0 106 -2 106 -87c0 -89 -114 -183 -220 -183c-11 0 -106 2 -106 87c0 89 114 183 220 183z" fill="currentColor"/>
</g>
</a>
<g transform="translate(63.1974, 30.4672)">
<rect x="-0.0611" y="-1.3081" width="0.1222" height="2.4983" ry="0.0364" fill="currentColor"/>
</g>
<a style="color:inherit;" xlink:href="textedit:///Users/marc.mouries/projects/Sheet-Music/Folk_Finland/Ievan-Polkka/Ievan-polkka-%28Dm%29.ly:44:5:6">
<g transform="translate(68.9068, 28.4672)">
<path transform="scale(0.0040, -0.0040)" d="M220 135c11 0 106 -2 106 -87c0 -89 -114 -183 -220 -183c-11 0 -106 2 -106 87c0 89 114 183 220 183z" fill="currentColor"/>
</g>
</a>
<g transform="translate(68.9680, 30.4672)">
<rect x="-0.0611" y="-1.8081" width="0.1222" height="3.0106" ry="0.0364" fill="currentColor"/>
</g>
<a style="color:inherit;" xlink:href="textedit:///Users/marc.mouries/projects/Sheet-Music/Folk_Finland/Ievan-Polkka/Ievan-polkka-%28Dm%29.ly:44:8:9">
<g transform="translate(72.7659, 29.4672)">
<path transform="scale(0.0040, -0.0040)" d="M220 135c11 0 106 -2 106 -87c0 -89 -114 -183 -220 -183c-11 0 -106 2 -106 87c0 89 114 183 220 183z" fill="currentColor"/>
</g>
</a>
<g transform="translate(72.8271, 30.4672)">
<rect x="-0.0611" y="-0.8081" width="0.1222" height="2.6057" ry="0.0364" fill="currentColor"/>
</g>
<a style="color:inherit;" xlink:href="textedit:///Users/marc.mouries/projects/Sheet-Music/Folk_Finland/Ievan-Polkka/Ievan-polkka-%28Dm%29.ly:44:10:11">
<g transform="translate(76.8750, 29.4672)">
<path transform="scale(0.0040, -0.0040)" d="M220 135c11 0 106 -2 106 -87c0 -89 -114 -183 -220 -183c-11 0 -106 2 -106 87c0 89 114 183 220 183z" fill="currentColor"/>
</g>
</a>
<g transform="translate(76.9362, 30.4672)">
<rect x="-0.0611" y="-0.8081" width="0.1222" height="2.6068" ry="0.0364" fill="currentColor"/>
</g>
<a style="color:inherit;" xlink:href="textedit:///Users/marc.mouries/projects/Sheet-Music/Folk_Finland/Ievan-Polkka/Ievan-polkka-%28Dm%29.ly:44:12:13">
<g transform="translate(81.2342, 28.4672)">
<path transform="scale(0.0040, -0.0040)" d="M220 135c11 0 106 -2 106 -87c0 -89 -114 -183 -220 -183c-11 0 -106 2 -106 87c0 89 114 183 220 183z" fill="currentColor"/>
</g>
</a>
<g transform="translate(81.2953, 30.4672)">
<rect x="-0.0611" y="-1.8081" width="0.1222" height="3.0095" ry="0.0364" fill="currentColor"/>
</g>
<a style="color:inherit;" xlink:href="textedit:///Users/marc.mouries/projects/Sheet-Music/Folk_Finland/Ievan-Polkka/Ievan-polkka-%28Dm%29.ly:45:5:6">
<g transform="translate(88.6053, 28.4672)">
<path transform="scale(0.0040, -0.0040)" d="M220 135c11 0 106 -2 106 -87c0 -89 -114 -183 -220 -183c-11 0 -106 2 -106 87c0 89 114 183 220 183z" fill="currentColor"/>
</g>
</a>
<g transform="translate(88.6664, 30.4672)">
<rect x="-0.0611" y="-1.8081" width="0.1222" height="3.0106" ry="0.0364" fill="currentColor"/>
</g>
<a style="color:inherit;" xlink:href="textedit:///Users/marc.mouries/projects/Sheet-Music/Folk_Finland/Ievan-Polkka/Ievan-polkka-%28Dm%29.ly:45:8:9">
<g transform="translate(92.4644, 29.4672)">
<path transform="scale(0.0040, -0.0040)" d="M220 135c11 0 106 -2 106 -87c0 -89 -114 -183 -220 -183c-11 0 -106 2 -106 87c0 89 114 183 220 183z" fill="currentColor"/>
</g>
</a>
<g transform="translate(92.5255, 30.4672)">
<rect x="-0.0611" y="-0.8081" width="0.1222" height="2.6057" ry="0.0364" fill="currentColor"/>
</g>
<a style="color:inherit;" xlink:href="textedit:///Users/marc.mouries/projects/Sheet-Music/Folk_Finland/Ievan-Polkka/Ievan-polkka-%28Dm%29.ly:45:10:11">
<g transform="translate(96.5735, 29.4672)">
<path transform="scale(0.0040, -0.0040)" d="M220 135c11 0 106 -2 106 -87c0 -89 -114 -183 -220 -183c-11 0 -106 2 -106 87c0 89 114 183 220 183z" fill="currentColor"/>
</g>
</a>
<g transform="translate(96.6346, 30.4672)">
<rect x="-0.0611" y="-0.8081" width="0.1222" height="3.3081" ry="0.0364" fill="currentColor"/>
</g>
<g transform="translate(5.1732, 44.4672)">
<line stroke-linejoin="round" stroke-linecap="round" stroke-width="0.0940" stroke="currentColor" x1="0.0470" y1="0" x2="98.2443" y2="0"/>
</g>
<g transform="translate(5.1732, 43.4672)">
<line stroke-linejoin="round" stroke-linecap="round" stroke-width="0.0940" stroke="currentColor" x1="0.0470" y1="0" x2="98.2443" y2="0"/>
</g>
<g transform="translate(5.1732, 42.4672)">
<line stroke-linejoin="round" stroke-linecap="round" stroke-width="0.0940" stroke="currentColor" x1="0.0470" y1="0" x2="98.2443" y2="0"/>
</g>
<g transform="translate(5.1732, 41.4672)">
<line stroke-linejoin="round" stroke-linecap="round" stroke-width="0.0940" stroke="currentColor" x1="0.0470" y1="0" x2="98.2443" y2="0"/>
</g>
<g transform="translate(5.1732, 40.4672)">
<line stroke-linejoin="round" stroke-linecap="round" stroke-width="0.0940" stroke="currentColor" x1="0.0470" y1="0" x2="98.2443" y2="0"/>
</g>
<g transform="translate(101.7040, 41.9672)">
<path transform="scale(0.0040, -0.0040)" d="M0 0c0 31 26 57 57 57s56 -26 56 -57s-25 -57 -56 -57s-57 26 -57 57z" fill="currentColor"/>
</g>
<g transform="translate(101.7040, 42.9672)">
<path transform="scale(0.0040, -0.0040)" d="M0 0c0 31 26 57 57 57s56 -26 56 -57s-25 -57 -56 -57s-57 26 -57 57z" fill="currentColor"/>
</g>
<g transform="translate(102.9004, 42.4672)">
<rect x="0.0000" y="-2.0000" width="0.5642" height="4.0000" ry="0.0000" fill="currentColor"/>
</g>
<g transform="translate(102.4397, 42.4672)">
<rect x="0.0000" y="-2.0000" width="0.1786" height="4.0000" ry="0.0000" fill="currentColor"/>
</g>
<g transform="translate(92.1192, 42.4672)">
<rect x="0.0000" y="-2.0000" width="0.1786" height="4.0000" ry="0.0000" fill="currentColor"/>
</g>
<g transform="translate(79.9280, 42.4672)">
<rect x="0.0000" y="-2.0000" width="0.1786" height="4.0000" ry="0.0000" fill="currentColor"/>
</g>
<g transform="translate(70.5438, 42.4672)">
<rect x="0.0000" y="-2.0000" width="0.1786" height="4.0000" ry="0.0000" fill="currentColor"/>
</g>
<g transform="translate(59.5987, 42.4672)">
<rect x="0.0000" y="-2.0000" width="0.1786" height="4.0000" ry="0.0000" fill="currentColor"/>
</g>
<g transform="translate(12.7916, 41.9672)">
<path transform="scale(0.0040, -0.0040)" d="M0 0c0 31 26 57 57 57s56 -26 56 -57s-25 -57 -56 -57s-57 26 -57 57z" fill="currentColor"/>
</g>
<g transform="translate(12.7916, 42.9672)">
<path transform="scale(0.0040, -0.0040)" d="M0 0c0 31 26 57 57 57s56 -26 56 -57s-25 -57 -56 -57s-57 26 -57 57z" fill="currentColor"/>
</g>
<g transform="translate(12.3309, 42.4672)">
<rect x="0.0000" y="-2.0000" width="0.1786" height="4.0000" ry="0.0000" fill="currentColor"/>
</g>
<g transform="translate(11.4846, 42.4672)">
<rect x="0.0000" y="-2.0000" width="0.5642" height="4.0000" ry="0.0000" fill="currentColor"/>
</g>
<g transform="translate(46.1918, 42.4672)">
<rect x="0.0000" y="-2.0000" width="0.1786" height="4.0000" ry="0.0000" fill="currentColor"/>
</g>
<g transform="translate(35.3167, 42.4672)">
<rect x="0.0000" y="-2.0000" width="0.1786" height="4.0000" ry="0.0000" fill="currentColor"/>
</g>
<g transform="translate(24.4268, 42.4672)">
<rect x="0.0000" y="-2.0000" width="0.1786" height="4.0000" ry="0.0000" fill="currentColor"/>
</g>
<g transform="translate(93.4003, 43.6601)">
<polygon stroke-linejoin="round" stroke-linecap="round" stroke-width="0.0727" fill="currentColor" stroke="currentColor" points="2.3006 0.4104 2.3006 0.8177 0.0364 0.2036 0.0364 -0.2036"/>
</g>
<a style="color:inherit;" xlink:href="textedit:///Users/marc.mouries/projects/Sheet-Music/Folk_Finland/Ievan-Polkka/Ievan-polkka-%28Dm%29.ly:49:6:7">
<g transform="translate(14.7056, 41.4672)">
<path transform="scale(0.0040, -0.0040)" d="M220 135c11 0 106 -2 106 -87c0 -89 -114 -183 -220 -183c-11 0 -106 2 -106 87c0 89 114 183 220 183z" fill="currentColor"/>
</g>
</a>
<g transform="translate(16.4644, 40.9672)">
<path transform="scale(0.0040, -0.0040)" d="M0 0c0 31 26 57 57 57s56 -26 56 -57s-25 -57 -56 -57s-57 26 -57 57z" fill="currentColor"/>
</g>
<g transform="translate(14.7668, 42.4672)">
<rect x="-0.0611" y="-0.8081" width="0.1222" height="2.8081" ry="0.0364" fill="currentColor"/>
</g>
<g transform="translate(87.4261, 43.4672)">
<polygon stroke-linejoin="round" stroke-linecap="round" stroke-width="0.0727" fill="currentColor" stroke="currentColor" points="2.5506 -0.0106 2.5506 0.3966 0.0364 0.2036 0.0364 -0.2036"/>
</g>
<a style="color:inherit;" xlink:href="textedit:///Users/marc.mouries/projects/Sheet-Music/Folk_Finland/Ievan-Polkka/Ievan-polkka-%28Dm%29.ly:49:10:11">
<g transform="translate(17.8487, 41.4672)">
<path transform="scale(0.0040, -0.0040)" d="M220 135c11 0 106 -2 106 -87c0 -89 -114 -183 -220 -183c-11 0 -106 2 -106 87c0 89 114 183 220 183z" fill="currentColor"/>
</g>
</a>
<g transform="translate(17.9098, 42.4672)">
<rect x="-0.0611" y="-0.8081" width="0.1222" height="2.8081" ry="0.0364" fill="currentColor"/>
</g>
<g transform="translate(83.6562, 42.4672)">
<polygon stroke-linejoin="round" stroke-linecap="round" stroke-width="0.0727" fill="currentColor" stroke="currentColor" points="1.9708 -0.2036 1.9708 0.2036 0.0364 0.2036 0.0364 -0.2036"/>
</g>
<g transform="translate(81.1915, 43.2742)">
<polygon stroke-linejoin="round" stroke-linecap="round" stroke-width="0.0727" fill="currentColor" stroke="currentColor" points="4.4355 -0.2036 4.4355 0.2036 0.0364 0.2036 0.0364 -0.2036"/>
</g>
<a style="color:inherit;" xlink:href="textedit:///Users/marc.mouries/projects/Sheet-Music/Folk_Finland/Ievan-Polkka/Ievan-polkka-%28Dm%29.ly:49:14:15">
<g transform="translate(19.7336, 41.4672)">
<path transform="scale(0.0040, -0.0040)" d="M220 135c11 0 106 -2 106 -87c0 -89 -114 -183 -220 -183c-11 0 -106 2 -106 87c0 89 114 183 220 183z" fill="currentColor"/>
</g>
</a>
<g transform="translate(19.7947, 42.4672)">
<rect x="-0.0611" y="-0.8081" width="0.1222" height="2.8036" ry="0.0364" fill="currentColor"/>
</g>
<g transform="translate(71.8249, 43.6601)">
<polygon stroke-linejoin="round" stroke-linecap="round" stroke-width="0.0727" fill="currentColor" stroke="currentColor" points="2.3006 0.4104 2.3006 0.8177 0.0364 0.2036 0.0364 -0.2036"/>
</g>
<a style="color:inherit;" xlink:href="textedit:///Users/marc.mouries/projects/Sheet-Music/Folk_Finland/Ievan-Polkka/Ievan-polkka-%28Dm%29.ly:49:17:18">
<g transform="translate(22.1983, 40.9672)">
<path transform="scale(0.0040, -0.0040)" d="M220 135c11 0 106 -2 106 -87c0 -89 -114 -183 -220 -183c-11 0 -106 2 -106 87c0 89 114 183 220 183z" fill="currentColor"/>
</g>
</a>
<g transform="translate(22.2594, 42.4672)">
<rect x="-0.0611" y="-1.3081" width="0.1222" height="3.1197" ry="0.0364" fill="currentColor"/>
</g>
<g transform="translate(65.8506, 44.4672)">
<polygon stroke-linejoin="round" stroke-linecap="round" stroke-width="0.0727" fill="currentColor" stroke="currentColor" points="2.5506 -0.3966 2.5506 0.0106 0.0364 0.2036 0.0364 -0.2036"/>
</g>
<g transform="translate(62.9268, 43.6601)">
<polygon stroke-linejoin="round" stroke-linecap="round" stroke-width="0.0727" fill="currentColor" stroke="currentColor" points="1.1248 -0.2036 1.1248 0.2036 0.0364 0.2036 0.0364 -0.2036"/>
</g>
<g transform="translate(60.8227, 44.4672)">
<polygon stroke-linejoin="round" stroke-linecap="round" stroke-width="0.0727" fill="currentColor" stroke="currentColor" points="3.2289 -0.2036 3.2289 0.2036 0.0364 0.2036 0.0364 -0.2036"/>
</g>
<a style="color:inherit;" xlink:href="textedit:///Users/marc.mouries/projects/Sheet-Music/Folk_Finland/Ievan-Polkka/Ievan-polkka-%28Dm%29.ly:49:23:24">
<g transform="translate(25.7078, 40.4672)">
<path transform="scale(0.0040, -0.0040)" d="M220 135c11 0 106 -2 106 -87c0 -89 -114 -183 -220 -183c-11 0 -106 2 -106 87c0 89 114 183 220 183z" fill="currentColor"/>
</g>
</a>
<g transform="translate(3.4350, 39.4201)">
<text font-family="serif" font-size="1.7465" text-anchor="start" fill="currentColor">
<tspan>12</tspan>
</text>
</g>
<g transform="translate(25.7690, 42.4672)">
<rect x="-0.0611" y="-1.8081" width="0.1222" height="3.0172" ry="0.0364" fill="currentColor"/>
</g>
<g transform="translate(55.0127, 44.6601)">
<polygon stroke-linejoin="round" stroke-linecap="round" stroke-width="0.0727" fill="currentColor" stroke="currentColor" points="2.3006 0.6034 2.3006 1.0106 0.0364 0.2036 0.0364 -0.2036"/>
</g>
<a style="color:inherit;" xlink:href="textedit:///Users/marc.mouries/projects/Sheet-Music/Folk_Finland/Ievan-Polkka/Ievan-polkka-%28Dm%29.ly:49:25:26">
<g transform="translate(27.9226, 41.4672)">
<path transform="scale(0.0040, -0.0040)" d="M220 135c11 0 106 -2 106 -87c0 -89 -114 -183 -220 -183c-11 0 -106 2 -106 87c0 89 114 183 220 183z" fill="currentColor"/>
</g>
</a>
<g transform="translate(27.9837, 42.4672)">
<rect x="-0.0611" y="-0.8081" width="0.1222" height="2.5991" ry="0.0364" fill="currentColor"/>
</g>
<g transform="translate(47.4729, 43.6601)">
<polygon stroke-linejoin="round" stroke-linecap="round" stroke-width="0.0727" fill="currentColor" stroke="currentColor" points="5.7407 0.6034 5.7407 1.0106 0.0364 0.2036 0.0364 -0.2036"/>
</g>
<g transform="translate(47.4729, 44.4672)">
<polygon stroke-linejoin="round" stroke-linecap="round" stroke-width="0.0727" fill="currentColor" stroke="currentColor" points="5.7407 0.6034 5.7407 1.0106 0.0364 0.2036 0.0364 -0.2036"/>
</g>
<a style="color:inherit;" xlink:href="textedit:///Users/marc.mouries/projects/Sheet-Music/Folk_Finland/Ievan-Polkka/Ievan-polkka-%28Dm%29.ly:49:27:28">
<g transform="translate(30.3873, 41.4672)">
<path transform="scale(0.0040, -0.0040)" d="M220 135c11 0 106 -2 106 -87c0 -89 -114 -183 -220 -183c-11 0 -106 2 -106 87c0 89 114 183 220 183z" fill="currentColor"/>
</g>
</a>
<g transform="translate(30.4484, 42.4672)">
<rect x="-0.0611" y="-0.8081" width="0.1222" height="2.6019" ry="0.0364" fill="currentColor"/>
</g>
<g transform="translate(41.2487, 45.2742)">
<polygon stroke-linejoin="round" stroke-linecap="round" stroke-width="0.0727" fill="currentColor" stroke="currentColor" points="2.8006 -0.8177 2.8006 -0.4104 0.0364 0.2036 0.0364 -0.2036"/>
</g>
<a style="color:inherit;" xlink:href="textedit:///Users/marc.mouries/projects/Sheet-Music/Folk_Finland/Ievan-Polkka/Ievan-polkka-%28Dm%29.ly:49:29:30">
<g transform="translate(33.1020, 40.4672)">
<path transform="scale(0.0040, -0.0040)" d="M220 135c11 0 106 -2 106 -87c0 -89 -114 -183 -220 -183c-11 0 -106 2 -106 87c0 89 114 183 220 183z" fill="currentColor"/>
</g>
</a>
<g transform="translate(33.1631, 42.4672)">
<rect x="-0.0611" y="-1.8081" width="0.1222" height="3.0144" ry="0.0364" fill="currentColor"/>
</g>
<g transform="translate(36.5692, 44.6601)">
<polygon stroke-linejoin="round" stroke-linecap="round" stroke-width="0.0727" fill="currentColor" stroke="currentColor" points="2.3006 0.4104 2.3006 0.8177 0.0364 0.2036 0.0364 -0.2036"/>
</g>
<g transform="translate(30.3873, 44.2742)">
<polygon stroke-linejoin="round" stroke-linecap="round" stroke-width="0.0727" fill="currentColor" stroke="currentColor" points="2.8006 -0.8177 2.8006 -0.4104 0.0364 0.2036 0.0364 -0.2036"/>
</g>
<a style="color:inherit;" xlink:href="textedit:///Users/marc.mouries/projects/Sheet-Music/Folk_Finland/Ievan-Polkka/Ievan-polkka-%28Dm%29.ly:50:6:7">
<g transform="translate(36.5692, 40.9672)">
<path transform="scale(0.0040, -0.0040)" d="M220 135c11 0 106 -2 106 -87c0 -89 -114 -183 -220 -183c-11 0 -106 2 -106 87c0 89 114 183 220 183z" fill="currentColor"/>
</g>
</a>
<g transform="translate(9.5846, 42.4672)">
<path transform="scale(0.0040, -0.0040)" d="M26 43l-1 -68v-11c0 -22 0 -44 3 -66c46 38 95 80 95 139c0 34 -14 68 -44 68c-31 0 -52 -29 -53 -62zM-14 -137l-12 598c8 5 17 6 26 6s18 -1 26 -6l-7 -348c25 20 57 32 90 32c52 0 91 -47 91 -101c0 -81 -88 -118 -150 -169c-15 -12 -22 -35 -42 -35
c-12 0 -22 10 -22 23z" fill="currentColor"/>
</g>
<g transform="translate(36.6304, 42.4672)">
<rect x="-0.0611" y="-1.3081" width="0.1222" height="3.5172" ry="0.0364" fill="currentColor"/>
</g>
<g transform="translate(25.7078, 43.6601)">
<polygon stroke-linejoin="round" stroke-linecap="round" stroke-width="0.0727" fill="currentColor" stroke="currentColor" points="2.3006 0.4104 2.3006 0.8177 0.0364 0.2036 0.0364 -0.2036"/>
</g>
<a style="color:inherit;" xlink:href="textedit:///Users/marc.mouries/projects/Sheet-Music/Folk_Finland/Ievan-Polkka/Ievan-polkka-%28Dm%29.ly:50:10:11">
<g transform="translate(38.7840, 41.9672)">
<path transform="scale(0.0040, -0.0040)" d="M220 135c11 0 106 -2 106 -87c0 -89 -114 -183 -220 -183c-11 0 -106 2 -106 87c0 89 114 183 220 183z" fill="currentColor"/>
</g>
</a>
<g transform="translate(38.8451, 42.4672)">
<rect x="-0.0611" y="-0.3081" width="0.1222" height="3.0991" ry="0.0364" fill="currentColor"/>
</g>
<g transform="translate(19.7336, 44.4672)">
<polygon stroke-linejoin="round" stroke-linecap="round" stroke-width="0.0727" fill="currentColor" stroke="currentColor" points="2.5506 -0.3966 2.5506 0.0106 0.0364 0.2036 0.0364 -0.2036"/>
</g>
<a style="color:inherit;" xlink:href="textedit:///Users/marc.mouries/projects/Sheet-Music/Folk_Finland/Ievan-Polkka/Ievan-polkka-%28Dm%29.ly:50:12:13">
<g transform="translate(41.2487, 41.9672)">
<path transform="scale(0.0040, -0.0040)" d="M220 135c11 0 106 -2 106 -87c0 -89 -114 -183 -220 -183c-11 0 -106 2 -106 87c0 89 114 183 220 183z" fill="currentColor"/>
</g>
</a>
<g transform="translate(41.3098, 42.4672)">
<rect x="-0.0611" y="-0.3081" width="0.1222" height="3.1019" ry="0.0364" fill="currentColor"/>
</g>
<g transform="translate(16.8098, 43.6601)">
<polygon stroke-linejoin="round" stroke-linecap="round" stroke-width="0.0727" fill="currentColor" stroke="currentColor" points="1.1248 -0.2036 1.1248 0.2036 0.0364 0.2036 0.0364 -0.2036"/>
</g>
<g transform="translate(14.7056, 44.4672)">
<polygon stroke-linejoin="round" stroke-linecap="round" stroke-width="0.0727" fill="currentColor" stroke="currentColor" points="3.2289 -0.2036 3.2289 0.2036 0.0364 0.2036 0.0364 -0.2036"/>
</g>
<a style="color:inherit;" xlink:href="textedit:///Users/marc.mouries/projects/Sheet-Music/Folk_Finland/Ievan-Polkka/Ievan-polkka-%28Dm%29.ly:50:14:15">
<g transform="translate(43.9634, 40.9672)">
<path transform="scale(0.0040, -0.0040)" d="M220 135c11 0 106 -2 106 -87c0 -89 -114 -183 -220 -183c-11 0 -106 2 -106 87c0 89 114 183 220 183z" fill="currentColor"/>
</g>
</a>
<g transform="translate(44.0245, 42.4672)">
<rect x="-0.0611" y="-1.3081" width="0.1222" height="3.5144" ry="0.0364" fill="currentColor"/>
</g>
<a style="color:inherit;" xlink:href="textedit:///Users/marc.mouries/projects/Sheet-Music/Folk_Finland/Ievan-Polkka/Ievan-polkka-%28Dm%29.ly:50:23:24">
<g transform="translate(47.4729, 40.4672)">
<path transform="scale(0.0040, -0.0040)" d="M220 135c11 0 106 -2 106 -87c0 -89 -114 -183 -220 -183c-11 0 -106 2 -106 87c0 89 114 183 220 183z" fill="currentColor"/>
</g>
</a>
<g transform="translate(5.9732, 43.4672)">
<path transform="scale(0.0040, -0.0040)" d="M267 -593l-1 -41h-5c-108 0 -196 88 -196 196c0 58 54 104 113 104c54 0 95 -48 95 -104c0 -52 -43 -95 -95 -95c-11 0 -23 3 -34 8c26 -40 69 -68 119 -68h4zM644 2c0 -112 -73 -212 -180 -245c3 -35 5 -71 5 -107c0 -19 -1 -38 -2 -57c-7 -119 -87 -224 -201 -227l1 41
c43 1 161 25 161 246c0 31 -1 63 -4 94c-5 -1 -44 -8 -89 -8c-193 0 -333 179 -333 373c0 177 132 307 249 441c-28 95 -50 169 -50 345c0 116 56 226 150 294c5 4 13 3 18 -1c67 -81 132 -245 132 -358c0 -143 -86 -255 -181 -364c20 -69 38 -138 55 -208c2 0 7 1 14 1
c155 0 255 -128 255 -260zM460 -204c70 24 115 91 115 165c0 91 -68 182 -176 192c19 -89 48 -246 61 -357zM73 30c0 -146 141 -250 265 -250c1 0 47 0 82 6c-7 63 -29 202 -64 366c-79 -9 -124 -62 -124 -120c0 -44 26 -91 82 -123c5 -4 6 -10 6 -15c0 -11 -9 -21 -21 -21
c-15 0 -125 61 -125 186c0 88 58 173 159 196c-14 59 -30 119 -46 177c-107 -121 -214 -242 -214 -402zM431 915c0 34 0 66 -21 132c-99 -49 -162 -150 -162 -260c0 -56 12 -119 35 -197c81 97 148 199 148 325z" fill="currentColor"/>
</g>
<g transform="translate(47.5340, 42.4672)">
<rect x="-0.0611" y="-1.8081" width="0.1222" height="3.8167" ry="0.0364" fill="currentColor"/>
</g>
<a style="color:inherit;" xlink:href="textedit:///Users/marc.mouries/projects/Sheet-Music/Folk_Finland/Ievan-Polkka/Ievan-polkka-%28Dm%29.ly:50:27:28">
<g transform="translate(49.3579, 40.9672)">
<path transform="scale(0.0040, -0.0040)" d="M220 135c11 0 106 -2 106 -87c0 -89 -114 -183 -220 -183c-11 0 -106 2 -106 87c0 89 114 183 220 183z" fill="currentColor"/>
</g>
</a>
<g transform="translate(49.4190, 42.4672)">
<rect x="-0.0611" y="-1.3081" width="0.1222" height="3.5800" ry="0.0364" fill="currentColor"/>
</g>
<a style="color:inherit;" xlink:href="textedit:///Users/marc.mouries/projects/Sheet-Music/Folk_Finland/Ievan-Polkka/Ievan-polkka-%28Dm%29.ly:50:29:30">
<g transform="translate(51.2428, 41.4672)">
<path transform="scale(0.0040, -0.0040)" d="M220 135c11 0 106 -2 106 -87c0 -89 -114 -183 -220 -183c-11 0 -106 2 -106 87c0 89 114 183 220 183z" fill="currentColor"/>
</g>
</a>
<g transform="translate(51.3039, 42.4672)">
<rect x="-0.0611" y="-0.8081" width="0.1222" height="3.3433" ry="0.0364" fill="currentColor"/>
</g>
<a style="color:inherit;" xlink:href="textedit:///Users/marc.mouries/projects/Sheet-Music/Folk_Finland/Ievan-Polkka/Ievan-polkka-%28Dm%29.ly:50:31:32">
<g transform="translate(53.1278, 41.9672)">
<path transform="scale(0.0040, -0.0040)" d="M220 135c11 0 106 -2 106 -87c0 -89 -114 -183 -220 -183c-11 0 -106 2 -106 87c0 89 114 183 220 183z" fill="currentColor"/>
</g>
</a>
<g transform="translate(53.1889, 42.4672)">
<rect x="-0.0611" y="-0.3081" width="0.1222" height="3.1066" ry="0.0364" fill="currentColor"/>
</g>
<a style="color:inherit;" xlink:href="textedit:///Users/marc.mouries/projects/Sheet-Music/Folk_Finland/Ievan-Polkka/Ievan-polkka-%28Dm%29.ly:50:33:34">
<g transform="translate(55.0127, 41.4672)">
<path transform="scale(0.0040, -0.0040)" d="M220 135c11 0 106 -2 106 -87c0 -89 -114 -183 -220 -183c-11 0 -106 2 -106 87c0 89 114 183 220 183z" fill="currentColor"/>
</g>
</a>
<g transform="translate(55.0738, 42.4672)">
<rect x="-0.0611" y="-0.8081" width="0.1222" height="3.0222" ry="0.0364" fill="currentColor"/>
</g>
<a style="color:inherit;" xlink:href="textedit:///Users/marc.mouries/projects/Sheet-Music/Folk_Finland/Ievan-Polkka/Ievan-polkka-%28Dm%29.ly:50:36:37">
<g transform="translate(57.2275, 42.9672)">
<path transform="scale(0.0040, -0.0040)" d="M220 135c11 0 106 -2 106 -87c0 -89 -114 -183 -220 -183c-11 0 -106 2 -106 87c0 89 114 183 220 183z" fill="currentColor"/>
</g>
</a>
<g transform="translate(57.2886, 42.4672)">
<rect x="-0.0611" y="0.6919" width="0.1222" height="2.2870" ry="0.0364" fill="currentColor"/>
</g>
<a style="color:inherit;" xlink:href="textedit:///Users/marc.mouries/projects/Sheet-Music/Folk_Finland/Ievan-Polkka/Ievan-polkka-%28Dm%29.ly:51:6:7">
<g transform="translate(60.8227, 41.4672)">
<path transform="scale(0.0040, -0.0040)" d="M220 135c11 0 106 -2 106 -87c0 -89 -114 -183 -220 -183c-11 0 -106 2 -106 87c0 89 114 183 220 183z" fill="currentColor"/>
</g>
</a>
<g transform="translate(62.5814, 40.9672)">
<path transform="scale(0.0040, -0.0040)" d="M0 0c0 31 26 57 57 57s56 -26 56 -57s-25 -57 -56 -57s-57 26 -57 57z" fill="currentColor"/>
</g>
<g transform="translate(60.8838, 42.4672)">
<rect x="-0.0611" y="-0.8081" width="0.1222" height="2.8081" ry="0.0364" fill="currentColor"/>
</g>
<a style="color:inherit;" xlink:href="textedit:///Users/marc.mouries/projects/Sheet-Music/Folk_Finland/Ievan-Polkka/Ievan-polkka-%28Dm%29.ly:51:10:11">
<g transform="translate(63.9657, 41.4672)">
<path transform="scale(0.0040, -0.0040)" d="M220 135c11 0 106 -2 106 -87c0 -89 -114 -183 -220 -183c-11 0 -106 2 -106 87c0 89 114 183 220 183z" fill="currentColor"/>
</g>
</a>
<g transform="translate(64.0268, 42.4672)">
<rect x="-0.0611" y="-0.8081" width="0.1222" height="2.8081" ry="0.0364" fill="currentColor"/>
</g>
<a style="color:inherit;" xlink:href="textedit:///Users/marc.mouries/projects/Sheet-Music/Folk_Finland/Ievan-Polkka/Ievan-polkka-%28Dm%29.ly:51:14:15">
<g transform="translate(65.8506, 41.4672)">
<path transform="scale(0.0040, -0.0040)" d="M220 135c11 0 106 -2 106 -87c0 -89 -114 -183 -220 -183c-11 0 -106 2 -106 87c0 89 114 183 220 183z" fill="currentColor"/>
</g>
</a>
<g transform="translate(65.9118, 42.4672)">
<rect x="-0.0611" y="-0.8081" width="0.1222" height="2.8036" ry="0.0364" fill="currentColor"/>
</g>
<a style="color:inherit;" xlink:href="textedit:///Users/marc.mouries/projects/Sheet-Music/Folk_Finland/Ievan-Polkka/Ievan-polkka-%28Dm%29.ly:51:17:18">
<g transform="translate(68.3154, 40.9672)">
<path transform="scale(0.0040, -0.0040)" d="M220 135c11 0 106 -2 106 -87c0 -89 -114 -183 -220 -183c-11 0 -106 2 -106 87c0 89 114 183 220 183z" fill="currentColor"/>
</g>
</a>
<g transform="translate(68.3765, 42.4672)">
<rect x="-0.0611" y="-1.3081" width="0.1222" height="3.1197" ry="0.0364" fill="currentColor"/>
</g>
<g transform="translate(98.1409, 42.4672)">
<rect x="-0.0611" y="-0.8081" width="0.1222" height="3.3081" ry="0.0364" fill="currentColor"/>
</g>
<a style="color:inherit;" xlink:href="textedit:///Users/marc.mouries/projects/Sheet-Music/Folk_Finland/Ievan-Polkka/Ievan-polkka-%28Dm%29.ly:51:23:24">
<g transform="translate(71.8249, 40.4672)">
<path transform="scale(0.0040, -0.0040)" d="M220 135c11 0 106 -2 106 -87c0 -89 -114 -183 -220 -183c-11 0 -106 2 -106 87c0 89 114 183 220 183z" fill="currentColor"/>
</g>
</a>
<g transform="translate(71.8860, 42.4672)">
<rect x="-0.0611" y="-1.8081" width="0.1222" height="3.0172" ry="0.0364" fill="currentColor"/>
</g>
<a style="color:inherit;" xlink:href="textedit:///Users/marc.mouries/projects/Sheet-Music/Folk_Finland/Ievan-Polkka/Ievan-polkka-%28Dm%29.ly:52:28:29">
<g transform="translate(98.0798, 41.4672)">
<path transform="scale(0.0040, -0.0040)" d="M220 135c11 0 106 -2 106 -87c0 -89 -114 -183 -220 -183c-11 0 -106 2 -106 87c0 89 114 183 220 183z" fill="currentColor"/>
</g>
</a>
<a style="color:inherit;" xlink:href="textedit:///Users/marc.mouries/projects/Sheet-Music/Folk_Finland/Ievan-Polkka/Ievan-polkka-%28Dm%29.ly:51:26:27">
<g transform="translate(74.0396, 41.4672)">
<path transform="scale(0.0040, -0.0040)" d="M220 135c11 0 106 -2 106 -87c0 -89 -114 -183 -220 -183c-11 0 -106 2 -106 87c0 89 114 183 220 183z" fill="currentColor"/>
</g>
</a>
<g transform="translate(74.1007, 42.4672)">
<rect x="-0.0611" y="-0.8081" width="0.1222" height="2.5991" ry="0.0364" fill="currentColor"/>
</g>
<a style="color:inherit;" xlink:href="textedit:///Users/marc.mouries/projects/Sheet-Music/Folk_Finland/Ievan-Polkka/Ievan-polkka-%28Dm%29.ly:51:28:29">
<g transform="translate(76.5043, 41.4672)">
<path transform="scale(0.0040, -0.0040)" d="M220 135c11 0 106 -2 106 -87c0 -89 -114 -183 -220 -183c-11 0 -106 2 -106 87c0 89 114 183 220 183z" fill="currentColor"/>
</g>
</a>
<g transform="translate(76.5654, 42.4672)">
<rect x="-0.0611" y="-0.8081" width="0.1222" height="3.3081" ry="0.0364" fill="currentColor"/>
</g>
<a style="color:inherit;" xlink:href="textedit:///Users/marc.mouries/projects/Sheet-Music/Folk_Finland/Ievan-Polkka/Ievan-polkka-%28Dm%29.ly:52:6:7">
<g transform="translate(81.1915, 39.9672)">
<path transform="scale(0.0040, -0.0040)" d="M220 135c11 0 106 -2 106 -87c0 -89 -114 -183 -220 -183c-11 0 -106 2 -106 87c0 89 114 183 220 183z" fill="currentColor"/>
</g>
</a>
<g transform="translate(81.2526, 42.4672)">
<rect x="-0.0611" y="-2.3081" width="0.1222" height="3.1152" ry="0.0364" fill="currentColor"/>
</g>
<a style="color:inherit;" xlink:href="textedit:///Users/marc.mouries/projects/Sheet-Music/Folk_Finland/Ievan-Polkka/Ievan-polkka-%28Dm%29.ly:52:10:11">
<g transform="translate(83.6562, 40.4672)">
<path transform="scale(0.0040, -0.0040)" d="M220 135c11 0 106 -2 106 -87c0 -89 -114 -183 -220 -183c-11 0 -106 2 -106 87c0 89 114 183 220 183z" fill="currentColor"/>
</g>
</a>
<g transform="translate(83.7173, 42.4672)">
<rect x="-0.0611" y="-1.8081" width="0.1222" height="2.6152" ry="0.0364" fill="currentColor"/>
</g>
<g transform="translate(95.6762, 42.4672)">
<rect x="-0.0611" y="-0.8081" width="0.1222" height="2.5991" ry="0.0364" fill="currentColor"/>
</g>
<a style="color:inherit;" xlink:href="textedit:///Users/marc.mouries/projects/Sheet-Music/Folk_Finland/Ievan-Polkka/Ievan-polkka-%28Dm%29.ly:52:14:15">
<g transform="translate(85.5411, 39.9672)">
<path transform="scale(0.0040, -0.0040)" d="M220 135c11 0 106 -2 106 -87c0 -89 -114 -183 -220 -183c-11 0 -106 2 -106 87c0 89 114 183 220 183z" fill="currentColor"/>
</g>
</a>
<g transform="translate(85.6023, 42.4672)">
<rect x="-0.0611" y="-2.3081" width="0.1222" height="3.1152" ry="0.0364" fill="currentColor"/>
</g>
<a style="color:inherit;" xlink:href="textedit:///Users/marc.mouries/projects/Sheet-Music/Folk_Finland/Ievan-Polkka/Ievan-polkka-%28Dm%29.ly:52:26:27">
<g transform="translate(95.6150, 41.4672)">
<path transform="scale(0.0040, -0.0040)" d="M220 135c11 0 106 -2 106 -87c0 -89 -114 -183 -220 -183c-11 0 -106 2 -106 87c0 89 114 183 220 183z" fill="currentColor"/>
</g>
</a>
<a style="color:inherit;" xlink:href="textedit:///Users/marc.mouries/projects/Sheet-Music/Folk_Finland/Ievan-Polkka/Ievan-polkka-%28Dm%29.ly:52:16:17">
<g transform="translate(87.4261, 40.4672)">
<path transform="scale(0.0040, -0.0040)" d="M220 135c11 0 106 -2 106 -87c0 -89 -114 -183 -220 -183c-11 0 -106 2 -106 87c0 89 114 183 220 183z" fill="currentColor"/>
</g>
</a>
<g transform="translate(87.4872, 42.4672)">
<rect x="-0.0611" y="-1.8081" width="0.1222" height="2.8127" ry="0.0364" fill="currentColor"/>
</g>
<a style="color:inherit;" xlink:href="textedit:///Users/marc.mouries/projects/Sheet-Music/Folk_Finland/Ievan-Polkka/Ievan-polkka-%28Dm%29.ly:52:19:20">
<g transform="translate(89.8908, 40.9672)">
<path transform="scale(0.0040, -0.0040)" d="M220 135c11 0 106 -2 106 -87c0 -89 -114 -183 -220 -183c-11 0 -106 2 -106 87c0 89 114 183 220 183z" fill="currentColor"/>
</g>
</a>
<g transform="translate(89.9519, 42.4672)">
<rect x="-0.0611" y="-1.3081" width="0.1222" height="2.4966" ry="0.0364" fill="currentColor"/>
</g>
<a style="color:inherit;" xlink:href="textedit:///Users/marc.mouries/projects/Sheet-Music/Folk_Finland/Ievan-Polkka/Ievan-polkka-%28Dm%29.ly:52:23:24">
<g transform="translate(93.4003, 40.4672)">
<path transform="scale(0.0040, -0.0040)" d="M220 135c11 0 106 -2 106 -87c0 -89 -114 -183 -220 -183c-11 0 -106 2 -106 87c0 89 114 183 220 183z" fill="currentColor"/>
</g>
</a>
<g transform="translate(93.4614, 42.4672)">
<rect x="-0.0611" y="-1.8081" width="0.1222" height="3.0172" ry="0.0364" fill="currentColor"/>
</g>
<g transform="translate(5.1732, 51.4672)">
<rect x="61.4903" y="-0.0970" width="1.9578" height="0.1940" ry="0.0970" fill="currentColor"/>
</g>
<g transform="translate(5.1732, 51.4672)">
<rect x="53.9818" y="-0.0970" width="1.9578" height="0.1940" ry="0.0970" fill="currentColor"/>
</g>
<g transform="translate(5.1732, 51.4672)">
<rect x="16.7542" y="-0.0970" width="1.9578" height="0.1940" ry="0.0970" fill="currentColor"/>
</g>
<g transform="translate(5.1732, 51.4672)">
<rect x="9.2457" y="-0.0970" width="1.9578" height="0.1940" ry="0.0970" fill="currentColor"/>
</g>
<g transform="translate(5.1732, 56.4672)">
<line stroke-linejoin="round" stroke-linecap="round" stroke-width="0.0940" stroke="currentColor" x1="0.0470" y1="0" x2="98.2443" y2="0"/>
</g>
<g transform="translate(5.1732, 55.4672)">
<line stroke-linejoin="round" stroke-linecap="round" stroke-width="0.0940" stroke="currentColor" x1="0.0470" y1="0" x2="98.2443" y2="0"/>
</g>
<g transform="translate(5.1732, 54.4672)">
<line stroke-linejoin="round" stroke-linecap="round" stroke-width="0.0940" stroke="currentColor" x1="0.0470" y1="0" x2="98.2443" y2="0"/>
</g>
<g transform="translate(5.1732, 53.4672)">
<line stroke-linejoin="round" stroke-linecap="round" stroke-width="0.0940" stroke="currentColor" x1="0.0470" y1="0" x2="98.2443" y2="0"/>
</g>
<g transform="translate(5.1732, 52.4672)">
<line stroke-linejoin="round" stroke-linecap="round" stroke-width="0.0940" stroke="currentColor" x1="0.0470" y1="0" x2="98.2443" y2="0"/>
</g>
<g transform="translate(101.7040, 53.9672)">
<path transform="scale(0.0040, -0.0040)" d="M0 0c0 31 26 57 57 57s56 -26 56 -57s-25 -57 -56 -57s-57 26 -57 57z" fill="currentColor"/>
</g>
<g transform="translate(101.7040, 54.9672)">
<path transform="scale(0.0040, -0.0040)" d="M0 0c0 31 26 57 57 57s56 -26 56 -57s-25 -57 -56 -57s-57 26 -57 57z" fill="currentColor"/>
</g>
<g transform="translate(102.9004, 54.4672)">
<rect x="0.0000" y="-2.0000" width="0.5642" height="4.0000" ry="0.0000" fill="currentColor"/>
</g>
<g transform="translate(102.4397, 54.4672)">
<rect x="0.0000" y="-2.0000" width="0.1786" height="4.0000" ry="0.0000" fill="currentColor"/>
</g>
<g transform="translate(92.0968, 54.4672)">
<rect x="0.0000" y="-2.0000" width="0.1786" height="4.0000" ry="0.0000" fill="currentColor"/>
</g>
<g transform="translate(79.8831, 54.4672)">
<rect x="0.0000" y="-2.0000" width="0.1786" height="4.0000" ry="0.0000" fill="currentColor"/>
</g>
<g transform="translate(69.2097, 54.4672)">
<rect x="0.0000" y="-2.0000" width="0.1786" height="4.0000" ry="0.0000" fill="currentColor"/>
</g>
<g transform="translate(58.2159, 54.4672)">
<rect x="0.0000" y="-2.0000" width="0.1786" height="4.0000" ry="0.0000" fill="currentColor"/>
</g>
<g transform="translate(12.7916, 53.9672)">
<path transform="scale(0.0040, -0.0040)" d="M0 0c0 31 26 57 57 57s56 -26 56 -57s-25 -57 -56 -57s-57 26 -57 57z" fill="currentColor"/>
</g>
<g transform="translate(12.7916, 54.9672)">
<path transform="scale(0.0040, -0.0040)" d="M0 0c0 31 26 57 57 57s56 -26 56 -57s-25 -57 -56 -57s-57 26 -57 57z" fill="currentColor"/>
</g>
<g transform="translate(12.3309, 54.4672)">
<rect x="0.0000" y="-2.0000" width="0.1786" height="4.0000" ry="0.0000" fill="currentColor"/>
</g>
<g transform="translate(11.4846, 54.4672)">
<rect x="0.0000" y="-2.0000" width="0.5642" height="4.0000" ry="0.0000" fill="currentColor"/>
</g>
<g transform="translate(47.3606, 54.4672)">
<rect x="0.0000" y="-2.0000" width="0.1786" height="4.0000" ry="0.0000" fill="currentColor"/>
</g>
<g transform="translate(35.1469, 54.4672)">
<rect x="0.0000" y="-2.0000" width="0.1786" height="4.0000" ry="0.0000" fill="currentColor"/>
</g>
<g transform="translate(24.4736, 54.4672)">
<rect x="0.0000" y="-2.0000" width="0.1786" height="4.0000" ry="0.0000" fill="currentColor"/>
</g>
<g transform="translate(93.3798, 55.6601)">
<polygon stroke-linejoin="round" stroke-linecap="round" stroke-width="0.0727" fill="currentColor" stroke="currentColor" points="2.3057 0.4104 2.3057 0.8177 0.0364 0.2036 0.0364 -0.2036"/>
</g>
<a style="color:inherit;" xlink:href="textedit:///Users/marc.mouries/projects/Sheet-Music/Folk_Finland/Ievan-Polkka/Ievan-polkka-%28Dm%29.ly:56:6:7">
<g transform="translate(14.7452, 51.4672)">
<path transform="scale(0.0040, -0.0040)" d="M220 135c11 0 106 -2 106 -87c0 -89 -114 -183 -220 -183c-11 0 -106 2 -106 87c0 89 114 183 220 183z" fill="currentColor"/>
</g>
</a>
<g transform="translate(16.5040, 50.9672)">
<path transform="scale(0.0040, -0.0040)" d="M0 0c0 31 26 57 57 57s56 -26 56 -57s-25 -57 -56 -57s-57 26 -57 57z" fill="currentColor"/>
</g>
<g transform="translate(14.8063, 54.4672)">
<rect x="-0.0611" y="-2.8081" width="0.1222" height="3.0135" ry="0.0364" fill="currentColor"/>
</g>
<g transform="translate(87.3934, 55.4672)">
<polygon stroke-linejoin="round" stroke-linecap="round" stroke-width="0.0727" fill="currentColor" stroke="currentColor" points="2.5557 -0.0106 2.5557 0.3966 0.0364 0.2036 0.0364 -0.2036"/>
</g>
<a style="color:inherit;" xlink:href="textedit:///Users/marc.mouries/projects/Sheet-Music/Folk_Finland/Ievan-Polkka/Ievan-polkka-%28Dm%29.ly:56:11:12">
<g transform="translate(17.6463, 52.4672)">
<path transform="scale(0.0040, -0.0040)" d="M220 135c11 0 106 -2 106 -87c0 -89 -114 -183 -220 -183c-11 0 -106 2 -106 87c0 89 114 183 220 183z" fill="currentColor"/>
</g>
</a>
<g transform="translate(17.7074, 54.4672)">
<rect x="-0.0611" y="-1.8081" width="0.1222" height="2.6027" ry="0.0364" fill="currentColor"/>
</g>
<g transform="translate(83.6183, 54.4672)">
<polygon stroke-linejoin="round" stroke-linecap="round" stroke-width="0.0727" fill="currentColor" stroke="currentColor" points="1.9734 -0.2036 1.9734 0.2036 0.0364 0.2036 0.0364 -0.2036"/>
</g>
<g transform="translate(81.1485, 55.2742)">
<polygon stroke-linejoin="round" stroke-linecap="round" stroke-width="0.0727" fill="currentColor" stroke="currentColor" points="4.4432 -0.2036 4.4432 0.2036 0.0364 0.2036 0.0364 -0.2036"/>
</g>
<a style="color:inherit;" xlink:href="textedit:///Users/marc.mouries/projects/Sheet-Music/Folk_Finland/Ievan-Polkka/Ievan-polkka-%28Dm%29.ly:56:15:16">
<g transform="translate(19.5338, 52.4672)">
<path transform="scale(0.0040, -0.0040)" d="M220 135c11 0 106 -2 106 -87c0 -89 -114 -183 -220 -183c-11 0 -106 2 -106 87c0 89 114 183 220 183z" fill="currentColor"/>
</g>
</a>
<g transform="translate(19.5950, 54.4672)">
<rect x="-0.0611" y="-1.8081" width="0.1222" height="2.6020" ry="0.0364" fill="currentColor"/>
</g>
<g transform="translate(75.1934, 55.6601)">
<polygon stroke-linejoin="round" stroke-linecap="round" stroke-width="0.0727" fill="currentColor" stroke="currentColor" points="2.5557 -0.3966 2.5557 0.0106 0.0364 0.2036 0.0364 -0.2036"/>
</g>
<a style="color:inherit;" xlink:href="textedit:///Users/marc.mouries/projects/Sheet-Music/Folk_Finland/Ievan-Polkka/Ievan-polkka-%28Dm%29.ly:56:18:19">
<g transform="translate(22.2537, 51.4672)">
<path transform="scale(0.0040, -0.0040)" d="M220 135c11 0 106 -2 106 -87c0 -89 -114 -183 -220 -183c-11 0 -106 2 -106 87c0 89 114 183 220 183z" fill="currentColor"/>
</g>
</a>
<g transform="translate(22.3148, 54.4672)">
<rect x="-0.0611" y="-2.8081" width="0.1222" height="3.0143" ry="0.0364" fill="currentColor"/>
</g>
<g transform="translate(70.5037, 55.6601)">
<polygon stroke-linejoin="round" stroke-linecap="round" stroke-width="0.0727" fill="currentColor" stroke="currentColor" points="2.3057 0.4104 2.3057 0.8177 0.0364 0.2036 0.0364 -0.2036"/>
</g>
<g transform="translate(64.2700, 55.2742)">
<polygon stroke-linejoin="round" stroke-linecap="round" stroke-width="0.0727" fill="currentColor" stroke="currentColor" points="2.8057 -0.8177 2.8057 -0.4104 0.0364 0.2036 0.0364 -0.2036"/>
</g>
<a style="color:inherit;" xlink:href="textedit:///Users/marc.mouries/projects/Sheet-Music/Folk_Finland/Ievan-Polkka/Ievan-polkka-%28Dm%29.ly:56:23:24">
<g transform="translate(25.7675, 51.9672)">
<path transform="scale(0.0040, -0.0040)" d="M220 135c11 0 106 -2 106 -87c0 -89 -114 -183 -220 -183c-11 0 -106 2 -106 87c0 89 114 183 220 183z" fill="currentColor"/>
</g>
</a>
<g transform="translate(3.4350, 51.3996)">
<text font-family="serif" font-size="1.7465" text-anchor="start" fill="currentColor">
<tspan>20</tspan>
</text>
</g>
<g transform="translate(25.8286, 54.4672)">
<rect x="-0.0611" y="-2.3081" width="0.1222" height="3.5172" ry="0.0364" fill="currentColor"/>
</g>
<g transform="translate(61.3436, 54.2313)">
<polygon stroke-linejoin="round" stroke-linecap="round" stroke-width="0.0727" fill="currentColor" stroke="currentColor" points="1.1248 0.0322 1.1248 0.4395 0.0364 0.2036 0.0364 -0.2036"/>
</g>
<g transform="translate(59.4813, 54.6601)">
<polygon stroke-linejoin="round" stroke-linecap="round" stroke-width="0.0727" fill="currentColor" stroke="currentColor" points="2.9870 0.4104 2.9870 0.8177 0.0364 0.2036 0.0364 -0.2036"/>
</g>
<a style="color:inherit;" xlink:href="textedit:///Users/marc.mouries/projects/Sheet-Music/Folk_Finland/Ievan-Polkka/Ievan-polkka-%28Dm%29.ly:56:26:27">
<g transform="translate(27.9874, 52.9672)">
<path transform="scale(0.0040, -0.0040)" d="M220 135c11 0 106 -2 106 -87c0 -89 -114 -183 -220 -183c-11 0 -106 2 -106 87c0 89 114 183 220 183z" fill="currentColor"/>
</g>
</a>
<g transform="translate(28.0485, 54.4672)">
<rect x="-0.0611" y="-1.3081" width="0.1222" height="3.0991" ry="0.0364" fill="currentColor"/>
</g>
<g transform="translate(53.5262, 55.4672)">
<polygon stroke-linejoin="round" stroke-linecap="round" stroke-width="0.0727" fill="currentColor" stroke="currentColor" points="2.5557 -0.3966 2.5557 0.0106 0.0364 0.2036 0.0364 -0.2036"/>
</g>
<a style="color:inherit;" xlink:href="textedit:///Users/marc.mouries/projects/Sheet-Music/Folk_Finland/Ievan-Polkka/Ievan-polkka-%28Dm%29.ly:56:28:29">
<g transform="translate(30.4572, 52.9672)">
<path transform="scale(0.0040, -0.0040)" d="M220 135c11 0 106 -2 106 -87c0 -89 -114 -183 -220 -183c-11 0 -106 2 -106 87c0 89 114 183 220 183z" fill="currentColor"/>
</g>
</a>
<g transform="translate(30.5183, 54.4672)">
<rect x="-0.0611" y="-1.3081" width="0.1222" height="2.4966" ry="0.0364" fill="currentColor"/>
</g>
<g transform="translate(48.5865, 56.4672)">
<polygon stroke-linejoin="round" stroke-linecap="round" stroke-width="0.0727" fill="currentColor" stroke="currentColor" points="2.5557 -0.3966 2.5557 0.0106 0.0364 0.2036 0.0364 -0.2036"/>
</g>
<a style="color:inherit;" xlink:href="textedit:///Users/marc.mouries/projects/Sheet-Music/Folk_Finland/Ievan-Polkka/Ievan-polkka-%28Dm%29.ly:56:30:31">
<g transform="translate(32.9271, 52.4672)">
<path transform="scale(0.0040, -0.0040)" d="M220 135c11 0 106 -2 106 -87c0 -89 -114 -183 -220 -183c-11 0 -106 2 -106 87c0 89 114 183 220 183z" fill="currentColor"/>
</g>
</a>
<g transform="translate(32.9882, 54.4672)">
<rect x="-0.0611" y="-1.8081" width="0.1222" height="2.8127" ry="0.0364" fill="currentColor"/>
</g>
<g transform="translate(42.6572, 55.4672)">
<polygon stroke-linejoin="round" stroke-linecap="round" stroke-width="0.0727" fill="currentColor" stroke="currentColor" points="2.5557 -0.0106 2.5557 0.3966 0.0364 0.2036 0.0364 -0.2036"/>
</g>
<g transform="translate(38.8822, 54.4672)">
<polygon stroke-linejoin="round" stroke-linecap="round" stroke-width="0.0727" fill="currentColor" stroke="currentColor" points="1.9734 -0.2036 1.9734 0.2036 0.0364 0.2036 0.0364 -0.2036"/>
</g>
<g transform="translate(36.4123, 55.2742)">
<polygon stroke-linejoin="round" stroke-linecap="round" stroke-width="0.0727" fill="currentColor" stroke="currentColor" points="4.4432 -0.2036 4.4432 0.2036 0.0364 0.2036 0.0364 -0.2036"/>
</g>
<a style="color:inherit;" xlink:href="textedit:///Users/marc.mouries/projects/Sheet-Music/Folk_Finland/Ievan-Polkka/Ievan-polkka-%28Dm%29.ly:57:6:7">
<g transform="translate(36.4123, 51.9672)">
<path transform="scale(0.0040, -0.0040)" d="M220 135c11 0 106 -2 106 -87c0 -89 -114 -183 -220 -183c-11 0 -106 2 -106 87c0 89 114 183 220 183z" fill="currentColor"/>
</g>
</a>
<g transform="translate(9.5846, 54.4672)">
<path transform="scale(0.0040, -0.0040)" d="M26 43l-1 -68v-11c0 -22 0 -44 3 -66c46 38 95 80 95 139c0 34 -14 68 -44 68c-31 0 -52 -29 -53 -62zM-14 -137l-12 598c8 5 17 6 26 6s18 -1 26 -6l-7 -348c25 20 57 32 90 32c52 0 91 -47 91 -101c0 -81 -88 -118 -150 -169c-15 -12 -22 -35 -42 -35
c-12 0 -22 10 -22 23z" fill="currentColor"/>
</g>
<g transform="translate(36.4735, 54.4672)">
<rect x="-0.0611" y="-2.3081" width="0.1222" height="3.1152" ry="0.0364" fill="currentColor"/>
</g>
<g transform="translate(30.4572, 55.6601)">
<polygon stroke-linejoin="round" stroke-linecap="round" stroke-width="0.0727" fill="currentColor" stroke="currentColor" points="2.5557 -0.3966 2.5557 0.0106 0.0364 0.2036 0.0364 -0.2036"/>
</g>
<a style="color:inherit;" xlink:href="textedit:///Users/marc.mouries/projects/Sheet-Music/Folk_Finland/Ievan-Polkka/Ievan-polkka-%28Dm%29.ly:57:9:10">
<g transform="translate(38.8822, 52.4672)">
<path transform="scale(0.0040, -0.0040)" d="M220 135c11 0 106 -2 106 -87c0 -89 -114 -183 -220 -183c-11 0 -106 2 -106 87c0 89 114 183 220 183z" fill="currentColor"/>
</g>
</a>
<g transform="translate(38.9433, 54.4672)">
<rect x="-0.0611" y="-1.8081" width="0.1222" height="2.6152" ry="0.0364" fill="currentColor"/>
</g>
<g transform="translate(25.7675, 55.6601)">
<polygon stroke-linejoin="round" stroke-linecap="round" stroke-width="0.0727" fill="currentColor" stroke="currentColor" points="2.3057 0.4104 2.3057 0.8177 0.0364 0.2036 0.0364 -0.2036"/>
</g>
<a style="color:inherit;" xlink:href="textedit:///Users/marc.mouries/projects/Sheet-Music/Folk_Finland/Ievan-Polkka/Ievan-polkka-%28Dm%29.ly:57:13:14">
<g transform="translate(40.7697, 51.9672)">
<path transform="scale(0.0040, -0.0040)" d="M220 135c11 0 106 -2 106 -87c0 -89 -114 -183 -220 -183c-11 0 -106 2 -106 87c0 89 114 183 220 183z" fill="currentColor"/>
</g>
</a>
<g transform="translate(40.8308, 54.4672)">
<rect x="-0.0611" y="-2.3081" width="0.1222" height="3.1152" ry="0.0364" fill="currentColor"/>
</g>
<g transform="translate(19.5338, 55.2742)">
<polygon stroke-linejoin="round" stroke-linecap="round" stroke-width="0.0727" fill="currentColor" stroke="currentColor" points="2.8057 -0.8177 2.8057 -0.4104 0.0364 0.2036 0.0364 -0.2036"/>
</g>
<a style="color:inherit;" xlink:href="textedit:///Users/marc.mouries/projects/Sheet-Music/Folk_Finland/Ievan-Polkka/Ievan-polkka-%28Dm%29.ly:57:15:16">
<g transform="translate(42.6572, 52.4672)">
<path transform="scale(0.0040, -0.0040)" d="M220 135c11 0 106 -2 106 -87c0 -89 -114 -183 -220 -183c-11 0 -106 2 -106 87c0 89 114 183 220 183z" fill="currentColor"/>
</g>
</a>
<g transform="translate(42.7184, 54.4672)">
<rect x="-0.0611" y="-1.8081" width="0.1222" height="2.8127" ry="0.0364" fill="currentColor"/>
</g>
<g transform="translate(16.6074, 54.2313)">
<polygon stroke-linejoin="round" stroke-linecap="round" stroke-width="0.0727" fill="currentColor" stroke="currentColor" points="1.1248 0.0322 1.1248 0.4395 0.0364 0.2036 0.0364 -0.2036"/>
</g>
<g transform="translate(14.7452, 54.6601)">
<polygon stroke-linejoin="round" stroke-linecap="round" stroke-width="0.0727" fill="currentColor" stroke="currentColor" points="2.9870 0.4104 2.9870 0.8177 0.0364 0.2036 0.0364 -0.2036"/>
</g>
<a style="color:inherit;" xlink:href="textedit:///Users/marc.mouries/projects/Sheet-Music/Folk_Finland/Ievan-Polkka/Ievan-polkka-%28Dm%29.ly:57:18:19">
<g transform="translate(45.1271, 52.9672)">
<path transform="scale(0.0040, -0.0040)" d="M220 135c11 0 106 -2 106 -87c0 -89 -114 -183 -220 -183c-11 0 -106 2 -106 87c0 89 114 183 220 183z" fill="currentColor"/>
</g>
</a>
<g transform="translate(45.1882, 54.4672)">
<rect x="-0.0611" y="-1.3081" width="0.1222" height="2.4966" ry="0.0364" fill="currentColor"/>
</g>
<a style="color:inherit;" xlink:href="textedit:///Users/marc.mouries/projects/Sheet-Music/Folk_Finland/Ievan-Polkka/Ievan-polkka-%28Dm%29.ly:57:23:24">
<g transform="translate(48.5865, 53.4672)">
<path transform="scale(0.0040, -0.0040)" d="M220 135c11 0 106 -2 106 -87c0 -89 -114 -183 -220 -183c-11 0 -106 2 -106 87c0 89 114 183 220 183z" fill="currentColor"/>
</g>
</a>
<g transform="translate(5.9732, 55.4672)">
<path transform="scale(0.0040, -0.0040)" d="M267 -593l-1 -41h-5c-108 0 -196 88 -196 196c0 58 54 104 113 104c54 0 95 -48 95 -104c0 -52 -43 -95 -95 -95c-11 0 -23 3 -34 8c26 -40 69 -68 119 -68h4zM644 2c0 -112 -73 -212 -180 -245c3 -35 5 -71 5 -107c0 -19 -1 -38 -2 -57c-7 -119 -87 -224 -201 -227l1 41
c43 1 161 25 161 246c0 31 -1 63 -4 94c-5 -1 -44 -8 -89 -8c-193 0 -333 179 -333 373c0 177 132 307 249 441c-28 95 -50 169 -50 345c0 116 56 226 150 294c5 4 13 3 18 -1c67 -81 132 -245 132 -358c0 -143 -86 -255 -181 -364c20 -69 38 -138 55 -208c2 0 7 1 14 1
c155 0 255 -128 255 -260zM460 -204c70 24 115 91 115 165c0 91 -68 182 -176 192c19 -89 48 -246 61 -357zM73 30c0 -146 141 -250 265 -250c1 0 47 0 82 6c-7 63 -29 202 -64 366c-79 -9 -124 -62 -124 -120c0 -44 26 -91 82 -123c5 -4 6 -10 6 -15c0 -11 -9 -21 -21 -21
c-15 0 -125 61 -125 186c0 88 58 173 159 196c-14 59 -30 119 -46 177c-107 -121 -214 -242 -214 -402zM431 915c0 34 0 66 -21 132c-99 -49 -162 -150 -162 -260c0 -56 12 -119 35 -197c81 97 148 199 148 325z" fill="currentColor"/>
</g>
<g transform="translate(48.6476, 54.4672)">
<rect x="-0.0611" y="-0.8081" width="0.1222" height="2.8036" ry="0.0364" fill="currentColor"/>
</g>
<a style="color:inherit;" xlink:href="textedit:///Users/marc.mouries/projects/Sheet-Music/Folk_Finland/Ievan-Polkka/Ievan-polkka-%28Dm%29.ly:57:26:27">
<g transform="translate(51.0564, 52.9672)">
<path transform="scale(0.0040, -0.0040)" d="M220 135c11 0 106 -2 106 -87c0 -89 -114 -183 -220 -183c-11 0 -106 2 -106 87c0 89 114 183 220 183z" fill="currentColor"/>
</g>
</a>
<g transform="translate(51.1175, 54.4672)">
<rect x="-0.0611" y="-1.3081" width="0.1222" height="3.1197" ry="0.0364" fill="currentColor"/>
</g>
<a style="color:inherit;" xlink:href="textedit:///Users/marc.mouries/projects/Sheet-Music/Folk_Finland/Ievan-Polkka/Ievan-polkka-%28Dm%29.ly:57:28:29">
<g transform="translate(53.5262, 52.4672)">
<path transform="scale(0.0040, -0.0040)" d="M220 135c11 0 106 -2 106 -87c0 -89 -114 -183 -220 -183c-11 0 -106 2 -106 87c0 89 114 183 220 183z" fill="currentColor"/>
</g>
</a>
<g transform="translate(53.5873, 54.4672)">
<rect x="-0.0611" y="-1.8081" width="0.1222" height="2.8036" ry="0.0364" fill="currentColor"/>
</g>
<a style="color:inherit;" xlink:href="textedit:///Users/marc.mouries/projects/Sheet-Music/Folk_Finland/Ievan-Polkka/Ievan-polkka-%28Dm%29.ly:57:30:31">
<g transform="translate(55.9961, 51.9672)">
<path transform="scale(0.0040, -0.0040)" d="M220 135c11 0 106 -2 106 -87c0 -89 -114 -183 -220 -183c-11 0 -106 2 -106 87c0 89 114 183 220 183z" fill="currentColor"/>
</g>
</a>
<g transform="translate(56.0572, 54.4672)">
<rect x="-0.0611" y="-2.3081" width="0.1222" height="3.1197" ry="0.0364" fill="currentColor"/>
</g>
<a style="color:inherit;" xlink:href="textedit:///Users/marc.mouries/projects/Sheet-Music/Folk_Finland/Ievan-Polkka/Ievan-polkka-%28Dm%29.ly:58:6:7">
<g transform="translate(59.4813, 51.4672)">
<path transform="scale(0.0040, -0.0040)" d="M220 135c11 0 106 -2 106 -87c0 -89 -114 -183 -220 -183c-11 0 -106 2 -106 87c0 89 114 183 220 183z" fill="currentColor"/>
</g>
</a>
<g transform="translate(61.2401, 50.9672)">
<path transform="scale(0.0040, -0.0040)" d="M0 0c0 31 26 57 57 57s56 -26 56 -57s-25 -57 -56 -57s-57 26 -57 57z" fill="currentColor"/>
</g>
<g transform="translate(59.5424, 54.4672)">
<rect x="-0.0611" y="-2.8081" width="0.1222" height="3.0135" ry="0.0364" fill="currentColor"/>
</g>
<a style="color:inherit;" xlink:href="textedit:///Users/marc.mouries/projects/Sheet-Music/Folk_Finland/Ievan-Polkka/Ievan-polkka-%28Dm%29.ly:58:10:11">
<g transform="translate(62.3825, 52.4672)">
<path transform="scale(0.0040, -0.0040)" d="M220 135c11 0 106 -2 106 -87c0 -89 -114 -183 -220 -183c-11 0 -106 2 -106 87c0 89 114 183 220 183z" fill="currentColor"/>
</g>
</a>
<g transform="translate(62.4436, 54.4672)">
<rect x="-0.0611" y="-1.8081" width="0.1222" height="2.6027" ry="0.0364" fill="currentColor"/>
</g>
<a style="color:inherit;" xlink:href="textedit:///Users/marc.mouries/projects/Sheet-Music/Folk_Finland/Ievan-Polkka/Ievan-polkka-%28Dm%29.ly:58:14:15">
<g transform="translate(64.2700, 52.4672)">
<path transform="scale(0.0040, -0.0040)" d="M220 135c11 0 106 -2 106 -87c0 -89 -114 -183 -220 -183c-11 0 -106 2 -106 87c0 89 114 183 220 183z" fill="currentColor"/>
</g>
</a>
<g transform="translate(64.3311, 54.4672)">
<rect x="-0.0611" y="-1.8081" width="0.1222" height="2.6020" ry="0.0364" fill="currentColor"/>
</g>
<a style="color:inherit;" xlink:href="textedit:///Users/marc.mouries/projects/Sheet-Music/Folk_Finland/Ievan-Polkka/Ievan-polkka-%28Dm%29.ly:58:17:18">
<g transform="translate(66.9898, 51.4672)">
<path transform="scale(0.0040, -0.0040)" d="M220 135c11 0 106 -2 106 -87c0 -89 -114 -183 -220 -183c-11 0 -106 2 -106 87c0 89 114 183 220 183z" fill="currentColor"/>
</g>
</a>
<g transform="translate(67.0510, 54.4672)">
<rect x="-0.0611" y="-2.8081" width="0.1222" height="3.0143" ry="0.0364" fill="currentColor"/>
</g>
<a style="color:inherit;" xlink:href="textedit:///Users/marc.mouries/projects/Sheet-Music/Folk_Finland/Ievan-Polkka/Ievan-polkka-%28Dm%29.ly:58:23:24">
<g transform="translate(70.5037, 51.9672)">
<path transform="scale(0.0040, -0.0040)" d="M220 135c11 0 106 -2 106 -87c0 -89 -114 -183 -220 -183c-11 0 -106 2 -106 87c0 89 114 183 220 183z" fill="currentColor"/>
</g>
</a>
<g transform="translate(70.5648, 54.4672)">
<rect x="-0.0611" y="-2.3081" width="0.1222" height="3.5172" ry="0.0364" fill="currentColor"/>
</g>
<a style="color:inherit;" xlink:href="textedit:///Users/marc.mouries/projects/Sheet-Music/Folk_Finland/Ievan-Polkka/Ievan-polkka-%28Dm%29.ly:58:26:27">
<g transform="translate(72.7235, 52.9672)">
<path transform="scale(0.0040, -0.0040)" d="M220 135c11 0 106 -2 106 -87c0 -89 -114 -183 -220 -183c-11 0 -106 2 -106 87c0 89 114 183 220 183z" fill="currentColor"/>
</g>
</a>
<g transform="translate(72.7846, 54.4672)">
<rect x="-0.0611" y="-1.3081" width="0.1222" height="3.0991" ry="0.0364" fill="currentColor"/>
</g>
<g transform="translate(98.1306, 54.4672)">
<rect x="-0.0611" y="-0.8081" width="0.1222" height="3.3081" ry="0.0364" fill="currentColor"/>
</g>
<a style="color:inherit;" xlink:href="textedit:///Users/marc.mouries/projects/Sheet-Music/Folk_Finland/Ievan-Polkka/Ievan-polkka-%28Dm%29.ly:58:28:29">
<g transform="translate(75.1934, 52.9672)">
<path transform="scale(0.0040, -0.0040)" d="M220 135c11 0 106 -2 106 -87c0 -89 -114 -183 -220 -183c-11 0 -106 2 -106 87c0 89 114 183 220 183z" fill="currentColor"/>
</g>
</a>
<g transform="translate(75.2545, 54.4672)">
<rect x="-0.0611" y="-1.3081" width="0.1222" height="2.4966" ry="0.0364" fill="currentColor"/>
</g>
<a style="color:inherit;" xlink:href="textedit:///Users/marc.mouries/projects/Sheet-Music/Folk_Finland/Ievan-Polkka/Ievan-polkka-%28Dm%29.ly:59:28:29">
<g transform="translate(98.0695, 53.4672)">
<path transform="scale(0.0040, -0.0040)" d="M220 135c11 0 106 -2 106 -87c0 -89 -114 -183 -220 -183c-11 0 -106 2 -106 87c0 89 114 183 220 183z" fill="currentColor"/>
</g>
</a>
<a style="color:inherit;" xlink:href="textedit:///Users/marc.mouries/projects/Sheet-Music/Folk_Finland/Ievan-Polkka/Ievan-polkka-%28Dm%29.ly:58:30:31">
<g transform="translate(77.6632, 52.4672)">
<path transform="scale(0.0040, -0.0040)" d="M220 135c11 0 106 -2 106 -87c0 -89 -114 -183 -220 -183c-11 0 -106 2 -106 87c0 89 114 183 220 183z" fill="currentColor"/>
</g>
</a>
<g transform="translate(77.7243, 54.4672)">
<rect x="-0.0611" y="-1.8081" width="0.1222" height="2.8127" ry="0.0364" fill="currentColor"/>
</g>
<a style="color:inherit;" xlink:href="textedit:///Users/marc.mouries/projects/Sheet-Music/Folk_Finland/Ievan-Polkka/Ievan-polkka-%28Dm%29.ly:59:6:7">
<g transform="translate(81.1485, 51.9672)">
<path transform="scale(0.0040, -0.0040)" d="M220 135c11 0 106 -2 106 -87c0 -89 -114 -183 -220 -183c-11 0 -106 2 -106 87c0 89 114 183 220 183z" fill="currentColor"/>
</g>
</a>
<g transform="translate(81.2096, 54.4672)">
<rect x="-0.0611" y="-2.3081" width="0.1222" height="3.1152" ry="0.0364" fill="currentColor"/>
</g>
<a style="color:inherit;" xlink:href="textedit:///Users/marc.mouries/projects/Sheet-Music/Folk_Finland/Ievan-Polkka/Ievan-polkka-%28Dm%29.ly:59:9:10">
<g transform="translate(83.6183, 52.4672)">
<path transform="scale(0.0040, -0.0040)" d="M220 135c11 0 106 -2 106 -87c0 -89 -114 -183 -220 -183c-11 0 -106 2 -106 87c0 89 114 183 220 183z" fill="currentColor"/>
</g>
</a>
<g transform="translate(83.6795, 54.4672)">
<rect x="-0.0611" y="-1.8081" width="0.1222" height="2.6152" ry="0.0364" fill="currentColor"/>
</g>
<a style="color:inherit;" xlink:href="textedit:///Users/marc.mouries/projects/Sheet-Music/Folk_Finland/Ievan-Polkka/Ievan-polkka-%28Dm%29.ly:59:13:14">
<g transform="translate(85.5059, 51.9672)">
<path transform="scale(0.0040, -0.0040)" d="M220 135c11 0 106 -2 106 -87c0 -89 -114 -183 -220 -183c-11 0 -106 2 -106 87c0 89 114 183 220 183z" fill="currentColor"/>
</g>
</a>
<g transform="translate(85.5670, 54.4672)">
<rect x="-0.0611" y="-2.3081" width="0.1222" height="3.1152" ry="0.0364" fill="currentColor"/>
</g>
<g transform="translate(95.6608, 54.4672)">
<rect x="-0.0611" y="-0.8081" width="0.1222" height="2.5991" ry="0.0364" fill="currentColor"/>
</g>
<a style="color:inherit;" xlink:href="textedit:///Users/marc.mouries/projects/Sheet-Music/Folk_Finland/Ievan-Polkka/Ievan-polkka-%28Dm%29.ly:59:15:16">
<g transform="translate(87.3934, 52.4672)">
<path transform="scale(0.0040, -0.0040)" d="M220 135c11 0 106 -2 106 -87c0 -89 -114 -183 -220 -183c-11 0 -106 2 -106 87c0 89 114 183 220 183z" fill="currentColor"/>
</g>
</a>
<g transform="translate(87.4545, 54.4672)">
<rect x="-0.0611" y="-1.8081" width="0.1222" height="2.8127" ry="0.0364" fill="currentColor"/>
</g>
<a style="color:inherit;" xlink:href="textedit:///Users/marc.mouries/projects/Sheet-Music/Folk_Finland/Ievan-Polkka/Ievan-polkka-%28Dm%29.ly:59:26:27">
<g transform="translate(95.5997, 53.4672)">
<path transform="scale(0.0040, -0.0040)" d="M220 135c11 0 106 -2 106 -87c0 -89 -114 -183 -220 -183c-11 0 -106 2 -106 87c0 89 114 183 220 183z" fill="currentColor"/>
</g>
</a>
<a style="color:inherit;" xlink:href="textedit:///Users/marc.mouries/projects/Sheet-Music/Folk_Finland/Ievan-Polkka/Ievan-polkka-%28Dm%29.ly:59:18:19">
<g transform="translate(89.8632, 52.9672)">
<path transform="scale(0.0040, -0.0040)" d="M220 135c11 0 106 -2 106 -87c0 -89 -114 -183 -220 -183c-11 0 -106 2 -106 87c0 89 114 183 220 183z" fill="currentColor"/>
</g>
</a>
<g transform="translate(89.9243, 54.4672)">
<rect x="-0.0611" y="-1.3081" width="0.1222" height="2.4966" ry="0.0364" fill="currentColor"/>
</g>
<a style="color:inherit;" xlink:href="textedit:///Users/marc.mouries/projects/Sheet-Music/Folk_Finland/Ievan-Polkka/Ievan-polkka-%28Dm%29.ly:59:23:24">
<g transform="translate(93.3798, 52.4672)">
<path transform="scale(0.0040, -0.0040)" d="M220 135c11 0 106 -2 106 -87c0 -89 -114 -183 -220 -183c-11 0 -106 2 -106 87c0 89 114 183 220 183z" fill="currentColor"/>
</g>
</a>
<g transform="translate(93.4409, 54.4672)">
<rect x="-0.0611" y="-1.8081" width="0.1222" height="3.0172" ry="0.0364" fill="currentColor"/>
</g>
<g transform="translate(29.1615, 150.0661)">
<a xlink:href="https://lilypond.org/">
<rect x="0.0000" y="-0.4748" width="50.3148" height="2.0025" fill="none" stroke="none" stroke-width="0.0"/>
</a>
</g>
<g transform="translate(29.1615, 150.0661)">
<text font-family="serif" font-size="2.2001" text-anchor="start" fill="currentColor">
<tspan>Music engraving by LilyPond 2.24.4www.lilypond.org</tspan>
</text>
</g>
</svg>
