<svg xmlns="http://www.w3.org/2000/svg" xmlns:xlink="http://www.w3.org/1999/xlink" version="1.2" width="210.00mm" height="297.00mm" viewBox="0.0000 -0.0000 119.5016 169.0094">
<style type="text/css">
<![CDATA[
tspan { white-space: pre; }
]]>
</style>
<g transform="translate(45.5301, 6.9166)">
<text font-family="Optima" font-weight="bold" font-size="4.3999" text-anchor="start" fill="currentColor">
<tspan>L</tspan>
</text>
</g>
<g transform="translate(47.7153, 6.9166)">
<text font-family="Optima" font-weight="bold" font-size="3.4923" text-anchor="start" fill="currentColor">
<tspan>A</tspan>
</text>
</g>
<g transform="translate(50.0370, 6.9166)">
<text font-family="Optima" font-weight="bold" font-size="4.3999" text-anchor="start" fill="currentColor">
<tspan> C</tspan>
</text>
</g>
<g transform="translate(54.2025, 6.9166)">
<text font-family="Optima" font-weight="bold" font-size="3.4923" text-anchor="start" fill="currentColor">
<tspan>AMPANELLA</tspan>
</text>
</g>
<g transform="translate(97.6271, 6.9166)">
<text font-family="Optima" font-size="2.2000" text-anchor="start" fill="currentColor">
<tspan>Niccolò Paganini</tspan>
</text>
</g>
<g transform="translate(5.6906, 23.6312)">
<rect x="70.3467" y="-0.1050" width="1.3281" height="0.2100" ry="0.1050" fill="currentColor"/>
</g>
<g transform="translate(5.6906, 22.5312)">
<rect x="57.9917" y="-0.1050" width="1.9563" height="0.2100" ry="0.1050" fill="currentColor"/>
</g>
<g transform="translate(5.6906, 23.6312)">
<rect x="57.9917" y="-0.1050" width="1.9563" height="0.2100" ry="0.1050" fill="currentColor"/>
</g>
<g transform="translate(5.6906, 23.6312)">
<rect x="56.3230" y="-0.1050" width="1.3768" height="0.2100" ry="0.1050" fill="currentColor"/>
</g>
<g transform="translate(5.6906, 23.6312)">
<rect x="54.5702" y="-0.1050" width="1.3768" height="0.2100" ry="0.1050" fill="currentColor"/>
</g>
<g transform="translate(5.6906, 23.6312)">
<rect x="51.6923" y="-0.1050" width="1.9563" height="0.2100" ry="0.1050" fill="currentColor"/>
</g>
<g transform="translate(5.6906, 23.6312)">
<rect x="48.3343" y="-0.1050" width="1.8053" height="0.2100" ry="0.1050" fill="currentColor"/>
</g>
<g transform="translate(5.6906, 23.6312)">
<rect x="43.8241" y="-0.1050" width="1.9563" height="0.2100" ry="0.1050" fill="currentColor"/>
</g>
<g transform="translate(5.6906, 22.5312)">
<rect x="42.1679" y="-0.1050" width="1.3768" height="0.2100" ry="0.1050" fill="currentColor"/>
</g>
<g transform="translate(5.6906, 23.6312)">
<rect x="42.1679" y="-0.1050" width="1.3768" height="0.2100" ry="0.1050" fill="currentColor"/>
</g>
<g transform="translate(5.6906, 23.6312)">
<rect x="40.4150" y="-0.1050" width="1.3768" height="0.2100" ry="0.1050" fill="currentColor"/>
</g>
<g transform="translate(5.6906, 22.5312)">
<rect x="37.5371" y="-0.1050" width="1.9563" height="0.2100" ry="0.1050" fill="currentColor"/>
</g>
<g transform="translate(5.6906, 23.6312)">
<rect x="37.5371" y="-0.1050" width="1.9563" height="0.2100" ry="0.1050" fill="currentColor"/>
</g>
<g transform="translate(5.6906, 22.5312)">
<rect x="34.0280" y="-0.1050" width="1.9563" height="0.2100" ry="0.1050" fill="currentColor"/>
</g>
<g transform="translate(5.6906, 23.6312)">
<rect x="34.0280" y="-0.1050" width="1.9563" height="0.2100" ry="0.1050" fill="currentColor"/>
</g>
<g transform="translate(5.6906, 22.5312)">
<rect x="30.5190" y="-0.1050" width="1.9563" height="0.2100" ry="0.1050" fill="currentColor"/>
</g>
<g transform="translate(5.6906, 23.6312)">
<rect x="30.5190" y="-0.1050" width="1.9563" height="0.2100" ry="0.1050" fill="currentColor"/>
</g>
<g transform="translate(5.6906, 21.4312)">
<rect x="27.0099" y="-0.1050" width="1.9563" height="0.2100" ry="0.1050" fill="currentColor"/>
</g>
<g transform="translate(5.6906, 22.5312)">
<rect x="27.0099" y="-0.1050" width="1.9563" height="0.2100" ry="0.1050" fill="currentColor"/>
</g>
<g transform="translate(5.6906, 23.6312)">
<rect x="27.0099" y="-0.1050" width="1.9563" height="0.2100" ry="0.1050" fill="currentColor"/>
</g>
<g transform="translate(5.6906, 21.4312)">
<rect x="23.5008" y="-0.1050" width="1.9563" height="0.2100" ry="0.1050" fill="currentColor"/>
</g>
<g transform="translate(5.6906, 22.5312)">
<rect x="23.5008" y="-0.1050" width="1.9563" height="0.2100" ry="0.1050" fill="currentColor"/>
</g>
<g transform="translate(5.6906, 23.6312)">
<rect x="23.5008" y="-0.1050" width="1.9563" height="0.2100" ry="0.1050" fill="currentColor"/>
</g>
<g transform="translate(5.6906, 21.4312)">
<rect x="19.9918" y="-0.1050" width="1.9563" height="0.2100" ry="0.1050" fill="currentColor"/>
</g>
<g transform="translate(5.6906, 22.5312)">
<rect x="19.9918" y="-0.1050" width="1.9563" height="0.2100" ry="0.1050" fill="currentColor"/>
</g>
<g transform="translate(5.6906, 23.6312)">
<rect x="19.9918" y="-0.1050" width="1.9563" height="0.2100" ry="0.1050" fill="currentColor"/>
</g>
<g transform="translate(11.3811, 29.1312)">
<line stroke-linejoin="round" stroke-linecap="round" stroke-width="0.1000" stroke="currentColor" x1="0.0500" y1="0" x2="102.3799" y2="0"/>
</g>
<g transform="translate(11.3811, 28.0312)">
<line stroke-linejoin="round" stroke-linecap="round" stroke-width="0.1000" stroke="currentColor" x1="0.0500" y1="0" x2="102.3799" y2="0"/>
</g>
<g transform="translate(11.3811, 26.9312)">
<line stroke-linejoin="round" stroke-linecap="round" stroke-width="0.1000" stroke="currentColor" x1="0.0500" y1="0" x2="102.3799" y2="0"/>
</g>
<g transform="translate(11.3811, 25.8312)">
<line stroke-linejoin="round" stroke-linecap="round" stroke-width="0.1000" stroke="currentColor" x1="0.0500" y1="0" x2="102.3799" y2="0"/>
</g>
<g transform="translate(11.3811, 24.7312)">
<line stroke-linejoin="round" stroke-linecap="round" stroke-width="0.1000" stroke="currentColor" x1="0.0500" y1="0" x2="102.3799" y2="0"/>
</g>
<g transform="translate(113.6210, 26.9312)">
<rect x="0.0000" y="-2.2000" width="0.1900" height="4.4000" ry="0.0000" fill="currentColor"/>
</g>
<g transform="translate(88.2602, 26.9312)">
<rect x="0.0000" y="-2.2000" width="0.1900" height="4.4000" ry="0.0000" fill="currentColor"/>
</g>
<g transform="translate(103.2246, 29.3452)">
<polygon stroke-linejoin="round" stroke-linecap="round" stroke-width="0.0800" fill="currentColor" stroke="currentColor" points="7.1081 0.4480 7.1081 0.8960 0.0400 0.2240 0.0400 -0.2240"/>
</g>
<g transform="translate(100.5068, 23.4700)">
<polygon stroke-linejoin="round" stroke-linecap="round" stroke-width="0.0800" fill="currentColor" stroke="currentColor" points="1.8428 -0.5600 1.8428 -0.2176 0.0400 0.1712 0.0400 -0.1712"/>
</g>
<g transform="translate(100.5068, 24.1788)">
<polygon stroke-linejoin="round" stroke-linecap="round" stroke-width="0.0800" fill="currentColor" stroke="currentColor" points="1.8428 -0.5600 1.8428 -0.2176 0.0400 0.1712 0.0400 -0.1712"/>
</g>
<a style="color:inherit;" xlink:href="textedit:///Users/Marc/Projects/violin-music.github.io/tunes/Classical/La-Campanella%20%28Paganini%2c%20Niccolo%cc%80%29/La-Campanella.ly:21:2:3">
<g transform="translate(22.4993, 24.7312)">
<path transform="scale(0.0040, -0.0040)" d="M218 136c66 0 108 -36 108 -89c0 -89 -113 -183 -218 -183c-66 0 -108 36 -108 89c0 89 113 183 218 183z" fill="currentColor"/>
</g>
</a>
<g transform="translate(12.1811, 28.0312)">
<path transform="scale(0.0040, -0.0040)" d="M266 -635h-6c-108 0 -195 88 -195 197c0 58 53 103 112 103c54 0 95 -47 95 -103c0 -52 -43 -95 -95 -95c-11 0 -21 2 -31 6c26 -39 68 -65 117 -65h4zM461 -203c68 24 113 90 113 164c0 90 -66 179 -173 190c19 -89 48 -242 60 -354zM74 28c0 -145 141 -247 264 -247
c1 0 47 0 82 6c-7 64 -29 203 -63 364c-79 -8 -124 -61 -124 -119c0 -44 25 -91 81 -123c5 -5 7 -10 7 -15c0 -11 -10 -22 -22 -22c-15 0 -126 62 -126 187c0 88 58 174 160 197c-14 58 -29 117 -46 175c-107 -121 -213 -243 -213 -403zM250 553c-29 96 -52 170 -52 346
c0 115 55 224 149 292c6 5 14 5 20 0c68 -80 133 -245 133 -358c0 -143 -86 -255 -180 -364c21 -68 39 -138 56 -207c2 0 7 1 13 1c155 0 256 -128 256 -261c0 -113 -74 -212 -180 -246c3 -35 5 -70 5 -105c0 -19 -1 -39 -2 -58c-7 -119 -88 -225 -202 -228l1 43
c93 2 153 92 159 191c1 18 2 37 2 55c0 31 -1 61 -4 92c-5 -1 -44 -8 -89 -8c-193 0 -333 180 -333 374c0 177 131 306 248 441zM428 916c0 34 1 66 -20 129c-99 -48 -162 -149 -162 -259c0 -52 12 -115 36 -194c80 97 146 198 146 324z" fill="currentColor"/>
</g>
<a style="color:inherit;" xlink:href="textedit:///Users/Marc/Projects/violin-music.github.io/tunes/Classical/La-Campanella%20%28Paganini%2c%20Niccolo%cc%80%29/La-Campanella.ly:13:2:3">
<g transform="translate(15.6811, 24.7312)">
<path transform="scale(0.0040, -0.0040)" d="M0 119c0 8 5 15 13 18l46 17v158c0 10 8 19 18 19s19 -9 19 -19v-145l83 31v158c0 10 9 19 19 19s18 -9 18 -19v-145l32 12c2 1 5 1 7 1c11 0 20 -9 20 -20v-60c0 -8 -5 -16 -13 -19l-46 -16v-160l32 11c2 1 5 1 7 1c11 0 20 -9 20 -20v-60c0 -8 -5 -15 -13 -18l-46 -17
v-158c0 -10 -8 -19 -18 -19s-19 9 -19 19v145l-83 -31v-158c0 -10 -9 -19 -19 -19s-18 9 -18 19v145l-32 -12c-2 -1 -5 -1 -7 -1c-11 0 -20 9 -20 20v60c0 8 5 16 13 19l46 16v160l-32 -11c-2 -1 -5 -1 -7 -1c-11 0 -20 9 -20 20v60zM179 95l-83 -30v-160l83 30v160z" fill="currentColor"/>
</g>
<g transform="translate(16.7811, 26.3812)">
<path transform="scale(0.0040, -0.0040)" d="M0 119c0 8 5 15 13 18l46 17v158c0 10 8 19 18 19s19 -9 19 -19v-145l83 31v158c0 10 9 19 19 19s18 -9 18 -19v-145l32 12c2 1 5 1 7 1c11 0 20 -9 20 -20v-60c0 -8 -5 -16 -13 -19l-46 -16v-160l32 11c2 1 5 1 7 1c11 0 20 -9 20 -20v-60c0 -8 -5 -15 -13 -18l-46 -17
v-158c0 -10 -8 -19 -18 -19s-19 9 -19 19v145l-83 -31v-158c0 -10 -9 -19 -19 -19s-18 9 -18 19v145l-32 -12c-2 -1 -5 -1 -7 -1c-11 0 -20 9 -20 20v60c0 8 5 16 13 19l46 16v160l-32 -11c-2 -1 -5 -1 -7 -1c-11 0 -20 9 -20 20v60zM179 95l-83 -30v-160l83 30v160z" fill="currentColor"/>
</g>
</a>
<a style="color:inherit;" xlink:href="textedit:///Users/Marc/Projects/violin-music.github.io/tunes/Classical/La-Campanella%20%28Paganini%2c%20Niccolo%cc%80%29/La-Campanella.ly:12:2:3">
<g transform="translate(19.0823, 26.9312)">
<path transform="scale(0.0040, -0.0040)" d="M170 259c-51 0 -53 -43 -53 -100v-18v-18c0 -57 2 -100 53 -100c57 0 61 51 61 118s-4 118 -61 118zM117 266c15 10 33 16 53 16c101 0 170 -46 170 -141s-69 -141 -170 -141c-112 0 -170 124 -170 250c0 128 72 250 190 250c70 0 136 -39 136 -103
c0 -36 -29 -66 -65 -66s-66 30 -66 66c0 24 40 25 40 49c0 20 -23 31 -45 31c-66 0 -75 -65 -75 -139c0 -24 2 -48 2 -72z" fill="currentColor"/>
</g>
<g transform="translate(19.0311, 28.9312)">
<path transform="scale(0.0040, -0.0040)" d="M261 287c25 30 44 64 44 103c0 54 -55 87 -114 87c-46 0 -73 -36 -73 -71c0 -21 10 -42 31 -54zM292 269c23 -13 80 -54 80 -125c0 -73 -66 -144 -189 -144c-94 0 -183 54 -183 140c0 50 36 87 72 123c-37 28 -55 66 -55 103c0 68 60 134 174 134c80 0 157 -39 157 -110
c0 -46 -25 -86 -56 -121zM103 244c-31 -30 -59 -61 -59 -104c0 -69 66 -117 139 -117c54 0 86 42 86 83c0 24 -10 48 -35 62z" fill="currentColor"/>
</g>
</a>
<g transform="translate(22.5643, 26.9312)">
<rect x="-0.0650" y="-2.0139" width="0.1300" height="3.6639" ry="0.0400" fill="currentColor"/>
</g>
<g transform="translate(22.6293, 28.5412)">
<path transform="scale(0.0040, -0.0040)" d="M0 0h-16v250h16v-250zM0 0v250c97 59 224 148 224 259c0 57 -15 112 -40 163c-3 16 10 27 23 27c7 0 15 -3 20 -11c25 -56 40 -117 40 -179c0 -203 -267 -306 -267 -509z" fill="currentColor"/>
</g>
<g transform="translate(89.8935, 29.3452)">
<polygon stroke-linejoin="round" stroke-linecap="round" stroke-width="0.0800" fill="currentColor" stroke="currentColor" points="7.1081 0.4480 7.1081 0.8960 0.0400 0.2240 0.0400 -0.2240"/>
</g>
<a style="color:inherit;" xlink:href="textedit:///Users/Marc/Projects/violin-music.github.io/tunes/Classical/La-Campanella%20%28Paganini%2c%20Niccolo%cc%80%29/La-Campanella.ly:21:9:10">
<g transform="translate(26.0084, 20.8812)">
<path transform="scale(0.0040, -0.0040)" d="M218 136c66 0 108 -36 108 -89c0 -89 -113 -183 -218 -183c-66 0 -108 36 -108 89c0 89 113 183 218 183z" fill="currentColor"/>
</g>
</a>
<a style="color:inherit;" xlink:href="textedit:///Users/Marc/Projects/violin-music.github.io/tunes/Classical/La-Campanella%20%28Paganini%2c%20Niccolo%cc%80%29/La-Campanella.ly:21:12:13">
<g transform="translate(26.6605, 19.5862)">
<path transform="scale(0.0040, -0.0040)" d="M128 508c2 7 9 12 17 12c10 0 18 -7 18 -17c0 -2 -1 -4 -1 -6l-145 -485c-2 -7 -9 -12 -17 -12s-15 5 -17 12l-145 485v6c0 10 7 17 17 17c8 0 15 -5 17 -12l88 -295l40 -164l40 164z" fill="currentColor"/>
</g>
</a>
<g transform="translate(26.0734, 26.9312)">
<rect x="-0.0650" y="-5.8639" width="0.1300" height="5.8639" ry="0.0400" fill="currentColor"/>
</g>
<a style="color:inherit;" xlink:href="textedit:///Users/Marc/Projects/violin-music.github.io/tunes/Classical/La-Campanella%20%28Paganini%2c%20Niccolo%cc%80%29/La-Campanella.ly:21:21:22">
<g transform="translate(29.5174, 20.8812)">
<path transform="scale(0.0040, -0.0040)" d="M218 136c66 0 108 -36 108 -89c0 -89 -113 -183 -218 -183c-66 0 -108 36 -108 89c0 89 113 183 218 183z" fill="currentColor"/>
</g>
</a>
<a style="color:inherit;" xlink:href="textedit:///Users/Marc/Projects/violin-music.github.io/tunes/Classical/La-Campanella%20%28Paganini%2c%20Niccolo%cc%80%29/La-Campanella.ly:21:23:24">
<g transform="translate(30.1695, 19.9162)">
<path transform="scale(0.0040, -0.0040)" d="M-50 0c0 28 22 50 50 50s50 -22 50 -50s-22 -50 -50 -50s-50 22 -50 50z" fill="currentColor"/>
</g>
</a>
<g transform="translate(29.5824, 26.9312)">
<rect x="-0.0650" y="-5.8639" width="0.1300" height="5.8639" ry="0.0400" fill="currentColor"/>
</g>
<a style="color:inherit;" xlink:href="textedit:///opt/local/share/lilypond/2.24.4/ly/grace-init.ly:41:6:7">
<g transform="translate(99.7189, 26.9312)">
<path stroke-width="0.0800" stroke-linejoin="round" stroke-linecap="round" stroke="currentColor" fill="currentColor" d="M0.4240 -0.1560C1.0885 0.6331 2.3811 0.7800 3.2057 0.1600L3.2057 0.1600C2.3947 0.6607 1.1020 0.5139 0.4240 -0.1560z"/>
</g>
</a>
<a style="color:inherit;" xlink:href="textedit:///Users/Marc/Projects/violin-music.github.io/tunes/Classical/La-Campanella%20%28Paganini%2c%20Niccolo%cc%80%29/La-Campanella.ly:21:26:27">
<g transform="translate(33.0265, 21.4312)">
<path transform="scale(0.0040, -0.0040)" d="M218 136c66 0 108 -36 108 -89c0 -89 -113 -183 -218 -183c-66 0 -108 36 -108 89c0 89 113 183 218 183z" fill="currentColor"/>
</g>
</a>
<a style="color:inherit;" xlink:href="textedit:///Users/Marc/Projects/violin-music.github.io/tunes/Classical/La-Campanella%20%28Paganini%2c%20Niccolo%cc%80%29/La-Campanella.ly:21:27:28">
<g transform="translate(33.6786, 20.4662)">
<path transform="scale(0.0040, -0.0040)" d="M-50 0c0 28 22 50 50 50s50 -22 50 -50s-22 -50 -50 -50s-50 22 -50 50z" fill="currentColor"/>
</g>
</a>
<g transform="translate(33.0915, 26.9312)">
<rect x="-0.0650" y="-5.3139" width="0.1300" height="5.3139" ry="0.0400" fill="currentColor"/>
</g>
<g transform="translate(77.9709, 28.2452)">
<polygon stroke-linejoin="round" stroke-linecap="round" stroke-width="0.0800" fill="currentColor" stroke="currentColor" points="7.1081 0.4480 7.1081 0.8960 0.0400 0.2240 0.0400 -0.2240"/>
</g>
<a style="color:inherit;" xlink:href="textedit:///Users/Marc/Projects/violin-music.github.io/tunes/Classical/La-Campanella%20%28Paganini%2c%20Niccolo%cc%80%29/La-Campanella.ly:22:2:3">
<g transform="translate(36.5356, 21.9812)">
<path transform="scale(0.0040, -0.0040)" d="M218 136c66 0 108 -36 108 -89c0 -89 -113 -183 -218 -183c-66 0 -108 36 -108 89c0 89 113 183 218 183z" fill="currentColor"/>
</g>
</a>
<a style="color:inherit;" xlink:href="textedit:///Users/Marc/Projects/violin-music.github.io/tunes/Classical/La-Campanella%20%28Paganini%2c%20Niccolo%cc%80%29/La-Campanella.ly:22:3:4">
<g transform="translate(37.1877, 21.0162)">
<path transform="scale(0.0040, -0.0040)" d="M-50 0c0 28 22 50 50 50s50 -22 50 -50s-22 -50 -50 -50s-50 22 -50 50z" fill="currentColor"/>
</g>
</a>
<g transform="translate(36.6006, 26.9312)">
<rect x="-0.0650" y="-4.7639" width="0.1300" height="4.7639" ry="0.0400" fill="currentColor"/>
</g>
<g transform="translate(74.3716, 21.5924)">
<polygon stroke-linejoin="round" stroke-linecap="round" stroke-width="0.0800" fill="currentColor" stroke="currentColor" points="2.7243 -0.4936 2.7243 -0.1512 0.0400 0.1712 0.0400 -0.1712"/>
</g>
<g transform="translate(74.3716, 22.3012)">
<polygon stroke-linejoin="round" stroke-linecap="round" stroke-width="0.0800" fill="currentColor" stroke="currentColor" points="2.7243 -0.4936 2.7243 -0.1512 0.0400 0.1712 0.0400 -0.1712"/>
</g>
<a style="color:inherit;" xlink:href="textedit:///Users/Marc/Projects/violin-music.github.io/tunes/Classical/La-Campanella%20%28Paganini%2c%20Niccolo%cc%80%29/La-Campanella.ly:22:6:7">
<g transform="translate(40.0446, 21.9812)">
<path transform="scale(0.0040, -0.0040)" d="M218 136c66 0 108 -36 108 -89c0 -89 -113 -183 -218 -183c-66 0 -108 36 -108 89c0 89 113 183 218 183z" fill="currentColor"/>
</g>
</a>
<a style="color:inherit;" xlink:href="textedit:///Users/Marc/Projects/violin-music.github.io/tunes/Classical/La-Campanella%20%28Paganini%2c%20Niccolo%cc%80%29/La-Campanella.ly:22:7:8">
<g transform="translate(40.6967, 21.0162)">
<path transform="scale(0.0040, -0.0040)" d="M-50 0c0 28 22 50 50 50s50 -22 50 -50s-22 -50 -50 -50s-50 22 -50 50z" fill="currentColor"/>
</g>
</a>
<g transform="translate(40.1096, 26.9312)">
<rect x="-0.0650" y="-4.7639" width="0.1300" height="4.7639" ry="0.0400" fill="currentColor"/>
</g>
<g transform="translate(64.0083, 27.8172)">
<polygon stroke-linejoin="round" stroke-linecap="round" stroke-width="0.0800" fill="currentColor" stroke="currentColor" points="6.8581 0.2040 6.8581 0.6520 0.0400 0.2240 0.0400 -0.2240"/>
</g>
<a style="color:inherit;" xlink:href="textedit:///Users/Marc/Projects/violin-music.github.io/tunes/Classical/La-Campanella%20%28Paganini%2c%20Niccolo%cc%80%29/La-Campanella.ly:22:10:11">
<g transform="translate(43.5537, 22.5312)">
<path transform="scale(0.0040, -0.0040)" d="M218 136c66 0 108 -36 108 -89c0 -89 -113 -183 -218 -183c-66 0 -108 36 -108 89c0 89 113 183 218 183z" fill="currentColor"/>
</g>
</a>
<a style="color:inherit;" xlink:href="textedit:///Users/Marc/Projects/violin-music.github.io/tunes/Classical/La-Campanella%20%28Paganini%2c%20Niccolo%cc%80%29/La-Campanella.ly:22:12:13">
<g transform="translate(44.2058, 21.5662)">
<path transform="scale(0.0040, -0.0040)" d="M-50 0c0 28 22 50 50 50s50 -22 50 -50s-22 -50 -50 -50s-50 22 -50 50z" fill="currentColor"/>
</g>
</a>
<g transform="translate(43.6187, 26.9312)">
<rect x="-0.0650" y="-4.2139" width="0.1300" height="4.2139" ry="0.0400" fill="currentColor"/>
</g>
<a style="color:inherit;" xlink:href="textedit:///Users/Marc/Projects/violin-music.github.io/tunes/Classical/La-Campanella%20%28Paganini%2c%20Niccolo%cc%80%29/La-Campanella.ly:23:18:19">
<g transform="translate(46.3350, 23.0812)">
<path transform="scale(0.0028, -0.0028)" d="M208 139c69 0 117 -40 117 -99c0 -91 -107 -179 -209 -179c-69 0 -116 40 -116 99c0 91 106 179 208 179z" fill="currentColor"/>
</g>
</a>
<g transform="translate(47.1879, 26.9312)">
<rect x="-0.0650" y="-6.4499" width="0.1300" height="2.4855" ry="0.0400" fill="currentColor"/>
</g>
<a style="color:inherit;" xlink:href="textedit:///opt/local/share/lilypond/2.24.4/ly/grace-init.ly:41:6:7">
<g transform="translate(73.5837, 26.9312)">
<path stroke-width="0.0800" stroke-linejoin="round" stroke-linecap="round" stroke="currentColor" fill="currentColor" d="M0.4462 -1.8624C1.3372 -1.1795 3.1244 -1.1054 4.0872 -1.7114L4.0872 -1.7114C3.1293 -1.2253 1.3421 -1.2994 0.4462 -1.8624z"/>
</g>
</a>
<a style="color:inherit;" xlink:href="textedit:///Users/Marc/Projects/violin-music.github.io/tunes/Classical/La-Campanella%20%28Paganini%2c%20Niccolo%cc%80%29/La-Campanella.ly:23:22:23">
<g transform="translate(48.0879, 22.5312)">
<path transform="scale(0.0028, -0.0028)" d="M208 139c69 0 117 -40 117 -99c0 -91 -107 -179 -209 -179c-69 0 -116 40 -116 99c0 91 106 179 208 179z" fill="currentColor"/>
</g>
</a>
<g transform="translate(48.9408, 26.9312)">
<rect x="-0.0650" y="-6.7501" width="0.1300" height="2.2357" ry="0.0400" fill="currentColor"/>
</g>
<g transform="translate(61.2781, 21.2700)">
<polygon stroke-linejoin="round" stroke-linecap="round" stroke-width="0.0800" fill="currentColor" stroke="currentColor" points="1.8428 -0.5600 1.8428 -0.2176 0.0400 0.1712 0.0400 -0.1712"/>
</g>
<g transform="translate(61.2781, 21.9788)">
<polygon stroke-linejoin="round" stroke-linecap="round" stroke-width="0.0800" fill="currentColor" stroke="currentColor" points="1.8428 -0.5600 1.8428 -0.2176 0.0400 0.1712 0.0400 -0.1712"/>
</g>
<a style="color:inherit;" xlink:href="textedit:///Users/Marc/Projects/violin-music.github.io/tunes/Classical/La-Campanella%20%28Paganini%2c%20Niccolo%cc%80%29/La-Campanella.ly:23:26:27">
<g transform="translate(49.8407, 23.0812)">
<path transform="scale(0.0040, -0.0040)" d="M218 136c66 0 108 -36 108 -89c0 -89 -113 -183 -218 -183c-66 0 -108 36 -108 89c0 89 113 183 218 183z" fill="currentColor"/>
</g>
</a>
<a style="color:inherit;" xlink:href="textedit:///Users/Marc/Projects/violin-music.github.io/tunes/Classical/La-Campanella%20%28Paganini%2c%20Niccolo%cc%80%29/La-Campanella.ly:23:28:29">
<g transform="translate(50.4928, 22.1162)">
<path transform="scale(0.0040, -0.0040)" d="M-50 0c0 28 22 50 50 50s50 -22 50 -50s-22 -50 -50 -50s-50 22 -50 50z" fill="currentColor"/>
</g>
</a>
<g transform="translate(49.9057, 26.9312)">
<rect x="-0.0650" y="-3.6639" width="0.1300" height="3.6639" ry="0.0400" fill="currentColor"/>
</g>
<g transform="translate(49.8407, 26.9312)">
<polygon stroke-linejoin="round" stroke-linecap="round" stroke-width="0.0800" fill="currentColor" stroke="currentColor" points="7.9581 -0.2240 7.9581 0.2240 0.0400 0.2240 0.0400 -0.2240"/>
</g>
<a style="color:inherit;" xlink:href="textedit:///Users/Marc/Projects/violin-music.github.io/tunes/Classical/La-Campanella%20%28Paganini%2c%20Niccolo%cc%80%29/La-Campanella.ly:23:31:32">
<g transform="translate(54.1998, 23.6312)">
<path transform="scale(0.0040, -0.0040)" d="M218 136c66 0 108 -36 108 -89c0 -89 -113 -183 -218 -183c-66 0 -108 36 -108 89c0 89 113 183 218 183z" fill="currentColor"/>
</g>
</a>
<a style="color:inherit;" xlink:href="textedit:///Users/Marc/Projects/violin-music.github.io/tunes/Classical/La-Campanella%20%28Paganini%2c%20Niccolo%cc%80%29/La-Campanella.ly:23:33:34">
<g transform="translate(54.8519, 22.6662)">
<path transform="scale(0.0040, -0.0040)" d="M-50 0c0 28 22 50 50 50s50 -22 50 -50s-22 -50 -50 -50s-50 22 -50 50z" fill="currentColor"/>
</g>
</a>
<g transform="translate(54.2648, 26.9312)">
<rect x="-0.0650" y="-3.1139" width="0.1300" height="3.1139" ry="0.0400" fill="currentColor"/>
</g>
<g transform="translate(52.7498, 23.6312)">
<path transform="scale(0.0040, -0.0040)" d="M0 119c0 8 5 15 13 18l46 17v158c0 10 8 19 18 19s19 -9 19 -19v-145l83 31v158c0 10 9 19 19 19s18 -9 18 -19v-145l32 12c2 1 5 1 7 1c11 0 20 -9 20 -20v-60c0 -8 -5 -16 -13 -19l-46 -16v-160l32 11c2 1 5 1 7 1c11 0 20 -9 20 -20v-60c0 -8 -5 -15 -13 -18l-46 -17
v-158c0 -10 -8 -19 -18 -19s-19 9 -19 19v145l-83 -31v-158c0 -10 -9 -19 -19 -19s-18 9 -18 19v145l-32 -12c-2 -1 -5 -1 -7 -1c-11 0 -20 9 -20 20v60c0 8 5 16 13 19l46 16v160l-32 -11c-2 -1 -5 -1 -7 -1c-11 0 -20 9 -20 20v60zM179 95l-83 -30v-160l83 30v160z" fill="currentColor"/>
</g>
<a style="color:inherit;" xlink:href="textedit:///Users/Marc/Projects/violin-music.github.io/tunes/Classical/La-Campanella%20%28Paganini%2c%20Niccolo%cc%80%29/La-Campanella.ly:24:28:29">
<g transform="translate(64.0083, 26.9312)">
<path stroke-width="0.0800" stroke-linejoin="round" stroke-linecap="round" stroke="currentColor" fill="currentColor" d="M0.8953 -5.4950C2.2245 -5.7043 3.8515 -4.6060 4.1544 -3.2950L4.1544 -3.2950C3.7843 -4.5066 2.1574 -5.6048 0.8953 -5.4950z"/>
</g>
</a>
<a style="color:inherit;" xlink:href="textedit:///Users/Marc/Projects/violin-music.github.io/tunes/Classical/La-Campanella%20%28Paganini%2c%20Niccolo%cc%80%29/La-Campanella.ly:23:36:37">
<g transform="translate(57.7089, 23.0812)">
<path transform="scale(0.0040, -0.0040)" d="M218 136c66 0 108 -36 108 -89c0 -89 -113 -183 -218 -183c-66 0 -108 36 -108 89c0 89 113 183 218 183z" fill="currentColor"/>
</g>
</a>
<a style="color:inherit;" xlink:href="textedit:///Users/Marc/Projects/violin-music.github.io/tunes/Classical/La-Campanella%20%28Paganini%2c%20Niccolo%cc%80%29/La-Campanella.ly:23:37:38">
<g transform="translate(58.3610, 22.1162)">
<path transform="scale(0.0040, -0.0040)" d="M-50 0c0 28 22 50 50 50s50 -22 50 -50s-22 -50 -50 -50s-50 22 -50 50z" fill="currentColor"/>
</g>
</a>
<g transform="translate(57.7739, 26.9312)">
<rect x="-0.0650" y="-3.6639" width="0.1300" height="3.6639" ry="0.0400" fill="currentColor"/>
</g>
<a style="color:inherit;" xlink:href="textedit:///Users/Marc/Projects/violin-music.github.io/tunes/Classical/La-Campanella%20%28Paganini%2c%20Niccolo%cc%80%29/La-Campanella.ly:24:17:18">
<g transform="translate(60.4902, 23.6312)">
<path transform="scale(0.0028, -0.0028)" d="M208 139c69 0 117 -40 117 -99c0 -91 -107 -179 -209 -179c-69 0 -116 40 -116 99c0 91 106 179 208 179z" fill="currentColor"/>
</g>
</a>
<g transform="translate(61.3431, 26.9312)">
<rect x="-0.0650" y="-5.6746" width="0.1300" height="2.2602" ry="0.0400" fill="currentColor"/>
</g>
<a style="color:inherit;" xlink:href="textedit:///opt/local/share/lilypond/2.24.4/ly/grace-init.ly:41:6:7">
<g transform="translate(60.4902, 26.9312)">
<path stroke-width="0.0800" stroke-linejoin="round" stroke-linecap="round" stroke="currentColor" fill="currentColor" d="M0.5585 -2.4487C1.5092 -2.2338 2.7472 -2.6755 3.2181 -3.3977L3.2181 -3.3977C2.7069 -2.7886 1.4688 -2.3468 0.5585 -2.4487z"/>
</g>
</a>
<a style="color:inherit;" xlink:href="textedit:///Users/Marc/Projects/violin-music.github.io/tunes/Classical/La-Campanella%20%28Paganini%2c%20Niccolo%cc%80%29/La-Campanella.ly:24:22:23">
<g transform="translate(62.2430, 23.0812)">
<path transform="scale(0.0028, -0.0028)" d="M208 139c69 0 117 -40 117 -99c0 -91 -107 -179 -209 -179c-69 0 -116 40 -116 99c0 91 106 179 208 179z" fill="currentColor"/>
</g>
</a>
<g transform="translate(63.0959, 26.9312)">
<rect x="-0.0650" y="-6.0366" width="0.1300" height="2.0722" ry="0.0400" fill="currentColor"/>
</g>
<g transform="translate(47.1229, 20.4924)">
<polygon stroke-linejoin="round" stroke-linecap="round" stroke-width="0.0800" fill="currentColor" stroke="currentColor" points="1.8428 -0.4936 1.8428 -0.1512 0.0400 0.1712 0.0400 -0.1712"/>
</g>
<g transform="translate(47.1229, 21.2012)">
<polygon stroke-linejoin="round" stroke-linecap="round" stroke-width="0.0800" fill="currentColor" stroke="currentColor" points="1.8428 -0.4936 1.8428 -0.1512 0.0400 0.1712 0.0400 -0.1712"/>
</g>
<a style="color:inherit;" xlink:href="textedit:///Users/Marc/Projects/violin-music.github.io/tunes/Classical/La-Campanella%20%28Paganini%2c%20Niccolo%cc%80%29/La-Campanella.ly:24:25:26">
<g transform="translate(64.0083, 22.5312)">
<path transform="scale(0.0040, -0.0040)" d="M218 136c66 0 108 -36 108 -89c0 -89 -113 -183 -218 -183c-66 0 -108 36 -108 89c0 89 113 183 218 183z" fill="currentColor"/>
</g>
</a>
<g transform="translate(64.0733, 26.9312)">
<rect x="-0.0650" y="-4.2139" width="0.1300" height="5.1039" ry="0.0400" fill="currentColor"/>
</g>
<g transform="translate(36.5356, 26.9312)">
<polygon stroke-linejoin="round" stroke-linecap="round" stroke-width="0.0800" fill="currentColor" stroke="currentColor" points="7.1081 -0.2240 7.1081 0.2240 0.0400 0.2240 0.0400 -0.2240"/>
</g>
<a style="color:inherit;" xlink:href="textedit:///Users/Marc/Projects/violin-music.github.io/tunes/Classical/La-Campanella%20%28Paganini%2c%20Niccolo%cc%80%29/La-Campanella.ly:24:30:31">
<g transform="translate(67.2674, 24.7312)">
<path transform="scale(0.0040, -0.0040)" d="M218 136c66 0 108 -36 108 -89c0 -89 -113 -183 -218 -183c-66 0 -108 36 -108 89c0 89 113 183 218 183z" fill="currentColor"/>
</g>
</a>
<g transform="translate(67.3324, 26.9312)">
<rect x="-0.0650" y="-2.0139" width="0.1300" height="3.1061" ry="0.0400" fill="currentColor"/>
</g>
<a style="color:inherit;" xlink:href="textedit:///Users/Marc/Projects/violin-music.github.io/tunes/Classical/La-Campanella%20%28Paganini%2c%20Niccolo%cc%80%29/La-Campanella.ly:24:35:36">
<g transform="translate(70.7764, 24.7312)">
<path transform="scale(0.0040, -0.0040)" d="M218 136c66 0 108 -36 108 -89c0 -89 -113 -183 -218 -183c-66 0 -108 36 -108 89c0 89 113 183 218 183z" fill="currentColor"/>
</g>
</a>
<g transform="translate(70.8414, 26.9312)">
<rect x="-0.0650" y="-2.0139" width="0.1300" height="3.3239" ry="0.0400" fill="currentColor"/>
</g>
<a style="color:inherit;" xlink:href="textedit:///opt/local/share/lilypond/2.24.4/ly/grace-init.ly:41:6:7">
<g transform="translate(46.3350, 26.9312)">
<path stroke-width="0.0800" stroke-linejoin="round" stroke-linecap="round" stroke="currentColor" fill="currentColor" d="M0.4422 -2.9313C1.1449 -2.2882 2.4263 -2.2182 3.2057 -2.7803L3.2057 -2.7803C2.4328 -2.3380 1.1515 -2.4080 0.4422 -2.9313z"/>
</g>
</a>
<a style="color:inherit;" xlink:href="textedit:///Users/Marc/Projects/violin-music.github.io/tunes/Classical/La-Campanella%20%28Paganini%2c%20Niccolo%cc%80%29/La-Campanella.ly:25:18:19">
<g transform="translate(73.5837, 24.1812)">
<path transform="scale(0.0028, -0.0028)" d="M208 139c69 0 117 -40 117 -99c0 -91 -107 -179 -209 -179c-69 0 -116 40 -116 99c0 91 106 179 208 179z" fill="currentColor"/>
</g>
</a>
<g transform="translate(74.4366, 26.9312)">
<rect x="-0.0650" y="-5.3464" width="0.1300" height="2.4820" ry="0.0400" fill="currentColor"/>
</g>
<g transform="translate(26.0084, 26.9312)">
<polygon stroke-linejoin="round" stroke-linecap="round" stroke-width="0.0800" fill="currentColor" stroke="currentColor" points="7.1081 -0.2240 7.1081 0.2240 0.0400 0.2240 0.0400 -0.2240"/>
</g>
<a style="color:inherit;" xlink:href="textedit:///Users/Marc/Projects/violin-music.github.io/tunes/Classical/La-Campanella%20%28Paganini%2c%20Niccolo%cc%80%29/La-Campanella.ly:25:22:23">
<g transform="translate(76.2180, 23.6312)">
<path transform="scale(0.0028, -0.0028)" d="M208 139c69 0 117 -40 117 -99c0 -91 -107 -179 -209 -179c-69 0 -116 40 -116 99c0 91 106 179 208 179z" fill="currentColor"/>
</g>
</a>
<g transform="translate(77.0709, 26.9312)">
<rect x="-0.0650" y="-5.6536" width="0.1300" height="2.2392" ry="0.0400" fill="currentColor"/>
</g>
<g transform="translate(75.4365, 23.6312)">
<path transform="scale(0.0025, -0.0025)" d="M-8 375c9 5 18 7 28 7s19 -2 28 -7l-3 -202l97 26c2 0 3 1 5 1c11 0 20 -9 20 -20l7 -555c-9 -5 -17 -7 -27 -7s-19 2 -28 7l3 202l-97 -26c-2 0 -3 -1 -5 -1c-11 0 -20 9 -20 20zM126 108l-82 -22l-3 -194l82 22z" fill="currentColor"/>
</g>
<a style="color:inherit;" xlink:href="textedit:///Users/Marc/Projects/violin-music.github.io/tunes/Classical/La-Campanella%20%28Paganini%2c%20Niccolo%cc%80%29/La-Campanella.ly:21:6:7">
<g transform="translate(22.4993, 26.9312)">
<path stroke-width="0.0800" stroke-linejoin="round" stroke-linecap="round" stroke="currentColor" fill="currentColor" d="M0.3308 -3.2950C0.3302 -4.9408 2.2010 -6.9934 3.8399 -7.1450L3.8399 -7.1450C2.2897 -6.9126 0.4189 -4.8600 0.3308 -3.2950z"/>
</g>
</a>
<a style="color:inherit;" xlink:href="textedit:///Users/Marc/Projects/violin-music.github.io/tunes/Classical/La-Campanella%20%28Paganini%2c%20Niccolo%cc%80%29/La-Campanella.ly:25:26:27">
<g transform="translate(77.9709, 24.1812)">
<path transform="scale(0.0040, -0.0040)" d="M218 136c66 0 108 -36 108 -89c0 -89 -113 -183 -218 -183c-66 0 -108 36 -108 89c0 89 113 183 218 183z" fill="currentColor"/>
</g>
</a>
<g transform="translate(78.0359, 26.9312)">
<rect x="-0.0650" y="-2.5639" width="0.1300" height="3.8840" ry="0.0400" fill="currentColor"/>
</g>
<a style="color:inherit;" xlink:href="textedit:///Users/Marc/Projects/violin-music.github.io/tunes/Classical/La-Campanella%20%28Paganini%2c%20Niccolo%cc%80%29/La-Campanella.ly:25:29:30">
<g transform="translate(81.4799, 24.7312)">
<path transform="scale(0.0040, -0.0040)" d="M218 136c66 0 108 -36 108 -89c0 -89 -113 -183 -218 -183c-66 0 -108 36 -108 89c0 89 113 183 218 183z" fill="currentColor"/>
</g>
</a>
<g transform="translate(81.5449, 26.9312)">
<rect x="-0.0650" y="-2.0139" width="0.1300" height="3.6639" ry="0.0400" fill="currentColor"/>
</g>
<a style="color:inherit;" xlink:href="textedit:///Users/Marc/Projects/violin-music.github.io/tunes/Classical/La-Campanella%20%28Paganini%2c%20Niccolo%cc%80%29/La-Campanella.ly:25:32:33">
<g transform="translate(84.9890, 25.2812)">
<path transform="scale(0.0040, -0.0040)" d="M218 136c66 0 108 -36 108 -89c0 -89 -113 -183 -218 -183c-66 0 -108 36 -108 89c0 89 113 183 218 183z" fill="currentColor"/>
</g>
</a>
<g transform="translate(85.0540, 26.9312)">
<rect x="-0.0650" y="-1.4639" width="0.1300" height="3.4438" ry="0.0400" fill="currentColor"/>
</g>
<a style="color:inherit;" xlink:href="textedit:///Users/Marc/Projects/violin-music.github.io/tunes/Classical/La-Campanella%20%28Paganini%2c%20Niccolo%cc%80%29/La-Campanella.ly:26:2:3">
<g transform="translate(89.8935, 25.8312)">
<path transform="scale(0.0040, -0.0040)" d="M218 136c66 0 108 -36 108 -89c0 -89 -113 -183 -218 -183c-66 0 -108 36 -108 89c0 89 113 183 218 183z" fill="currentColor"/>
</g>
</a>
<g transform="translate(89.9585, 26.9312)">
<rect x="-0.0650" y="-0.9139" width="0.1300" height="3.3340" ry="0.0400" fill="currentColor"/>
</g>
<a style="color:inherit;" xlink:href="textedit:///Users/Marc/Projects/violin-music.github.io/tunes/Classical/La-Campanella%20%28Paganini%2c%20Niccolo%cc%80%29/La-Campanella.ly:26:4:5">
<g transform="translate(93.4026, 26.3812)">
<path transform="scale(0.0040, -0.0040)" d="M218 136c66 0 108 -36 108 -89c0 -89 -113 -183 -218 -183c-66 0 -108 36 -108 89c0 89 113 183 218 183z" fill="currentColor"/>
</g>
</a>
<g transform="translate(93.4676, 26.9312)">
<rect x="-0.0650" y="-0.3639" width="0.1300" height="3.1139" ry="0.0400" fill="currentColor"/>
</g>
<a style="color:inherit;" xlink:href="textedit:///Users/Marc/Projects/violin-music.github.io/tunes/Classical/La-Campanella%20%28Paganini%2c%20Niccolo%cc%80%29/La-Campanella.ly:26:7:8">
<g transform="translate(96.9116, 26.9312)">
<path transform="scale(0.0040, -0.0040)" d="M218 136c66 0 108 -36 108 -89c0 -89 -113 -183 -218 -183c-66 0 -108 36 -108 89c0 89 113 183 218 183z" fill="currentColor"/>
</g>
</a>
<g transform="translate(96.9766, 26.9312)">
<rect x="-0.0650" y="0.1861" width="0.1300" height="2.8938" ry="0.0400" fill="currentColor"/>
</g>
<a style="color:inherit;" xlink:href="textedit:///Users/Marc/Projects/violin-music.github.io/tunes/Classical/La-Campanella%20%28Paganini%2c%20Niccolo%cc%80%29/La-Campanella.ly:26:26:27">
<g transform="translate(99.7189, 25.8312)">
<path transform="scale(0.0028, -0.0028)" d="M208 139c69 0 117 -40 117 -99c0 -91 -107 -179 -209 -179c-69 0 -116 40 -116 99c0 91 106 179 208 179z" fill="currentColor"/>
</g>
</a>
<g transform="translate(100.5718, 26.9312)">
<rect x="-0.0650" y="-3.4746" width="0.1300" height="2.2602" ry="0.0400" fill="currentColor"/>
</g>
<a style="color:inherit;" xlink:href="textedit:///Users/Marc/Projects/violin-music.github.io/tunes/Classical/La-Campanella%20%28Paganini%2c%20Niccolo%cc%80%29/La-Campanella.ly:26:30:31">
<g transform="translate(101.4717, 25.2812)">
<path transform="scale(0.0028, -0.0028)" d="M208 139c69 0 117 -40 117 -99c0 -91 -107 -179 -209 -179c-69 0 -116 40 -116 99c0 91 106 179 208 179z" fill="currentColor"/>
</g>
</a>
<g transform="translate(102.3246, 26.9312)">
<rect x="-0.0650" y="-3.8366" width="0.1300" height="2.0722" ry="0.0400" fill="currentColor"/>
</g>
<a style="color:inherit;" xlink:href="textedit:///Users/Marc/Projects/violin-music.github.io/tunes/Classical/La-Campanella%20%28Paganini%2c%20Niccolo%cc%80%29/La-Campanella.ly:26:33:34">
<g transform="translate(103.2246, 25.8312)">
<path transform="scale(0.0040, -0.0040)" d="M218 136c66 0 108 -36 108 -89c0 -89 -113 -183 -218 -183c-66 0 -108 36 -108 89c0 89 113 183 218 183z" fill="currentColor"/>
</g>
</a>
<g transform="translate(103.2896, 26.9312)">
<rect x="-0.0650" y="-0.9139" width="0.1300" height="3.3340" ry="0.0400" fill="currentColor"/>
</g>
<a style="color:inherit;" xlink:href="textedit:///Users/Marc/Projects/violin-music.github.io/tunes/Classical/La-Campanella%20%28Paganini%2c%20Niccolo%cc%80%29/La-Campanella.ly:26:36:37">
<g transform="translate(106.7337, 26.3812)">
<path transform="scale(0.0040, -0.0040)" d="M218 136c66 0 108 -36 108 -89c0 -89 -113 -183 -218 -183c-66 0 -108 36 -108 89c0 89 113 183 218 183z" fill="currentColor"/>
</g>
</a>
<a style="color:inherit;" xlink:href="textedit:///Users/Marc/Projects/violin-music.github.io/tunes/Classical/La-Campanella%20%28Paganini%2c%20Niccolo%cc%80%29/La-Campanella.ly:26:38:39">
<g transform="translate(107.3858, 25.2812)">
<path transform="scale(0.0040, -0.0040)" d="M-50 0c0 28 22 50 50 50s50 -22 50 -50s-22 -50 -50 -50s-50 22 -50 50z" fill="currentColor"/>
</g>
</a>
<g transform="translate(106.7987, 26.9312)">
<rect x="-0.0650" y="-0.3639" width="0.1300" height="3.1139" ry="0.0400" fill="currentColor"/>
</g>
<a style="color:inherit;" xlink:href="textedit:///Users/Marc/Projects/violin-music.github.io/tunes/Classical/La-Campanella%20%28Paganini%2c%20Niccolo%cc%80%29/La-Campanella.ly:26:41:42">
<g transform="translate(110.2427, 26.9312)">
<path transform="scale(0.0040, -0.0040)" d="M218 136c66 0 108 -36 108 -89c0 -89 -113 -183 -218 -183c-66 0 -108 36 -108 89c0 89 113 183 218 183z" fill="currentColor"/>
</g>
</a>
<a style="color:inherit;" xlink:href="textedit:///Users/Marc/Projects/violin-music.github.io/tunes/Classical/La-Campanella%20%28Paganini%2c%20Niccolo%cc%80%29/La-Campanella.ly:26:42:43">
<g transform="translate(110.8948, 25.2812)">
<path transform="scale(0.0040, -0.0040)" d="M-50 0c0 28 22 50 50 50s50 -22 50 -50s-22 -50 -50 -50s-50 22 -50 50z" fill="currentColor"/>
</g>
</a>
<g transform="translate(110.3077, 26.9312)">
<rect x="-0.0650" y="0.1861" width="0.1300" height="2.8938" ry="0.0400" fill="currentColor"/>
</g>
<g transform="translate(5.6906, 37.4312)">
<rect x="104.4622" y="-0.1050" width="1.9563" height="0.2100" ry="0.1050" fill="currentColor"/>
</g>
<g transform="translate(5.6906, 38.5312)">
<rect x="104.4622" y="-0.1050" width="1.9563" height="0.2100" ry="0.1050" fill="currentColor"/>
</g>
<g transform="translate(5.6906, 39.6312)">
<rect x="104.4622" y="-0.1050" width="1.9563" height="0.2100" ry="0.1050" fill="currentColor"/>
</g>
<g transform="translate(5.6906, 38.5312)">
<rect x="101.8639" y="-0.1050" width="1.9563" height="0.2100" ry="0.1050" fill="currentColor"/>
</g>
<g transform="translate(5.6906, 39.6312)">
<rect x="101.8639" y="-0.1050" width="1.9563" height="0.2100" ry="0.1050" fill="currentColor"/>
</g>
<g transform="translate(5.6906, 39.6312)">
<rect x="99.4168" y="-0.1050" width="1.8053" height="0.2100" ry="0.1050" fill="currentColor"/>
</g>
<g transform="translate(5.6906, 37.4312)">
<rect x="91.8812" y="-0.1050" width="1.9563" height="0.2100" ry="0.1050" fill="currentColor"/>
</g>
<g transform="translate(5.6906, 38.5312)">
<rect x="91.8812" y="-0.1050" width="1.9563" height="0.2100" ry="0.1050" fill="currentColor"/>
</g>
<g transform="translate(5.6906, 39.6312)">
<rect x="91.8812" y="-0.1050" width="1.9563" height="0.2100" ry="0.1050" fill="currentColor"/>
</g>
<g transform="translate(5.6906, 38.5312)">
<rect x="89.2830" y="-0.1050" width="1.9563" height="0.2100" ry="0.1050" fill="currentColor"/>
</g>
<g transform="translate(5.6906, 39.6312)">
<rect x="89.2830" y="-0.1050" width="1.9563" height="0.2100" ry="0.1050" fill="currentColor"/>
</g>
<g transform="translate(5.6906, 39.6312)">
<rect x="86.6848" y="-0.1050" width="1.9563" height="0.2100" ry="0.1050" fill="currentColor"/>
</g>
<g transform="translate(5.6906, 39.6312)">
<rect x="69.9035" y="-0.1050" width="1.3281" height="0.2100" ry="0.1050" fill="currentColor"/>
</g>
<g transform="translate(5.6906, 38.5312)">
<rect x="57.9145" y="-0.1050" width="1.9563" height="0.2100" ry="0.1050" fill="currentColor"/>
</g>
<g transform="translate(5.6906, 39.6312)">
<rect x="57.9145" y="-0.1050" width="1.9563" height="0.2100" ry="0.1050" fill="currentColor"/>
</g>
<g transform="translate(5.6906, 39.6312)">
<rect x="56.2848" y="-0.1050" width="1.3768" height="0.2100" ry="0.1050" fill="currentColor"/>
</g>
<g transform="translate(5.6906, 39.6312)">
<rect x="54.6254" y="-0.1050" width="1.3224" height="0.2100" ry="0.1050" fill="currentColor"/>
</g>
<g transform="translate(5.6906, 39.6312)">
<rect x="50.1040" y="-0.1050" width="1.9563" height="0.2100" ry="0.1050" fill="currentColor"/>
</g>
<g transform="translate(5.6906, 39.6312)">
<rect x="46.8628" y="-0.1050" width="1.8053" height="0.2100" ry="0.1050" fill="currentColor"/>
</g>
<g transform="translate(5.6906, 39.6312)">
<rect x="42.4695" y="-0.1050" width="1.9563" height="0.2100" ry="0.1050" fill="currentColor"/>
</g>
<g transform="translate(5.6906, 38.5312)">
<rect x="40.8522" y="-0.1050" width="1.3768" height="0.2100" ry="0.1050" fill="currentColor"/>
</g>
<g transform="translate(5.6906, 39.6312)">
<rect x="40.8522" y="-0.1050" width="1.3768" height="0.2100" ry="0.1050" fill="currentColor"/>
</g>
<g transform="translate(5.6906, 39.6312)">
<rect x="39.1383" y="-0.1050" width="1.3768" height="0.2100" ry="0.1050" fill="currentColor"/>
</g>
<g transform="translate(5.6906, 38.5312)">
<rect x="36.3538" y="-0.1050" width="1.9563" height="0.2100" ry="0.1050" fill="currentColor"/>
</g>
<g transform="translate(5.6906, 39.6312)">
<rect x="36.3538" y="-0.1050" width="1.9563" height="0.2100" ry="0.1050" fill="currentColor"/>
</g>
<g transform="translate(5.6906, 38.5312)">
<rect x="32.9616" y="-0.1050" width="1.9563" height="0.2100" ry="0.1050" fill="currentColor"/>
</g>
<g transform="translate(5.6906, 39.6312)">
<rect x="32.9616" y="-0.1050" width="1.9563" height="0.2100" ry="0.1050" fill="currentColor"/>
</g>
<g transform="translate(5.6906, 38.5312)">
<rect x="29.5693" y="-0.1050" width="1.9563" height="0.2100" ry="0.1050" fill="currentColor"/>
</g>
<g transform="translate(5.6906, 39.6312)">
<rect x="29.5693" y="-0.1050" width="1.9563" height="0.2100" ry="0.1050" fill="currentColor"/>
</g>
<g transform="translate(5.6906, 37.4312)">
<rect x="24.7826" y="-0.1050" width="1.9563" height="0.2100" ry="0.1050" fill="currentColor"/>
</g>
<g transform="translate(5.6906, 38.5312)">
<rect x="24.7826" y="-0.1050" width="1.9563" height="0.2100" ry="0.1050" fill="currentColor"/>
</g>
<g transform="translate(5.6906, 39.6312)">
<rect x="24.7826" y="-0.1050" width="1.9563" height="0.2100" ry="0.1050" fill="currentColor"/>
</g>
<g transform="translate(5.6906, 37.4312)">
<rect x="21.3904" y="-0.1050" width="1.9563" height="0.2100" ry="0.1050" fill="currentColor"/>
</g>
<g transform="translate(5.6906, 38.5312)">
<rect x="21.3904" y="-0.1050" width="1.9563" height="0.2100" ry="0.1050" fill="currentColor"/>
</g>
<g transform="translate(5.6906, 39.6312)">
<rect x="21.3904" y="-0.1050" width="1.9563" height="0.2100" ry="0.1050" fill="currentColor"/>
</g>
<g transform="translate(5.6906, 37.4312)">
<rect x="17.9982" y="-0.1050" width="1.9563" height="0.2100" ry="0.1050" fill="currentColor"/>
</g>
<g transform="translate(5.6906, 38.5312)">
<rect x="17.9982" y="-0.1050" width="1.9563" height="0.2100" ry="0.1050" fill="currentColor"/>
</g>
<g transform="translate(5.6906, 39.6312)">
<rect x="17.9982" y="-0.1050" width="1.9563" height="0.2100" ry="0.1050" fill="currentColor"/>
</g>
<g transform="translate(5.6906, 45.1312)">
<line stroke-linejoin="round" stroke-linecap="round" stroke-width="0.1000" stroke="currentColor" x1="0.0500" y1="0" x2="108.0705" y2="0"/>
</g>
<g transform="translate(5.6906, 44.0312)">
<line stroke-linejoin="round" stroke-linecap="round" stroke-width="0.1000" stroke="currentColor" x1="0.0500" y1="0" x2="108.0705" y2="0"/>
</g>
<g transform="translate(5.6906, 42.9312)">
<line stroke-linejoin="round" stroke-linecap="round" stroke-width="0.1000" stroke="currentColor" x1="0.0500" y1="0" x2="108.0705" y2="0"/>
</g>
<g transform="translate(5.6906, 41.8312)">
<line stroke-linejoin="round" stroke-linecap="round" stroke-width="0.1000" stroke="currentColor" x1="0.0500" y1="0" x2="108.0705" y2="0"/>
</g>
<g transform="translate(5.6906, 40.7312)">
<line stroke-linejoin="round" stroke-linecap="round" stroke-width="0.1000" stroke="currentColor" x1="0.0500" y1="0" x2="108.0705" y2="0"/>
</g>
<g transform="translate(113.6210, 42.9312)">
<rect x="0.0000" y="-2.2000" width="0.1900" height="4.4000" ry="0.0000" fill="currentColor"/>
</g>
<g transform="translate(87.4275, 42.9312)">
<rect x="0.0000" y="-2.2000" width="0.1900" height="4.4000" ry="0.0000" fill="currentColor"/>
</g>
<g transform="translate(58.6915, 42.9312)">
<rect x="0.0000" y="-2.2000" width="0.1900" height="4.4000" ry="0.0000" fill="currentColor"/>
</g>
<g transform="translate(34.0486, 42.9312)">
<rect x="0.0000" y="-2.2000" width="0.1900" height="4.4000" ry="0.0000" fill="currentColor"/>
</g>
<g transform="translate(105.2823, 42.5384)">
<polygon stroke-linejoin="round" stroke-linecap="round" stroke-width="0.0800" fill="currentColor" stroke="currentColor" points="2.6882 -0.4766 2.6882 -0.0286 0.0400 0.2240 0.0400 -0.2240"/>
</g>
<g transform="translate(101.0401, 43.8172)">
<polygon stroke-linejoin="round" stroke-linecap="round" stroke-width="0.0800" fill="currentColor" stroke="currentColor" points="9.5287 -1.1100 9.5287 -0.6620 0.0400 0.2240 0.0400 -0.2240"/>
</g>
<g transform="translate(6.4906, 44.0312)">
<path transform="scale(0.0040, -0.0040)" d="M266 -635h-6c-108 0 -195 88 -195 197c0 58 53 103 112 103c54 0 95 -47 95 -103c0 -52 -43 -95 -95 -95c-11 0 -21 2 -31 6c26 -39 68 -65 117 -65h4zM461 -203c68 24 113 90 113 164c0 90 -66 179 -173 190c19 -89 48 -242 60 -354zM74 28c0 -145 141 -247 264 -247
c1 0 47 0 82 6c-7 64 -29 203 -63 364c-79 -8 -124 -61 -124 -119c0 -44 25 -91 81 -123c5 -5 7 -10 7 -15c0 -11 -10 -22 -22 -22c-15 0 -126 62 -126 187c0 88 58 174 160 197c-14 58 -29 117 -46 175c-107 -121 -213 -243 -213 -403zM250 553c-29 96 -52 170 -52 346
c0 115 55 224 149 292c6 5 14 5 20 0c68 -80 133 -245 133 -358c0 -143 -86 -255 -180 -364c21 -68 39 -138 56 -207c2 0 7 1 13 1c155 0 256 -128 256 -261c0 -113 -74 -212 -180 -246c3 -35 5 -70 5 -105c0 -19 -1 -39 -2 -58c-7 -119 -88 -225 -202 -228l1 43
c93 2 153 92 159 191c1 18 2 37 2 55c0 31 -1 61 -4 92c-5 -1 -44 -8 -89 -8c-193 0 -333 180 -333 374c0 177 131 306 248 441zM428 916c0 34 1 66 -20 129c-99 -48 -162 -149 -162 -259c0 -52 12 -115 36 -194c80 97 146 198 146 324z" fill="currentColor"/>
</g>
<g transform="translate(9.9906, 40.7312)">
<path transform="scale(0.0040, -0.0040)" d="M0 119c0 8 5 15 13 18l46 17v158c0 10 8 19 18 19s19 -9 19 -19v-145l83 31v158c0 10 9 19 19 19s18 -9 18 -19v-145l32 12c2 1 5 1 7 1c11 0 20 -9 20 -20v-60c0 -8 -5 -16 -13 -19l-46 -16v-160l32 11c2 1 5 1 7 1c11 0 20 -9 20 -20v-60c0 -8 -5 -15 -13 -18l-46 -17
v-158c0 -10 -8 -19 -18 -19s-19 9 -19 19v145l-83 -31v-158c0 -10 -9 -19 -19 -19s-18 9 -18 19v145l-32 -12c-2 -1 -5 -1 -7 -1c-11 0 -20 9 -20 20v60c0 8 5 16 13 19l46 16v160l-32 -11c-2 -1 -5 -1 -7 -1c-11 0 -20 9 -20 20v60zM179 95l-83 -30v-160l83 30v160z" fill="currentColor"/>
</g>
<g transform="translate(11.0906, 42.3812)">
<path transform="scale(0.0040, -0.0040)" d="M0 119c0 8 5 15 13 18l46 17v158c0 10 8 19 18 19s19 -9 19 -19v-145l83 31v158c0 10 9 19 19 19s18 -9 18 -19v-145l32 12c2 1 5 1 7 1c11 0 20 -9 20 -20v-60c0 -8 -5 -16 -13 -19l-46 -16v-160l32 11c2 1 5 1 7 1c11 0 20 -9 20 -20v-60c0 -8 -5 -15 -13 -18l-46 -17
v-158c0 -10 -8 -19 -18 -19s-19 9 -19 19v145l-83 -31v-158c0 -10 -9 -19 -19 -19s-18 9 -18 19v145l-32 -12c-2 -1 -5 -1 -7 -1c-11 0 -20 9 -20 20v60c0 8 5 16 13 19l46 16v160l-32 -11c-2 -1 -5 -1 -7 -1c-11 0 -20 9 -20 20v60zM179 95l-83 -30v-160l83 30v160z" fill="currentColor"/>
</g>
<g transform="translate(4.8028, 39.6812)">
<text font-family="serif" font-size="1.7459" text-anchor="start" fill="currentColor">
<tspan>2</tspan>
</text>
</g>
<g transform="translate(92.7014, 42.5714)">
<polygon stroke-linejoin="round" stroke-linecap="round" stroke-width="0.0800" fill="currentColor" stroke="currentColor" points="2.6882 -0.4935 2.6882 -0.0455 0.0400 0.2240 0.0400 -0.2240"/>
</g>
<g transform="translate(89.0591, 43.8172)">
<polygon stroke-linejoin="round" stroke-linecap="round" stroke-width="0.0800" fill="currentColor" stroke="currentColor" points="8.9287 -1.1100 8.9287 -0.6620 0.0400 0.2240 0.0400 -0.2240"/>
</g>
<a style="color:inherit;" xlink:href="textedit:///Users/Marc/Projects/violin-music.github.io/tunes/Classical/La-Campanella%20%28Paganini%2c%20Niccolo%cc%80%29/La-Campanella.ly:27:2:3">
<g transform="translate(14.6906, 44.5812)">
<path transform="scale(0.0040, -0.0040)" d="M218 136c66 0 108 -36 108 -89c0 -89 -113 -183 -218 -183c-66 0 -108 36 -108 89c0 89 113 183 218 183z" fill="currentColor"/>
</g>
</a>
<g transform="translate(15.9298, 42.9312)">
<rect x="-0.0650" y="-2.2000" width="0.1300" height="3.6639" ry="0.0400" fill="currentColor"/>
</g>
<g transform="translate(77.4887, 44.2452)">
<polygon stroke-linejoin="round" stroke-linecap="round" stroke-width="0.0800" fill="currentColor" stroke="currentColor" points="6.8745 0.4480 6.8745 0.8960 0.0400 0.2240 0.0400 -0.2240"/>
</g>
<a style="color:inherit;" xlink:href="textedit:///Users/Marc/Projects/violin-music.github.io/tunes/Classical/La-Campanella%20%28Paganini%2c%20Niccolo%cc%80%29/La-Campanella.ly:27:6:7">
<g transform="translate(20.6225, 40.7312)">
<path transform="scale(0.0040, -0.0040)" d="M218 136c66 0 108 -36 108 -89c0 -89 -113 -183 -218 -183c-66 0 -108 36 -108 89c0 89 113 183 218 183z" fill="currentColor"/>
</g>
</a>
<g transform="translate(20.6875, 42.9312)">
<rect x="-0.0650" y="-2.0139" width="0.1300" height="3.6639" ry="0.0400" fill="currentColor"/>
</g>
<g transform="translate(20.7525, 44.5412)">
<path transform="scale(0.0040, -0.0040)" d="M0 0h-16v250h16v-250zM0 0v250c97 59 224 148 224 259c0 57 -15 112 -40 163c-3 16 10 27 23 27c7 0 15 -3 20 -11c25 -56 40 -117 40 -179c0 -203 -267 -306 -267 -509z" fill="currentColor"/>
</g>
<g transform="translate(73.9673, 37.5924)">
<polygon stroke-linejoin="round" stroke-linecap="round" stroke-width="0.0800" fill="currentColor" stroke="currentColor" points="2.6854 -0.4936 2.6854 -0.1512 0.0400 0.1712 0.0400 -0.1712"/>
</g>
<g transform="translate(73.9673, 38.3012)">
<polygon stroke-linejoin="round" stroke-linecap="round" stroke-width="0.0800" fill="currentColor" stroke="currentColor" points="2.6854 -0.4936 2.6854 -0.1512 0.0400 0.1712 0.0400 -0.1712"/>
</g>
<a style="color:inherit;" xlink:href="textedit:///Users/Marc/Projects/violin-music.github.io/tunes/Classical/La-Campanella%20%28Paganini%2c%20Niccolo%cc%80%29/La-Campanella.ly:27:14:15">
<g transform="translate(24.0148, 36.8812)">
<path transform="scale(0.0040, -0.0040)" d="M218 136c66 0 108 -36 108 -89c0 -89 -113 -183 -218 -183c-66 0 -108 36 -108 89c0 89 113 183 218 183z" fill="currentColor"/>
</g>
</a>
<a style="color:inherit;" xlink:href="textedit:///Users/Marc/Projects/violin-music.github.io/tunes/Classical/La-Campanella%20%28Paganini%2c%20Niccolo%cc%80%29/La-Campanella.ly:27:17:18">
<g transform="translate(24.6669, 35.5862)">
<path transform="scale(0.0040, -0.0040)" d="M128 508c2 7 9 12 17 12c10 0 18 -7 18 -17c0 -2 -1 -4 -1 -6l-145 -485c-2 -7 -9 -12 -17 -12s-15 5 -17 12l-145 485v6c0 10 7 17 17 17c8 0 15 -5 17 -12l88 -295l40 -164l40 164z" fill="currentColor"/>
</g>
</a>
<g transform="translate(24.0798, 42.9312)">
<rect x="-0.0650" y="-5.8639" width="0.1300" height="5.8639" ry="0.0400" fill="currentColor"/>
</g>
<g transform="translate(63.9311, 43.8172)">
<polygon stroke-linejoin="round" stroke-linecap="round" stroke-width="0.0800" fill="currentColor" stroke="currentColor" points="6.6245 0.2040 6.6245 0.6520 0.0400 0.2240 0.0400 -0.2240"/>
</g>
<a style="color:inherit;" xlink:href="textedit:///Users/Marc/Projects/violin-music.github.io/tunes/Classical/La-Campanella%20%28Paganini%2c%20Niccolo%cc%80%29/La-Campanella.ly:27:26:27">
<g transform="translate(27.4070, 36.8812)">
<path transform="scale(0.0040, -0.0040)" d="M218 136c66 0 108 -36 108 -89c0 -89 -113 -183 -218 -183c-66 0 -108 36 -108 89c0 89 113 183 218 183z" fill="currentColor"/>
</g>
</a>
<a style="color:inherit;" xlink:href="textedit:///Users/Marc/Projects/violin-music.github.io/tunes/Classical/La-Campanella%20%28Paganini%2c%20Niccolo%cc%80%29/La-Campanella.ly:27:28:29">
<g transform="translate(28.0591, 35.9162)">
<path transform="scale(0.0040, -0.0040)" d="M-50 0c0 28 22 50 50 50s50 -22 50 -50s-22 -50 -50 -50s-50 22 -50 50z" fill="currentColor"/>
</g>
</a>
<g transform="translate(27.4720, 42.9312)">
<rect x="-0.0650" y="-5.8639" width="0.1300" height="5.8639" ry="0.0400" fill="currentColor"/>
</g>
<a style="color:inherit;" xlink:href="textedit:///Users/Marc/Projects/violin-music.github.io/tunes/Classical/La-Campanella%20%28Paganini%2c%20Niccolo%cc%80%29/La-Campanella.ly:27:31:32">
<g transform="translate(30.7993, 37.4312)">
<path transform="scale(0.0040, -0.0040)" d="M218 136c66 0 108 -36 108 -89c0 -89 -113 -183 -218 -183c-66 0 -108 36 -108 89c0 89 113 183 218 183z" fill="currentColor"/>
</g>
</a>
<a style="color:inherit;" xlink:href="textedit:///Users/Marc/Projects/violin-music.github.io/tunes/Classical/La-Campanella%20%28Paganini%2c%20Niccolo%cc%80%29/La-Campanella.ly:27:32:33">
<g transform="translate(31.4514, 36.4662)">
<path transform="scale(0.0040, -0.0040)" d="M-50 0c0 28 22 50 50 50s50 -22 50 -50s-22 -50 -50 -50s-50 22 -50 50z" fill="currentColor"/>
</g>
</a>
<g transform="translate(30.8643, 42.9312)">
<rect x="-0.0650" y="-5.3139" width="0.1300" height="5.3139" ry="0.0400" fill="currentColor"/>
</g>
<a style="color:inherit;" xlink:href="textedit:///opt/local/share/lilypond/2.24.4/ly/grace-init.ly:41:6:7">
<g transform="translate(73.1794, 42.9312)">
<path stroke-width="0.0800" stroke-linejoin="round" stroke-linecap="round" stroke="currentColor" fill="currentColor" d="M0.4459 -1.8598C1.3210 -1.1802 3.0619 -1.1065 4.0093 -1.7089L4.0093 -1.7089C3.0670 -1.2264 1.3261 -1.3001 0.4459 -1.8598z"/>
</g>
</a>
<g transform="translate(61.2788, 37.2700)">
<polygon stroke-linejoin="round" stroke-linecap="round" stroke-width="0.0800" fill="currentColor" stroke="currentColor" points="1.8039 -0.5600 1.8039 -0.2176 0.0400 0.1712 0.0400 -0.1712"/>
</g>
<g transform="translate(61.2788, 37.9788)">
<polygon stroke-linejoin="round" stroke-linecap="round" stroke-width="0.0800" fill="currentColor" stroke="currentColor" points="1.8039 -0.5600 1.8039 -0.2176 0.0400 0.1712 0.0400 -0.1712"/>
</g>
<a style="color:inherit;" xlink:href="textedit:///Users/Marc/Projects/violin-music.github.io/tunes/Classical/La-Campanella%20%28Paganini%2c%20Niccolo%cc%80%29/La-Campanella.ly:28:2:3">
<g transform="translate(35.5859, 37.9812)">
<path transform="scale(0.0040, -0.0040)" d="M218 136c66 0 108 -36 108 -89c0 -89 -113 -183 -218 -183c-66 0 -108 36 -108 89c0 89 113 183 218 183z" fill="currentColor"/>
</g>
</a>
<a style="color:inherit;" xlink:href="textedit:///Users/Marc/Projects/violin-music.github.io/tunes/Classical/La-Campanella%20%28Paganini%2c%20Niccolo%cc%80%29/La-Campanella.ly:28:3:4">
<g transform="translate(36.2380, 37.0162)">
<path transform="scale(0.0040, -0.0040)" d="M-50 0c0 28 22 50 50 50s50 -22 50 -50s-22 -50 -50 -50s-50 22 -50 50z" fill="currentColor"/>
</g>
</a>
<g transform="translate(35.6509, 42.9312)">
<rect x="-0.0650" y="-4.7639" width="0.1300" height="4.7639" ry="0.0400" fill="currentColor"/>
</g>
<a style="color:inherit;" xlink:href="textedit:///Users/Marc/Projects/violin-music.github.io/tunes/Classical/La-Campanella%20%28Paganini%2c%20Niccolo%cc%80%29/La-Campanella.ly:30:28:29">
<g transform="translate(63.9311, 42.9312)">
<path stroke-width="0.0800" stroke-linejoin="round" stroke-linecap="round" stroke="currentColor" fill="currentColor" d="M0.9014 -5.4950C2.2093 -5.6791 3.7692 -4.5869 4.0437 -3.2950L4.0437 -3.2950C3.7004 -4.4886 2.1404 -5.5808 0.9014 -5.4950z"/>
</g>
</a>
<a style="color:inherit;" xlink:href="textedit:///Users/Marc/Projects/violin-music.github.io/tunes/Classical/La-Campanella%20%28Paganini%2c%20Niccolo%cc%80%29/La-Campanella.ly:28:6:7">
<g transform="translate(38.9782, 37.9812)">
<path transform="scale(0.0040, -0.0040)" d="M218 136c66 0 108 -36 108 -89c0 -89 -113 -183 -218 -183c-66 0 -108 36 -108 89c0 89 113 183 218 183z" fill="currentColor"/>
</g>
</a>
<a style="color:inherit;" xlink:href="textedit:///Users/Marc/Projects/violin-music.github.io/tunes/Classical/La-Campanella%20%28Paganini%2c%20Niccolo%cc%80%29/La-Campanella.ly:28:7:8">
<g transform="translate(39.6303, 37.0162)">
<path transform="scale(0.0040, -0.0040)" d="M-50 0c0 28 22 50 50 50s50 -22 50 -50s-22 -50 -50 -50s-50 22 -50 50z" fill="currentColor"/>
</g>
</a>
<g transform="translate(39.0432, 42.9312)">
<rect x="-0.0650" y="-4.7639" width="0.1300" height="4.7639" ry="0.0400" fill="currentColor"/>
</g>
<g transform="translate(48.4861, 42.9312)">
<polygon stroke-linejoin="round" stroke-linecap="round" stroke-width="0.0800" fill="currentColor" stroke="currentColor" points="7.7245 -0.2240 7.7245 0.2240 0.0400 0.2240 0.0400 -0.2240"/>
</g>
<a style="color:inherit;" xlink:href="textedit:///Users/Marc/Projects/violin-music.github.io/tunes/Classical/La-Campanella%20%28Paganini%2c%20Niccolo%cc%80%29/La-Campanella.ly:28:10:11">
<g transform="translate(42.3704, 38.5312)">
<path transform="scale(0.0040, -0.0040)" d="M218 136c66 0 108 -36 108 -89c0 -89 -113 -183 -218 -183c-66 0 -108 36 -108 89c0 89 113 183 218 183z" fill="currentColor"/>
</g>
</a>
<a style="color:inherit;" xlink:href="textedit:///Users/Marc/Projects/violin-music.github.io/tunes/Classical/La-Campanella%20%28Paganini%2c%20Niccolo%cc%80%29/La-Campanella.ly:28:12:13">
<g transform="translate(43.0225, 37.5662)">
<path transform="scale(0.0040, -0.0040)" d="M-50 0c0 28 22 50 50 50s50 -22 50 -50s-22 -50 -50 -50s-50 22 -50 50z" fill="currentColor"/>
</g>
</a>
<g transform="translate(42.4354, 42.9312)">
<rect x="-0.0650" y="-4.2139" width="0.1300" height="4.2139" ry="0.0400" fill="currentColor"/>
</g>
<a style="color:inherit;" xlink:href="textedit:///Users/Marc/Projects/violin-music.github.io/tunes/Classical/La-Campanella%20%28Paganini%2c%20Niccolo%cc%80%29/La-Campanella.ly:29:18:19">
<g transform="translate(45.0583, 39.0812)">
<path transform="scale(0.0028, -0.0028)" d="M208 139c69 0 117 -40 117 -99c0 -91 -107 -179 -209 -179c-69 0 -116 40 -116 99c0 91 106 179 208 179z" fill="currentColor"/>
</g>
</a>
<g transform="translate(45.9112, 42.9312)">
<rect x="-0.0650" y="-6.4502" width="0.1300" height="2.4857" ry="0.0400" fill="currentColor"/>
</g>
<a style="color:inherit;" xlink:href="textedit:///opt/local/share/lilypond/2.24.4/ly/grace-init.ly:41:6:7">
<g transform="translate(60.4909, 42.9312)">
<path stroke-width="0.0800" stroke-linejoin="round" stroke-linecap="round" stroke="currentColor" fill="currentColor" d="M0.5610 -2.4461C1.4948 -2.2392 2.6890 -2.6786 3.1402 -3.3952L3.1402 -3.3952C2.6476 -2.7913 1.4534 -2.3518 0.5610 -2.4461z"/>
</g>
</a>
<a style="color:inherit;" xlink:href="textedit:///Users/Marc/Projects/violin-music.github.io/tunes/Classical/La-Campanella%20%28Paganini%2c%20Niccolo%cc%80%29/La-Campanella.ly:29:22:23">
<g transform="translate(46.7722, 38.5312)">
<path transform="scale(0.0028, -0.0028)" d="M208 139c69 0 117 -40 117 -99c0 -91 -107 -179 -209 -179c-69 0 -116 40 -116 99c0 91 106 179 208 179z" fill="currentColor"/>
</g>
</a>
<g transform="translate(47.6251, 42.9312)">
<rect x="-0.0650" y="-6.7498" width="0.1300" height="2.2354" ry="0.0400" fill="currentColor"/>
</g>
<g transform="translate(45.8462, 36.4924)">
<polygon stroke-linejoin="round" stroke-linecap="round" stroke-width="0.0800" fill="currentColor" stroke="currentColor" points="1.8039 -0.4936 1.8039 -0.1512 0.0400 0.1712 0.0400 -0.1712"/>
</g>
<g transform="translate(45.8462, 37.2012)">
<polygon stroke-linejoin="round" stroke-linecap="round" stroke-width="0.0800" fill="currentColor" stroke="currentColor" points="1.8039 -0.4936 1.8039 -0.1512 0.0400 0.1712 0.0400 -0.1712"/>
</g>
<a style="color:inherit;" xlink:href="textedit:///Users/Marc/Projects/violin-music.github.io/tunes/Classical/La-Campanella%20%28Paganini%2c%20Niccolo%cc%80%29/La-Campanella.ly:29:26:27">
<g transform="translate(48.4861, 39.0812)">
<path transform="scale(0.0040, -0.0040)" d="M218 136c66 0 108 -36 108 -89c0 -89 -113 -183 -218 -183c-66 0 -108 36 -108 89c0 89 113 183 218 183z" fill="currentColor"/>
</g>
</a>
<a style="color:inherit;" xlink:href="textedit:///Users/Marc/Projects/violin-music.github.io/tunes/Classical/La-Campanella%20%28Paganini%2c%20Niccolo%cc%80%29/La-Campanella.ly:29:28:29">
<g transform="translate(49.1382, 38.1162)">
<path transform="scale(0.0040, -0.0040)" d="M-50 0c0 28 22 50 50 50s50 -22 50 -50s-22 -50 -50 -50s-50 22 -50 50z" fill="currentColor"/>
</g>
</a>
<g transform="translate(48.5511, 42.9312)">
<rect x="-0.0650" y="-3.6639" width="0.1300" height="3.6639" ry="0.0400" fill="currentColor"/>
</g>
<g transform="translate(35.5859, 42.9312)">
<polygon stroke-linejoin="round" stroke-linecap="round" stroke-width="0.0800" fill="currentColor" stroke="currentColor" points="6.8745 -0.2240 6.8745 0.2240 0.0400 0.2240 0.0400 -0.2240"/>
</g>
<a style="color:inherit;" xlink:href="textedit:///Users/Marc/Projects/violin-music.github.io/tunes/Classical/La-Campanella%20%28Paganini%2c%20Niccolo%cc%80%29/La-Campanella.ly:29:31:32">
<g transform="translate(52.7284, 39.6312)">
<path transform="scale(0.0040, -0.0040)" d="M218 136c66 0 108 -36 108 -89c0 -89 -113 -183 -218 -183c-66 0 -108 36 -108 89c0 89 113 183 218 183z" fill="currentColor"/>
</g>
</a>
<a style="color:inherit;" xlink:href="textedit:///Users/Marc/Projects/violin-music.github.io/tunes/Classical/La-Campanella%20%28Paganini%2c%20Niccolo%cc%80%29/La-Campanella.ly:29:33:34">
<g transform="translate(53.3805, 38.6662)">
<path transform="scale(0.0040, -0.0040)" d="M-50 0c0 28 22 50 50 50s50 -22 50 -50s-22 -50 -50 -50s-50 22 -50 50z" fill="currentColor"/>
</g>
</a>
<g transform="translate(52.7934, 42.9312)">
<rect x="-0.0650" y="-3.1139" width="0.1300" height="3.1139" ry="0.0400" fill="currentColor"/>
</g>
<g transform="translate(51.2784, 39.6312)">
<path transform="scale(0.0040, -0.0040)" d="M0 119c0 8 5 15 13 18l46 17v158c0 10 8 19 18 19s19 -9 19 -19v-145l83 31v158c0 10 9 19 19 19s18 -9 18 -19v-145l32 12c2 1 5 1 7 1c11 0 20 -9 20 -20v-60c0 -8 -5 -16 -13 -19l-46 -16v-160l32 11c2 1 5 1 7 1c11 0 20 -9 20 -20v-60c0 -8 -5 -15 -13 -18l-46 -17
v-158c0 -10 -8 -19 -18 -19s-19 9 -19 19v145l-83 -31v-158c0 -10 -9 -19 -19 -19s-18 9 -18 19v145l-32 -12c-2 -1 -5 -1 -7 -1c-11 0 -20 9 -20 20v60c0 8 5 16 13 19l46 16v160l-32 -11c-2 -1 -5 -1 -7 -1c-11 0 -20 9 -20 20v60zM179 95l-83 -30v-160l83 30v160z" fill="currentColor"/>
</g>
<a style="color:inherit;" xlink:href="textedit:///Users/Marc/Projects/violin-music.github.io/tunes/Classical/La-Campanella%20%28Paganini%2c%20Niccolo%cc%80%29/La-Campanella.ly:29:36:37">
<g transform="translate(56.1206, 39.0812)">
<path transform="scale(0.0040, -0.0040)" d="M218 136c66 0 108 -36 108 -89c0 -89 -113 -183 -218 -183c-66 0 -108 36 -108 89c0 89 113 183 218 183z" fill="currentColor"/>
</g>
</a>
<a style="color:inherit;" xlink:href="textedit:///Users/Marc/Projects/violin-music.github.io/tunes/Classical/La-Campanella%20%28Paganini%2c%20Niccolo%cc%80%29/La-Campanella.ly:29:37:38">
<g transform="translate(56.7727, 38.1162)">
<path transform="scale(0.0040, -0.0040)" d="M-50 0c0 28 22 50 50 50s50 -22 50 -50s-22 -50 -50 -50s-50 22 -50 50z" fill="currentColor"/>
</g>
</a>
<g transform="translate(56.1856, 42.9312)">
<rect x="-0.0650" y="-3.6639" width="0.1300" height="3.6639" ry="0.0400" fill="currentColor"/>
</g>
<a style="color:inherit;" xlink:href="textedit:///opt/local/share/lilypond/2.24.4/ly/grace-init.ly:41:6:7">
<g transform="translate(45.0583, 42.9312)">
<path stroke-width="0.0800" stroke-linejoin="round" stroke-linecap="round" stroke="currentColor" fill="currentColor" d="M0.4417 -2.9283C1.1269 -2.2890 2.3655 -2.2194 3.1278 -2.7773L3.1278 -2.7773C2.3722 -2.3392 1.1336 -2.4088 0.4417 -2.9283z"/>
</g>
</a>
<g transform="translate(24.0148, 42.9312)">
<polygon stroke-linejoin="round" stroke-linecap="round" stroke-width="0.0800" fill="currentColor" stroke="currentColor" points="6.8745 -0.2240 6.8745 0.2240 0.0400 0.2240 0.0400 -0.2240"/>
</g>
<a style="color:inherit;" xlink:href="textedit:///Users/Marc/Projects/violin-music.github.io/tunes/Classical/La-Campanella%20%28Paganini%2c%20Niccolo%cc%80%29/La-Campanella.ly:30:17:18">
<g transform="translate(60.4909, 39.6312)">
<path transform="scale(0.0028, -0.0028)" d="M208 139c69 0 117 -40 117 -99c0 -91 -107 -179 -209 -179c-69 0 -116 40 -116 99c0 91 106 179 208 179z" fill="currentColor"/>
</g>
</a>
<g transform="translate(61.3438, 42.9312)">
<rect x="-0.0650" y="-5.6749" width="0.1300" height="2.2605" ry="0.0400" fill="currentColor"/>
</g>
<g transform="translate(59.4480, 39.6312)">
<path transform="scale(0.0025, -0.0025)" d="M0 112c0 13 8 25 20 30l34 13v148c0 13 10 24 23 24s24 -11 24 -24v-129l73 29v148c0 13 11 24 24 24s23 -11 23 -24v-129l10 4c4 2 8 2 12 2c17 0 32 -14 32 -32v-46c0 -13 -8 -24 -20 -29l-34 -14v-148l10 4c4 2 8 3 12 3c17 0 32 -14 32 -32v-46c0 -13 -8 -25 -20 -30
l-34 -13v-148c0 -13 -10 -24 -23 -24s-24 11 -24 24v129l-73 -29v-148c0 -13 -11 -24 -24 -24s-23 11 -23 24v129l-10 -4c-4 -2 -8 -2 -12 -2c-17 0 -32 14 -32 32v46c0 13 8 24 20 29l34 14v148l-10 -4c-4 -2 -8 -3 -12 -3c-17 0 -32 14 -32 32v46zM174 89l-73 -30v-148
l73 30v148z" fill="currentColor"/>
</g>
<a style="color:inherit;" xlink:href="textedit:///Users/Marc/Projects/violin-music.github.io/tunes/Classical/La-Campanella%20%28Paganini%2c%20Niccolo%cc%80%29/La-Campanella.ly:27:11:12">
<g transform="translate(20.6225, 42.9312)">
<path stroke-width="0.0800" stroke-linejoin="round" stroke-linecap="round" stroke="currentColor" fill="currentColor" d="M0.3490 -3.8450C0.4345 -5.3825 2.2019 -7.1019 3.7412 -7.1450L3.7412 -7.1450C2.2856 -7.0159 0.5182 -5.2965 0.3490 -3.8450z"/>
</g>
</a>
<a style="color:inherit;" xlink:href="textedit:///Users/Marc/Projects/violin-music.github.io/tunes/Classical/La-Campanella%20%28Paganini%2c%20Niccolo%cc%80%29/La-Campanella.ly:30:22:23">
<g transform="translate(62.2048, 39.0812)">
<path transform="scale(0.0028, -0.0028)" d="M208 139c69 0 117 -40 117 -99c0 -91 -107 -179 -209 -179c-69 0 -116 40 -116 99c0 91 106 179 208 179z" fill="currentColor"/>
</g>
</a>
<g transform="translate(63.0577, 42.9312)">
<rect x="-0.0650" y="-6.0363" width="0.1300" height="2.0719" ry="0.0400" fill="currentColor"/>
</g>
<a style="color:inherit;" xlink:href="textedit:///Users/Marc/Projects/violin-music.github.io/tunes/Classical/La-Campanella%20%28Paganini%2c%20Niccolo%cc%80%29/La-Campanella.ly:30:25:26">
<g transform="translate(63.9311, 38.5312)">
<path transform="scale(0.0040, -0.0040)" d="M218 136c66 0 108 -36 108 -89c0 -89 -113 -183 -218 -183c-66 0 -108 36 -108 89c0 89 113 183 218 183z" fill="currentColor"/>
</g>
</a>
<g transform="translate(63.9961, 42.9312)">
<rect x="-0.0650" y="-4.2139" width="0.1300" height="5.1041" ry="0.0400" fill="currentColor"/>
</g>
<a style="color:inherit;" xlink:href="textedit:///Users/Marc/Projects/violin-music.github.io/tunes/Classical/La-Campanella%20%28Paganini%2c%20Niccolo%cc%80%29/La-Campanella.ly:30:30:31">
<g transform="translate(67.0734, 40.7312)">
<path transform="scale(0.0040, -0.0040)" d="M218 136c66 0 108 -36 108 -89c0 -89 -113 -183 -218 -183c-66 0 -108 36 -108 89c0 89 113 183 218 183z" fill="currentColor"/>
</g>
</a>
<g transform="translate(67.1384, 42.9312)">
<rect x="-0.0650" y="-2.0139" width="0.1300" height="3.1059" ry="0.0400" fill="currentColor"/>
</g>
<a style="color:inherit;" xlink:href="textedit:///Users/Marc/Projects/violin-music.github.io/tunes/Classical/La-Campanella%20%28Paganini%2c%20Niccolo%cc%80%29/La-Campanella.ly:30:35:36">
<g transform="translate(70.4656, 40.7312)">
<path transform="scale(0.0040, -0.0040)" d="M218 136c66 0 108 -36 108 -89c0 -89 -113 -183 -218 -183c-66 0 -108 36 -108 89c0 89 113 183 218 183z" fill="currentColor"/>
</g>
</a>
<g transform="translate(70.5306, 42.9312)">
<rect x="-0.0650" y="-2.0139" width="0.1300" height="3.3237" ry="0.0400" fill="currentColor"/>
</g>
<a style="color:inherit;" xlink:href="textedit:///Users/Marc/Projects/violin-music.github.io/tunes/Classical/La-Campanella%20%28Paganini%2c%20Niccolo%cc%80%29/La-Campanella.ly:31:18:19">
<g transform="translate(73.1794, 40.1812)">
<path transform="scale(0.0028, -0.0028)" d="M208 139c69 0 117 -40 117 -99c0 -91 -107 -179 -209 -179c-69 0 -116 40 -116 99c0 91 106 179 208 179z" fill="currentColor"/>
</g>
</a>
<g transform="translate(74.0323, 42.9312)">
<rect x="-0.0650" y="-5.3465" width="0.1300" height="2.4821" ry="0.0400" fill="currentColor"/>
</g>
<a style="color:inherit;" xlink:href="textedit:///Users/Marc/Projects/violin-music.github.io/tunes/Classical/La-Campanella%20%28Paganini%2c%20Niccolo%cc%80%29/La-Campanella.ly:31:22:23">
<g transform="translate(75.7748, 39.6312)">
<path transform="scale(0.0028, -0.0028)" d="M208 139c69 0 117 -40 117 -99c0 -91 -107 -179 -209 -179c-69 0 -116 40 -116 99c0 91 106 179 208 179z" fill="currentColor"/>
</g>
</a>
<g transform="translate(76.6277, 42.9312)">
<rect x="-0.0650" y="-5.6535" width="0.1300" height="2.2391" ry="0.0400" fill="currentColor"/>
</g>
<g transform="translate(74.9933, 39.6312)">
<path transform="scale(0.0025, -0.0025)" d="M-8 375c9 5 18 7 28 7s19 -2 28 -7l-3 -202l97 26c2 0 3 1 5 1c11 0 20 -9 20 -20l7 -555c-9 -5 -17 -7 -27 -7s-19 2 -28 7l3 202l-97 -26c-2 0 -3 -1 -5 -1c-11 0 -20 9 -20 20zM126 108l-82 -22l-3 -194l82 22z" fill="currentColor"/>
</g>
<a style="color:inherit;" xlink:href="textedit:///Users/Marc/Projects/violin-music.github.io/tunes/Classical/La-Campanella%20%28Paganini%2c%20Niccolo%cc%80%29/La-Campanella.ly:31:26:27">
<g transform="translate(77.4887, 40.1812)">
<path transform="scale(0.0040, -0.0040)" d="M218 136c66 0 108 -36 108 -89c0 -89 -113 -183 -218 -183c-66 0 -108 36 -108 89c0 89 113 183 218 183z" fill="currentColor"/>
</g>
</a>
<g transform="translate(77.5537, 42.9312)">
<rect x="-0.0650" y="-2.5639" width="0.1300" height="3.8842" ry="0.0400" fill="currentColor"/>
</g>
<a style="color:inherit;" xlink:href="textedit:///Users/Marc/Projects/violin-music.github.io/tunes/Classical/La-Campanella%20%28Paganini%2c%20Niccolo%cc%80%29/La-Campanella.ly:31:29:30">
<g transform="translate(80.8810, 40.7312)">
<path transform="scale(0.0040, -0.0040)" d="M218 136c66 0 108 -36 108 -89c0 -89 -113 -183 -218 -183c-66 0 -108 36 -108 89c0 89 113 183 218 183z" fill="currentColor"/>
</g>
</a>
<a style="color:inherit;" xlink:href="textedit:///Users/Marc/Projects/violin-music.github.io/tunes/Classical/La-Campanella%20%28Paganini%2c%20Niccolo%cc%80%29/La-Campanella.ly:31:31:32">
<g transform="translate(81.5331, 39.7662)">
<path transform="scale(0.0040, -0.0040)" d="M-50 0c0 28 22 50 50 50s50 -22 50 -50s-22 -50 -50 -50s-50 22 -50 50z" fill="currentColor"/>
</g>
</a>
<g transform="translate(80.9460, 42.9312)">
<rect x="-0.0650" y="-2.0139" width="0.1300" height="3.6639" ry="0.0400" fill="currentColor"/>
</g>
<a style="color:inherit;" xlink:href="textedit:///Users/Marc/Projects/violin-music.github.io/tunes/Classical/La-Campanella%20%28Paganini%2c%20Niccolo%cc%80%29/La-Campanella.ly:31:34:35">
<g transform="translate(84.2732, 41.2812)">
<path transform="scale(0.0040, -0.0040)" d="M218 136c66 0 108 -36 108 -89c0 -89 -113 -183 -218 -183c-66 0 -108 36 -108 89c0 89 113 183 218 183z" fill="currentColor"/>
</g>
</a>
<a style="color:inherit;" xlink:href="textedit:///Users/Marc/Projects/violin-music.github.io/tunes/Classical/La-Campanella%20%28Paganini%2c%20Niccolo%cc%80%29/La-Campanella.ly:31:35:36">
<g transform="translate(84.9253, 40.1812)">
<path transform="scale(0.0040, -0.0040)" d="M-50 0c0 28 22 50 50 50s50 -22 50 -50s-22 -50 -50 -50s-50 22 -50 50z" fill="currentColor"/>
</g>
</a>
<g transform="translate(84.3382, 42.9312)">
<rect x="-0.0650" y="-1.4639" width="0.1300" height="3.4436" ry="0.0400" fill="currentColor"/>
</g>
<a style="color:inherit;" xlink:href="textedit:///Users/Marc/Projects/violin-music.github.io/tunes/Classical/La-Campanella%20%28Paganini%2c%20Niccolo%cc%80%29/La-Campanella.ly:32:2:3">
<g transform="translate(89.0591, 40.7312)">
<path transform="scale(0.0040, -0.0040)" d="M218 136c66 0 108 -36 108 -89c0 -89 -113 -183 -218 -183c-66 0 -108 36 -108 89c0 89 113 183 218 183z" fill="currentColor"/>
</g>
</a>
<g transform="translate(89.1241, 42.9312)">
<rect x="-0.0650" y="-2.0139" width="0.1300" height="2.8935" ry="0.0400" fill="currentColor"/>
</g>
<a style="color:inherit;" xlink:href="textedit:///Users/Marc/Projects/violin-music.github.io/tunes/Classical/La-Campanella%20%28Paganini%2c%20Niccolo%cc%80%29/La-Campanella.ly:32:6:7">
<g transform="translate(92.7014, 39.0812)">
<path transform="scale(0.0040, -0.0040)" d="M218 136c66 0 108 -36 108 -89c0 -89 -113 -183 -218 -183c-66 0 -108 36 -108 89c0 89 113 183 218 183z" fill="currentColor"/>
</g>
</a>
<g transform="translate(92.7664, 42.9312)">
<rect x="-0.0650" y="-3.6639" width="0.1300" height="4.1837" ry="0.0400" fill="currentColor"/>
</g>
<a style="color:inherit;" xlink:href="textedit:///Users/Marc/Projects/violin-music.github.io/tunes/Classical/La-Campanella%20%28Paganini%2c%20Niccolo%cc%80%29/La-Campanella.ly:32:10:11">
<g transform="translate(95.2996, 37.9812)">
<path transform="scale(0.0040, -0.0040)" d="M218 136c66 0 108 -36 108 -89c0 -89 -113 -183 -218 -183c-66 0 -108 36 -108 89c0 89 113 183 218 183z" fill="currentColor"/>
</g>
</a>
<g transform="translate(95.3646, 42.9312)">
<rect x="-0.0650" y="-4.7639" width="0.1300" height="5.0270" ry="0.0400" fill="currentColor"/>
</g>
<a style="color:inherit;" xlink:href="textedit:///Users/Marc/Projects/violin-music.github.io/tunes/Classical/La-Campanella%20%28Paganini%2c%20Niccolo%cc%80%29/La-Campanella.ly:32:12:13">
<g transform="translate(97.8978, 36.8812)">
<path transform="scale(0.0040, -0.0040)" d="M218 136c66 0 108 -36 108 -89c0 -89 -113 -183 -218 -183c-66 0 -108 36 -108 89c0 89 113 183 218 183z" fill="currentColor"/>
</g>
</a>
<g transform="translate(97.9628, 42.9312)">
<rect x="-0.0650" y="-5.8639" width="0.1300" height="5.8703" ry="0.0400" fill="currentColor"/>
</g>
<a style="color:inherit;" xlink:href="textedit:///Users/Marc/Projects/violin-music.github.io/tunes/Classical/La-Campanella%20%28Paganini%2c%20Niccolo%cc%80%29/La-Campanella.ly:33:2:3">
<g transform="translate(101.0401, 40.7312)">
<path transform="scale(0.0040, -0.0040)" d="M218 136c66 0 108 -36 108 -89c0 -89 -113 -183 -218 -183c-66 0 -108 36 -108 89c0 89 113 183 218 183z" fill="currentColor"/>
</g>
</a>
<g transform="translate(101.1051, 42.9312)">
<rect x="-0.0650" y="-2.0139" width="0.1300" height="2.8939" ry="0.0400" fill="currentColor"/>
</g>
<a style="color:inherit;" xlink:href="textedit:///Users/Marc/Projects/violin-music.github.io/tunes/Classical/La-Campanella%20%28Paganini%2c%20Niccolo%cc%80%29/La-Campanella.ly:33:7:8">
<g transform="translate(105.2823, 39.6312)">
<path transform="scale(0.0040, -0.0040)" d="M218 136c66 0 108 -36 108 -89c0 -89 -113 -183 -218 -183c-66 0 -108 36 -108 89c0 89 113 183 218 183z" fill="currentColor"/>
</g>
</a>
<g transform="translate(105.3473, 42.9312)">
<rect x="-0.0650" y="-3.1139" width="0.1300" height="3.6011" ry="0.0400" fill="currentColor"/>
</g>
<g transform="translate(103.8323, 39.6312)">
<path transform="scale(0.0040, -0.0040)" d="M0 119c0 8 5 15 13 18l46 17v158c0 10 8 19 18 19s19 -9 19 -19v-145l83 31v158c0 10 9 19 19 19s18 -9 18 -19v-145l32 12c2 1 5 1 7 1c11 0 20 -9 20 -20v-60c0 -8 -5 -16 -13 -19l-46 -16v-160l32 11c2 1 5 1 7 1c11 0 20 -9 20 -20v-60c0 -8 -5 -15 -13 -18l-46 -17
v-158c0 -10 -8 -19 -18 -19s-19 9 -19 19v145l-83 -31v-158c0 -10 -9 -19 -19 -19s-18 9 -18 19v145l-32 -12c-2 -1 -5 -1 -7 -1c-11 0 -20 9 -20 20v60c0 8 5 16 13 19l46 16v160l-32 -11c-2 -1 -5 -1 -7 -1c-11 0 -20 9 -20 20v60zM179 95l-83 -30v-160l83 30v160z" fill="currentColor"/>
</g>
<g transform="translate(110.5438, 42.9312)">
<rect x="-0.0650" y="-5.8639" width="0.1300" height="5.8699" ry="0.0400" fill="currentColor"/>
</g>
<a style="color:inherit;" xlink:href="textedit:///Users/Marc/Projects/violin-music.github.io/tunes/Classical/La-Campanella%20%28Paganini%2c%20Niccolo%cc%80%29/La-Campanella.ly:33:12:13">
<g transform="translate(107.8805, 38.5312)">
<path transform="scale(0.0040, -0.0040)" d="M218 136c66 0 108 -36 108 -89c0 -89 -113 -183 -218 -183c-66 0 -108 36 -108 89c0 89 113 183 218 183z" fill="currentColor"/>
</g>
</a>
<g transform="translate(107.9455, 42.9312)">
<rect x="-0.0650" y="-4.2139" width="0.1300" height="4.4605" ry="0.0400" fill="currentColor"/>
</g>
<a style="color:inherit;" xlink:href="textedit:///Users/Marc/Projects/violin-music.github.io/tunes/Classical/La-Campanella%20%28Paganini%2c%20Niccolo%cc%80%29/La-Campanella.ly:33:15:16">
<g transform="translate(110.4788, 36.8812)">
<path transform="scale(0.0040, -0.0040)" d="M218 136c66 0 108 -36 108 -89c0 -89 -113 -183 -218 -183c-66 0 -108 36 -108 89c0 89 113 183 218 183z" fill="currentColor"/>
</g>
</a>
</svg>
