<svg xmlns="http://www.w3.org/2000/svg" xmlns:xlink="http://www.w3.org/1999/xlink" version="1.2" width="210.00mm" height="297.00mm" viewBox="0.0000 -0.0000 119.5016 169.0094">
<style type="text/css">
<![CDATA[
tspan { white-space: pre; }
]]>
</style>
<g transform="translate(43.4986, 6.8594)">
<text font-family="Optima" font-weight="bold" font-size="4.4002" text-anchor="start" fill="currentColor">
<tspan>P</tspan>
</text>
</g>
<g transform="translate(45.9569, 6.8594)">
<text font-family="Optima" font-weight="bold" font-size="3.4921" text-anchor="start" fill="currentColor">
<tspan>OLYUSHKO</tspan>
</text>
</g>
<g transform="translate(64.4626, 6.8594)">
<text font-family="Optima" font-weight="bold" font-size="4.4002" text-anchor="start" fill="currentColor">
<tspan>-</tspan>
</text>
</g>
<g transform="translate(65.9307, 6.8594)">
<text font-family="Optima" font-weight="bold" font-size="3.4921" text-anchor="start" fill="currentColor">
<tspan>POLYE</tspan>
</text>
</g>
<g transform="translate(38.9234, 9.8594)">
<text font-family="Optima" font-size="1.7461" text-anchor="start" fill="currentColor">
<tspan>Plaine, ma plaine (French) - The Cossack Patrol (English)</tspan>
</text>
</g>
<g transform="translate(92.6080, 6.8594)">
<text font-family="Optima" font-size="1.9600" text-anchor="start" fill="currentColor">
<tspan>Lev Knipper (1898-1974)</tspan>
</text>
</g>
<g transform="translate(113.6210, 30.0123)">
<rect x="0.0000" y="-2.2000" width="0.1900" height="4.4000" ry="0.0000" fill="currentColor"/>
</g>
<g transform="translate(11.3811, 32.2123)">
<line stroke-linejoin="round" stroke-linecap="round" stroke-width="0.1000" stroke="currentColor" x1="0.0500" y1="0" x2="102.3799" y2="0"/>
</g>
<g transform="translate(11.3811, 31.1123)">
<line stroke-linejoin="round" stroke-linecap="round" stroke-width="0.1000" stroke="currentColor" x1="0.0500" y1="0" x2="102.3799" y2="0"/>
</g>
<g transform="translate(11.3811, 30.0123)">
<line stroke-linejoin="round" stroke-linecap="round" stroke-width="0.1000" stroke="currentColor" x1="0.0500" y1="0" x2="102.3799" y2="0"/>
</g>
<g transform="translate(11.3811, 28.9123)">
<line stroke-linejoin="round" stroke-linecap="round" stroke-width="0.1000" stroke="currentColor" x1="0.0500" y1="0" x2="102.3799" y2="0"/>
</g>
<g transform="translate(11.3811, 27.8123)">
<line stroke-linejoin="round" stroke-linecap="round" stroke-width="0.1000" stroke="currentColor" x1="0.0500" y1="0" x2="102.3799" y2="0"/>
</g>
<g transform="translate(94.6806, 30.0123)">
<rect x="0.0000" y="-2.2000" width="0.1900" height="4.4000" ry="0.0000" fill="currentColor"/>
</g>
<g transform="translate(65.7103, 30.0123)">
<rect x="0.0000" y="-2.2000" width="0.1900" height="4.4000" ry="0.0000" fill="currentColor"/>
</g>
<g transform="translate(43.3447, 30.0123)">
<rect x="0.0000" y="-2.2000" width="0.1900" height="4.4000" ry="0.0000" fill="currentColor"/>
</g>
<g transform="translate(68.4411, 26.7123)">
<polygon stroke-linejoin="round" stroke-linecap="round" stroke-width="0.0800" fill="currentColor" stroke="currentColor" points="3.8384 -0.0100 3.8384 0.4380 0.0400 0.2240 0.0400 -0.2240"/>
</g>
<a style="color:inherit;" xlink:href="textedit:///Users/marc.mouries/projects/Sheet-Music/Folk_Russia/Polyushko-pole/Polyushko-Pole_music.ily:20:2:3">
<g transform="translate(22.3711, 25.9113)">
<text font-family="sans-serif" font-size="2.6163" text-anchor="start" fill="currentColor">
<tspan>G</tspan>
</text>
</g>
<g transform="translate(24.3856, 25.9113)">
<text font-family="sans-serif" font-size="2.6163" text-anchor="start" fill="currentColor">
<tspan>m</tspan>
</text>
</g>
</a>
<a style="color:inherit;" xlink:href="textedit:///Users/marc.mouries/projects/Sheet-Music/Folk_Russia/Polyushko-pole/Polyushko-Pole_music.ily:27:2:3">
<g transform="translate(22.3711, 30.0123)">
<path transform="scale(0.0040, -0.0040)" d="M314 65c0 23 -19 41 -42 41c-39 0 -204 -110 -231 -143c-7 -8 -10 -18 -10 -28c0 -23 19 -41 42 -41c39 0 203 110 230 143c7 8 11 18 11 28zM262 136c41 0 82 -14 82 -71c0 -26 -16 -112 -74 -151c-25 -17 -87 -50 -187 -50c-41 0 -83 14 -83 71c0 26 16 112 74 151
c25 17 88 50 188 50z" fill="currentColor"/>
</g>
</a>
<g transform="translate(12.1811, 31.1123)">
<path transform="scale(0.0040, -0.0040)" d="M266 -635h-6c-108 0 -195 88 -195 197c0 58 53 103 112 103c54 0 95 -47 95 -103c0 -52 -43 -95 -95 -95c-11 0 -21 2 -31 6c26 -39 68 -65 117 -65h4zM461 -203c68 24 113 90 113 164c0 90 -66 179 -173 190c19 -89 48 -242 60 -354zM74 28c0 -145 141 -247 264 -247
c1 0 47 0 82 6c-7 64 -29 203 -63 364c-79 -8 -124 -61 -124 -119c0 -44 25 -91 81 -123c5 -5 7 -10 7 -15c0 -11 -10 -22 -22 -22c-15 0 -126 62 -126 187c0 88 58 174 160 197c-14 58 -29 117 -46 175c-107 -121 -213 -243 -213 -403zM250 553c-29 96 -52 170 -52 346
c0 115 55 224 149 292c6 5 14 5 20 0c68 -80 133 -245 133 -358c0 -143 -86 -255 -180 -364c21 -68 39 -138 56 -207c2 0 7 1 13 1c155 0 256 -128 256 -261c0 -113 -74 -212 -180 -246c3 -35 5 -70 5 -105c0 -19 -1 -39 -2 -58c-7 -119 -88 -225 -202 -228l1 43
c93 2 153 92 159 191c1 18 2 37 2 55c0 31 -1 61 -4 92c-5 -1 -44 -8 -89 -8c-193 0 -333 180 -333 374c0 177 131 306 248 441zM428 916c0 34 1 66 -20 129c-99 -48 -162 -149 -162 -259c0 -52 12 -115 36 -194c80 97 146 198 146 324z" fill="currentColor"/>
</g>
<a style="color:inherit;" xlink:href="textedit:///Users/marc.mouries/projects/Sheet-Music/Folk_Russia/Polyushko-pole/Polyushko-Pole_music.ily:26:2:3">
<g transform="translate(15.8011, 30.0123)">
<path transform="scale(0.0040, -0.0040)" d="M27 41l-1 -66v-11c0 -22 1 -44 4 -66c45 38 93 80 93 139c0 33 -14 67 -43 67c-31 0 -52 -30 -53 -63zM-15 -138l-12 595c8 5 18 8 27 8s19 -3 27 -8l-7 -345c25 21 58 34 91 34c52 0 89 -48 89 -102c0 -80 -86 -117 -147 -169c-15 -13 -24 -38 -45 -38
c-13 0 -23 11 -23 25z" fill="currentColor"/>
</g>
<g transform="translate(16.7211, 28.3623)">
<path transform="scale(0.0040, -0.0040)" d="M27 41l-1 -66v-11c0 -22 1 -44 4 -66c45 38 93 80 93 139c0 33 -14 67 -43 67c-31 0 -52 -30 -53 -63zM-15 -138l-12 595c8 5 18 8 27 8s19 -3 27 -8l-7 -345c25 21 58 34 91 34c52 0 89 -48 89 -102c0 -80 -86 -117 -147 -169c-15 -13 -24 -38 -45 -38
c-13 0 -23 11 -23 25z" fill="currentColor"/>
</g>
</a>
<a style="color:inherit;" xlink:href="textedit:///Users/marc.mouries/projects/Sheet-Music/Folk_Russia/Polyushko-pole/Polyushko-Pole_music.ily:15:2:3">
<g transform="translate(18.6711, 30.0123)">
<path transform="scale(0.0040, -0.0040)" d="M250 262c116 0 176 -106 176 -163c0 -40 -30 -72 -67 -72c-31 0 -75 25 -75 75c0 38 27 77 72 77c4 0 9 0 14 -1c-28 37 -72 59 -120 59c-106 0 -113 -73 -113 -186v-51v-51c0 -113 7 -187 113 -187c80 0 139 70 158 151c2 7 7 10 12 10c6 0 13 -4 13 -12
c0 -22 -50 -174 -183 -174c-59 0 -250 19 -250 263c0 62 18 262 250 262z" fill="currentColor"/>
</g>
</a>
<a style="color:inherit;" xlink:href="textedit:///Users/marc.mouries/projects/Sheet-Music/Folk_Russia/Polyushko-pole/Polyushko-Pole_music.ily:16:2:3">
<g transform="translate(18.6711, 23.0001)">
<rect x="1.0449" y="-2.6727" width="0.1158" height="2.5129" ry="0.0193" fill="currentColor"/>
</g>
<g transform="translate(18.6711, 23.0001)">
<path transform="scale(0.0036, -0.0036)" d="M215 137c67 0 111 -37 111 -92c0 -90 -111 -182 -215 -182c-67 0 -111 37 -111 92c0 90 111 182 215 182z" fill="currentColor"/>
</g>
<g transform="translate(19.8318, 23.4888)">
<text font-family="serif" font-size="2.2001" text-anchor="start" fill="currentColor">
<tspan> = 100</tspan>
</text>
</g>
</a>
<g transform="translate(22.4361, 30.0123)">
<rect x="-0.0650" y="0.2590" width="0.1300" height="3.4077" ry="0.0400" fill="currentColor"/>
</g>
<a style="color:inherit;" xlink:href="textedit:///Users/marc.mouries/projects/Sheet-Music/Folk_Russia/Polyushko-pole/Polyushko-Pole_music.ily:27:6:7">
<g transform="translate(30.9959, 31.1123)">
<path transform="scale(0.0040, -0.0040)" d="M218 136c66 0 108 -36 108 -89c0 -89 -113 -183 -218 -183c-66 0 -108 36 -108 89c0 89 113 183 218 183z" fill="currentColor"/>
</g>
</a>
<g transform="translate(32.2351, 30.0123)">
<rect x="-0.0650" y="-2.7500" width="0.1300" height="3.6639" ry="0.0400" fill="currentColor"/>
</g>
<a style="color:inherit;" xlink:href="textedit:///Users/marc.mouries/projects/Sheet-Music/Folk_Russia/Polyushko-pole/Polyushko-Pole_music.ily:27:9:10">
<g transform="translate(37.2829, 30.0123)">
<path transform="scale(0.0040, -0.0040)" d="M218 136c66 0 108 -36 108 -89c0 -89 -113 -183 -218 -183c-66 0 -108 36 -108 89c0 89 113 183 218 183z" fill="currentColor"/>
</g>
</a>
<g transform="translate(37.3479, 30.0123)">
<rect x="-0.0650" y="0.1861" width="0.1300" height="3.4806" ry="0.0400" fill="currentColor"/>
</g>
<a style="color:inherit;" xlink:href="textedit:///Users/marc.mouries/projects/Sheet-Music/Folk_Russia/Polyushko-pole/Polyushko-Pole_music.ily:20:7:8">
<g transform="translate(44.9012, 25.9113)">
<text font-family="sans-serif" font-size="2.6163" text-anchor="start" fill="currentColor">
<tspan>D</tspan>
</text>
</g>
<g transform="translate(46.9157, 25.9113)">
<text font-family="sans-serif" font-size="2.6163" text-anchor="start" fill="currentColor">
<tspan>m</tspan>
</text>
</g>
</a>
<a style="color:inherit;" xlink:href="textedit:///Users/marc.mouries/projects/Sheet-Music/Folk_Russia/Polyushko-pole/Polyushko-Pole_music.ily:28:2:3">
<g transform="translate(44.9012, 30.5623)">
<path transform="scale(0.0040, -0.0040)" d="M314 65c0 23 -19 41 -42 41c-39 0 -204 -110 -231 -143c-7 -8 -10 -18 -10 -28c0 -23 19 -41 42 -41c39 0 203 110 230 143c7 8 11 18 11 28zM262 136c41 0 82 -14 82 -71c0 -26 -16 -112 -74 -151c-25 -17 -87 -50 -187 -50c-41 0 -83 14 -83 71c0 26 16 112 74 151
c25 17 88 50 188 50z" fill="currentColor"/>
</g>
</a>
<g transform="translate(46.2136, 30.0123)">
<rect x="-0.0650" y="-3.3000" width="0.1300" height="3.5910" ry="0.0400" fill="currentColor"/>
</g>
<a style="color:inherit;" xlink:href="textedit:///Users/marc.mouries/projects/Sheet-Music/Folk_Russia/Polyushko-pole/Polyushko-Pole_music.ily:28:5:6">
<g transform="translate(53.3610, 31.6623)">
<path transform="scale(0.0040, -0.0040)" d="M218 136c66 0 108 -36 108 -89c0 -89 -113 -183 -218 -183c-66 0 -108 36 -108 89c0 89 113 183 218 183z" fill="currentColor"/>
</g>
</a>
<g transform="translate(54.6002, 30.0123)">
<rect x="-0.0650" y="-2.2000" width="0.1300" height="3.6639" ry="0.0400" fill="currentColor"/>
</g>
<a style="color:inherit;" xlink:href="textedit:///Users/marc.mouries/projects/Sheet-Music/Folk_Russia/Polyushko-pole/Polyushko-Pole_music.ily:28:9:10">
<g transform="translate(59.3035, 32.7623)">
<path transform="scale(0.0040, -0.0040)" d="M218 136c66 0 108 -36 108 -89c0 -89 -113 -183 -218 -183c-66 0 -108 36 -108 89c0 89 113 183 218 183z" fill="currentColor"/>
</g>
</a>
<g transform="translate(60.5428, 30.0123)">
<rect x="-0.0650" y="-1.1000" width="0.1300" height="3.6639" ry="0.0400" fill="currentColor"/>
</g>
<a style="color:inherit;" xlink:href="textedit:///Users/marc.mouries/projects/Sheet-Music/Folk_Russia/Polyushko-pole/Polyushko-Pole_music.ily:20:12:13">
<g transform="translate(67.2669, 25.9113)">
<text font-family="sans-serif" font-size="2.6163" text-anchor="start" fill="currentColor">
<tspan>G</tspan>
</text>
</g>
<g transform="translate(69.2814, 25.9113)">
<text font-family="sans-serif" font-size="2.6163" text-anchor="start" fill="currentColor">
<tspan>m</tspan>
</text>
</g>
</a>
<a style="color:inherit;" xlink:href="textedit:///Users/marc.mouries/projects/Sheet-Music/Folk_Russia/Polyushko-pole/Polyushko-Pole_music.ily:29:2:3">
<g transform="translate(67.2669, 30.0123)">
<path transform="scale(0.0040, -0.0040)" d="M218 136c66 0 108 -36 108 -89c0 -89 -113 -183 -218 -183c-66 0 -108 36 -108 89c0 89 113 183 218 183z" fill="currentColor"/>
</g>
</a>
<g transform="translate(68.5061, 30.0123)">
<rect x="-0.0650" y="-3.2964" width="0.1300" height="3.1103" ry="0.0400" fill="currentColor"/>
</g>
<g transform="translate(75.9378, 27.8123)">
<polygon stroke-linejoin="round" stroke-linecap="round" stroke-width="0.0800" fill="currentColor" stroke="currentColor" points="3.8384 -0.0100 3.8384 0.4380 0.0400 0.2240 0.0400 -0.2240"/>
</g>
<a style="color:inherit;" xlink:href="textedit:///Users/marc.mouries/projects/Sheet-Music/Folk_Russia/Polyushko-pole/Polyushko-Pole_music.ily:29:7:8">
<g transform="translate(71.0153, 30.5623)">
<path transform="scale(0.0040, -0.0040)" d="M218 136c66 0 108 -36 108 -89c0 -89 -113 -183 -218 -183c-66 0 -108 36 -108 89c0 89 113 183 218 183z" fill="currentColor"/>
</g>
</a>
<g transform="translate(72.2545, 30.0123)">
<rect x="-0.0650" y="-3.0896" width="0.1300" height="3.4535" ry="0.0400" fill="currentColor"/>
</g>
<a style="color:inherit;" xlink:href="textedit:///Users/marc.mouries/projects/Sheet-Music/Folk_Russia/Polyushko-pole/Polyushko-Pole_music.ily:29:9:10">
<g transform="translate(74.7636, 31.1123)">
<path transform="scale(0.0040, -0.0040)" d="M218 136c66 0 108 -36 108 -89c0 -89 -113 -183 -218 -183c-66 0 -108 36 -108 89c0 89 113 183 218 183z" fill="currentColor"/>
</g>
</a>
<g transform="translate(76.0028, 30.0123)">
<rect x="-0.0650" y="-2.1964" width="0.1300" height="3.1103" ry="0.0400" fill="currentColor"/>
</g>
<a style="color:inherit;" xlink:href="textedit:///Users/marc.mouries/projects/Sheet-Music/Folk_Russia/Polyushko-pole/Polyushko-Pole_music.ily:29:11:12">
<g transform="translate(78.5120, 31.6623)">
<path transform="scale(0.0040, -0.0040)" d="M218 136c66 0 108 -36 108 -89c0 -89 -113 -183 -218 -183c-66 0 -108 36 -108 89c0 89 113 183 218 183z" fill="currentColor"/>
</g>
</a>
<g transform="translate(79.7512, 30.0123)">
<rect x="-0.0650" y="-1.9896" width="0.1300" height="3.4535" ry="0.0400" fill="currentColor"/>
</g>
<a style="color:inherit;" xlink:href="textedit:///Users/marc.mouries/projects/Sheet-Music/Folk_Russia/Polyushko-pole/Polyushko-Pole_music.ily:29:13:14">
<g transform="translate(82.2604, 31.1123)">
<path transform="scale(0.0040, -0.0040)" d="M218 136c66 0 108 -36 108 -89c0 -89 -113 -183 -218 -183c-66 0 -108 36 -108 89c0 89 113 183 218 183z" fill="currentColor"/>
</g>
</a>
<g transform="translate(83.4996, 30.0123)">
<rect x="-0.0650" y="-2.7500" width="0.1300" height="3.6639" ry="0.0400" fill="currentColor"/>
</g>
<a style="color:inherit;" xlink:href="textedit:///Users/marc.mouries/projects/Sheet-Music/Folk_Russia/Polyushko-pole/Polyushko-Pole_music.ily:29:16:17">
<g transform="translate(88.6903, 28.9123)">
<path transform="scale(0.0040, -0.0040)" d="M218 136c66 0 108 -36 108 -89c0 -89 -113 -183 -218 -183c-66 0 -108 36 -108 89c0 89 113 183 218 183z" fill="currentColor"/>
</g>
</a>
<g transform="translate(88.7553, 30.0123)">
<rect x="-0.0650" y="-0.9139" width="0.1300" height="3.6639" ry="0.0400" fill="currentColor"/>
</g>
<g transform="translate(106.0093, 30.0123)">
<rect x="-0.0650" y="-1.1000" width="0.1300" height="3.5910" ry="0.0400" fill="currentColor"/>
</g>
<a style="color:inherit;" xlink:href="textedit:///Users/marc.mouries/projects/Sheet-Music/Folk_Russia/Polyushko-pole/Polyushko-Pole_music.ily:20:18:19">
<g transform="translate(96.2371, 25.9113)">
<text font-family="sans-serif" font-size="2.6163" text-anchor="start" fill="currentColor">
<tspan>D</tspan>
</text>
</g>
</a>
<a style="color:inherit;" xlink:href="textedit:///Users/marc.mouries/projects/Sheet-Music/Folk_Russia/Polyushko-pole/Polyushko-Pole_music.ily:30:2:3">
<g transform="translate(96.2371, 30.5623)">
<path transform="scale(0.0040, -0.0040)" d="M314 65c0 23 -19 41 -42 41c-39 0 -204 -110 -231 -143c-7 -8 -10 -18 -10 -28c0 -23 19 -41 42 -41c39 0 203 110 230 143c7 8 11 18 11 28zM262 136c41 0 82 -14 82 -71c0 -26 -16 -112 -74 -151c-25 -17 -87 -50 -187 -50c-41 0 -83 14 -83 71c0 26 16 112 74 151
c25 17 88 50 188 50z" fill="currentColor"/>
</g>
</a>
<g transform="translate(97.5495, 30.0123)">
<rect x="-0.0650" y="-3.3000" width="0.1300" height="3.5910" ry="0.0400" fill="currentColor"/>
</g>
<a style="color:inherit;" xlink:href="textedit:///Users/marc.mouries/projects/Sheet-Music/Folk_Russia/Polyushko-pole/Polyushko-Pole_music.ily:30:5:6">
<g transform="translate(104.6969, 32.7623)">
<path transform="scale(0.0040, -0.0040)" d="M314 65c0 23 -19 41 -42 41c-39 0 -204 -110 -231 -143c-7 -8 -10 -18 -10 -28c0 -23 19 -41 42 -41c39 0 203 110 230 143c7 8 11 18 11 28zM262 136c41 0 82 -14 82 -71c0 -26 -16 -112 -74 -151c-25 -17 -87 -50 -187 -50c-41 0 -83 14 -83 71c0 26 16 112 74 151
c25 17 88 50 188 50z" fill="currentColor"/>
</g>
</a>
<g transform="translate(113.6210, 46.0123)">
<rect x="0.0000" y="-2.2000" width="0.1900" height="4.4000" ry="0.0000" fill="currentColor"/>
</g>
<g transform="translate(5.6906, 49.3123)">
<rect x="91.9194" y="-0.1050" width="1.8053" height="0.2100" ry="0.1050" fill="currentColor"/>
</g>
<g transform="translate(5.6906, 49.3123)">
<rect x="68.4695" y="-0.1050" width="1.9563" height="0.2100" ry="0.1050" fill="currentColor"/>
</g>
<g transform="translate(5.6906, 49.3123)">
<rect x="22.4642" y="-0.1050" width="1.9563" height="0.2100" ry="0.1050" fill="currentColor"/>
</g>
<g transform="translate(5.6906, 48.2123)">
<line stroke-linejoin="round" stroke-linecap="round" stroke-width="0.1000" stroke="currentColor" x1="0.0500" y1="0" x2="108.0705" y2="0"/>
</g>
<g transform="translate(5.6906, 47.1123)">
<line stroke-linejoin="round" stroke-linecap="round" stroke-width="0.1000" stroke="currentColor" x1="0.0500" y1="0" x2="108.0705" y2="0"/>
</g>
<g transform="translate(5.6906, 46.0123)">
<line stroke-linejoin="round" stroke-linecap="round" stroke-width="0.1000" stroke="currentColor" x1="0.0500" y1="0" x2="108.0705" y2="0"/>
</g>
<g transform="translate(5.6906, 44.9123)">
<line stroke-linejoin="round" stroke-linecap="round" stroke-width="0.1000" stroke="currentColor" x1="0.0500" y1="0" x2="108.0705" y2="0"/>
</g>
<g transform="translate(5.6906, 43.8123)">
<line stroke-linejoin="round" stroke-linecap="round" stroke-width="0.1000" stroke="currentColor" x1="0.0500" y1="0" x2="108.0705" y2="0"/>
</g>
<g transform="translate(83.9967, 46.0123)">
<rect x="0.0000" y="-2.2000" width="0.1900" height="4.4000" ry="0.0000" fill="currentColor"/>
</g>
<g transform="translate(59.0259, 46.0123)">
<rect x="0.0000" y="-2.2000" width="0.1900" height="4.4000" ry="0.0000" fill="currentColor"/>
</g>
<g transform="translate(37.9914, 46.0123)">
<rect x="0.0000" y="-2.2000" width="0.1900" height="4.4000" ry="0.0000" fill="currentColor"/>
</g>
<g transform="translate(6.4906, 47.1123)">
<path transform="scale(0.0040, -0.0040)" d="M266 -635h-6c-108 0 -195 88 -195 197c0 58 53 103 112 103c54 0 95 -47 95 -103c0 -52 -43 -95 -95 -95c-11 0 -21 2 -31 6c26 -39 68 -65 117 -65h4zM461 -203c68 24 113 90 113 164c0 90 -66 179 -173 190c19 -89 48 -242 60 -354zM74 28c0 -145 141 -247 264 -247
c1 0 47 0 82 6c-7 64 -29 203 -63 364c-79 -8 -124 -61 -124 -119c0 -44 25 -91 81 -123c5 -5 7 -10 7 -15c0 -11 -10 -22 -22 -22c-15 0 -126 62 -126 187c0 88 58 174 160 197c-14 58 -29 117 -46 175c-107 -121 -213 -243 -213 -403zM250 553c-29 96 -52 170 -52 346
c0 115 55 224 149 292c6 5 14 5 20 0c68 -80 133 -245 133 -358c0 -143 -86 -255 -180 -364c21 -68 39 -138 56 -207c2 0 7 1 13 1c155 0 256 -128 256 -261c0 -113 -74 -212 -180 -246c3 -35 5 -70 5 -105c0 -19 -1 -39 -2 -58c-7 -119 -88 -225 -202 -228l1 43
c93 2 153 92 159 191c1 18 2 37 2 55c0 31 -1 61 -4 92c-5 -1 -44 -8 -89 -8c-193 0 -333 180 -333 374c0 177 131 306 248 441zM428 916c0 34 1 66 -20 129c-99 -48 -162 -149 -162 -259c0 -52 12 -115 36 -194c80 97 146 198 146 324z" fill="currentColor"/>
</g>
<g transform="translate(10.1106, 46.0123)">
<path transform="scale(0.0040, -0.0040)" d="M27 41l-1 -66v-11c0 -22 1 -44 4 -66c45 38 93 80 93 139c0 33 -14 67 -43 67c-31 0 -52 -30 -53 -63zM-15 -138l-12 595c8 5 18 8 27 8s19 -3 27 -8l-7 -345c25 21 58 34 91 34c52 0 89 -48 89 -102c0 -80 -86 -117 -147 -169c-15 -13 -24 -38 -45 -38
c-13 0 -23 11 -23 25z" fill="currentColor"/>
</g>
<g transform="translate(11.0306, 44.3623)">
<path transform="scale(0.0040, -0.0040)" d="M27 41l-1 -66v-11c0 -22 1 -44 4 -66c45 38 93 80 93 139c0 33 -14 67 -43 67c-31 0 -52 -30 -53 -63zM-15 -138l-12 595c8 5 18 8 27 8s19 -3 27 -8l-7 -345c25 21 58 34 91 34c52 0 89 -48 89 -102c0 -80 -86 -117 -147 -169c-15 -13 -24 -38 -45 -38
c-13 0 -23 11 -23 25z" fill="currentColor"/>
</g>
<g transform="translate(4.8028, 42.7419)">
<text font-family="serif" font-size="1.7461" text-anchor="start" fill="currentColor">
<tspan>5</tspan>
</text>
</g>
<g transform="translate(95.3116, 45.1263)">
<polygon stroke-linejoin="round" stroke-linecap="round" stroke-width="0.0800" fill="currentColor" stroke="currentColor" points="5.9351 -0.2240 5.9351 0.2240 0.0400 0.2240 0.0400 -0.2240"/>
</g>
<g transform="translate(95.3116, 46.0123)">
<polygon stroke-linejoin="round" stroke-linecap="round" stroke-width="0.0800" fill="currentColor" stroke="currentColor" points="5.9351 -0.2240 5.9351 0.2240 0.0400 0.2240 0.0400 -0.2240"/>
</g>
<a style="color:inherit;" xlink:href="textedit:///Users/marc.mouries/projects/Sheet-Music/Folk_Russia/Polyushko-pole/Polyushko-Pole_music.ily:21:2:3">
<g transform="translate(14.3306, 42.3949)">
<text font-family="sans-serif" font-size="2.6163" text-anchor="start" fill="currentColor">
<tspan>E</tspan>
</text>
</g>
<g transform="translate(16.1913, 42.0949)">
<path transform="scale(0.0042, -0.0042)" d="M27 41l-1 -66v-11c0 -22 1 -44 4 -66c45 38 93 80 93 139c0 33 -14 67 -43 67c-31 0 -52 -30 -53 -63zM-15 -138l-12 595c8 5 18 8 27 8s19 -3 27 -8l-7 -345c25 21 58 34 91 34c52 0 89 -48 89 -102c0 -80 -86 -117 -147 -169c-15 -13 -24 -38 -45 -38
c-13 0 -23 11 -23 25z" fill="currentColor"/>
</g>
</a>
<a style="color:inherit;" xlink:href="textedit:///Users/marc.mouries/projects/Sheet-Music/Folk_Russia/Polyushko-pole/Polyushko-Pole_music.ily:32:2:3">
<g transform="translate(14.3306, 47.1123)">
<path transform="scale(0.0040, -0.0040)" d="M218 136c66 0 108 -36 108 -89c0 -89 -113 -183 -218 -183c-66 0 -108 36 -108 89c0 89 113 183 218 183z" fill="currentColor"/>
</g>
</a>
<g transform="translate(15.5698, 46.0123)">
<rect x="-0.0650" y="-2.7500" width="0.1300" height="3.6639" ry="0.0400" fill="currentColor"/>
</g>
<g transform="translate(78.7512, 45.1263)">
<polygon stroke-linejoin="round" stroke-linecap="round" stroke-width="0.0800" fill="currentColor" stroke="currentColor" points="3.1809 -0.4380 3.1809 0.0100 0.0400 0.2240 0.0400 -0.2240"/>
</g>
<a style="color:inherit;" xlink:href="textedit:///Users/marc.mouries/projects/Sheet-Music/Folk_Russia/Polyushko-pole/Polyushko-Pole_music.ily:32:5:6">
<g transform="translate(19.2081, 47.6623)">
<path transform="scale(0.0040, -0.0040)" d="M218 136c66 0 108 -36 108 -89c0 -89 -113 -183 -218 -183c-66 0 -108 36 -108 89c0 89 113 183 218 183z" fill="currentColor"/>
</g>
</a>
<g transform="translate(20.4474, 46.0123)">
<rect x="-0.0650" y="-1.3097" width="0.1300" height="2.7736" ry="0.0400" fill="currentColor"/>
</g>
<g transform="translate(72.5695, 45.7983)">
<polygon stroke-linejoin="round" stroke-linecap="round" stroke-width="0.0800" fill="currentColor" stroke="currentColor" points="3.1809 -0.0100 3.1809 0.4380 0.0400 0.2240 0.0400 -0.2240"/>
</g>
<a style="color:inherit;" xlink:href="textedit:///Users/marc.mouries/projects/Sheet-Music/Folk_Russia/Polyushko-pole/Polyushko-Pole_music.ily:32:8:9">
<g transform="translate(22.2990, 48.2123)">
<path transform="scale(0.0040, -0.0040)" d="M218 136c66 0 108 -36 108 -89c0 -89 -113 -183 -218 -183c-66 0 -108 36 -108 89c0 89 113 183 218 183z" fill="currentColor"/>
</g>
</a>
<g transform="translate(23.5382, 46.0123)">
<rect x="-0.0650" y="-1.1043" width="0.1300" height="3.1182" ry="0.0400" fill="currentColor"/>
</g>
<g transform="translate(66.3877, 44.6983)">
<polygon stroke-linejoin="round" stroke-linecap="round" stroke-width="0.0800" fill="currentColor" stroke="currentColor" points="3.1809 -0.0100 3.1809 0.4380 0.0400 0.2240 0.0400 -0.2240"/>
</g>
<a style="color:inherit;" xlink:href="textedit:///Users/marc.mouries/projects/Sheet-Music/Folk_Russia/Polyushko-pole/Polyushko-Pole_music.ily:32:11:12">
<g transform="translate(25.3899, 48.7623)">
<path transform="scale(0.0040, -0.0040)" d="M218 136c66 0 108 -36 108 -89c0 -89 -113 -183 -218 -183c-66 0 -108 36 -108 89c0 89 113 183 218 183z" fill="currentColor"/>
</g>
</a>
<g transform="translate(26.6291, 46.0123)">
<rect x="-0.0650" y="-0.2097" width="0.1300" height="2.7736" ry="0.0400" fill="currentColor"/>
</g>
<g transform="translate(32.7459, 45.1263)">
<polygon stroke-linejoin="round" stroke-linecap="round" stroke-width="0.0800" fill="currentColor" stroke="currentColor" points="3.1809 -0.4380 3.1809 0.0100 0.0400 0.2240 0.0400 -0.2240"/>
</g>
<a style="color:inherit;" xlink:href="textedit:///Users/marc.mouries/projects/Sheet-Music/Folk_Russia/Polyushko-pole/Polyushko-Pole_music.ily:32:13:14">
<g transform="translate(28.4808, 49.3123)">
<path transform="scale(0.0040, -0.0040)" d="M218 136c66 0 108 -36 108 -89c0 -89 -113 -183 -218 -183c-66 0 -108 36 -108 89c0 89 113 183 218 183z" fill="currentColor"/>
</g>
</a>
<g transform="translate(29.7200, 46.0123)">
<rect x="-0.0650" y="-0.0043" width="0.1300" height="3.1182" ry="0.0400" fill="currentColor"/>
</g>
<g transform="translate(26.5641, 45.7983)">
<polygon stroke-linejoin="round" stroke-linecap="round" stroke-width="0.0800" fill="currentColor" stroke="currentColor" points="3.1809 -0.0100 3.1809 0.4380 0.0400 0.2240 0.0400 -0.2240"/>
</g>
<a style="color:inherit;" xlink:href="textedit:///Users/marc.mouries/projects/Sheet-Music/Folk_Russia/Polyushko-pole/Polyushko-Pole_music.ily:32:15:16">
<g transform="translate(31.5717, 48.7623)">
<path transform="scale(0.0040, -0.0040)" d="M218 136c66 0 108 -36 108 -89c0 -89 -113 -183 -218 -183c-66 0 -108 36 -108 89c0 89 113 183 218 183z" fill="currentColor"/>
</g>
</a>
<g transform="translate(32.8109, 46.0123)">
<rect x="-0.0650" y="-0.8903" width="0.1300" height="3.4542" ry="0.0400" fill="currentColor"/>
</g>
<g transform="translate(20.3824, 44.6983)">
<polygon stroke-linejoin="round" stroke-linecap="round" stroke-width="0.0800" fill="currentColor" stroke="currentColor" points="3.1809 -0.0100 3.1809 0.4380 0.0400 0.2240 0.0400 -0.2240"/>
</g>
<a style="color:inherit;" xlink:href="textedit:///Users/marc.mouries/projects/Sheet-Music/Folk_Russia/Polyushko-pole/Polyushko-Pole_music.ily:32:17:18">
<g transform="translate(34.6626, 48.2123)">
<path transform="scale(0.0040, -0.0040)" d="M218 136c66 0 108 -36 108 -89c0 -89 -113 -183 -218 -183c-66 0 -108 36 -108 89c0 89 113 183 218 183z" fill="currentColor"/>
</g>
</a>
<g transform="translate(35.9018, 46.0123)">
<rect x="-0.0650" y="-1.0957" width="0.1300" height="3.1096" ry="0.0400" fill="currentColor"/>
</g>
<a style="color:inherit;" xlink:href="textedit:///Users/marc.mouries/projects/Sheet-Music/Folk_Russia/Polyushko-pole/Polyushko-Pole_music.ily:21:8:9">
<g transform="translate(39.3014, 42.3949)">
<text font-family="sans-serif" font-size="2.6163" text-anchor="start" fill="currentColor">
<tspan>D</tspan>
</text>
</g>
</a>
<a style="color:inherit;" xlink:href="textedit:///Users/marc.mouries/projects/Sheet-Music/Folk_Russia/Polyushko-pole/Polyushko-Pole_music.ily:33:2:3">
<g transform="translate(39.3014, 48.7623)">
<path transform="scale(0.0040, -0.0040)" d="M218 136c66 0 108 -36 108 -89c0 -89 -113 -183 -218 -183c-66 0 -108 36 -108 89c0 89 113 183 218 183z" fill="currentColor"/>
</g>
</a>
<g transform="translate(40.5406, 46.0123)">
<rect x="-0.0650" y="-1.1000" width="0.1300" height="3.6639" ry="0.0400" fill="currentColor"/>
</g>
<a style="color:inherit;" xlink:href="textedit:///Users/marc.mouries/projects/Sheet-Music/Folk_Russia/Polyushko-pole/Polyushko-Pole_music.ily:33:5:6">
<g transform="translate(44.4289, 46.5623)">
<path transform="scale(0.0040, -0.0040)" d="M218 136c66 0 108 -36 108 -89c0 -89 -113 -183 -218 -183c-66 0 -108 36 -108 89c0 89 113 183 218 183z" fill="currentColor"/>
</g>
</a>
<g transform="translate(45.6682, 46.0123)">
<rect x="-0.0650" y="-3.3000" width="0.1300" height="3.6639" ry="0.0400" fill="currentColor"/>
</g>
<a style="color:inherit;" xlink:href="textedit:///Users/marc.mouries/projects/Sheet-Music/Folk_Russia/Polyushko-pole/Polyushko-Pole_music.ily:33:8:9">
<g transform="translate(49.3065, 47.6623)">
<path transform="scale(0.0040, -0.0040)" d="M218 136c66 0 108 -36 108 -89c0 -89 -113 -183 -218 -183c-66 0 -108 36 -108 89c0 89 113 183 218 183z" fill="currentColor"/>
</g>
</a>
<g transform="translate(50.5457, 46.0123)">
<rect x="-0.0650" y="-2.2000" width="0.1300" height="3.6639" ry="0.0400" fill="currentColor"/>
</g>
<g transform="translate(47.8565, 47.6623)">
<path transform="scale(0.0040, -0.0040)" d="M0 119c0 8 5 15 13 18l46 17v158c0 10 8 19 18 19s19 -9 19 -19v-145l83 31v158c0 10 9 19 19 19s18 -9 18 -19v-145l32 12c2 1 5 1 7 1c11 0 20 -9 20 -20v-60c0 -8 -5 -16 -13 -19l-46 -16v-160l32 11c2 1 5 1 7 1c11 0 20 -9 20 -20v-60c0 -8 -5 -15 -13 -18l-46 -17
v-158c0 -10 -8 -19 -18 -19s-19 9 -19 19v145l-83 -31v-158c0 -10 -9 -19 -19 -19s-18 9 -18 19v145l-32 -12c-2 -1 -5 -1 -7 -1c-11 0 -20 9 -20 20v60c0 8 5 16 13 19l46 16v160l-32 -11c-2 -1 -5 -1 -7 -1c-11 0 -20 9 -20 20v60zM179 95l-83 -30v-160l83 30v160z" fill="currentColor"/>
</g>
<a style="color:inherit;" xlink:href="textedit:///Users/marc.mouries/projects/Sheet-Music/Folk_Russia/Polyushko-pole/Polyushko-Pole_music.ily:33:11:12">
<g transform="translate(53.9341, 48.7623)">
<path transform="scale(0.0040, -0.0040)" d="M218 136c66 0 108 -36 108 -89c0 -89 -113 -183 -218 -183c-66 0 -108 36 -108 89c0 89 113 183 218 183z" fill="currentColor"/>
</g>
</a>
<g transform="translate(55.1733, 46.0123)">
<rect x="-0.0650" y="-1.1000" width="0.1300" height="3.6639" ry="0.0400" fill="currentColor"/>
</g>
<a style="color:inherit;" xlink:href="textedit:///Users/marc.mouries/projects/Sheet-Music/Folk_Russia/Polyushko-pole/Polyushko-Pole_music.ily:21:12:13">
<g transform="translate(60.3359, 42.3949)">
<text font-family="sans-serif" font-size="2.6163" text-anchor="start" fill="currentColor">
<tspan>E</tspan>
</text>
</g>
<g transform="translate(62.1967, 42.0949)">
<path transform="scale(0.0042, -0.0042)" d="M27 41l-1 -66v-11c0 -22 1 -44 4 -66c45 38 93 80 93 139c0 33 -14 67 -43 67c-31 0 -52 -30 -53 -63zM-15 -138l-12 595c8 5 18 8 27 8s19 -3 27 -8l-7 -345c25 21 58 34 91 34c52 0 89 -48 89 -102c0 -80 -86 -117 -147 -169c-15 -13 -24 -38 -45 -38
c-13 0 -23 11 -23 25z" fill="currentColor"/>
</g>
</a>
<a style="color:inherit;" xlink:href="textedit:///Users/marc.mouries/projects/Sheet-Music/Folk_Russia/Polyushko-pole/Polyushko-Pole_music.ily:34:2:3">
<g transform="translate(60.3359, 47.1123)">
<path transform="scale(0.0040, -0.0040)" d="M218 136c66 0 108 -36 108 -89c0 -89 -113 -183 -218 -183c-66 0 -108 36 -108 89c0 89 113 183 218 183z" fill="currentColor"/>
</g>
</a>
<g transform="translate(61.5751, 46.0123)">
<rect x="-0.0650" y="-2.7500" width="0.1300" height="3.6639" ry="0.0400" fill="currentColor"/>
</g>
<a style="color:inherit;" xlink:href="textedit:///Users/marc.mouries/projects/Sheet-Music/Folk_Russia/Polyushko-pole/Polyushko-Pole_music.ily:34:5:6">
<g transform="translate(65.2135, 47.6623)">
<path transform="scale(0.0040, -0.0040)" d="M218 136c66 0 108 -36 108 -89c0 -89 -113 -183 -218 -183c-66 0 -108 36 -108 89c0 89 113 183 218 183z" fill="currentColor"/>
</g>
</a>
<g transform="translate(66.4527, 46.0123)">
<rect x="-0.0650" y="-1.3097" width="0.1300" height="2.7736" ry="0.0400" fill="currentColor"/>
</g>
<a style="color:inherit;" xlink:href="textedit:///Users/marc.mouries/projects/Sheet-Music/Folk_Russia/Polyushko-pole/Polyushko-Pole_music.ily:34:8:9">
<g transform="translate(68.3044, 48.2123)">
<path transform="scale(0.0040, -0.0040)" d="M218 136c66 0 108 -36 108 -89c0 -89 -113 -183 -218 -183c-66 0 -108 36 -108 89c0 89 113 183 218 183z" fill="currentColor"/>
</g>
</a>
<g transform="translate(69.5436, 46.0123)">
<rect x="-0.0650" y="-1.1043" width="0.1300" height="3.1182" ry="0.0400" fill="currentColor"/>
</g>
<g transform="translate(104.3886, 43.8123)">
<polygon stroke-linejoin="round" stroke-linecap="round" stroke-width="0.0800" fill="currentColor" stroke="currentColor" points="8.1326 -1.1100 8.1326 -0.6620 0.0400 0.2240 0.0400 -0.2240"/>
</g>
<g transform="translate(104.3886, 44.6983)">
<polygon stroke-linejoin="round" stroke-linecap="round" stroke-width="0.0800" fill="currentColor" stroke="currentColor" points="8.1326 -1.1100 8.1326 -0.6620 0.0400 0.2240 0.0400 -0.2240"/>
</g>
<a style="color:inherit;" xlink:href="textedit:///Users/marc.mouries/projects/Sheet-Music/Folk_Russia/Polyushko-pole/Polyushko-Pole_music.ily:34:11:12">
<g transform="translate(71.3953, 48.7623)">
<path transform="scale(0.0040, -0.0040)" d="M218 136c66 0 108 -36 108 -89c0 -89 -113 -183 -218 -183c-66 0 -108 36 -108 89c0 89 113 183 218 183z" fill="currentColor"/>
</g>
</a>
<g transform="translate(72.6345, 46.0123)">
<rect x="-0.0650" y="-0.2097" width="0.1300" height="2.7736" ry="0.0400" fill="currentColor"/>
</g>
<a style="color:inherit;" xlink:href="textedit:///Users/marc.mouries/projects/Sheet-Music/Folk_Russia/Polyushko-pole/Polyushko-Pole_music.ily:34:13:14">
<g transform="translate(74.4861, 49.3123)">
<path transform="scale(0.0040, -0.0040)" d="M218 136c66 0 108 -36 108 -89c0 -89 -113 -183 -218 -183c-66 0 -108 36 -108 89c0 89 113 183 218 183z" fill="currentColor"/>
</g>
</a>
<g transform="translate(75.7253, 46.0123)">
<rect x="-0.0650" y="-0.0043" width="0.1300" height="3.1182" ry="0.0400" fill="currentColor"/>
</g>
<a style="color:inherit;" xlink:href="textedit:///Users/marc.mouries/projects/Sheet-Music/Folk_Russia/Polyushko-pole/Polyushko-Pole_music.ily:34:15:16">
<g transform="translate(77.5770, 48.7623)">
<path transform="scale(0.0040, -0.0040)" d="M218 136c66 0 108 -36 108 -89c0 -89 -113 -183 -218 -183c-66 0 -108 36 -108 89c0 89 113 183 218 183z" fill="currentColor"/>
</g>
</a>
<g transform="translate(78.8162, 46.0123)">
<rect x="-0.0650" y="-0.8903" width="0.1300" height="3.4542" ry="0.0400" fill="currentColor"/>
</g>
<a style="color:inherit;" xlink:href="textedit:///Users/marc.mouries/projects/Sheet-Music/Folk_Russia/Polyushko-pole/Polyushko-Pole_music.ily:34:17:18">
<g transform="translate(80.6679, 48.2123)">
<path transform="scale(0.0040, -0.0040)" d="M218 136c66 0 108 -36 108 -89c0 -89 -113 -183 -218 -183c-66 0 -108 36 -108 89c0 89 113 183 218 183z" fill="currentColor"/>
</g>
</a>
<g transform="translate(81.9071, 46.0123)">
<rect x="-0.0650" y="-1.0957" width="0.1300" height="3.1096" ry="0.0400" fill="currentColor"/>
</g>
<a style="color:inherit;" xlink:href="textedit:///Users/marc.mouries/projects/Sheet-Music/Folk_Russia/Polyushko-pole/Polyushko-Pole_music.ily:21:19:20">
<g transform="translate(85.3067, 42.3949)">
<text font-family="sans-serif" font-size="2.6163" text-anchor="start" fill="currentColor">
<tspan>D</tspan>
</text>
</g>
</a>
<a style="color:inherit;" xlink:href="textedit:///Users/marc.mouries/projects/Sheet-Music/Folk_Russia/Polyushko-pole/Polyushko-Pole_music.ily:35:2:3">
<g transform="translate(85.3067, 48.7623)">
<path transform="scale(0.0040, -0.0040)" d="M314 65c0 23 -19 41 -42 41c-39 0 -204 -110 -231 -143c-7 -8 -10 -18 -10 -28c0 -23 19 -41 42 -41c39 0 203 110 230 143c7 8 11 18 11 28zM262 136c41 0 82 -14 82 -71c0 -26 -16 -112 -74 -151c-25 -17 -87 -50 -187 -50c-41 0 -83 14 -83 71c0 26 16 112 74 151
c25 17 88 50 188 50z" fill="currentColor"/>
</g>
</a>
<g transform="translate(86.6191, 46.0123)">
<rect x="-0.0650" y="-1.1000" width="0.1300" height="3.5910" ry="0.0400" fill="currentColor"/>
</g>
<g transform="translate(112.4962, 46.0123)">
<rect x="-0.0650" y="-3.0790" width="0.1300" height="3.4428" ry="0.0400" fill="currentColor"/>
</g>
<a style="color:inherit;" xlink:href="textedit:///Users/marc.mouries/projects/Sheet-Music/Folk_Russia/Polyushko-pole/Polyushko-Pole_music.ily:35:5:6">
<g transform="translate(92.0441, 46.0123)">
<path transform="scale(0.0040, -0.0040)" d="M125 205c79 0 45 -98 90 -98c15 0 50 49 57 63c6 12 23 12 28 0l-179 -670c-8 -7 -17 -10 -27 -10s-20 3 -28 10l101 327c-34 -12 -70 -23 -106 -23c-47 0 -87 34 -87 79c0 40 32 72 72 72c79 0 46 -98 91 -98c16 0 55 51 60 68l46 151c-34 -12 -68 -22 -104 -22
c-47 0 -87 34 -87 79c0 40 33 72 73 72z" fill="currentColor"/>
</g>
</a>
<a style="color:inherit;" xlink:href="textedit:///Users/marc.mouries/projects/Sheet-Music/Folk_Russia/Polyushko-pole/Polyushko-Pole_music.ily:35:23:24">
<g transform="translate(111.2570, 46.5623)">
<path transform="scale(0.0040, -0.0040)" d="M218 136c66 0 108 -36 108 -89c0 -89 -113 -183 -218 -183c-66 0 -108 36 -108 89c0 89 113 183 218 183z" fill="currentColor"/>
</g>
</a>
<a style="color:inherit;" xlink:href="textedit:///Users/marc.mouries/projects/Sheet-Music/Folk_Russia/Polyushko-pole/Polyushko-Pole_music.ily:35:9:10">
<g transform="translate(94.1374, 48.7623)">
<path transform="scale(0.0040, -0.0040)" d="M218 136c66 0 108 -36 108 -89c0 -89 -113 -183 -218 -183c-66 0 -108 36 -108 89c0 89 113 183 218 183z" fill="currentColor"/>
</g>
</a>
<g transform="translate(95.3766, 46.0123)">
<rect x="-0.0650" y="-0.8860" width="0.1300" height="3.4499" ry="0.0400" fill="currentColor"/>
</g>
<a style="color:inherit;" xlink:href="textedit:///Users/marc.mouries/projects/Sheet-Music/Folk_Russia/Polyushko-pole/Polyushko-Pole_music.ily:35:11:12">
<g transform="translate(97.7850, 49.3123)">
<path transform="scale(0.0040, -0.0040)" d="M218 136c66 0 108 -36 108 -89c0 -89 -113 -183 -218 -183c-66 0 -108 36 -108 89c0 89 113 183 218 183z" fill="currentColor"/>
</g>
</a>
<g transform="translate(99.0242, 46.0123)">
<rect x="-0.0650" y="-0.8860" width="0.1300" height="3.9999" ry="0.0400" fill="currentColor"/>
</g>
<g transform="translate(96.3350, 49.3123)">
<path transform="scale(0.0040, -0.0040)" d="M0 119c0 8 5 15 13 18l46 17v158c0 10 8 19 18 19s19 -9 19 -19v-145l83 31v158c0 10 9 19 19 19s18 -9 18 -19v-145l32 12c2 1 5 1 7 1c11 0 20 -9 20 -20v-60c0 -8 -5 -16 -13 -19l-46 -16v-160l32 11c2 1 5 1 7 1c11 0 20 -9 20 -20v-60c0 -8 -5 -15 -13 -18l-46 -17
v-158c0 -10 -8 -19 -18 -19s-19 9 -19 19v145l-83 -31v-158c0 -10 -9 -19 -19 -19s-18 9 -18 19v145l-32 -12c-2 -1 -5 -1 -7 -1c-11 0 -20 9 -20 20v60c0 8 5 16 13 19l46 16v160l-32 -11c-2 -1 -5 -1 -7 -1c-11 0 -20 9 -20 20v60zM179 95l-83 -30v-160l83 30v160z" fill="currentColor"/>
</g>
<a style="color:inherit;" xlink:href="textedit:///Users/marc.mouries/projects/Sheet-Music/Folk_Russia/Polyushko-pole/Polyushko-Pole_music.ily:35:14:15">
<g transform="translate(99.9825, 48.7623)">
<path transform="scale(0.0040, -0.0040)" d="M218 136c66 0 108 -36 108 -89c0 -89 -113 -183 -218 -183c-66 0 -108 36 -108 89c0 89 113 183 218 183z" fill="currentColor"/>
</g>
</a>
<g transform="translate(101.2217, 46.0123)">
<rect x="-0.0650" y="-0.8860" width="0.1300" height="3.4499" ry="0.0400" fill="currentColor"/>
</g>
<a style="color:inherit;" xlink:href="textedit:///Users/marc.mouries/projects/Sheet-Music/Folk_Russia/Polyushko-pole/Polyushko-Pole_music.ily:35:16:17">
<g transform="translate(103.2143, 48.2123)">
<path transform="scale(0.0040, -0.0040)" d="M218 136c66 0 108 -36 108 -89c0 -89 -113 -183 -218 -183c-66 0 -108 36 -108 89c0 89 113 183 218 183z" fill="currentColor"/>
</g>
</a>
<g transform="translate(104.4536, 46.0123)">
<rect x="-0.0650" y="-2.2070" width="0.1300" height="4.2209" ry="0.0400" fill="currentColor"/>
</g>
<g transform="translate(102.1801, 48.2123)">
<path transform="scale(0.0040, -0.0040)" d="M-7 375c8 4 17 7 25 7s16 -3 24 -7l-2 -183l106 20h3c10 0 18 -7 18 -17l7 -570c-8 -4 -17 -7 -25 -7s-16 3 -24 7l2 183l-106 -20h-3c-10 0 -18 7 -18 17zM131 112l-92 -17l-3 -207l92 17z" fill="currentColor"/>
</g>
<a style="color:inherit;" xlink:href="textedit:///Users/marc.mouries/projects/Sheet-Music/Folk_Russia/Polyushko-pole/Polyushko-Pole_music.ily:35:18:19">
<g transform="translate(106.8619, 47.6623)">
<path transform="scale(0.0040, -0.0040)" d="M218 136c66 0 108 -36 108 -89c0 -89 -113 -183 -218 -183c-66 0 -108 36 -108 89c0 89 113 183 218 183z" fill="currentColor"/>
</g>
</a>
<g transform="translate(108.1011, 46.0123)">
<rect x="-0.0650" y="-2.6025" width="0.1300" height="4.0664" ry="0.0400" fill="currentColor"/>
</g>
<g transform="translate(105.4119, 47.6623)">
<path transform="scale(0.0040, -0.0040)" d="M0 119c0 8 5 15 13 18l46 17v158c0 10 8 19 18 19s19 -9 19 -19v-145l83 31v158c0 10 9 19 19 19s18 -9 18 -19v-145l32 12c2 1 5 1 7 1c11 0 20 -9 20 -20v-60c0 -8 -5 -16 -13 -19l-46 -16v-160l32 11c2 1 5 1 7 1c11 0 20 -9 20 -20v-60c0 -8 -5 -15 -13 -18l-46 -17
v-158c0 -10 -8 -19 -18 -19s-19 9 -19 19v145l-83 -31v-158c0 -10 -9 -19 -19 -19s-18 9 -18 19v145l-32 -12c-2 -1 -5 -1 -7 -1c-11 0 -20 9 -20 20v60c0 8 5 16 13 19l46 16v160l-32 -11c-2 -1 -5 -1 -7 -1c-11 0 -20 9 -20 20v60zM179 95l-83 -30v-160l83 30v160z" fill="currentColor"/>
</g>
<g transform="translate(110.2987, 46.0123)">
<rect x="-0.0650" y="-2.8407" width="0.1300" height="3.7546" ry="0.0400" fill="currentColor"/>
</g>
<a style="color:inherit;" xlink:href="textedit:///Users/marc.mouries/projects/Sheet-Music/Folk_Russia/Polyushko-pole/Polyushko-Pole_music.ily:35:21:22">
<g transform="translate(109.0594, 47.1123)">
<path transform="scale(0.0040, -0.0040)" d="M218 136c66 0 108 -36 108 -89c0 -89 -113 -183 -218 -183c-66 0 -108 36 -108 89c0 89 113 183 218 183z" fill="currentColor"/>
</g>
</a>
</svg>
