<svg xmlns="http://www.w3.org/2000/svg" xmlns:xlink="http://www.w3.org/1999/xlink" version="1.2" width="210.00mm" height="297.00mm" viewBox="0.0000 -0.0000 119.5016 169.0094">
<style type="text/css">
<![CDATA[
tspan { white-space: pre; }
]]>
</style>
<g transform="translate(33.5287, 6.9166)">
<text font-family="Optima" font-weight="bold" font-size="4.4002" text-anchor="start" fill="currentColor">
<tspan>C</tspan>
</text>
</g>
<g transform="translate(36.4651, 6.9166)">
<text font-family="Optima" font-weight="bold" font-size="3.4921" text-anchor="start" fill="currentColor">
<tspan>AN</tspan>
</text>
</g>
<g transform="translate(41.5183, 6.9166)">
<text font-family="Optima" font-weight="bold" font-size="4.4002" text-anchor="start" fill="currentColor">
<tspan> </tspan>
</text>
</g>
<g transform="translate(42.7474, 6.9166)">
<text font-family="Optima" font-weight="bold" font-size="3.4921" text-anchor="start" fill="currentColor">
<tspan>SHE</tspan>
</text>
</g>
<g transform="translate(48.9615, 6.9166)">
<text font-family="Optima" font-weight="bold" font-size="4.4002" text-anchor="start" fill="currentColor">
<tspan> </tspan>
</text>
</g>
<g transform="translate(50.1907, 6.9166)">
<text font-family="Optima" font-weight="bold" font-size="3.4921" text-anchor="start" fill="currentColor">
<tspan>EXCUSE</tspan>
</text>
</g>
<g transform="translate(62.5847, 6.9166)">
<text font-family="Optima" font-weight="bold" font-size="4.4002" text-anchor="start" fill="currentColor">
<tspan> </tspan>
</text>
</g>
<g transform="translate(63.8138, 6.9166)">
<text font-family="Optima" font-weight="bold" font-size="3.4921" text-anchor="start" fill="currentColor">
<tspan>MY</tspan>
</text>
</g>
<g transform="translate(69.0378, 6.9166)">
<text font-family="Optima" font-weight="bold" font-size="4.4002" text-anchor="start" fill="currentColor">
<tspan> </tspan>
</text>
</g>
<g transform="translate(70.2669, 6.9166)">
<text font-family="Optima" font-weight="bold" font-size="3.4921" text-anchor="start" fill="currentColor">
<tspan>WRONGS</tspan>
</text>
</g>
<g transform="translate(89.9107, 6.9166)">
<text font-family="Optima" font-size="1.9600" text-anchor="start" fill="currentColor">
<tspan>John Dowland (1563--1626)</tspan>
</text>
</g>
<g transform="translate(113.6210, 25.5614)">
<rect x="0.0000" y="-2.2000" width="0.1900" height="4.4000" ry="0.0000" fill="currentColor"/>
</g>
<g transform="translate(11.3811, 27.7614)">
<line stroke-linejoin="round" stroke-linecap="round" stroke-width="0.1000" stroke="currentColor" x1="0.0500" y1="0" x2="102.3799" y2="0"/>
</g>
<g transform="translate(11.3811, 26.6614)">
<line stroke-linejoin="round" stroke-linecap="round" stroke-width="0.1000" stroke="currentColor" x1="0.0500" y1="0" x2="102.3799" y2="0"/>
</g>
<g transform="translate(11.3811, 25.5614)">
<line stroke-linejoin="round" stroke-linecap="round" stroke-width="0.1000" stroke="currentColor" x1="0.0500" y1="0" x2="102.3799" y2="0"/>
</g>
<g transform="translate(11.3811, 24.4614)">
<line stroke-linejoin="round" stroke-linecap="round" stroke-width="0.1000" stroke="currentColor" x1="0.0500" y1="0" x2="102.3799" y2="0"/>
</g>
<g transform="translate(11.3811, 23.3614)">
<line stroke-linejoin="round" stroke-linecap="round" stroke-width="0.1000" stroke="currentColor" x1="0.0500" y1="0" x2="102.3799" y2="0"/>
</g>
<g transform="translate(97.6117, 25.5614)">
<rect x="0.0000" y="-2.2000" width="0.1900" height="4.4000" ry="0.0000" fill="currentColor"/>
</g>
<g transform="translate(70.9962, 25.5614)">
<rect x="0.0000" y="-2.2000" width="0.1900" height="4.4000" ry="0.0000" fill="currentColor"/>
</g>
<g transform="translate(45.5850, 25.5614)">
<rect x="0.0000" y="-2.2000" width="0.1900" height="4.4000" ry="0.0000" fill="currentColor"/>
</g>
<a style="color:inherit;" xlink:href="textedit:///Users/marc.mouries/projects/violin-music.github.io/Classical/Dowland_Can-She-Excuse-My-Wrongs/Can-she-excuse-my-wrongs_%28John-Dowland%29.ly:36:40:41">
<g transform="translate(85.1332, 31.0614)">
<rect x="0.0000" y="-0.5500" width="0.6600" height="0.1300" ry="0.0400" fill="currentColor"/>
</g>
</a>
<a style="color:inherit;" xlink:href="textedit:///Users/marc.mouries/projects/violin-music.github.io/Classical/Dowland_Can-She-Excuse-My-Wrongs/Can-she-excuse-my-wrongs_%28John-Dowland%29.ly:22:2:3">
<g transform="translate(19.8493, 22.7769)">
<text font-family="sans-serif" font-size="2.6163" text-anchor="start" fill="currentColor">
<tspan>C</tspan>
</text>
</g>
</a>
<a style="color:inherit;" xlink:href="textedit:///Users/marc.mouries/projects/violin-music.github.io/Classical/Dowland_Can-She-Excuse-My-Wrongs/Can-she-excuse-my-wrongs_%28John-Dowland%29.ly:29:2:3">
<g transform="translate(19.8493, 28.3114)">
<path transform="scale(0.0040, -0.0040)" d="M314 65c0 23 -19 41 -42 41c-39 0 -204 -110 -231 -143c-7 -8 -10 -18 -10 -28c0 -23 19 -41 42 -41c39 0 203 110 230 143c7 8 11 18 11 28zM262 136c41 0 82 -14 82 -71c0 -26 -16 -112 -74 -151c-25 -17 -87 -50 -187 -50c-41 0 -83 14 -83 71c0 26 16 112 74 151
c25 17 88 50 188 50z" fill="currentColor"/>
</g>
</a>
<g transform="translate(12.1811, 26.6614)">
<path transform="scale(0.0040, -0.0040)" d="M266 -635h-6c-108 0 -195 88 -195 197c0 58 53 103 112 103c54 0 95 -47 95 -103c0 -52 -43 -95 -95 -95c-11 0 -21 2 -31 6c26 -39 68 -65 117 -65h4zM461 -203c68 24 113 90 113 164c0 90 -66 179 -173 190c19 -89 48 -242 60 -354zM74 28c0 -145 141 -247 264 -247
c1 0 47 0 82 6c-7 64 -29 203 -63 364c-79 -8 -124 -61 -124 -119c0 -44 25 -91 81 -123c5 -5 7 -10 7 -15c0 -11 -10 -22 -22 -22c-15 0 -126 62 -126 187c0 88 58 174 160 197c-14 58 -29 117 -46 175c-107 -121 -213 -243 -213 -403zM250 553c-29 96 -52 170 -52 346
c0 115 55 224 149 292c6 5 14 5 20 0c68 -80 133 -245 133 -358c0 -143 -86 -255 -180 -364c21 -68 39 -138 56 -207c2 0 7 1 13 1c155 0 256 -128 256 -261c0 -113 -74 -212 -180 -246c3 -35 5 -70 5 -105c0 -19 -1 -39 -2 -58c-7 -119 -88 -225 -202 -228l1 43
c93 2 153 92 159 191c1 18 2 37 2 55c0 31 -1 61 -4 92c-5 -1 -44 -8 -89 -8c-193 0 -333 180 -333 374c0 177 131 306 248 441zM428 916c0 34 1 66 -20 129c-99 -48 -162 -149 -162 -259c0 -52 12 -115 36 -194c80 97 146 198 146 324z" fill="currentColor"/>
</g>
<a style="color:inherit;" xlink:href="textedit:///Users/marc.mouries/projects/violin-music.github.io/Classical/Dowland_Can-She-Excuse-My-Wrongs/Can-she-excuse-my-wrongs_%28John-Dowland%29.ly:16:2:3">
</a>
<a style="color:inherit;" xlink:href="textedit:///Users/marc.mouries/projects/violin-music.github.io/Classical/Dowland_Can-She-Excuse-My-Wrongs/Can-she-excuse-my-wrongs_%28John-Dowland%29.ly:15:2:3">
<g transform="translate(16.4494, 25.5614)">
<path transform="scale(0.0040, -0.0040)" d="M263 265c0 -33 70 -23 70 -125c0 -92 -79 -140 -179 -140c-79 0 -154 42 -154 113c0 36 30 66 66 66s65 -30 65 -66c0 -25 -40 -28 -40 -53c0 -27 32 -37 63 -37c49 0 63 61 63 117v16c0 54 -2 94 -50 94h-80c-10 0 -14 8 -14 15s4 14 14 14h80c49 0 50 43 50 99v8
c0 54 -18 91 -67 91c-28 0 -57 -9 -57 -33c0 -22 35 -25 35 -47c0 -32 -25 -58 -57 -58s-58 26 -58 58c0 64 67 103 137 103c91 0 169 -33 169 -114c0 -122 -56 -80 -56 -121z" fill="currentColor"/>
</g>
<g transform="translate(16.3811, 27.5614)">
<path transform="scale(0.0040, -0.0040)" d="M229 0c-88 0 -90 66 -144 66c-30 0 -59 -20 -62 -55c-1 -7 -6 -11 -11 -11c-6 0 -12 4 -12 11c0 154 232 170 232 344c0 59 -16 122 -67 122c-25 0 -49 -14 -49 -37c0 -27 35 -41 35 -68c0 -38 -31 -69 -69 -69s-69 31 -69 69c0 76 72 128 152 128c95 0 183 -57 183 -145
c0 -151 -150 -159 -246 -220c9 2 18 3 27 3c83 0 111 -59 171 -59c48 0 38 38 55 38c6 0 12 -5 12 -12c0 -22 -44 -105 -138 -105z" fill="currentColor"/>
</g>
</a>
<a style="color:inherit;" xlink:href="textedit:///Users/marc.mouries/projects/violin-music.github.io/Classical/Dowland_Can-She-Excuse-My-Wrongs/Can-she-excuse-my-wrongs_%28John-Dowland%29.ly:36:2:3">
<g transform="translate(19.0356, 31.0614)">
<text font-family="Optima" font-size="1.7461" text-anchor="start" fill="currentColor">
<tspan>Can</tspan>
</text>
</g>
</a>
<a style="color:inherit;" xlink:href="textedit:///Users/marc.mouries/projects/violin-music.github.io/Classical/Dowland_Can-She-Excuse-My-Wrongs/Can-she-excuse-my-wrongs_%28John-Dowland%29.ly:17:2:3">
<g transform="translate(16.3811, 19.8657)">
<rect x="1.0449" y="-2.6727" width="0.1158" height="2.5129" ry="0.0193" fill="currentColor"/>
</g>
<g transform="translate(16.3811, 19.8657)">
<path transform="scale(0.0036, -0.0036)" d="M215 137c67 0 111 -37 111 -92c0 -90 -111 -182 -215 -182c-67 0 -111 37 -111 92c0 90 111 182 215 182z" fill="currentColor"/>
</g>
<g transform="translate(17.5418, 20.3544)">
<text font-family="serif" font-size="2.2001" text-anchor="start" fill="currentColor">
<tspan> = 100</tspan>
</text>
</g>
</a>
<g transform="translate(21.1616, 25.5614)">
<rect x="-0.0650" y="-1.1000" width="0.1300" height="3.5910" ry="0.0400" fill="currentColor"/>
</g>
<a style="color:inherit;" xlink:href="textedit:///Users/marc.mouries/projects/violin-music.github.io/Classical/Dowland_Can-She-Excuse-My-Wrongs/Can-she-excuse-my-wrongs_%28John-Dowland%29.ly:29:6:7">
<g transform="translate(28.3256, 26.1114)">
<path transform="scale(0.0040, -0.0040)" d="M314 65c0 23 -19 41 -42 41c-39 0 -204 -110 -231 -143c-7 -8 -10 -18 -10 -28c0 -23 19 -41 42 -41c39 0 203 110 230 143c7 8 11 18 11 28zM262 136c41 0 82 -14 82 -71c0 -26 -16 -112 -74 -151c-25 -17 -87 -50 -187 -50c-41 0 -83 14 -83 71c0 26 16 112 74 151
c25 17 88 50 188 50z" fill="currentColor"/>
</g>
</a>
<a style="color:inherit;" xlink:href="textedit:///Users/marc.mouries/projects/violin-music.github.io/Classical/Dowland_Can-She-Excuse-My-Wrongs/Can-she-excuse-my-wrongs_%28John-Dowland%29.ly:36:6:7">
<g transform="translate(27.7509, 31.0614)">
<text font-family="Optima" font-size="1.7461" text-anchor="start" fill="currentColor">
<tspan>she</tspan>
</text>
</g>
</a>
<g transform="translate(29.6379, 25.5614)">
<rect x="-0.0650" y="-3.3000" width="0.1300" height="3.5910" ry="0.0400" fill="currentColor"/>
</g>
<a style="color:inherit;" xlink:href="textedit:///Users/marc.mouries/projects/violin-music.github.io/Classical/Dowland_Can-She-Excuse-My-Wrongs/Can-she-excuse-my-wrongs_%28John-Dowland%29.ly:29:9:10">
<g transform="translate(37.5561, 24.4614)">
<path transform="scale(0.0040, -0.0040)" d="M314 65c0 23 -19 41 -42 41c-39 0 -204 -110 -231 -143c-7 -8 -10 -18 -10 -28c0 -23 19 -41 42 -41c39 0 203 110 230 143c7 8 11 18 11 28zM262 136c41 0 82 -14 82 -71c0 -26 -16 -112 -74 -151c-25 -17 -87 -50 -187 -50c-41 0 -83 14 -83 71c0 26 16 112 74 151
c25 17 88 50 188 50z" fill="currentColor"/>
</g>
</a>
<a style="color:inherit;" xlink:href="textedit:///Users/marc.mouries/projects/violin-music.github.io/Classical/Dowland_Can-She-Excuse-My-Wrongs/Can-she-excuse-my-wrongs_%28John-Dowland%29.ly:36:10:11">
<g transform="translate(37.3571, 31.0614)">
<text font-family="Optima" font-size="1.7461" text-anchor="start" fill="currentColor">
<tspan>ex</tspan>
</text>
</g>
</a>
<g transform="translate(37.6211, 25.5614)">
<rect x="-0.0650" y="-0.8410" width="0.1300" height="3.5910" ry="0.0400" fill="currentColor"/>
</g>
<a style="color:inherit;" xlink:href="textedit:///Users/marc.mouries/projects/violin-music.github.io/Classical/Dowland_Can-She-Excuse-My-Wrongs/Can-she-excuse-my-wrongs_%28John-Dowland%29.ly:36:13:14">
<g transform="translate(42.4367, 31.0614)">
<rect x="0.0000" y="-0.5500" width="0.6600" height="0.1300" ry="0.0400" fill="currentColor"/>
</g>
</a>
<a style="color:inherit;" xlink:href="textedit:///Users/marc.mouries/projects/violin-music.github.io/Classical/Dowland_Can-She-Excuse-My-Wrongs/Can-she-excuse-my-wrongs_%28John-Dowland%29.ly:29:11:12">
<g transform="translate(47.4194, 25.0114)">
<path transform="scale(0.0040, -0.0040)" d="M314 65c0 23 -19 41 -42 41c-39 0 -204 -110 -231 -143c-7 -8 -10 -18 -10 -28c0 -23 19 -41 42 -41c39 0 203 110 230 143c7 8 11 18 11 28zM262 136c41 0 82 -14 82 -71c0 -26 -16 -112 -74 -151c-25 -17 -87 -50 -187 -50c-41 0 -83 14 -83 71c0 26 16 112 74 151
c25 17 88 50 188 50z" fill="currentColor"/>
</g>
</a>
<a style="color:inherit;" xlink:href="textedit:///Users/marc.mouries/projects/violin-music.github.io/Classical/Dowland_Can-She-Excuse-My-Wrongs/Can-she-excuse-my-wrongs_%28John-Dowland%29.ly:36:16:17">
<g transform="translate(46.4009, 31.0614)">
<text font-family="Optima" font-size="1.7461" text-anchor="start" fill="currentColor">
<tspan>cuse</tspan>
</text>
</g>
</a>
<g transform="translate(49.2467, 25.0114)">
<path transform="scale(0.0040, -0.0040)" d="M0 0c0 31 25 56 56 56s56 -25 56 -56s-25 -56 -56 -56s-56 25 -56 56z" fill="currentColor"/>
</g>
<g transform="translate(47.4844, 25.5614)">
<rect x="-0.0650" y="-0.2910" width="0.1300" height="3.5910" ry="0.0400" fill="currentColor"/>
</g>
<a style="color:inherit;" xlink:href="textedit:///Users/marc.mouries/projects/violin-music.github.io/Classical/Dowland_Can-She-Excuse-My-Wrongs/Can-she-excuse-my-wrongs_%28John-Dowland%29.ly:29:15:16">
<g transform="translate(57.3046, 25.5614)">
<path transform="scale(0.0040, -0.0040)" d="M218 136c66 0 108 -36 108 -89c0 -89 -113 -183 -218 -183c-66 0 -108 36 -108 89c0 89 113 183 218 183z" fill="currentColor"/>
</g>
</a>
<a style="color:inherit;" xlink:href="textedit:///Users/marc.mouries/projects/violin-music.github.io/Classical/Dowland_Can-She-Excuse-My-Wrongs/Can-she-excuse-my-wrongs_%28John-Dowland%29.ly:36:21:22">
<g transform="translate(56.8129, 31.0614)">
<text font-family="Optima" font-size="1.7461" text-anchor="start" fill="currentColor">
<tspan>my</tspan>
</text>
</g>
</a>
<g transform="translate(57.3696, 25.5614)">
<rect x="-0.0650" y="0.1861" width="0.1300" height="3.4806" ry="0.0400" fill="currentColor"/>
</g>
<a style="color:inherit;" xlink:href="textedit:///Users/marc.mouries/projects/violin-music.github.io/Classical/Dowland_Can-She-Excuse-My-Wrongs/Can-she-excuse-my-wrongs_%28John-Dowland%29.ly:29:18:19">
<g transform="translate(62.6081, 26.1114)">
<path transform="scale(0.0040, -0.0040)" d="M314 65c0 23 -19 41 -42 41c-39 0 -204 -110 -231 -143c-7 -8 -10 -18 -10 -28c0 -23 19 -41 42 -41c39 0 203 110 230 143c7 8 11 18 11 28zM262 136c41 0 82 -14 82 -71c0 -26 -16 -112 -74 -151c-25 -17 -87 -50 -187 -50c-41 0 -83 14 -83 71c0 26 16 112 74 151
c25 17 88 50 188 50z" fill="currentColor"/>
</g>
</a>
<a style="color:inherit;" xlink:href="textedit:///Users/marc.mouries/projects/violin-music.github.io/Classical/Dowland_Can-She-Excuse-My-Wrongs/Can-she-excuse-my-wrongs_%28John-Dowland%29.ly:36:24:25">
<g transform="translate(60.5824, 31.0614)">
<text font-family="Optima" font-size="1.7461" text-anchor="start" fill="currentColor">
<tspan>wrongs</tspan>
</text>
</g>
</a>
<g transform="translate(63.9205, 25.5614)">
<rect x="-0.0650" y="-3.3000" width="0.1300" height="3.5910" ry="0.0400" fill="currentColor"/>
</g>
<a style="color:inherit;" xlink:href="textedit:///Users/marc.mouries/projects/violin-music.github.io/Classical/Dowland_Can-She-Excuse-My-Wrongs/Can-she-excuse-my-wrongs_%28John-Dowland%29.ly:29:21:22">
<g transform="translate(72.6997, 26.1114)">
<path transform="scale(0.0040, -0.0040)" d="M314 65c0 23 -19 41 -42 41c-39 0 -204 -110 -231 -143c-7 -8 -10 -18 -10 -28c0 -23 19 -41 42 -41c39 0 203 110 230 143c7 8 11 18 11 28zM262 136c41 0 82 -14 82 -71c0 -26 -16 -112 -74 -151c-25 -17 -87 -50 -187 -50c-41 0 -83 14 -83 71c0 26 16 112 74 151
c25 17 88 50 188 50z" fill="currentColor"/>
</g>
</a>
<a style="color:inherit;" xlink:href="textedit:///Users/marc.mouries/projects/violin-music.github.io/Classical/Dowland_Can-She-Excuse-My-Wrongs/Can-she-excuse-my-wrongs_%28John-Dowland%29.ly:36:31:32">
<g transform="translate(71.7495, 31.0614)">
<text font-family="Optima" font-size="1.7461" text-anchor="start" fill="currentColor">
<tspan>with</tspan>
</text>
</g>
</a>
<g transform="translate(74.0120, 25.5614)">
<rect x="-0.0650" y="-3.3000" width="0.1300" height="3.5910" ry="0.0400" fill="currentColor"/>
</g>
<a style="color:inherit;" xlink:href="textedit:///Users/marc.mouries/projects/violin-music.github.io/Classical/Dowland_Can-She-Excuse-My-Wrongs/Can-she-excuse-my-wrongs_%28John-Dowland%29.ly:29:24:25">
<g transform="translate(80.9260, 26.6614)">
<path transform="scale(0.0040, -0.0040)" d="M314 65c0 23 -19 41 -42 41c-39 0 -204 -110 -231 -143c-7 -8 -10 -18 -10 -28c0 -23 19 -41 42 -41c39 0 203 110 230 143c7 8 11 18 11 28zM262 136c41 0 82 -14 82 -71c0 -26 -16 -112 -74 -151c-25 -17 -87 -50 -187 -50c-41 0 -83 14 -83 71c0 26 16 112 74 151
c25 17 88 50 188 50z" fill="currentColor"/>
</g>
</a>
<a style="color:inherit;" xlink:href="textedit:///Users/marc.mouries/projects/violin-music.github.io/Classical/Dowland_Can-She-Excuse-My-Wrongs/Can-she-excuse-my-wrongs_%28John-Dowland%29.ly:36:36:37">
<g transform="translate(80.6415, 31.0614)">
<text font-family="Optima" font-size="1.7461" text-anchor="start" fill="currentColor">
<tspan>vir</tspan>
</text>
</g>
</a>
<g transform="translate(82.2383, 25.5614)">
<rect x="-0.0650" y="-2.7500" width="0.1300" height="3.5910" ry="0.0400" fill="currentColor"/>
</g>
<a style="color:inherit;" xlink:href="textedit:///Users/marc.mouries/projects/violin-music.github.io/Classical/Dowland_Can-She-Excuse-My-Wrongs/Can-she-excuse-my-wrongs_%28John-Dowland%29.ly:29:27:28">
<g transform="translate(89.1522, 27.2114)">
<path transform="scale(0.0040, -0.0040)" d="M314 65c0 23 -19 41 -42 41c-39 0 -204 -110 -231 -143c-7 -8 -10 -18 -10 -28c0 -23 19 -41 42 -41c39 0 203 110 230 143c7 8 11 18 11 28zM262 136c41 0 82 -14 82 -71c0 -26 -16 -112 -74 -151c-25 -17 -87 -50 -187 -50c-41 0 -83 14 -83 71c0 26 16 112 74 151
c25 17 88 50 188 50z" fill="currentColor"/>
</g>
</a>
<a style="color:inherit;" xlink:href="textedit:///Users/marc.mouries/projects/violin-music.github.io/Classical/Dowland_Can-She-Excuse-My-Wrongs/Can-she-excuse-my-wrongs_%28John-Dowland%29.ly:36:43:44">
<g transform="translate(88.3386, 31.0614)">
<text font-family="Optima" font-size="1.7461" text-anchor="start" fill="currentColor">
<tspan>tues</tspan>
</text>
</g>
</a>
<g transform="translate(90.4646, 25.5614)">
<rect x="-0.0650" y="-2.2000" width="0.1300" height="3.5910" ry="0.0400" fill="currentColor"/>
</g>
<a style="color:inherit;" xlink:href="textedit:///Users/marc.mouries/projects/violin-music.github.io/Classical/Dowland_Can-She-Excuse-My-Wrongs/Can-she-excuse-my-wrongs_%28John-Dowland%29.ly:29:30:31">
<g transform="translate(100.3152, 27.2114)">
<path transform="scale(0.0040, -0.0040)" d="M213 112c-45 0 -69 -34 -69 -88c0 -102 89 -136 134 -136s69 34 69 88c0 102 -89 136 -134 136zM245 136c144 0 246 -65 246 -136s-102 -136 -246 -136s-245 65 -245 136s101 136 245 136z" fill="currentColor"/>
</g>
</a>
<a style="color:inherit;" xlink:href="textedit:///Users/marc.mouries/projects/violin-music.github.io/Classical/Dowland_Can-She-Excuse-My-Wrongs/Can-she-excuse-my-wrongs_%28John-Dowland%29.ly:36:48:49">
<g transform="translate(98.9062, 31.0614)">
<text font-family="Optima" font-size="1.7461" text-anchor="start" fill="currentColor">
<tspan>cloak?</tspan>
</text>
</g>
</a>
<g transform="translate(102.7272, 27.2114)">
<path transform="scale(0.0040, -0.0040)" d="M0 0c0 31 25 56 56 56s56 -25 56 -56s-25 -56 -56 -56s-56 25 -56 56z" fill="currentColor"/>
</g>
<g transform="translate(5.6906, 43.7614)">
<line stroke-linejoin="round" stroke-linecap="round" stroke-width="0.1000" stroke="currentColor" x1="0.0500" y1="0" x2="108.0705" y2="0"/>
</g>
<g transform="translate(5.6906, 42.6614)">
<line stroke-linejoin="round" stroke-linecap="round" stroke-width="0.1000" stroke="currentColor" x1="0.0500" y1="0" x2="108.0705" y2="0"/>
</g>
<g transform="translate(5.6906, 41.5614)">
<line stroke-linejoin="round" stroke-linecap="round" stroke-width="0.1000" stroke="currentColor" x1="0.0500" y1="0" x2="108.0705" y2="0"/>
</g>
<g transform="translate(5.6906, 40.4614)">
<line stroke-linejoin="round" stroke-linecap="round" stroke-width="0.1000" stroke="currentColor" x1="0.0500" y1="0" x2="108.0705" y2="0"/>
</g>
<g transform="translate(5.6906, 39.3614)">
<line stroke-linejoin="round" stroke-linecap="round" stroke-width="0.1000" stroke="currentColor" x1="0.0500" y1="0" x2="108.0705" y2="0"/>
</g>
<g transform="translate(111.9710, 41.0114)">
<path transform="scale(0.0040, -0.0040)" d="M0 0c0 31 25 56 56 56s56 -25 56 -56s-25 -56 -56 -56s-56 25 -56 56z" fill="currentColor"/>
</g>
<g transform="translate(111.9710, 42.1114)">
<path transform="scale(0.0040, -0.0040)" d="M0 0c0 31 25 56 56 56s56 -25 56 -56s-25 -56 -56 -56s-56 25 -56 56z" fill="currentColor"/>
</g>
<g transform="translate(113.2110, 41.5614)">
<rect x="0.0000" y="-2.2000" width="0.6000" height="4.4000" ry="0.0000" fill="currentColor"/>
</g>
<g transform="translate(112.7210, 41.5614)">
<rect x="0.0000" y="-2.2000" width="0.1900" height="4.4000" ry="0.0000" fill="currentColor"/>
</g>
<g transform="translate(94.4383, 41.5614)">
<rect x="0.0000" y="-2.2000" width="0.1900" height="4.4000" ry="0.0000" fill="currentColor"/>
</g>
<g transform="translate(65.4194, 41.5614)">
<rect x="0.0000" y="-2.2000" width="0.1900" height="4.4000" ry="0.0000" fill="currentColor"/>
</g>
<g transform="translate(41.4489, 41.5614)">
<rect x="0.0000" y="-2.2000" width="0.1900" height="4.4000" ry="0.0000" fill="currentColor"/>
</g>
<g transform="translate(6.4906, 42.6614)">
<path transform="scale(0.0040, -0.0040)" d="M266 -635h-6c-108 0 -195 88 -195 197c0 58 53 103 112 103c54 0 95 -47 95 -103c0 -52 -43 -95 -95 -95c-11 0 -21 2 -31 6c26 -39 68 -65 117 -65h4zM461 -203c68 24 113 90 113 164c0 90 -66 179 -173 190c19 -89 48 -242 60 -354zM74 28c0 -145 141 -247 264 -247
c1 0 47 0 82 6c-7 64 -29 203 -63 364c-79 -8 -124 -61 -124 -119c0 -44 25 -91 81 -123c5 -5 7 -10 7 -15c0 -11 -10 -22 -22 -22c-15 0 -126 62 -126 187c0 88 58 174 160 197c-14 58 -29 117 -46 175c-107 -121 -213 -243 -213 -403zM250 553c-29 96 -52 170 -52 346
c0 115 55 224 149 292c6 5 14 5 20 0c68 -80 133 -245 133 -358c0 -143 -86 -255 -180 -364c21 -68 39 -138 56 -207c2 0 7 1 13 1c155 0 256 -128 256 -261c0 -113 -74 -212 -180 -246c3 -35 5 -70 5 -105c0 -19 -1 -39 -2 -58c-7 -119 -88 -225 -202 -228l1 43
c93 2 153 92 159 191c1 18 2 37 2 55c0 31 -1 61 -4 92c-5 -1 -44 -8 -89 -8c-193 0 -333 180 -333 374c0 177 131 306 248 441zM428 916c0 34 1 66 -20 129c-99 -48 -162 -149 -162 -259c0 -52 12 -115 36 -194c80 97 146 198 146 324z" fill="currentColor"/>
</g>
<g transform="translate(4.8028, 38.2910)">
<text font-family="serif" font-size="1.7461" text-anchor="start" fill="currentColor">
<tspan>5</tspan>
</text>
</g>
<a style="color:inherit;" xlink:href="textedit:///Users/marc.mouries/projects/violin-music.github.io/Classical/Dowland_Can-She-Excuse-My-Wrongs/Can-she-excuse-my-wrongs_%28John-Dowland%29.ly:31:2:3">
<g transform="translate(11.4906, 41.0114)">
<path transform="scale(0.0040, -0.0040)" d="M314 65c0 23 -19 41 -42 41c-39 0 -204 -110 -231 -143c-7 -8 -10 -18 -10 -28c0 -23 19 -41 42 -41c39 0 203 110 230 143c7 8 11 18 11 28zM262 136c41 0 82 -14 82 -71c0 -26 -16 -112 -74 -151c-25 -17 -87 -50 -187 -50c-41 0 -83 14 -83 71c0 26 16 112 74 151
c25 17 88 50 188 50z" fill="currentColor"/>
</g>
</a>
<a style="color:inherit;" xlink:href="textedit:///Users/marc.mouries/projects/violin-music.github.io/Classical/Dowland_Can-She-Excuse-My-Wrongs/Can-she-excuse-my-wrongs_%28John-Dowland%29.ly:37:2:3">
<g transform="translate(10.3355, 47.0614)">
<text font-family="Optima" font-size="1.7461" text-anchor="start" fill="currentColor">
<tspan>Shall</tspan>
</text>
</g>
</a>
<g transform="translate(11.5556, 41.5614)">
<rect x="-0.0650" y="-0.2910" width="0.1300" height="3.5910" ry="0.0400" fill="currentColor"/>
</g>
<a style="color:inherit;" xlink:href="textedit:///Users/marc.mouries/projects/violin-music.github.io/Classical/Dowland_Can-She-Excuse-My-Wrongs/Can-she-excuse-my-wrongs_%28John-Dowland%29.ly:31:6:7">
<g transform="translate(20.4727, 42.1114)">
<path transform="scale(0.0040, -0.0040)" d="M218 136c66 0 108 -36 108 -89c0 -89 -113 -183 -218 -183c-66 0 -108 36 -108 89c0 89 113 183 218 183z" fill="currentColor"/>
</g>
</a>
<a style="color:inherit;" xlink:href="textedit:///Users/marc.mouries/projects/violin-music.github.io/Classical/Dowland_Can-She-Excuse-My-Wrongs/Can-she-excuse-my-wrongs_%28John-Dowland%29.ly:37:8:9">
<g transform="translate(20.8858, 47.0614)">
<text font-family="Optima" font-size="1.7461" text-anchor="start" fill="currentColor">
<tspan>I</tspan>
</text>
</g>
</a>
<g transform="translate(21.7119, 41.5614)">
<rect x="-0.0650" y="-3.3000" width="0.1300" height="3.6639" ry="0.0400" fill="currentColor"/>
</g>
<a style="color:inherit;" xlink:href="textedit:///Users/marc.mouries/projects/violin-music.github.io/Classical/Dowland_Can-She-Excuse-My-Wrongs/Can-she-excuse-my-wrongs_%28John-Dowland%29.ly:31:9:10">
<g transform="translate(26.4546, 41.5614)">
<path transform="scale(0.0040, -0.0040)" d="M314 65c0 23 -19 41 -42 41c-39 0 -204 -110 -231 -143c-7 -8 -10 -18 -10 -28c0 -23 19 -41 42 -41c39 0 203 110 230 143c7 8 11 18 11 28zM262 136c41 0 82 -14 82 -71c0 -26 -16 -112 -74 -151c-25 -17 -87 -50 -187 -50c-41 0 -83 14 -83 71c0 26 16 112 74 151
c25 17 88 50 188 50z" fill="currentColor"/>
</g>
</a>
<a style="color:inherit;" xlink:href="textedit:///Users/marc.mouries/projects/violin-music.github.io/Classical/Dowland_Can-She-Excuse-My-Wrongs/Can-she-excuse-my-wrongs_%28John-Dowland%29.ly:37:10:11">
<g transform="translate(25.7775, 47.0614)">
<text font-family="Optima" font-size="1.7461" text-anchor="start" fill="currentColor">
<tspan>call</tspan>
</text>
</g>
</a>
<g transform="translate(26.5196, 41.5614)">
<rect x="-0.0650" y="0.2590" width="0.1300" height="3.4077" ry="0.0400" fill="currentColor"/>
</g>
<g transform="translate(25.3046, 41.5614)">
<path transform="scale(0.0040, -0.0040)" d="M27 41l-1 -66v-11c0 -22 1 -44 4 -66c45 38 93 80 93 139c0 33 -14 67 -43 67c-31 0 -52 -30 -53 -63zM-15 -138l-12 595c8 5 18 8 27 8s19 -3 27 -8l-7 -345c25 21 58 34 91 34c52 0 89 -48 89 -102c0 -80 -86 -117 -147 -169c-15 -13 -24 -38 -45 -38
c-13 0 -23 11 -23 25z" fill="currentColor"/>
</g>
<a style="color:inherit;" xlink:href="textedit:///Users/marc.mouries/projects/violin-music.github.io/Classical/Dowland_Can-She-Excuse-My-Wrongs/Can-she-excuse-my-wrongs_%28John-Dowland%29.ly:31:13:14">
<g transform="translate(35.4368, 42.6614)">
<path transform="scale(0.0040, -0.0040)" d="M218 136c66 0 108 -36 108 -89c0 -89 -113 -183 -218 -183c-66 0 -108 36 -108 89c0 89 113 183 218 183z" fill="currentColor"/>
</g>
</a>
<a style="color:inherit;" xlink:href="textedit:///Users/marc.mouries/projects/violin-music.github.io/Classical/Dowland_Can-She-Excuse-My-Wrongs/Can-she-excuse-my-wrongs_%28John-Dowland%29.ly:37:15:16">
<g transform="translate(34.8768, 47.0614)">
<text font-family="Optima" font-size="1.7461" text-anchor="start" fill="currentColor">
<tspan>her</tspan>
</text>
</g>
</a>
<g transform="translate(36.6760, 41.5614)">
<rect x="-0.0650" y="-2.7500" width="0.1300" height="3.6639" ry="0.0400" fill="currentColor"/>
</g>
<a style="color:inherit;" xlink:href="textedit:///Users/marc.mouries/projects/violin-music.github.io/Classical/Dowland_Can-She-Excuse-My-Wrongs/Can-she-excuse-my-wrongs_%28John-Dowland%29.ly:31:16:17">
<g transform="translate(43.2830, 42.1114)">
<path transform="scale(0.0040, -0.0040)" d="M213 112c-45 0 -69 -34 -69 -88c0 -102 89 -136 134 -136s69 34 69 88c0 102 -89 136 -134 136zM245 136c144 0 246 -65 246 -136s-102 -136 -246 -136s-245 65 -245 136s101 136 245 136z" fill="currentColor"/>
</g>
</a>
<a style="color:inherit;" xlink:href="textedit:///Users/marc.mouries/projects/violin-music.github.io/Classical/Dowland_Can-She-Excuse-My-Wrongs/Can-she-excuse-my-wrongs_%28John-Dowland%29.ly:37:19:20">
<g transform="translate(42.3861, 47.0614)">
<text font-family="Optima" font-size="1.7461" text-anchor="start" fill="currentColor">
<tspan>good</tspan>
</text>
</g>
</a>
<a style="color:inherit;" xlink:href="textedit:///Users/marc.mouries/projects/violin-music.github.io/Classical/Dowland_Can-She-Excuse-My-Wrongs/Can-she-excuse-my-wrongs_%28John-Dowland%29.ly:31:19:20">
<g transform="translate(56.1190, 43.2114)">
<path transform="scale(0.0040, -0.0040)" d="M314 65c0 23 -19 41 -42 41c-39 0 -204 -110 -231 -143c-7 -8 -10 -18 -10 -28c0 -23 19 -41 42 -41c39 0 203 110 230 143c7 8 11 18 11 28zM262 136c41 0 82 -14 82 -71c0 -26 -16 -112 -74 -151c-25 -17 -87 -50 -187 -50c-41 0 -83 14 -83 71c0 26 16 112 74 151
c25 17 88 50 188 50z" fill="currentColor"/>
</g>
</a>
<a style="color:inherit;" xlink:href="textedit:///Users/marc.mouries/projects/violin-music.github.io/Classical/Dowland_Can-She-Excuse-My-Wrongs/Can-she-excuse-my-wrongs_%28John-Dowland%29.ly:37:24:25">
<g transform="translate(54.7420, 47.0614)">
<text font-family="Optima" font-size="1.7461" text-anchor="start" fill="currentColor">
<tspan>when</tspan>
</text>
</g>
</a>
<g transform="translate(57.4314, 41.5614)">
<rect x="-0.0650" y="-2.2000" width="0.1300" height="3.5910" ry="0.0400" fill="currentColor"/>
</g>
<a style="color:inherit;" xlink:href="textedit:///Users/marc.mouries/projects/violin-music.github.io/Classical/Dowland_Can-She-Excuse-My-Wrongs/Can-she-excuse-my-wrongs_%28John-Dowland%29.ly:31:22:23">
<g transform="translate(67.2535, 42.6614)">
<path transform="scale(0.0040, -0.0040)" d="M314 65c0 23 -19 41 -42 41c-39 0 -204 -110 -231 -143c-7 -8 -10 -18 -10 -28c0 -23 19 -41 42 -41c39 0 203 110 230 143c7 8 11 18 11 28zM262 136c41 0 82 -14 82 -71c0 -26 -16 -112 -74 -151c-25 -17 -87 -50 -187 -50c-41 0 -83 14 -83 71c0 26 16 112 74 151
c25 17 88 50 188 50z" fill="currentColor"/>
</g>
</a>
<a style="color:inherit;" xlink:href="textedit:///Users/marc.mouries/projects/violin-music.github.io/Classical/Dowland_Can-She-Excuse-My-Wrongs/Can-she-excuse-my-wrongs_%28John-Dowland%29.ly:37:29:30">
<g transform="translate(66.6788, 47.0614)">
<text font-family="Optima" font-size="1.7461" text-anchor="start" fill="currentColor">
<tspan>she</tspan>
</text>
</g>
</a>
<g transform="translate(68.5658, 41.5614)">
<rect x="-0.0650" y="-2.7500" width="0.1300" height="3.5910" ry="0.0400" fill="currentColor"/>
</g>
<a style="color:inherit;" xlink:href="textedit:///Users/marc.mouries/projects/violin-music.github.io/Classical/Dowland_Can-She-Excuse-My-Wrongs/Can-she-excuse-my-wrongs_%28John-Dowland%29.ly:31:24:25">
<g transform="translate(76.0707, 43.7614)">
<path transform="scale(0.0040, -0.0040)" d="M314 65c0 23 -19 41 -42 41c-39 0 -204 -110 -231 -143c-7 -8 -10 -18 -10 -28c0 -23 19 -41 42 -41c39 0 203 110 230 143c7 8 11 18 11 28zM262 136c41 0 82 -14 82 -71c0 -26 -16 -112 -74 -151c-25 -17 -87 -50 -187 -50c-41 0 -83 14 -83 71c0 26 16 112 74 151
c25 17 88 50 188 50z" fill="currentColor"/>
</g>
</a>
<a style="color:inherit;" xlink:href="textedit:///Users/marc.mouries/projects/violin-music.github.io/Classical/Dowland_Can-She-Excuse-My-Wrongs/Can-she-excuse-my-wrongs_%28John-Dowland%29.ly:37:33:34">
<g transform="translate(74.3181, 47.0614)">
<text font-family="Optima" font-size="1.7461" text-anchor="start" fill="currentColor">
<tspan>proves</tspan>
</text>
</g>
</a>
<g transform="translate(77.3830, 41.5614)">
<rect x="-0.0650" y="-1.6500" width="0.1300" height="3.5910" ry="0.0400" fill="currentColor"/>
</g>
<a style="color:inherit;" xlink:href="textedit:///Users/marc.mouries/projects/violin-music.github.io/Classical/Dowland_Can-She-Excuse-My-Wrongs/Can-she-excuse-my-wrongs_%28John-Dowland%29.ly:31:26:27">
<g transform="translate(85.1379, 43.7614)">
<path transform="scale(0.0040, -0.0040)" d="M314 65c0 23 -19 41 -42 41c-39 0 -204 -110 -231 -143c-7 -8 -10 -18 -10 -28c0 -23 19 -41 42 -41c39 0 203 110 230 143c7 8 11 18 11 28zM262 136c41 0 82 -14 82 -71c0 -26 -16 -112 -74 -151c-25 -17 -87 -50 -187 -50c-41 0 -83 14 -83 71c0 26 16 112 74 151
c25 17 88 50 188 50z" fill="currentColor"/>
</g>
</a>
<a style="color:inherit;" xlink:href="textedit:///Users/marc.mouries/projects/violin-music.github.io/Classical/Dowland_Can-She-Excuse-My-Wrongs/Can-she-excuse-my-wrongs_%28John-Dowland%29.ly:37:40:41">
<g transform="translate(84.8706, 47.0614)">
<text font-family="Optima" font-size="1.7461" text-anchor="start" fill="currentColor">
<tspan>un</tspan>
</text>
</g>
</a>
<g transform="translate(86.4503, 41.5614)">
<rect x="-0.0650" y="-1.6500" width="0.1300" height="3.5910" ry="0.0400" fill="currentColor"/>
</g>
<a style="color:inherit;" xlink:href="textedit:///Users/marc.mouries/projects/violin-music.github.io/Classical/Dowland_Can-She-Excuse-My-Wrongs/Can-she-excuse-my-wrongs_%28John-Dowland%29.ly:31:28:29">
<g transform="translate(97.2724, 44.3114)">
<path transform="scale(0.0040, -0.0040)" d="M213 112c-45 0 -69 -34 -69 -88c0 -102 89 -136 134 -136s69 34 69 88c0 102 -89 136 -134 136zM245 136c144 0 246 -65 246 -136s-102 -136 -246 -136s-245 65 -245 136s101 136 245 136z" fill="currentColor"/>
</g>
</a>
<a style="color:inherit;" xlink:href="textedit:///Users/marc.mouries/projects/violin-music.github.io/Classical/Dowland_Can-She-Excuse-My-Wrongs/Can-she-excuse-my-wrongs_%28John-Dowland%29.ly:37:44:45">
<g transform="translate(96.2731, 47.0614)">
<text font-family="Optima" font-size="1.7461" text-anchor="start" fill="currentColor">
<tspan>kind?</tspan>
</text>
</g>
</a>
<g transform="translate(99.6844, 44.3114)">
<path transform="scale(0.0040, -0.0040)" d="M0 0c0 31 25 56 56 56s56 -25 56 -56s-25 -56 -56 -56s-56 25 -56 56z" fill="currentColor"/>
</g>
</svg>
