<svg xmlns="http://www.w3.org/2000/svg" xmlns:xlink="http://www.w3.org/1999/xlink" version="1.2" width="215.90mm" height="279.40mm" viewBox="0.0000 -0.0000 122.8590 158.9940">
<style type="text/css">
<![CDATA[
tspan { white-space: pre; }
]]>
</style>
<g transform="translate(41.0630, 6.8594)">
<text font-family="Optima" font-weight="bold" font-size="4.4002" text-anchor="start" fill="currentColor">
<tspan>T</tspan>
</text>
</g>
<g transform="translate(43.5213, 6.8594)">
<text font-family="Optima" font-weight="bold" font-size="3.4921" text-anchor="start" fill="currentColor">
<tspan>RIP</tspan>
</text>
</g>
<g transform="translate(48.7453, 6.8594)">
<text font-family="Optima" font-weight="bold" font-size="4.4002" text-anchor="start" fill="currentColor">
<tspan> T</tspan>
</text>
</g>
<g transform="translate(52.0913, 6.8594)">
<text font-family="Optima" font-weight="bold" font-size="3.4921" text-anchor="start" fill="currentColor">
<tspan>O</tspan>
</text>
</g>
<g transform="translate(54.9935, 6.8594)">
<text font-family="Optima" font-weight="bold" font-size="4.4002" text-anchor="start" fill="currentColor">
<tspan> P</tspan>
</text>
</g>
<g transform="translate(58.6810, 6.8594)">
<text font-family="Optima" font-weight="bold" font-size="3.4921" text-anchor="start" fill="currentColor">
<tspan>AKISTAN</tspan>
</text>
</g>
<g transform="translate(72.7480, 6.8594)">
<text font-family="Optima" font-weight="bold" font-size="4.4002" text-anchor="start" fill="currentColor">
<tspan>, T</tspan>
</text>
</g>
<g transform="translate(77.3232, 6.8594)">
<text font-family="Optima" font-weight="bold" font-size="3.4921" text-anchor="start" fill="currentColor">
<tspan>HE</tspan>
</text>
</g>
<g transform="translate(51.4084, 9.8594)">
<text font-family="Optima" font-size="1.7461" text-anchor="start" fill="currentColor">
<tspan>As played by Sarah Burnell</tspan>
</text>
</g>
<g transform="translate(107.2327, 6.8594)">
<text font-family="Optima" font-size="1.9600" text-anchor="start" fill="currentColor">
<tspan>Niall Kenny</tspan>
</text>
</g>
<g transform="translate(98.9018, 12.3497)">
<text font-family="serif" font-size="2.2001" text-anchor="start" fill="currentColor">
<tspan>tr. Maxence Mouriès</tspan>
</text>
</g>
<g transform="translate(115.3285, 27.5665)">
<path transform="scale(0.0040, -0.0040)" d="M0 0c0 31 25 56 56 56s56 -25 56 -56s-25 -56 -56 -56s-56 25 -56 56z" fill="currentColor"/>
</g>
<g transform="translate(115.3285, 28.6665)">
<path transform="scale(0.0040, -0.0040)" d="M0 0c0 31 25 56 56 56s56 -25 56 -56s-25 -56 -56 -56s-56 25 -56 56z" fill="currentColor"/>
</g>
<g transform="translate(116.5684, 28.1165)">
<rect x="0.0000" y="-2.2000" width="0.6000" height="4.4000" ry="0.0000" fill="currentColor"/>
</g>
<g transform="translate(116.0784, 28.1165)">
<rect x="0.0000" y="-2.2000" width="0.1900" height="4.4000" ry="0.0000" fill="currentColor"/>
</g>
<g transform="translate(5.6906, 30.3165)">
<line stroke-linejoin="round" stroke-linecap="round" stroke-width="0.1000" stroke="currentColor" x1="0.0500" y1="0" x2="111.4279" y2="0"/>
</g>
<g transform="translate(5.6906, 29.2165)">
<line stroke-linejoin="round" stroke-linecap="round" stroke-width="0.1000" stroke="currentColor" x1="0.0500" y1="0" x2="111.4279" y2="0"/>
</g>
<g transform="translate(5.6906, 28.1165)">
<line stroke-linejoin="round" stroke-linecap="round" stroke-width="0.1000" stroke="currentColor" x1="0.0500" y1="0" x2="111.4279" y2="0"/>
</g>
<g transform="translate(5.6906, 27.0165)">
<line stroke-linejoin="round" stroke-linecap="round" stroke-width="0.1000" stroke="currentColor" x1="0.0500" y1="0" x2="111.4279" y2="0"/>
</g>
<g transform="translate(5.6906, 25.9165)">
<line stroke-linejoin="round" stroke-linecap="round" stroke-width="0.1000" stroke="currentColor" x1="0.0500" y1="0" x2="111.4279" y2="0"/>
</g>
<g transform="translate(93.0839, 28.1165)">
<rect x="0.0000" y="-2.2000" width="0.1900" height="4.4000" ry="0.0000" fill="currentColor"/>
</g>
<g transform="translate(66.4441, 28.1165)">
<rect x="0.0000" y="-2.2000" width="0.1900" height="4.4000" ry="0.0000" fill="currentColor"/>
</g>
<g transform="translate(41.3122, 28.1165)">
<rect x="0.0000" y="-2.2000" width="0.1900" height="4.4000" ry="0.0000" fill="currentColor"/>
</g>
<g transform="translate(95.5263, 25.7025)">
<polygon stroke-linejoin="round" stroke-linecap="round" stroke-width="0.0800" fill="currentColor" stroke="currentColor" points="3.0694 -0.0100 3.0694 0.4380 0.0400 0.2240 0.0400 -0.2240"/>
</g>
<a style="color:inherit;" xlink:href="textedit:///Users/marc.mouries/projects/Sheet-Music/Folk_Ireland/Trip-to-Pakistan/trip-to-pakistan.ly:20:2:3">
<g transform="translate(15.9406, 24.3165)">
<text font-family="sans-serif" font-size="2.6163" text-anchor="start" fill="currentColor">
<tspan>E</tspan>
</text>
</g>
<g transform="translate(17.5794, 24.3165)">
<text font-family="sans-serif" font-size="2.6163" text-anchor="start" fill="currentColor">
<tspan>m</tspan>
</text>
</g>
</a>
<a style="color:inherit;" xlink:href="textedit:///Users/marc.mouries/projects/Sheet-Music/Folk_Ireland/Trip-to-Pakistan/trip-to-pakistan.ly:32:8:9">
<g transform="translate(15.9406, 30.3165)">
<path transform="scale(0.0040, -0.0040)" d="M218 136c66 0 108 -36 108 -89c0 -89 -113 -183 -218 -183c-66 0 -108 36 -108 89c0 89 113 183 218 183z" fill="currentColor"/>
</g>
</a>
<g transform="translate(6.4906, 29.2165)">
<path transform="scale(0.0040, -0.0040)" d="M266 -635h-6c-108 0 -195 88 -195 197c0 58 53 103 112 103c54 0 95 -47 95 -103c0 -52 -43 -95 -95 -95c-11 0 -21 2 -31 6c26 -39 68 -65 117 -65h4zM461 -203c68 24 113 90 113 164c0 90 -66 179 -173 190c19 -89 48 -242 60 -354zM74 28c0 -145 141 -247 264 -247
c1 0 47 0 82 6c-7 64 -29 203 -63 364c-79 -8 -124 -61 -124 -119c0 -44 25 -91 81 -123c5 -5 7 -10 7 -15c0 -11 -10 -22 -22 -22c-15 0 -126 62 -126 187c0 88 58 174 160 197c-14 58 -29 117 -46 175c-107 -121 -213 -243 -213 -403zM250 553c-29 96 -52 170 -52 346
c0 115 55 224 149 292c6 5 14 5 20 0c68 -80 133 -245 133 -358c0 -143 -86 -255 -180 -364c21 -68 39 -138 56 -207c2 0 7 1 13 1c155 0 256 -128 256 -261c0 -113 -74 -212 -180 -246c3 -35 5 -70 5 -105c0 -19 -1 -39 -2 -58c-7 -119 -88 -225 -202 -228l1 43
c93 2 153 92 159 191c1 18 2 37 2 55c0 31 -1 61 -4 92c-5 -1 -44 -8 -89 -8c-193 0 -333 180 -333 374c0 177 131 306 248 441zM428 916c0 34 1 66 -20 129c-99 -48 -162 -149 -162 -259c0 -52 12 -115 36 -194c80 97 146 198 146 324z" fill="currentColor"/>
</g>
<a style="color:inherit;" xlink:href="textedit:///Users/marc.mouries/projects/Sheet-Music/Folk_Ireland/Trip-to-Pakistan/trip-to-pakistan.ly:63:6:7">
<g transform="translate(9.9906, 25.9165)">
<path transform="scale(0.0040, -0.0040)" d="M0 119c0 8 5 15 13 18l46 17v158c0 10 8 19 18 19s19 -9 19 -19v-145l83 31v158c0 10 9 19 19 19s18 -9 18 -19v-145l32 12c2 1 5 1 7 1c11 0 20 -9 20 -20v-60c0 -8 -5 -16 -13 -19l-46 -16v-160l32 11c2 1 5 1 7 1c11 0 20 -9 20 -20v-60c0 -8 -5 -15 -13 -18l-46 -17
v-158c0 -10 -8 -19 -18 -19s-19 9 -19 19v145l-83 -31v-158c0 -10 -9 -19 -19 -19s-18 9 -18 19v145l-32 -12c-2 -1 -5 -1 -7 -1c-11 0 -20 9 -20 20v60c0 8 5 16 13 19l46 16v160l-32 -11c-2 -1 -5 -1 -7 -1c-11 0 -20 9 -20 20v60zM179 95l-83 -30v-160l83 30v160z" fill="currentColor"/>
</g>
</a>
<a style="color:inherit;" xlink:href="textedit:///Users/marc.mouries/projects/Sheet-Music/Folk_Ireland/Trip-to-Pakistan/trip-to-pakistan.ly:64:6:7">
<g transform="translate(12.2406, 28.1165)">
<path transform="scale(0.0040, -0.0040)" d="M250 262c116 0 176 -106 176 -163c0 -40 -30 -72 -67 -72c-31 0 -75 25 -75 75c0 38 27 77 72 77c4 0 9 0 14 -1c-28 37 -72 59 -120 59c-106 0 -113 -73 -113 -186v-51v-51c0 -113 7 -187 113 -187c80 0 139 70 158 151c2 7 7 10 12 10c6 0 13 -4 13 -12
c0 -22 -50 -174 -183 -174c-59 0 -250 19 -250 263c0 62 18 262 250 262z" fill="currentColor"/>
</g>
</a>
<g transform="translate(17.1798, 28.1165)">
<rect x="-0.0650" y="-1.3270" width="0.1300" height="3.3409" ry="0.0400" fill="currentColor"/>
</g>
<a style="color:inherit;" xlink:href="textedit:///Users/marc.mouries/projects/Sheet-Music/Folk_Ireland/Trip-to-Pakistan/trip-to-pakistan.ly:32:12:13">
<g transform="translate(19.1699, 29.2165)">
<path transform="scale(0.0040, -0.0040)" d="M218 136c66 0 108 -36 108 -89c0 -89 -113 -183 -218 -183c-66 0 -108 36 -108 89c0 89 113 183 218 183z" fill="currentColor"/>
</g>
</a>
<g transform="translate(20.4091, 28.1165)">
<rect x="-0.0650" y="-1.9730" width="0.1300" height="2.8869" ry="0.0400" fill="currentColor"/>
</g>
<a style="color:inherit;" xlink:href="textedit:///Users/marc.mouries/projects/Sheet-Music/Folk_Ireland/Trip-to-Pakistan/trip-to-pakistan.ly:34:40:41">
<g transform="translate(87.9323, 26.0315)">
<polygon stroke-linejoin="round" stroke-linecap="round" stroke-width="0.0800" fill="currentColor" stroke="currentColor" points="1.3431 0.3100 1.3431 0.5600 0.0400 0.1250 0.0400 -0.1250"/>
</g>
</a>
<a style="color:inherit;" xlink:href="textedit:///Users/marc.mouries/projects/Sheet-Music/Folk_Ireland/Trip-to-Pakistan/trip-to-pakistan.ly:32:15:16">
<g transform="translate(22.3993, 28.1165)">
<path transform="scale(0.0040, -0.0040)" d="M218 136c66 0 108 -36 108 -89c0 -89 -113 -183 -218 -183c-66 0 -108 36 -108 89c0 89 113 183 218 183z" fill="currentColor"/>
</g>
</a>
<g transform="translate(23.6385, 28.1165)">
<rect x="-0.0650" y="-3.2750" width="0.1300" height="3.0889" ry="0.0400" fill="currentColor"/>
</g>
<a style="color:inherit;" xlink:href="textedit:///Users/marc.mouries/projects/Sheet-Music/Folk_Ireland/Trip-to-Pakistan/trip-to-pakistan.ly:34:27:28">
<g transform="translate(85.9584, 25.0305)">
<polygon stroke-linejoin="round" stroke-linecap="round" stroke-width="0.0800" fill="currentColor" stroke="currentColor" points="5.2796 -0.9880 5.2796 -0.5400 0.0400 0.2240 0.0400 -0.2240"/>
</g>
</a>
<a style="color:inherit;" xlink:href="textedit:///Users/marc.mouries/projects/Sheet-Music/Folk_Ireland/Trip-to-Pakistan/trip-to-pakistan.ly:32:18:19">
<g transform="translate(25.1286, 30.3165)">
<path transform="scale(0.0040, -0.0040)" d="M218 136c66 0 108 -36 108 -89c0 -89 -113 -183 -218 -183c-66 0 -108 36 -108 89c0 89 113 183 218 183z" fill="currentColor"/>
</g>
</a>
<g transform="translate(26.3678, 28.1165)">
<rect x="-0.0650" y="-2.2250" width="0.1300" height="4.2389" ry="0.0400" fill="currentColor"/>
</g>
<g transform="translate(75.3452, 24.8165)">
<polygon stroke-linejoin="round" stroke-linecap="round" stroke-width="0.0800" fill="currentColor" stroke="currentColor" points="2.8194 0.8760 2.8194 1.3240 0.0400 0.2240 0.0400 -0.2240"/>
</g>
<a style="color:inherit;" xlink:href="textedit:///Users/marc.mouries/projects/Sheet-Music/Folk_Ireland/Trip-to-Pakistan/trip-to-pakistan.ly:20:8:9">
<g transform="translate(28.3580, 24.3165)">
<text font-family="sans-serif" font-size="2.6163" text-anchor="start" fill="currentColor">
<tspan>G</tspan>
</text>
</g>
</a>
<a style="color:inherit;" xlink:href="textedit:///Users/marc.mouries/projects/Sheet-Music/Folk_Ireland/Trip-to-Pakistan/trip-to-pakistan.ly:32:21:22">
<g transform="translate(28.3580, 29.2165)">
<path transform="scale(0.0040, -0.0040)" d="M218 136c66 0 108 -36 108 -89c0 -89 -113 -183 -218 -183c-66 0 -108 36 -108 89c0 89 113 183 218 183z" fill="currentColor"/>
</g>
</a>
<g transform="translate(29.5972, 28.1165)">
<rect x="-0.0650" y="-2.7500" width="0.1300" height="3.6639" ry="0.0400" fill="currentColor"/>
</g>
<a style="color:inherit;" xlink:href="textedit:///Users/marc.mouries/projects/Sheet-Music/Folk_Ireland/Trip-to-Pakistan/trip-to-pakistan.ly:34:20:21">
<g transform="translate(76.9003, 28.1165)">
<path stroke-width="0.0800" stroke-linejoin="round" stroke-linecap="round" stroke="currentColor" fill="currentColor" d="M0.7730 3.2950C1.8360 3.8378 3.3938 3.3868 4.0024 2.3600L4.0024 2.3600C3.3605 3.2715 1.8026 3.7225 0.7730 3.2950z"/>
</g>
</a>
<a style="color:inherit;" xlink:href="textedit:///Users/marc.mouries/projects/Sheet-Music/Folk_Ireland/Trip-to-Pakistan/trip-to-pakistan.ly:32:25:26">
<g transform="translate(33.0124, 29.2165)">
<path transform="scale(0.0040, -0.0040)" d="M218 136c66 0 108 -36 108 -89c0 -89 -113 -183 -218 -183c-66 0 -108 36 -108 89c0 89 113 183 218 183z" fill="currentColor"/>
</g>
</a>
<g transform="translate(34.2517, 28.1165)">
<rect x="-0.0650" y="-3.0953" width="0.1300" height="4.0092" ry="0.0400" fill="currentColor"/>
</g>
<g transform="translate(68.8865, 26.8025)">
<polygon stroke-linejoin="round" stroke-linecap="round" stroke-width="0.0800" fill="currentColor" stroke="currentColor" points="3.3194 -0.8960 3.3194 -0.4480 0.0400 0.2240 0.0400 -0.2240"/>
</g>
<a style="color:inherit;" xlink:href="textedit:///Users/marc.mouries/projects/Sheet-Music/Folk_Ireland/Trip-to-Pakistan/trip-to-pakistan.ly:32:37:38">
<g transform="translate(35.5959, 28.1165)">
<path transform="scale(0.0020, -0.0020)" d="M199 142c72 0 123 -44 123 -108c0 -91 -100 -176 -199 -176c-72 0 -123 44 -123 108c0 91 100 176 199 176z" fill="currentColor"/>
</g>
</a>
<g transform="translate(36.2006, 28.1165)">
<rect x="-0.0400" y="-2.0724" width="0.0800" height="2.0041" ry="0.0400" fill="currentColor"/>
</g>
<g transform="translate(61.4574, 26.1305)">
<polygon stroke-linejoin="round" stroke-linecap="round" stroke-width="0.0800" fill="currentColor" stroke="currentColor" points="3.0694 -0.4380 3.0694 0.0100 0.0400 0.2240 0.0400 -0.2240"/>
</g>
<a style="color:inherit;" xlink:href="textedit:///Users/marc.mouries/projects/Sheet-Music/Folk_Ireland/Trip-to-Pakistan/trip-to-pakistan.ly:32:41:42">
<g transform="translate(36.8990, 28.6665)">
<path transform="scale(0.0020, -0.0020)" d="M199 142c72 0 123 -44 123 -108c0 -91 -100 -176 -199 -176c-72 0 -123 44 -123 108c0 91 100 176 199 176z" fill="currentColor"/>
</g>
</a>
<g transform="translate(37.5037, 28.1165)">
<rect x="-0.0400" y="-1.6626" width="0.0800" height="2.1442" ry="0.0400" fill="currentColor"/>
</g>
<g transform="translate(55.4987, 25.7025)">
<polygon stroke-linejoin="round" stroke-linecap="round" stroke-width="0.0800" fill="currentColor" stroke="currentColor" points="3.0694 -0.0100 3.0694 0.4380 0.0400 0.2240 0.0400 -0.2240"/>
</g>
<a style="color:inherit;" xlink:href="textedit:///Users/marc.mouries/projects/Sheet-Music/Folk_Ireland/Trip-to-Pakistan/trip-to-pakistan.ly:32:45:46">
<g transform="translate(38.2021, 28.1165)">
<path transform="scale(0.0040, -0.0040)" d="M218 136c66 0 108 -36 108 -89c0 -89 -113 -183 -218 -183c-66 0 -108 36 -108 89c0 89 113 183 218 183z" fill="currentColor"/>
</g>
</a>
<g transform="translate(39.4413, 28.1165)">
<rect x="-0.0650" y="-3.8407" width="0.1300" height="3.6546" ry="0.0400" fill="currentColor"/>
</g>
<g transform="translate(48.4091, 25.0305)">
<polygon stroke-linejoin="round" stroke-linecap="round" stroke-width="0.0800" fill="currentColor" stroke="currentColor" points="4.2003 -0.4380 4.2003 0.0100 0.0400 0.2240 0.0400 -0.2240"/>
</g>
<a style="color:inherit;" xlink:href="textedit:///Users/marc.mouries/projects/Sheet-Music/Folk_Ireland/Trip-to-Pakistan/trip-to-pakistan.ly:33:26:27">
<g transform="translate(5.6906, 28.6665)">
<line stroke-linejoin="round" stroke-linecap="round" stroke-width="0.1000" stroke="currentColor" x1="44.7331" y1="0.4208" x2="45.6305" y2="0.1808"/>
</g>
</a>
<a style="color:inherit;" xlink:href="textedit:///Users/marc.mouries/projects/Sheet-Music/Folk_Ireland/Trip-to-Pakistan/trip-to-pakistan.ly:20:12:13">
<g transform="translate(42.5804, 24.3165)">
<text font-family="sans-serif" font-size="2.6163" text-anchor="start" fill="currentColor">
<tspan>D</tspan>
</text>
</g>
</a>
<a style="color:inherit;" xlink:href="textedit:///Users/marc.mouries/projects/Sheet-Music/Folk_Ireland/Trip-to-Pakistan/trip-to-pakistan.ly:33:8:9">
<g transform="translate(42.5804, 28.6665)">
<path transform="scale(0.0040, -0.0040)" d="M218 136c66 0 108 -36 108 -89c0 -89 -113 -183 -218 -183c-66 0 -108 36 -108 89c0 89 113 183 218 183z" fill="currentColor"/>
</g>
</a>
<g transform="translate(43.8196, 28.1165)">
<rect x="-0.0650" y="-3.3000" width="0.1300" height="3.6639" ry="0.0400" fill="currentColor"/>
</g>
<a style="color:inherit;" xlink:href="textedit:///Users/marc.mouries/projects/Sheet-Music/Folk_Ireland/Trip-to-Pakistan/trip-to-pakistan.ly:33:11:12">
<g transform="translate(47.2348, 28.6665)">
<path transform="scale(0.0040, -0.0040)" d="M218 136c66 0 108 -36 108 -89c0 -89 -113 -183 -218 -183c-66 0 -108 36 -108 89c0 89 113 183 218 183z" fill="currentColor"/>
</g>
</a>
<g transform="translate(48.4741, 28.1165)">
<rect x="-0.0650" y="-3.0893" width="0.1300" height="3.4532" ry="0.0400" fill="currentColor"/>
</g>
<a style="color:inherit;" xlink:href="textedit:///Users/marc.mouries/projects/Sheet-Music/Folk_Ireland/Trip-to-Pakistan/trip-to-pakistan.ly:33:22:23">
<g transform="translate(49.6183, 28.6665)">
<path transform="scale(0.0020, -0.0020)" d="M199 142c72 0 123 -44 123 -108c0 -91 -100 -176 -199 -176c-72 0 -123 44 -123 108c0 91 100 176 199 176z" fill="currentColor"/>
</g>
</a>
<g transform="translate(50.2230, 28.1165)">
<rect x="-0.0400" y="-1.7184" width="0.0800" height="2.2000" ry="0.0400" fill="currentColor"/>
</g>
<g transform="translate(50.2630, 26.4381)">
<path transform="scale(0.0022, -0.0022)" d="M108 -842c0 13 43 71 43 165c0 93 -86 186 -151 252v-75h-25v500h25c0 -176 200 -288 200 -464c0 -33 -9 -67 -23 -97c18 -36 30 -74 30 -116c0 -62 -16 -123 -42 -180c-6 -11 -16 -16 -26 -16c-16 0 -31 13 -31 31zM141 -498c3 11 4 23 4 34c0 92 -82 184 -145 251
c0 -110 81 -194 141 -285z" fill="currentColor"/>
</g>
<a style="color:inherit;" xlink:href="textedit:///Users/marc.mouries/projects/Sheet-Music/Folk_Ireland/Trip-to-Pakistan/trip-to-pakistan.ly:32:40:41">
<g transform="translate(36.1606, 26.0315)">
<polygon stroke-linejoin="round" stroke-linecap="round" stroke-width="0.0800" fill="currentColor" stroke="currentColor" points="1.3431 0.3100 1.3431 0.5600 0.0400 0.1250 0.0400 -0.1250"/>
</g>
</a>
<a style="color:inherit;" xlink:href="textedit:///Users/marc.mouries/projects/Sheet-Music/Folk_Ireland/Trip-to-Pakistan/trip-to-pakistan.ly:33:37:38">
<g transform="translate(51.3451, 28.1165)">
<path transform="scale(0.0040, -0.0040)" d="M218 136c66 0 108 -36 108 -89c0 -89 -113 -183 -218 -183c-66 0 -108 36 -108 89c0 89 113 183 218 183z" fill="currentColor"/>
</g>
</a>
<g transform="translate(52.5843, 28.1165)">
<rect x="-0.0650" y="-3.2967" width="0.1300" height="3.1106" ry="0.0400" fill="currentColor"/>
</g>
<a style="color:inherit;" xlink:href="textedit:///Users/marc.mouries/projects/Sheet-Music/Folk_Ireland/Trip-to-Pakistan/trip-to-pakistan.ly:32:27:28">
<g transform="translate(34.1867, 25.0305)">
<polygon stroke-linejoin="round" stroke-linecap="round" stroke-width="0.0800" fill="currentColor" stroke="currentColor" points="5.2796 -0.9880 5.2796 -0.5400 0.0400 0.2240 0.0400 -0.2240"/>
</g>
</a>
<a style="color:inherit;" xlink:href="textedit:///Users/marc.mouries/projects/Sheet-Music/Folk_Ireland/Trip-to-Pakistan/trip-to-pakistan.ly:33:42:43">
<g transform="translate(54.3245, 28.6665)">
<path transform="scale(0.0040, -0.0040)" d="M218 136c66 0 108 -36 108 -89c0 -89 -113 -183 -218 -183c-66 0 -108 36 -108 89c0 89 113 183 218 183z" fill="currentColor"/>
</g>
</a>
<g transform="translate(55.5637, 28.1165)">
<rect x="-0.0650" y="-2.4095" width="0.1300" height="2.7734" ry="0.0400" fill="currentColor"/>
</g>
<g transform="translate(23.5735, 24.8165)">
<polygon stroke-linejoin="round" stroke-linecap="round" stroke-width="0.0800" fill="currentColor" stroke="currentColor" points="2.8194 0.8760 2.8194 1.3240 0.0400 0.2240 0.0400 -0.2240"/>
</g>
<a style="color:inherit;" xlink:href="textedit:///Users/marc.mouries/projects/Sheet-Music/Folk_Ireland/Trip-to-Pakistan/trip-to-pakistan.ly:33:46:47">
<g transform="translate(57.3038, 29.2165)">
<path transform="scale(0.0040, -0.0040)" d="M218 136c66 0 108 -36 108 -89c0 -89 -113 -183 -218 -183c-66 0 -108 36 -108 89c0 89 113 183 218 183z" fill="currentColor"/>
</g>
</a>
<g transform="translate(58.5430, 28.1165)">
<rect x="-0.0650" y="-2.2045" width="0.1300" height="3.1184" ry="0.0400" fill="currentColor"/>
</g>
<a style="color:inherit;" xlink:href="textedit:///Users/marc.mouries/projects/Sheet-Music/Folk_Ireland/Trip-to-Pakistan/trip-to-pakistan.ly:32:20:21">
<g transform="translate(25.1286, 28.1165)">
<path stroke-width="0.0800" stroke-linejoin="round" stroke-linecap="round" stroke="currentColor" fill="currentColor" d="M0.7730 3.2950C1.8360 3.8378 3.3938 3.3868 4.0024 2.3600L4.0024 2.3600C3.3605 3.2715 1.8026 3.7225 0.7730 3.2950z"/>
</g>
</a>
<a style="color:inherit;" xlink:href="textedit:///Users/marc.mouries/projects/Sheet-Music/Folk_Ireland/Trip-to-Pakistan/trip-to-pakistan.ly:33:51:52">
<g transform="translate(60.2832, 29.7665)">
<path transform="scale(0.0040, -0.0040)" d="M218 136c66 0 108 -36 108 -89c0 -89 -113 -183 -218 -183c-66 0 -108 36 -108 89c0 89 113 183 218 183z" fill="currentColor"/>
</g>
</a>
<g transform="translate(61.5224, 28.1165)">
<rect x="-0.0650" y="-1.9905" width="0.1300" height="3.4544" ry="0.0400" fill="currentColor"/>
</g>
<g transform="translate(17.1148, 26.8025)">
<polygon stroke-linejoin="round" stroke-linecap="round" stroke-width="0.0800" fill="currentColor" stroke="currentColor" points="3.3194 -0.8960 3.3194 -0.4480 0.0400 0.2240 0.0400 -0.2240"/>
</g>
<a style="color:inherit;" xlink:href="textedit:///Users/marc.mouries/projects/Sheet-Music/Folk_Ireland/Trip-to-Pakistan/trip-to-pakistan.ly:33:55:56">
<g transform="translate(63.2625, 29.2165)">
<path transform="scale(0.0040, -0.0040)" d="M218 136c66 0 108 -36 108 -89c0 -89 -113 -183 -218 -183c-66 0 -108 36 -108 89c0 89 113 183 218 183z" fill="currentColor"/>
</g>
</a>
<g transform="translate(64.5018, 28.1165)">
<rect x="-0.0650" y="-2.1955" width="0.1300" height="3.1094" ry="0.0400" fill="currentColor"/>
</g>
<a style="color:inherit;" xlink:href="textedit:///Users/marc.mouries/projects/Sheet-Music/Folk_Ireland/Trip-to-Pakistan/trip-to-pakistan.ly:20:22:23">
<g transform="translate(67.7123, 24.3165)">
<text font-family="sans-serif" font-size="2.6163" text-anchor="start" fill="currentColor">
<tspan>E</tspan>
</text>
</g>
<g transform="translate(69.3511, 24.3165)">
<text font-family="sans-serif" font-size="2.6163" text-anchor="start" fill="currentColor">
<tspan>m</tspan>
</text>
</g>
</a>
<a style="color:inherit;" xlink:href="textedit:///Users/marc.mouries/projects/Sheet-Music/Folk_Ireland/Trip-to-Pakistan/trip-to-pakistan.ly:34:8:9">
<g transform="translate(67.7123, 30.3165)">
<path transform="scale(0.0040, -0.0040)" d="M218 136c66 0 108 -36 108 -89c0 -89 -113 -183 -218 -183c-66 0 -108 36 -108 89c0 89 113 183 218 183z" fill="currentColor"/>
</g>
</a>
<g transform="translate(68.9515, 28.1165)">
<rect x="-0.0650" y="-1.3270" width="0.1300" height="3.3409" ry="0.0400" fill="currentColor"/>
</g>
<g transform="translate(101.4850, 26.1305)">
<polygon stroke-linejoin="round" stroke-linecap="round" stroke-width="0.0800" fill="currentColor" stroke="currentColor" points="3.0694 -0.4380 3.0694 0.0100 0.0400 0.2240 0.0400 -0.2240"/>
</g>
<a style="color:inherit;" xlink:href="textedit:///Users/marc.mouries/projects/Sheet-Music/Folk_Ireland/Trip-to-Pakistan/trip-to-pakistan.ly:34:12:13">
<g transform="translate(70.9416, 29.2165)">
<path transform="scale(0.0040, -0.0040)" d="M218 136c66 0 108 -36 108 -89c0 -89 -113 -183 -218 -183c-66 0 -108 36 -108 89c0 89 113 183 218 183z" fill="currentColor"/>
</g>
</a>
<g transform="translate(72.1808, 28.1165)">
<rect x="-0.0650" y="-1.9730" width="0.1300" height="2.8869" ry="0.0400" fill="currentColor"/>
</g>
<a style="color:inherit;" xlink:href="textedit:///Users/marc.mouries/projects/Sheet-Music/Folk_Ireland/Trip-to-Pakistan/trip-to-pakistan.ly:34:15:16">
<g transform="translate(74.1710, 28.1165)">
<path transform="scale(0.0040, -0.0040)" d="M218 136c66 0 108 -36 108 -89c0 -89 -113 -183 -218 -183c-66 0 -108 36 -108 89c0 89 113 183 218 183z" fill="currentColor"/>
</g>
</a>
<g transform="translate(75.4102, 28.1165)">
<rect x="-0.0650" y="-3.2750" width="0.1300" height="3.0889" ry="0.0400" fill="currentColor"/>
</g>
<a style="color:inherit;" xlink:href="textedit:///Users/marc.mouries/projects/Sheet-Music/Folk_Ireland/Trip-to-Pakistan/trip-to-pakistan.ly:34:18:19">
<g transform="translate(76.9003, 30.3165)">
<path transform="scale(0.0040, -0.0040)" d="M218 136c66 0 108 -36 108 -89c0 -89 -113 -183 -218 -183c-66 0 -108 36 -108 89c0 89 113 183 218 183z" fill="currentColor"/>
</g>
</a>
<g transform="translate(78.1395, 28.1165)">
<rect x="-0.0650" y="-2.2250" width="0.1300" height="4.2389" ry="0.0400" fill="currentColor"/>
</g>
<a style="color:inherit;" xlink:href="textedit:///Users/marc.mouries/projects/Sheet-Music/Folk_Ireland/Trip-to-Pakistan/trip-to-pakistan.ly:20:28:29">
<g transform="translate(80.1297, 24.3165)">
<text font-family="sans-serif" font-size="2.6163" text-anchor="start" fill="currentColor">
<tspan>G</tspan>
</text>
</g>
</a>
<a style="color:inherit;" xlink:href="textedit:///Users/marc.mouries/projects/Sheet-Music/Folk_Ireland/Trip-to-Pakistan/trip-to-pakistan.ly:34:21:22">
<g transform="translate(80.1297, 29.2165)">
<path transform="scale(0.0040, -0.0040)" d="M218 136c66 0 108 -36 108 -89c0 -89 -113 -183 -218 -183c-66 0 -108 36 -108 89c0 89 113 183 218 183z" fill="currentColor"/>
</g>
</a>
<g transform="translate(81.3689, 28.1165)">
<rect x="-0.0650" y="-2.7500" width="0.1300" height="3.6639" ry="0.0400" fill="currentColor"/>
</g>
<a style="color:inherit;" xlink:href="textedit:///Users/marc.mouries/projects/Sheet-Music/Folk_Ireland/Trip-to-Pakistan/trip-to-pakistan.ly:34:25:26">
<g transform="translate(84.7842, 29.2165)">
<path transform="scale(0.0040, -0.0040)" d="M218 136c66 0 108 -36 108 -89c0 -89 -113 -183 -218 -183c-66 0 -108 36 -108 89c0 89 113 183 218 183z" fill="currentColor"/>
</g>
</a>
<g transform="translate(86.0234, 28.1165)">
<rect x="-0.0650" y="-3.0953" width="0.1300" height="4.0092" ry="0.0400" fill="currentColor"/>
</g>
<a style="color:inherit;" xlink:href="textedit:///Users/marc.mouries/projects/Sheet-Music/Folk_Ireland/Trip-to-Pakistan/trip-to-pakistan.ly:34:37:38">
<g transform="translate(87.3676, 28.1165)">
<path transform="scale(0.0020, -0.0020)" d="M199 142c72 0 123 -44 123 -108c0 -91 -100 -176 -199 -176c-72 0 -123 44 -123 108c0 91 100 176 199 176z" fill="currentColor"/>
</g>
</a>
<g transform="translate(87.9723, 28.1165)">
<rect x="-0.0400" y="-2.0724" width="0.0800" height="2.0041" ry="0.0400" fill="currentColor"/>
</g>
<a style="color:inherit;" xlink:href="textedit:///Users/marc.mouries/projects/Sheet-Music/Folk_Ireland/Trip-to-Pakistan/trip-to-pakistan.ly:34:41:42">
<g transform="translate(88.6707, 28.6665)">
<path transform="scale(0.0020, -0.0020)" d="M199 142c72 0 123 -44 123 -108c0 -91 -100 -176 -199 -176c-72 0 -123 44 -123 108c0 91 100 176 199 176z" fill="currentColor"/>
</g>
</a>
<g transform="translate(89.2754, 28.1165)">
<rect x="-0.0400" y="-1.6626" width="0.0800" height="2.1442" ry="0.0400" fill="currentColor"/>
</g>
<a style="color:inherit;" xlink:href="textedit:///Users/marc.mouries/projects/Sheet-Music/Folk_Ireland/Trip-to-Pakistan/trip-to-pakistan.ly:34:45:46">
<g transform="translate(89.9738, 28.1165)">
<path transform="scale(0.0040, -0.0040)" d="M218 136c66 0 108 -36 108 -89c0 -89 -113 -183 -218 -183c-66 0 -108 36 -108 89c0 89 113 183 218 183z" fill="currentColor"/>
</g>
</a>
<g transform="translate(91.2130, 28.1165)">
<rect x="-0.0650" y="-3.8407" width="0.1300" height="3.6546" ry="0.0400" fill="currentColor"/>
</g>
<a style="color:inherit;" xlink:href="textedit:///Users/marc.mouries/projects/Sheet-Music/Folk_Ireland/Trip-to-Pakistan/trip-to-pakistan.ly:20:32:33">
<g transform="translate(94.3521, 24.3165)">
<text font-family="sans-serif" font-size="2.6163" text-anchor="start" fill="currentColor">
<tspan>D</tspan>
</text>
</g>
</a>
<a style="color:inherit;" xlink:href="textedit:///Users/marc.mouries/projects/Sheet-Music/Folk_Ireland/Trip-to-Pakistan/trip-to-pakistan.ly:35:8:9">
<g transform="translate(94.3521, 28.6665)">
<path transform="scale(0.0040, -0.0040)" d="M218 136c66 0 108 -36 108 -89c0 -89 -113 -183 -218 -183c-66 0 -108 36 -108 89c0 89 113 183 218 183z" fill="currentColor"/>
</g>
</a>
<g transform="translate(95.5913, 28.1165)">
<rect x="-0.0650" y="-2.4095" width="0.1300" height="2.7734" ry="0.0400" fill="currentColor"/>
</g>
<a style="color:inherit;" xlink:href="textedit:///Users/marc.mouries/projects/Sheet-Music/Folk_Ireland/Trip-to-Pakistan/trip-to-pakistan.ly:35:14:15">
<g transform="translate(97.3314, 29.2165)">
<path transform="scale(0.0040, -0.0040)" d="M218 136c66 0 108 -36 108 -89c0 -89 -113 -183 -218 -183c-66 0 -108 36 -108 89c0 89 113 183 218 183z" fill="currentColor"/>
</g>
</a>
<g transform="translate(98.5706, 28.1165)">
<rect x="-0.0650" y="-2.2045" width="0.1300" height="3.1184" ry="0.0400" fill="currentColor"/>
</g>
<a style="color:inherit;" xlink:href="textedit:///Users/marc.mouries/projects/Sheet-Music/Folk_Ireland/Trip-to-Pakistan/trip-to-pakistan.ly:35:19:20">
<g transform="translate(100.3108, 29.7665)">
<path transform="scale(0.0040, -0.0040)" d="M218 136c66 0 108 -36 108 -89c0 -89 -113 -183 -218 -183c-66 0 -108 36 -108 89c0 89 113 183 218 183z" fill="currentColor"/>
</g>
</a>
<g transform="translate(101.5500, 28.1165)">
<rect x="-0.0650" y="-1.9905" width="0.1300" height="3.4544" ry="0.0400" fill="currentColor"/>
</g>
<g transform="translate(111.9132, 28.1165)">
<rect x="-0.0650" y="-1.1000" width="0.1300" height="3.6639" ry="0.0400" fill="currentColor"/>
</g>
<a style="color:inherit;" xlink:href="textedit:///Users/marc.mouries/projects/Sheet-Music/Folk_Ireland/Trip-to-Pakistan/trip-to-pakistan.ly:35:23:24">
<g transform="translate(103.2901, 29.2165)">
<path transform="scale(0.0040, -0.0040)" d="M218 136c66 0 108 -36 108 -89c0 -89 -113 -183 -218 -183c-66 0 -108 36 -108 89c0 89 113 183 218 183z" fill="currentColor"/>
</g>
</a>
<g transform="translate(104.5293, 28.1165)">
<rect x="-0.0650" y="-2.1955" width="0.1300" height="3.1094" ry="0.0400" fill="currentColor"/>
</g>
<a style="color:inherit;" xlink:href="textedit:///Users/marc.mouries/projects/Sheet-Music/Folk_Ireland/Trip-to-Pakistan/trip-to-pakistan.ly:35:31:32">
<g transform="translate(110.6740, 30.8665)">
<path transform="scale(0.0040, -0.0040)" d="M218 136c66 0 108 -36 108 -89c0 -89 -113 -183 -218 -183c-66 0 -108 36 -108 89c0 89 113 183 218 183z" fill="currentColor"/>
</g>
</a>
<a style="color:inherit;" xlink:href="textedit:///Users/marc.mouries/projects/Sheet-Music/Folk_Ireland/Trip-to-Pakistan/trip-to-pakistan.ly:20:36:37">
<g transform="translate(106.0195, 24.3165)">
<text font-family="sans-serif" font-size="2.6163" text-anchor="start" fill="currentColor">
<tspan>E</tspan>
</text>
</g>
<g transform="translate(107.6584, 24.3165)">
<text font-family="sans-serif" font-size="2.6163" text-anchor="start" fill="currentColor">
<tspan>m</tspan>
</text>
</g>
</a>
<a style="color:inherit;" xlink:href="textedit:///Users/marc.mouries/projects/Sheet-Music/Folk_Ireland/Trip-to-Pakistan/trip-to-pakistan.ly:35:28:29">
<g transform="translate(106.0195, 30.3165)">
<path transform="scale(0.0040, -0.0040)" d="M218 136c66 0 108 -36 108 -89c0 -89 -113 -183 -218 -183c-66 0 -108 36 -108 89c0 89 113 183 218 183z" fill="currentColor"/>
</g>
</a>
<g transform="translate(107.2587, 28.1165)">
<rect x="-0.0650" y="-1.6500" width="0.1300" height="3.6639" ry="0.0400" fill="currentColor"/>
</g>
<g transform="translate(115.3285, 43.5665)">
<path transform="scale(0.0040, -0.0040)" d="M0 0c0 31 25 56 56 56s56 -25 56 -56s-25 -56 -56 -56s-56 25 -56 56z" fill="currentColor"/>
</g>
<g transform="translate(115.3285, 44.6665)">
<path transform="scale(0.0040, -0.0040)" d="M0 0c0 31 25 56 56 56s56 -25 56 -56s-25 -56 -56 -56s-56 25 -56 56z" fill="currentColor"/>
</g>
<g transform="translate(116.5684, 44.1165)">
<rect x="0.0000" y="-2.2000" width="0.6000" height="4.4000" ry="0.0000" fill="currentColor"/>
</g>
<g transform="translate(116.0784, 44.1165)">
<rect x="0.0000" y="-2.2000" width="0.1900" height="4.4000" ry="0.0000" fill="currentColor"/>
</g>
<g transform="translate(5.6906, 46.3165)">
<line stroke-linejoin="round" stroke-linecap="round" stroke-width="0.1000" stroke="currentColor" x1="0.0500" y1="0" x2="111.4279" y2="0"/>
</g>
<g transform="translate(5.6906, 45.2165)">
<line stroke-linejoin="round" stroke-linecap="round" stroke-width="0.1000" stroke="currentColor" x1="0.0500" y1="0" x2="111.4279" y2="0"/>
</g>
<g transform="translate(5.6906, 44.1165)">
<line stroke-linejoin="round" stroke-linecap="round" stroke-width="0.1000" stroke="currentColor" x1="0.0500" y1="0" x2="111.4279" y2="0"/>
</g>
<g transform="translate(5.6906, 43.0165)">
<line stroke-linejoin="round" stroke-linecap="round" stroke-width="0.1000" stroke="currentColor" x1="0.0500" y1="0" x2="111.4279" y2="0"/>
</g>
<g transform="translate(5.6906, 41.9165)">
<line stroke-linejoin="round" stroke-linecap="round" stroke-width="0.1000" stroke="currentColor" x1="0.0500" y1="0" x2="111.4279" y2="0"/>
</g>
<g transform="translate(93.3092, 44.1165)">
<rect x="0.0000" y="-2.2000" width="0.1900" height="4.4000" ry="0.0000" fill="currentColor"/>
</g>
<g transform="translate(66.9630, 44.1165)">
<rect x="0.0000" y="-2.2000" width="0.1900" height="4.4000" ry="0.0000" fill="currentColor"/>
</g>
<g transform="translate(40.2977, 44.1165)">
<rect x="0.0000" y="-2.2000" width="0.1900" height="4.4000" ry="0.0000" fill="currentColor"/>
</g>
<g transform="translate(13.5806, 43.5665)">
<path transform="scale(0.0040, -0.0040)" d="M0 0c0 31 25 56 56 56s56 -25 56 -56s-25 -56 -56 -56s-56 25 -56 56z" fill="currentColor"/>
</g>
<g transform="translate(13.5806, 44.6665)">
<path transform="scale(0.0040, -0.0040)" d="M0 0c0 31 25 56 56 56s56 -25 56 -56s-25 -56 -56 -56s-56 25 -56 56z" fill="currentColor"/>
</g>
<g transform="translate(13.0906, 44.1165)">
<rect x="0.0000" y="-2.2000" width="0.1900" height="4.4000" ry="0.0000" fill="currentColor"/>
</g>
<g transform="translate(12.1906, 44.1165)">
<rect x="0.0000" y="-2.2000" width="0.6000" height="4.4000" ry="0.0000" fill="currentColor"/>
</g>
<a style="color:inherit;" xlink:href="textedit:///Users/marc.mouries/projects/Sheet-Music/Folk_Ireland/Trip-to-Pakistan/trip-to-pakistan.ly:21:22:23">
<g transform="translate(68.3421, 40.0154)">
<text font-family="sans-serif" font-size="2.6163" text-anchor="start" fill="currentColor">
<tspan>E</tspan>
</text>
</g>
<g transform="translate(69.9809, 40.0154)">
<text font-family="sans-serif" font-size="2.6163" text-anchor="start" fill="currentColor">
<tspan>m</tspan>
</text>
</g>
</a>
<g transform="translate(6.4906, 45.2165)">
<path transform="scale(0.0040, -0.0040)" d="M266 -635h-6c-108 0 -195 88 -195 197c0 58 53 103 112 103c54 0 95 -47 95 -103c0 -52 -43 -95 -95 -95c-11 0 -21 2 -31 6c26 -39 68 -65 117 -65h4zM461 -203c68 24 113 90 113 164c0 90 -66 179 -173 190c19 -89 48 -242 60 -354zM74 28c0 -145 141 -247 264 -247
c1 0 47 0 82 6c-7 64 -29 203 -63 364c-79 -8 -124 -61 -124 -119c0 -44 25 -91 81 -123c5 -5 7 -10 7 -15c0 -11 -10 -22 -22 -22c-15 0 -126 62 -126 187c0 88 58 174 160 197c-14 58 -29 117 -46 175c-107 -121 -213 -243 -213 -403zM250 553c-29 96 -52 170 -52 346
c0 115 55 224 149 292c6 5 14 5 20 0c68 -80 133 -245 133 -358c0 -143 -86 -255 -180 -364c21 -68 39 -138 56 -207c2 0 7 1 13 1c155 0 256 -128 256 -261c0 -113 -74 -212 -180 -246c3 -35 5 -70 5 -105c0 -19 -1 -39 -2 -58c-7 -119 -88 -225 -202 -228l1 43
c93 2 153 92 159 191c1 18 2 37 2 55c0 31 -1 61 -4 92c-5 -1 -44 -8 -89 -8c-193 0 -333 180 -333 374c0 177 131 306 248 441zM428 916c0 34 1 66 -20 129c-99 -48 -162 -149 -162 -259c0 -52 12 -115 36 -194c80 97 146 198 146 324z" fill="currentColor"/>
</g>
<g transform="translate(9.9906, 41.9165)">
<path transform="scale(0.0040, -0.0040)" d="M0 119c0 8 5 15 13 18l46 17v158c0 10 8 19 18 19s19 -9 19 -19v-145l83 31v158c0 10 9 19 19 19s18 -9 18 -19v-145l32 12c2 1 5 1 7 1c11 0 20 -9 20 -20v-60c0 -8 -5 -16 -13 -19l-46 -16v-160l32 11c2 1 5 1 7 1c11 0 20 -9 20 -20v-60c0 -8 -5 -15 -13 -18l-46 -17
v-158c0 -10 -8 -19 -18 -19s-19 9 -19 19v145l-83 -31v-158c0 -10 -9 -19 -19 -19s-18 9 -18 19v145l-32 -12c-2 -1 -5 -1 -7 -1c-11 0 -20 9 -20 20v60c0 8 5 16 13 19l46 16v160l-32 -11c-2 -1 -5 -1 -7 -1c-11 0 -20 9 -20 20v60zM179 95l-83 -30v-160l83 30v160z" fill="currentColor"/>
</g>
<g transform="translate(4.8028, 40.8460)">
<text font-family="serif" font-size="1.7461" text-anchor="start" fill="currentColor">
<tspan>5</tspan>
</text>
</g>
<g transform="translate(102.4126, 41.7025)">
<polygon stroke-linejoin="round" stroke-linecap="round" stroke-width="0.0800" fill="currentColor" stroke="currentColor" points="3.6151 -0.8960 3.6151 -0.4480 0.0400 0.2240 0.0400 -0.2240"/>
</g>
<a style="color:inherit;" xlink:href="textedit:///Users/marc.mouries/projects/Sheet-Music/Folk_Ireland/Trip-to-Pakistan/trip-to-pakistan.ly:21:2:3">
<g transform="translate(15.3306, 40.0154)">
<text font-family="sans-serif" font-size="2.6163" text-anchor="start" fill="currentColor">
<tspan>E</tspan>
</text>
</g>
<g transform="translate(16.9694, 40.0154)">
<text font-family="sans-serif" font-size="2.6163" text-anchor="start" fill="currentColor">
<tspan>m</tspan>
</text>
</g>
</a>
<a style="color:inherit;" xlink:href="textedit:///Users/marc.mouries/projects/Sheet-Music/Folk_Ireland/Trip-to-Pakistan/trip-to-pakistan.ly:41:8:9">
<g transform="translate(15.3306, 46.3165)">
<path transform="scale(0.0040, -0.0040)" d="M218 136c66 0 108 -36 108 -89c0 -89 -113 -183 -218 -183c-66 0 -108 36 -108 89c0 89 113 183 218 183z" fill="currentColor"/>
</g>
</a>
<g transform="translate(16.5698, 44.1165)">
<rect x="-0.0650" y="-1.3260" width="0.1300" height="3.3398" ry="0.0400" fill="currentColor"/>
</g>
<g transform="translate(95.8625, 40.8165)">
<polygon stroke-linejoin="round" stroke-linecap="round" stroke-width="0.0800" fill="currentColor" stroke="currentColor" points="3.3651 -0.0100 3.3651 0.4380 0.0400 0.2240 0.0400 -0.2240"/>
</g>
<a style="color:inherit;" xlink:href="textedit:///Users/marc.mouries/projects/Sheet-Music/Folk_Ireland/Trip-to-Pakistan/trip-to-pakistan.ly:41:12:13">
<g transform="translate(18.8556, 45.2165)">
<path transform="scale(0.0040, -0.0040)" d="M218 136c66 0 108 -36 108 -89c0 -89 -113 -183 -218 -183c-66 0 -108 36 -108 89c0 89 113 183 218 183z" fill="currentColor"/>
</g>
</a>
<g transform="translate(20.0948, 44.1165)">
<rect x="-0.0650" y="-1.9740" width="0.1300" height="2.8879" ry="0.0400" fill="currentColor"/>
</g>
<g transform="translate(87.1042, 46.5305)">
<polygon stroke-linejoin="round" stroke-linecap="round" stroke-width="0.0800" fill="currentColor" stroke="currentColor" points="3.1151 0.4480 3.1151 0.8960 0.0400 0.2240 0.0400 -0.2240"/>
</g>
<a style="color:inherit;" xlink:href="textedit:///Users/marc.mouries/projects/Sheet-Music/Folk_Ireland/Trip-to-Pakistan/trip-to-pakistan.ly:41:15:16">
<g transform="translate(22.3807, 44.1165)">
<path transform="scale(0.0040, -0.0040)" d="M218 136c66 0 108 -36 108 -89c0 -89 -113 -183 -218 -183c-66 0 -108 36 -108 89c0 89 113 183 218 183z" fill="currentColor"/>
</g>
</a>
<g transform="translate(23.6199, 44.1165)">
<rect x="-0.0650" y="-3.0722" width="0.1300" height="2.8860" ry="0.0400" fill="currentColor"/>
</g>
<g transform="translate(76.5664, 41.0305)">
<polygon stroke-linejoin="round" stroke-linecap="round" stroke-width="0.0800" fill="currentColor" stroke="currentColor" points="3.1151 0.4480 3.1151 0.8960 0.0400 0.2240 0.0400 -0.2240"/>
</g>
<a style="color:inherit;" xlink:href="textedit:///Users/marc.mouries/projects/Sheet-Music/Folk_Ireland/Trip-to-Pakistan/trip-to-pakistan.ly:41:18:19">
<g transform="translate(25.4057, 45.2165)">
<path transform="scale(0.0040, -0.0040)" d="M218 136c66 0 108 -36 108 -89c0 -89 -113 -183 -218 -183c-66 0 -108 36 -108 89c0 89 113 183 218 183z" fill="currentColor"/>
</g>
</a>
<g transform="translate(26.6450, 44.1165)">
<rect x="-0.0650" y="-2.4278" width="0.1300" height="3.3417" ry="0.0400" fill="currentColor"/>
</g>
<a style="color:inherit;" xlink:href="textedit:///Users/marc.mouries/projects/Sheet-Music/Folk_Ireland/Trip-to-Pakistan/trip-to-pakistan.ly:42:19:20">
<g transform="translate(78.4172, 44.1165)">
<path stroke-width="0.0800" stroke-linejoin="round" stroke-linecap="round" stroke="currentColor" fill="currentColor" d="M1.6042 -0.1600C1.8354 -1.1375 2.8818 -1.8232 3.8704 -1.6450L3.8704 -1.6450C2.9476 -1.7229 1.9012 -1.0372 1.6042 -0.1600z"/>
</g>
</a>
<a style="color:inherit;" xlink:href="textedit:///Users/marc.mouries/projects/Sheet-Music/Folk_Ireland/Trip-to-Pakistan/trip-to-pakistan.ly:21:8:9">
<g transform="translate(28.8468, 40.0154)">
<text font-family="sans-serif" font-size="2.6163" text-anchor="start" fill="currentColor">
<tspan>C</tspan>
</text>
</g>
</a>
<a style="color:inherit;" xlink:href="textedit:///Users/marc.mouries/projects/Sheet-Music/Folk_Ireland/Trip-to-Pakistan/trip-to-pakistan.ly:41:22:23">
<g transform="translate(28.8468, 43.5665)">
<path transform="scale(0.0040, -0.0040)" d="M218 136c66 0 108 -36 108 -89c0 -89 -113 -183 -218 -183c-66 0 -108 36 -108 89c0 89 113 183 218 183z" fill="currentColor"/>
</g>
</a>
<g transform="translate(28.9118, 44.1165)">
<rect x="-0.0650" y="-0.3639" width="0.1300" height="3.6639" ry="0.0400" fill="currentColor"/>
</g>
<g transform="translate(69.5163, 42.8025)">
<polygon stroke-linejoin="round" stroke-linecap="round" stroke-width="0.0800" fill="currentColor" stroke="currentColor" points="3.6151 -0.8960 3.6151 -0.4480 0.0400 0.2240 0.0400 -0.2240"/>
</g>
<a style="color:inherit;" xlink:href="textedit:///Users/marc.mouries/projects/Sheet-Music/Folk_Ireland/Trip-to-Pakistan/trip-to-pakistan.ly:41:26:27">
<g transform="translate(34.0927, 43.5665)">
<path transform="scale(0.0040, -0.0040)" d="M218 136c66 0 108 -36 108 -89c0 -89 -113 -183 -218 -183c-66 0 -108 36 -108 89c0 89 113 183 218 183z" fill="currentColor"/>
</g>
</a>
<g transform="translate(34.1577, 44.1165)">
<rect x="-0.0650" y="-0.3639" width="0.1300" height="2.7917" ry="0.0400" fill="currentColor"/>
</g>
<g transform="translate(61.3849, 42.1305)">
<polygon stroke-linejoin="round" stroke-linecap="round" stroke-width="0.0800" fill="currentColor" stroke="currentColor" points="3.3651 -0.4380 3.3651 0.0100 0.0400 0.2240 0.0400 -0.2240"/>
</g>
<a style="color:inherit;" xlink:href="textedit:///Users/marc.mouries/projects/Sheet-Music/Folk_Ireland/Trip-to-Pakistan/trip-to-pakistan.ly:41:29:30">
<g transform="translate(37.1177, 44.6665)">
<path transform="scale(0.0040, -0.0040)" d="M218 136c66 0 108 -36 108 -89c0 -89 -113 -183 -218 -183c-66 0 -108 36 -108 89c0 89 113 183 218 183z" fill="currentColor"/>
</g>
</a>
<g transform="translate(37.1827, 44.1165)">
<rect x="-0.0650" y="0.7361" width="0.1300" height="2.3360" ry="0.0400" fill="currentColor"/>
</g>
<g transform="translate(54.8348, 41.7025)">
<polygon stroke-linejoin="round" stroke-linecap="round" stroke-width="0.0800" fill="currentColor" stroke="currentColor" points="3.3651 -0.0100 3.3651 0.4380 0.0400 0.2240 0.0400 -0.2240"/>
</g>
<g transform="translate(47.0264, 47.2025)">
<polygon stroke-linejoin="round" stroke-linecap="round" stroke-width="0.0800" fill="currentColor" stroke="currentColor" points="3.6151 -0.8960 3.6151 -0.4480 0.0400 0.2240 0.0400 -0.2240"/>
</g>
<a style="color:inherit;" xlink:href="textedit:///Users/marc.mouries/projects/Sheet-Music/Folk_Ireland/Trip-to-Pakistan/trip-to-pakistan.ly:21:12:13">
<g transform="translate(41.7805, 40.0154)">
<text font-family="sans-serif" font-size="2.6163" text-anchor="start" fill="currentColor">
<tspan>G</tspan>
</text>
</g>
</a>
<a style="color:inherit;" xlink:href="textedit:///Users/marc.mouries/projects/Sheet-Music/Folk_Ireland/Trip-to-Pakistan/trip-to-pakistan.ly:41:34:35">
<g transform="translate(41.7805, 44.1165)">
<path transform="scale(0.0040, -0.0040)" d="M218 136c66 0 108 -36 108 -89c0 -89 -113 -183 -218 -183c-66 0 -108 36 -108 89c0 89 113 183 218 183z" fill="currentColor"/>
</g>
</a>
<g transform="translate(41.8455, 44.1165)">
<rect x="-0.0650" y="0.1861" width="0.1300" height="3.4806" ry="0.0400" fill="currentColor"/>
</g>
<g transform="translate(34.0927, 46.5305)">
<polygon stroke-linejoin="round" stroke-linecap="round" stroke-width="0.0800" fill="currentColor" stroke="currentColor" points="3.1151 0.4480 3.1151 0.8960 0.0400 0.2240 0.0400 -0.2240"/>
</g>
<a style="color:inherit;" xlink:href="textedit:///Users/marc.mouries/projects/Sheet-Music/Folk_Ireland/Trip-to-Pakistan/trip-to-pakistan.ly:41:37:38">
<g transform="translate(47.0264, 44.1165)">
<path transform="scale(0.0040, -0.0040)" d="M218 136c66 0 108 -36 108 -89c0 -89 -113 -183 -218 -183c-66 0 -108 36 -108 89c0 89 113 183 218 183z" fill="currentColor"/>
</g>
</a>
<g transform="translate(47.0914, 44.1165)">
<rect x="-0.0650" y="0.1861" width="0.1300" height="2.8879" ry="0.0400" fill="currentColor"/>
</g>
<g transform="translate(23.5549, 41.0305)">
<polygon stroke-linejoin="round" stroke-linecap="round" stroke-width="0.0800" fill="currentColor" stroke="currentColor" points="3.1151 0.4480 3.1151 0.8960 0.0400 0.2240 0.0400 -0.2240"/>
</g>
<a style="color:inherit;" xlink:href="textedit:///Users/marc.mouries/projects/Sheet-Music/Folk_Ireland/Trip-to-Pakistan/trip-to-pakistan.ly:41:42:43">
<g transform="translate(50.5514, 43.0165)">
<path transform="scale(0.0040, -0.0040)" d="M218 136c66 0 108 -36 108 -89c0 -89 -113 -183 -218 -183c-66 0 -108 36 -108 89c0 89 113 183 218 183z" fill="currentColor"/>
</g>
</a>
<g transform="translate(50.6164, 44.1165)">
<rect x="-0.0650" y="-0.9139" width="0.1300" height="3.3398" ry="0.0400" fill="currentColor"/>
</g>
<a style="color:inherit;" xlink:href="textedit:///Users/marc.mouries/projects/Sheet-Music/Folk_Ireland/Trip-to-Pakistan/trip-to-pakistan.ly:41:19:20">
<g transform="translate(25.4057, 44.1165)">
<path stroke-width="0.0800" stroke-linejoin="round" stroke-linecap="round" stroke="currentColor" fill="currentColor" d="M1.6042 -0.1600C1.8354 -1.1375 2.8818 -1.8232 3.8704 -1.6450L3.8704 -1.6450C2.9476 -1.7229 1.9012 -1.0372 1.6042 -0.1600z"/>
</g>
</a>
<a style="color:inherit;" xlink:href="textedit:///Users/marc.mouries/projects/Sheet-Music/Folk_Ireland/Trip-to-Pakistan/trip-to-pakistan.ly:21:18:19">
<g transform="translate(53.6605, 40.0154)">
<text font-family="sans-serif" font-size="2.6163" text-anchor="start" fill="currentColor">
<tspan>D</tspan>
</text>
</g>
</a>
<a style="color:inherit;" xlink:href="textedit:///Users/marc.mouries/projects/Sheet-Music/Folk_Ireland/Trip-to-Pakistan/trip-to-pakistan.ly:41:47:48">
<g transform="translate(53.6605, 44.6665)">
<path transform="scale(0.0040, -0.0040)" d="M218 136c66 0 108 -36 108 -89c0 -89 -113 -183 -218 -183c-66 0 -108 36 -108 89c0 89 113 183 218 183z" fill="currentColor"/>
</g>
</a>
<g transform="translate(54.8998, 44.1165)">
<rect x="-0.0650" y="-2.4099" width="0.1300" height="2.7738" ry="0.0400" fill="currentColor"/>
</g>
<g transform="translate(16.5048, 42.8025)">
<polygon stroke-linejoin="round" stroke-linecap="round" stroke-width="0.0800" fill="currentColor" stroke="currentColor" points="3.6151 -0.8960 3.6151 -0.4480 0.0400 0.2240 0.0400 -0.2240"/>
</g>
<a style="color:inherit;" xlink:href="textedit:///Users/marc.mouries/projects/Sheet-Music/Folk_Ireland/Trip-to-Pakistan/trip-to-pakistan.ly:41:52:53">
<g transform="translate(56.9356, 45.2165)">
<path transform="scale(0.0040, -0.0040)" d="M218 136c66 0 108 -36 108 -89c0 -89 -113 -183 -218 -183c-66 0 -108 36 -108 89c0 89 113 183 218 183z" fill="currentColor"/>
</g>
</a>
<g transform="translate(58.1748, 44.1165)">
<rect x="-0.0650" y="-2.2041" width="0.1300" height="3.1180" ry="0.0400" fill="currentColor"/>
</g>
<a style="color:inherit;" xlink:href="textedit:///Users/marc.mouries/projects/Sheet-Music/Folk_Ireland/Trip-to-Pakistan/trip-to-pakistan.ly:41:55:56">
<g transform="translate(60.2107, 45.7665)">
<path transform="scale(0.0040, -0.0040)" d="M218 136c66 0 108 -36 108 -89c0 -89 -113 -183 -218 -183c-66 0 -108 36 -108 89c0 89 113 183 218 183z" fill="currentColor"/>
</g>
</a>
<g transform="translate(61.4499, 44.1165)">
<rect x="-0.0650" y="-1.9901" width="0.1300" height="3.4540" ry="0.0400" fill="currentColor"/>
</g>
<a style="color:inherit;" xlink:href="textedit:///Users/marc.mouries/projects/Sheet-Music/Folk_Ireland/Trip-to-Pakistan/trip-to-pakistan.ly:41:60:61">
<g transform="translate(63.4857, 45.2165)">
<path transform="scale(0.0040, -0.0040)" d="M218 136c66 0 108 -36 108 -89c0 -89 -113 -183 -218 -183c-66 0 -108 36 -108 89c0 89 113 183 218 183z" fill="currentColor"/>
</g>
</a>
<g transform="translate(64.7249, 44.1165)">
<rect x="-0.0650" y="-2.1959" width="0.1300" height="3.1098" ry="0.0400" fill="currentColor"/>
</g>
<a style="color:inherit;" xlink:href="textedit:///Users/marc.mouries/projects/Sheet-Music/Folk_Ireland/Trip-to-Pakistan/trip-to-pakistan.ly:42:8:9">
<g transform="translate(68.3421, 46.3165)">
<path transform="scale(0.0040, -0.0040)" d="M218 136c66 0 108 -36 108 -89c0 -89 -113 -183 -218 -183c-66 0 -108 36 -108 89c0 89 113 183 218 183z" fill="currentColor"/>
</g>
</a>
<g transform="translate(69.5813, 44.1165)">
<rect x="-0.0650" y="-1.3260" width="0.1300" height="3.3398" ry="0.0400" fill="currentColor"/>
</g>
<a style="color:inherit;" xlink:href="textedit:///Users/marc.mouries/projects/Sheet-Music/Folk_Ireland/Trip-to-Pakistan/trip-to-pakistan.ly:42:12:13">
<g transform="translate(71.8671, 45.2165)">
<path transform="scale(0.0040, -0.0040)" d="M218 136c66 0 108 -36 108 -89c0 -89 -113 -183 -218 -183c-66 0 -108 36 -108 89c0 89 113 183 218 183z" fill="currentColor"/>
</g>
</a>
<g transform="translate(73.1063, 44.1165)">
<rect x="-0.0650" y="-1.9740" width="0.1300" height="2.8879" ry="0.0400" fill="currentColor"/>
</g>
<a style="color:inherit;" xlink:href="textedit:///Users/marc.mouries/projects/Sheet-Music/Folk_Ireland/Trip-to-Pakistan/trip-to-pakistan.ly:42:15:16">
<g transform="translate(75.3922, 44.1165)">
<path transform="scale(0.0040, -0.0040)" d="M218 136c66 0 108 -36 108 -89c0 -89 -113 -183 -218 -183c-66 0 -108 36 -108 89c0 89 113 183 218 183z" fill="currentColor"/>
</g>
</a>
<g transform="translate(76.6314, 44.1165)">
<rect x="-0.0650" y="-3.0722" width="0.1300" height="2.8860" ry="0.0400" fill="currentColor"/>
</g>
<a style="color:inherit;" xlink:href="textedit:///Users/marc.mouries/projects/Sheet-Music/Folk_Ireland/Trip-to-Pakistan/trip-to-pakistan.ly:42:18:19">
<g transform="translate(78.4172, 45.2165)">
<path transform="scale(0.0040, -0.0040)" d="M218 136c66 0 108 -36 108 -89c0 -89 -113 -183 -218 -183c-66 0 -108 36 -108 89c0 89 113 183 218 183z" fill="currentColor"/>
</g>
</a>
<g transform="translate(79.6565, 44.1165)">
<rect x="-0.0650" y="-2.4278" width="0.1300" height="3.3417" ry="0.0400" fill="currentColor"/>
</g>
<a style="color:inherit;" xlink:href="textedit:///Users/marc.mouries/projects/Sheet-Music/Folk_Ireland/Trip-to-Pakistan/trip-to-pakistan.ly:21:28:29">
<g transform="translate(81.8583, 40.0154)">
<text font-family="sans-serif" font-size="2.6163" text-anchor="start" fill="currentColor">
<tspan>C</tspan>
</text>
</g>
</a>
<a style="color:inherit;" xlink:href="textedit:///Users/marc.mouries/projects/Sheet-Music/Folk_Ireland/Trip-to-Pakistan/trip-to-pakistan.ly:42:22:23">
<g transform="translate(81.8583, 43.5665)">
<path transform="scale(0.0040, -0.0040)" d="M218 136c66 0 108 -36 108 -89c0 -89 -113 -183 -218 -183c-66 0 -108 36 -108 89c0 89 113 183 218 183z" fill="currentColor"/>
</g>
</a>
<g transform="translate(81.9233, 44.1165)">
<rect x="-0.0650" y="-0.3639" width="0.1300" height="3.6639" ry="0.0400" fill="currentColor"/>
</g>
<a style="color:inherit;" xlink:href="textedit:///Users/marc.mouries/projects/Sheet-Music/Folk_Ireland/Trip-to-Pakistan/trip-to-pakistan.ly:42:26:27">
<g transform="translate(87.1042, 43.5665)">
<path transform="scale(0.0040, -0.0040)" d="M218 136c66 0 108 -36 108 -89c0 -89 -113 -183 -218 -183c-66 0 -108 36 -108 89c0 89 113 183 218 183z" fill="currentColor"/>
</g>
</a>
<g transform="translate(87.1692, 44.1165)">
<rect x="-0.0650" y="-0.3639" width="0.1300" height="2.7917" ry="0.0400" fill="currentColor"/>
</g>
<a style="color:inherit;" xlink:href="textedit:///Users/marc.mouries/projects/Sheet-Music/Folk_Ireland/Trip-to-Pakistan/trip-to-pakistan.ly:42:29:30">
<g transform="translate(90.1292, 44.6665)">
<path transform="scale(0.0040, -0.0040)" d="M218 136c66 0 108 -36 108 -89c0 -89 -113 -183 -218 -183c-66 0 -108 36 -108 89c0 89 113 183 218 183z" fill="currentColor"/>
</g>
</a>
<g transform="translate(90.1942, 44.1165)">
<rect x="-0.0650" y="0.7361" width="0.1300" height="2.3360" ry="0.0400" fill="currentColor"/>
</g>
<a style="color:inherit;" xlink:href="textedit:///Users/marc.mouries/projects/Sheet-Music/Folk_Ireland/Trip-to-Pakistan/trip-to-pakistan.ly:21:32:33">
<g transform="translate(94.6883, 40.0154)">
<text font-family="sans-serif" font-size="2.6163" text-anchor="start" fill="currentColor">
<tspan>G</tspan>
</text>
</g>
</a>
<a style="color:inherit;" xlink:href="textedit:///Users/marc.mouries/projects/Sheet-Music/Folk_Ireland/Trip-to-Pakistan/trip-to-pakistan.ly:42:34:35">
<g transform="translate(94.6883, 44.1165)">
<path transform="scale(0.0040, -0.0040)" d="M218 136c66 0 108 -36 108 -89c0 -89 -113 -183 -218 -183c-66 0 -108 36 -108 89c0 89 113 183 218 183z" fill="currentColor"/>
</g>
</a>
<g transform="translate(95.9275, 44.1165)">
<rect x="-0.0650" y="-3.2959" width="0.1300" height="3.1098" ry="0.0400" fill="currentColor"/>
</g>
<a style="color:inherit;" xlink:href="textedit:///Users/marc.mouries/projects/Sheet-Music/Folk_Ireland/Trip-to-Pakistan/trip-to-pakistan.ly:42:40:41">
<g transform="translate(97.9634, 44.6665)">
<path transform="scale(0.0040, -0.0040)" d="M218 136c66 0 108 -36 108 -89c0 -89 -113 -183 -218 -183c-66 0 -108 36 -108 89c0 89 113 183 218 183z" fill="currentColor"/>
</g>
</a>
<g transform="translate(99.2026, 44.1165)">
<rect x="-0.0650" y="-3.0901" width="0.1300" height="3.4540" ry="0.0400" fill="currentColor"/>
</g>
<g transform="translate(109.3509, 44.1165)">
<rect x="-0.0650" y="-3.3000" width="0.1300" height="3.5910" ry="0.0400" fill="currentColor"/>
</g>
<a style="color:inherit;" xlink:href="textedit:///Users/marc.mouries/projects/Sheet-Music/Folk_Ireland/Trip-to-Pakistan/trip-to-pakistan.ly:42:45:46">
<g transform="translate(101.2384, 45.2165)">
<path transform="scale(0.0040, -0.0040)" d="M218 136c66 0 108 -36 108 -89c0 -89 -113 -183 -218 -183c-66 0 -108 36 -108 89c0 89 113 183 218 183z" fill="currentColor"/>
</g>
</a>
<g transform="translate(102.4776, 44.1165)">
<rect x="-0.0650" y="-2.4260" width="0.1300" height="3.3398" ry="0.0400" fill="currentColor"/>
</g>
<a style="color:inherit;" xlink:href="textedit:///Users/marc.mouries/projects/Sheet-Music/Folk_Ireland/Trip-to-Pakistan/trip-to-pakistan.ly:42:53:54">
<g transform="translate(108.0386, 44.6665)">
<path transform="scale(0.0040, -0.0040)" d="M314 65c0 23 -19 41 -42 41c-39 0 -204 -110 -231 -143c-7 -8 -10 -18 -10 -28c0 -23 19 -41 42 -41c39 0 203 110 230 143c7 8 11 18 11 28zM262 136c41 0 82 -14 82 -71c0 -26 -16 -112 -74 -151c-25 -17 -87 -50 -187 -50c-41 0 -83 14 -83 71c0 26 16 112 74 151
c25 17 88 50 188 50z" fill="currentColor"/>
</g>
</a>
<a style="color:inherit;" xlink:href="textedit:///Users/marc.mouries/projects/Sheet-Music/Folk_Ireland/Trip-to-Pakistan/trip-to-pakistan.ly:42:50:51">
<g transform="translate(104.7635, 44.1165)">
<path transform="scale(0.0040, -0.0040)" d="M218 136c66 0 108 -36 108 -89c0 -89 -113 -183 -218 -183c-66 0 -108 36 -108 89c0 89 113 183 218 183z" fill="currentColor"/>
</g>
</a>
<g transform="translate(106.0027, 44.1165)">
<rect x="-0.0650" y="-3.0740" width="0.1300" height="2.8879" ry="0.0400" fill="currentColor"/>
</g>
<a style="color:inherit;" xlink:href="textedit:///Users/marc.mouries/projects/Sheet-Music/Folk_Ireland/Trip-to-Pakistan/trip-to-pakistan.ly:21:36:37">
<g transform="translate(108.0386, 40.0154)">
<text font-family="sans-serif" font-size="2.6163" text-anchor="start" fill="currentColor">
<tspan>D</tspan>
</text>
</g>
</a>
<g transform="translate(115.3285, 59.5665)">
<path transform="scale(0.0040, -0.0040)" d="M0 0c0 31 25 56 56 56s56 -25 56 -56s-25 -56 -56 -56s-56 25 -56 56z" fill="currentColor"/>
</g>
<g transform="translate(115.3285, 60.6665)">
<path transform="scale(0.0040, -0.0040)" d="M0 0c0 31 25 56 56 56s56 -25 56 -56s-25 -56 -56 -56s-56 25 -56 56z" fill="currentColor"/>
</g>
<g transform="translate(116.5684, 60.1165)">
<rect x="0.0000" y="-2.2000" width="0.6000" height="4.4000" ry="0.0000" fill="currentColor"/>
</g>
<g transform="translate(116.0784, 60.1165)">
<rect x="0.0000" y="-2.2000" width="0.1900" height="4.4000" ry="0.0000" fill="currentColor"/>
</g>
<g transform="translate(5.6906, 62.3165)">
<line stroke-linejoin="round" stroke-linecap="round" stroke-width="0.1000" stroke="currentColor" x1="0.0500" y1="0" x2="111.4279" y2="0"/>
</g>
<g transform="translate(5.6906, 61.2165)">
<line stroke-linejoin="round" stroke-linecap="round" stroke-width="0.1000" stroke="currentColor" x1="0.0500" y1="0" x2="111.4279" y2="0"/>
</g>
<g transform="translate(5.6906, 60.1165)">
<line stroke-linejoin="round" stroke-linecap="round" stroke-width="0.1000" stroke="currentColor" x1="0.0500" y1="0" x2="111.4279" y2="0"/>
</g>
<g transform="translate(5.6906, 59.0165)">
<line stroke-linejoin="round" stroke-linecap="round" stroke-width="0.1000" stroke="currentColor" x1="0.0500" y1="0" x2="111.4279" y2="0"/>
</g>
<g transform="translate(5.6906, 57.9165)">
<line stroke-linejoin="round" stroke-linecap="round" stroke-width="0.1000" stroke="currentColor" x1="0.0500" y1="0" x2="111.4279" y2="0"/>
</g>
<g transform="translate(94.6837, 60.1165)">
<rect x="0.0000" y="-2.2000" width="0.1900" height="4.4000" ry="0.0000" fill="currentColor"/>
</g>
<g transform="translate(67.1092, 60.1165)">
<rect x="0.0000" y="-2.2000" width="0.1900" height="4.4000" ry="0.0000" fill="currentColor"/>
</g>
<g transform="translate(40.7847, 60.1165)">
<rect x="0.0000" y="-2.2000" width="0.1900" height="4.4000" ry="0.0000" fill="currentColor"/>
</g>
<g transform="translate(13.5806, 59.5665)">
<path transform="scale(0.0040, -0.0040)" d="M0 0c0 31 25 56 56 56s56 -25 56 -56s-25 -56 -56 -56s-56 25 -56 56z" fill="currentColor"/>
</g>
<g transform="translate(13.5806, 60.6665)">
<path transform="scale(0.0040, -0.0040)" d="M0 0c0 31 25 56 56 56s56 -25 56 -56s-25 -56 -56 -56s-56 25 -56 56z" fill="currentColor"/>
</g>
<g transform="translate(13.0906, 60.1165)">
<rect x="0.0000" y="-2.2000" width="0.1900" height="4.4000" ry="0.0000" fill="currentColor"/>
</g>
<g transform="translate(12.1906, 60.1165)">
<rect x="0.0000" y="-2.2000" width="0.6000" height="4.4000" ry="0.0000" fill="currentColor"/>
</g>
<g transform="translate(6.4906, 61.2165)">
<path transform="scale(0.0040, -0.0040)" d="M266 -635h-6c-108 0 -195 88 -195 197c0 58 53 103 112 103c54 0 95 -47 95 -103c0 -52 -43 -95 -95 -95c-11 0 -21 2 -31 6c26 -39 68 -65 117 -65h4zM461 -203c68 24 113 90 113 164c0 90 -66 179 -173 190c19 -89 48 -242 60 -354zM74 28c0 -145 141 -247 264 -247
c1 0 47 0 82 6c-7 64 -29 203 -63 364c-79 -8 -124 -61 -124 -119c0 -44 25 -91 81 -123c5 -5 7 -10 7 -15c0 -11 -10 -22 -22 -22c-15 0 -126 62 -126 187c0 88 58 174 160 197c-14 58 -29 117 -46 175c-107 -121 -213 -243 -213 -403zM250 553c-29 96 -52 170 -52 346
c0 115 55 224 149 292c6 5 14 5 20 0c68 -80 133 -245 133 -358c0 -143 -86 -255 -180 -364c21 -68 39 -138 56 -207c2 0 7 1 13 1c155 0 256 -128 256 -261c0 -113 -74 -212 -180 -246c3 -35 5 -70 5 -105c0 -19 -1 -39 -2 -58c-7 -119 -88 -225 -202 -228l1 43
c93 2 153 92 159 191c1 18 2 37 2 55c0 31 -1 61 -4 92c-5 -1 -44 -8 -89 -8c-193 0 -333 180 -333 374c0 177 131 306 248 441zM428 916c0 34 1 66 -20 129c-99 -48 -162 -149 -162 -259c0 -52 12 -115 36 -194c80 97 146 198 146 324z" fill="currentColor"/>
</g>
<g transform="translate(9.9906, 57.9165)">
<path transform="scale(0.0040, -0.0040)" d="M0 119c0 8 5 15 13 18l46 17v158c0 10 8 19 18 19s19 -9 19 -19v-145l83 31v158c0 10 9 19 19 19s18 -9 18 -19v-145l32 12c2 1 5 1 7 1c11 0 20 -9 20 -20v-60c0 -8 -5 -16 -13 -19l-46 -16v-160l32 11c2 1 5 1 7 1c11 0 20 -9 20 -20v-60c0 -8 -5 -15 -13 -18l-46 -17
v-158c0 -10 -8 -19 -18 -19s-19 9 -19 19v145l-83 -31v-158c0 -10 -9 -19 -19 -19s-18 9 -18 19v145l-32 -12c-2 -1 -5 -1 -7 -1c-11 0 -20 9 -20 20v60c0 8 5 16 13 19l46 16v160l-32 -11c-2 -1 -5 -1 -7 -1c-11 0 -20 9 -20 20v60zM179 95l-83 -30v-160l83 30v160z" fill="currentColor"/>
</g>
<g transform="translate(4.8028, 56.8426)">
<text font-family="serif" font-size="1.7461" text-anchor="start" fill="currentColor">
<tspan>9</tspan>
</text>
</g>
<g transform="translate(103.5055, 58.1305)">
<polygon stroke-linejoin="round" stroke-linecap="round" stroke-width="0.0800" fill="currentColor" stroke="currentColor" points="3.2465 -0.4380 3.2465 0.0100 0.0400 0.2240 0.0400 -0.2240"/>
</g>
<a style="color:inherit;" xlink:href="textedit:///Users/marc.mouries/projects/Sheet-Music/Folk_Ireland/Trip-to-Pakistan/trip-to-pakistan.ly:22:2:3">
<g transform="translate(15.3306, 56.7418)">
<text font-family="sans-serif" font-size="2.6163" text-anchor="start" fill="currentColor">
<tspan>B</tspan>
</text>
</g>
<g transform="translate(17.1402, 56.7418)">
<text font-family="sans-serif" font-size="2.6163" text-anchor="start" fill="currentColor">
<tspan>m</tspan>
</text>
</g>
</a>
<a style="color:inherit;" xlink:href="textedit:///Users/marc.mouries/projects/Sheet-Music/Folk_Ireland/Trip-to-Pakistan/trip-to-pakistan.ly:48:8:9">
<g transform="translate(15.3306, 61.7665)">
<path transform="scale(0.0040, -0.0040)" d="M218 136c66 0 108 -36 108 -89c0 -89 -113 -183 -218 -183c-66 0 -108 36 -108 89c0 89 113 183 218 183z" fill="currentColor"/>
</g>
</a>
<g transform="translate(16.5698, 60.1165)">
<rect x="-0.0650" y="-1.9902" width="0.1300" height="3.4541" ry="0.0400" fill="currentColor"/>
</g>
<g transform="translate(97.1925, 57.7025)">
<polygon stroke-linejoin="round" stroke-linecap="round" stroke-width="0.0800" fill="currentColor" stroke="currentColor" points="3.2465 -0.0100 3.2465 0.4380 0.0400 0.2240 0.0400 -0.2240"/>
</g>
<a style="color:inherit;" xlink:href="textedit:///Users/marc.mouries/projects/Sheet-Music/Folk_Ireland/Trip-to-Pakistan/trip-to-pakistan.ly:48:13:14">
<g transform="translate(18.4871, 61.2165)">
<path transform="scale(0.0040, -0.0040)" d="M218 136c66 0 108 -36 108 -89c0 -89 -113 -183 -218 -183c-66 0 -108 36 -108 89c0 89 113 183 218 183z" fill="currentColor"/>
</g>
</a>
<g transform="translate(19.7263, 60.1165)">
<rect x="-0.0650" y="-2.1958" width="0.1300" height="3.1097" ry="0.0400" fill="currentColor"/>
</g>
<g transform="translate(89.0570, 58.8025)">
<polygon stroke-linejoin="round" stroke-linecap="round" stroke-width="0.0800" fill="currentColor" stroke="currentColor" points="3.4965 -0.8960 3.4965 -0.4480 0.0400 0.2240 0.0400 -0.2240"/>
</g>
<a style="color:inherit;" xlink:href="textedit:///Users/marc.mouries/projects/Sheet-Music/Folk_Ireland/Trip-to-Pakistan/trip-to-pakistan.ly:48:17:18">
<g transform="translate(21.8935, 60.1165)">
<path transform="scale(0.0040, -0.0040)" d="M218 136c66 0 108 -36 108 -89c0 -89 -113 -183 -218 -183c-66 0 -108 36 -108 89c0 89 113 183 218 183z" fill="currentColor"/>
</g>
</a>
<g transform="translate(23.1328, 60.1165)">
<rect x="-0.0650" y="-3.2810" width="0.1300" height="3.0949" ry="0.0400" fill="currentColor"/>
</g>
<g transform="translate(82.7440, 57.7025)">
<polygon stroke-linejoin="round" stroke-linecap="round" stroke-width="0.0800" fill="currentColor" stroke="currentColor" points="3.4965 -0.8960 3.4965 -0.4480 0.0400 0.2240 0.0400 -0.2240"/>
</g>
<a style="color:inherit;" xlink:href="textedit:///Users/marc.mouries/projects/Sheet-Music/Folk_Ireland/Trip-to-Pakistan/trip-to-pakistan.ly:48:20:21">
<g transform="translate(24.8000, 61.7665)">
<path transform="scale(0.0040, -0.0040)" d="M218 136c66 0 108 -36 108 -89c0 -89 -113 -183 -218 -183c-66 0 -108 36 -108 89c0 89 113 183 218 183z" fill="currentColor"/>
</g>
</a>
<g transform="translate(26.0393, 60.1165)">
<rect x="-0.0650" y="-2.4330" width="0.1300" height="3.8969" ry="0.0400" fill="currentColor"/>
</g>
<g transform="translate(76.4310, 57.7025)">
<polygon stroke-linejoin="round" stroke-linecap="round" stroke-width="0.0800" fill="currentColor" stroke="currentColor" points="2.9965 0.8760 2.9965 1.3240 0.0400 0.2240 0.0400 -0.2240"/>
</g>
<a style="color:inherit;" xlink:href="textedit:///Users/marc.mouries/projects/Sheet-Music/Folk_Ireland/Trip-to-Pakistan/trip-to-pakistan.ly:22:8:9">
<g transform="translate(27.9565, 56.7418)">
<text font-family="sans-serif" font-size="2.6163" text-anchor="start" fill="currentColor">
<tspan>G</tspan>
</text>
</g>
</a>
<a style="color:inherit;" xlink:href="textedit:///Users/marc.mouries/projects/Sheet-Music/Folk_Ireland/Trip-to-Pakistan/trip-to-pakistan.ly:48:24:25">
<g transform="translate(27.9565, 61.2165)">
<path transform="scale(0.0040, -0.0040)" d="M218 136c66 0 108 -36 108 -89c0 -89 -113 -183 -218 -183c-66 0 -108 36 -108 89c0 89 113 183 218 183z" fill="currentColor"/>
</g>
</a>
<g transform="translate(29.1957, 60.1165)">
<rect x="-0.0650" y="-2.4264" width="0.1300" height="3.3402" ry="0.0400" fill="currentColor"/>
</g>
<g transform="translate(69.6180, 58.8025)">
<polygon stroke-linejoin="round" stroke-linecap="round" stroke-width="0.0800" fill="currentColor" stroke="currentColor" points="3.4965 -0.8960 3.4965 -0.4480 0.0400 0.2240 0.0400 -0.2240"/>
</g>
<a style="color:inherit;" xlink:href="textedit:///Users/marc.mouries/projects/Sheet-Music/Folk_Ireland/Trip-to-Pakistan/trip-to-pakistan.ly:48:28:29">
<g transform="translate(31.3630, 60.1165)">
<path transform="scale(0.0040, -0.0040)" d="M218 136c66 0 108 -36 108 -89c0 -89 -113 -183 -218 -183c-66 0 -108 36 -108 89c0 89 113 183 218 183z" fill="currentColor"/>
</g>
</a>
<g transform="translate(32.6022, 60.1165)">
<rect x="-0.0650" y="-3.0736" width="0.1300" height="2.8875" ry="0.0400" fill="currentColor"/>
</g>
<g transform="translate(61.7325, 59.0165)">
<polygon stroke-linejoin="round" stroke-linecap="round" stroke-width="0.0800" fill="currentColor" stroke="currentColor" points="3.2465 -0.4380 3.2465 0.0100 0.0400 0.2240 0.0400 -0.2240"/>
</g>
<a style="color:inherit;" xlink:href="textedit:///Users/marc.mouries/projects/Sheet-Music/Folk_Ireland/Trip-to-Pakistan/trip-to-pakistan.ly:48:31:32">
<g transform="translate(34.2695, 61.7665)">
<path transform="scale(0.0040, -0.0040)" d="M218 136c66 0 108 -36 108 -89c0 -89 -113 -183 -218 -183c-66 0 -108 36 -108 89c0 89 113 183 218 183z" fill="currentColor"/>
</g>
</a>
<g transform="translate(35.5087, 60.1165)">
<rect x="-0.0650" y="-1.9902" width="0.1300" height="3.4541" ry="0.0400" fill="currentColor"/>
</g>
<g transform="translate(55.6695, 58.1305)">
<polygon stroke-linejoin="round" stroke-linecap="round" stroke-width="0.0800" fill="currentColor" stroke="currentColor" points="3.2465 -0.4380 3.2465 0.0100 0.0400 0.2240 0.0400 -0.2240"/>
</g>
<a style="color:inherit;" xlink:href="textedit:///Users/marc.mouries/projects/Sheet-Music/Folk_Ireland/Trip-to-Pakistan/trip-to-pakistan.ly:48:35:36">
<g transform="translate(37.4260, 61.2165)">
<path transform="scale(0.0040, -0.0040)" d="M218 136c66 0 108 -36 108 -89c0 -89 -113 -183 -218 -183c-66 0 -108 36 -108 89c0 89 113 183 218 183z" fill="currentColor"/>
</g>
</a>
<g transform="translate(38.6652, 60.1165)">
<rect x="-0.0650" y="-2.1958" width="0.1300" height="3.1097" ry="0.0400" fill="currentColor"/>
</g>
<g transform="translate(49.6065, 58.1305)">
<polygon stroke-linejoin="round" stroke-linecap="round" stroke-width="0.0800" fill="currentColor" stroke="currentColor" points="2.9965 0.4480 2.9965 0.8960 0.0400 0.2240 0.0400 -0.2240"/>
</g>
<g transform="translate(43.2935, 59.0165)">
<polygon stroke-linejoin="round" stroke-linecap="round" stroke-width="0.0800" fill="currentColor" stroke="currentColor" points="3.2465 -0.4380 3.2465 0.0100 0.0400 0.2240 0.0400 -0.2240"/>
</g>
<a style="color:inherit;" xlink:href="textedit:///Users/marc.mouries/projects/Sheet-Music/Folk_Ireland/Trip-to-Pakistan/trip-to-pakistan.ly:22:12:13">
<g transform="translate(42.1193, 56.7418)">
<text font-family="sans-serif" font-size="2.6163" text-anchor="start" fill="currentColor">
<tspan>E</tspan>
</text>
</g>
<g transform="translate(43.7582, 56.7418)">
<text font-family="sans-serif" font-size="2.6163" text-anchor="start" fill="currentColor">
<tspan>m</tspan>
</text>
</g>
</a>
<a style="color:inherit;" xlink:href="textedit:///Users/marc.mouries/projects/Sheet-Music/Folk_Ireland/Trip-to-Pakistan/trip-to-pakistan.ly:49:8:9">
<g transform="translate(42.1193, 62.3165)">
<path transform="scale(0.0040, -0.0040)" d="M218 136c66 0 108 -36 108 -89c0 -89 -113 -183 -218 -183c-66 0 -108 36 -108 89c0 89 113 183 218 183z" fill="currentColor"/>
</g>
</a>
<g transform="translate(43.3585, 60.1165)">
<rect x="-0.0650" y="-1.1042" width="0.1300" height="3.1181" ry="0.0400" fill="currentColor"/>
</g>
<g transform="translate(35.4437, 58.1305)">
<polygon stroke-linejoin="round" stroke-linecap="round" stroke-width="0.0800" fill="currentColor" stroke="currentColor" points="3.2465 -0.4380 3.2465 0.0100 0.0400 0.2240 0.0400 -0.2240"/>
</g>
<a style="color:inherit;" xlink:href="textedit:///Users/marc.mouries/projects/Sheet-Music/Folk_Ireland/Trip-to-Pakistan/trip-to-pakistan.ly:49:13:14">
<g transform="translate(45.2758, 61.7665)">
<path transform="scale(0.0040, -0.0040)" d="M218 136c66 0 108 -36 108 -89c0 -89 -113 -183 -218 -183c-66 0 -108 36 -108 89c0 89 113 183 218 183z" fill="currentColor"/>
</g>
</a>
<g transform="translate(46.5150, 60.1165)">
<rect x="-0.0650" y="-1.3098" width="0.1300" height="2.7737" ry="0.0400" fill="currentColor"/>
</g>
<g transform="translate(29.1307, 57.7025)">
<polygon stroke-linejoin="round" stroke-linecap="round" stroke-width="0.0800" fill="currentColor" stroke="currentColor" points="3.4965 -0.8960 3.4965 -0.4480 0.0400 0.2240 0.0400 -0.2240"/>
</g>
<a style="color:inherit;" xlink:href="textedit:///Users/marc.mouries/projects/Sheet-Music/Folk_Ireland/Trip-to-Pakistan/trip-to-pakistan.ly:49:17:18">
<g transform="translate(48.4323, 61.2165)">
<path transform="scale(0.0040, -0.0040)" d="M218 136c66 0 108 -36 108 -89c0 -89 -113 -183 -218 -183c-66 0 -108 36 -108 89c0 89 113 183 218 183z" fill="currentColor"/>
</g>
</a>
<g transform="translate(49.6715, 60.1165)">
<rect x="-0.0650" y="-1.9716" width="0.1300" height="2.8855" ry="0.0400" fill="currentColor"/>
</g>
<a style="color:inherit;" xlink:href="textedit:///Users/marc.mouries/projects/Sheet-Music/Folk_Ireland/Trip-to-Pakistan/trip-to-pakistan.ly:48:33:34">
<g transform="translate(34.2695, 60.1165)">
<path stroke-width="0.0800" stroke-linejoin="round" stroke-linecap="round" stroke="currentColor" fill="currentColor" d="M0.7047 2.7450C1.6253 3.4216 3.1303 3.2380 3.8612 2.3600L3.8612 2.3600C3.1158 3.1189 1.6107 3.3025 0.7047 2.7450z"/>
</g>
</a>
<a style="color:inherit;" xlink:href="textedit:///Users/marc.mouries/projects/Sheet-Music/Folk_Ireland/Trip-to-Pakistan/trip-to-pakistan.ly:49:20:21">
<g transform="translate(51.3388, 62.3165)">
<path transform="scale(0.0040, -0.0040)" d="M218 136c66 0 108 -36 108 -89c0 -89 -113 -183 -218 -183c-66 0 -108 36 -108 89c0 89 113 183 218 183z" fill="currentColor"/>
</g>
</a>
<g transform="translate(52.5780, 60.1165)">
<rect x="-0.0650" y="-1.3284" width="0.1300" height="3.3423" ry="0.0400" fill="currentColor"/>
</g>
<g transform="translate(23.0678, 56.8165)">
<polygon stroke-linejoin="round" stroke-linecap="round" stroke-width="0.0800" fill="currentColor" stroke="currentColor" points="2.9965 0.6620 2.9965 1.1100 0.0400 0.2240 0.0400 -0.2240"/>
</g>
<a style="color:inherit;" xlink:href="textedit:///Users/marc.mouries/projects/Sheet-Music/Folk_Ireland/Trip-to-Pakistan/trip-to-pakistan.ly:49:24:25">
<g transform="translate(54.4953, 61.7665)">
<path transform="scale(0.0040, -0.0040)" d="M218 136c66 0 108 -36 108 -89c0 -89 -113 -183 -218 -183c-66 0 -108 36 -108 89c0 89 113 183 218 183z" fill="currentColor"/>
</g>
</a>
<g transform="translate(55.7345, 60.1165)">
<rect x="-0.0650" y="-1.9902" width="0.1300" height="3.4541" ry="0.0400" fill="currentColor"/>
</g>
<g transform="translate(16.5048, 58.1305)">
<polygon stroke-linejoin="round" stroke-linecap="round" stroke-width="0.0800" fill="currentColor" stroke="currentColor" points="3.2465 -0.4380 3.2465 0.0100 0.0400 0.2240 0.0400 -0.2240"/>
</g>
<a style="color:inherit;" xlink:href="textedit:///Users/marc.mouries/projects/Sheet-Music/Folk_Ireland/Trip-to-Pakistan/trip-to-pakistan.ly:49:28:29">
<g transform="translate(57.6518, 61.2165)">
<path transform="scale(0.0040, -0.0040)" d="M218 136c66 0 108 -36 108 -89c0 -89 -113 -183 -218 -183c-66 0 -108 36 -108 89c0 89 113 183 218 183z" fill="currentColor"/>
</g>
</a>
<g transform="translate(58.8910, 60.1165)">
<rect x="-0.0650" y="-2.1958" width="0.1300" height="3.1097" ry="0.0400" fill="currentColor"/>
</g>
<a style="color:inherit;" xlink:href="textedit:///Users/marc.mouries/projects/Sheet-Music/Folk_Ireland/Trip-to-Pakistan/trip-to-pakistan.ly:49:31:32">
<g transform="translate(60.5583, 62.3165)">
<path transform="scale(0.0040, -0.0040)" d="M218 136c66 0 108 -36 108 -89c0 -89 -113 -183 -218 -183c-66 0 -108 36 -108 89c0 89 113 183 218 183z" fill="currentColor"/>
</g>
</a>
<g transform="translate(61.7975, 60.1165)">
<rect x="-0.0650" y="-1.1042" width="0.1300" height="3.1181" ry="0.0400" fill="currentColor"/>
</g>
<a style="color:inherit;" xlink:href="textedit:///Users/marc.mouries/projects/Sheet-Music/Folk_Ireland/Trip-to-Pakistan/trip-to-pakistan.ly:49:34:35">
<g transform="translate(63.7148, 61.7665)">
<path transform="scale(0.0040, -0.0040)" d="M218 136c66 0 108 -36 108 -89c0 -89 -113 -183 -218 -183c-66 0 -108 36 -108 89c0 89 113 183 218 183z" fill="currentColor"/>
</g>
</a>
<g transform="translate(64.9540, 60.1165)">
<rect x="-0.0650" y="-1.3098" width="0.1300" height="2.7737" ry="0.0400" fill="currentColor"/>
</g>
<a style="color:inherit;" xlink:href="textedit:///Users/marc.mouries/projects/Sheet-Music/Folk_Ireland/Trip-to-Pakistan/trip-to-pakistan.ly:22:22:23">
<g transform="translate(68.4438, 56.7418)">
<text font-family="sans-serif" font-size="2.6163" text-anchor="start" fill="currentColor">
<tspan>D</tspan>
</text>
</g>
</a>
<a style="color:inherit;" xlink:href="textedit:///Users/marc.mouries/projects/Sheet-Music/Folk_Ireland/Trip-to-Pakistan/trip-to-pakistan.ly:50:8:9">
<g transform="translate(68.4438, 62.8665)">
<path transform="scale(0.0040, -0.0040)" d="M218 136c66 0 108 -36 108 -89c0 -89 -113 -183 -218 -183c-66 0 -108 36 -108 89c0 89 113 183 218 183z" fill="currentColor"/>
</g>
</a>
<g transform="translate(69.6830, 60.1165)">
<rect x="-0.0650" y="-1.3264" width="0.1300" height="3.8902" ry="0.0400" fill="currentColor"/>
</g>
<a style="color:inherit;" xlink:href="textedit:///Users/marc.mouries/projects/Sheet-Music/Folk_Ireland/Trip-to-Pakistan/trip-to-pakistan.ly:50:13:14">
<g transform="translate(71.8503, 61.7665)">
<path transform="scale(0.0040, -0.0040)" d="M218 136c66 0 108 -36 108 -89c0 -89 -113 -183 -218 -183c-66 0 -108 36 -108 89c0 89 113 183 218 183z" fill="currentColor"/>
</g>
</a>
<g transform="translate(73.0895, 60.1165)">
<rect x="-0.0650" y="-1.9736" width="0.1300" height="3.4375" ry="0.0400" fill="currentColor"/>
</g>
<a style="color:inherit;" xlink:href="textedit:///Users/marc.mouries/projects/Sheet-Music/Folk_Ireland/Trip-to-Pakistan/trip-to-pakistan.ly:50:17:18">
<g transform="translate(75.2568, 60.6665)">
<path transform="scale(0.0040, -0.0040)" d="M218 136c66 0 108 -36 108 -89c0 -89 -113 -183 -218 -183c-66 0 -108 36 -108 89c0 89 113 183 218 183z" fill="currentColor"/>
</g>
</a>
<g transform="translate(76.4960, 60.1165)">
<rect x="-0.0650" y="-2.3905" width="0.1300" height="2.7543" ry="0.0400" fill="currentColor"/>
</g>
<a style="color:inherit;" xlink:href="textedit:///Users/marc.mouries/projects/Sheet-Music/Folk_Ireland/Trip-to-Pakistan/trip-to-pakistan.ly:50:20:21">
<g transform="translate(78.1633, 62.8665)">
<path transform="scale(0.0040, -0.0040)" d="M218 136c66 0 108 -36 108 -89c0 -89 -113 -183 -218 -183c-66 0 -108 36 -108 89c0 89 113 183 218 183z" fill="currentColor"/>
</g>
</a>
<g transform="translate(79.4025, 60.1165)">
<rect x="-0.0650" y="-1.3375" width="0.1300" height="3.9014" ry="0.0400" fill="currentColor"/>
</g>
<a style="color:inherit;" xlink:href="textedit:///Users/marc.mouries/projects/Sheet-Music/Folk_Ireland/Trip-to-Pakistan/trip-to-pakistan.ly:50:24:25">
<g transform="translate(81.5698, 61.7665)">
<path transform="scale(0.0040, -0.0040)" d="M218 136c66 0 108 -36 108 -89c0 -89 -113 -183 -218 -183c-66 0 -108 36 -108 89c0 89 113 183 218 183z" fill="currentColor"/>
</g>
</a>
<g transform="translate(82.8090, 60.1165)">
<rect x="-0.0650" y="-2.4264" width="0.1300" height="3.8902" ry="0.0400" fill="currentColor"/>
</g>
<a style="color:inherit;" xlink:href="textedit:///Users/marc.mouries/projects/Sheet-Music/Folk_Ireland/Trip-to-Pakistan/trip-to-pakistan.ly:50:28:29">
<g transform="translate(84.9763, 60.6665)">
<path transform="scale(0.0040, -0.0040)" d="M218 136c66 0 108 -36 108 -89c0 -89 -113 -183 -218 -183c-66 0 -108 36 -108 89c0 89 113 183 218 183z" fill="currentColor"/>
</g>
</a>
<g transform="translate(86.2155, 60.1165)">
<rect x="-0.0650" y="-3.0736" width="0.1300" height="3.4375" ry="0.0400" fill="currentColor"/>
</g>
<a style="color:inherit;" xlink:href="textedit:///Users/marc.mouries/projects/Sheet-Music/Folk_Ireland/Trip-to-Pakistan/trip-to-pakistan.ly:50:31:32">
<g transform="translate(87.8828, 62.8665)">
<path transform="scale(0.0040, -0.0040)" d="M218 136c66 0 108 -36 108 -89c0 -89 -113 -183 -218 -183c-66 0 -108 36 -108 89c0 89 113 183 218 183z" fill="currentColor"/>
</g>
</a>
<g transform="translate(89.1220, 60.1165)">
<rect x="-0.0650" y="-1.3264" width="0.1300" height="3.8902" ry="0.0400" fill="currentColor"/>
</g>
<a style="color:inherit;" xlink:href="textedit:///Users/marc.mouries/projects/Sheet-Music/Folk_Ireland/Trip-to-Pakistan/trip-to-pakistan.ly:50:34:35">
<g transform="translate(91.2893, 61.7665)">
<path transform="scale(0.0040, -0.0040)" d="M218 136c66 0 108 -36 108 -89c0 -89 -113 -183 -218 -183c-66 0 -108 36 -108 89c0 89 113 183 218 183z" fill="currentColor"/>
</g>
</a>
<g transform="translate(92.5285, 60.1165)">
<rect x="-0.0650" y="-1.9736" width="0.1300" height="3.4375" ry="0.0400" fill="currentColor"/>
</g>
<a style="color:inherit;" xlink:href="textedit:///Users/marc.mouries/projects/Sheet-Music/Folk_Ireland/Trip-to-Pakistan/trip-to-pakistan.ly:22:32:33">
<g transform="translate(96.0183, 56.7418)">
<text font-family="sans-serif" font-size="2.6163" text-anchor="start" fill="currentColor">
<tspan>D</tspan>
</text>
</g>
</a>
<a style="color:inherit;" xlink:href="textedit:///Users/marc.mouries/projects/Sheet-Music/Folk_Ireland/Trip-to-Pakistan/trip-to-pakistan.ly:51:8:9">
<g transform="translate(96.0183, 60.6665)">
<path transform="scale(0.0040, -0.0040)" d="M218 136c66 0 108 -36 108 -89c0 -89 -113 -183 -218 -183c-66 0 -108 36 -108 89c0 89 113 183 218 183z" fill="currentColor"/>
</g>
</a>
<g transform="translate(97.2575, 60.1165)">
<rect x="-0.0650" y="-2.4098" width="0.1300" height="2.7737" ry="0.0400" fill="currentColor"/>
</g>
<g transform="translate(109.7066, 60.1165)">
<rect x="-0.0650" y="-1.6500" width="0.1300" height="3.5910" ry="0.0400" fill="currentColor"/>
</g>
<a style="color:inherit;" xlink:href="textedit:///Users/marc.mouries/projects/Sheet-Music/Folk_Ireland/Trip-to-Pakistan/trip-to-pakistan.ly:51:13:14">
<g transform="translate(99.1748, 61.2165)">
<path transform="scale(0.0040, -0.0040)" d="M218 136c66 0 108 -36 108 -89c0 -89 -113 -183 -218 -183c-66 0 -108 36 -108 89c0 89 113 183 218 183z" fill="currentColor"/>
</g>
</a>
<g transform="translate(100.4140, 60.1165)">
<rect x="-0.0650" y="-2.2042" width="0.1300" height="3.1181" ry="0.0400" fill="currentColor"/>
</g>
<a style="color:inherit;" xlink:href="textedit:///Users/marc.mouries/projects/Sheet-Music/Folk_Ireland/Trip-to-Pakistan/trip-to-pakistan.ly:51:24:25">
<g transform="translate(108.3943, 62.3165)">
<path transform="scale(0.0040, -0.0040)" d="M314 65c0 23 -19 41 -42 41c-39 0 -204 -110 -231 -143c-7 -8 -10 -18 -10 -28c0 -23 19 -41 42 -41c39 0 203 110 230 143c7 8 11 18 11 28zM262 136c41 0 82 -14 82 -71c0 -26 -16 -112 -74 -151c-25 -17 -87 -50 -187 -50c-41 0 -83 14 -83 71c0 26 16 112 74 151
c25 17 88 50 188 50z" fill="currentColor"/>
</g>
</a>
<a style="color:inherit;" xlink:href="textedit:///Users/marc.mouries/projects/Sheet-Music/Folk_Ireland/Trip-to-Pakistan/trip-to-pakistan.ly:51:17:18">
<g transform="translate(102.3313, 61.7665)">
<path transform="scale(0.0040, -0.0040)" d="M218 136c66 0 108 -36 108 -89c0 -89 -113 -183 -218 -183c-66 0 -108 36 -108 89c0 89 113 183 218 183z" fill="currentColor"/>
</g>
</a>
<g transform="translate(103.5705, 60.1165)">
<rect x="-0.0650" y="-1.9902" width="0.1300" height="3.4541" ry="0.0400" fill="currentColor"/>
</g>
<a style="color:inherit;" xlink:href="textedit:///Users/marc.mouries/projects/Sheet-Music/Folk_Ireland/Trip-to-Pakistan/trip-to-pakistan.ly:22:36:37">
<g transform="translate(108.3943, 56.7418)">
<text font-family="sans-serif" font-size="2.6163" text-anchor="start" fill="currentColor">
<tspan>E</tspan>
</text>
</g>
<g transform="translate(110.0331, 56.7418)">
<text font-family="sans-serif" font-size="2.6163" text-anchor="start" fill="currentColor">
<tspan>m</tspan>
</text>
</g>
</a>
<a style="color:inherit;" xlink:href="textedit:///Users/marc.mouries/projects/Sheet-Music/Folk_Ireland/Trip-to-Pakistan/trip-to-pakistan.ly:51:20:21">
<g transform="translate(105.4878, 61.2165)">
<path transform="scale(0.0040, -0.0040)" d="M218 136c66 0 108 -36 108 -89c0 -89 -113 -183 -218 -183c-66 0 -108 36 -108 89c0 89 113 183 218 183z" fill="currentColor"/>
</g>
</a>
<g transform="translate(106.7270, 60.1165)">
<rect x="-0.0650" y="-2.1958" width="0.1300" height="3.1097" ry="0.0400" fill="currentColor"/>
</g>
</svg>
