<svg xmlns="http://www.w3.org/2000/svg" xmlns:xlink="http://www.w3.org/1999/xlink" version="1.2" width="210.00mm" height="297.00mm" viewBox="0.0000 -0.0000 119.5016 169.0094">
<style type="text/css">
<![CDATA[
tspan { white-space: pre; }
]]>
</style>
<g transform="translate(5.6906, 4.3320)">
<text font-family="serif" font-size="2.2001" text-anchor="start" fill="currentColor">
<tspan>2</tspan>
</text>
</g>
<g transform="translate(5.6906, 8.3566)">
<rect x="86.9540" y="-0.1000" width="1.9563" height="0.2000" ry="0.1000" fill="currentColor"/>
</g>
<g transform="translate(5.6906, 9.3566)">
<rect x="86.9540" y="-0.1000" width="1.9563" height="0.2000" ry="0.1000" fill="currentColor"/>
</g>
<g transform="translate(5.6906, 9.3566)">
<rect x="83.9161" y="-0.1000" width="1.9563" height="0.2000" ry="0.1000" fill="currentColor"/>
</g>
<g transform="translate(5.6906, 9.3566)">
<rect x="81.8321" y="-0.1000" width="1.9563" height="0.2000" ry="0.1000" fill="currentColor"/>
</g>
<g transform="translate(5.6906, 9.3566)">
<rect x="77.9140" y="-0.1000" width="1.8952" height="0.2000" ry="0.1000" fill="currentColor"/>
</g>
<g transform="translate(5.6906, 9.3566)">
<rect x="74.9404" y="-0.1000" width="1.9563" height="0.2000" ry="0.1000" fill="currentColor"/>
</g>
<g transform="translate(5.6906, 9.3566)">
<rect x="70.7724" y="-0.1000" width="1.9563" height="0.2000" ry="0.1000" fill="currentColor"/>
</g>
<g transform="translate(5.6906, 9.3566)">
<rect x="68.6884" y="-0.1000" width="1.9563" height="0.2000" ry="0.1000" fill="currentColor"/>
</g>
<g transform="translate(5.6906, 8.3566)">
<rect x="65.6720" y="-0.1000" width="1.9563" height="0.2000" ry="0.1000" fill="currentColor"/>
</g>
<g transform="translate(5.6906, 9.3566)">
<rect x="65.6720" y="-0.1000" width="1.9563" height="0.2000" ry="0.1000" fill="currentColor"/>
</g>
<g transform="translate(5.6906, 8.3566)">
<rect x="63.5879" y="-0.1000" width="1.9563" height="0.2000" ry="0.1000" fill="currentColor"/>
</g>
<g transform="translate(5.6906, 9.3566)">
<rect x="63.5879" y="-0.1000" width="1.9563" height="0.2000" ry="0.1000" fill="currentColor"/>
</g>
<g transform="translate(5.6906, 8.3566)">
<rect x="61.5039" y="-0.1000" width="1.9563" height="0.2000" ry="0.1000" fill="currentColor"/>
</g>
<g transform="translate(5.6906, 9.3566)">
<rect x="61.5039" y="-0.1000" width="1.9563" height="0.2000" ry="0.1000" fill="currentColor"/>
</g>
<g transform="translate(5.6906, 8.3566)">
<rect x="59.4199" y="-0.1000" width="1.9563" height="0.2000" ry="0.1000" fill="currentColor"/>
</g>
<g transform="translate(5.6906, 9.3566)">
<rect x="59.4199" y="-0.1000" width="1.9563" height="0.2000" ry="0.1000" fill="currentColor"/>
</g>
<g transform="translate(5.6906, 8.3566)">
<rect x="56.4320" y="-0.1000" width="1.9563" height="0.2000" ry="0.1000" fill="currentColor"/>
</g>
<g transform="translate(5.6906, 9.3566)">
<rect x="56.4320" y="-0.1000" width="1.9563" height="0.2000" ry="0.1000" fill="currentColor"/>
</g>
<g transform="translate(5.6906, 8.3566)">
<rect x="54.3480" y="-0.1000" width="1.9563" height="0.2000" ry="0.1000" fill="currentColor"/>
</g>
<g transform="translate(5.6906, 9.3566)">
<rect x="54.3480" y="-0.1000" width="1.9563" height="0.2000" ry="0.1000" fill="currentColor"/>
</g>
<g transform="translate(5.6906, 8.3566)">
<rect x="52.2640" y="-0.1000" width="1.9563" height="0.2000" ry="0.1000" fill="currentColor"/>
</g>
<g transform="translate(5.6906, 9.3566)">
<rect x="52.2640" y="-0.1000" width="1.9563" height="0.2000" ry="0.1000" fill="currentColor"/>
</g>
<g transform="translate(5.6906, 8.3566)">
<rect x="50.1800" y="-0.1000" width="1.9563" height="0.2000" ry="0.1000" fill="currentColor"/>
</g>
<g transform="translate(5.6906, 9.3566)">
<rect x="50.1800" y="-0.1000" width="1.9563" height="0.2000" ry="0.1000" fill="currentColor"/>
</g>
<g transform="translate(5.6906, 8.3566)">
<rect x="47.1921" y="-0.1000" width="1.9563" height="0.2000" ry="0.1000" fill="currentColor"/>
</g>
<g transform="translate(5.6906, 9.3566)">
<rect x="47.1921" y="-0.1000" width="1.9563" height="0.2000" ry="0.1000" fill="currentColor"/>
</g>
<g transform="translate(5.6906, 8.3566)">
<rect x="45.1081" y="-0.1000" width="1.9563" height="0.2000" ry="0.1000" fill="currentColor"/>
</g>
<g transform="translate(5.6906, 9.3566)">
<rect x="45.1081" y="-0.1000" width="1.9563" height="0.2000" ry="0.1000" fill="currentColor"/>
</g>
<g transform="translate(5.6906, 9.3566)">
<rect x="42.9251" y="-0.1000" width="1.8053" height="0.2000" ry="0.1000" fill="currentColor"/>
</g>
<g transform="translate(5.6906, 8.3566)">
<rect x="39.6199" y="-0.1000" width="1.9563" height="0.2000" ry="0.1000" fill="currentColor"/>
</g>
<g transform="translate(5.6906, 9.3566)">
<rect x="39.6199" y="-0.1000" width="1.9563" height="0.2000" ry="0.1000" fill="currentColor"/>
</g>
<g transform="translate(5.6906, 9.3566)">
<rect x="36.6034" y="-0.1000" width="1.9563" height="0.2000" ry="0.1000" fill="currentColor"/>
</g>
<g transform="translate(5.6906, 8.3566)">
<rect x="34.5194" y="-0.1000" width="1.9563" height="0.2000" ry="0.1000" fill="currentColor"/>
</g>
<g transform="translate(5.6906, 9.3566)">
<rect x="34.5194" y="-0.1000" width="1.9563" height="0.2000" ry="0.1000" fill="currentColor"/>
</g>
<g transform="translate(5.6906, 9.3566)">
<rect x="32.5864" y="-0.1000" width="1.8053" height="0.2000" ry="0.1000" fill="currentColor"/>
</g>
<g transform="translate(5.6906, 8.3566)">
<rect x="29.2812" y="-0.1000" width="1.9563" height="0.2000" ry="0.1000" fill="currentColor"/>
</g>
<g transform="translate(5.6906, 9.3566)">
<rect x="29.2812" y="-0.1000" width="1.9563" height="0.2000" ry="0.1000" fill="currentColor"/>
</g>
<g transform="translate(5.6906, 9.3566)">
<rect x="26.4443" y="-0.1000" width="1.8053" height="0.2000" ry="0.1000" fill="currentColor"/>
</g>
<g transform="translate(5.6906, 8.3566)">
<rect x="23.1391" y="-0.1000" width="1.9563" height="0.2000" ry="0.1000" fill="currentColor"/>
</g>
<g transform="translate(5.6906, 9.3566)">
<rect x="23.1391" y="-0.1000" width="1.9563" height="0.2000" ry="0.1000" fill="currentColor"/>
</g>
<g transform="translate(5.6906, 9.3566)">
<rect x="21.0551" y="-0.1000" width="1.9563" height="0.2000" ry="0.1000" fill="currentColor"/>
</g>
<g transform="translate(5.6906, 9.3566)">
<rect x="18.9710" y="-0.1000" width="1.9563" height="0.2000" ry="0.1000" fill="currentColor"/>
</g>
<g transform="translate(5.6906, 9.3566)">
<rect x="13.9420" y="-0.1000" width="1.9563" height="0.2000" ry="0.1000" fill="currentColor"/>
</g>
<g transform="translate(5.6906, 14.3566)">
<line stroke-linejoin="round" stroke-linecap="round" stroke-width="0.1000" stroke="currentColor" x1="0.0500" y1="0" x2="108.0705" y2="0"/>
</g>
<g transform="translate(5.6906, 13.3566)">
<line stroke-linejoin="round" stroke-linecap="round" stroke-width="0.1000" stroke="currentColor" x1="0.0500" y1="0" x2="108.0705" y2="0"/>
</g>
<g transform="translate(5.6906, 12.3566)">
<line stroke-linejoin="round" stroke-linecap="round" stroke-width="0.1000" stroke="currentColor" x1="0.0500" y1="0" x2="108.0705" y2="0"/>
</g>
<g transform="translate(5.6906, 11.3566)">
<line stroke-linejoin="round" stroke-linecap="round" stroke-width="0.1000" stroke="currentColor" x1="0.0500" y1="0" x2="108.0705" y2="0"/>
</g>
<g transform="translate(5.6906, 10.3566)">
<line stroke-linejoin="round" stroke-linecap="round" stroke-width="0.1000" stroke="currentColor" x1="0.0500" y1="0" x2="108.0705" y2="0"/>
</g>
<g transform="translate(113.2110, 12.3566)">
<rect x="0.0000" y="-2.0000" width="0.6000" height="4.0000" ry="0.0000" fill="currentColor"/>
</g>
<g transform="translate(112.7210, 12.3566)">
<rect x="0.0000" y="-2.0000" width="0.1900" height="4.0000" ry="0.0000" fill="currentColor"/>
</g>
<g transform="translate(109.9916, 12.3566)">
<rect x="0.0000" y="-2.0000" width="0.1900" height="4.0000" ry="0.0000" fill="currentColor"/>
</g>
<g transform="translate(101.8768, 12.3566)">
<rect x="0.0000" y="-2.0000" width="0.1900" height="4.0000" ry="0.0000" fill="currentColor"/>
</g>
<g transform="translate(91.8381, 12.3566)">
<rect x="0.0000" y="-2.0000" width="0.1900" height="4.0000" ry="0.0000" fill="currentColor"/>
</g>
<g transform="translate(82.8268, 12.3566)">
<rect x="0.0000" y="-2.0000" width="0.1900" height="4.0000" ry="0.0000" fill="currentColor"/>
</g>
<g transform="translate(73.6297, 12.3566)">
<rect x="0.0000" y="-2.0000" width="0.1900" height="4.0000" ry="0.0000" fill="currentColor"/>
</g>
<g transform="translate(64.3898, 12.3566)">
<rect x="0.0000" y="-2.0000" width="0.1900" height="4.0000" ry="0.0000" fill="currentColor"/>
</g>
<g transform="translate(55.1499, 12.3566)">
<rect x="0.0000" y="-2.0000" width="0.1900" height="4.0000" ry="0.0000" fill="currentColor"/>
</g>
<g transform="translate(44.5612, 12.3566)">
<rect x="0.0000" y="-2.0000" width="0.1900" height="4.0000" ry="0.0000" fill="currentColor"/>
</g>
<g transform="translate(34.2511, 12.3566)">
<rect x="0.0000" y="-2.0000" width="0.1900" height="4.0000" ry="0.0000" fill="currentColor"/>
</g>
<g transform="translate(23.9124, 12.3566)">
<rect x="0.0000" y="-2.0000" width="0.1900" height="4.0000" ry="0.0000" fill="currentColor"/>
</g>
<g transform="translate(6.4906, 13.3566)">
<path transform="scale(0.0040, -0.0040)" d="M266 -635h-6c-108 0 -195 88 -195 197c0 58 53 103 112 103c54 0 95 -47 95 -103c0 -52 -43 -95 -95 -95c-11 0 -21 2 -31 6c26 -39 68 -65 117 -65h4zM461 -203c68 24 113 90 113 164c0 90 -66 179 -173 190c19 -89 48 -242 60 -354zM74 28c0 -145 141 -247 264 -247
c1 0 47 0 82 6c-7 64 -29 203 -63 364c-79 -8 -124 -61 -124 -119c0 -44 25 -91 81 -123c5 -5 7 -10 7 -15c0 -11 -10 -22 -22 -22c-15 0 -126 62 -126 187c0 88 58 174 160 197c-14 58 -29 117 -46 175c-107 -121 -213 -243 -213 -403zM250 553c-29 96 -52 170 -52 346
c0 115 55 224 149 292c6 5 14 5 20 0c68 -80 133 -245 133 -358c0 -143 -86 -255 -180 -364c21 -68 39 -138 56 -207c2 0 7 1 13 1c155 0 256 -128 256 -261c0 -113 -74 -212 -180 -246c3 -35 5 -70 5 -105c0 -19 -1 -39 -2 -58c-7 -119 -88 -225 -202 -228l1 43
c93 2 153 92 159 191c1 18 2 37 2 55c0 31 -1 61 -4 92c-5 -1 -44 -8 -89 -8c-193 0 -333 180 -333 374c0 177 131 306 248 441zM428 916c0 34 1 66 -20 129c-99 -48 -162 -149 -162 -259c0 -52 12 -115 36 -194c80 97 146 198 146 324z" fill="currentColor"/>
</g>
<g transform="translate(9.9906, 10.3566)">
<path transform="scale(0.0040, -0.0040)" d="M0 119c0 8 5 15 13 18l46 17v158c0 10 8 19 18 19s19 -9 19 -19v-145l83 31v158c0 10 9 19 19 19s18 -9 18 -19v-145l32 12c2 1 5 1 7 1c11 0 20 -9 20 -20v-60c0 -8 -5 -16 -13 -19l-46 -16v-160l32 11c2 1 5 1 7 1c11 0 20 -9 20 -20v-60c0 -8 -5 -15 -13 -18l-46 -17
v-158c0 -10 -8 -19 -18 -19s-19 9 -19 19v145l-83 -31v-158c0 -10 -9 -19 -19 -19s-18 9 -18 19v145l-32 -12c-2 -1 -5 -1 -7 -1c-11 0 -20 9 -20 20v60c0 8 5 16 13 19l46 16v160l-32 -11c-2 -1 -5 -1 -7 -1c-11 0 -20 9 -20 20v60zM179 95l-83 -30v-160l83 30v160z" fill="currentColor"/>
</g>
<g transform="translate(11.0906, 11.8566)">
<path transform="scale(0.0040, -0.0040)" d="M0 119c0 8 5 15 13 18l46 17v158c0 10 8 19 18 19s19 -9 19 -19v-145l83 31v158c0 10 9 19 19 19s18 -9 18 -19v-145l32 12c2 1 5 1 7 1c11 0 20 -9 20 -20v-60c0 -8 -5 -16 -13 -19l-46 -16v-160l32 11c2 1 5 1 7 1c11 0 20 -9 20 -20v-60c0 -8 -5 -15 -13 -18l-46 -17
v-158c0 -10 -8 -19 -18 -19s-19 9 -19 19v145l-83 -31v-158c0 -10 -9 -19 -19 -19s-18 9 -18 19v145l-32 -12c-2 -1 -5 -1 -7 -1c-11 0 -20 9 -20 20v60c0 8 5 16 13 19l46 16v160l-32 -11c-2 -1 -5 -1 -7 -1c-11 0 -20 9 -20 20v60zM179 95l-83 -30v-160l83 30v160z" fill="currentColor"/>
</g>
<g transform="translate(12.1906, 9.8566)">
<path transform="scale(0.0040, -0.0040)" d="M0 119c0 8 5 15 13 18l46 17v158c0 10 8 19 18 19s19 -9 19 -19v-145l83 31v158c0 10 9 19 19 19s18 -9 18 -19v-145l32 12c2 1 5 1 7 1c11 0 20 -9 20 -20v-60c0 -8 -5 -16 -13 -19l-46 -16v-160l32 11c2 1 5 1 7 1c11 0 20 -9 20 -20v-60c0 -8 -5 -15 -13 -18l-46 -17
v-158c0 -10 -8 -19 -18 -19s-19 9 -19 19v145l-83 -31v-158c0 -10 -9 -19 -19 -19s-18 9 -18 19v145l-32 -12c-2 -1 -5 -1 -7 -1c-11 0 -20 9 -20 20v60c0 8 5 16 13 19l46 16v160l-32 -11c-2 -1 -5 -1 -7 -1c-11 0 -20 9 -20 20v60zM179 95l-83 -30v-160l83 30v160z" fill="currentColor"/>
</g>
<g transform="translate(3.9151, 9.2861)">
<text font-family="serif" font-size="1.7461" text-anchor="start" fill="currentColor">
<tspan>56</tspan>
</text>
</g>
<g transform="translate(103.0378, 13.5466)">
<polygon stroke-linejoin="round" stroke-linecap="round" stroke-width="0.0800" fill="currentColor" stroke="currentColor" points="3.2442 0.4200 3.2442 0.8200 0.0400 0.2000 0.0400 -0.2000"/>
</g>
<a style="color:inherit;" xlink:href="textedit:///Users/marc.mouries/projects/Sheet-Music/Classical/Mozart_Rondo-Alla-Turca/KV331_3_RondoAllaTurca-Violin-MacBookAir.ly:113:12:13">
<g transform="translate(15.7906, 10.3566)">
<path transform="scale(0.0040, -0.0040)" d="M218 136c66 0 108 -36 108 -89c0 -89 -113 -183 -218 -183c-66 0 -108 36 -108 89c0 89 113 183 218 183z" fill="currentColor"/>
</g>
</a>
<g transform="translate(15.8556, 12.3566)">
<rect x="-0.0650" y="-1.8139" width="0.1300" height="2.8083" ry="0.0400" fill="currentColor"/>
</g>
<g transform="translate(97.9588, 13.5466)">
<polygon stroke-linejoin="round" stroke-linecap="round" stroke-width="0.0800" fill="currentColor" stroke="currentColor" points="2.1740 -0.3900 2.1740 0.0100 0.0400 0.2000 0.0400 -0.2000"/>
</g>
<a style="color:inherit;" xlink:href="textedit:///Users/marc.mouries/projects/Sheet-Music/Classical/Mozart_Rondo-Alla-Turca/KV331_3_RondoAllaTurca-Violin-MacBookAir.ly:113:15:16">
<g transform="translate(17.8746, 9.8566)">
<path transform="scale(0.0040, -0.0040)" d="M218 136c66 0 108 -36 108 -89c0 -89 -113 -183 -218 -183c-66 0 -108 36 -108 89c0 89 113 183 218 183z" fill="currentColor"/>
</g>
</a>
<g transform="translate(17.9396, 12.3566)">
<rect x="-0.0650" y="-2.3139" width="0.1300" height="3.1295" ry="0.0400" fill="currentColor"/>
</g>
<g transform="translate(92.9706, 12.5466)">
<polygon stroke-linejoin="round" stroke-linecap="round" stroke-width="0.0800" fill="currentColor" stroke="currentColor" points="1.9240 0.4200 1.9240 0.8200 0.0400 0.2000 0.0400 -0.2000"/>
</g>
<a style="color:inherit;" xlink:href="textedit:///Users/marc.mouries/projects/Sheet-Music/Classical/Mozart_Rondo-Alla-Turca/KV331_3_RondoAllaTurca-Violin-MacBookAir.ly:113:18:19">
<g transform="translate(19.9586, 9.3566)">
<path transform="scale(0.0040, -0.0040)" d="M218 136c66 0 108 -36 108 -89c0 -89 -113 -183 -218 -183c-66 0 -108 36 -108 89c0 89 113 183 218 183z" fill="currentColor"/>
</g>
</a>
<g transform="translate(20.0236, 12.3566)">
<rect x="-0.0650" y="-2.8139" width="0.1300" height="2.8195" ry="0.0400" fill="currentColor"/>
</g>
<g transform="translate(87.8487, 12.5466)">
<polygon stroke-linejoin="round" stroke-linecap="round" stroke-width="0.0800" fill="currentColor" stroke="currentColor" points="2.1740 -0.3900 2.1740 0.0100 0.0400 0.2000 0.0400 -0.2000"/>
</g>
<a style="color:inherit;" xlink:href="textedit:///Users/marc.mouries/projects/Sheet-Music/Classical/Mozart_Rondo-Alla-Turca/KV331_3_RondoAllaTurca-Violin-MacBookAir.ly:113:20:21">
<g transform="translate(22.0426, 9.8566)">
<path transform="scale(0.0040, -0.0040)" d="M218 136c66 0 108 -36 108 -89c0 -89 -113 -183 -218 -183c-66 0 -108 36 -108 89c0 89 113 183 218 183z" fill="currentColor"/>
</g>
</a>
<g transform="translate(22.1076, 12.3566)">
<rect x="-0.0650" y="-2.3139" width="0.1300" height="2.4983" ry="0.0400" fill="currentColor"/>
</g>
<g transform="translate(83.9306, 12.3566)">
<polygon stroke-linejoin="round" stroke-linecap="round" stroke-width="0.0800" fill="currentColor" stroke="currentColor" points="1.9240 -0.0100 1.9240 0.3900 0.0400 0.2000 0.0400 -0.2000"/>
</g>
<a style="color:inherit;" xlink:href="textedit:///Users/marc.mouries/projects/Sheet-Music/Classical/Mozart_Rondo-Alla-Turca/KV331_3_RondoAllaTurca-Violin-MacBookAir.ly:113:23:24">
<g transform="translate(24.9876, 9.3566)">
<path transform="scale(0.0040, -0.0040)" d="M218 136c66 0 108 -36 108 -89c0 -89 -113 -183 -218 -183c-66 0 -108 36 -108 89c0 89 113 183 218 183z" fill="currentColor"/>
</g>
</a>
<g transform="translate(25.0526, 12.3566)">
<rect x="-0.0650" y="-2.8139" width="0.1300" height="2.9983" ry="0.0400" fill="currentColor"/>
</g>
<g transform="translate(78.8730, 12.5466)">
<polygon stroke-linejoin="round" stroke-linecap="round" stroke-width="0.0800" fill="currentColor" stroke="currentColor" points="2.1740 -0.3900 2.1740 0.0100 0.0400 0.2000 0.0400 -0.2000"/>
</g>
<a style="color:inherit;" xlink:href="textedit:///Users/marc.mouries/projects/Sheet-Music/Classical/Mozart_Rondo-Alla-Turca/KV331_3_RondoAllaTurca-Violin-MacBookAir.ly:113:25:26">
<g transform="translate(27.0717, 8.8566)">
<path transform="scale(0.0040, -0.0040)" d="M218 136c66 0 108 -36 108 -89c0 -89 -113 -183 -218 -183c-66 0 -108 36 -108 89c0 89 113 183 218 183z" fill="currentColor"/>
</g>
</a>
<g transform="translate(27.1367, 12.3566)">
<rect x="-0.0650" y="-3.3139" width="0.1300" height="3.3195" ry="0.0400" fill="currentColor"/>
</g>
<g transform="translate(74.7050, 12.3566)">
<polygon stroke-linejoin="round" stroke-linecap="round" stroke-width="0.0800" fill="currentColor" stroke="currentColor" points="2.1740 -0.0100 2.1740 0.3900 0.0400 0.2000 0.0400 -0.2000"/>
</g>
<a style="color:inherit;" xlink:href="textedit:///Users/marc.mouries/projects/Sheet-Music/Classical/Mozart_Rondo-Alla-Turca/KV331_3_RondoAllaTurca-Violin-MacBookAir.ly:114:2:3">
<g transform="translate(29.1557, 8.3566)">
<path transform="scale(0.0040, -0.0040)" d="M218 136c66 0 108 -36 108 -89c0 -89 -113 -183 -218 -183c-66 0 -108 36 -108 89c0 89 113 183 218 183z" fill="currentColor"/>
</g>
</a>
<a style="color:inherit;" xlink:href="textedit:///Users/marc.mouries/projects/Sheet-Music/Classical/Mozart_Rondo-Alla-Turca/KV331_3_RondoAllaTurca-Violin-MacBookAir.ly:114:4:5">
<g transform="translate(29.4151, 6.6446)">
<path transform="scale(0.0022, -0.0022)" d="M261 266c0 -54 85 -40 85 -125c0 -94 -83 -141 -186 -141c-84 0 -160 54 -160 133c0 32 26 58 58 58s58 -26 58 -58c0 -22 -36 -26 -36 -48c0 -33 42 -42 80 -42c41 0 56 50 56 98v21c0 44 -2 77 -43 77h-65c-18 0 -27 14 -27 27s9 27 27 27h65c42 0 43 36 43 83v11
c0 43 -20 70 -61 70c-34 0 -71 -8 -71 -38c0 -19 32 -23 32 -42c0 -28 -23 -51 -51 -51s-51 23 -51 51c0 72 66 123 141 123c93 0 174 -31 174 -113c0 -94 -68 -67 -68 -121z" fill="currentColor"/>
</g>
</a>
<g transform="translate(29.2207, 12.3566)">
<rect x="-0.0650" y="-3.8139" width="0.1300" height="3.8177" ry="0.0400" fill="currentColor"/>
</g>
<g transform="translate(69.6045, 12.3566)">
<polygon stroke-linejoin="round" stroke-linecap="round" stroke-width="0.0800" fill="currentColor" stroke="currentColor" points="2.1740 -0.0100 2.1740 0.3900 0.0400 0.2000 0.0400 -0.2000"/>
</g>
<a style="color:inherit;" xlink:href="textedit:///Users/marc.mouries/projects/Sheet-Music/Classical/Mozart_Rondo-Alla-Turca/KV331_3_RondoAllaTurca-Violin-MacBookAir.ly:114:7:8">
<g transform="translate(32.3099, 8.8566)">
<path transform="scale(0.0040, -0.0040)" d="M218 136c66 0 108 -36 108 -89c0 -89 -113 -183 -218 -183c-66 0 -108 36 -108 89c0 89 113 183 218 183z" fill="currentColor"/>
</g>
</a>
<g transform="translate(32.3749, 12.3566)">
<rect x="-0.0650" y="-3.3139" width="0.1300" height="3.5001" ry="0.0400" fill="currentColor"/>
</g>
<g transform="translate(30.8599, 8.8566)">
<path transform="scale(0.0040, -0.0040)" d="M0 119c0 8 5 15 13 18l46 17v158c0 10 8 19 18 19s19 -9 19 -19v-145l83 31v158c0 10 9 19 19 19s18 -9 18 -19v-145l32 12c2 1 5 1 7 1c11 0 20 -9 20 -20v-60c0 -8 -5 -16 -13 -19l-46 -16v-160l32 11c2 1 5 1 7 1c11 0 20 -9 20 -20v-60c0 -8 -5 -15 -13 -18l-46 -17
v-158c0 -10 -8 -19 -18 -19s-19 9 -19 19v145l-83 -31v-158c0 -10 -9 -19 -19 -19s-18 9 -18 19v145l-32 -12c-2 -1 -5 -1 -7 -1c-11 0 -20 9 -20 20v60c0 8 5 16 13 19l46 16v160l-32 -11c-2 -1 -5 -1 -7 -1c-11 0 -20 9 -20 20v60zM179 95l-83 -30v-160l83 30v160z" fill="currentColor"/>
</g>
<g transform="translate(65.4365, 12.3566)">
<polygon stroke-linejoin="round" stroke-linecap="round" stroke-width="0.0800" fill="currentColor" stroke="currentColor" points="2.1740 -0.0100 2.1740 0.3900 0.0400 0.2000 0.0400 -0.2000"/>
</g>
<g transform="translate(60.3646, 12.3566)">
<polygon stroke-linejoin="round" stroke-linecap="round" stroke-width="0.0800" fill="currentColor" stroke="currentColor" points="2.1740 -0.0100 2.1740 0.3900 0.0400 0.2000 0.0400 -0.2000"/>
</g>
<a style="color:inherit;" xlink:href="textedit:///Users/marc.mouries/projects/Sheet-Music/Classical/Mozart_Rondo-Alla-Turca/KV331_3_RondoAllaTurca-Violin-MacBookAir.ly:114:10:11">
<g transform="translate(35.2978, 8.3566)">
<path transform="scale(0.0040, -0.0040)" d="M218 136c66 0 108 -36 108 -89c0 -89 -113 -183 -218 -183c-66 0 -108 36 -108 89c0 89 113 183 218 183z" fill="currentColor"/>
</g>
</a>
<g transform="translate(56.1966, 12.3566)">
<polygon stroke-linejoin="round" stroke-linecap="round" stroke-width="0.0800" fill="currentColor" stroke="currentColor" points="2.1740 -0.0100 2.1740 0.3900 0.0400 0.2000 0.0400 -0.2000"/>
</g>
<g transform="translate(35.3628, 12.3566)">
<rect x="-0.0650" y="-3.8139" width="0.1300" height="3.8177" ry="0.0400" fill="currentColor"/>
</g>
<g transform="translate(51.1247, 12.3566)">
<polygon stroke-linejoin="round" stroke-linecap="round" stroke-width="0.0800" fill="currentColor" stroke="currentColor" points="2.1740 -0.0100 2.1740 0.3900 0.0400 0.2000 0.0400 -0.2000"/>
</g>
<a style="color:inherit;" xlink:href="textedit:///Users/marc.mouries/projects/Sheet-Music/Classical/Mozart_Rondo-Alla-Turca/KV331_3_RondoAllaTurca-Violin-MacBookAir.ly:114:13:14">
<g transform="translate(38.4520, 8.8566)">
<path transform="scale(0.0040, -0.0040)" d="M218 136c66 0 108 -36 108 -89c0 -89 -113 -183 -218 -183c-66 0 -108 36 -108 89c0 89 113 183 218 183z" fill="currentColor"/>
</g>
</a>
<g transform="translate(38.5170, 12.3566)">
<rect x="-0.0650" y="-3.3139" width="0.1300" height="3.5001" ry="0.0400" fill="currentColor"/>
</g>
<g transform="translate(37.0020, 8.8566)">
<path transform="scale(0.0040, -0.0040)" d="M0 119c0 8 5 15 13 18l46 17v158c0 10 8 19 18 19s19 -9 19 -19v-145l83 31v158c0 10 9 19 19 19s18 -9 18 -19v-145l32 12c2 1 5 1 7 1c11 0 20 -9 20 -20v-60c0 -8 -5 -16 -13 -19l-46 -16v-160l32 11c2 1 5 1 7 1c11 0 20 -9 20 -20v-60c0 -8 -5 -15 -13 -18l-46 -17
v-158c0 -10 -8 -19 -18 -19s-19 9 -19 19v145l-83 -31v-158c0 -10 -9 -19 -19 -19s-18 9 -18 19v145l-32 -12c-2 -1 -5 -1 -7 -1c-11 0 -20 9 -20 20v60c0 8 5 16 13 19l46 16v160l-32 -11c-2 -1 -5 -1 -7 -1c-11 0 -20 9 -20 20v60zM179 95l-83 -30v-160l83 30v160z" fill="currentColor"/>
</g>
<g transform="translate(45.6365, 12.3566)">
<polygon stroke-linejoin="round" stroke-linecap="round" stroke-width="0.0800" fill="currentColor" stroke="currentColor" points="3.2442 -0.0100 3.2442 0.3900 0.0400 0.2000 0.0400 -0.2000"/>
</g>
<a style="color:inherit;" xlink:href="textedit:///Users/marc.mouries/projects/Sheet-Music/Classical/Mozart_Rondo-Alla-Turca/KV331_3_RondoAllaTurca-Violin-MacBookAir.ly:114:16:17">
<g transform="translate(40.5360, 8.3566)">
<path transform="scale(0.0040, -0.0040)" d="M218 136c66 0 108 -36 108 -89c0 -89 -113 -183 -218 -183c-66 0 -108 36 -108 89c0 89 113 183 218 183z" fill="currentColor"/>
</g>
</a>
<g transform="translate(40.6010, 12.3566)">
<rect x="-0.0650" y="-3.8139" width="0.1300" height="3.8195" ry="0.0400" fill="currentColor"/>
</g>
<a style="color:inherit;" xlink:href="textedit:///Users/marc.mouries/projects/Sheet-Music/Classical/Mozart_Rondo-Alla-Turca/KV331_3_RondoAllaTurca-Violin-MacBookAir.ly:115:6:7">
<g transform="translate(51.1247, 12.3566)">
<path stroke-width="0.0800" stroke-linejoin="round" stroke-linecap="round" stroke="currentColor" fill="currentColor" d="M0.6673 -5.5450C4.0209 -7.3759 54.6385 -5.6057 57.8561 -3.5450L57.8561 -3.5450C54.6343 -5.4858 4.0167 -7.2560 0.6673 -5.5450z"/>
</g>
</a>
<a style="color:inherit;" xlink:href="textedit:///Users/marc.mouries/projects/Sheet-Music/Classical/Mozart_Rondo-Alla-Turca/KV331_3_RondoAllaTurca-Violin-MacBookAir.ly:114:35:36">
<g transform="translate(42.6200, 8.8566)">
<path transform="scale(0.0040, -0.0040)" d="M218 136c66 0 108 -36 108 -89c0 -89 -113 -183 -218 -183c-66 0 -108 36 -108 89c0 89 113 183 218 183z" fill="currentColor"/>
</g>
</a>
<g transform="translate(42.6850, 12.3566)">
<rect x="-0.0650" y="-3.3139" width="0.1300" height="3.4983" ry="0.0400" fill="currentColor"/>
</g>
<a style="color:inherit;" xlink:href="textedit:///Users/marc.mouries/projects/Sheet-Music/Classical/Mozart_Rondo-Alla-Turca/KV331_3_RondoAllaTurca-Violin-MacBookAir.ly:115:8:9">
<g transform="translate(51.1247, 15.7232)">
<line stroke-linejoin="round" stroke-linecap="round" stroke-width="0.1000" stroke="currentColor" x1="0.0000" y1="0.6666" x2="35.9442" y2="0.0000"/>
</g>
<g transform="translate(51.1247, 15.7232)">
<line stroke-linejoin="round" stroke-linecap="round" stroke-width="0.1000" stroke="currentColor" x1="0.0000" y1="-0.6666" x2="35.9442" y2="-0.0000"/>
</g>
</a>
<g transform="translate(40.5360, 12.3566)">
<polygon stroke-linejoin="round" stroke-linecap="round" stroke-width="0.0800" fill="currentColor" stroke="currentColor" points="2.1740 -0.0100 2.1740 0.3900 0.0400 0.2000 0.0400 -0.2000"/>
</g>
<a style="color:inherit;" xlink:href="textedit:///Users/marc.mouries/projects/Sheet-Music/Classical/Mozart_Rondo-Alla-Turca/KV331_3_RondoAllaTurca-Violin-MacBookAir.ly:114:38:39">
<g transform="translate(45.6365, 8.3566)">
<path transform="scale(0.0040, -0.0040)" d="M218 136c66 0 108 -36 108 -89c0 -89 -113 -183 -218 -183c-66 0 -108 36 -108 89c0 89 113 183 218 183z" fill="currentColor"/>
</g>
</a>
<g transform="translate(45.7015, 12.3566)">
<rect x="-0.0650" y="-3.8139" width="0.1300" height="3.8177" ry="0.0400" fill="currentColor"/>
</g>
<a style="color:inherit;" xlink:href="textedit:///Users/marc.mouries/projects/Sheet-Music/Classical/Mozart_Rondo-Alla-Turca/KV331_3_RondoAllaTurca-Violin-MacBookAir.ly:114:41:42">
<g transform="translate(48.7907, 9.3566)">
<path transform="scale(0.0040, -0.0040)" d="M218 136c66 0 108 -36 108 -89c0 -89 -113 -183 -218 -183c-66 0 -108 36 -108 89c0 89 113 183 218 183z" fill="currentColor"/>
</g>
</a>
<a style="color:inherit;" xlink:href="textedit:///Users/marc.mouries/projects/Sheet-Music/Classical/Mozart_Rondo-Alla-Turca/KV331_3_RondoAllaTurca-Violin-MacBookAir.ly:114:43:44">
<g transform="translate(49.0331, 8.3116)">
<path transform="scale(0.0022, -0.0022)" d="M194 486c16 0 29 15 41 15c13 0 24 -13 24 -31v-341c0 -47 35 -86 81 -86c14 0 21 -10 21 -21s-7 -22 -21 -22c-49 0 -97 14 -146 14s-96 -14 -145 -14c-14 0 -22 11 -22 22s8 21 22 21c46 0 80 39 80 86v137c0 23 -16 35 -30 35c-7 0 -13 -4 -17 -11l-34 -65
c-5 -10 -14 -15 -23 -15c-14 0 -28 12 -28 27c0 4 1 8 3 13l129 250c2 4 7 6 11 6c18 0 37 -20 54 -20z" fill="currentColor"/>
</g>
</a>
<g transform="translate(48.8557, 12.3566)">
<rect x="-0.0650" y="-2.8139" width="0.1300" height="3.0001" ry="0.0400" fill="currentColor"/>
</g>
<g transform="translate(47.3407, 9.3566)">
<path transform="scale(0.0040, -0.0040)" d="M0 119c0 8 5 15 13 18l46 17v158c0 10 8 19 18 19s19 -9 19 -19v-145l83 31v158c0 10 9 19 19 19s18 -9 18 -19v-145l32 12c2 1 5 1 7 1c11 0 20 -9 20 -20v-60c0 -8 -5 -16 -13 -19l-46 -16v-160l32 11c2 1 5 1 7 1c11 0 20 -9 20 -20v-60c0 -8 -5 -15 -13 -18l-46 -17
v-158c0 -10 -8 -19 -18 -19s-19 9 -19 19v145l-83 -31v-158c0 -10 -9 -19 -19 -19s-18 9 -18 19v145l-32 -12c-2 -1 -5 -1 -7 -1c-11 0 -20 9 -20 20v60c0 8 5 16 13 19l46 16v160l-32 -11c-2 -1 -5 -1 -7 -1c-11 0 -20 9 -20 20v60zM179 95l-83 -30v-160l83 30v160z" fill="currentColor"/>
</g>
<a style="color:inherit;" xlink:href="textedit:///Applications/lilypond-2.24.4/share/lilypond/2.24.4/ly/spanners-init.ly:37:5:6">
<g transform="translate(49.1638, 15.7232)">
<line stroke-linejoin="round" stroke-linecap="round" stroke-width="0.1000" stroke="currentColor" x1="0" y1="0" x2="1.1190" y2="-0.0000" stroke-dasharray="0.6000000000000001,2.4"/>
</g>
<g transform="translate(42.6200, 16.2844)">
<text font-family="serif" font-style="italic" font-size="2.4696" text-anchor="start" fill="currentColor">
<tspan>cresc.</tspan>
</text>
</g>
</a>
<a style="color:inherit;" xlink:href="textedit:///Users/marc.mouries/projects/Sheet-Music/Classical/Mozart_Rondo-Alla-Turca/KV331_3_RondoAllaTurca-Violin-MacBookAir.ly:115:2:3">
<g transform="translate(51.1247, 7.8566)">
<path transform="scale(0.0040, -0.0040)" d="M218 136c66 0 108 -36 108 -89c0 -89 -113 -183 -218 -183c-66 0 -108 36 -108 89c0 89 113 183 218 183z" fill="currentColor"/>
</g>
</a>
<a style="color:inherit;" xlink:href="textedit:///Users/marc.mouries/projects/Sheet-Music/Classical/Mozart_Rondo-Alla-Turca/KV331_3_RondoAllaTurca-Violin-MacBookAir.ly:115:4:5">
<g transform="translate(51.3159, 6.4568)">
<path transform="scale(0.0022, -0.0022)" d="M148 501c10 0 41 -15 72 -15c32 0 63 15 76 15c15 0 26 -11 26 -21c0 -4 -1 -7 -4 -10l-264 -291h134v4c0 60 50 41 75 85c7 11 8 24 14 36c3 7 10 10 17 10c11 0 24 -8 24 -25v-110h70c18 0 27 -14 27 -27s-9 -27 -27 -27h-70c2 -45 36 -82 80 -82c14 0 22 -10 22 -21
s-8 -22 -22 -22c-49 0 -96 14 -145 14s-97 -14 -146 -14c-14 0 -21 11 -21 22s7 21 21 21c44 0 79 37 81 82h-134c-43 0 -57 25 -57 42c0 5 1 10 3 12c73 81 123 182 123 291c0 17 11 31 25 31z" fill="currentColor"/>
</g>
</a>
<g transform="translate(51.1897, 12.3566)">
<rect x="-0.0650" y="-4.3139" width="0.1300" height="4.3195" ry="0.0400" fill="currentColor"/>
</g>
<g transform="translate(35.2978, 12.3566)">
<polygon stroke-linejoin="round" stroke-linecap="round" stroke-width="0.0800" fill="currentColor" stroke="currentColor" points="3.2442 -0.0100 3.2442 0.3900 0.0400 0.2000 0.0400 -0.2000"/>
</g>
<a style="color:inherit;" xlink:href="textedit:///Users/marc.mouries/projects/Sheet-Music/Classical/Mozart_Rondo-Alla-Turca/KV331_3_RondoAllaTurca-Violin-MacBookAir.ly:115:11:12">
<g transform="translate(53.2087, 8.3566)">
<path transform="scale(0.0040, -0.0040)" d="M218 136c66 0 108 -36 108 -89c0 -89 -113 -183 -218 -183c-66 0 -108 36 -108 89c0 89 113 183 218 183z" fill="currentColor"/>
</g>
</a>
<g transform="translate(53.2737, 12.3566)">
<rect x="-0.0650" y="-3.8139" width="0.1300" height="3.9983" ry="0.0400" fill="currentColor"/>
</g>
<g transform="translate(29.1557, 12.3566)">
<polygon stroke-linejoin="round" stroke-linecap="round" stroke-width="0.0800" fill="currentColor" stroke="currentColor" points="3.2442 -0.0100 3.2442 0.3900 0.0400 0.2000 0.0400 -0.2000"/>
</g>
<g transform="translate(24.9876, 12.5466)">
<polygon stroke-linejoin="round" stroke-linecap="round" stroke-width="0.0800" fill="currentColor" stroke="currentColor" points="2.1740 -0.3900 2.1740 0.0100 0.0400 0.2000 0.0400 -0.2000"/>
</g>
<a style="color:inherit;" xlink:href="textedit:///Users/marc.mouries/projects/Sheet-Music/Classical/Mozart_Rondo-Alla-Turca/KV331_3_RondoAllaTurca-Violin-MacBookAir.ly:115:14:15">
<g transform="translate(56.1966, 7.8566)">
<path transform="scale(0.0040, -0.0040)" d="M218 136c66 0 108 -36 108 -89c0 -89 -113 -183 -218 -183c-66 0 -108 36 -108 89c0 89 113 183 218 183z" fill="currentColor"/>
</g>
</a>
<a style="color:inherit;" xlink:href="textedit:///Users/marc.mouries/projects/Sheet-Music/Classical/Mozart_Rondo-Alla-Turca/KV331_3_RondoAllaTurca-Violin-MacBookAir.ly:113:4:5">
<g transform="translate(5.6906, 12.3566)">
<path stroke-width="0.0800" stroke-linejoin="round" stroke-linecap="round" stroke="currentColor" fill="currentColor" d="M7.6000 -3.0450C10.4972 -5.1300 42.9154 -7.2374 46.0581 -5.5450L46.0581 -5.5450C42.9232 -7.1177 10.5050 -5.0103 7.6000 -3.0450z"/>
</g>
</a>
<g transform="translate(56.2616, 12.3566)">
<rect x="-0.0650" y="-4.3139" width="0.1300" height="4.3195" ry="0.0400" fill="currentColor"/>
</g>
<g transform="translate(19.9586, 12.3566)">
<polygon stroke-linejoin="round" stroke-linecap="round" stroke-width="0.0800" fill="currentColor" stroke="currentColor" points="2.1740 -0.0100 2.1740 0.3900 0.0400 0.2000 0.0400 -0.2000"/>
</g>
<a style="color:inherit;" xlink:href="textedit:///Users/marc.mouries/projects/Sheet-Music/Classical/Mozart_Rondo-Alla-Turca/KV331_3_RondoAllaTurca-Violin-MacBookAir.ly:115:16:17">
<g transform="translate(58.2806, 8.3566)">
<path transform="scale(0.0040, -0.0040)" d="M218 136c66 0 108 -36 108 -89c0 -89 -113 -183 -218 -183c-66 0 -108 36 -108 89c0 89 113 183 218 183z" fill="currentColor"/>
</g>
</a>
<g transform="translate(58.3456, 12.3566)">
<rect x="-0.0650" y="-3.8139" width="0.1300" height="3.9983" ry="0.0400" fill="currentColor"/>
</g>
<g transform="translate(15.7906, 13.3566)">
<polygon stroke-linejoin="round" stroke-linecap="round" stroke-width="0.0800" fill="currentColor" stroke="currentColor" points="2.1740 -0.3900 2.1740 0.0100 0.0400 0.2000 0.0400 -0.2000"/>
</g>
<a style="color:inherit;" xlink:href="textedit:///Users/marc.mouries/projects/Sheet-Music/Classical/Mozart_Rondo-Alla-Turca/KV331_3_RondoAllaTurca-Violin-MacBookAir.ly:115:19:20">
<g transform="translate(60.3646, 7.8566)">
<path transform="scale(0.0040, -0.0040)" d="M218 136c66 0 108 -36 108 -89c0 -89 -113 -183 -218 -183c-66 0 -108 36 -108 89c0 89 113 183 218 183z" fill="currentColor"/>
</g>
</a>
<g transform="translate(60.4296, 12.3566)">
<rect x="-0.0650" y="-4.3139" width="0.1300" height="4.3195" ry="0.0400" fill="currentColor"/>
</g>
<a style="color:inherit;" xlink:href="textedit:///Users/marc.mouries/projects/Sheet-Music/Classical/Mozart_Rondo-Alla-Turca/KV331_3_RondoAllaTurca-Violin-MacBookAir.ly:115:21:22">
<g transform="translate(62.4486, 8.3566)">
<path transform="scale(0.0040, -0.0040)" d="M218 136c66 0 108 -36 108 -89c0 -89 -113 -183 -218 -183c-66 0 -108 36 -108 89c0 89 113 183 218 183z" fill="currentColor"/>
</g>
</a>
<g transform="translate(62.5136, 12.3566)">
<rect x="-0.0650" y="-3.8139" width="0.1300" height="3.9983" ry="0.0400" fill="currentColor"/>
</g>
<a style="color:inherit;" xlink:href="textedit:///Users/marc.mouries/projects/Sheet-Music/Classical/Mozart_Rondo-Alla-Turca/KV331_3_RondoAllaTurca-Violin-MacBookAir.ly:115:24:25">
<g transform="translate(65.4365, 7.8566)">
<path transform="scale(0.0040, -0.0040)" d="M218 136c66 0 108 -36 108 -89c0 -89 -113 -183 -218 -183c-66 0 -108 36 -108 89c0 89 113 183 218 183z" fill="currentColor"/>
</g>
</a>
<a style="color:inherit;" xlink:href="textedit:///Users/marc.mouries/projects/Sheet-Music/Classical/Mozart_Rondo-Alla-Turca/KV331_3_RondoAllaTurca-Violin-MacBookAir.ly:113:6:7">
<g transform="translate(14.2906, 15.7232)">
<line stroke-linejoin="round" stroke-linecap="round" stroke-width="0.1000" stroke="currentColor" x1="0.0000" y1="0.2222" x2="14.0853" y2="0.6666"/>
</g>
<g transform="translate(14.2906, 15.7232)">
<line stroke-linejoin="round" stroke-linecap="round" stroke-width="0.1000" stroke="currentColor" x1="0.0000" y1="-0.2222" x2="14.0853" y2="-0.6666"/>
</g>
</a>
<g transform="translate(65.5015, 12.3566)">
<rect x="-0.0650" y="-4.3139" width="0.1300" height="4.3195" ry="0.0400" fill="currentColor"/>
</g>
<a style="color:inherit;" xlink:href="textedit:///Users/marc.mouries/projects/Sheet-Music/Classical/Mozart_Rondo-Alla-Turca/KV331_3_RondoAllaTurca-Violin-MacBookAir.ly:115:26:27">
<g transform="translate(67.5205, 8.3566)">
<path transform="scale(0.0040, -0.0040)" d="M218 136c66 0 108 -36 108 -89c0 -89 -113 -183 -218 -183c-66 0 -108 36 -108 89c0 89 113 183 218 183z" fill="currentColor"/>
</g>
</a>
<g transform="translate(67.5855, 12.3566)">
<rect x="-0.0650" y="-3.8139" width="0.1300" height="3.9983" ry="0.0400" fill="currentColor"/>
</g>
<a style="color:inherit;" xlink:href="textedit:///Users/marc.mouries/projects/Sheet-Music/Classical/Mozart_Rondo-Alla-Turca/KV331_3_RondoAllaTurca-Violin-MacBookAir.ly:116:2:3">
<g transform="translate(69.6045, 7.8566)">
<path transform="scale(0.0040, -0.0040)" d="M218 136c66 0 108 -36 108 -89c0 -89 -113 -183 -218 -183c-66 0 -108 36 -108 89c0 89 113 183 218 183z" fill="currentColor"/>
</g>
</a>
<g transform="translate(69.6695, 12.3566)">
<rect x="-0.0650" y="-4.3139" width="0.1300" height="4.3195" ry="0.0400" fill="currentColor"/>
</g>
<a style="color:inherit;" xlink:href="textedit:///Users/marc.mouries/projects/Sheet-Music/Classical/Mozart_Rondo-Alla-Turca/KV331_3_RondoAllaTurca-Violin-MacBookAir.ly:116:4:5">
<g transform="translate(71.6886, 8.3566)">
<path transform="scale(0.0040, -0.0040)" d="M218 136c66 0 108 -36 108 -89c0 -89 -113 -183 -218 -183c-66 0 -108 36 -108 89c0 89 113 183 218 183z" fill="currentColor"/>
</g>
</a>
<g transform="translate(71.7536, 12.3566)">
<rect x="-0.0650" y="-3.8139" width="0.1300" height="3.9983" ry="0.0400" fill="currentColor"/>
</g>
<a style="color:inherit;" xlink:href="textedit:///Users/marc.mouries/projects/Sheet-Music/Classical/Mozart_Rondo-Alla-Turca/KV331_3_RondoAllaTurca-Violin-MacBookAir.ly:116:7:8">
<g transform="translate(74.7050, 8.8566)">
<path transform="scale(0.0040, -0.0040)" d="M218 136c66 0 108 -36 108 -89c0 -89 -113 -183 -218 -183c-66 0 -108 36 -108 89c0 89 113 183 218 183z" fill="currentColor"/>
</g>
</a>
<g transform="translate(74.7700, 12.3566)">
<rect x="-0.0650" y="-3.3139" width="0.1300" height="3.3195" ry="0.0400" fill="currentColor"/>
</g>
<a style="color:inherit;" xlink:href="textedit:///Users/marc.mouries/projects/Sheet-Music/Classical/Mozart_Rondo-Alla-Turca/KV331_3_RondoAllaTurca-Violin-MacBookAir.ly:116:9:10">
<g transform="translate(76.7890, 9.3566)">
<path transform="scale(0.0040, -0.0040)" d="M218 136c66 0 108 -36 108 -89c0 -89 -113 -183 -218 -183c-66 0 -108 36 -108 89c0 89 113 183 218 183z" fill="currentColor"/>
</g>
</a>
<g transform="translate(76.8540, 12.3566)">
<rect x="-0.0650" y="-2.8139" width="0.1300" height="2.9983" ry="0.0400" fill="currentColor"/>
</g>
<a style="color:inherit;" xlink:href="textedit:///Users/marc.mouries/projects/Sheet-Music/Classical/Mozart_Rondo-Alla-Turca/KV331_3_RondoAllaTurca-Violin-MacBookAir.ly:116:11:12">
<g transform="translate(78.8730, 9.8566)">
<path transform="scale(0.0040, -0.0040)" d="M218 136c66 0 108 -36 108 -89c0 -89 -113 -183 -218 -183c-66 0 -108 36 -108 89c0 89 113 183 218 183z" fill="currentColor"/>
</g>
</a>
<a style="color:inherit;" xlink:href="textedit:///Users/marc.mouries/projects/Sheet-Music/Classical/Mozart_Rondo-Alla-Turca/KV331_3_RondoAllaTurca-Violin-MacBookAir.ly:116:13:14">
<g transform="translate(79.0983, 8.8116)">
<path transform="scale(0.0022, -0.0022)" d="M94 66c-60 0 -39 -66 -72 -66c-11 0 -22 7 -22 21c0 154 232 162 232 334c0 50 -17 102 -61 102c-33 0 -66 -14 -66 -44c0 -24 31 -37 31 -61c0 -34 -27 -61 -61 -61s-61 27 -61 61c0 84 72 148 157 148c98 0 190 -55 190 -145c0 -140 -131 -154 -225 -205
c85 -2 113 -61 165 -61c45 0 28 41 57 41c11 0 22 -8 22 -21c0 -29 -48 -109 -144 -109c-92 0 -96 66 -142 66z" fill="currentColor"/>
</g>
</a>
<g transform="translate(78.9380, 12.3566)">
<rect x="-0.0650" y="-2.3139" width="0.1300" height="2.4983" ry="0.0400" fill="currentColor"/>
</g>
<a style="color:inherit;" xlink:href="textedit:///Users/marc.mouries/projects/Sheet-Music/Classical/Mozart_Rondo-Alla-Turca/KV331_3_RondoAllaTurca-Violin-MacBookAir.ly:116:16:17">
<g transform="translate(80.9571, 9.3566)">
<path transform="scale(0.0040, -0.0040)" d="M218 136c66 0 108 -36 108 -89c0 -89 -113 -183 -218 -183c-66 0 -108 36 -108 89c0 89 113 183 218 183z" fill="currentColor"/>
</g>
</a>
<g transform="translate(81.0221, 12.3566)">
<rect x="-0.0650" y="-2.8139" width="0.1300" height="2.8195" ry="0.0400" fill="currentColor"/>
</g>
<a style="color:inherit;" xlink:href="textedit:///Users/marc.mouries/projects/Sheet-Music/Classical/Mozart_Rondo-Alla-Turca/KV331_3_RondoAllaTurca-Violin-MacBookAir.ly:116:18:19">
<g transform="translate(83.9306, 8.8566)">
<path transform="scale(0.0040, -0.0040)" d="M218 136c66 0 108 -36 108 -89c0 -89 -113 -183 -218 -183c-66 0 -108 36 -108 89c0 89 113 183 218 183z" fill="currentColor"/>
</g>
</a>
<g transform="translate(83.9956, 12.3566)">
<rect x="-0.0650" y="-3.3139" width="0.1300" height="3.3202" ry="0.0400" fill="currentColor"/>
</g>
<a style="color:inherit;" xlink:href="textedit:///Users/marc.mouries/projects/Sheet-Music/Classical/Mozart_Rondo-Alla-Turca/KV331_3_RondoAllaTurca-Violin-MacBookAir.ly:116:20:21">
<g transform="translate(85.7647, 9.8566)">
<path transform="scale(0.0040, -0.0040)" d="M218 136c66 0 108 -36 108 -89c0 -89 -113 -183 -218 -183c-66 0 -108 36 -108 89c0 89 113 183 218 183z" fill="currentColor"/>
</g>
</a>
<g transform="translate(85.8297, 12.3566)">
<rect x="-0.0650" y="-2.3139" width="0.1300" height="2.4976" ry="0.0400" fill="currentColor"/>
</g>
<a style="color:inherit;" xlink:href="textedit:///Users/marc.mouries/projects/Sheet-Music/Classical/Mozart_Rondo-Alla-Turca/KV331_3_RondoAllaTurca-Violin-MacBookAir.ly:117:2:3">
<g transform="translate(87.8487, 9.3566)">
<path transform="scale(0.0040, -0.0040)" d="M218 136c66 0 108 -36 108 -89c0 -89 -113 -183 -218 -183c-66 0 -108 36 -108 89c0 89 113 183 218 183z" fill="currentColor"/>
</g>
</a>
<a style="color:inherit;" xlink:href="textedit:///Users/marc.mouries/projects/Sheet-Music/Classical/Mozart_Rondo-Alla-Turca/KV331_3_RondoAllaTurca-Violin-MacBookAir.ly:117:3:4">
<g transform="translate(87.7667, 16.1746)">
<path transform="scale(0.0040, -0.0040)" d="M161 32c78 0 97 176 97 178c0 18 -7 33 -25 33c-61 0 -102 -124 -102 -173c0 -22 8 -38 30 -38zM-53 141c0 2 51 151 134 151c35 0 59 -21 66 -52c29 31 67 52 103 52c69 0 107 -49 107 -114c0 -118 -105 -186 -159 -186c-53 0 -70 20 -84 20c-7 0 -14 -3 -16 -9l-29 -86
c-1 -2 -1 -5 -1 -7c0 -37 57 -18 57 -42c0 -7 -4 -14 -13 -14c-3 0 -50 5 -116 5s-112 -5 -115 -5c-9 0 -14 7 -14 14c0 31 87 -1 102 41l102 300c2 7 4 14 4 20c0 8 -2 14 -11 14c-33 0 -63 -60 -79 -97c-5 -12 -15 -17 -24 -17c-8 0 -14 4 -14 12z" fill="currentColor"/>
</g>
</a>
<g transform="translate(87.9137, 12.3566)">
<rect x="-0.0650" y="-2.8139" width="0.1300" height="2.9983" ry="0.0400" fill="currentColor"/>
</g>
<a style="color:inherit;" xlink:href="textedit:///Users/marc.mouries/projects/Sheet-Music/Classical/Mozart_Rondo-Alla-Turca/KV331_3_RondoAllaTurca-Violin-MacBookAir.ly:117:6:7">
<g transform="translate(89.9327, 8.8566)">
<path transform="scale(0.0040, -0.0040)" d="M218 136c66 0 108 -36 108 -89c0 -89 -113 -183 -218 -183c-66 0 -108 36 -108 89c0 89 113 183 218 183z" fill="currentColor"/>
</g>
</a>
<g transform="translate(89.9977, 12.3566)">
<rect x="-0.0650" y="-3.3139" width="0.1300" height="3.3195" ry="0.0400" fill="currentColor"/>
</g>
<a style="color:inherit;" xlink:href="textedit:///Users/marc.mouries/projects/Sheet-Music/Classical/Mozart_Rondo-Alla-Turca/KV331_3_RondoAllaTurca-Violin-MacBookAir.ly:117:8:9">
<g transform="translate(92.9706, 8.3566)">
<path transform="scale(0.0040, -0.0040)" d="M218 136c66 0 108 -36 108 -89c0 -89 -113 -183 -218 -183c-66 0 -108 36 -108 89c0 89 113 183 218 183z" fill="currentColor"/>
</g>
</a>
<g transform="translate(93.0356, 12.3566)">
<rect x="-0.0650" y="-3.8139" width="0.1300" height="4.0244" ry="0.0400" fill="currentColor"/>
</g>
<a style="color:inherit;" xlink:href="textedit:///Users/marc.mouries/projects/Sheet-Music/Classical/Mozart_Rondo-Alla-Turca/KV331_3_RondoAllaTurca-Violin-MacBookAir.ly:117:11:12">
<g transform="translate(94.8046, 10.3566)">
<path transform="scale(0.0040, -0.0040)" d="M218 136c66 0 108 -36 108 -89c0 -89 -113 -183 -218 -183c-66 0 -108 36 -108 89c0 89 113 183 218 183z" fill="currentColor"/>
</g>
</a>
<a style="color:inherit;" xlink:href="textedit:///Users/marc.mouries/projects/Sheet-Music/Classical/Mozart_Rondo-Alla-Turca/KV331_3_RondoAllaTurca-Violin-MacBookAir.ly:117:14:15">
<g transform="translate(95.0299, 9.3116)">
<path transform="scale(0.0022, -0.0022)" d="M94 66c-60 0 -39 -66 -72 -66c-11 0 -22 7 -22 21c0 154 232 162 232 334c0 50 -17 102 -61 102c-33 0 -66 -14 -66 -44c0 -24 31 -37 31 -61c0 -34 -27 -61 -61 -61s-61 27 -61 61c0 84 72 148 157 148c98 0 190 -55 190 -145c0 -140 -131 -154 -225 -205
c85 -2 113 -61 165 -61c45 0 28 41 57 41c11 0 22 -8 22 -21c0 -29 -48 -109 -144 -109c-92 0 -96 66 -142 66z" fill="currentColor"/>
</g>
</a>
<g transform="translate(94.8696, 12.3566)">
<rect x="-0.0650" y="-1.8139" width="0.1300" height="2.6034" ry="0.0400" fill="currentColor"/>
</g>
<a style="color:inherit;" xlink:href="textedit:///Users/marc.mouries/projects/Sheet-Music/Classical/Mozart_Rondo-Alla-Turca/KV331_3_RondoAllaTurca-Violin-MacBookAir.ly:117:17:18">
<g transform="translate(97.9588, 10.8566)">
<path transform="scale(0.0040, -0.0040)" d="M218 136c66 0 108 -36 108 -89c0 -89 -113 -183 -218 -183c-66 0 -108 36 -108 89c0 89 113 183 218 183z" fill="currentColor"/>
</g>
</a>
<g transform="translate(98.0238, 12.3566)">
<rect x="-0.0650" y="-1.3139" width="0.1300" height="2.4983" ry="0.0400" fill="currentColor"/>
</g>
<g transform="translate(96.5088, 10.8566)">
<path transform="scale(0.0040, -0.0040)" d="M0 119c0 8 5 15 13 18l46 17v158c0 10 8 19 18 19s19 -9 19 -19v-145l83 31v158c0 10 9 19 19 19s18 -9 18 -19v-145l32 12c2 1 5 1 7 1c11 0 20 -9 20 -20v-60c0 -8 -5 -16 -13 -19l-46 -16v-160l32 11c2 1 5 1 7 1c11 0 20 -9 20 -20v-60c0 -8 -5 -15 -13 -18l-46 -17
v-158c0 -10 -8 -19 -18 -19s-19 9 -19 19v145l-83 -31v-158c0 -10 -9 -19 -19 -19s-18 9 -18 19v145l-32 -12c-2 -1 -5 -1 -7 -1c-11 0 -20 9 -20 20v60c0 8 5 16 13 19l46 16v160l-32 -11c-2 -1 -5 -1 -7 -1c-11 0 -20 9 -20 20v60zM179 95l-83 -30v-160l83 30v160z" fill="currentColor"/>
</g>
<g transform="translate(108.3411, 12.3566)">
<rect x="-0.0650" y="-1.7410" width="0.1300" height="3.2410" ry="0.0400" fill="currentColor"/>
</g>
<a style="color:inherit;" xlink:href="textedit:///Users/marc.mouries/projects/Sheet-Music/Classical/Mozart_Rondo-Alla-Turca/KV331_3_RondoAllaTurca-Violin-MacBookAir.ly:117:20:21">
<g transform="translate(100.0428, 10.3566)">
<path transform="scale(0.0040, -0.0040)" d="M218 136c66 0 108 -36 108 -89c0 -89 -113 -183 -218 -183c-66 0 -108 36 -108 89c0 89 113 183 218 183z" fill="currentColor"/>
</g>
</a>
<g transform="translate(100.1078, 12.3566)">
<rect x="-0.0650" y="-1.8139" width="0.1300" height="2.8195" ry="0.0400" fill="currentColor"/>
</g>
<a style="color:inherit;" xlink:href="textedit:///Users/marc.mouries/projects/Sheet-Music/Classical/Mozart_Rondo-Alla-Turca/KV331_3_RondoAllaTurca-Violin-MacBookAir.ly:117:33:34">
<g transform="translate(108.9647, 9.5316)">
<path transform="scale(0.0040, -0.0040)" d="M130 -20h-260c-11 0 -20 9 -20 20s9 20 20 20h260c11 0 20 -9 20 -20s-9 -20 -20 -20z" fill="currentColor"/>
</g>
</a>
<a style="color:inherit;" xlink:href="textedit:///Users/marc.mouries/projects/Sheet-Music/Classical/Mozart_Rondo-Alla-Turca/KV331_3_RondoAllaTurca-Violin-MacBookAir.ly:117:29:30">
<g transform="translate(108.2761, 10.3566)">
<path transform="scale(0.0040, -0.0040)" d="M314 65c0 23 -19 41 -42 41c-39 0 -204 -110 -231 -143c-7 -8 -10 -18 -10 -28c0 -23 19 -41 42 -41c39 0 203 110 230 143c7 8 11 18 11 28zM262 136c41 0 82 -14 82 -71c0 -26 -16 -112 -74 -151c-25 -17 -87 -50 -187 -50c-41 0 -83 14 -83 71c0 26 16 112 74 151
c25 17 88 50 188 50z" fill="currentColor"/>
</g>
</a>
<a style="color:inherit;" xlink:href="textedit:///Users/marc.mouries/projects/Sheet-Music/Classical/Mozart_Rondo-Alla-Turca/KV331_3_RondoAllaTurca-Violin-MacBookAir.ly:117:23:24">
<g transform="translate(103.0378, 9.8566)">
<path transform="scale(0.0040, -0.0040)" d="M218 136c66 0 108 -36 108 -89c0 -89 -113 -183 -218 -183c-66 0 -108 36 -108 89c0 89 113 183 218 183z" fill="currentColor"/>
</g>
</a>
<g transform="translate(103.1028, 12.3566)">
<rect x="-0.0650" y="-2.3139" width="0.1300" height="3.5162" ry="0.0400" fill="currentColor"/>
</g>
<a style="color:inherit;" xlink:href="textedit:///Users/marc.mouries/projects/Sheet-Music/Classical/Mozart_Rondo-Alla-Turca/KV331_3_RondoAllaTurca-Violin-MacBookAir.ly:117:26:27">
<g transform="translate(106.1920, 10.8566)">
<path transform="scale(0.0040, -0.0040)" d="M218 136c66 0 108 -36 108 -89c0 -89 -113 -183 -218 -183c-66 0 -108 36 -108 89c0 89 113 183 218 183z" fill="currentColor"/>
</g>
</a>
<g transform="translate(106.2570, 12.3566)">
<rect x="-0.0650" y="-1.3139" width="0.1300" height="3.1116" ry="0.0400" fill="currentColor"/>
</g>
<g transform="translate(104.7420, 10.8566)">
<path transform="scale(0.0040, -0.0040)" d="M0 119c0 8 5 15 13 18l46 17v158c0 10 8 19 18 19s19 -9 19 -19v-145l83 31v158c0 10 9 19 19 19s18 -9 18 -19v-145l32 12c2 1 5 1 7 1c11 0 20 -9 20 -20v-60c0 -8 -5 -16 -13 -19l-46 -16v-160l32 11c2 1 5 1 7 1c11 0 20 -9 20 -20v-60c0 -8 -5 -15 -13 -18l-46 -17
v-158c0 -10 -8 -19 -18 -19s-19 9 -19 19v145l-83 -31v-158c0 -10 -9 -19 -19 -19s-18 9 -18 19v145l-32 -12c-2 -1 -5 -1 -7 -1c-11 0 -20 9 -20 20v60c0 8 5 16 13 19l46 16v160l-32 -11c-2 -1 -5 -1 -7 -1c-11 0 -20 9 -20 20v60zM179 95l-83 -30v-160l83 30v160z" fill="currentColor"/>
</g>
<g transform="translate(14.1105, 165.5950)">
<rect x="-1.1000" y="-0.1000" width="93.4805" height="0.1000" ry="0.0000" fill="currentColor"/>
</g>
<g transform="translate(14.1105, 156.3975)">
<rect x="-1.1000" y="-0.1000" width="93.4805" height="0.1000" ry="0.0000" fill="currentColor"/>
</g>
<g transform="translate(13.0105, 158.7593)">
<rect x="0" y="-2.3619" width="0.1000" height="9.0976" ry="0.0000" fill="currentColor"/>
</g>
<g transform="translate(106.3910, 158.7593)">
<rect x="0" y="-2.3619" width="0.1000" height="9.0976" ry="0.0000" fill="currentColor"/>
</g>
<g transform="translate(14.1105, 158.7593)">
<text font-family="serif" font-size="1.9600" text-anchor="start" fill="currentColor">
<tspan>Sheet</tspan>
</text>
</g>
<g transform="translate(19.0467, 158.7593)">
<text font-family="serif" font-size="1.9600" text-anchor="start" fill="currentColor">
<tspan>music</tspan>
</text>
</g>
<g transform="translate(24.3244, 158.7593)">
<text font-family="serif" font-size="1.9600" text-anchor="start" fill="currentColor">
<tspan>from</tspan>
</text>
</g>
<g transform="translate(28.7484, 158.7593)">
<a xlink:href="http://www.MutopiaProject.org">
<rect x="0.0000" y="-0.4230" width="17.9667" height="1.7849" fill="none" stroke="none" stroke-width="0.0"/>
</a>
</g>
<g transform="translate(28.7484, 158.7593)">
<text font-family="serif" font-size="1.5555" text-anchor="start" fill="currentColor">
<tspan>www.</tspan>
</text>
</g>
<g transform="translate(32.0017, 158.7593)">
<text font-family="serif" font-size="1.9600" text-anchor="start" fill="currentColor">
<tspan>MutopiaProject</tspan>
</text>
</g>
<g transform="translate(43.7909, 158.7593)">
<text font-family="serif" font-size="1.5555" text-anchor="start" fill="currentColor">
<tspan>.org</tspan>
</text>
</g>
<g transform="translate(47.3151, 158.7593)">
<text font-family="serif" font-size="1.9600" text-anchor="start" fill="currentColor">
<tspan></tspan>
</text>
</g>
<g transform="translate(49.0980, 158.7593)">
<text font-family="serif" font-style="italic" font-size="1.9600" text-anchor="start" fill="currentColor">
<tspan>Free</tspan>
</text>
</g>
<g transform="translate(53.2830, 158.7593)">
<text font-family="serif" font-size="1.9600" text-anchor="start" fill="currentColor">
<tspan>to</tspan>
</text>
</g>
<g transform="translate(55.4194, 158.7593)">
<text font-family="serif" font-size="1.9600" text-anchor="start" fill="currentColor">
<tspan>download,</tspan>
</text>
</g>
<g transform="translate(64.2480, 158.7593)">
<text font-family="serif" font-size="1.9600" text-anchor="start" fill="currentColor">
<tspan>with</tspan>
</text>
</g>
<g transform="translate(68.3306, 158.7593)">
<text font-family="serif" font-size="1.9600" text-anchor="start" fill="currentColor">
<tspan>the</tspan>
</text>
</g>
<g transform="translate(71.3206, 158.7593)">
<text font-family="serif" font-style="italic" font-size="1.9600" text-anchor="start" fill="currentColor">
<tspan>freedom</tspan>
</text>
</g>
<g transform="translate(78.2371, 158.7593)">
<text font-family="serif" font-size="1.9600" text-anchor="start" fill="currentColor">
<tspan>to</tspan>
</text>
</g>
<g transform="translate(80.3736, 158.7593)">
<text font-family="serif" font-size="1.9600" text-anchor="start" fill="currentColor">
<tspan>distribute,</tspan>
</text>
</g>
<g transform="translate(88.8607, 158.7593)">
<text font-family="serif" font-size="1.9600" text-anchor="start" fill="currentColor">
<tspan>modify</tspan>
</text>
</g>
<g transform="translate(95.1626, 158.7593)">
<text font-family="serif" font-size="1.9600" text-anchor="start" fill="currentColor">
<tspan>and</tspan>
</text>
</g>
<g transform="translate(98.5965, 158.7593)">
<text font-family="serif" font-size="1.9600" text-anchor="start" fill="currentColor">
<tspan>perform.</tspan>
</text>
</g>
<g transform="translate(19.0872, 161.4593)">
<text font-family="serif" font-size="1.9600" text-anchor="start" fill="currentColor">
<tspan>Typeset</tspan>
</text>
</g>
<g transform="translate(25.7306, 161.4593)">
<text font-family="serif" font-size="1.9600" text-anchor="start" fill="currentColor">
<tspan>using</tspan>
</text>
</g>
<g transform="translate(30.5985, 161.4593)">
<a xlink:href="http://www.LilyPond.org">
<rect x="0.0000" y="-0.4230" width="12.6183" height="1.7839" fill="none" stroke="none" stroke-width="0.0"/>
</a>
</g>
<g transform="translate(30.5985, 161.4593)">
<text font-family="serif" font-size="1.5555" text-anchor="start" fill="currentColor">
<tspan>www.</tspan>
</text>
</g>
<g transform="translate(33.8518, 161.4593)">
<text font-family="serif" font-size="1.9600" text-anchor="start" fill="currentColor">
<tspan>LilyPond</tspan>
</text>
</g>
<g transform="translate(40.7926, 161.4593)">
<text font-family="serif" font-size="1.5555" text-anchor="start" fill="currentColor">
<tspan>.org</tspan>
</text>
</g>
<g transform="translate(43.8168, 161.4593)">
<text font-family="serif" font-size="1.9600" text-anchor="start" fill="currentColor">
<tspan>by</tspan>
</text>
</g>
<g transform="translate(46.3971, 161.4593)">
<text font-family="serif" font-size="1.9600" text-anchor="start" fill="currentColor">
<tspan>Rune Zedeler and Chris Sawer</tspan>
</text>
</g>
<g transform="translate(69.8974, 161.4593)">
<text font-family="serif" font-size="1.9600" text-anchor="start" fill="currentColor">
<tspan>.</tspan>
</text>
</g>
<g transform="translate(71.4754, 161.4593)">
<text font-family="serif" font-size="1.9600" text-anchor="start" fill="currentColor">
<tspan>Reference:</tspan>
</text>
</g>
<g transform="translate(80.4747, 161.4593)">
<text font-family="serif" font-size="1.9600" text-anchor="start" fill="currentColor">
<tspan>Mutopia-2007/05/21-108</tspan>
</text>
</g>
<g transform="translate(15.0141, 164.1593)">
<text font-family="serif" font-size="1.5555" text-anchor="start" fill="currentColor">
<tspan>This</tspan>
</text>
</g>
<g transform="translate(18.4139, 164.1593)">
<text font-family="serif" font-size="1.5555" text-anchor="start" fill="currentColor">
<tspan>sheet</tspan>
</text>
</g>
<g transform="translate(22.2233, 164.1593)">
<text font-family="serif" font-size="1.5555" text-anchor="start" fill="currentColor">
<tspan>music</tspan>
</text>
</g>
<g transform="translate(26.5450, 164.1593)">
<text font-family="serif" font-size="1.5555" text-anchor="start" fill="currentColor">
<tspan>has</tspan>
</text>
</g>
<g transform="translate(29.2277, 164.1593)">
<text font-family="serif" font-size="1.5555" text-anchor="start" fill="currentColor">
<tspan>been</tspan>
</text>
</g>
<g transform="translate(32.7640, 164.1593)">
<text font-family="serif" font-size="1.5555" text-anchor="start" fill="currentColor">
<tspan>placed</tspan>
</text>
</g>
<g transform="translate(37.4271, 164.1593)">
<text font-family="serif" font-size="1.5555" text-anchor="start" fill="currentColor">
<tspan>in</tspan>
</text>
</g>
<g transform="translate(39.2562, 164.1593)">
<text font-family="serif" font-size="1.5555" text-anchor="start" fill="currentColor">
<tspan>the</tspan>
</text>
</g>
<g transform="translate(41.7683, 164.1593)">
<text font-family="serif" font-size="1.5555" text-anchor="start" fill="currentColor">
<tspan>public</tspan>
</text>
</g>
<g transform="translate(46.2947, 164.1593)">
<text font-family="serif" font-size="1.5555" text-anchor="start" fill="currentColor">
<tspan>domain</tspan>
</text>
</g>
<g transform="translate(51.5724, 164.1593)">
<text font-family="serif" font-size="1.5555" text-anchor="start" fill="currentColor">
<tspan>by</tspan>
</text>
</g>
<g transform="translate(53.7430, 164.1593)">
<text font-family="serif" font-size="1.5555" text-anchor="start" fill="currentColor">
<tspan>the</tspan>
</text>
</g>
<g transform="translate(56.2550, 164.1593)">
<text font-family="serif" font-size="1.5555" text-anchor="start" fill="currentColor">
<tspan>typesetter,</tspan>
</text>
</g>
<g transform="translate(63.2398, 164.1593)">
<text font-family="serif" font-size="1.5555" text-anchor="start" fill="currentColor">
<tspan>for</tspan>
</text>
</g>
<g transform="translate(65.6494, 164.1593)">
<text font-family="serif" font-size="1.5555" text-anchor="start" fill="currentColor">
<tspan>details</tspan>
</text>
</g>
<g transform="translate(70.3466, 164.1593)">
<text font-family="serif" font-size="1.5555" text-anchor="start" fill="currentColor">
<tspan>see:</tspan>
</text>
</g>
<g transform="translate(72.8708, 164.1593)">
<a xlink:href="http://creativecommons.org/licenses/publicdomain">
<rect x="0.0000" y="-0.3357" width="31.6167" height="1.4157" fill="none" stroke="none" stroke-width="0.0"/>
</a>
</g>
<g transform="translate(72.8708, 164.1593)">
<text font-family="serif" font-size="1.5555" text-anchor="start" fill="currentColor">
<tspan>http://creativecommons.org/licenses/publicdomain</tspan>
</text>
</g>
</svg>
