<svg xmlns="http://www.w3.org/2000/svg" xmlns:xlink="http://www.w3.org/1999/xlink" version="1.2" width="210.00mm" height="297.00mm" viewBox="0.0000 -0.0000 119.5016 169.0094">
<style type="text/css">
<![CDATA[
tspan { white-space: pre; }
]]>
</style>
<g transform="translate(32.3166, 8.0143)">
<text font-family="Optima" font-weight="bold" font-size="5.5438" text-anchor="start" fill="currentColor">
<tspan>10-Step Violin Practice</tspan>
</text>
</g>
<g transform="translate(5.6906, 16.4182)">
<text font-family="Optima" font-weight="bold" font-size="2.7719" text-anchor="start" fill="currentColor">
<tspan>1) SILENT FINGER EXERCISES</tspan>
</text>
</g>
<g transform="translate(5.6906, 21.2024)">
<text font-family="Optima" font-size="2.2001" text-anchor="start" fill="currentColor">
<tspan>Such as </tspan>
</text>
</g>
<g transform="translate(14.0752, 21.2024)">
<text font-family="Optima" font-style="italic" font-size="2.2001" text-anchor="start" fill="currentColor">
<tspan>Ursstudien</tspan>
</text>
</g>
<g transform="translate(24.8158, 21.2024)">
<text font-family="Optima" font-size="2.2001" text-anchor="start" fill="currentColor">
<tspan> (EXAMPLE 1a) (violists might avoid </tspan>
</text>
</g>
<g transform="translate(59.5591, 21.2024)">
<text font-family="Optima" font-style="italic" font-size="2.2001" text-anchor="start" fill="currentColor">
<tspan>Ursstudien</tspan>
</text>
</g>
<g transform="translate(70.2997, 21.2024)">
<text font-family="Optima" font-size="2.2001" text-anchor="start" fill="currentColor">
<tspan> exercise 1B); </tspan>
</text>
</g>
<g transform="translate(84.1814, 21.2024)">
<text font-family="Optima" font-style="italic" font-size="2.2001" text-anchor="start" fill="currentColor">
<tspan>Dounis Daily Dozen</tspan>
</text>
</g>
<g transform="translate(5.6906, 24.0024)">
<text font-family="Optima" font-size="2.2001" text-anchor="start" fill="currentColor">
<tspan> exercise 1 (EXAMPLE 1b).</tspan>
</text>
</g>
<g transform="translate(5.6906, 25.9561)">
<text font-family="Optima" font-size="2.2001" text-anchor="start" fill="currentColor">
<tspan>After a few moments spent with the bow-tilting exercise (EXAMPLE 1c), </tspan>
</text>
</g>
<g transform="translate(5.6906, 28.7561)">
<text font-family="Optima" font-size="2.2001" text-anchor="start" fill="currentColor">
<tspan>these could be done simultaneously with the Gingold anecdotal </tspan>
</text>
</g>
<g transform="translate(67.5095, 28.7561)">
<text font-family="Optima" font-style="italic" font-size="2.2001" text-anchor="start" fill="currentColor">
<tspan>One Minute Bow</tspan>
</text>
</g>
<g transform="translate(84.4300, 28.7561)">
<text font-family="Optima" font-size="2.2001" text-anchor="start" fill="currentColor">
<tspan>.</tspan>
</text>
</g>
<g transform="translate(11.6906, 35.8001)">
<text font-family="Optima" font-weight="bold" font-size="2.2001" text-anchor="start" fill="currentColor">
<tspan>Bow Tilting: </tspan>
</text>
</g>
<g transform="translate(24.1724, 35.8001)">
<text font-family="Optima" font-size="2.2001" text-anchor="start" fill="currentColor">
<tspan>Tilt the bow stick toward the scroll to reduce hair contact with the string. </tspan>
</text>
</g>
<g transform="translate(11.6906, 38.6001)">
<text font-family="Optima" font-size="2.2001" text-anchor="start" fill="currentColor">
<tspan>Practice rolling the bow with thumb and fingers from flat hair to tilted position </tspan>
</text>
</g>
<g transform="translate(86.9278, 38.6001)">
<text font-family="Optima" font-size="2.2001" text-anchor="start" fill="currentColor">
<tspan>(Capet's </tspan>
</text>
</g>
<g transform="translate(95.7222, 38.6001)">
<text font-family="Optima" font-style="italic" font-size="2.2001" text-anchor="start" fill="currentColor">
<tspan>roule</tspan>
</text>
</g>
<g transform="translate(11.6906, 41.4001)">
<text font-family="Optima" font-size="2.2001" text-anchor="start" fill="currentColor">
<tspan> exercise). Use tilt at the frog to compensate for </tspan>
</text>
</g>
<g transform="translate(11.6906, 44.2001)">
<text font-family="Optima" font-size="2.2001" text-anchor="start" fill="currentColor">
<tspan>naturally louder sound, and flatten toward the tip. This controls tone color </tspan>
</text>
</g>
<g transform="translate(82.6941, 44.2001)">
<text font-family="Optima" font-size="2.2001" text-anchor="start" fill="currentColor">
<tspan>and enables smoother bow changes.</tspan>
</text>
</g>
<g transform="translate(5.6906, 46.9266)">
<text font-family="Optima" font-style="italic" font-size="2.2001" text-anchor="start" fill="currentColor">
<tspan>Example 1a: Flesch Urstudien</tspan>
</text>
</g>
<g transform="translate(5.6906, 55.6347)">
<line stroke-linejoin="round" stroke-linecap="round" stroke-width="0.1000" stroke="currentColor" x1="0.0500" y1="0" x2="39.3502" y2="0"/>
</g>
<g transform="translate(5.6906, 54.6347)">
<line stroke-linejoin="round" stroke-linecap="round" stroke-width="0.1000" stroke="currentColor" x1="0.0500" y1="0" x2="39.3502" y2="0"/>
</g>
<g transform="translate(5.6906, 53.6347)">
<line stroke-linejoin="round" stroke-linecap="round" stroke-width="0.1000" stroke="currentColor" x1="0.0500" y1="0" x2="39.3502" y2="0"/>
</g>
<g transform="translate(5.6906, 52.6347)">
<line stroke-linejoin="round" stroke-linecap="round" stroke-width="0.1000" stroke="currentColor" x1="0.0500" y1="0" x2="39.3502" y2="0"/>
</g>
<g transform="translate(5.6906, 51.6347)">
<line stroke-linejoin="round" stroke-linecap="round" stroke-width="0.1000" stroke="currentColor" x1="0.0500" y1="0" x2="39.3502" y2="0"/>
</g>
<g transform="translate(44.9007, 53.6347)">
<rect x="0.0000" y="-2.0000" width="0.1900" height="4.0000" ry="0.0000" fill="currentColor"/>
</g>
<g transform="translate(36.7507, 53.6347)">
<rect x="0.0000" y="-2.0000" width="0.1900" height="4.0000" ry="0.0000" fill="currentColor"/>
</g>
<g transform="translate(28.6006, 53.6347)">
<rect x="0.0000" y="-2.0000" width="0.1900" height="4.0000" ry="0.0000" fill="currentColor"/>
</g>
<g transform="translate(20.4506, 53.6347)">
<rect x="0.0000" y="-2.0000" width="0.1900" height="4.0000" ry="0.0000" fill="currentColor"/>
</g>
<g transform="translate(14.3905, 53.1347)">
<path transform="scale(0.0040, -0.0040)" d="M213 112c-45 0 -69 -34 -69 -88c0 -102 89 -136 134 -136s69 34 69 88c0 102 -89 136 -134 136zM245 136c144 0 246 -65 246 -136s-102 -136 -246 -136s-245 65 -245 136s101 136 245 136z" fill="currentColor"/>
</g>
<g transform="translate(14.3905, 54.6347)">
<path transform="scale(0.0040, -0.0040)" d="M213 112c-45 0 -69 -34 -69 -88c0 -102 89 -136 134 -136s69 34 69 88c0 102 -89 136 -134 136zM245 136c144 0 246 -65 246 -136s-102 -136 -246 -136s-245 65 -245 136s101 136 245 136z" fill="currentColor"/>
</g>
<g transform="translate(6.4906, 54.6347)">
<path transform="scale(0.0040, -0.0040)" d="M266 -635h-6c-108 0 -195 88 -195 197c0 58 53 103 112 103c54 0 95 -47 95 -103c0 -52 -43 -95 -95 -95c-11 0 -21 2 -31 6c26 -39 68 -65 117 -65h4zM461 -203c68 24 113 90 113 164c0 90 -66 179 -173 190c19 -89 48 -242 60 -354zM74 28c0 -145 141 -247 264 -247
c1 0 47 0 82 6c-7 64 -29 203 -63 364c-79 -8 -124 -61 -124 -119c0 -44 25 -91 81 -123c5 -5 7 -10 7 -15c0 -11 -10 -22 -22 -22c-15 0 -126 62 -126 187c0 88 58 174 160 197c-14 58 -29 117 -46 175c-107 -121 -213 -243 -213 -403zM250 553c-29 96 -52 170 -52 346
c0 115 55 224 149 292c6 5 14 5 20 0c68 -80 133 -245 133 -358c0 -143 -86 -255 -180 -364c21 -68 39 -138 56 -207c2 0 7 1 13 1c155 0 256 -128 256 -261c0 -113 -74 -212 -180 -246c3 -35 5 -70 5 -105c0 -19 -1 -39 -2 -58c-7 -119 -88 -225 -202 -228l1 43
c93 2 153 92 159 191c1 18 2 37 2 55c0 31 -1 61 -4 92c-5 -1 -44 -8 -89 -8c-193 0 -333 180 -333 374c0 177 131 306 248 441zM428 916c0 34 1 66 -20 129c-99 -48 -162 -149 -162 -259c0 -52 12 -115 36 -194c80 97 146 198 146 324z" fill="currentColor"/>
</g>
<g transform="translate(10.6906, 53.6347)">
<path transform="scale(0.0040, -0.0040)" d="M250 262c116 0 176 -106 176 -163c0 -40 -30 -72 -67 -72c-31 0 -75 25 -75 75c0 38 27 77 72 77c4 0 9 0 14 -1c-28 37 -72 59 -120 59c-106 0 -113 -73 -113 -186v-51v-51c0 -113 7 -187 113 -187c80 0 139 70 158 151c2 7 7 10 12 10c6 0 13 -4 13 -12
c0 -22 -50 -174 -183 -174c-59 0 -250 19 -250 263c0 62 18 262 250 262z" fill="currentColor"/>
</g>
<g transform="translate(22.5406, 53.6347)">
<path transform="scale(0.0040, -0.0040)" d="M213 112c-45 0 -69 -34 -69 -88c0 -102 89 -136 134 -136s69 34 69 88c0 102 -89 136 -134 136zM245 136c144 0 246 -65 246 -136s-102 -136 -246 -136s-245 65 -245 136s101 136 245 136z" fill="currentColor"/>
</g>
<g transform="translate(22.5406, 55.1347)">
<path transform="scale(0.0040, -0.0040)" d="M213 112c-45 0 -69 -34 -69 -88c0 -102 89 -136 134 -136s69 34 69 88c0 102 -89 136 -134 136zM245 136c144 0 246 -65 246 -136s-102 -136 -246 -136s-245 65 -245 136s101 136 245 136z" fill="currentColor"/>
</g>
<g transform="translate(30.6906, 52.6347)">
<path transform="scale(0.0040, -0.0040)" d="M213 112c-45 0 -69 -34 -69 -88c0 -102 89 -136 134 -136s69 34 69 88c0 102 -89 136 -134 136zM245 136c144 0 246 -65 246 -136s-102 -136 -246 -136s-245 65 -245 136s101 136 245 136z" fill="currentColor"/>
</g>
<g transform="translate(30.6906, 54.1347)">
<path transform="scale(0.0040, -0.0040)" d="M213 112c-45 0 -69 -34 -69 -88c0 -102 89 -136 134 -136s69 34 69 88c0 102 -89 136 -134 136zM245 136c144 0 246 -65 246 -136s-102 -136 -246 -136s-245 65 -245 136s101 136 245 136z" fill="currentColor"/>
</g>
<g transform="translate(38.8407, 53.1347)">
<path transform="scale(0.0040, -0.0040)" d="M213 112c-45 0 -69 -34 -69 -88c0 -102 89 -136 134 -136s69 34 69 88c0 102 -89 136 -134 136zM245 136c144 0 246 -65 246 -136s-102 -136 -246 -136s-245 65 -245 136s101 136 245 136z" fill="currentColor"/>
</g>
<g transform="translate(38.8407, 54.6347)">
<path transform="scale(0.0040, -0.0040)" d="M213 112c-45 0 -69 -34 -69 -88c0 -102 89 -136 134 -136s69 34 69 88c0 102 -89 136 -134 136zM245 136c144 0 246 -65 246 -136s-102 -136 -246 -136s-245 65 -245 136s101 136 245 136z" fill="currentColor"/>
</g>
<g transform="translate(5.6906, 66.9027)">
<text font-family="Optima" font-weight="bold" font-size="2.2001" text-anchor="start" fill="currentColor">
<tspan>Example 1b:</tspan>
</text>
</g>
<g transform="translate(17.4358, 66.9027)">
<text font-family="Optima" font-style="italic" font-size="2.2001" text-anchor="start" fill="currentColor">
<tspan> Dounis Daily Dozen</tspan>
</text>
</g>
<g transform="translate(5.6906, 75.6197)">
<line stroke-linejoin="round" stroke-linecap="round" stroke-width="0.1000" stroke="currentColor" x1="0.0500" y1="0" x2="28.7441" y2="0"/>
</g>
<g transform="translate(5.6906, 74.6197)">
<line stroke-linejoin="round" stroke-linecap="round" stroke-width="0.1000" stroke="currentColor" x1="0.0500" y1="0" x2="28.7441" y2="0"/>
</g>
<g transform="translate(5.6906, 73.6197)">
<line stroke-linejoin="round" stroke-linecap="round" stroke-width="0.1000" stroke="currentColor" x1="0.0500" y1="0" x2="28.7441" y2="0"/>
</g>
<g transform="translate(5.6906, 72.6197)">
<line stroke-linejoin="round" stroke-linecap="round" stroke-width="0.1000" stroke="currentColor" x1="0.0500" y1="0" x2="28.7441" y2="0"/>
</g>
<g transform="translate(5.6906, 71.6197)">
<line stroke-linejoin="round" stroke-linecap="round" stroke-width="0.1000" stroke="currentColor" x1="0.0500" y1="0" x2="28.7441" y2="0"/>
</g>
<g transform="translate(34.2947, 73.6197)">
<rect x="0.0000" y="-2.0000" width="0.1900" height="4.0000" ry="0.0000" fill="currentColor"/>
</g>
<g transform="translate(24.4074, 75.6197)">
<polygon stroke-linejoin="round" stroke-linecap="round" stroke-width="0.0800" fill="currentColor" stroke="currentColor" points="7.6026 0.6100 7.6026 1.0100 0.0400 0.2000 0.0400 -0.2000"/>
</g>
<g transform="translate(14.3905, 76.6197)">
<polygon stroke-linejoin="round" stroke-linecap="round" stroke-width="0.0800" fill="currentColor" stroke="currentColor" points="7.6026 -0.3900 7.6026 0.0100 0.0400 0.2000 0.0400 -0.2000"/>
</g>
<g transform="translate(14.3905, 73.1197)">
<path transform="scale(0.0040, -0.0040)" d="M218 136c66 0 108 -36 108 -89c0 -89 -113 -183 -218 -183c-66 0 -108 36 -108 89c0 89 113 183 218 183z" fill="currentColor"/>
</g>
<g transform="translate(6.4906, 74.6197)">
<path transform="scale(0.0040, -0.0040)" d="M266 -635h-6c-108 0 -195 88 -195 197c0 58 53 103 112 103c54 0 95 -47 95 -103c0 -52 -43 -95 -95 -95c-11 0 -21 2 -31 6c26 -39 68 -65 117 -65h4zM461 -203c68 24 113 90 113 164c0 90 -66 179 -173 190c19 -89 48 -242 60 -354zM74 28c0 -145 141 -247 264 -247
c1 0 47 0 82 6c-7 64 -29 203 -63 364c-79 -8 -124 -61 -124 -119c0 -44 25 -91 81 -123c5 -5 7 -10 7 -15c0 -11 -10 -22 -22 -22c-15 0 -126 62 -126 187c0 88 58 174 160 197c-14 58 -29 117 -46 175c-107 -121 -213 -243 -213 -403zM250 553c-29 96 -52 170 -52 346
c0 115 55 224 149 292c6 5 14 5 20 0c68 -80 133 -245 133 -358c0 -143 -86 -255 -180 -364c21 -68 39 -138 56 -207c2 0 7 1 13 1c155 0 256 -128 256 -261c0 -113 -74 -212 -180 -246c3 -35 5 -70 5 -105c0 -19 -1 -39 -2 -58c-7 -119 -88 -225 -202 -228l1 43
c93 2 153 92 159 191c1 18 2 37 2 55c0 31 -1 61 -4 92c-5 -1 -44 -8 -89 -8c-193 0 -333 180 -333 374c0 177 131 306 248 441zM428 916c0 34 1 66 -20 129c-99 -48 -162 -149 -162 -259c0 -52 12 -115 36 -194c80 97 146 198 146 324z" fill="currentColor"/>
</g>
<g transform="translate(10.6906, 73.6197)">
<path transform="scale(0.0040, -0.0040)" d="M250 262c116 0 176 -106 176 -163c0 -40 -30 -72 -67 -72c-31 0 -75 25 -75 75c0 38 27 77 72 77c4 0 9 0 14 -1c-28 37 -72 59 -120 59c-106 0 -113 -73 -113 -186v-51v-51c0 -113 7 -187 113 -187c80 0 139 70 158 151c2 7 7 10 12 10c6 0 13 -4 13 -12
c0 -22 -50 -174 -183 -174c-59 0 -250 19 -250 263c0 62 18 262 250 262z" fill="currentColor"/>
</g>
<g transform="translate(14.4555, 73.6197)">
<rect x="-0.0650" y="-0.3139" width="0.1300" height="3.3123" ry="0.0400" fill="currentColor"/>
</g>
<g transform="translate(16.8948, 73.6197)">
<path transform="scale(0.0040, -0.0040)" d="M218 136c66 0 108 -36 108 -89c0 -89 -113 -183 -218 -183c-66 0 -108 36 -108 89c0 89 113 183 218 183z" fill="currentColor"/>
</g>
<g transform="translate(16.9598, 73.6197)">
<rect x="-0.0650" y="0.1861" width="0.1300" height="2.7500" ry="0.0400" fill="currentColor"/>
</g>
<g transform="translate(19.3990, 73.1197)">
<path transform="scale(0.0040, -0.0040)" d="M218 136c66 0 108 -36 108 -89c0 -89 -113 -183 -218 -183c-66 0 -108 36 -108 89c0 89 113 183 218 183z" fill="currentColor"/>
</g>
<g transform="translate(19.4640, 73.6197)">
<rect x="-0.0650" y="-0.3139" width="0.1300" height="3.1878" ry="0.0400" fill="currentColor"/>
</g>
<g transform="translate(21.9032, 72.6197)">
<path transform="scale(0.0040, -0.0040)" d="M218 136c66 0 108 -36 108 -89c0 -89 -113 -183 -218 -183c-66 0 -108 36 -108 89c0 89 113 183 218 183z" fill="currentColor"/>
</g>
<g transform="translate(21.9682, 73.6197)">
<rect x="-0.0650" y="-0.8139" width="0.1300" height="3.6255" ry="0.0400" fill="currentColor"/>
</g>
<g transform="translate(24.4074, 72.1197)">
<path transform="scale(0.0040, -0.0040)" d="M218 136c66 0 108 -36 108 -89c0 -89 -113 -183 -218 -183c-66 0 -108 36 -108 89c0 89 113 183 218 183z" fill="currentColor"/>
</g>
<g transform="translate(24.4724, 73.6197)">
<rect x="-0.0650" y="-1.3139" width="0.1300" height="3.3208" ry="0.0400" fill="currentColor"/>
</g>
<g transform="translate(26.9116, 72.6197)">
<path transform="scale(0.0040, -0.0040)" d="M218 136c66 0 108 -36 108 -89c0 -89 -113 -183 -218 -183c-66 0 -108 36 -108 89c0 89 113 183 218 183z" fill="currentColor"/>
</g>
<g transform="translate(26.9766, 73.6197)">
<rect x="-0.0650" y="-0.8139" width="0.1300" height="3.0862" ry="0.0400" fill="currentColor"/>
</g>
<g transform="translate(29.4158, 73.1197)">
<path transform="scale(0.0040, -0.0040)" d="M218 136c66 0 108 -36 108 -89c0 -89 -113 -183 -218 -183c-66 0 -108 36 -108 89c0 89 113 183 218 183z" fill="currentColor"/>
</g>
<g transform="translate(29.4808, 73.6197)">
<rect x="-0.0650" y="-0.3139" width="0.1300" height="2.8516" ry="0.0400" fill="currentColor"/>
</g>
<g transform="translate(31.9200, 73.6197)">
<path transform="scale(0.0040, -0.0040)" d="M218 136c66 0 108 -36 108 -89c0 -89 -113 -183 -218 -183c-66 0 -108 36 -108 89c0 89 113 183 218 183z" fill="currentColor"/>
</g>
<g transform="translate(31.9850, 73.6197)">
<rect x="-0.0650" y="0.1861" width="0.1300" height="2.6170" ry="0.0400" fill="currentColor"/>
</g>
<g transform="translate(5.6906, 94.5216)">
<line stroke-linejoin="round" stroke-linecap="round" stroke-width="0.1000" stroke="currentColor" x1="0.0500" y1="0" x2="28.6727" y2="0"/>
</g>
<g transform="translate(5.6906, 93.5216)">
<line stroke-linejoin="round" stroke-linecap="round" stroke-width="0.1000" stroke="currentColor" x1="0.0500" y1="0" x2="28.6727" y2="0"/>
</g>
<g transform="translate(5.6906, 92.5216)">
<line stroke-linejoin="round" stroke-linecap="round" stroke-width="0.1000" stroke="currentColor" x1="0.0500" y1="0" x2="28.6727" y2="0"/>
</g>
<g transform="translate(5.6906, 91.5216)">
<line stroke-linejoin="round" stroke-linecap="round" stroke-width="0.1000" stroke="currentColor" x1="0.0500" y1="0" x2="28.6727" y2="0"/>
</g>
<g transform="translate(5.6906, 90.5216)">
<line stroke-linejoin="round" stroke-linecap="round" stroke-width="0.1000" stroke="currentColor" x1="0.0500" y1="0" x2="28.6727" y2="0"/>
</g>
<g transform="translate(34.2232, 92.5216)">
<rect x="0.0000" y="-2.0000" width="0.1900" height="4.0000" ry="0.0000" fill="currentColor"/>
</g>
<g transform="translate(24.4074, 93.5216)">
<polygon stroke-linejoin="round" stroke-linecap="round" stroke-width="0.0800" fill="currentColor" stroke="currentColor" points="7.6026 0.6100 7.6026 1.0100 0.0400 0.2000 0.0400 -0.2000"/>
</g>
<g transform="translate(14.3905, 94.7116)">
<polygon stroke-linejoin="round" stroke-linecap="round" stroke-width="0.0800" fill="currentColor" stroke="currentColor" points="7.6026 -1.2000 7.6026 -0.8000 0.0400 0.2000 0.0400 -0.2000"/>
</g>
<g transform="translate(14.3905, 92.0216)">
<path transform="scale(0.0040, -0.0040)" d="M218 136c66 0 108 -36 108 -89c0 -89 -113 -183 -218 -183c-66 0 -108 36 -108 89c0 89 113 183 218 183z" fill="currentColor"/>
</g>
<g transform="translate(6.4906, 93.5216)">
<path transform="scale(0.0040, -0.0040)" d="M266 -635h-6c-108 0 -195 88 -195 197c0 58 53 103 112 103c54 0 95 -47 95 -103c0 -52 -43 -95 -95 -95c-11 0 -21 2 -31 6c26 -39 68 -65 117 -65h4zM461 -203c68 24 113 90 113 164c0 90 -66 179 -173 190c19 -89 48 -242 60 -354zM74 28c0 -145 141 -247 264 -247
c1 0 47 0 82 6c-7 64 -29 203 -63 364c-79 -8 -124 -61 -124 -119c0 -44 25 -91 81 -123c5 -5 7 -10 7 -15c0 -11 -10 -22 -22 -22c-15 0 -126 62 -126 187c0 88 58 174 160 197c-14 58 -29 117 -46 175c-107 -121 -213 -243 -213 -403zM250 553c-29 96 -52 170 -52 346
c0 115 55 224 149 292c6 5 14 5 20 0c68 -80 133 -245 133 -358c0 -143 -86 -255 -180 -364c21 -68 39 -138 56 -207c2 0 7 1 13 1c155 0 256 -128 256 -261c0 -113 -74 -212 -180 -246c3 -35 5 -70 5 -105c0 -19 -1 -39 -2 -58c-7 -119 -88 -225 -202 -228l1 43
c93 2 153 92 159 191c1 18 2 37 2 55c0 31 -1 61 -4 92c-5 -1 -44 -8 -89 -8c-193 0 -333 180 -333 374c0 177 131 306 248 441zM428 916c0 34 1 66 -20 129c-99 -48 -162 -149 -162 -259c0 -52 12 -115 36 -194c80 97 146 198 146 324z" fill="currentColor"/>
</g>
<g transform="translate(10.6906, 92.5216)">
<path transform="scale(0.0040, -0.0040)" d="M250 262c116 0 176 -106 176 -163c0 -40 -30 -72 -67 -72c-31 0 -75 25 -75 75c0 38 27 77 72 77c4 0 9 0 14 -1c-28 37 -72 59 -120 59c-106 0 -113 -73 -113 -186v-51v-51c0 -113 7 -187 113 -187c80 0 139 70 158 151c2 7 7 10 12 10c6 0 13 -4 13 -12
c0 -22 -50 -174 -183 -174c-59 0 -250 19 -250 263c0 62 18 262 250 262z" fill="currentColor"/>
</g>
<g transform="translate(14.4555, 92.5216)">
<rect x="-0.0650" y="-0.3139" width="0.1300" height="2.4954" ry="0.0400" fill="currentColor"/>
</g>
<g transform="translate(16.8948, 91.5216)">
<path transform="scale(0.0040, -0.0040)" d="M218 136c66 0 108 -36 108 -89c0 -89 -113 -183 -218 -183c-66 0 -108 36 -108 89c0 89 113 183 218 183z" fill="currentColor"/>
</g>
<g transform="translate(16.9598, 92.5216)">
<rect x="-0.0650" y="-0.8139" width="0.1300" height="2.6677" ry="0.0400" fill="currentColor"/>
</g>
<g transform="translate(19.3990, 91.0216)">
<path transform="scale(0.0040, -0.0040)" d="M218 136c66 0 108 -36 108 -89c0 -89 -113 -183 -218 -183c-66 0 -108 36 -108 89c0 89 113 183 218 183z" fill="currentColor"/>
</g>
<g transform="translate(19.4640, 92.5216)">
<rect x="-0.0650" y="-1.3139" width="0.1300" height="2.8401" ry="0.0400" fill="currentColor"/>
</g>
<g transform="translate(21.9032, 90.5216)">
<path transform="scale(0.0040, -0.0040)" d="M218 136c66 0 108 -36 108 -89c0 -89 -113 -183 -218 -183c-66 0 -108 36 -108 89c0 89 113 183 218 183z" fill="currentColor"/>
</g>
<g transform="translate(21.9682, 92.5216)">
<rect x="-0.0650" y="-1.8139" width="0.1300" height="3.0124" ry="0.0400" fill="currentColor"/>
</g>
<g transform="translate(24.4074, 90.0216)">
<path transform="scale(0.0040, -0.0040)" d="M218 136c66 0 108 -36 108 -89c0 -89 -113 -183 -218 -183c-66 0 -108 36 -108 89c0 89 113 183 218 183z" fill="currentColor"/>
</g>
<g transform="translate(24.4724, 92.5216)">
<rect x="-0.0650" y="-2.3139" width="0.1300" height="3.3208" ry="0.0400" fill="currentColor"/>
</g>
<g transform="translate(26.9116, 90.5216)">
<path transform="scale(0.0040, -0.0040)" d="M218 136c66 0 108 -36 108 -89c0 -89 -113 -183 -218 -183c-66 0 -108 36 -108 89c0 89 113 183 218 183z" fill="currentColor"/>
</g>
<g transform="translate(26.9766, 92.5216)">
<rect x="-0.0650" y="-1.8139" width="0.1300" height="3.0862" ry="0.0400" fill="currentColor"/>
</g>
<g transform="translate(29.4158, 91.0216)">
<path transform="scale(0.0040, -0.0040)" d="M218 136c66 0 108 -36 108 -89c0 -89 -113 -183 -218 -183c-66 0 -108 36 -108 89c0 89 113 183 218 183z" fill="currentColor"/>
</g>
<g transform="translate(29.4808, 92.5216)">
<rect x="-0.0650" y="-1.3139" width="0.1300" height="2.8516" ry="0.0400" fill="currentColor"/>
</g>
<g transform="translate(31.9200, 91.5216)">
<path transform="scale(0.0040, -0.0040)" d="M218 136c66 0 108 -36 108 -89c0 -89 -113 -183 -218 -183c-66 0 -108 36 -108 89c0 89 113 183 218 183z" fill="currentColor"/>
</g>
<g transform="translate(31.9850, 92.5216)">
<rect x="-0.0650" y="-0.8139" width="0.1300" height="2.6170" ry="0.0400" fill="currentColor"/>
</g>
<g transform="translate(5.6906, 105.7896)">
<text font-family="Optima" font-weight="bold" font-size="2.2001" text-anchor="start" fill="currentColor">
<tspan>Example 1c:</tspan>
</text>
</g>
<g transform="translate(17.2993, 105.7896)">
<text font-family="Optima" font-style="italic" font-size="2.2001" text-anchor="start" fill="currentColor">
<tspan> Dounis' Daily Dozen</tspan>
</text>
</g>
<g transform="translate(5.6906, 115.7486)">
<line stroke-linejoin="round" stroke-linecap="round" stroke-width="0.1000" stroke="currentColor" x1="0.0500" y1="0" x2="32.6500" y2="0"/>
</g>
<g transform="translate(5.6906, 114.7486)">
<line stroke-linejoin="round" stroke-linecap="round" stroke-width="0.1000" stroke="currentColor" x1="0.0500" y1="0" x2="32.6500" y2="0"/>
</g>
<g transform="translate(5.6906, 113.7486)">
<line stroke-linejoin="round" stroke-linecap="round" stroke-width="0.1000" stroke="currentColor" x1="0.0500" y1="0" x2="32.6500" y2="0"/>
</g>
<g transform="translate(5.6906, 112.7486)">
<line stroke-linejoin="round" stroke-linecap="round" stroke-width="0.1000" stroke="currentColor" x1="0.0500" y1="0" x2="32.6500" y2="0"/>
</g>
<g transform="translate(5.6906, 111.7486)">
<line stroke-linejoin="round" stroke-linecap="round" stroke-width="0.1000" stroke="currentColor" x1="0.0500" y1="0" x2="32.6500" y2="0"/>
</g>
<g transform="translate(36.5505, 113.2486)">
<path transform="scale(0.0040, -0.0040)" d="M0 0c0 31 25 56 56 56s56 -25 56 -56s-25 -56 -56 -56s-56 25 -56 56z" fill="currentColor"/>
</g>
<g transform="translate(36.5505, 114.2486)">
<path transform="scale(0.0040, -0.0040)" d="M0 0c0 31 25 56 56 56s56 -25 56 -56s-25 -56 -56 -56s-56 25 -56 56z" fill="currentColor"/>
</g>
<g transform="translate(37.7905, 113.7486)">
<rect x="0.0000" y="-2.0000" width="0.6000" height="4.0000" ry="0.0000" fill="currentColor"/>
</g>
<g transform="translate(37.3005, 113.7486)">
<rect x="0.0000" y="-2.0000" width="0.1900" height="4.0000" ry="0.0000" fill="currentColor"/>
</g>
<g transform="translate(14.3905, 118.5586)">
<polygon stroke-linejoin="round" stroke-linecap="round" stroke-width="0.0800" fill="currentColor" stroke="currentColor" points="18.0900 -0.2000 18.0900 0.2000 0.0400 0.2000 0.0400 -0.2000"/>
</g>
<g transform="translate(15.5648, 109.2486)">
<polygon stroke-linejoin="round" stroke-linecap="round" stroke-width="0.0800" fill="currentColor" stroke="currentColor" points="18.0900 -0.2000 18.0900 0.2000 0.0400 0.2000 0.0400 -0.2000"/>
</g>
<g transform="translate(14.3905, 111.7486)">
<path transform="scale(0.0040, -0.0040)" d="M218 136c66 0 108 -36 108 -89c0 -89 -113 -183 -218 -183c-66 0 -108 36 -108 89c0 89 113 183 218 183z" fill="currentColor"/>
</g>
<g transform="translate(14.6329, 108.5086)">
<path transform="scale(0.0022, -0.0022)" d="M194 486c16 0 29 15 41 15c13 0 24 -13 24 -31v-341c0 -47 35 -86 81 -86c14 0 21 -10 21 -21s-7 -22 -21 -22c-49 0 -97 14 -146 14s-96 -14 -145 -14c-14 0 -22 11 -22 22s8 21 22 21c46 0 80 39 80 86v137c0 23 -16 35 -30 35c-7 0 -13 -4 -17 -11l-34 -65
c-5 -10 -14 -15 -23 -15c-14 0 -28 12 -28 27c0 4 1 8 3 13l129 250c2 4 7 6 11 6c18 0 37 -20 54 -20z" fill="currentColor"/>
</g>
<g transform="translate(14.3905, 116.2486)">
<path transform="scale(0.0040, -0.0040)" d="M218 136c66 0 108 -36 108 -89c0 -89 -113 -183 -218 -183c-66 0 -108 36 -108 89c0 89 113 183 218 183z" fill="currentColor"/>
</g>
<g transform="translate(14.5817, 120.4234)">
<path transform="scale(0.0022, -0.0022)" d="M148 501c10 0 41 -15 72 -15c32 0 63 15 76 15c15 0 26 -11 26 -21c0 -4 -1 -7 -4 -10l-264 -291h134v4c0 60 50 41 75 85c7 11 8 24 14 36c3 7 10 10 17 10c11 0 24 -8 24 -25v-110h70c18 0 27 -14 27 -27s-9 -27 -27 -27h-70c2 -45 36 -82 80 -82c14 0 22 -10 22 -21
s-8 -22 -22 -22c-49 0 -96 14 -145 14s-97 -14 -146 -14c-14 0 -21 11 -21 22s7 21 21 21c44 0 79 37 81 82h-134c-43 0 -57 25 -57 42c0 5 1 10 3 12c73 81 123 182 123 291c0 17 11 31 25 31z" fill="currentColor"/>
</g>
<g transform="translate(6.4906, 114.7486)">
<path transform="scale(0.0040, -0.0040)" d="M266 -635h-6c-108 0 -195 88 -195 197c0 58 53 103 112 103c54 0 95 -47 95 -103c0 -52 -43 -95 -95 -95c-11 0 -21 2 -31 6c26 -39 68 -65 117 -65h4zM461 -203c68 24 113 90 113 164c0 90 -66 179 -173 190c19 -89 48 -242 60 -354zM74 28c0 -145 141 -247 264 -247
c1 0 47 0 82 6c-7 64 -29 203 -63 364c-79 -8 -124 -61 -124 -119c0 -44 25 -91 81 -123c5 -5 7 -10 7 -15c0 -11 -10 -22 -22 -22c-15 0 -126 62 -126 187c0 88 58 174 160 197c-14 58 -29 117 -46 175c-107 -121 -213 -243 -213 -403zM250 553c-29 96 -52 170 -52 346
c0 115 55 224 149 292c6 5 14 5 20 0c68 -80 133 -245 133 -358c0 -143 -86 -255 -180 -364c21 -68 39 -138 56 -207c2 0 7 1 13 1c155 0 256 -128 256 -261c0 -113 -74 -212 -180 -246c3 -35 5 -70 5 -105c0 -19 -1 -39 -2 -58c-7 -119 -88 -225 -202 -228l1 43
c93 2 153 92 159 191c1 18 2 37 2 55c0 31 -1 61 -4 92c-5 -1 -44 -8 -89 -8c-193 0 -333 180 -333 374c0 177 131 306 248 441zM428 916c0 34 1 66 -20 129c-99 -48 -162 -149 -162 -259c0 -52 12 -115 36 -194c80 97 146 198 146 324z" fill="currentColor"/>
</g>
<g transform="translate(10.6906, 113.7486)">
<path transform="scale(0.0040, -0.0040)" d="M250 262c116 0 176 -106 176 -163c0 -40 -30 -72 -67 -72c-31 0 -75 25 -75 75c0 38 27 77 72 77c4 0 9 0 14 -1c-28 37 -72 59 -120 59c-106 0 -113 -73 -113 -186v-51v-51c0 -113 7 -187 113 -187c80 0 139 70 158 151c2 7 7 10 12 10c6 0 13 -4 13 -12
c0 -22 -50 -174 -183 -174c-59 0 -250 19 -250 263c0 62 18 262 250 262z" fill="currentColor"/>
</g>
<g transform="translate(15.6298, 113.7486)">
<rect x="-0.0650" y="-4.5000" width="0.1300" height="2.3139" ry="0.0400" fill="currentColor"/>
</g>
<g transform="translate(14.4555, 113.7486)">
<rect x="-0.0650" y="2.6861" width="0.1300" height="2.1239" ry="0.0400" fill="currentColor"/>
</g>
<g transform="translate(20.3905, 113.2486)">
<path transform="scale(0.0040, -0.0040)" d="M218 136c66 0 108 -36 108 -89c0 -89 -113 -183 -218 -183c-66 0 -108 36 -108 89c0 89 113 183 218 183z" fill="currentColor"/>
</g>
<g transform="translate(20.6159, 108.5086)">
<path transform="scale(0.0022, -0.0022)" d="M94 66c-60 0 -39 -66 -72 -66c-11 0 -22 7 -22 21c0 154 232 162 232 334c0 50 -17 102 -61 102c-33 0 -66 -14 -66 -44c0 -24 31 -37 31 -61c0 -34 -27 -61 -61 -61s-61 27 -61 61c0 84 72 148 157 148c98 0 190 -55 190 -145c0 -140 -131 -154 -225 -205
c85 -2 113 -61 165 -61c45 0 28 41 57 41c11 0 22 -8 22 -21c0 -29 -48 -109 -144 -109c-92 0 -96 66 -142 66z" fill="currentColor"/>
</g>
<g transform="translate(20.3905, 114.7486)">
<path transform="scale(0.0040, -0.0040)" d="M218 136c66 0 108 -36 108 -89c0 -89 -113 -183 -218 -183c-66 0 -108 36 -108 89c0 89 113 183 218 183z" fill="currentColor"/>
</g>
<g transform="translate(20.6500, 120.4212)">
<path transform="scale(0.0022, -0.0022)" d="M261 266c0 -54 85 -40 85 -125c0 -94 -83 -141 -186 -141c-84 0 -160 54 -160 133c0 32 26 58 58 58s58 -26 58 -58c0 -22 -36 -26 -36 -48c0 -33 42 -42 80 -42c41 0 56 50 56 98v21c0 44 -2 77 -43 77h-65c-18 0 -27 14 -27 27s9 27 27 27h65c42 0 43 36 43 83v11
c0 43 -20 70 -61 70c-34 0 -71 -8 -71 -38c0 -19 32 -23 32 -42c0 -28 -23 -51 -51 -51s-51 23 -51 51c0 72 66 123 141 123c93 0 174 -31 174 -113c0 -94 -68 -67 -68 -121z" fill="currentColor"/>
</g>
<g transform="translate(21.6298, 113.7486)">
<rect x="-0.0650" y="-4.5000" width="0.1300" height="3.8139" ry="0.0400" fill="currentColor"/>
</g>
<g transform="translate(20.4555, 113.7486)">
<rect x="-0.0650" y="1.1861" width="0.1300" height="3.6239" ry="0.0400" fill="currentColor"/>
</g>
<g transform="translate(26.3905, 111.7486)">
<path transform="scale(0.0040, -0.0040)" d="M218 136c66 0 108 -36 108 -89c0 -89 -113 -183 -218 -183c-66 0 -108 36 -108 89c0 89 113 183 218 183z" fill="currentColor"/>
</g>
<g transform="translate(26.3905, 116.2486)">
<path transform="scale(0.0040, -0.0040)" d="M218 136c66 0 108 -36 108 -89c0 -89 -113 -183 -218 -183c-66 0 -108 36 -108 89c0 89 113 183 218 183z" fill="currentColor"/>
</g>
<g transform="translate(27.6298, 113.7486)">
<rect x="-0.0650" y="-4.5000" width="0.1300" height="2.3139" ry="0.0400" fill="currentColor"/>
</g>
<g transform="translate(26.4555, 113.7486)">
<rect x="-0.0650" y="2.6861" width="0.1300" height="2.1239" ry="0.0400" fill="currentColor"/>
</g>
<g transform="translate(32.3905, 113.2486)">
<path transform="scale(0.0040, -0.0040)" d="M218 136c66 0 108 -36 108 -89c0 -89 -113 -183 -218 -183c-66 0 -108 36 -108 89c0 89 113 183 218 183z" fill="currentColor"/>
</g>
<g transform="translate(32.3905, 114.7486)">
<path transform="scale(0.0040, -0.0040)" d="M218 136c66 0 108 -36 108 -89c0 -89 -113 -183 -218 -183c-66 0 -108 36 -108 89c0 89 113 183 218 183z" fill="currentColor"/>
</g>
<g transform="translate(33.6298, 113.7486)">
<rect x="-0.0650" y="-4.5000" width="0.1300" height="3.8139" ry="0.0400" fill="currentColor"/>
</g>
<g transform="translate(32.4555, 113.7486)">
<rect x="-0.0650" y="1.1861" width="0.1300" height="3.6239" ry="0.0400" fill="currentColor"/>
</g>
<g transform="translate(5.6906, 131.5166)">
<text font-family="Optima" font-weight="bold" font-size="2.7719" text-anchor="start" fill="currentColor">
<tspan>2) LONG TONES</tspan>
</text>
</g>
<g transform="translate(5.6906, 136.3074)">
<text font-family="Optima" font-size="2.2001" text-anchor="start" fill="currentColor">
<tspan>Played with smooth bow change exercise (EXAMPLE 2a) before a mirror </tspan>
</text>
</g>
<g transform="translate(5.6906, 139.1074)">
<text font-family="Optima" font-size="2.2001" text-anchor="start" fill="currentColor">
<tspan>to check bow's contact point, then various left-hand finger exercises </tspan>
</text>
</g>
<g transform="translate(5.6906, 141.9074)">
<text font-family="Optima" font-size="2.2001" text-anchor="start" fill="currentColor">
<tspan>played slowly for intonation accuracy, especially combinations such as </tspan>
</text>
</g>
<g transform="translate(5.6906, 144.7074)">
<text font-family="Optima" font-size="2.2001" text-anchor="start" fill="currentColor">
<tspan>0-1, 0-2 etc., all with vibrato once intonation is secure.</tspan>
</text>
</g>
<g transform="translate(11.6906, 151.5469)">
<text font-family="Optima" font-size="2.2001" text-anchor="start" fill="currentColor">
<tspan>Choose from materials such as </tspan>
</text>
</g>
<g transform="translate(41.7221, 151.5469)">
<text font-family="Optima" font-style="italic" font-size="2.2001" text-anchor="start" fill="currentColor">
<tspan>Sitt Practical Viola Method</tspan>
</text>
</g>
<g transform="translate(67.0077, 151.5469)">
<text font-family="Optima" font-size="2.2001" text-anchor="start" fill="currentColor">
<tspan>, </tspan>
</text>
</g>
<g transform="translate(68.8369, 151.5469)">
<text font-family="Optima" font-style="italic" font-size="2.2001" text-anchor="start" fill="currentColor">
<tspan>Dancla School of Velocity op.74</tspan>
</text>
</g>
<g transform="translate(99.7220, 151.5469)">
<text font-family="Optima" font-size="2.2001" text-anchor="start" fill="currentColor">
<tspan>, </tspan>
</text>
</g>
<g transform="translate(11.6906, 154.3469)">
<text font-family="Optima" font-style="italic" font-size="2.2001" text-anchor="start" fill="currentColor">
<tspan>Wreede Violaerobics</tspan>
</text>
</g>
<g transform="translate(31.4791, 154.3469)">
<text font-family="Optima" font-size="2.2001" text-anchor="start" fill="currentColor">
<tspan> (EXAMPLE 2b), </tspan>
</text>
</g>
<g transform="translate(47.4777, 154.3469)">
<text font-family="Optima" font-style="italic" font-size="2.2001" text-anchor="start" fill="currentColor">
<tspan>Schradieck vol.1</tspan>
</text>
</g>
<g transform="translate(63.6471, 154.3469)">
<text font-family="Optima" font-size="2.2001" text-anchor="start" fill="currentColor">
<tspan>, </tspan>
</text>
</g>
<g transform="translate(65.4762, 154.3469)">
<text font-family="Optima" font-style="italic" font-size="2.2001" text-anchor="start" fill="currentColor">
<tspan>Sevcik op.1 parts 1-3</tspan>
</text>
</g>
<g transform="translate(85.9476, 154.3469)">
<text font-family="Optima" font-size="2.2001" text-anchor="start" fill="currentColor">
<tspan>.</tspan>
</text>
</g>
<g transform="translate(5.6906, 163.0550)">
<line stroke-linejoin="round" stroke-linecap="round" stroke-width="0.1000" stroke="currentColor" x1="0.0500" y1="0" x2="28.7084" y2="0"/>
</g>
<g transform="translate(5.6906, 162.0550)">
<line stroke-linejoin="round" stroke-linecap="round" stroke-width="0.1000" stroke="currentColor" x1="0.0500" y1="0" x2="28.7084" y2="0"/>
</g>
<g transform="translate(5.6906, 161.0550)">
<line stroke-linejoin="round" stroke-linecap="round" stroke-width="0.1000" stroke="currentColor" x1="0.0500" y1="0" x2="28.7084" y2="0"/>
</g>
<g transform="translate(5.6906, 160.0550)">
<line stroke-linejoin="round" stroke-linecap="round" stroke-width="0.1000" stroke="currentColor" x1="0.0500" y1="0" x2="28.7084" y2="0"/>
</g>
<g transform="translate(5.6906, 159.0550)">
<line stroke-linejoin="round" stroke-linecap="round" stroke-width="0.1000" stroke="currentColor" x1="0.0500" y1="0" x2="28.7084" y2="0"/>
</g>
<g transform="translate(34.2590, 161.0550)">
<rect x="0.0000" y="-2.0000" width="0.1900" height="4.0000" ry="0.0000" fill="currentColor"/>
</g>
<g transform="translate(24.4074, 163.8650)">
<polygon stroke-linejoin="round" stroke-linecap="round" stroke-width="0.0800" fill="currentColor" stroke="currentColor" points="7.6026 -0.2000 7.6026 0.2000 0.0400 0.2000 0.0400 -0.2000"/>
</g>
<g transform="translate(14.3905, 163.8650)">
<polygon stroke-linejoin="round" stroke-linecap="round" stroke-width="0.0800" fill="currentColor" stroke="currentColor" points="7.6026 -0.2000 7.6026 0.2000 0.0400 0.2000 0.0400 -0.2000"/>
</g>
<g transform="translate(14.3905, 160.5550)">
<path transform="scale(0.0040, -0.0040)" d="M218 136c66 0 108 -36 108 -89c0 -89 -113 -183 -218 -183c-66 0 -108 36 -108 89c0 89 113 183 218 183z" fill="currentColor"/>
</g>
<g transform="translate(15.0427, 158.7550)">
<path transform="scale(0.0040, -0.0040)" d="M-178 333h356c6 0 10 -4 10 -10v-308c0 -8 -7 -15 -15 -15s-16 7 -16 15v185h-314v-185c0 -8 -7 -15 -15 -15s-16 7 -16 15v308c0 6 4 10 10 10z" fill="currentColor"/>
</g>
<g transform="translate(6.4906, 162.0550)">
<path transform="scale(0.0040, -0.0040)" d="M266 -635h-6c-108 0 -195 88 -195 197c0 58 53 103 112 103c54 0 95 -47 95 -103c0 -52 -43 -95 -95 -95c-11 0 -21 2 -31 6c26 -39 68 -65 117 -65h4zM461 -203c68 24 113 90 113 164c0 90 -66 179 -173 190c19 -89 48 -242 60 -354zM74 28c0 -145 141 -247 264 -247
c1 0 47 0 82 6c-7 64 -29 203 -63 364c-79 -8 -124 -61 -124 -119c0 -44 25 -91 81 -123c5 -5 7 -10 7 -15c0 -11 -10 -22 -22 -22c-15 0 -126 62 -126 187c0 88 58 174 160 197c-14 58 -29 117 -46 175c-107 -121 -213 -243 -213 -403zM250 553c-29 96 -52 170 -52 346
c0 115 55 224 149 292c6 5 14 5 20 0c68 -80 133 -245 133 -358c0 -143 -86 -255 -180 -364c21 -68 39 -138 56 -207c2 0 7 1 13 1c155 0 256 -128 256 -261c0 -113 -74 -212 -180 -246c3 -35 5 -70 5 -105c0 -19 -1 -39 -2 -58c-7 -119 -88 -225 -202 -228l1 43
c93 2 153 92 159 191c1 18 2 37 2 55c0 31 -1 61 -4 92c-5 -1 -44 -8 -89 -8c-193 0 -333 180 -333 374c0 177 131 306 248 441zM428 916c0 34 1 66 -20 129c-99 -48 -162 -149 -162 -259c0 -52 12 -115 36 -194c80 97 146 198 146 324z" fill="currentColor"/>
</g>
<g transform="translate(10.6906, 161.0550)">
<path transform="scale(0.0040, -0.0040)" d="M250 262c116 0 176 -106 176 -163c0 -40 -30 -72 -67 -72c-31 0 -75 25 -75 75c0 38 27 77 72 77c4 0 9 0 14 -1c-28 37 -72 59 -120 59c-106 0 -113 -73 -113 -186v-51v-51c0 -113 7 -187 113 -187c80 0 139 70 158 151c2 7 7 10 12 10c6 0 13 -4 13 -12
c0 -22 -50 -174 -183 -174c-59 0 -250 19 -250 263c0 62 18 262 250 262z" fill="currentColor"/>
</g>
<g transform="translate(14.4555, 161.0550)">
<rect x="-0.0650" y="-0.3139" width="0.1300" height="3.1239" ry="0.0400" fill="currentColor"/>
</g>
<g transform="translate(16.8948, 160.5550)">
<path transform="scale(0.0040, -0.0040)" d="M218 136c66 0 108 -36 108 -89c0 -89 -113 -183 -218 -183c-66 0 -108 36 -108 89c0 89 113 183 218 183z" fill="currentColor"/>
</g>
<g transform="translate(17.5469, 158.7550)">
<path transform="scale(0.0040, -0.0040)" d="M128 508c2 7 9 12 17 12c10 0 18 -7 18 -17c0 -2 -1 -4 -1 -6l-145 -485c-2 -7 -9 -12 -17 -12s-15 5 -17 12l-145 485v6c0 10 7 17 17 17c8 0 15 -5 17 -12l88 -295l40 -164l40 164z" fill="currentColor"/>
</g>
<g transform="translate(16.9598, 161.0550)">
<rect x="-0.0650" y="-0.3139" width="0.1300" height="3.1239" ry="0.0400" fill="currentColor"/>
</g>
<g transform="translate(19.3990, 160.5550)">
<path transform="scale(0.0040, -0.0040)" d="M218 136c66 0 108 -36 108 -89c0 -89 -113 -183 -218 -183c-66 0 -108 36 -108 89c0 89 113 183 218 183z" fill="currentColor"/>
</g>
<g transform="translate(20.0511, 158.7550)">
<path transform="scale(0.0040, -0.0040)" d="M-178 333h356c6 0 10 -4 10 -10v-308c0 -8 -7 -15 -15 -15s-16 7 -16 15v185h-314v-185c0 -8 -7 -15 -15 -15s-16 7 -16 15v308c0 6 4 10 10 10z" fill="currentColor"/>
</g>
<g transform="translate(19.4640, 161.0550)">
<rect x="-0.0650" y="-0.3139" width="0.1300" height="3.1239" ry="0.0400" fill="currentColor"/>
</g>
<g transform="translate(21.9032, 160.5550)">
<path transform="scale(0.0040, -0.0040)" d="M218 136c66 0 108 -36 108 -89c0 -89 -113 -183 -218 -183c-66 0 -108 36 -108 89c0 89 113 183 218 183z" fill="currentColor"/>
</g>
<g transform="translate(22.5553, 158.7550)">
<path transform="scale(0.0040, -0.0040)" d="M128 508c2 7 9 12 17 12c10 0 18 -7 18 -17c0 -2 -1 -4 -1 -6l-145 -485c-2 -7 -9 -12 -17 -12s-15 5 -17 12l-145 485v6c0 10 7 17 17 17c8 0 15 -5 17 -12l88 -295l40 -164l40 164z" fill="currentColor"/>
</g>
<g transform="translate(21.9682, 161.0550)">
<rect x="-0.0650" y="-0.3139" width="0.1300" height="3.1239" ry="0.0400" fill="currentColor"/>
</g>
<g transform="translate(24.4074, 160.5550)">
<path transform="scale(0.0040, -0.0040)" d="M218 136c66 0 108 -36 108 -89c0 -89 -113 -183 -218 -183c-66 0 -108 36 -108 89c0 89 113 183 218 183z" fill="currentColor"/>
</g>
<g transform="translate(25.0595, 158.7550)">
<path transform="scale(0.0040, -0.0040)" d="M-178 333h356c6 0 10 -4 10 -10v-308c0 -8 -7 -15 -15 -15s-16 7 -16 15v185h-314v-185c0 -8 -7 -15 -15 -15s-16 7 -16 15v308c0 6 4 10 10 10z" fill="currentColor"/>
</g>
<g transform="translate(24.4724, 161.0550)">
<rect x="-0.0650" y="-0.3139" width="0.1300" height="3.1239" ry="0.0400" fill="currentColor"/>
</g>
<g transform="translate(26.9116, 160.5550)">
<path transform="scale(0.0040, -0.0040)" d="M218 136c66 0 108 -36 108 -89c0 -89 -113 -183 -218 -183c-66 0 -108 36 -108 89c0 89 113 183 218 183z" fill="currentColor"/>
</g>
<g transform="translate(27.5637, 158.7550)">
<path transform="scale(0.0040, -0.0040)" d="M128 508c2 7 9 12 17 12c10 0 18 -7 18 -17c0 -2 -1 -4 -1 -6l-145 -485c-2 -7 -9 -12 -17 -12s-15 5 -17 12l-145 485v6c0 10 7 17 17 17c8 0 15 -5 17 -12l88 -295l40 -164l40 164z" fill="currentColor"/>
</g>
<g transform="translate(26.9766, 161.0550)">
<rect x="-0.0650" y="-0.3139" width="0.1300" height="3.1239" ry="0.0400" fill="currentColor"/>
</g>
<g transform="translate(29.4158, 160.5550)">
<path transform="scale(0.0040, -0.0040)" d="M218 136c66 0 108 -36 108 -89c0 -89 -113 -183 -218 -183c-66 0 -108 36 -108 89c0 89 113 183 218 183z" fill="currentColor"/>
</g>
<g transform="translate(30.0679, 158.7550)">
<path transform="scale(0.0040, -0.0040)" d="M-178 333h356c6 0 10 -4 10 -10v-308c0 -8 -7 -15 -15 -15s-16 7 -16 15v185h-314v-185c0 -8 -7 -15 -15 -15s-16 7 -16 15v308c0 6 4 10 10 10z" fill="currentColor"/>
</g>
<g transform="translate(29.4808, 161.0550)">
<rect x="-0.0650" y="-0.3139" width="0.1300" height="3.1239" ry="0.0400" fill="currentColor"/>
</g>
<g transform="translate(31.9200, 160.5550)">
<path transform="scale(0.0040, -0.0040)" d="M218 136c66 0 108 -36 108 -89c0 -89 -113 -183 -218 -183c-66 0 -108 36 -108 89c0 89 113 183 218 183z" fill="currentColor"/>
</g>
<g transform="translate(32.5721, 158.7550)">
<path transform="scale(0.0040, -0.0040)" d="M128 508c2 7 9 12 17 12c10 0 18 -7 18 -17c0 -2 -1 -4 -1 -6l-145 -485c-2 -7 -9 -12 -17 -12s-15 5 -17 12l-145 485v6c0 10 7 17 17 17c8 0 15 -5 17 -12l88 -295l40 -164l40 164z" fill="currentColor"/>
</g>
<g transform="translate(31.9850, 161.0550)">
<rect x="-0.0650" y="-0.3139" width="0.1300" height="3.1239" ry="0.0400" fill="currentColor"/>
</g>
</svg>
