<svg xmlns="http://www.w3.org/2000/svg" xmlns:xlink="http://www.w3.org/1999/xlink" version="1.2" width="215.90mm" height="279.40mm" viewBox="0.0000 -0.0000 117.0086 151.4229">
<style type="text/css">
<![CDATA[
tspan { white-space: pre; }
]]>
</style>
<g transform="translate(48.7978, 6.0768)">
<text font-family="serif" font-weight="bold" font-size="3.4926" text-anchor="start" fill="currentColor">
<tspan>Summertime</tspan>
</text>
</g>
<g transform="translate(52.1309, 9.5768)">
<text font-family="serif" font-weight="bold" font-size="2.4695" text-anchor="start" fill="currentColor">
<tspan>S. Grappelli</tspan>
</text>
</g>
<g transform="translate(41.1562, 13.0768)">
<text font-family="serif" font-weight="bold" font-size="1.9598" text-anchor="start" fill="currentColor">
<tspan>Album Stephane Grappelli, Bill Coleman</tspan>
</text>
</g>
<g transform="translate(5.4196, 16.5768)">
<text font-family="serif" font-size="2.2001" text-anchor="start" fill="currentColor">
<tspan>Transcribed by Marc Mouries</tspan>
</text>
</g>
<g transform="translate(100.3054, 16.5768)">
<text font-family="serif" font-size="2.2001" text-anchor="start" fill="currentColor">
<tspan>G. Gershwin</tspan>
</text>
</g>
<g transform="translate(5.4196, 22.5793)">
<text font-family="serif" font-size="2.2001" text-anchor="start" fill="currentColor">
<tspan>=> Add Chords</tspan>
</text>
</g>
<g transform="translate(5.4196, 24.6402)">
<text font-family="serif" font-size="2.2001" text-anchor="start" fill="currentColor">
<tspan>=> Add Swing Tempo</tspan>
</text>
</g>
<g transform="translate(111.4049, 37.2131)">
<rect x="0.0000" y="-2.0000" width="0.1841" height="4.0000" ry="0.0000" fill="currentColor"/>
</g>
<g transform="translate(5.4196, 40.2131)">
<rect x="98.6985" y="-0.0984" width="1.9563" height="0.1969" ry="0.0984" fill="currentColor"/>
</g>
<g transform="translate(5.4196, 40.2131)">
<rect x="95.9160" y="-0.0984" width="1.9563" height="0.1969" ry="0.0984" fill="currentColor"/>
</g>
<g transform="translate(5.4196, 40.2131)">
<rect x="93.1335" y="-0.0984" width="1.9563" height="0.1969" ry="0.0984" fill="currentColor"/>
</g>
<g transform="translate(5.4196, 40.2131)">
<rect x="90.3510" y="-0.0984" width="1.9563" height="0.1969" ry="0.0984" fill="currentColor"/>
</g>
<g transform="translate(5.4196, 40.2131)">
<rect x="86.0965" y="-0.0984" width="1.9563" height="0.1969" ry="0.0984" fill="currentColor"/>
</g>
<g transform="translate(5.4196, 40.2131)">
<rect x="15.7934" y="-0.0984" width="1.9074" height="0.1969" ry="0.0984" fill="currentColor"/>
</g>
<g transform="translate(5.4196, 40.2131)">
<rect x="13.7860" y="-0.0984" width="1.9074" height="0.1969" ry="0.0984" fill="currentColor"/>
</g>
<g transform="translate(5.4196, 39.2131)">
<line stroke-linejoin="round" stroke-linecap="round" stroke-width="0.0969" stroke="currentColor" x1="0.0484" y1="0" x2="106.1210" y2="0"/>
</g>
<g transform="translate(5.4196, 38.2131)">
<line stroke-linejoin="round" stroke-linecap="round" stroke-width="0.0969" stroke="currentColor" x1="0.0484" y1="0" x2="106.1210" y2="0"/>
</g>
<g transform="translate(5.4196, 37.2131)">
<line stroke-linejoin="round" stroke-linecap="round" stroke-width="0.0969" stroke="currentColor" x1="0.0484" y1="0" x2="106.1210" y2="0"/>
</g>
<g transform="translate(5.4196, 36.2131)">
<line stroke-linejoin="round" stroke-linecap="round" stroke-width="0.0969" stroke="currentColor" x1="0.0484" y1="0" x2="106.1210" y2="0"/>
</g>
<g transform="translate(5.4196, 35.2131)">
<line stroke-linejoin="round" stroke-linecap="round" stroke-width="0.0969" stroke="currentColor" x1="0.0484" y1="0" x2="106.1210" y2="0"/>
</g>
<g transform="translate(94.8389, 37.2131)">
<rect x="0.0000" y="-2.0000" width="0.1841" height="4.0000" ry="0.0000" fill="currentColor"/>
</g>
<g transform="translate(73.8001, 37.2131)">
<rect x="0.0000" y="-2.0000" width="0.1841" height="4.0000" ry="0.0000" fill="currentColor"/>
</g>
<g transform="translate(49.8904, 37.2131)">
<rect x="0.0000" y="-2.0000" width="0.1841" height="4.0000" ry="0.0000" fill="currentColor"/>
</g>
<g transform="translate(37.6231, 37.2131)">
<rect x="0.0000" y="-2.0000" width="0.1841" height="4.0000" ry="0.0000" fill="currentColor"/>
</g>
<g transform="translate(68.8057, 37.2131)">
<rect x="-0.0630" y="-2.8120" width="0.1259" height="3.1259" ry="0.0381" fill="currentColor"/>
</g>
<a style="color:inherit;" xlink:href="textedit:///Users/marc.mouries/projects/Sheet-Music/Jazz/Summertime/Summertime_Grappelli.ly:49:0:1">
<g transform="translate(14.1196, 34.6647)">
<text font-family="sans-serif" font-size="2.6166" text-anchor="start" fill="currentColor">
<tspan>E</tspan>
</text>
</g>
<g transform="translate(15.7780, 34.6647)">
<text font-family="sans-serif" font-size="2.6166" text-anchor="start" fill="currentColor">
<tspan>m</tspan>
</text>
</g>
</a>
<a style="color:inherit;" xlink:href="textedit:///Users/marc.mouries/projects/Sheet-Music/Jazz/Summertime/Summertime_Grappelli.ly:59:2:3">
<g transform="translate(14.1196, 37.2131)">
<path transform="scale(0.0040, -0.0040)" d="M-6 78c0 59 124 83 124 182c0 24 -8 49 -25 69l-35 42c-3 3 -4 7 -4 10c0 9 9 15 17 15c4 0 8 -1 11 -5l151 -180c7 -9 10 -17 10 -25c0 -59 -124 -83 -124 -182c0 -24 7 -49 24 -69l84 -99c3 -3 4 -7 4 -10c0 -9 -8 -16 -16 -16s-45 44 -109 44c-16 0 -53 0 -53 -67
c0 -35 11 -74 28 -94c7 -8 -5 -19 -12 -11c-45 54 -92 148 -92 202c0 41 27 42 40 42c33 0 78 -13 119 -31l-132 158c-7 9 -10 17 -10 25z" fill="currentColor"/>
</g>
</a>
<g transform="translate(6.2196, 38.2131)">
<path transform="scale(0.0040, -0.0040)" d="M266 -635h-6c-108 0 -195 88 -195 197c0 58 53 103 112 103c54 0 95 -47 95 -103c0 -52 -43 -95 -95 -95c-11 0 -21 2 -31 6c26 -39 68 -65 117 -65h4zM461 -203c68 24 113 90 113 164c0 90 -66 179 -173 190c19 -89 48 -242 60 -354zM74 28c0 -145 141 -247 264 -247
c1 0 47 0 82 6c-7 64 -29 203 -63 364c-79 -8 -124 -61 -124 -119c0 -44 25 -91 81 -123c5 -5 7 -10 7 -15c0 -11 -10 -22 -22 -22c-15 0 -126 62 -126 187c0 88 58 174 160 197c-14 58 -29 117 -46 175c-107 -121 -213 -243 -213 -403zM250 553c-29 96 -52 170 -52 346
c0 115 55 224 149 292c6 5 14 5 20 0c68 -80 133 -245 133 -358c0 -143 -86 -255 -180 -364c21 -68 39 -138 56 -207c2 0 7 1 13 1c155 0 256 -128 256 -261c0 -113 -74 -212 -180 -246c3 -35 5 -70 5 -105c0 -19 -1 -39 -2 -58c-7 -119 -88 -225 -202 -228l1 43
c93 2 153 92 159 191c1 18 2 37 2 55c0 31 -1 61 -4 92c-5 -1 -44 -8 -89 -8c-193 0 -333 180 -333 374c0 177 131 306 248 441zM428 916c0 34 1 66 -20 129c-99 -48 -162 -149 -162 -259c0 -52 12 -115 36 -194c80 97 146 198 146 324z" fill="currentColor"/>
</g>
<a style="color:inherit;" xlink:href="textedit:///Users/marc.mouries/projects/Sheet-Music/Jazz/Summertime/Summertime_Grappelli.ly:43:2:3">
<g transform="translate(10.4196, 37.2131)">
<path transform="scale(0.0040, -0.0040)" d="M250 262c116 0 176 -106 176 -163c0 -40 -30 -72 -67 -72c-31 0 -75 25 -75 75c0 38 27 77 72 77c4 0 9 0 14 -1c-28 37 -72 59 -120 59c-106 0 -113 -73 -113 -186v-51v-51c0 -113 7 -187 113 -187c80 0 139 70 158 151c2 7 7 10 12 10c6 0 13 -4 13 -12
c0 -22 -50 -174 -183 -174c-59 0 -250 19 -250 263c0 62 18 262 250 262z" fill="currentColor"/>
</g>
</a>
<a style="color:inherit;" xlink:href="textedit:///Users/marc.mouries/projects/Sheet-Music/Jazz/Summertime/Summertime_Grappelli.ly:44:2:3">
<g transform="translate(10.4196, 31.7877)">
<rect x="1.0449" y="-2.6727" width="0.1158" height="2.5129" ry="0.0193" fill="currentColor"/>
</g>
<g transform="translate(10.4196, 31.7877)">
<path transform="scale(0.0036, -0.0036)" d="M215 137c67 0 111 -37 111 -92c0 -90 -111 -182 -215 -182c-67 0 -111 37 -111 92c0 90 111 182 215 182z" fill="currentColor"/>
</g>
<g transform="translate(11.5802, 32.2765)">
<text font-family="serif" font-size="2.2001" text-anchor="start" fill="currentColor">
<tspan> = 120</tspan>
</text>
</g>
</a>
<g transform="translate(97.2749, 37.0215)">
<polygon stroke-linejoin="round" stroke-linecap="round" stroke-width="0.0762" fill="currentColor" stroke="currentColor" points="5.6528 -0.0103 5.6528 0.3935 0.0381 0.2019 0.0381 -0.2019"/>
</g>
<a style="color:inherit;" xlink:href="textedit:///Users/marc.mouries/projects/Sheet-Music/Jazz/Summertime/Summertime_Grappelli.ly:59:5:6">
<g transform="translate(17.4229, 37.2131)">
<path transform="scale(0.0040, -0.0040)" d="M70 205c79 0 46 -98 91 -98c16 0 54 48 61 63c6 12 23 12 28 0l-123 -420c-8 -7 -17 -10 -27 -10s-20 3 -28 10l117 326c-34 -12 -69 -22 -105 -22c-47 0 -87 34 -87 79c0 40 33 72 73 72z" fill="currentColor"/>
</g>
</a>
<a style="color:inherit;" xlink:href="textedit:///Users/marc.mouries/projects/Sheet-Music/Jazz/Summertime/Summertime_Grappelli.ly:64:53:54">
<g transform="translate(101.6616, 37.2131)">
<path stroke-width="0.0775" stroke-linejoin="round" stroke-linecap="round" stroke="currentColor" fill="currentColor" d="M1.5042 4.0000C1.8005 4.3851 2.2862 4.3851 2.5825 4.0000L2.5825 4.0000C2.2862 4.2688 1.8005 4.2688 1.5042 4.0000z"/>
</g>
</a>
<a style="color:inherit;" xlink:href="textedit:///Users/marc.mouries/projects/Sheet-Music/Jazz/Summertime/Summertime_Grappelli.ly:59:8:9">
<g transform="translate(19.5316, 40.7131)">
<path transform="scale(0.0040, -0.0040)" d="M218 136c66 0 108 -36 108 -89c0 -89 -113 -183 -218 -183c-66 0 -108 36 -108 89c0 89 113 183 218 183z" fill="currentColor"/>
</g>
</a>
<g transform="translate(20.7728, 37.2131)">
<rect x="-0.0630" y="0.0000" width="0.1259" height="3.3139" ry="0.0381" fill="currentColor"/>
</g>
<g transform="translate(86.8878, 37.0215)">
<polygon stroke-linejoin="round" stroke-linecap="round" stroke-width="0.0762" fill="currentColor" stroke="currentColor" points="6.2204 -0.0103 6.2204 0.3935 0.0381 0.2019 0.0381 -0.2019"/>
</g>
<a style="color:inherit;" xlink:href="textedit:///Users/marc.mouries/projects/Sheet-Music/Jazz/Summertime/Summertime_Grappelli.ly:59:12:13">
<g transform="translate(21.4902, 40.7131)">
<path transform="scale(0.0040, -0.0040)" d="M218 136c66 0 108 -36 108 -89c0 -89 -113 -183 -218 -183c-66 0 -108 36 -108 89c0 89 113 183 218 183z" fill="currentColor"/>
</g>
</a>
<g transform="translate(22.7314, 37.2131)">
<rect x="-0.0630" y="0.0000" width="0.1259" height="3.3139" ry="0.0381" fill="currentColor"/>
</g>
<a style="color:inherit;" xlink:href="textedit:///Users/marc.mouries/projects/Sheet-Music/Jazz/Summertime/Summertime_Grappelli.ly:64:34:35">
<g transform="translate(99.6814, 36.3550)">
<text font-family="serif" font-style="italic" font-size="1.7460" text-anchor="start" fill="currentColor">
<tspan>3</tspan>
</text>
</g>
</a>
<a style="color:inherit;" xlink:href="textedit:///Users/marc.mouries/projects/Sheet-Music/Jazz/Summertime/Summertime_Grappelli.ly:60:9:10">
<g transform="translate(23.1770, 38.2131)">
<path transform="scale(0.0028, -0.0028)" d="M208 139c69 0 117 -40 117 -99c0 -91 -107 -179 -209 -179c-69 0 -116 40 -116 99c0 91 106 179 208 179z" fill="currentColor"/>
</g>
</a>
<g transform="translate(24.0319, 37.2131)">
<rect x="-0.0630" y="-1.8000" width="0.1259" height="2.6856" ry="0.0381" fill="currentColor"/>
</g>
<g transform="translate(24.0949, 35.4512)">
<path transform="scale(0.0028, -0.0028)" d="M0 -212v-213v213c0 -114 85 -201 146 -295c4 13 6 26 6 40c0 94 -87 188 -152 255zM115 -848c0 11 43 74 43 169s-90 188 -158 254v-75h-21v500h21c0 -177 201 -290 201 -467c0 -33 -9 -66 -23 -96c18 -36 29 -74 29 -116c0 -63 -15 -125 -41 -182
c-5 -10 -14 -13 -23 -13c-14 0 -28 10 -28 26z" fill="currentColor"/>
</g>
<a style="color:inherit;" xlink:href="textedit:///Users/marc.mouries/projects/Sheet-Music/Jazz/Summertime/Summertime_Grappelli.ly:64:34:35">
</a>
<a style="color:inherit;" xlink:href="textedit:///Users/marc.mouries/projects/Sheet-Music/Jazz/Summertime/Summertime_Grappelli.ly:60:23:24">
<g transform="translate(27.1770, 37.2131)">
<path transform="scale(0.0040, -0.0040)" d="M218 136c66 0 108 -36 108 -89c0 -89 -113 -183 -218 -183c-66 0 -108 36 -108 89c0 89 113 183 218 183z" fill="currentColor"/>
</g>
</a>
<g transform="translate(28.4183, 37.2131)">
<rect x="-0.0630" y="-2.7969" width="0.1259" height="2.6108" ry="0.0381" fill="currentColor"/>
</g>
<g transform="translate(80.8120, 36.2131)">
<polygon stroke-linejoin="round" stroke-linecap="round" stroke-width="0.0762" fill="currentColor" stroke="currentColor" points="2.5008 -0.2019 2.5008 0.2019 0.0381 0.2019 0.0381 -0.2019"/>
</g>
<a style="color:inherit;" xlink:href="textedit:///Users/marc.mouries/projects/Sheet-Music/Jazz/Summertime/Summertime_Grappelli.ly:60:26:27">
<g transform="translate(30.4242, 38.2131)">
<path transform="scale(0.0040, -0.0040)" d="M218 136c66 0 108 -36 108 -89c0 -89 -113 -183 -218 -183c-66 0 -108 36 -108 89c0 89 113 183 218 183z" fill="currentColor"/>
</g>
</a>
<g transform="translate(31.6655, 37.2131)">
<rect x="-0.0630" y="-2.2031" width="0.1259" height="3.0170" ry="0.0381" fill="currentColor"/>
</g>
<g transform="translate(29.3899, 38.2131)">
<path transform="scale(0.0040, -0.0040)" d="M-7 375c8 4 17 7 25 7s16 -3 24 -7l-2 -183l106 20h3c10 0 18 -7 18 -17l7 -570c-8 -4 -17 -7 -25 -7s-16 3 -24 7l2 183l-106 -20h-3c-10 0 -18 7 -18 17zM131 112l-92 -17l-3 -207l92 17z" fill="currentColor"/>
</g>
<a style="color:inherit;" xlink:href="textedit:///Users/marc.mouries/projects/Sheet-Music/Jazz/Summertime/Summertime_Grappelli.ly:64:12:13">
<g transform="translate(89.5781, 36.3551)">
<text font-family="serif" font-style="italic" font-size="1.7460" text-anchor="start" fill="currentColor">
<tspan>3</tspan>
</text>
</g>
</a>
<a style="color:inherit;" xlink:href="textedit:///Users/marc.mouries/projects/Sheet-Music/Jazz/Summertime/Summertime_Grappelli.ly:62:2:3">
<g transform="translate(32.9268, 37.2131)">
<path transform="scale(0.0040, -0.0040)" d="M218 136c66 0 108 -36 108 -89c0 -89 -113 -183 -218 -183c-66 0 -108 36 -108 89c0 89 113 183 218 183z" fill="currentColor"/>
</g>
</a>
<g transform="translate(32.9898, 37.2131)">
<rect x="-0.0630" y="0.1861" width="0.1259" height="2.8139" ry="0.0381" fill="currentColor"/>
</g>
<a style="color:inherit;" xlink:href="textedit:///Users/marc.mouries/projects/Sheet-Music/Jazz/Summertime/Summertime_Grappelli.ly:64:12:13">
</a>
<a style="color:inherit;" xlink:href="textedit:///Users/marc.mouries/projects/Sheet-Music/Jazz/Summertime/Summertime_Grappelli.ly:62:5:6">
<g transform="translate(35.3397, 37.2131)">
<path transform="scale(0.0040, -0.0040)" d="M218 136c66 0 108 -36 108 -89c0 -89 -113 -183 -218 -183c-66 0 -108 36 -108 89c0 89 113 183 218 183z" fill="currentColor"/>
</g>
</a>
<g transform="translate(35.4027, 37.2131)">
<rect x="-0.0630" y="0.1861" width="0.1259" height="2.8139" ry="0.0381" fill="currentColor"/>
</g>
<g transform="translate(76.2361, 35.4047)">
<polygon stroke-linejoin="round" stroke-linecap="round" stroke-width="0.0762" fill="currentColor" stroke="currentColor" points="2.2508 0.4150 2.2508 0.8188 0.0381 0.2019 0.0381 -0.2019"/>
</g>
<a style="color:inherit;" xlink:href="textedit:///Users/marc.mouries/projects/Sheet-Music/Jazz/Summertime/Summertime_Grappelli.ly:62:10:11">
<g transform="translate(38.9803, 37.2131)">
<path transform="scale(0.0040, -0.0040)" d="M314 65c0 23 -19 41 -42 41c-39 0 -204 -110 -231 -143c-7 -8 -10 -18 -10 -28c0 -23 19 -41 42 -41c39 0 203 110 230 143c7 8 11 18 11 28zM262 136c41 0 82 -14 82 -71c0 -26 -16 -112 -74 -151c-25 -17 -87 -50 -187 -50c-41 0 -83 14 -83 71c0 26 16 112 74 151
c25 17 88 50 188 50z" fill="currentColor"/>
</g>
</a>
<g transform="translate(39.0433, 37.2131)">
<rect x="-0.0630" y="0.2590" width="0.1259" height="3.0743" ry="0.0381" fill="currentColor"/>
</g>
<g transform="translate(65.4955, 34.2131)">
<polygon stroke-linejoin="round" stroke-linecap="round" stroke-width="0.0762" fill="currentColor" stroke="currentColor" points="3.3350 -0.0103 3.3350 0.3935 0.0381 0.2019 0.0381 -0.2019"/>
</g>
<a style="color:inherit;" xlink:href="textedit:///Users/marc.mouries/projects/Sheet-Music/Jazz/Summertime/Summertime_Grappelli.ly:62:13:14">
<g transform="translate(44.3740, 37.2131)">
<path transform="scale(0.0040, -0.0040)" d="M365 0h-355c-6 0 -10 4 -10 10v136c0 6 4 10 10 10h355c6 0 10 -4 10 -10v-136c0 -6 -4 -10 -10 -10z" fill="currentColor"/>
</g>
</a>
<a style="color:inherit;" xlink:href="textedit:///Users/marc.mouries/projects/Sheet-Music/Jazz/Summertime/Summertime_Grappelli.ly:63:41:42">
<g transform="translate(67.5644, 37.2131)">
<path stroke-width="0.0775" stroke-linejoin="round" stroke-linecap="round" stroke="currentColor" fill="currentColor" d="M0.8521 1.2250C1.3423 1.7995 2.3748 1.7995 2.8650 1.2250L2.8650 1.2250C2.3748 1.6833 1.3423 1.6833 0.8521 1.2250z"/>
</g>
</a>
<g transform="translate(57.1522, 35.0215)">
<polygon stroke-linejoin="round" stroke-linecap="round" stroke-width="0.0762" fill="currentColor" stroke="currentColor" points="2.5008 -0.0103 2.5008 0.3935 0.0381 0.2019 0.0381 -0.2019"/>
</g>
<a style="color:inherit;" xlink:href="textedit:///Users/marc.mouries/projects/Sheet-Music/Jazz/Summertime/Summertime_Grappelli.ly:63:2:3">
<g transform="translate(51.1481, 37.7131)">
<path transform="scale(0.0040, -0.0040)" d="M218 136c66 0 108 -36 108 -89c0 -89 -113 -183 -218 -183c-66 0 -108 36 -108 89c0 89 113 183 218 183z" fill="currentColor"/>
</g>
</a>
<g transform="translate(52.3893, 37.2131)">
<rect x="-0.0630" y="-2.1868" width="0.1259" height="2.5007" ry="0.0381" fill="currentColor"/>
</g>
<a style="color:inherit;" xlink:href="textedit:///Users/marc.mouries/projects/Sheet-Music/Jazz/Summertime/Summertime_Grappelli.ly:63:21:22">
<g transform="translate(5.4196, 37.2131)">
<line stroke-linejoin="round" stroke-linecap="round" stroke-width="0.0969" stroke="currentColor" x1="56.2977" y1="0.3678" x2="57.1574" y2="0.1322"/>
</g>
</a>
<a style="color:inherit;" xlink:href="textedit:///Users/marc.mouries/projects/Sheet-Music/Jazz/Summertime/Summertime_Grappelli.ly:63:5:6">
<g transform="translate(53.5610, 38.2131)">
<path transform="scale(0.0040, -0.0040)" d="M218 136c66 0 108 -36 108 -89c0 -89 -113 -183 -218 -183c-66 0 -108 36 -108 89c0 89 113 183 218 183z" fill="currentColor"/>
</g>
</a>
<g transform="translate(54.8023, 37.2131)">
<rect x="-0.0630" y="-2.0048" width="0.1259" height="2.8186" ry="0.0381" fill="currentColor"/>
</g>
<a style="color:inherit;" xlink:href="textedit:///Users/marc.mouries/projects/Sheet-Music/Jazz/Summertime/Summertime_Grappelli.ly:63:7:8">
<g transform="translate(55.9740, 37.7131)">
<path transform="scale(0.0040, -0.0040)" d="M218 136c66 0 108 -36 108 -89c0 -89 -113 -183 -218 -183c-66 0 -108 36 -108 89c0 89 113 183 218 183z" fill="currentColor"/>
</g>
</a>
<g transform="translate(57.2152, 37.2131)">
<rect x="-0.0630" y="-2.1868" width="0.1259" height="2.5007" ry="0.0381" fill="currentColor"/>
</g>
<a style="color:inherit;" xlink:href="textedit:///Users/marc.mouries/projects/Sheet-Music/Jazz/Summertime/Summertime_Grappelli.ly:63:20:21">
<g transform="translate(60.3172, 37.2131)">
<path stroke-width="0.0775" stroke-linejoin="round" stroke-linecap="round" stroke="currentColor" fill="currentColor" d="M0.4735 1.3435C1.5294 2.0335 3.7054 1.9304 4.6727 1.1445L4.6727 1.1445C3.6999 1.8142 1.5239 1.9174 0.4735 1.3435z"/>
</g>
</a>
<a style="color:inherit;" xlink:href="textedit:///Users/marc.mouries/projects/Sheet-Music/Jazz/Summertime/Summertime_Grappelli.ly:63:9:10">
<g transform="translate(58.3869, 38.2131)">
<path transform="scale(0.0040, -0.0040)" d="M218 136c66 0 108 -36 108 -89c0 -89 -113 -183 -218 -183c-66 0 -108 36 -108 89c0 89 113 183 218 183z" fill="currentColor"/>
</g>
</a>
<g transform="translate(59.6281, 37.2131)">
<rect x="-0.0630" y="-2.0048" width="0.1259" height="2.8186" ry="0.0381" fill="currentColor"/>
</g>
<g transform="translate(52.3264, 35.0215)">
<polygon stroke-linejoin="round" stroke-linecap="round" stroke-width="0.0762" fill="currentColor" stroke="currentColor" points="2.5008 -0.0103 2.5008 0.3935 0.0381 0.2019 0.0381 -0.2019"/>
</g>
<a style="color:inherit;" xlink:href="textedit:///Users/marc.mouries/projects/Sheet-Music/Jazz/Summertime/Summertime_Grappelli.ly:63:18:19">
<g transform="translate(60.3172, 37.7131)">
<path transform="scale(0.0028, -0.0028)" d="M208 139c69 0 117 -40 117 -99c0 -91 -107 -179 -209 -179c-69 0 -116 40 -116 99c0 91 106 179 208 179z" fill="currentColor"/>
</g>
</a>
<g transform="translate(61.1721, 37.2131)">
<rect x="-0.0630" y="-2.3000" width="0.1259" height="2.6856" ry="0.0381" fill="currentColor"/>
</g>
<g transform="translate(61.2351, 34.9512)">
<path transform="scale(0.0028, -0.0028)" d="M115 -723c0 12 43 85 43 193c0 101 -90 205 -158 280h-21v250h21c0 -196 207 -334 207 -530c0 -71 -15 -140 -41 -206c-5 -10 -14 -13 -23 -13c-14 0 -28 10 -28 26z" fill="currentColor"/>
</g>
<a style="color:inherit;" xlink:href="textedit:///Users/marc.mouries/projects/Sheet-Music/Jazz/Summertime/Summertime_Grappelli.ly:63:32:33">
<g transform="translate(64.3172, 37.2131)">
<path transform="scale(0.0040, -0.0040)" d="M218 136c66 0 108 -36 108 -89c0 -89 -113 -183 -218 -183c-66 0 -108 36 -108 89c0 89 113 183 218 183z" fill="currentColor"/>
</g>
</a>
<g transform="translate(65.5585, 37.2131)">
<rect x="-0.0630" y="-2.9964" width="0.1259" height="2.8103" ry="0.0381" fill="currentColor"/>
</g>
<g transform="translate(63.1672, 37.2131)">
<path transform="scale(0.0040, -0.0040)" d="M27 41l-1 -66v-11c0 -22 1 -44 4 -66c45 38 93 80 93 139c0 33 -14 67 -43 67c-31 0 -52 -30 -53 -63zM-15 -138l-12 595c8 5 18 8 27 8s19 -3 27 -8l-7 -345c25 21 58 34 91 34c52 0 89 -48 89 -102c0 -80 -86 -117 -147 -169c-15 -13 -24 -38 -45 -38
c-13 0 -23 11 -23 25z" fill="currentColor"/>
</g>
<g transform="translate(32.9268, 40.2131)">
<polygon stroke-linejoin="round" stroke-linecap="round" stroke-width="0.0762" fill="currentColor" stroke="currentColor" points="2.5008 -0.2019 2.5008 0.2019 0.0381 0.2019 0.0381 -0.2019"/>
</g>
<a style="color:inherit;" xlink:href="textedit:///Users/marc.mouries/projects/Sheet-Music/Jazz/Summertime/Summertime_Grappelli.ly:63:37:38">
<g transform="translate(67.5644, 37.7131)">
<path transform="scale(0.0040, -0.0040)" d="M218 136c66 0 108 -36 108 -89c0 -89 -113 -183 -218 -183c-66 0 -108 36 -108 89c0 89 113 183 218 183z" fill="currentColor"/>
</g>
</a>
<a style="color:inherit;" xlink:href="textedit:///Users/marc.mouries/projects/Sheet-Music/Jazz/Summertime/Summertime_Grappelli.ly:62:8:9">
<g transform="translate(35.3397, 37.2131)">
<path stroke-width="0.0775" stroke-linejoin="round" stroke-linecap="round" stroke="currentColor" fill="currentColor" d="M1.5042 -0.2395C1.9802 -0.8016 2.9646 -0.8016 3.4406 -0.2395L3.4406 -0.2395C2.9646 -0.6854 1.9802 -0.6854 1.5042 -0.2395z"/>
</g>
</a>
<g transform="translate(66.5301, 37.7131)">
<path transform="scale(0.0040, -0.0040)" d="M-7 375c8 4 17 7 25 7s16 -3 24 -7l-2 -183l106 20h3c10 0 18 -7 18 -17l7 -570c-8 -4 -17 -7 -25 -7s-16 3 -24 7l2 183l-106 -20h-3c-10 0 -18 7 -18 17zM131 112l-92 -17l-3 -207l92 17z" fill="currentColor"/>
</g>
<g transform="translate(28.3553, 34.4047)">
<polygon stroke-linejoin="round" stroke-linecap="round" stroke-width="0.0762" fill="currentColor" stroke="currentColor" points="3.3350 0.4150 3.3350 0.8188 0.0381 0.2019 0.0381 -0.2019"/>
</g>
<a style="color:inherit;" xlink:href="textedit:///Users/marc.mouries/projects/Sheet-Music/Jazz/Summertime/Summertime_Grappelli.ly:63:43:44">
<g transform="translate(69.9773, 37.7131)">
<path transform="scale(0.0040, -0.0040)" d="M218 136c66 0 108 -36 108 -89c0 -89 -113 -183 -218 -183c-66 0 -108 36 -108 89c0 89 113 183 218 183z" fill="currentColor"/>
</g>
</a>
<g transform="translate(71.2186, 37.2131)">
<rect x="-0.0630" y="-3.0000" width="0.1259" height="3.3139" ry="0.0381" fill="currentColor"/>
</g>
<g transform="translate(20.7099, 37.2131)">
<polygon stroke-linejoin="round" stroke-linecap="round" stroke-width="0.0762" fill="currentColor" stroke="currentColor" points="2.0464 -0.2019 2.0464 0.2019 0.0381 0.2019 0.0381 -0.2019"/>
</g>
<g transform="translate(20.7099, 38.0215)">
<polygon stroke-linejoin="round" stroke-linecap="round" stroke-width="0.0762" fill="currentColor" stroke="currentColor" points="2.0464 -0.2019 2.0464 0.2019 0.0381 0.2019 0.0381 -0.2019"/>
</g>
<a style="color:inherit;" xlink:href="textedit:///Users/marc.mouries/projects/Sheet-Music/Jazz/Summertime/Summertime_Grappelli.ly:60:12:13">
<g transform="translate(5.4196, 37.2131)">
<line stroke-linejoin="round" stroke-linecap="round" stroke-width="0.0969" stroke="currentColor" x1="19.1509" y1="0.8457" x2="21.2818" y2="0.1543"/>
</g>
</a>
<a style="color:inherit;" xlink:href="textedit:///Users/marc.mouries/projects/Sheet-Music/Jazz/Summertime/Summertime_Grappelli.ly:51:0:1">
<g transform="translate(75.0578, 34.6647)">
<text font-family="sans-serif" font-size="2.6166" text-anchor="start" fill="currentColor">
<tspan>E</tspan>
</text>
</g>
<g transform="translate(76.7162, 34.6647)">
<text font-family="sans-serif" font-size="2.6166" text-anchor="start" fill="currentColor">
<tspan>m</tspan>
</text>
</g>
</a>
<a style="color:inherit;" xlink:href="textedit:///Users/marc.mouries/projects/Sheet-Music/Jazz/Summertime/Summertime_Grappelli.ly:64:2:3">
<g transform="translate(75.0578, 38.2131)">
<path transform="scale(0.0040, -0.0040)" d="M218 136c66 0 108 -36 108 -89c0 -89 -113 -183 -218 -183c-66 0 -108 36 -108 89c0 89 113 183 218 183z" fill="currentColor"/>
</g>
</a>
<g transform="translate(76.2991, 37.2131)">
<rect x="-0.0630" y="-1.7915" width="0.1259" height="2.6054" ry="0.0381" fill="currentColor"/>
</g>
<a style="color:inherit;" xlink:href="textedit:///Users/marc.mouries/projects/Sheet-Music/Jazz/Summertime/Summertime_Grappelli.ly:64:5:6">
<g transform="translate(77.2208, 39.2131)">
<path transform="scale(0.0040, -0.0040)" d="M218 136c66 0 108 -36 108 -89c0 -89 -113 -183 -218 -183c-66 0 -108 36 -108 89c0 89 113 183 218 183z" fill="currentColor"/>
</g>
</a>
<g transform="translate(78.4620, 37.2131)">
<rect x="-0.0630" y="-1.2085" width="0.1259" height="3.0224" ry="0.0381" fill="currentColor"/>
</g>
<a style="color:inherit;" xlink:href="textedit:///Users/marc.mouries/projects/Sheet-Music/Jazz/Summertime/Summertime_Grappelli.ly:64:8:9">
<g transform="translate(79.6337, 39.2131)">
<path transform="scale(0.0040, -0.0040)" d="M218 136c66 0 108 -36 108 -89c0 -89 -113 -183 -218 -183c-66 0 -108 36 -108 89c0 89 113 183 218 183z" fill="currentColor"/>
</g>
</a>
<g transform="translate(80.8749, 37.2131)">
<rect x="-0.0630" y="-1.0000" width="0.1259" height="2.8139" ry="0.0381" fill="currentColor"/>
</g>
<a style="color:inherit;" xlink:href="textedit:///Users/marc.mouries/projects/Sheet-Music/Jazz/Summertime/Summertime_Grappelli.ly:64:10:11">
<g transform="translate(82.0466, 39.2131)">
<path transform="scale(0.0040, -0.0040)" d="M218 136c66 0 108 -36 108 -89c0 -89 -113 -183 -218 -183c-66 0 -108 36 -108 89c0 89 113 183 218 183z" fill="currentColor"/>
</g>
</a>
<g transform="translate(83.2879, 37.2131)">
<rect x="-0.0630" y="-1.0000" width="0.1259" height="2.8139" ry="0.0381" fill="currentColor"/>
</g>
<a style="color:inherit;" xlink:href="textedit:///Users/marc.mouries/projects/Sheet-Music/Jazz/Summertime/Summertime_Grappelli.ly:51:6:7">
<g transform="translate(85.7095, 34.6647)">
<text font-family="sans-serif" font-size="2.6166" text-anchor="start" fill="currentColor">
<tspan>D</tspan>
</text>
</g>
<g transform="translate(87.7256, 34.6647)">
<text font-family="sans-serif" font-size="2.6166" text-anchor="start" fill="currentColor">
<tspan>m</tspan>
</text>
</g>
</a>
<a style="color:inherit;" xlink:href="textedit:///Users/marc.mouries/projects/Sheet-Music/Jazz/Summertime/Summertime_Grappelli.ly:64:25:26">
<g transform="translate(85.7095, 39.7131)">
<path transform="scale(0.0040, -0.0040)" d="M218 136c66 0 108 -36 108 -89c0 -89 -113 -183 -218 -183c-66 0 -108 36 -108 89c0 89 113 183 218 183z" fill="currentColor"/>
</g>
</a>
<g transform="translate(86.9508, 37.2131)">
<rect x="-0.0630" y="-0.1896" width="0.1259" height="2.5035" ry="0.0381" fill="currentColor"/>
</g>
<g transform="translate(84.2595, 39.7131)">
<path transform="scale(0.0040, -0.0040)" d="M0 119c0 8 5 15 13 18l46 17v158c0 10 8 19 18 19s19 -9 19 -19v-145l83 31v158c0 10 9 19 19 19s18 -9 18 -19v-145l32 12c2 1 5 1 7 1c11 0 20 -9 20 -20v-60c0 -8 -5 -16 -13 -19l-46 -16v-160l32 11c2 1 5 1 7 1c11 0 20 -9 20 -20v-60c0 -8 -5 -15 -13 -18l-46 -17
v-158c0 -10 -8 -19 -18 -19s-19 9 -19 19v145l-83 -31v-158c0 -10 -9 -19 -19 -19s-18 9 -18 19v145l-32 -12c-2 -1 -5 -1 -7 -1c-11 0 -20 9 -20 20v60c0 8 5 16 13 19l46 16v160l-32 -11c-2 -1 -5 -1 -7 -1c-11 0 -20 9 -20 20v60zM179 95l-83 -30v-160l83 30v160z" fill="currentColor"/>
</g>
<a style="color:inherit;" xlink:href="textedit:///Users/marc.mouries/projects/Sheet-Music/Jazz/Summertime/Summertime_Grappelli.ly:64:29:30">
<g transform="translate(89.0596, 39.7131)">
<path transform="scale(0.0040, -0.0040)" d="M218 136c66 0 108 -36 108 -89c0 -89 -113 -183 -218 -183c-66 0 -108 36 -108 89c0 89 113 183 218 183z" fill="currentColor"/>
</g>
</a>
<g transform="translate(90.3009, 37.2131)">
<rect x="-0.0630" y="-0.0871" width="0.1259" height="2.4010" ry="0.0381" fill="currentColor"/>
</g>
<g transform="translate(88.0254, 39.7131)">
<path transform="scale(0.0040, -0.0040)" d="M-7 375c8 4 17 7 25 7s16 -3 24 -7l-2 -183l106 20h3c10 0 18 -7 18 -17l7 -570c-8 -4 -17 -7 -25 -7s-16 3 -24 7l2 183l-106 -20h-3c-10 0 -18 7 -18 17zM131 112l-92 -17l-3 -207l92 17z" fill="currentColor"/>
</g>
<a style="color:inherit;" xlink:href="textedit:///Users/marc.mouries/projects/Sheet-Music/Jazz/Summertime/Summertime_Grappelli.ly:64:31:32">
<g transform="translate(91.8421, 40.2131)">
<path transform="scale(0.0040, -0.0040)" d="M218 136c66 0 108 -36 108 -89c0 -89 -113 -183 -218 -183c-66 0 -108 36 -108 89c0 89 113 183 218 183z" fill="currentColor"/>
</g>
</a>
<g transform="translate(93.0834, 37.2131)">
<rect x="-0.0630" y="-0.0019" width="0.1259" height="2.8158" ry="0.0381" fill="currentColor"/>
</g>
<a style="color:inherit;" xlink:href="textedit:///Users/marc.mouries/projects/Sheet-Music/Jazz/Summertime/Summertime_Grappelli.ly:52:0:1">
<g transform="translate(96.0966, 34.6647)">
<text font-family="sans-serif" font-size="2.6166" text-anchor="start" fill="currentColor">
<tspan>E</tspan>
</text>
</g>
<g transform="translate(97.7550, 34.6647)">
<text font-family="sans-serif" font-size="2.6166" text-anchor="start" fill="currentColor">
<tspan>m</tspan>
</text>
</g>
</a>
<a style="color:inherit;" xlink:href="textedit:///Users/marc.mouries/projects/Sheet-Music/Jazz/Summertime/Summertime_Grappelli.ly:64:47:48">
<g transform="translate(96.0966, 40.2131)">
<path transform="scale(0.0040, -0.0040)" d="M218 136c66 0 108 -36 108 -89c0 -89 -113 -183 -218 -183c-66 0 -108 36 -108 89c0 89 113 183 218 183z" fill="currentColor"/>
</g>
</a>
<g transform="translate(97.3379, 37.2131)">
<rect x="-0.0630" y="-0.1894" width="0.1259" height="3.0033" ry="0.0381" fill="currentColor"/>
</g>
<a style="color:inherit;" xlink:href="textedit:///Users/marc.mouries/projects/Sheet-Music/Jazz/Summertime/Summertime_Grappelli.ly:64:50:51">
<g transform="translate(98.8791, 40.7131)">
<path transform="scale(0.0040, -0.0040)" d="M218 136c66 0 108 -36 108 -89c0 -89 -113 -183 -218 -183c-66 0 -108 36 -108 89c0 89 113 183 218 183z" fill="currentColor"/>
</g>
</a>
<g transform="translate(100.1204, 37.2131)">
<rect x="-0.0630" y="-0.0958" width="0.1259" height="3.4097" ry="0.0381" fill="currentColor"/>
</g>
<a style="color:inherit;" xlink:href="textedit:///Users/marc.mouries/projects/Sheet-Music/Jazz/Summertime/Summertime_Grappelli.ly:64:52:53">
<g transform="translate(101.6616, 40.7131)">
<path transform="scale(0.0040, -0.0040)" d="M218 136c66 0 108 -36 108 -89c0 -89 -113 -183 -218 -183c-66 0 -108 36 -108 89c0 89 113 183 218 183z" fill="currentColor"/>
</g>
</a>
<g transform="translate(102.9029, 37.2131)">
<rect x="-0.0630" y="-0.0021" width="0.1259" height="3.3160" ry="0.0381" fill="currentColor"/>
</g>
<a style="color:inherit;" xlink:href="textedit:///Users/marc.mouries/projects/Sheet-Music/Jazz/Summertime/Summertime_Grappelli.ly:65:2:3">
<g transform="translate(104.4441, 40.7131)">
<path transform="scale(0.0040, -0.0040)" d="M218 136c66 0 108 -36 108 -89c0 -89 -113 -183 -218 -183c-66 0 -108 36 -108 89c0 89 113 183 218 183z" fill="currentColor"/>
</g>
</a>
<g transform="translate(105.6854, 37.2131)">
<rect x="-0.0630" y="-0.0000" width="0.1259" height="3.3139" ry="0.0381" fill="currentColor"/>
</g>
<a style="color:inherit;" xlink:href="textedit:///Users/marc.mouries/projects/Sheet-Music/Jazz/Summertime/Summertime_Grappelli.ly:67:2:3">
<g transform="translate(108.1016, 37.2131)">
<path transform="scale(0.0040, -0.0040)" d="M-6 78c0 59 124 83 124 182c0 24 -8 49 -25 69l-35 42c-3 3 -4 7 -4 10c0 9 9 15 17 15c4 0 8 -1 11 -5l151 -180c7 -9 10 -17 10 -25c0 -59 -124 -83 -124 -182c0 -24 7 -49 24 -69l84 -99c3 -3 4 -7 4 -10c0 -9 -8 -16 -16 -16s-45 44 -109 44c-16 0 -53 0 -53 -67
c0 -35 11 -74 28 -94c7 -8 -5 -19 -12 -11c-45 54 -92 148 -92 202c0 41 27 42 40 42c33 0 78 -13 119 -31l-132 158c-7 9 -10 17 -10 25z" fill="currentColor"/>
</g>
</a>
<g transform="translate(5.4196, 51.2131)">
<line stroke-linejoin="round" stroke-linecap="round" stroke-width="0.0969" stroke="currentColor" x1="0.0484" y1="0" x2="106.1210" y2="0"/>
</g>
<g transform="translate(5.4196, 50.2131)">
<line stroke-linejoin="round" stroke-linecap="round" stroke-width="0.0969" stroke="currentColor" x1="0.0484" y1="0" x2="106.1210" y2="0"/>
</g>
<g transform="translate(5.4196, 49.2131)">
<line stroke-linejoin="round" stroke-linecap="round" stroke-width="0.0969" stroke="currentColor" x1="0.0484" y1="0" x2="106.1210" y2="0"/>
</g>
<g transform="translate(5.4196, 48.2131)">
<line stroke-linejoin="round" stroke-linecap="round" stroke-width="0.0969" stroke="currentColor" x1="0.0484" y1="0" x2="106.1210" y2="0"/>
</g>
<g transform="translate(5.4196, 47.2131)">
<line stroke-linejoin="round" stroke-linecap="round" stroke-width="0.0969" stroke="currentColor" x1="0.0484" y1="0" x2="106.1210" y2="0"/>
</g>
<g transform="translate(111.4049, 49.2131)">
<rect x="0.0000" y="-2.0000" width="0.1841" height="4.0000" ry="0.0000" fill="currentColor"/>
</g>
<g transform="translate(100.7591, 49.2131)">
<rect x="0.0000" y="-2.0000" width="0.1841" height="4.0000" ry="0.0000" fill="currentColor"/>
</g>
<g transform="translate(90.1132, 49.2131)">
<rect x="0.0000" y="-2.0000" width="0.1841" height="4.0000" ry="0.0000" fill="currentColor"/>
</g>
<g transform="translate(79.4673, 49.2131)">
<rect x="0.0000" y="-2.0000" width="0.1841" height="4.0000" ry="0.0000" fill="currentColor"/>
</g>
<g transform="translate(68.8214, 49.2131)">
<rect x="0.0000" y="-2.0000" width="0.1841" height="4.0000" ry="0.0000" fill="currentColor"/>
</g>
<g transform="translate(58.1756, 49.2131)">
<rect x="0.0000" y="-2.0000" width="0.1841" height="4.0000" ry="0.0000" fill="currentColor"/>
</g>
<g transform="translate(47.5297, 49.2131)">
<rect x="0.0000" y="-2.0000" width="0.1841" height="4.0000" ry="0.0000" fill="currentColor"/>
</g>
<g transform="translate(36.8838, 49.2131)">
<rect x="0.0000" y="-2.0000" width="0.1841" height="4.0000" ry="0.0000" fill="currentColor"/>
</g>
<g transform="translate(26.2379, 49.2131)">
<rect x="0.0000" y="-2.0000" width="0.1841" height="4.0000" ry="0.0000" fill="currentColor"/>
</g>
<a style="color:inherit;" xlink:href="textedit:///Users/marc.mouries/projects/Sheet-Music/Jazz/Summertime/Summertime_Grappelli.ly:67:5:6">
<g transform="translate(11.2196, 49.2131)">
<path transform="scale(0.0040, -0.0040)" d="M-6 78c0 59 124 83 124 182c0 24 -8 49 -25 69l-35 42c-3 3 -4 7 -4 10c0 9 9 15 17 15c4 0 8 -1 11 -5l151 -180c7 -9 10 -17 10 -25c0 -59 -124 -83 -124 -182c0 -24 7 -49 24 -69l84 -99c3 -3 4 -7 4 -10c0 -9 -8 -16 -16 -16s-45 44 -109 44c-16 0 -53 0 -53 -67
c0 -35 11 -74 28 -94c7 -8 -5 -19 -12 -11c-45 54 -92 148 -92 202c0 41 27 42 40 42c33 0 78 -13 119 -31l-132 158c-7 9 -10 17 -10 25z" fill="currentColor"/>
</g>
</a>
<a style="color:inherit;" xlink:href="textedit:///Users/marc.mouries/projects/Sheet-Music/Jazz/Summertime/Summertime_Grappelli.ly:67:8:9">
<g transform="translate(14.9742, 49.2131)">
<path transform="scale(0.0040, -0.0040)" d="M-6 78c0 59 124 83 124 182c0 24 -8 49 -25 69l-35 42c-3 3 -4 7 -4 10c0 9 9 15 17 15c4 0 8 -1 11 -5l151 -180c7 -9 10 -17 10 -25c0 -59 -124 -83 -124 -182c0 -24 7 -49 24 -69l84 -99c3 -3 4 -7 4 -10c0 -9 -8 -16 -16 -16s-45 44 -109 44c-16 0 -53 0 -53 -67
c0 -35 11 -74 28 -94c7 -8 -5 -19 -12 -11c-45 54 -92 148 -92 202c0 41 27 42 40 42c33 0 78 -13 119 -31l-132 158c-7 9 -10 17 -10 25z" fill="currentColor"/>
</g>
</a>
<a style="color:inherit;" xlink:href="textedit:///Users/marc.mouries/projects/Sheet-Music/Jazz/Summertime/Summertime_Grappelli.ly:67:11:12">
<g transform="translate(18.7287, 49.2131)">
<path transform="scale(0.0040, -0.0040)" d="M-6 78c0 59 124 83 124 182c0 24 -8 49 -25 69l-35 42c-3 3 -4 7 -4 10c0 9 9 15 17 15c4 0 8 -1 11 -5l151 -180c7 -9 10 -17 10 -25c0 -59 -124 -83 -124 -182c0 -24 7 -49 24 -69l84 -99c3 -3 4 -7 4 -10c0 -9 -8 -16 -16 -16s-45 44 -109 44c-16 0 -53 0 -53 -67
c0 -35 11 -74 28 -94c7 -8 -5 -19 -12 -11c-45 54 -92 148 -92 202c0 41 27 42 40 42c33 0 78 -13 119 -31l-132 158c-7 9 -10 17 -10 25z" fill="currentColor"/>
</g>
</a>
<a style="color:inherit;" xlink:href="textedit:///Users/marc.mouries/projects/Sheet-Music/Jazz/Summertime/Summertime_Grappelli.ly:67:14:15">
<g transform="translate(22.4833, 49.2131)">
<path transform="scale(0.0040, -0.0040)" d="M-6 78c0 59 124 83 124 182c0 24 -8 49 -25 69l-35 42c-3 3 -4 7 -4 10c0 9 9 15 17 15c4 0 8 -1 11 -5l151 -180c7 -9 10 -17 10 -25c0 -59 -124 -83 -124 -182c0 -24 7 -49 24 -69l84 -99c3 -3 4 -7 4 -10c0 -9 -8 -16 -16 -16s-45 44 -109 44c-16 0 -53 0 -53 -67
c0 -35 11 -74 28 -94c7 -8 -5 -19 -12 -11c-45 54 -92 148 -92 202c0 41 27 42 40 42c33 0 78 -13 119 -31l-132 158c-7 9 -10 17 -10 25z" fill="currentColor"/>
</g>
</a>
<a style="color:inherit;" xlink:href="textedit:///Users/marc.mouries/projects/Sheet-Music/Jazz/Summertime/Summertime_Grappelli.ly:69:2:3">
<g transform="translate(28.6152, 48.2131)">
<path transform="scale(0.0040, -0.0040)" d="M365 -156h-355c-6 0 -10 4 -10 10v136c0 6 4 10 10 10h355c6 0 10 -4 10 -10v-136c0 -6 -4 -10 -10 -10z" fill="currentColor"/>
</g>
</a>
<g transform="translate(4.5416, 46.1442)">
<text font-family="serif" font-size="1.7460" text-anchor="start" fill="currentColor">
<tspan>6</tspan>
</text>
</g>
<a style="color:inherit;" xlink:href="textedit:///Users/marc.mouries/projects/Sheet-Music/Jazz/Summertime/Summertime_Grappelli.ly:69:5:6">
<g transform="translate(39.2611, 48.2131)">
<path transform="scale(0.0040, -0.0040)" d="M365 -156h-355c-6 0 -10 4 -10 10v136c0 6 4 10 10 10h355c6 0 10 -4 10 -10v-136c0 -6 -4 -10 -10 -10z" fill="currentColor"/>
</g>
</a>
<a style="color:inherit;" xlink:href="textedit:///Users/marc.mouries/projects/Sheet-Music/Jazz/Summertime/Summertime_Grappelli.ly:69:8:9">
<g transform="translate(49.9070, 48.2131)">
<path transform="scale(0.0040, -0.0040)" d="M365 -156h-355c-6 0 -10 4 -10 10v136c0 6 4 10 10 10h355c6 0 10 -4 10 -10v-136c0 -6 -4 -10 -10 -10z" fill="currentColor"/>
</g>
</a>
<g transform="translate(6.2196, 50.2131)">
<path transform="scale(0.0040, -0.0040)" d="M266 -635h-6c-108 0 -195 88 -195 197c0 58 53 103 112 103c54 0 95 -47 95 -103c0 -52 -43 -95 -95 -95c-11 0 -21 2 -31 6c26 -39 68 -65 117 -65h4zM461 -203c68 24 113 90 113 164c0 90 -66 179 -173 190c19 -89 48 -242 60 -354zM74 28c0 -145 141 -247 264 -247
c1 0 47 0 82 6c-7 64 -29 203 -63 364c-79 -8 -124 -61 -124 -119c0 -44 25 -91 81 -123c5 -5 7 -10 7 -15c0 -11 -10 -22 -22 -22c-15 0 -126 62 -126 187c0 88 58 174 160 197c-14 58 -29 117 -46 175c-107 -121 -213 -243 -213 -403zM250 553c-29 96 -52 170 -52 346
c0 115 55 224 149 292c6 5 14 5 20 0c68 -80 133 -245 133 -358c0 -143 -86 -255 -180 -364c21 -68 39 -138 56 -207c2 0 7 1 13 1c155 0 256 -128 256 -261c0 -113 -74 -212 -180 -246c3 -35 5 -70 5 -105c0 -19 -1 -39 -2 -58c-7 -119 -88 -225 -202 -228l1 43
c93 2 153 92 159 191c1 18 2 37 2 55c0 31 -1 61 -4 92c-5 -1 -44 -8 -89 -8c-193 0 -333 180 -333 374c0 177 131 306 248 441zM428 916c0 34 1 66 -20 129c-99 -48 -162 -149 -162 -259c0 -52 12 -115 36 -194c80 97 146 198 146 324z" fill="currentColor"/>
</g>
<a style="color:inherit;" xlink:href="textedit:///Users/marc.mouries/projects/Sheet-Music/Jazz/Summertime/Summertime_Grappelli.ly:69:11:12">
<g transform="translate(60.5529, 48.2131)">
<path transform="scale(0.0040, -0.0040)" d="M365 -156h-355c-6 0 -10 4 -10 10v136c0 6 4 10 10 10h355c6 0 10 -4 10 -10v-136c0 -6 -4 -10 -10 -10z" fill="currentColor"/>
</g>
</a>
<a style="color:inherit;" xlink:href="textedit:///Users/marc.mouries/projects/Sheet-Music/Jazz/Summertime/Summertime_Grappelli.ly:70:2:3">
<g transform="translate(71.1987, 48.2131)">
<path transform="scale(0.0040, -0.0040)" d="M365 -156h-355c-6 0 -10 4 -10 10v136c0 6 4 10 10 10h355c6 0 10 -4 10 -10v-136c0 -6 -4 -10 -10 -10z" fill="currentColor"/>
</g>
</a>
<a style="color:inherit;" xlink:href="textedit:///Users/marc.mouries/projects/Sheet-Music/Jazz/Summertime/Summertime_Grappelli.ly:70:5:6">
<g transform="translate(81.8446, 48.2131)">
<path transform="scale(0.0040, -0.0040)" d="M365 -156h-355c-6 0 -10 4 -10 10v136c0 6 4 10 10 10h355c6 0 10 -4 10 -10v-136c0 -6 -4 -10 -10 -10z" fill="currentColor"/>
</g>
</a>
<a style="color:inherit;" xlink:href="textedit:///Users/marc.mouries/projects/Sheet-Music/Jazz/Summertime/Summertime_Grappelli.ly:70:8:9">
<g transform="translate(92.4905, 48.2131)">
<path transform="scale(0.0040, -0.0040)" d="M365 -156h-355c-6 0 -10 4 -10 10v136c0 6 4 10 10 10h355c6 0 10 -4 10 -10v-136c0 -6 -4 -10 -10 -10z" fill="currentColor"/>
</g>
</a>
<a style="color:inherit;" xlink:href="textedit:///Users/marc.mouries/projects/Sheet-Music/Jazz/Summertime/Summertime_Grappelli.ly:70:11:12">
<g transform="translate(103.1364, 48.2131)">
<path transform="scale(0.0040, -0.0040)" d="M365 -156h-355c-6 0 -10 4 -10 10v136c0 6 4 10 10 10h355c6 0 10 -4 10 -10v-136c0 -6 -4 -10 -10 -10z" fill="currentColor"/>
</g>
</a>
<g transform="translate(33.0269, 138.6963)">
<text font-family="serif" font-size="2.2001" text-anchor="start" fill="currentColor">
<tspan>(cc)(by)(sa) me Rights Reserved.</tspan>
</text>
</g>
<g transform="translate(33.0269, 141.6963)">
<a xlink:href="https://www.youtube.com/watch?v=mNejZlpOpAU">
<rect x="0.0000" y="-0.4748" width="50.9548" height="2.0025" fill="none" stroke="none" stroke-width="0.0"/>
</a>
</g>
<g transform="translate(33.0269, 141.6963)">
<text font-family="serif" font-size="2.2001" text-anchor="start" fill="currentColor">
<tspan>Youtube Video Gypsy Jazz Violin Lessons - Minor Swing</tspan>
</text>
</g>
<g transform="translate(33.0269, 144.6963)">
<text font-family="serif" font-size="2.2001" text-anchor="start" fill="currentColor">
<tspan>../../common/common-header.ily</tspan>
</text>
</g>
<g transform="translate(33.0269, 147.6963)">
<text font-family="serif" font-size="2.2001" text-anchor="start" fill="currentColor">
<tspan>Typeset with LilyPond 2.24.4. ,</tspan>
</text>
</g>
<g transform="translate(61.4293, 147.6963)">
<text font-family="serif" font-size="2.2001" text-anchor="start" fill="currentColor">
<tspan>December, 20 2025</tspan>
</text>
</g>
</svg>
