<svg xmlns="http://www.w3.org/2000/svg" xmlns:xlink="http://www.w3.org/1999/xlink" version="1.2" width="210.00mm" height="297.00mm" viewBox="0.0000 -0.0000 108.6378 153.6449">
<style type="text/css">
<![CDATA[
tspan { white-space: pre; }
]]>
</style>
<g transform="translate(43.5482, 6.6577)">
<text font-family="Optima" font-weight="bold" font-size="4.3998" text-anchor="start" fill="currentColor">
<tspan>O</tspan>
</text>
</g>
<g transform="translate(47.2109, 6.6577)">
<text font-family="Optima" font-weight="bold" font-size="3.4924" text-anchor="start" fill="currentColor">
<tspan>DE</tspan>
</text>
</g>
<g transform="translate(51.6806, 6.6577)">
<text font-family="Optima" font-weight="bold" font-size="4.3998" text-anchor="start" fill="currentColor">
<tspan> </tspan>
</text>
</g>
<g transform="translate(52.8911, 6.6577)">
<text font-family="Optima" font-weight="bold" font-size="3.4924" text-anchor="start" fill="currentColor">
<tspan>TO</tspan>
</text>
</g>
<g transform="translate(57.6091, 6.6577)">
<text font-family="Optima" font-weight="bold" font-size="4.3998" text-anchor="start" fill="currentColor">
<tspan> J</tspan>
</text>
</g>
<g transform="translate(60.2785, 6.6577)">
<text font-family="Optima" font-weight="bold" font-size="3.4924" text-anchor="start" fill="currentColor">
<tspan>OY</tspan>
</text>
</g>
<g transform="translate(45.2554, 9.6577)">
<text font-family="Optima" font-size="1.7460" text-anchor="start" fill="currentColor">
<tspan>Ninth Symphony Theme</tspan>
</text>
</g>
<g transform="translate(84.1581, 6.6577)">
<text font-family="Optima" font-size="1.9602" text-anchor="start" fill="currentColor">
<tspan>Ludwig van Beethoven</tspan>
</text>
</g>
<g transform="translate(5.1732, 26.5703)">
<line stroke-linejoin="round" stroke-linecap="round" stroke-width="0.0940" stroke="currentColor" x1="0.0470" y1="0" x2="98.2443" y2="0"/>
</g>
<g transform="translate(5.1732, 25.4703)">
<line stroke-linejoin="round" stroke-linecap="round" stroke-width="0.0940" stroke="currentColor" x1="0.0470" y1="0" x2="98.2443" y2="0"/>
</g>
<g transform="translate(5.1732, 24.3703)">
<line stroke-linejoin="round" stroke-linecap="round" stroke-width="0.0940" stroke="currentColor" x1="0.0470" y1="0" x2="98.2443" y2="0"/>
</g>
<g transform="translate(5.1732, 23.2703)">
<line stroke-linejoin="round" stroke-linecap="round" stroke-width="0.0940" stroke="currentColor" x1="0.0470" y1="0" x2="98.2443" y2="0"/>
</g>
<g transform="translate(5.1732, 22.1703)">
<line stroke-linejoin="round" stroke-linecap="round" stroke-width="0.0940" stroke="currentColor" x1="0.0470" y1="0" x2="98.2443" y2="0"/>
</g>
<g transform="translate(103.2859, 24.3703)">
<rect x="0.0000" y="-2.2000" width="0.1786" height="4.4000" ry="0.0000" fill="currentColor"/>
</g>
<g transform="translate(83.5011, 24.3703)">
<rect x="0.0000" y="-2.2000" width="0.1786" height="4.4000" ry="0.0000" fill="currentColor"/>
</g>
<g transform="translate(61.0269, 24.3703)">
<rect x="0.0000" y="-2.2000" width="0.1786" height="4.4000" ry="0.0000" fill="currentColor"/>
</g>
<g transform="translate(38.3410, 24.3703)">
<rect x="0.0000" y="-2.2000" width="0.1786" height="4.4000" ry="0.0000" fill="currentColor"/>
</g>
<a style="color:inherit;" xlink:href="textedit:///Users/marc.mouries/projects/Sheet-Music/Classical/Beethoven_Ode-to-Joy/Ode-to-Joy.ly:25:4:5">
<g transform="translate(17.6304, 23.8203)">
<path transform="scale(0.0040, -0.0040)" d="M220 135c11 0 106 -2 106 -87c0 -89 -114 -183 -220 -183c-11 0 -106 2 -106 87c0 89 114 183 220 183z" fill="currentColor"/>
</g>
</a>
<g transform="translate(5.9732, 25.4703)">
<path transform="scale(0.0040, -0.0040)" d="M267 -593l-1 -41h-5c-108 0 -196 88 -196 196c0 58 54 104 113 104c54 0 95 -48 95 -104c0 -52 -43 -95 -95 -95c-11 0 -23 3 -34 8c26 -40 69 -68 119 -68h4zM644 2c0 -112 -73 -212 -180 -245c3 -35 5 -71 5 -107c0 -19 -1 -38 -2 -57c-7 -119 -87 -224 -201 -227l1 41
c43 1 161 25 161 246c0 31 -1 63 -4 94c-5 -1 -44 -8 -89 -8c-193 0 -333 179 -333 373c0 177 132 307 249 441c-28 95 -50 169 -50 345c0 116 56 226 150 294c5 4 13 3 18 -1c67 -81 132 -245 132 -358c0 -143 -86 -255 -181 -364c20 -69 38 -138 55 -208c2 0 7 1 14 1
c155 0 255 -128 255 -260zM460 -204c70 24 115 91 115 165c0 91 -68 182 -176 192c19 -89 48 -246 61 -357zM73 30c0 -146 141 -250 265 -250c1 0 47 0 82 6c-7 63 -29 202 -64 366c-79 -9 -124 -62 -124 -120c0 -44 26 -91 82 -123c5 -4 6 -10 6 -15c0 -11 -9 -21 -21 -21
c-15 0 -125 61 -125 186c0 88 58 173 159 196c-14 59 -30 119 -46 177c-107 -121 -214 -242 -214 -402zM431 915c0 34 0 66 -21 132c-99 -49 -162 -150 -162 -260c0 -56 12 -119 35 -197c81 97 148 199 148 325z" fill="currentColor"/>
</g>
<a style="color:inherit;" xlink:href="textedit:///Users/marc.mouries/projects/Sheet-Music/Classical/Beethoven_Ode-to-Joy/Ode-to-Joy.ly:19:2:3">
<g transform="translate(9.4732, 22.1703)">
<path transform="scale(0.0040, -0.0040)" d="M0 120c0 8 5 14 12 17l47 17v160c0 10 8 18 18 18s18 -8 18 -18v-148l85 31v160c0 10 8 18 18 18s18 -8 18 -18v-148l35 13c2 1 4 1 6 1c9 0 18 -8 18 -18v-62c0 -8 -5 -14 -12 -17l-47 -17v-162l35 13c2 1 4 1 6 1c9 0 18 -8 18 -18v-63c0 -8 -5 -14 -12 -17l-47 -17
v-160c0 -10 -8 -18 -18 -18s-18 8 -18 18v148l-85 -31v-160c0 -10 -8 -18 -18 -18s-18 8 -18 18v148l-35 -13c-2 -1 -4 -1 -6 -1c-9 0 -18 8 -18 18v62c0 8 5 14 12 17l47 17v162l-35 -13c-2 -1 -4 -1 -6 -1c-9 0 -18 8 -18 18v63zM180 96l-85 -30v-162l85 30v162z" fill="currentColor"/>
</g>
<g transform="translate(10.5732, 23.8203)">
<path transform="scale(0.0040, -0.0040)" d="M0 120c0 8 5 14 12 17l47 17v160c0 10 8 18 18 18s18 -8 18 -18v-148l85 31v160c0 10 8 18 18 18s18 -8 18 -18v-148l35 13c2 1 4 1 6 1c9 0 18 -8 18 -18v-62c0 -8 -5 -14 -12 -17l-47 -17v-162l35 13c2 1 4 1 6 1c9 0 18 -8 18 -18v-63c0 -8 -5 -14 -12 -17l-47 -17
v-160c0 -10 -8 -18 -18 -18s-18 8 -18 18v148l-85 -31v-160c0 -10 -8 -18 -18 -18s-18 8 -18 18v148l-35 -13c-2 -1 -4 -1 -6 -1c-9 0 -18 8 -18 18v62c0 8 5 14 12 17l47 17v162l-35 -13c-2 -1 -4 -1 -6 -1c-9 0 -18 8 -18 18v63zM180 96l-85 -30v-162l85 30v162z" fill="currentColor"/>
</g>
<g transform="translate(11.6732, 21.6203)">
<path transform="scale(0.0040, -0.0040)" d="M0 120c0 8 5 14 12 17l47 17v160c0 10 8 18 18 18s18 -8 18 -18v-148l85 31v160c0 10 8 18 18 18s18 -8 18 -18v-148l35 13c2 1 4 1 6 1c9 0 18 -8 18 -18v-62c0 -8 -5 -14 -12 -17l-47 -17v-162l35 13c2 1 4 1 6 1c9 0 18 -8 18 -18v-63c0 -8 -5 -14 -12 -17l-47 -17
v-160c0 -10 -8 -18 -18 -18s-18 8 -18 18v148l-85 -31v-160c0 -10 -8 -18 -18 -18s-18 8 -18 18v148l-35 -13c-2 -1 -4 -1 -6 -1c-9 0 -18 8 -18 18v62c0 8 5 14 12 17l47 17v162l-35 -13c-2 -1 -4 -1 -6 -1c-9 0 -18 8 -18 18v63zM180 96l-85 -30v-162l85 30v162z" fill="currentColor"/>
</g>
</a>
<a style="color:inherit;" xlink:href="textedit:///Users/marc.mouries/projects/Sheet-Music/Classical/Beethoven_Ode-to-Joy/Ode-to-Joy.ly:18:2:3">
<g transform="translate(13.9233, 24.3703)">
<path transform="scale(0.0040, -0.0040)" d="M360 26c-31 0 -76 25 -76 76c0 39 27 78 73 78c3 0 9 -1 16 -2c-29 37 -74 60 -123 60c-106 0 -113 -73 -113 -185c0 -17 1 -35 1 -53s-1 -36 -1 -53c0 -112 7 -185 113 -185c81 0 142 69 161 151c1 6 6 9 11 9c6 0 12 -4 12 -11c0 -22 -51 -173 -184 -173
c-59 0 -250 19 -250 262c0 62 18 262 250 262c116 0 178 -104 178 -163c0 -40 -31 -73 -68 -73z" fill="currentColor"/>
</g>
</a>
<g transform="translate(17.6915, 24.3703)">
<rect x="-0.0611" y="-0.3581" width="0.1222" height="3.6581" ry="0.0364" fill="currentColor"/>
</g>
<a style="color:inherit;" xlink:href="textedit:///Users/marc.mouries/projects/Sheet-Music/Classical/Beethoven_Ode-to-Joy/Ode-to-Joy.ly:25:8:9">
<g transform="translate(22.8674, 23.8203)">
<path transform="scale(0.0040, -0.0040)" d="M220 135c11 0 106 -2 106 -87c0 -89 -114 -183 -220 -183c-11 0 -106 2 -106 87c0 89 114 183 220 183z" fill="currentColor"/>
</g>
</a>
<g transform="translate(22.9286, 24.3703)">
<rect x="-0.0611" y="-0.3581" width="0.1222" height="3.6581" ry="0.0364" fill="currentColor"/>
</g>
<a style="color:inherit;" xlink:href="textedit:///Users/marc.mouries/projects/Sheet-Music/Classical/Beethoven_Ode-to-Joy/Ode-to-Joy.ly:25:11:12">
<g transform="translate(28.1045, 23.2703)">
<path transform="scale(0.0040, -0.0040)" d="M220 135c11 0 106 -2 106 -87c0 -89 -114 -183 -220 -183c-11 0 -106 2 -106 87c0 89 114 183 220 183z" fill="currentColor"/>
</g>
</a>
<g transform="translate(28.1656, 24.3703)">
<rect x="-0.0611" y="-0.9081" width="0.1222" height="3.6581" ry="0.0364" fill="currentColor"/>
</g>
<a style="color:inherit;" xlink:href="textedit:///Users/marc.mouries/projects/Sheet-Music/Classical/Beethoven_Ode-to-Joy/Ode-to-Joy.ly:25:13:14">
<g transform="translate(33.3415, 22.7203)">
<path transform="scale(0.0040, -0.0040)" d="M220 135c11 0 106 -2 106 -87c0 -89 -114 -183 -220 -183c-11 0 -106 2 -106 87c0 89 114 183 220 183z" fill="currentColor"/>
</g>
</a>
<g transform="translate(33.4026, 24.3703)">
<rect x="-0.0611" y="-1.4581" width="0.1222" height="3.6581" ry="0.0364" fill="currentColor"/>
</g>
<a style="color:inherit;" xlink:href="textedit:///Users/marc.mouries/projects/Sheet-Music/Classical/Beethoven_Ode-to-Joy/Ode-to-Joy.ly:26:4:5">
<g transform="translate(40.2092, 22.7203)">
<path transform="scale(0.0040, -0.0040)" d="M220 135c11 0 106 -2 106 -87c0 -89 -114 -183 -220 -183c-11 0 -106 2 -106 87c0 89 114 183 220 183z" fill="currentColor"/>
</g>
</a>
<g transform="translate(40.2703, 24.3703)">
<rect x="-0.0611" y="-1.4581" width="0.1222" height="3.6581" ry="0.0364" fill="currentColor"/>
</g>
<a style="color:inherit;" xlink:href="textedit:///Users/marc.mouries/projects/Sheet-Music/Classical/Beethoven_Ode-to-Joy/Ode-to-Joy.ly:26:6:7">
<g transform="translate(45.4462, 23.2703)">
<path transform="scale(0.0040, -0.0040)" d="M220 135c11 0 106 -2 106 -87c0 -89 -114 -183 -220 -183c-11 0 -106 2 -106 87c0 89 114 183 220 183z" fill="currentColor"/>
</g>
</a>
<g transform="translate(45.5074, 24.3703)">
<rect x="-0.0611" y="-0.9081" width="0.1222" height="3.6581" ry="0.0364" fill="currentColor"/>
</g>
<a style="color:inherit;" xlink:href="textedit:///Users/marc.mouries/projects/Sheet-Music/Classical/Beethoven_Ode-to-Joy/Ode-to-Joy.ly:26:8:9">
<g transform="translate(50.6833, 23.8203)">
<path transform="scale(0.0040, -0.0040)" d="M220 135c11 0 106 -2 106 -87c0 -89 -114 -183 -220 -183c-11 0 -106 2 -106 87c0 89 114 183 220 183z" fill="currentColor"/>
</g>
</a>
<g transform="translate(50.7444, 24.3703)">
<rect x="-0.0611" y="-0.3581" width="0.1222" height="3.6581" ry="0.0364" fill="currentColor"/>
</g>
<a style="color:inherit;" xlink:href="textedit:///Users/marc.mouries/projects/Sheet-Music/Classical/Beethoven_Ode-to-Joy/Ode-to-Joy.ly:26:11:12">
<g transform="translate(55.9203, 24.3703)">
<path transform="scale(0.0040, -0.0040)" d="M220 135c11 0 106 -2 106 -87c0 -89 -114 -183 -220 -183c-11 0 -106 2 -106 87c0 89 114 183 220 183z" fill="currentColor"/>
</g>
</a>
<g transform="translate(55.9814, 24.3703)">
<rect x="-0.0611" y="0.1919" width="0.1222" height="3.4748" ry="0.0364" fill="currentColor"/>
</g>
<a style="color:inherit;" xlink:href="textedit:///Users/marc.mouries/projects/Sheet-Music/Classical/Beethoven_Ode-to-Joy/Ode-to-Joy.ly:27:4:5">
<g transform="translate(62.6976, 24.9203)">
<path transform="scale(0.0040, -0.0040)" d="M220 135c11 0 106 -2 106 -87c0 -89 -114 -183 -220 -183c-11 0 -106 2 -106 87c0 89 114 183 220 183z" fill="currentColor"/>
</g>
</a>
<g transform="translate(63.9416, 24.3703)">
<rect x="-0.0611" y="-3.3000" width="0.1222" height="3.6581" ry="0.0364" fill="currentColor"/>
</g>
<a style="color:inherit;" xlink:href="textedit:///Users/marc.mouries/projects/Sheet-Music/Classical/Beethoven_Ode-to-Joy/Ode-to-Joy.ly:27:6:7">
<g transform="translate(67.9346, 24.9203)">
<path transform="scale(0.0040, -0.0040)" d="M220 135c11 0 106 -2 106 -87c0 -89 -114 -183 -220 -183c-11 0 -106 2 -106 87c0 89 114 183 220 183z" fill="currentColor"/>
</g>
</a>
<g transform="translate(69.1787, 24.3703)">
<rect x="-0.0611" y="-3.3000" width="0.1222" height="3.6581" ry="0.0364" fill="currentColor"/>
</g>
<a style="color:inherit;" xlink:href="textedit:///Users/marc.mouries/projects/Sheet-Music/Classical/Beethoven_Ode-to-Joy/Ode-to-Joy.ly:27:8:9">
<g transform="translate(73.1932, 24.3703)">
<path transform="scale(0.0040, -0.0040)" d="M220 135c11 0 106 -2 106 -87c0 -89 -114 -183 -220 -183c-11 0 -106 2 -106 87c0 89 114 183 220 183z" fill="currentColor"/>
</g>
</a>
<g transform="translate(73.2543, 24.3703)">
<rect x="-0.0611" y="0.1919" width="0.1222" height="3.4748" ry="0.0364" fill="currentColor"/>
</g>
<g transform="translate(95.3876, 24.3703)">
<rect x="-0.0611" y="0.2641" width="0.1222" height="3.4025" ry="0.0364" fill="currentColor"/>
</g>
<a style="color:inherit;" xlink:href="textedit:///Users/marc.mouries/projects/Sheet-Music/Classical/Beethoven_Ode-to-Joy/Ode-to-Joy.ly:27:10:11">
<g transform="translate(78.4302, 23.8203)">
<path transform="scale(0.0040, -0.0040)" d="M220 135c11 0 106 -2 106 -87c0 -89 -114 -183 -220 -183c-11 0 -106 2 -106 87c0 89 114 183 220 183z" fill="currentColor"/>
</g>
</a>
<g transform="translate(78.4913, 24.3703)">
<rect x="-0.0611" y="-0.3581" width="0.1222" height="3.6581" ry="0.0364" fill="currentColor"/>
</g>
<a style="color:inherit;" xlink:href="textedit:///Users/marc.mouries/projects/Sheet-Music/Classical/Beethoven_Ode-to-Joy/Ode-to-Joy.ly:28:12:13">
<g transform="translate(95.3265, 24.3703)">
<path transform="scale(0.0040, -0.0040)" d="M315 66c0 23 -18 42 -42 42c-40 0 -206 -113 -234 -146c-7 -8 -10 -18 -10 -28c0 -23 18 -42 42 -42c40 0 206 113 234 146c7 8 10 18 10 28zM263 135c39 0 81 -13 81 -69c0 -27 -18 -112 -76 -151c-22 -15 -86 -50 -188 -50c-39 0 -80 13 -80 69c0 27 17 112 75 151
c22 15 86 50 188 50z" fill="currentColor"/>
</g>
</a>
<a style="color:inherit;" xlink:href="textedit:///Users/marc.mouries/projects/Sheet-Music/Classical/Beethoven_Ode-to-Joy/Ode-to-Joy.ly:28:4:5">
<g transform="translate(85.3065, 23.8203)">
<path transform="scale(0.0040, -0.0040)" d="M220 135c11 0 106 -2 106 -87c0 -89 -114 -183 -220 -183c-11 0 -106 2 -106 87c0 89 114 183 220 183z" fill="currentColor"/>
</g>
</a>
<g transform="translate(87.0653, 23.8203)">
<path transform="scale(0.0040, -0.0040)" d="M0 0c0 31 26 57 57 57s56 -26 56 -57s-25 -57 -56 -57s-57 26 -57 57z" fill="currentColor"/>
</g>
<g transform="translate(85.3676, 24.3703)">
<rect x="-0.0611" y="-0.3581" width="0.1222" height="3.6581" ry="0.0364" fill="currentColor"/>
</g>
<a style="color:inherit;" xlink:href="textedit:///Users/marc.mouries/projects/Sheet-Music/Classical/Beethoven_Ode-to-Joy/Ode-to-Joy.ly:28:9:10">
<g transform="translate(92.1689, 24.3703)">
<path transform="scale(0.0040, -0.0040)" d="M220 135c11 0 106 -2 106 -87c0 -89 -114 -183 -220 -183c-11 0 -106 2 -106 87c0 89 114 183 220 183z" fill="currentColor"/>
</g>
</a>
<g transform="translate(92.2301, 24.3703)">
<rect x="-0.0611" y="0.1919" width="0.1222" height="3.5206" ry="0.0364" fill="currentColor"/>
</g>
<g transform="translate(92.2912, 28.0465)">
<path transform="scale(0.0040, -0.0040)" d="M0 0h-15v250h15c98 58 226 148 226 259c0 57 -15 113 -40 164c-3 15 10 25 22 25c7 0 15 -3 19 -11c25 -56 40 -116 40 -178c0 -203 -267 -306 -267 -509z" fill="currentColor"/>
</g>
<g transform="translate(5.1732, 42.5703)">
<line stroke-linejoin="round" stroke-linecap="round" stroke-width="0.0940" stroke="currentColor" x1="0.0470" y1="0" x2="98.2443" y2="0"/>
</g>
<g transform="translate(5.1732, 41.4703)">
<line stroke-linejoin="round" stroke-linecap="round" stroke-width="0.0940" stroke="currentColor" x1="0.0470" y1="0" x2="98.2443" y2="0"/>
</g>
<g transform="translate(5.1732, 40.3703)">
<line stroke-linejoin="round" stroke-linecap="round" stroke-width="0.0940" stroke="currentColor" x1="0.0470" y1="0" x2="98.2443" y2="0"/>
</g>
<g transform="translate(5.1732, 39.2703)">
<line stroke-linejoin="round" stroke-linecap="round" stroke-width="0.0940" stroke="currentColor" x1="0.0470" y1="0" x2="98.2443" y2="0"/>
</g>
<g transform="translate(5.1732, 38.1703)">
<line stroke-linejoin="round" stroke-linecap="round" stroke-width="0.0940" stroke="currentColor" x1="0.0470" y1="0" x2="98.2443" y2="0"/>
</g>
<g transform="translate(103.2859, 40.3703)">
<rect x="0.0000" y="-2.2000" width="0.1786" height="4.4000" ry="0.0000" fill="currentColor"/>
</g>
<g transform="translate(82.4106, 40.3703)">
<rect x="0.0000" y="-2.2000" width="0.1786" height="4.4000" ry="0.0000" fill="currentColor"/>
</g>
<g transform="translate(59.5052, 40.3703)">
<rect x="0.0000" y="-2.2000" width="0.1786" height="4.4000" ry="0.0000" fill="currentColor"/>
</g>
<g transform="translate(36.3882, 40.3703)">
<rect x="0.0000" y="-2.2000" width="0.1786" height="4.4000" ry="0.0000" fill="currentColor"/>
</g>
<g transform="translate(5.9732, 41.4703)">
<path transform="scale(0.0040, -0.0040)" d="M267 -593l-1 -41h-5c-108 0 -196 88 -196 196c0 58 54 104 113 104c54 0 95 -48 95 -104c0 -52 -43 -95 -95 -95c-11 0 -23 3 -34 8c26 -40 69 -68 119 -68h4zM644 2c0 -112 -73 -212 -180 -245c3 -35 5 -71 5 -107c0 -19 -1 -38 -2 -57c-7 -119 -87 -224 -201 -227l1 41
c43 1 161 25 161 246c0 31 -1 63 -4 94c-5 -1 -44 -8 -89 -8c-193 0 -333 179 -333 373c0 177 132 307 249 441c-28 95 -50 169 -50 345c0 116 56 226 150 294c5 4 13 3 18 -1c67 -81 132 -245 132 -358c0 -143 -86 -255 -181 -364c20 -69 38 -138 55 -208c2 0 7 1 14 1
c155 0 255 -128 255 -260zM460 -204c70 24 115 91 115 165c0 91 -68 182 -176 192c19 -89 48 -246 61 -357zM73 30c0 -146 141 -250 265 -250c1 0 47 0 82 6c-7 63 -29 202 -64 366c-79 -9 -124 -62 -124 -120c0 -44 26 -91 82 -123c5 -4 6 -10 6 -15c0 -11 -9 -21 -21 -21
c-15 0 -125 61 -125 186c0 88 58 173 159 196c-14 59 -30 119 -46 177c-107 -121 -214 -242 -214 -402zM431 915c0 34 0 66 -21 132c-99 -49 -162 -150 -162 -260c0 -56 12 -119 35 -197c81 97 148 199 148 325z" fill="currentColor"/>
</g>
<g transform="translate(9.4732, 38.1703)">
<path transform="scale(0.0040, -0.0040)" d="M0 120c0 8 5 14 12 17l47 17v160c0 10 8 18 18 18s18 -8 18 -18v-148l85 31v160c0 10 8 18 18 18s18 -8 18 -18v-148l35 13c2 1 4 1 6 1c9 0 18 -8 18 -18v-62c0 -8 -5 -14 -12 -17l-47 -17v-162l35 13c2 1 4 1 6 1c9 0 18 -8 18 -18v-63c0 -8 -5 -14 -12 -17l-47 -17
v-160c0 -10 -8 -18 -18 -18s-18 8 -18 18v148l-85 -31v-160c0 -10 -8 -18 -18 -18s-18 8 -18 18v148l-35 -13c-2 -1 -4 -1 -6 -1c-9 0 -18 8 -18 18v62c0 8 5 14 12 17l47 17v162l-35 -13c-2 -1 -4 -1 -6 -1c-9 0 -18 8 -18 18v63zM180 96l-85 -30v-162l85 30v162z" fill="currentColor"/>
</g>
<g transform="translate(10.5732, 39.8203)">
<path transform="scale(0.0040, -0.0040)" d="M0 120c0 8 5 14 12 17l47 17v160c0 10 8 18 18 18s18 -8 18 -18v-148l85 31v160c0 10 8 18 18 18s18 -8 18 -18v-148l35 13c2 1 4 1 6 1c9 0 18 -8 18 -18v-62c0 -8 -5 -14 -12 -17l-47 -17v-162l35 13c2 1 4 1 6 1c9 0 18 -8 18 -18v-63c0 -8 -5 -14 -12 -17l-47 -17
v-160c0 -10 -8 -18 -18 -18s-18 8 -18 18v148l-85 -31v-160c0 -10 -8 -18 -18 -18s-18 8 -18 18v148l-35 -13c-2 -1 -4 -1 -6 -1c-9 0 -18 8 -18 18v62c0 8 5 14 12 17l47 17v162l-35 -13c-2 -1 -4 -1 -6 -1c-9 0 -18 8 -18 18v63zM180 96l-85 -30v-162l85 30v162z" fill="currentColor"/>
</g>
<g transform="translate(11.6732, 37.6203)">
<path transform="scale(0.0040, -0.0040)" d="M0 120c0 8 5 14 12 17l47 17v160c0 10 8 18 18 18s18 -8 18 -18v-148l85 31v160c0 10 8 18 18 18s18 -8 18 -18v-148l35 13c2 1 4 1 6 1c9 0 18 -8 18 -18v-62c0 -8 -5 -14 -12 -17l-47 -17v-162l35 13c2 1 4 1 6 1c9 0 18 -8 18 -18v-63c0 -8 -5 -14 -12 -17l-47 -17
v-160c0 -10 -8 -18 -18 -18s-18 8 -18 18v148l-85 -31v-160c0 -10 -8 -18 -18 -18s-18 8 -18 18v148l-35 -13c-2 -1 -4 -1 -6 -1c-9 0 -18 8 -18 18v62c0 8 5 14 12 17l47 17v162l-35 -13c-2 -1 -4 -1 -6 -1c-9 0 -18 8 -18 18v63zM180 96l-85 -30v-162l85 30v162z" fill="currentColor"/>
</g>
<g transform="translate(4.3041, 37.1029)">
<text font-family="serif" font-size="1.7465" text-anchor="start" fill="currentColor">
<tspan>5</tspan>
</text>
</g>
<a style="color:inherit;" xlink:href="textedit:///Users/marc.mouries/projects/Sheet-Music/Classical/Beethoven_Ode-to-Joy/Ode-to-Joy.ly:30:4:5">
<g transform="translate(15.2733, 39.8203)">
<path transform="scale(0.0040, -0.0040)" d="M220 135c11 0 106 -2 106 -87c0 -89 -114 -183 -220 -183c-11 0 -106 2 -106 87c0 89 114 183 220 183z" fill="currentColor"/>
</g>
</a>
<g transform="translate(15.3344, 40.3703)">
<rect x="-0.0611" y="-0.3581" width="0.1222" height="3.6581" ry="0.0364" fill="currentColor"/>
</g>
<a style="color:inherit;" xlink:href="textedit:///Users/marc.mouries/projects/Sheet-Music/Classical/Beethoven_Ode-to-Joy/Ode-to-Joy.ly:30:8:9">
<g transform="translate(20.6114, 39.8203)">
<path transform="scale(0.0040, -0.0040)" d="M220 135c11 0 106 -2 106 -87c0 -89 -114 -183 -220 -183c-11 0 -106 2 -106 87c0 89 114 183 220 183z" fill="currentColor"/>
</g>
</a>
<g transform="translate(20.6725, 40.3703)">
<rect x="-0.0611" y="-0.3581" width="0.1222" height="3.6581" ry="0.0364" fill="currentColor"/>
</g>
<a style="color:inherit;" xlink:href="textedit:///Users/marc.mouries/projects/Sheet-Music/Classical/Beethoven_Ode-to-Joy/Ode-to-Joy.ly:30:11:12">
<g transform="translate(25.9495, 39.2703)">
<path transform="scale(0.0040, -0.0040)" d="M220 135c11 0 106 -2 106 -87c0 -89 -114 -183 -220 -183c-11 0 -106 2 -106 87c0 89 114 183 220 183z" fill="currentColor"/>
</g>
</a>
<g transform="translate(26.0106, 40.3703)">
<rect x="-0.0611" y="-0.9081" width="0.1222" height="3.6581" ry="0.0364" fill="currentColor"/>
</g>
<a style="color:inherit;" xlink:href="textedit:///Users/marc.mouries/projects/Sheet-Music/Classical/Beethoven_Ode-to-Joy/Ode-to-Joy.ly:30:13:14">
<g transform="translate(31.2876, 38.7203)">
<path transform="scale(0.0040, -0.0040)" d="M220 135c11 0 106 -2 106 -87c0 -89 -114 -183 -220 -183c-11 0 -106 2 -106 87c0 89 114 183 220 183z" fill="currentColor"/>
</g>
</a>
<g transform="translate(31.3487, 40.3703)">
<rect x="-0.0611" y="-1.4581" width="0.1222" height="3.6581" ry="0.0364" fill="currentColor"/>
</g>
<a style="color:inherit;" xlink:href="textedit:///Users/marc.mouries/projects/Sheet-Music/Classical/Beethoven_Ode-to-Joy/Ode-to-Joy.ly:31:4:5">
<g transform="translate(38.2832, 38.7203)">
<path transform="scale(0.0040, -0.0040)" d="M220 135c11 0 106 -2 106 -87c0 -89 -114 -183 -220 -183c-11 0 -106 2 -106 87c0 89 114 183 220 183z" fill="currentColor"/>
</g>
</a>
<g transform="translate(38.3443, 40.3703)">
<rect x="-0.0611" y="-1.4581" width="0.1222" height="3.6581" ry="0.0364" fill="currentColor"/>
</g>
<a style="color:inherit;" xlink:href="textedit:///Users/marc.mouries/projects/Sheet-Music/Classical/Beethoven_Ode-to-Joy/Ode-to-Joy.ly:31:6:7">
<g transform="translate(43.6213, 39.2703)">
<path transform="scale(0.0040, -0.0040)" d="M220 135c11 0 106 -2 106 -87c0 -89 -114 -183 -220 -183c-11 0 -106 2 -106 87c0 89 114 183 220 183z" fill="currentColor"/>
</g>
</a>
<g transform="translate(43.6824, 40.3703)">
<rect x="-0.0611" y="-0.9081" width="0.1222" height="3.6581" ry="0.0364" fill="currentColor"/>
</g>
<a style="color:inherit;" xlink:href="textedit:///Users/marc.mouries/projects/Sheet-Music/Classical/Beethoven_Ode-to-Joy/Ode-to-Joy.ly:31:8:9">
<g transform="translate(48.9594, 39.8203)">
<path transform="scale(0.0040, -0.0040)" d="M220 135c11 0 106 -2 106 -87c0 -89 -114 -183 -220 -183c-11 0 -106 2 -106 87c0 89 114 183 220 183z" fill="currentColor"/>
</g>
</a>
<g transform="translate(49.0205, 40.3703)">
<rect x="-0.0611" y="-0.3581" width="0.1222" height="3.6581" ry="0.0364" fill="currentColor"/>
</g>
<a style="color:inherit;" xlink:href="textedit:///Users/marc.mouries/projects/Sheet-Music/Classical/Beethoven_Ode-to-Joy/Ode-to-Joy.ly:31:11:12">
<g transform="translate(54.2975, 40.3703)">
<path transform="scale(0.0040, -0.0040)" d="M220 135c11 0 106 -2 106 -87c0 -89 -114 -183 -220 -183c-11 0 -106 2 -106 87c0 89 114 183 220 183z" fill="currentColor"/>
</g>
</a>
<g transform="translate(54.3586, 40.3703)">
<rect x="-0.0611" y="0.1919" width="0.1222" height="3.4748" ry="0.0364" fill="currentColor"/>
</g>
<a style="color:inherit;" xlink:href="textedit:///Users/marc.mouries/projects/Sheet-Music/Classical/Beethoven_Ode-to-Joy/Ode-to-Joy.ly:32:4:5">
<g transform="translate(61.2026, 40.9203)">
<path transform="scale(0.0040, -0.0040)" d="M220 135c11 0 106 -2 106 -87c0 -89 -114 -183 -220 -183c-11 0 -106 2 -106 87c0 89 114 183 220 183z" fill="currentColor"/>
</g>
</a>
<g transform="translate(62.4467, 40.3703)">
<rect x="-0.0611" y="-3.3000" width="0.1222" height="3.6581" ry="0.0364" fill="currentColor"/>
</g>
<a style="color:inherit;" xlink:href="textedit:///Users/marc.mouries/projects/Sheet-Music/Classical/Beethoven_Ode-to-Joy/Ode-to-Joy.ly:32:6:7">
<g transform="translate(66.5408, 40.9203)">
<path transform="scale(0.0040, -0.0040)" d="M220 135c11 0 106 -2 106 -87c0 -89 -114 -183 -220 -183c-11 0 -106 2 -106 87c0 89 114 183 220 183z" fill="currentColor"/>
</g>
</a>
<g transform="translate(67.7848, 40.3703)">
<rect x="-0.0611" y="-3.3000" width="0.1222" height="3.6581" ry="0.0364" fill="currentColor"/>
</g>
<a style="color:inherit;" xlink:href="textedit:///Users/marc.mouries/projects/Sheet-Music/Classical/Beethoven_Ode-to-Joy/Ode-to-Joy.ly:32:8:9">
<g transform="translate(71.9005, 40.3703)">
<path transform="scale(0.0040, -0.0040)" d="M220 135c11 0 106 -2 106 -87c0 -89 -114 -183 -220 -183c-11 0 -106 2 -106 87c0 89 114 183 220 183z" fill="currentColor"/>
</g>
</a>
<g transform="translate(71.9616, 40.3703)">
<rect x="-0.0611" y="0.1919" width="0.1222" height="3.4748" ry="0.0364" fill="currentColor"/>
</g>
<g transform="translate(96.1804, 40.3703)">
<rect x="-0.0611" y="-3.3000" width="0.1222" height="3.5859" ry="0.0364" fill="currentColor"/>
</g>
<a style="color:inherit;" xlink:href="textedit:///Users/marc.mouries/projects/Sheet-Music/Classical/Beethoven_Ode-to-Joy/Ode-to-Joy.ly:32:10:11">
<g transform="translate(77.2386, 39.8203)">
<path transform="scale(0.0040, -0.0040)" d="M220 135c11 0 106 -2 106 -87c0 -89 -114 -183 -220 -183c-11 0 -106 2 -106 87c0 89 114 183 220 183z" fill="currentColor"/>
</g>
</a>
<g transform="translate(77.2997, 40.3703)">
<rect x="-0.0611" y="-0.3581" width="0.1222" height="3.6581" ry="0.0364" fill="currentColor"/>
</g>
<a style="color:inherit;" xlink:href="textedit:///Users/marc.mouries/projects/Sheet-Music/Classical/Beethoven_Ode-to-Joy/Ode-to-Joy.ly:33:11:12">
<g transform="translate(94.8669, 40.9203)">
<path transform="scale(0.0040, -0.0040)" d="M315 66c0 23 -18 42 -42 42c-40 0 -206 -113 -234 -146c-7 -8 -10 -18 -10 -28c0 -23 18 -42 42 -42c40 0 206 113 234 146c7 8 10 18 10 28zM263 135c39 0 81 -13 81 -69c0 -27 -18 -112 -76 -151c-22 -15 -86 -50 -188 -50c-39 0 -80 13 -80 69c0 27 17 112 75 151
c22 15 86 50 188 50z" fill="currentColor"/>
</g>
</a>
<a style="color:inherit;" xlink:href="textedit:///Users/marc.mouries/projects/Sheet-Music/Classical/Beethoven_Ode-to-Joy/Ode-to-Joy.ly:33:4:5">
<g transform="translate(84.2113, 40.3703)">
<path transform="scale(0.0040, -0.0040)" d="M220 135c11 0 106 -2 106 -87c0 -89 -114 -183 -220 -183c-11 0 -106 2 -106 87c0 89 114 183 220 183z" fill="currentColor"/>
</g>
</a>
<g transform="translate(85.9701, 39.8203)">
<path transform="scale(0.0040, -0.0040)" d="M0 0c0 31 26 57 57 57s56 -26 56 -57s-25 -57 -56 -57s-57 26 -57 57z" fill="currentColor"/>
</g>
<g transform="translate(84.2724, 40.3703)">
<rect x="-0.0611" y="0.1919" width="0.1222" height="3.4748" ry="0.0364" fill="currentColor"/>
</g>
<a style="color:inherit;" xlink:href="textedit:///Users/marc.mouries/projects/Sheet-Music/Classical/Beethoven_Ode-to-Joy/Ode-to-Joy.ly:33:8:9">
<g transform="translate(91.1950, 40.9203)">
<path transform="scale(0.0040, -0.0040)" d="M220 135c11 0 106 -2 106 -87c0 -89 -114 -183 -220 -183c-11 0 -106 2 -106 87c0 89 114 183 220 183z" fill="currentColor"/>
</g>
</a>
<g transform="translate(92.4391, 40.3703)">
<rect x="-0.0611" y="-3.3000" width="0.1222" height="3.6581" ry="0.0364" fill="currentColor"/>
</g>
<g transform="translate(92.5002, 37.1067)">
<path transform="scale(0.0040, -0.0040)" d="M0 -250h-15v250h15c0 -197 207 -337 207 -534c0 -71 -15 -141 -41 -207c-4 -8 -12 -11 -19 -11c-12 0 -25 11 -22 26c26 61 41 126 41 192c0 104 -94 209 -166 284z" fill="currentColor"/>
</g>
<g transform="translate(5.1732, 58.5703)">
<line stroke-linejoin="round" stroke-linecap="round" stroke-width="0.0940" stroke="currentColor" x1="0.0470" y1="0" x2="98.2443" y2="0"/>
</g>
<g transform="translate(5.1732, 57.4703)">
<line stroke-linejoin="round" stroke-linecap="round" stroke-width="0.0940" stroke="currentColor" x1="0.0470" y1="0" x2="98.2443" y2="0"/>
</g>
<g transform="translate(5.1732, 56.3703)">
<line stroke-linejoin="round" stroke-linecap="round" stroke-width="0.0940" stroke="currentColor" x1="0.0470" y1="0" x2="98.2443" y2="0"/>
</g>
<g transform="translate(5.1732, 55.2703)">
<line stroke-linejoin="round" stroke-linecap="round" stroke-width="0.0940" stroke="currentColor" x1="0.0470" y1="0" x2="98.2443" y2="0"/>
</g>
<g transform="translate(5.1732, 54.1703)">
<line stroke-linejoin="round" stroke-linecap="round" stroke-width="0.0940" stroke="currentColor" x1="0.0470" y1="0" x2="98.2443" y2="0"/>
</g>
<g transform="translate(103.2859, 56.3703)">
<rect x="0.0000" y="-2.2000" width="0.1786" height="4.4000" ry="0.0000" fill="currentColor"/>
</g>
<g transform="translate(83.2162, 56.3703)">
<rect x="0.0000" y="-2.2000" width="0.1786" height="4.4000" ry="0.0000" fill="currentColor"/>
</g>
<g transform="translate(59.7570, 56.3703)">
<rect x="0.0000" y="-2.2000" width="0.1786" height="4.4000" ry="0.0000" fill="currentColor"/>
</g>
<g transform="translate(36.0942, 56.3703)">
<rect x="0.0000" y="-2.2000" width="0.1786" height="4.4000" ry="0.0000" fill="currentColor"/>
</g>
<a style="color:inherit;" xlink:href="textedit:///Users/marc.mouries/projects/Sheet-Music/Classical/Beethoven_Ode-to-Joy/Ode-to-Joy.ly:37:10:11">
<g transform="translate(66.7046, 58.7873)">
<polygon stroke-linejoin="round" stroke-linecap="round" stroke-width="0.0727" fill="currentColor" stroke="currentColor" points="3.2199 -0.4446 3.2199 0.0106 0.0364 0.2276 0.0364 -0.2276"/>
</g>
</a>
<g transform="translate(5.9732, 57.4703)">
<path transform="scale(0.0040, -0.0040)" d="M267 -593l-1 -41h-5c-108 0 -196 88 -196 196c0 58 54 104 113 104c54 0 95 -48 95 -104c0 -52 -43 -95 -95 -95c-11 0 -23 3 -34 8c26 -40 69 -68 119 -68h4zM644 2c0 -112 -73 -212 -180 -245c3 -35 5 -71 5 -107c0 -19 -1 -38 -2 -57c-7 -119 -87 -224 -201 -227l1 41
c43 1 161 25 161 246c0 31 -1 63 -4 94c-5 -1 -44 -8 -89 -8c-193 0 -333 179 -333 373c0 177 132 307 249 441c-28 95 -50 169 -50 345c0 116 56 226 150 294c5 4 13 3 18 -1c67 -81 132 -245 132 -358c0 -143 -86 -255 -181 -364c20 -69 38 -138 55 -208c2 0 7 1 14 1
c155 0 255 -128 255 -260zM460 -204c70 24 115 91 115 165c0 91 -68 182 -176 192c19 -89 48 -246 61 -357zM73 30c0 -146 141 -250 265 -250c1 0 47 0 82 6c-7 63 -29 202 -64 366c-79 -9 -124 -62 -124 -120c0 -44 26 -91 82 -123c5 -4 6 -10 6 -15c0 -11 -9 -21 -21 -21
c-15 0 -125 61 -125 186c0 88 58 173 159 196c-14 59 -30 119 -46 177c-107 -121 -214 -242 -214 -402zM431 915c0 34 0 66 -21 132c-99 -49 -162 -150 -162 -260c0 -56 12 -119 35 -197c81 97 148 199 148 325z" fill="currentColor"/>
</g>
<g transform="translate(9.4732, 54.1703)">
<path transform="scale(0.0040, -0.0040)" d="M0 120c0 8 5 14 12 17l47 17v160c0 10 8 18 18 18s18 -8 18 -18v-148l85 31v160c0 10 8 18 18 18s18 -8 18 -18v-148l35 13c2 1 4 1 6 1c9 0 18 -8 18 -18v-62c0 -8 -5 -14 -12 -17l-47 -17v-162l35 13c2 1 4 1 6 1c9 0 18 -8 18 -18v-63c0 -8 -5 -14 -12 -17l-47 -17
v-160c0 -10 -8 -18 -18 -18s-18 8 -18 18v148l-85 -31v-160c0 -10 -8 -18 -18 -18s-18 8 -18 18v148l-35 -13c-2 -1 -4 -1 -6 -1c-9 0 -18 8 -18 18v62c0 8 5 14 12 17l47 17v162l-35 -13c-2 -1 -4 -1 -6 -1c-9 0 -18 8 -18 18v63zM180 96l-85 -30v-162l85 30v162z" fill="currentColor"/>
</g>
<g transform="translate(10.5732, 55.8203)">
<path transform="scale(0.0040, -0.0040)" d="M0 120c0 8 5 14 12 17l47 17v160c0 10 8 18 18 18s18 -8 18 -18v-148l85 31v160c0 10 8 18 18 18s18 -8 18 -18v-148l35 13c2 1 4 1 6 1c9 0 18 -8 18 -18v-62c0 -8 -5 -14 -12 -17l-47 -17v-162l35 13c2 1 4 1 6 1c9 0 18 -8 18 -18v-63c0 -8 -5 -14 -12 -17l-47 -17
v-160c0 -10 -8 -18 -18 -18s-18 8 -18 18v148l-85 -31v-160c0 -10 -8 -18 -18 -18s-18 8 -18 18v148l-35 -13c-2 -1 -4 -1 -6 -1c-9 0 -18 8 -18 18v62c0 8 5 14 12 17l47 17v162l-35 -13c-2 -1 -4 -1 -6 -1c-9 0 -18 8 -18 18v63zM180 96l-85 -30v-162l85 30v162z" fill="currentColor"/>
</g>
<g transform="translate(11.6732, 53.6203)">
<path transform="scale(0.0040, -0.0040)" d="M0 120c0 8 5 14 12 17l47 17v160c0 10 8 18 18 18s18 -8 18 -18v-148l85 31v160c0 10 8 18 18 18s18 -8 18 -18v-148l35 13c2 1 4 1 6 1c9 0 18 -8 18 -18v-62c0 -8 -5 -14 -12 -17l-47 -17v-162l35 13c2 1 4 1 6 1c9 0 18 -8 18 -18v-63c0 -8 -5 -14 -12 -17l-47 -17
v-160c0 -10 -8 -18 -18 -18s-18 8 -18 18v148l-85 -31v-160c0 -10 -8 -18 -18 -18s-18 8 -18 18v148l-35 -13c-2 -1 -4 -1 -6 -1c-9 0 -18 8 -18 18v62c0 8 5 14 12 17l47 17v162l-35 -13c-2 -1 -4 -1 -6 -1c-9 0 -18 8 -18 18v63zM180 96l-85 -30v-162l85 30v162z" fill="currentColor"/>
</g>
<g transform="translate(4.3041, 53.0994)">
<text font-family="serif" font-size="1.7465" text-anchor="start" fill="currentColor">
<tspan>9</tspan>
</text>
</g>
<a style="color:inherit;" xlink:href="textedit:///Users/marc.mouries/projects/Sheet-Music/Classical/Beethoven_Ode-to-Joy/Ode-to-Joy.ly:36:11:12">
<g transform="translate(43.0419, 56.3703)">
<path stroke-width="0.0752" stroke-linejoin="round" stroke-linecap="round" stroke="currentColor" fill="currentColor" d="M0.5558 -1.6418C1.1992 -2.5948 2.6969 -2.9364 3.6898 -2.3568L3.6898 -2.3568C2.7219 -2.8264 1.2242 -2.4847 0.5558 -1.6418z"/>
</g>
</a>
<a style="color:inherit;" xlink:href="textedit:///Users/marc.mouries/projects/Sheet-Music/Classical/Beethoven_Ode-to-Joy/Ode-to-Joy.ly:35:2:3">
<g transform="translate(15.2733, 56.3703)">
<path transform="scale(0.0040, -0.0040)" d="M220 135c11 0 106 -2 106 -87c0 -89 -114 -183 -220 -183c-11 0 -106 2 -106 87c0 89 114 183 220 183z" fill="currentColor"/>
</g>
</a>
<g transform="translate(15.3344, 56.3703)">
<rect x="-0.0611" y="0.1919" width="0.1222" height="3.4748" ry="0.0364" fill="currentColor"/>
</g>
<a style="color:inherit;" xlink:href="textedit:///Users/marc.mouries/projects/Sheet-Music/Classical/Beethoven_Ode-to-Joy/Ode-to-Joy.ly:36:10:11">
<g transform="translate(43.0419, 58.7873)">
<polygon stroke-linejoin="round" stroke-linecap="round" stroke-width="0.0727" fill="currentColor" stroke="currentColor" points="3.2199 -0.4446 3.2199 0.0106 0.0364 0.2276 0.0364 -0.2276"/>
</g>
</a>
<a style="color:inherit;" xlink:href="textedit:///Users/marc.mouries/projects/Sheet-Music/Classical/Beethoven_Ode-to-Joy/Ode-to-Joy.ly:35:5:6">
<g transform="translate(20.4602, 56.3703)">
<path transform="scale(0.0040, -0.0040)" d="M220 135c11 0 106 -2 106 -87c0 -89 -114 -183 -220 -183c-11 0 -106 2 -106 87c0 89 114 183 220 183z" fill="currentColor"/>
</g>
</a>
<g transform="translate(20.5213, 56.3703)">
<rect x="-0.0611" y="0.1919" width="0.1222" height="3.4748" ry="0.0364" fill="currentColor"/>
</g>
<a style="color:inherit;" xlink:href="textedit:///Users/marc.mouries/projects/Sheet-Music/Classical/Beethoven_Ode-to-Joy/Ode-to-Joy.ly:35:7:8">
<g transform="translate(25.6472, 55.8203)">
<path transform="scale(0.0040, -0.0040)" d="M220 135c11 0 106 -2 106 -87c0 -89 -114 -183 -220 -183c-11 0 -106 2 -106 87c0 89 114 183 220 183z" fill="currentColor"/>
</g>
</a>
<g transform="translate(25.7083, 56.3703)">
<rect x="-0.0611" y="-0.3581" width="0.1222" height="3.6581" ry="0.0364" fill="currentColor"/>
</g>
<a style="color:inherit;" xlink:href="textedit:///Users/marc.mouries/projects/Sheet-Music/Classical/Beethoven_Ode-to-Joy/Ode-to-Joy.ly:35:10:11">
<g transform="translate(30.7412, 56.9203)">
<path transform="scale(0.0040, -0.0040)" d="M220 135c11 0 106 -2 106 -87c0 -89 -114 -183 -220 -183c-11 0 -106 2 -106 87c0 89 114 183 220 183z" fill="currentColor"/>
</g>
</a>
<g transform="translate(31.9852, 56.3703)">
<rect x="-0.0611" y="-3.3000" width="0.1222" height="3.6581" ry="0.0364" fill="currentColor"/>
</g>
<a style="color:inherit;" xlink:href="textedit:///Users/marc.mouries/projects/Sheet-Music/Classical/Beethoven_Ode-to-Joy/Ode-to-Joy.ly:36:4:5">
<g transform="translate(37.8549, 56.3703)">
<path transform="scale(0.0040, -0.0040)" d="M220 135c11 0 106 -2 106 -87c0 -89 -114 -183 -220 -183c-11 0 -106 2 -106 87c0 89 114 183 220 183z" fill="currentColor"/>
</g>
</a>
<g transform="translate(37.9160, 56.3703)">
<rect x="-0.0611" y="0.1919" width="0.1222" height="3.4748" ry="0.0364" fill="currentColor"/>
</g>
<a style="color:inherit;" xlink:href="textedit:///Users/marc.mouries/projects/Sheet-Music/Classical/Beethoven_Ode-to-Joy/Ode-to-Joy.ly:36:7:8">
<g transform="translate(43.0419, 55.8203)">
<path transform="scale(0.0040, -0.0040)" d="M220 135c11 0 106 -2 106 -87c0 -89 -114 -183 -220 -183c-11 0 -106 2 -106 87c0 89 114 183 220 183z" fill="currentColor"/>
</g>
</a>
<g transform="translate(43.1030, 56.3703)">
<rect x="-0.0611" y="-0.3581" width="0.1222" height="2.7711" ry="0.0364" fill="currentColor"/>
</g>
<a style="color:inherit;" xlink:href="textedit:///Users/marc.mouries/projects/Sheet-Music/Classical/Beethoven_Ode-to-Joy/Ode-to-Joy.ly:36:13:14">
<g transform="translate(46.1759, 55.2703)">
<path transform="scale(0.0040, -0.0040)" d="M220 135c11 0 106 -2 106 -87c0 -89 -114 -183 -220 -183c-11 0 -106 2 -106 87c0 89 114 183 220 183z" fill="currentColor"/>
</g>
</a>
<g transform="translate(46.2370, 56.3703)">
<rect x="-0.0611" y="-0.9081" width="0.1222" height="3.1122" ry="0.0364" fill="currentColor"/>
</g>
<a style="color:inherit;" xlink:href="textedit:///Users/marc.mouries/projects/Sheet-Music/Classical/Beethoven_Ode-to-Joy/Ode-to-Joy.ly:36:17:18">
<g transform="translate(49.3099, 55.8203)">
<path transform="scale(0.0040, -0.0040)" d="M220 135c11 0 106 -2 106 -87c0 -89 -114 -183 -220 -183c-11 0 -106 2 -106 87c0 89 114 183 220 183z" fill="currentColor"/>
</g>
</a>
<g transform="translate(49.3710, 56.3703)">
<rect x="-0.0611" y="-0.3581" width="0.1222" height="3.6581" ry="0.0364" fill="currentColor"/>
</g>
<a style="color:inherit;" xlink:href="textedit:///Users/marc.mouries/projects/Sheet-Music/Classical/Beethoven_Ode-to-Joy/Ode-to-Joy.ly:36:21:22">
<g transform="translate(54.4039, 56.9203)">
<path transform="scale(0.0040, -0.0040)" d="M220 135c11 0 106 -2 106 -87c0 -89 -114 -183 -220 -183c-11 0 -106 2 -106 87c0 89 114 183 220 183z" fill="currentColor"/>
</g>
</a>
<g transform="translate(55.6479, 56.3703)">
<rect x="-0.0611" y="-3.3000" width="0.1222" height="3.6581" ry="0.0364" fill="currentColor"/>
</g>
<a style="color:inherit;" xlink:href="textedit:///Users/marc.mouries/projects/Sheet-Music/Classical/Beethoven_Ode-to-Joy/Ode-to-Joy.ly:37:11:12">
<g transform="translate(66.7046, 56.3703)">
<path stroke-width="0.0752" stroke-linejoin="round" stroke-linecap="round" stroke="currentColor" fill="currentColor" d="M0.5558 -1.6418C1.1992 -2.5948 2.6969 -2.9364 3.6898 -2.3568L3.6898 -2.3568C2.7219 -2.8264 1.2242 -2.4847 0.5558 -1.6418z"/>
</g>
</a>
<a style="color:inherit;" xlink:href="textedit:///Users/marc.mouries/projects/Sheet-Music/Classical/Beethoven_Ode-to-Joy/Ode-to-Joy.ly:37:4:5">
<g transform="translate(61.5176, 56.3703)">
<path transform="scale(0.0040, -0.0040)" d="M220 135c11 0 106 -2 106 -87c0 -89 -114 -183 -220 -183c-11 0 -106 2 -106 87c0 89 114 183 220 183z" fill="currentColor"/>
</g>
</a>
<g transform="translate(61.5788, 56.3703)">
<rect x="-0.0611" y="0.1919" width="0.1222" height="3.4748" ry="0.0364" fill="currentColor"/>
</g>
<a style="color:inherit;" xlink:href="textedit:///Users/marc.mouries/projects/Sheet-Music/Classical/Beethoven_Ode-to-Joy/Ode-to-Joy.ly:37:7:8">
<g transform="translate(66.7046, 55.8203)">
<path transform="scale(0.0040, -0.0040)" d="M220 135c11 0 106 -2 106 -87c0 -89 -114 -183 -220 -183c-11 0 -106 2 -106 87c0 89 114 183 220 183z" fill="currentColor"/>
</g>
</a>
<g transform="translate(66.7657, 56.3703)">
<rect x="-0.0611" y="-0.3581" width="0.1222" height="2.7711" ry="0.0364" fill="currentColor"/>
</g>
<a style="color:inherit;" xlink:href="textedit:///Users/marc.mouries/projects/Sheet-Music/Classical/Beethoven_Ode-to-Joy/Ode-to-Joy.ly:37:13:14">
<g transform="translate(69.8386, 55.2703)">
<path transform="scale(0.0040, -0.0040)" d="M220 135c11 0 106 -2 106 -87c0 -89 -114 -183 -220 -183c-11 0 -106 2 -106 87c0 89 114 183 220 183z" fill="currentColor"/>
</g>
</a>
<g transform="translate(69.8997, 56.3703)">
<rect x="-0.0611" y="-0.9081" width="0.1222" height="3.1122" ry="0.0364" fill="currentColor"/>
</g>
<a style="color:inherit;" xlink:href="textedit:///Users/marc.mouries/projects/Sheet-Music/Classical/Beethoven_Ode-to-Joy/Ode-to-Joy.ly:37:17:18">
<g transform="translate(72.9726, 55.8203)">
<path transform="scale(0.0040, -0.0040)" d="M220 135c11 0 106 -2 106 -87c0 -89 -114 -183 -220 -183c-11 0 -106 2 -106 87c0 89 114 183 220 183z" fill="currentColor"/>
</g>
</a>
<g transform="translate(73.0338, 56.3703)">
<rect x="-0.0611" y="-0.3581" width="0.1222" height="3.6581" ry="0.0364" fill="currentColor"/>
</g>
<a style="color:inherit;" xlink:href="textedit:///Users/marc.mouries/projects/Sheet-Music/Classical/Beethoven_Ode-to-Joy/Ode-to-Joy.ly:37:21:22">
<g transform="translate(78.1596, 56.3703)">
<path transform="scale(0.0040, -0.0040)" d="M220 135c11 0 106 -2 106 -87c0 -89 -114 -183 -220 -183c-11 0 -106 2 -106 87c0 89 114 183 220 183z" fill="currentColor"/>
</g>
</a>
<g transform="translate(78.2207, 56.3703)">
<rect x="-0.0611" y="0.1919" width="0.1222" height="3.4748" ry="0.0364" fill="currentColor"/>
</g>
<g transform="translate(95.5802, 56.3703)">
<rect x="-0.0611" y="-1.3859" width="0.1222" height="3.5859" ry="0.0364" fill="currentColor"/>
</g>
<a style="color:inherit;" xlink:href="textedit:///Users/marc.mouries/projects/Sheet-Music/Classical/Beethoven_Ode-to-Joy/Ode-to-Joy.ly:38:4:5">
<g transform="translate(84.8736, 56.9203)">
<path transform="scale(0.0040, -0.0040)" d="M220 135c11 0 106 -2 106 -87c0 -89 -114 -183 -220 -183c-11 0 -106 2 -106 87c0 89 114 183 220 183z" fill="currentColor"/>
</g>
</a>
<g transform="translate(86.1176, 56.3703)">
<rect x="-0.0611" y="-3.3000" width="0.1222" height="3.6581" ry="0.0364" fill="currentColor"/>
</g>
<a style="color:inherit;" xlink:href="textedit:///Users/marc.mouries/projects/Sheet-Music/Classical/Beethoven_Ode-to-Joy/Ode-to-Joy.ly:38:8:9">
<g transform="translate(95.5191, 54.7203)">
<path transform="scale(0.0040, -0.0040)" d="M315 66c0 23 -18 42 -42 42c-40 0 -206 -113 -234 -146c-7 -8 -10 -18 -10 -28c0 -23 18 -42 42 -42c40 0 206 113 234 146c7 8 10 18 10 28zM263 135c39 0 81 -13 81 -69c0 -27 -18 -112 -76 -151c-22 -15 -86 -50 -188 -50c-39 0 -80 13 -80 69c0 27 17 112 75 151
c22 15 86 50 188 50z" fill="currentColor"/>
</g>
</a>
<a style="color:inherit;" xlink:href="textedit:///Users/marc.mouries/projects/Sheet-Music/Classical/Beethoven_Ode-to-Joy/Ode-to-Joy.ly:38:6:7">
<g transform="translate(90.0821, 56.3703)">
<path transform="scale(0.0040, -0.0040)" d="M220 135c11 0 106 -2 106 -87c0 -89 -114 -183 -220 -183c-11 0 -106 2 -106 87c0 89 114 183 220 183z" fill="currentColor"/>
</g>
</a>
<g transform="translate(90.1432, 56.3703)">
<rect x="-0.0611" y="0.1919" width="0.1222" height="3.4748" ry="0.0364" fill="currentColor"/>
</g>
<g transform="translate(5.1732, 74.5703)">
<line stroke-linejoin="round" stroke-linecap="round" stroke-width="0.0940" stroke="currentColor" x1="0.0470" y1="0" x2="98.2443" y2="0"/>
</g>
<g transform="translate(5.1732, 73.4703)">
<line stroke-linejoin="round" stroke-linecap="round" stroke-width="0.0940" stroke="currentColor" x1="0.0470" y1="0" x2="98.2443" y2="0"/>
</g>
<g transform="translate(5.1732, 72.3703)">
<line stroke-linejoin="round" stroke-linecap="round" stroke-width="0.0940" stroke="currentColor" x1="0.0470" y1="0" x2="98.2443" y2="0"/>
</g>
<g transform="translate(5.1732, 71.2703)">
<line stroke-linejoin="round" stroke-linecap="round" stroke-width="0.0940" stroke="currentColor" x1="0.0470" y1="0" x2="98.2443" y2="0"/>
</g>
<g transform="translate(5.1732, 70.1703)">
<line stroke-linejoin="round" stroke-linecap="round" stroke-width="0.0940" stroke="currentColor" x1="0.0470" y1="0" x2="98.2443" y2="0"/>
</g>
<g transform="translate(103.2859, 72.3703)">
<rect x="0.0000" y="-2.2000" width="0.1786" height="4.4000" ry="0.0000" fill="currentColor"/>
</g>
<g transform="translate(82.4106, 72.3703)">
<rect x="0.0000" y="-2.2000" width="0.1786" height="4.4000" ry="0.0000" fill="currentColor"/>
</g>
<g transform="translate(59.5052, 72.3703)">
<rect x="0.0000" y="-2.2000" width="0.1786" height="4.4000" ry="0.0000" fill="currentColor"/>
</g>
<g transform="translate(36.3882, 72.3703)">
<rect x="0.0000" y="-2.2000" width="0.1786" height="4.4000" ry="0.0000" fill="currentColor"/>
</g>
<g transform="translate(5.9732, 73.4703)">
<path transform="scale(0.0040, -0.0040)" d="M267 -593l-1 -41h-5c-108 0 -196 88 -196 196c0 58 54 104 113 104c54 0 95 -48 95 -104c0 -52 -43 -95 -95 -95c-11 0 -23 3 -34 8c26 -40 69 -68 119 -68h4zM644 2c0 -112 -73 -212 -180 -245c3 -35 5 -71 5 -107c0 -19 -1 -38 -2 -57c-7 -119 -87 -224 -201 -227l1 41
c43 1 161 25 161 246c0 31 -1 63 -4 94c-5 -1 -44 -8 -89 -8c-193 0 -333 179 -333 373c0 177 132 307 249 441c-28 95 -50 169 -50 345c0 116 56 226 150 294c5 4 13 3 18 -1c67 -81 132 -245 132 -358c0 -143 -86 -255 -181 -364c20 -69 38 -138 55 -208c2 0 7 1 14 1
c155 0 255 -128 255 -260zM460 -204c70 24 115 91 115 165c0 91 -68 182 -176 192c19 -89 48 -246 61 -357zM73 30c0 -146 141 -250 265 -250c1 0 47 0 82 6c-7 63 -29 202 -64 366c-79 -9 -124 -62 -124 -120c0 -44 26 -91 82 -123c5 -4 6 -10 6 -15c0 -11 -9 -21 -21 -21
c-15 0 -125 61 -125 186c0 88 58 173 159 196c-14 59 -30 119 -46 177c-107 -121 -214 -242 -214 -402zM431 915c0 34 0 66 -21 132c-99 -49 -162 -150 -162 -260c0 -56 12 -119 35 -197c81 97 148 199 148 325z" fill="currentColor"/>
</g>
<g transform="translate(9.4732, 70.1703)">
<path transform="scale(0.0040, -0.0040)" d="M0 120c0 8 5 14 12 17l47 17v160c0 10 8 18 18 18s18 -8 18 -18v-148l85 31v160c0 10 8 18 18 18s18 -8 18 -18v-148l35 13c2 1 4 1 6 1c9 0 18 -8 18 -18v-62c0 -8 -5 -14 -12 -17l-47 -17v-162l35 13c2 1 4 1 6 1c9 0 18 -8 18 -18v-63c0 -8 -5 -14 -12 -17l-47 -17
v-160c0 -10 -8 -18 -18 -18s-18 8 -18 18v148l-85 -31v-160c0 -10 -8 -18 -18 -18s-18 8 -18 18v148l-35 -13c-2 -1 -4 -1 -6 -1c-9 0 -18 8 -18 18v62c0 8 5 14 12 17l47 17v162l-35 -13c-2 -1 -4 -1 -6 -1c-9 0 -18 8 -18 18v63zM180 96l-85 -30v-162l85 30v162z" fill="currentColor"/>
</g>
<g transform="translate(10.5732, 71.8203)">
<path transform="scale(0.0040, -0.0040)" d="M0 120c0 8 5 14 12 17l47 17v160c0 10 8 18 18 18s18 -8 18 -18v-148l85 31v160c0 10 8 18 18 18s18 -8 18 -18v-148l35 13c2 1 4 1 6 1c9 0 18 -8 18 -18v-62c0 -8 -5 -14 -12 -17l-47 -17v-162l35 13c2 1 4 1 6 1c9 0 18 -8 18 -18v-63c0 -8 -5 -14 -12 -17l-47 -17
v-160c0 -10 -8 -18 -18 -18s-18 8 -18 18v148l-85 -31v-160c0 -10 -8 -18 -18 -18s-18 8 -18 18v148l-35 -13c-2 -1 -4 -1 -6 -1c-9 0 -18 8 -18 18v62c0 8 5 14 12 17l47 17v162l-35 -13c-2 -1 -4 -1 -6 -1c-9 0 -18 8 -18 18v63zM180 96l-85 -30v-162l85 30v162z" fill="currentColor"/>
</g>
<g transform="translate(11.6732, 69.6203)">
<path transform="scale(0.0040, -0.0040)" d="M0 120c0 8 5 14 12 17l47 17v160c0 10 8 18 18 18s18 -8 18 -18v-148l85 31v160c0 10 8 18 18 18s18 -8 18 -18v-148l35 13c2 1 4 1 6 1c9 0 18 -8 18 -18v-62c0 -8 -5 -14 -12 -17l-47 -17v-162l35 13c2 1 4 1 6 1c9 0 18 -8 18 -18v-63c0 -8 -5 -14 -12 -17l-47 -17
v-160c0 -10 -8 -18 -18 -18s-18 8 -18 18v148l-85 -31v-160c0 -10 -8 -18 -18 -18s-18 8 -18 18v148l-35 -13c-2 -1 -4 -1 -6 -1c-9 0 -18 8 -18 18v62c0 8 5 14 12 17l47 17v162l-35 -13c-2 -1 -4 -1 -6 -1c-9 0 -18 8 -18 18v63zM180 96l-85 -30v-162l85 30v162z" fill="currentColor"/>
</g>
<g transform="translate(3.4350, 69.1028)">
<text font-family="serif" font-size="1.7465" text-anchor="start" fill="currentColor">
<tspan>13</tspan>
</text>
</g>
<a style="color:inherit;" xlink:href="textedit:///Users/marc.mouries/projects/Sheet-Music/Classical/Beethoven_Ode-to-Joy/Ode-to-Joy.ly:40:4:5">
<g transform="translate(15.2733, 71.8203)">
<path transform="scale(0.0040, -0.0040)" d="M220 135c11 0 106 -2 106 -87c0 -89 -114 -183 -220 -183c-11 0 -106 2 -106 87c0 89 114 183 220 183z" fill="currentColor"/>
</g>
</a>
<g transform="translate(15.3344, 72.3703)">
<rect x="-0.0611" y="-0.3581" width="0.1222" height="3.6581" ry="0.0364" fill="currentColor"/>
</g>
<a style="color:inherit;" xlink:href="textedit:///Users/marc.mouries/projects/Sheet-Music/Classical/Beethoven_Ode-to-Joy/Ode-to-Joy.ly:40:8:9">
<g transform="translate(20.6114, 71.8203)">
<path transform="scale(0.0040, -0.0040)" d="M220 135c11 0 106 -2 106 -87c0 -89 -114 -183 -220 -183c-11 0 -106 2 -106 87c0 89 114 183 220 183z" fill="currentColor"/>
</g>
</a>
<g transform="translate(20.6725, 72.3703)">
<rect x="-0.0611" y="-0.3581" width="0.1222" height="3.6581" ry="0.0364" fill="currentColor"/>
</g>
<a style="color:inherit;" xlink:href="textedit:///Users/marc.mouries/projects/Sheet-Music/Classical/Beethoven_Ode-to-Joy/Ode-to-Joy.ly:40:11:12">
<g transform="translate(25.9495, 71.2703)">
<path transform="scale(0.0040, -0.0040)" d="M220 135c11 0 106 -2 106 -87c0 -89 -114 -183 -220 -183c-11 0 -106 2 -106 87c0 89 114 183 220 183z" fill="currentColor"/>
</g>
</a>
<g transform="translate(26.0106, 72.3703)">
<rect x="-0.0611" y="-0.9081" width="0.1222" height="3.6581" ry="0.0364" fill="currentColor"/>
</g>
<a style="color:inherit;" xlink:href="textedit:///Users/marc.mouries/projects/Sheet-Music/Classical/Beethoven_Ode-to-Joy/Ode-to-Joy.ly:40:13:14">
<g transform="translate(31.2876, 70.7203)">
<path transform="scale(0.0040, -0.0040)" d="M220 135c11 0 106 -2 106 -87c0 -89 -114 -183 -220 -183c-11 0 -106 2 -106 87c0 89 114 183 220 183z" fill="currentColor"/>
</g>
</a>
<g transform="translate(31.3487, 72.3703)">
<rect x="-0.0611" y="-1.4581" width="0.1222" height="3.6581" ry="0.0364" fill="currentColor"/>
</g>
<a style="color:inherit;" xlink:href="textedit:///Users/marc.mouries/projects/Sheet-Music/Classical/Beethoven_Ode-to-Joy/Ode-to-Joy.ly:41:4:5">
<g transform="translate(38.2832, 70.7203)">
<path transform="scale(0.0040, -0.0040)" d="M220 135c11 0 106 -2 106 -87c0 -89 -114 -183 -220 -183c-11 0 -106 2 -106 87c0 89 114 183 220 183z" fill="currentColor"/>
</g>
</a>
<g transform="translate(38.3443, 72.3703)">
<rect x="-0.0611" y="-1.4581" width="0.1222" height="3.6581" ry="0.0364" fill="currentColor"/>
</g>
<a style="color:inherit;" xlink:href="textedit:///Users/marc.mouries/projects/Sheet-Music/Classical/Beethoven_Ode-to-Joy/Ode-to-Joy.ly:41:6:7">
<g transform="translate(43.6213, 71.2703)">
<path transform="scale(0.0040, -0.0040)" d="M220 135c11 0 106 -2 106 -87c0 -89 -114 -183 -220 -183c-11 0 -106 2 -106 87c0 89 114 183 220 183z" fill="currentColor"/>
</g>
</a>
<g transform="translate(43.6824, 72.3703)">
<rect x="-0.0611" y="-0.9081" width="0.1222" height="3.6581" ry="0.0364" fill="currentColor"/>
</g>
<a style="color:inherit;" xlink:href="textedit:///Users/marc.mouries/projects/Sheet-Music/Classical/Beethoven_Ode-to-Joy/Ode-to-Joy.ly:41:8:9">
<g transform="translate(48.9594, 71.8203)">
<path transform="scale(0.0040, -0.0040)" d="M220 135c11 0 106 -2 106 -87c0 -89 -114 -183 -220 -183c-11 0 -106 2 -106 87c0 89 114 183 220 183z" fill="currentColor"/>
</g>
</a>
<g transform="translate(49.0205, 72.3703)">
<rect x="-0.0611" y="-0.3581" width="0.1222" height="3.6581" ry="0.0364" fill="currentColor"/>
</g>
<a style="color:inherit;" xlink:href="textedit:///Users/marc.mouries/projects/Sheet-Music/Classical/Beethoven_Ode-to-Joy/Ode-to-Joy.ly:41:11:12">
<g transform="translate(54.2975, 72.3703)">
<path transform="scale(0.0040, -0.0040)" d="M220 135c11 0 106 -2 106 -87c0 -89 -114 -183 -220 -183c-11 0 -106 2 -106 87c0 89 114 183 220 183z" fill="currentColor"/>
</g>
</a>
<g transform="translate(54.3586, 72.3703)">
<rect x="-0.0611" y="0.1919" width="0.1222" height="3.4748" ry="0.0364" fill="currentColor"/>
</g>
<a style="color:inherit;" xlink:href="textedit:///Users/marc.mouries/projects/Sheet-Music/Classical/Beethoven_Ode-to-Joy/Ode-to-Joy.ly:42:4:5">
<g transform="translate(61.2026, 72.9203)">
<path transform="scale(0.0040, -0.0040)" d="M220 135c11 0 106 -2 106 -87c0 -89 -114 -183 -220 -183c-11 0 -106 2 -106 87c0 89 114 183 220 183z" fill="currentColor"/>
</g>
</a>
<g transform="translate(62.4467, 72.3703)">
<rect x="-0.0611" y="-3.3000" width="0.1222" height="3.6581" ry="0.0364" fill="currentColor"/>
</g>
<a style="color:inherit;" xlink:href="textedit:///Users/marc.mouries/projects/Sheet-Music/Classical/Beethoven_Ode-to-Joy/Ode-to-Joy.ly:42:6:7">
<g transform="translate(66.5408, 72.9203)">
<path transform="scale(0.0040, -0.0040)" d="M220 135c11 0 106 -2 106 -87c0 -89 -114 -183 -220 -183c-11 0 -106 2 -106 87c0 89 114 183 220 183z" fill="currentColor"/>
</g>
</a>
<g transform="translate(67.7848, 72.3703)">
<rect x="-0.0611" y="-3.3000" width="0.1222" height="3.6581" ry="0.0364" fill="currentColor"/>
</g>
<a style="color:inherit;" xlink:href="textedit:///Users/marc.mouries/projects/Sheet-Music/Classical/Beethoven_Ode-to-Joy/Ode-to-Joy.ly:42:8:9">
<g transform="translate(71.9005, 72.3703)">
<path transform="scale(0.0040, -0.0040)" d="M220 135c11 0 106 -2 106 -87c0 -89 -114 -183 -220 -183c-11 0 -106 2 -106 87c0 89 114 183 220 183z" fill="currentColor"/>
</g>
</a>
<g transform="translate(71.9616, 72.3703)">
<rect x="-0.0611" y="0.1919" width="0.1222" height="3.4748" ry="0.0364" fill="currentColor"/>
</g>
<g transform="translate(96.1804, 72.3703)">
<rect x="-0.0611" y="-3.3000" width="0.1222" height="3.5859" ry="0.0364" fill="currentColor"/>
</g>
<a style="color:inherit;" xlink:href="textedit:///Users/marc.mouries/projects/Sheet-Music/Classical/Beethoven_Ode-to-Joy/Ode-to-Joy.ly:42:10:11">
<g transform="translate(77.2386, 71.8203)">
<path transform="scale(0.0040, -0.0040)" d="M220 135c11 0 106 -2 106 -87c0 -89 -114 -183 -220 -183c-11 0 -106 2 -106 87c0 89 114 183 220 183z" fill="currentColor"/>
</g>
</a>
<g transform="translate(77.2997, 72.3703)">
<rect x="-0.0611" y="-0.3581" width="0.1222" height="3.6581" ry="0.0364" fill="currentColor"/>
</g>
<a style="color:inherit;" xlink:href="textedit:///Users/marc.mouries/projects/Sheet-Music/Classical/Beethoven_Ode-to-Joy/Ode-to-Joy.ly:43:11:12">
<g transform="translate(94.8669, 72.9203)">
<path transform="scale(0.0040, -0.0040)" d="M315 66c0 23 -18 42 -42 42c-40 0 -206 -113 -234 -146c-7 -8 -10 -18 -10 -28c0 -23 18 -42 42 -42c40 0 206 113 234 146c7 8 10 18 10 28zM263 135c39 0 81 -13 81 -69c0 -27 -18 -112 -76 -151c-22 -15 -86 -50 -188 -50c-39 0 -80 13 -80 69c0 27 17 112 75 151
c22 15 86 50 188 50z" fill="currentColor"/>
</g>
</a>
<a style="color:inherit;" xlink:href="textedit:///Users/marc.mouries/projects/Sheet-Music/Classical/Beethoven_Ode-to-Joy/Ode-to-Joy.ly:43:4:5">
<g transform="translate(84.2113, 72.3703)">
<path transform="scale(0.0040, -0.0040)" d="M220 135c11 0 106 -2 106 -87c0 -89 -114 -183 -220 -183c-11 0 -106 2 -106 87c0 89 114 183 220 183z" fill="currentColor"/>
</g>
</a>
<g transform="translate(85.9701, 71.8203)">
<path transform="scale(0.0040, -0.0040)" d="M0 0c0 31 26 57 57 57s56 -26 56 -57s-25 -57 -56 -57s-57 26 -57 57z" fill="currentColor"/>
</g>
<g transform="translate(84.2724, 72.3703)">
<rect x="-0.0611" y="0.1919" width="0.1222" height="3.4748" ry="0.0364" fill="currentColor"/>
</g>
<a style="color:inherit;" xlink:href="textedit:///Users/marc.mouries/projects/Sheet-Music/Classical/Beethoven_Ode-to-Joy/Ode-to-Joy.ly:43:8:9">
<g transform="translate(91.1950, 72.9203)">
<path transform="scale(0.0040, -0.0040)" d="M220 135c11 0 106 -2 106 -87c0 -89 -114 -183 -220 -183c-11 0 -106 2 -106 87c0 89 114 183 220 183z" fill="currentColor"/>
</g>
</a>
<g transform="translate(92.4391, 72.3703)">
<rect x="-0.0611" y="-3.3000" width="0.1222" height="3.6581" ry="0.0364" fill="currentColor"/>
</g>
<g transform="translate(92.5002, 69.1067)">
<path transform="scale(0.0040, -0.0040)" d="M0 -250h-15v250h15c0 -197 207 -337 207 -534c0 -71 -15 -141 -41 -207c-4 -8 -12 -11 -19 -11c-12 0 -25 11 -22 26c26 61 41 126 41 192c0 104 -94 209 -166 284z" fill="currentColor"/>
</g>
</svg>
