<svg xmlns="http://www.w3.org/2000/svg" xmlns:xlink="http://www.w3.org/1999/xlink" version="1.2" width="210.00mm" height="297.00mm" viewBox="0.0000 -0.0000 119.5016 169.0094">
<style type="text/css">
<![CDATA[
tspan { white-space: pre; }
]]>
</style>
<g transform="translate(5.6906, 4.3320)">
<text font-family="serif" font-size="2.2001" text-anchor="start" fill="currentColor">
<tspan>2</tspan>
</text>
</g>
<g transform="translate(5.6906, 7.5270)">
<rect x="104.6228" y="-0.1050" width="1.9563" height="0.2100" ry="0.1050" fill="currentColor"/>
</g>
<g transform="translate(5.6906, 7.5270)">
<rect x="101.4626" y="-0.1050" width="1.9563" height="0.2100" ry="0.1050" fill="currentColor"/>
</g>
<g transform="translate(5.6906, 6.4270)">
<rect x="98.5524" y="-0.1050" width="1.9563" height="0.2100" ry="0.1050" fill="currentColor"/>
</g>
<g transform="translate(5.6906, 7.5270)">
<rect x="98.5524" y="-0.1050" width="1.9563" height="0.2100" ry="0.1050" fill="currentColor"/>
</g>
<g transform="translate(5.6906, 7.5270)">
<rect x="95.3923" y="-0.1050" width="1.9563" height="0.2100" ry="0.1050" fill="currentColor"/>
</g>
<g transform="translate(5.6906, 6.4270)">
<rect x="92.4821" y="-0.1050" width="1.9563" height="0.2100" ry="0.1050" fill="currentColor"/>
</g>
<g transform="translate(5.6906, 7.5270)">
<rect x="92.4821" y="-0.1050" width="1.9563" height="0.2100" ry="0.1050" fill="currentColor"/>
</g>
<g transform="translate(5.6906, 6.4270)">
<rect x="89.3219" y="-0.1050" width="1.9563" height="0.2100" ry="0.1050" fill="currentColor"/>
</g>
<g transform="translate(5.6906, 7.5270)">
<rect x="89.3219" y="-0.1050" width="1.9563" height="0.2100" ry="0.1050" fill="currentColor"/>
</g>
<g transform="translate(5.6906, 6.4270)">
<rect x="86.1617" y="-0.1050" width="1.9563" height="0.2100" ry="0.1050" fill="currentColor"/>
</g>
<g transform="translate(5.6906, 7.5270)">
<rect x="86.1617" y="-0.1050" width="1.9563" height="0.2100" ry="0.1050" fill="currentColor"/>
</g>
<g transform="translate(5.6906, 7.5270)">
<rect x="67.7006" y="-0.1050" width="1.9563" height="0.2100" ry="0.1050" fill="currentColor"/>
</g>
<g transform="translate(5.6906, 7.5270)">
<rect x="61.6302" y="-0.1050" width="1.9563" height="0.2100" ry="0.1050" fill="currentColor"/>
</g>
<g transform="translate(5.6906, 7.5270)">
<rect x="58.4700" y="-0.1050" width="1.9563" height="0.2100" ry="0.1050" fill="currentColor"/>
</g>
<g transform="translate(5.6906, 6.4270)">
<rect x="54.0467" y="-0.1050" width="1.9563" height="0.2100" ry="0.1050" fill="currentColor"/>
</g>
<g transform="translate(5.6906, 7.5270)">
<rect x="54.0467" y="-0.1050" width="1.9563" height="0.2100" ry="0.1050" fill="currentColor"/>
</g>
<g transform="translate(5.6906, 7.5270)">
<rect x="50.8865" y="-0.1050" width="1.9563" height="0.2100" ry="0.1050" fill="currentColor"/>
</g>
<g transform="translate(5.6906, 6.4270)">
<rect x="47.7264" y="-0.1050" width="1.9563" height="0.2100" ry="0.1050" fill="currentColor"/>
</g>
<g transform="translate(5.6906, 7.5270)">
<rect x="47.7264" y="-0.1050" width="1.9563" height="0.2100" ry="0.1050" fill="currentColor"/>
</g>
<g transform="translate(5.6906, 7.5270)">
<rect x="23.1949" y="-0.1050" width="1.9563" height="0.2100" ry="0.1050" fill="currentColor"/>
</g>
<g transform="translate(5.6906, 7.5270)">
<rect x="17.1245" y="-0.1050" width="1.9563" height="0.2100" ry="0.1050" fill="currentColor"/>
</g>
<g transform="translate(5.6906, 7.5270)">
<rect x="13.9643" y="-0.1050" width="1.9563" height="0.2100" ry="0.1050" fill="currentColor"/>
</g>
<g transform="translate(5.6906, 7.5270)">
<rect x="10.8041" y="-0.1050" width="1.9563" height="0.2100" ry="0.1050" fill="currentColor"/>
</g>
<g transform="translate(5.6906, 13.0270)">
<line stroke-linejoin="round" stroke-linecap="round" stroke-width="0.1000" stroke="currentColor" x1="0.0500" y1="0" x2="108.0705" y2="0"/>
</g>
<g transform="translate(5.6906, 11.9270)">
<line stroke-linejoin="round" stroke-linecap="round" stroke-width="0.1000" stroke="currentColor" x1="0.0500" y1="0" x2="108.0705" y2="0"/>
</g>
<g transform="translate(5.6906, 10.8270)">
<line stroke-linejoin="round" stroke-linecap="round" stroke-width="0.1000" stroke="currentColor" x1="0.0500" y1="0" x2="108.0705" y2="0"/>
</g>
<g transform="translate(5.6906, 9.7270)">
<line stroke-linejoin="round" stroke-linecap="round" stroke-width="0.1000" stroke="currentColor" x1="0.0500" y1="0" x2="108.0705" y2="0"/>
</g>
<g transform="translate(5.6906, 8.6270)">
<line stroke-linejoin="round" stroke-linecap="round" stroke-width="0.1000" stroke="currentColor" x1="0.0500" y1="0" x2="108.0705" y2="0"/>
</g>
<g transform="translate(113.6210, 10.8270)">
<rect x="0.0000" y="-2.2000" width="0.1900" height="4.4000" ry="0.0000" fill="currentColor"/>
</g>
<g transform="translate(62.9735, 10.8270)">
<rect x="0.0000" y="-2.2000" width="0.1900" height="4.4000" ry="0.0000" fill="currentColor"/>
</g>
<g transform="translate(101.4089, 9.9410)">
<polygon stroke-linejoin="round" stroke-linecap="round" stroke-width="0.0800" fill="currentColor" stroke="currentColor" points="9.3206 -0.2240 9.3206 0.2240 0.0400 0.2240 0.0400 -0.2240"/>
</g>
<g transform="translate(101.4089, 10.8270)">
<polygon stroke-linejoin="round" stroke-linecap="round" stroke-width="0.0800" fill="currentColor" stroke="currentColor" points="9.3206 -0.2240 9.3206 0.2240 0.0400 0.2240 0.0400 -0.2240"/>
</g>
<g transform="translate(6.4906, 11.9270)">
<path transform="scale(0.0040, -0.0040)" d="M266 -635h-6c-108 0 -195 88 -195 197c0 58 53 103 112 103c54 0 95 -47 95 -103c0 -52 -43 -95 -95 -95c-11 0 -21 2 -31 6c26 -39 68 -65 117 -65h4zM461 -203c68 24 113 90 113 164c0 90 -66 179 -173 190c19 -89 48 -242 60 -354zM74 28c0 -145 141 -247 264 -247
c1 0 47 0 82 6c-7 64 -29 203 -63 364c-79 -8 -124 -61 -124 -119c0 -44 25 -91 81 -123c5 -5 7 -10 7 -15c0 -11 -10 -22 -22 -22c-15 0 -126 62 -126 187c0 88 58 174 160 197c-14 58 -29 117 -46 175c-107 -121 -213 -243 -213 -403zM250 553c-29 96 -52 170 -52 346
c0 115 55 224 149 292c6 5 14 5 20 0c68 -80 133 -245 133 -358c0 -143 -86 -255 -180 -364c21 -68 39 -138 56 -207c2 0 7 1 13 1c155 0 256 -128 256 -261c0 -113 -74 -212 -180 -246c3 -35 5 -70 5 -105c0 -19 -1 -39 -2 -58c-7 -119 -88 -225 -202 -228l1 43
c93 2 153 92 159 191c1 18 2 37 2 55c0 31 -1 61 -4 92c-5 -1 -44 -8 -89 -8c-193 0 -333 180 -333 374c0 177 131 306 248 441zM428 916c0 34 1 66 -20 129c-99 -48 -162 -149 -162 -259c0 -52 12 -115 36 -194c80 97 146 198 146 324z" fill="currentColor"/>
</g>
<g transform="translate(10.1106, 10.8270)">
<path transform="scale(0.0040, -0.0040)" d="M27 41l-1 -66v-11c0 -22 1 -44 4 -66c45 38 93 80 93 139c0 33 -14 67 -43 67c-31 0 -52 -30 -53 -63zM-15 -138l-12 595c8 5 18 8 27 8s19 -3 27 -8l-7 -345c25 21 58 34 91 34c52 0 89 -48 89 -102c0 -80 -86 -117 -147 -169c-15 -13 -24 -38 -45 -38
c-13 0 -23 11 -23 25z" fill="currentColor"/>
</g>
<g transform="translate(3.9151, 7.5770)">
<text font-family="serif" font-size="1.7461" text-anchor="start" fill="currentColor">
<tspan>21</tspan>
</text>
</g>
<g transform="translate(88.7681, 12.1410)">
<polygon stroke-linejoin="round" stroke-linecap="round" stroke-width="0.0800" fill="currentColor" stroke="currentColor" points="9.8206 -1.5380 9.8206 -1.0900 0.0400 0.2240 0.0400 -0.2240"/>
</g>
<g transform="translate(88.7681, 13.0270)">
<polygon stroke-linejoin="round" stroke-linecap="round" stroke-width="0.0800" fill="currentColor" stroke="currentColor" points="9.8206 -1.5380 9.8206 -1.0900 0.0400 0.2240 0.0400 -0.2240"/>
</g>
<a style="color:inherit;" xlink:href="textedit:///Users/marc.mouries/projects/Sheet-Music/Classical/Rondo-Veneziano/Rondo-Veneziano_Odissea-veneziana.ly:63:2:3">
<g transform="translate(13.4106, 9.7270)">
<path transform="scale(0.0040, -0.0040)" d="M218 136c66 0 108 -36 108 -89c0 -89 -113 -183 -218 -183c-66 0 -108 36 -108 89c0 89 113 183 218 183z" fill="currentColor"/>
</g>
</a>
<a style="color:inherit;" xlink:href="textedit:///Users/marc.mouries/projects/Sheet-Music/Classical/Rondo-Veneziano/Rondo-Veneziano_Odissea-veneziana.ly:63:5:6">
<g transform="translate(13.4106, 15.2143)">
<text font-family="serif" font-size="2.2001" text-anchor="start" fill="currentColor">
<tspan>1st pos. jusqu'au Mi avec 3e doigt. Rester la en 2e pos. Même chose jusqu'au fa au 22, 3e doigt</tspan>
</text>
</g>
</a>
<g transform="translate(13.4756, 10.8270)">
<rect x="-0.0650" y="-0.9139" width="0.1300" height="3.1052" ry="0.0400" fill="currentColor"/>
</g>
<g transform="translate(76.6274, 11.0410)">
<polygon stroke-linejoin="round" stroke-linecap="round" stroke-width="0.0800" fill="currentColor" stroke="currentColor" points="9.3206 -0.2240 9.3206 0.2240 0.0400 0.2240 0.0400 -0.2240"/>
</g>
<g transform="translate(76.6274, 11.9270)">
<polygon stroke-linejoin="round" stroke-linecap="round" stroke-width="0.0800" fill="currentColor" stroke="currentColor" points="9.3206 -0.2240 9.3206 0.2240 0.0400 0.2240 0.0400 -0.2240"/>
</g>
<a style="color:inherit;" xlink:href="textedit:///Users/marc.mouries/projects/Sheet-Music/Classical/Rondo-Veneziano/Rondo-Veneziano_Odissea-veneziana.ly:63:104:105">
<g transform="translate(16.8207, 6.9770)">
<path transform="scale(0.0040, -0.0040)" d="M218 136c66 0 108 -36 108 -89c0 -89 -113 -183 -218 -183c-66 0 -108 36 -108 89c0 89 113 183 218 183z" fill="currentColor"/>
</g>
</a>
<g transform="translate(16.8857, 10.8270)">
<rect x="-0.0650" y="-3.6639" width="0.1300" height="5.4008" ry="0.0400" fill="currentColor"/>
</g>
<g transform="translate(64.4866, 9.9410)">
<polygon stroke-linejoin="round" stroke-linecap="round" stroke-width="0.0800" fill="currentColor" stroke="currentColor" points="9.3206 -0.2240 9.3206 0.2240 0.0400 0.2240 0.0400 -0.2240"/>
</g>
<g transform="translate(64.4866, 10.8270)">
<polygon stroke-linejoin="round" stroke-linecap="round" stroke-width="0.0800" fill="currentColor" stroke="currentColor" points="9.3206 -0.2240 9.3206 0.2240 0.0400 0.2240 0.0400 -0.2240"/>
</g>
<a style="color:inherit;" xlink:href="textedit:///Users/marc.mouries/projects/Sheet-Music/Classical/Rondo-Veneziano/Rondo-Veneziano_Odissea-veneziana.ly:63:108:109">
<g transform="translate(19.9809, 7.5270)">
<path transform="scale(0.0040, -0.0040)" d="M218 136c66 0 108 -36 108 -89c0 -89 -113 -183 -218 -183c-66 0 -108 36 -108 89c0 89 113 183 218 183z" fill="currentColor"/>
</g>
</a>
<g transform="translate(20.0459, 10.8270)">
<rect x="-0.0650" y="-3.1139" width="0.1300" height="4.4297" ry="0.0400" fill="currentColor"/>
</g>
<g transform="translate(50.3328, 12.1410)">
<polygon stroke-linejoin="round" stroke-linecap="round" stroke-width="0.0800" fill="currentColor" stroke="currentColor" points="9.8206 -1.8740 9.8206 -1.4260 0.0400 0.2240 0.0400 -0.2240"/>
</g>
<g transform="translate(50.3328, 13.0270)">
<polygon stroke-linejoin="round" stroke-linecap="round" stroke-width="0.0800" fill="currentColor" stroke="currentColor" points="9.8206 -1.8740 9.8206 -1.4260 0.0400 0.2240 0.0400 -0.2240"/>
</g>
<a style="color:inherit;" xlink:href="textedit:///Users/marc.mouries/projects/Sheet-Music/Classical/Rondo-Veneziano/Rondo-Veneziano_Odissea-veneziana.ly:63:110:111">
<g transform="translate(23.1411, 6.9770)">
<path transform="scale(0.0040, -0.0040)" d="M218 136c66 0 108 -36 108 -89c0 -89 -113 -183 -218 -183c-66 0 -108 36 -108 89c0 89 113 183 218 183z" fill="currentColor"/>
</g>
</a>
<g transform="translate(23.2061, 10.8270)">
<rect x="-0.0650" y="-3.6639" width="0.1300" height="4.5586" ry="0.0400" fill="currentColor"/>
</g>
<g transform="translate(38.1920, 11.9270)">
<polygon stroke-linejoin="round" stroke-linecap="round" stroke-width="0.0800" fill="currentColor" stroke="currentColor" points="9.3206 -0.2240 9.3206 0.2240 0.0400 0.2240 0.0400 -0.2240"/>
</g>
<g transform="translate(38.1920, 12.8130)">
<polygon stroke-linejoin="round" stroke-linecap="round" stroke-width="0.0800" fill="currentColor" stroke="currentColor" points="9.3206 -0.2240 9.3206 0.2240 0.0400 0.2240 0.0400 -0.2240"/>
</g>
<a style="color:inherit;" xlink:href="textedit:///Users/marc.mouries/projects/Sheet-Music/Classical/Rondo-Veneziano/Rondo-Veneziano_Odissea-veneziana.ly:63:113:114">
<g transform="translate(26.0513, 8.0770)">
<path transform="scale(0.0040, -0.0040)" d="M218 136c66 0 108 -36 108 -89c0 -89 -113 -183 -218 -183c-66 0 -108 36 -108 89c0 89 113 183 218 183z" fill="currentColor"/>
</g>
</a>
<g transform="translate(26.1163, 10.8270)">
<rect x="-0.0650" y="-2.5639" width="0.1300" height="3.4499" ry="0.0400" fill="currentColor"/>
</g>
<g transform="translate(26.0513, 10.8270)">
<polygon stroke-linejoin="round" stroke-linecap="round" stroke-width="0.0800" fill="currentColor" stroke="currentColor" points="9.3206 -0.2240 9.3206 0.2240 0.0400 0.2240 0.0400 -0.2240"/>
</g>
<g transform="translate(26.0513, 11.7130)">
<polygon stroke-linejoin="round" stroke-linecap="round" stroke-width="0.0800" fill="currentColor" stroke="currentColor" points="9.3206 -0.2240 9.3206 0.2240 0.0400 0.2240 0.0400 -0.2240"/>
</g>
<a style="color:inherit;" xlink:href="textedit:///Users/marc.mouries/projects/Sheet-Music/Classical/Rondo-Veneziano/Rondo-Veneziano_Odissea-veneziana.ly:63:115:116">
<g transform="translate(29.2115, 7.5270)">
<path transform="scale(0.0040, -0.0040)" d="M218 136c66 0 108 -36 108 -89c0 -89 -113 -183 -218 -183c-66 0 -108 36 -108 89c0 89 113 183 218 183z" fill="currentColor"/>
</g>
</a>
<g transform="translate(29.2765, 10.8270)">
<rect x="-0.0650" y="-3.1139" width="0.1300" height="3.9999" ry="0.0400" fill="currentColor"/>
</g>
<g transform="translate(13.4106, 12.1410)">
<polygon stroke-linejoin="round" stroke-linecap="round" stroke-width="0.0800" fill="currentColor" stroke="currentColor" points="9.8206 -1.5380 9.8206 -1.0900 0.0400 0.2240 0.0400 -0.2240"/>
</g>
<g transform="translate(13.4106, 13.0270)">
<polygon stroke-linejoin="round" stroke-linecap="round" stroke-width="0.0800" fill="currentColor" stroke="currentColor" points="9.8206 -1.5380 9.8206 -1.0900 0.0400 0.2240 0.0400 -0.2240"/>
</g>
<a style="color:inherit;" xlink:href="textedit:///Users/marc.mouries/projects/Sheet-Music/Classical/Rondo-Veneziano/Rondo-Veneziano_Odissea-veneziana.ly:63:117:118">
<g transform="translate(32.1217, 8.6270)">
<path transform="scale(0.0040, -0.0040)" d="M218 136c66 0 108 -36 108 -89c0 -89 -113 -183 -218 -183c-66 0 -108 36 -108 89c0 89 113 183 218 183z" fill="currentColor"/>
</g>
</a>
<g transform="translate(32.1867, 10.8270)">
<rect x="-0.0650" y="-2.0139" width="0.1300" height="2.8999" ry="0.0400" fill="currentColor"/>
</g>
<a style="color:inherit;" xlink:href="textedit:///Users/marc.mouries/projects/Sheet-Music/Classical/Rondo-Veneziano/Rondo-Veneziano_Odissea-veneziana.ly:63:119:120">
<g transform="translate(35.2819, 8.0770)">
<path transform="scale(0.0040, -0.0040)" d="M218 136c66 0 108 -36 108 -89c0 -89 -113 -183 -218 -183c-66 0 -108 36 -108 89c0 89 113 183 218 183z" fill="currentColor"/>
</g>
</a>
<g transform="translate(35.3469, 10.8270)">
<rect x="-0.0650" y="-2.5639" width="0.1300" height="3.4499" ry="0.0400" fill="currentColor"/>
</g>
<a style="color:inherit;" xlink:href="textedit:///Users/marc.mouries/projects/Sheet-Music/Classical/Rondo-Veneziano/Rondo-Veneziano_Odissea-veneziana.ly:63:121:122">
<g transform="translate(38.1920, 9.1770)">
<path transform="scale(0.0040, -0.0040)" d="M218 136c66 0 108 -36 108 -89c0 -89 -113 -183 -218 -183c-66 0 -108 36 -108 89c0 89 113 183 218 183z" fill="currentColor"/>
</g>
</a>
<a style="color:inherit;" xlink:href="textedit:///Users/marc.mouries/projects/Sheet-Music/Classical/Rondo-Veneziano/Rondo-Veneziano_Odissea-veneziana.ly:63:122:123">
<g transform="translate(38.4515, 8.0270)">
<path transform="scale(0.0022, -0.0022)" d="M261 266c0 -54 85 -40 85 -125c0 -94 -83 -141 -186 -141c-84 0 -160 54 -160 133c0 32 26 58 58 58s58 -26 58 -58c0 -22 -36 -26 -36 -48c0 -33 42 -42 80 -42c41 0 56 50 56 98v21c0 44 -2 77 -43 77h-65c-18 0 -27 14 -27 27s9 27 27 27h65c42 0 43 36 43 83v11
c0 43 -20 70 -61 70c-34 0 -71 -8 -71 -38c0 -19 32 -23 32 -42c0 -28 -23 -51 -51 -51s-51 23 -51 51c0 72 66 123 141 123c93 0 174 -31 174 -113c0 -94 -68 -67 -68 -121z" fill="currentColor"/>
</g>
</a>
<g transform="translate(38.2570, 10.8270)">
<rect x="-0.0650" y="-1.4639" width="0.1300" height="3.4499" ry="0.0400" fill="currentColor"/>
</g>
<a style="color:inherit;" xlink:href="textedit:///Users/marc.mouries/projects/Sheet-Music/Classical/Rondo-Veneziano/Rondo-Veneziano_Odissea-veneziana.ly:63:125:126">
<g transform="translate(41.3522, 8.6270)">
<path transform="scale(0.0040, -0.0040)" d="M218 136c66 0 108 -36 108 -89c0 -89 -113 -183 -218 -183c-66 0 -108 36 -108 89c0 89 113 183 218 183z" fill="currentColor"/>
</g>
</a>
<g transform="translate(41.4172, 10.8270)">
<rect x="-0.0650" y="-2.0139" width="0.1300" height="3.9999" ry="0.0400" fill="currentColor"/>
</g>
<a style="color:inherit;" xlink:href="textedit:///Users/marc.mouries/projects/Sheet-Music/Classical/Rondo-Veneziano/Rondo-Veneziano_Odissea-veneziana.ly:63:127:128">
<g transform="translate(44.2624, 9.7270)">
<path transform="scale(0.0040, -0.0040)" d="M218 136c66 0 108 -36 108 -89c0 -89 -113 -183 -218 -183c-66 0 -108 36 -108 89c0 89 113 183 218 183z" fill="currentColor"/>
</g>
</a>
<g transform="translate(44.3274, 10.8270)">
<rect x="-0.0650" y="-0.9139" width="0.1300" height="2.8999" ry="0.0400" fill="currentColor"/>
</g>
<a style="color:inherit;" xlink:href="textedit:///Users/marc.mouries/projects/Sheet-Music/Classical/Rondo-Veneziano/Rondo-Veneziano_Odissea-veneziana.ly:63:129:130">
<g transform="translate(47.4226, 9.1770)">
<path transform="scale(0.0040, -0.0040)" d="M218 136c66 0 108 -36 108 -89c0 -89 -113 -183 -218 -183c-66 0 -108 36 -108 89c0 89 113 183 218 183z" fill="currentColor"/>
</g>
</a>
<g transform="translate(47.4876, 10.8270)">
<rect x="-0.0650" y="-1.4639" width="0.1300" height="3.4499" ry="0.0400" fill="currentColor"/>
</g>
<a style="color:inherit;" xlink:href="textedit:///Users/marc.mouries/projects/Sheet-Music/Classical/Rondo-Veneziano/Rondo-Veneziano_Odissea-veneziana.ly:63:131:132">
<g transform="translate(50.3328, 10.2770)">
<path transform="scale(0.0040, -0.0040)" d="M218 136c66 0 108 -36 108 -89c0 -89 -113 -183 -218 -183c-66 0 -108 36 -108 89c0 89 113 183 218 183z" fill="currentColor"/>
</g>
</a>
<a style="color:inherit;" xlink:href="textedit:///Users/marc.mouries/projects/Sheet-Music/Classical/Rondo-Veneziano/Rondo-Veneziano_Odissea-veneziana.ly:63:132:133">
<g transform="translate(50.5752, 8.0270)">
<path transform="scale(0.0022, -0.0022)" d="M194 486c16 0 29 15 41 15c13 0 24 -13 24 -31v-341c0 -47 35 -86 81 -86c14 0 21 -10 21 -21s-7 -22 -21 -22c-49 0 -97 14 -146 14s-96 -14 -145 -14c-14 0 -22 11 -22 22s8 21 22 21c46 0 80 39 80 86v137c0 23 -16 35 -30 35c-7 0 -13 -4 -17 -11l-34 -65
c-5 -10 -14 -15 -23 -15c-14 0 -28 12 -28 27c0 4 1 8 3 13l129 250c2 4 7 6 11 6c18 0 37 -20 54 -20z" fill="currentColor"/>
</g>
</a>
<g transform="translate(50.3978, 10.8270)">
<rect x="-0.0650" y="-0.3639" width="0.1300" height="2.5530" ry="0.0400" fill="currentColor"/>
</g>
<a style="color:inherit;" xlink:href="textedit:///Users/marc.mouries/projects/Sheet-Music/Classical/Rondo-Veneziano/Rondo-Veneziano_Odissea-veneziana.ly:63:135:136">
<g transform="translate(53.7430, 6.4270)">
<path transform="scale(0.0040, -0.0040)" d="M218 136c66 0 108 -36 108 -89c0 -89 -113 -183 -218 -183c-66 0 -108 36 -108 89c0 89 113 183 218 183z" fill="currentColor"/>
</g>
</a>
<g transform="translate(53.8080, 10.8270)">
<rect x="-0.0650" y="-4.2139" width="0.1300" height="5.8324" ry="0.0400" fill="currentColor"/>
</g>
<a style="color:inherit;" xlink:href="textedit:///Users/marc.mouries/projects/Sheet-Music/Classical/Rondo-Veneziano/Rondo-Veneziano_Odissea-veneziana.ly:63:138:139">
<g transform="translate(56.9031, 6.9770)">
<path transform="scale(0.0040, -0.0040)" d="M218 136c66 0 108 -36 108 -89c0 -89 -113 -183 -218 -183c-66 0 -108 36 -108 89c0 89 113 183 218 183z" fill="currentColor"/>
</g>
</a>
<g transform="translate(56.9681, 10.8270)">
<rect x="-0.0650" y="-3.6639" width="0.1300" height="4.7536" ry="0.0400" fill="currentColor"/>
</g>
<a style="color:inherit;" xlink:href="textedit:///Users/marc.mouries/projects/Sheet-Music/Classical/Rondo-Veneziano/Rondo-Veneziano_Odissea-veneziana.ly:63:141:142">
<g transform="translate(60.0633, 6.4270)">
<path transform="scale(0.0040, -0.0040)" d="M218 136c66 0 108 -36 108 -89c0 -89 -113 -183 -218 -183c-66 0 -108 36 -108 89c0 89 113 183 218 183z" fill="currentColor"/>
</g>
</a>
<g transform="translate(60.1283, 10.8270)">
<rect x="-0.0650" y="-4.2139" width="0.1300" height="4.7748" ry="0.0400" fill="currentColor"/>
</g>
<a style="color:inherit;" xlink:href="textedit:///Users/marc.mouries/projects/Sheet-Music/Classical/Rondo-Veneziano/Rondo-Veneziano_Odissea-veneziana.ly:64:2:3">
<g transform="translate(64.4866, 7.5270)">
<path transform="scale(0.0040, -0.0040)" d="M218 136c66 0 108 -36 108 -89c0 -89 -113 -183 -218 -183c-66 0 -108 36 -108 89c0 89 113 183 218 183z" fill="currentColor"/>
</g>
</a>
<g transform="translate(64.5516, 10.8270)">
<rect x="-0.0650" y="-3.1139" width="0.1300" height="3.1139" ry="0.0400" fill="currentColor"/>
</g>
<a style="color:inherit;" xlink:href="textedit:///Users/marc.mouries/projects/Sheet-Music/Classical/Rondo-Veneziano/Rondo-Veneziano_Odissea-veneziana.ly:64:4:5">
<g transform="translate(67.6468, 6.9770)">
<path transform="scale(0.0040, -0.0040)" d="M218 136c66 0 108 -36 108 -89c0 -89 -113 -183 -218 -183c-66 0 -108 36 -108 89c0 89 113 183 218 183z" fill="currentColor"/>
</g>
</a>
<g transform="translate(67.7118, 10.8270)">
<rect x="-0.0650" y="-3.6639" width="0.1300" height="3.6639" ry="0.0400" fill="currentColor"/>
</g>
<a style="color:inherit;" xlink:href="textedit:///Users/marc.mouries/projects/Sheet-Music/Classical/Rondo-Veneziano/Rondo-Veneziano_Odissea-veneziana.ly:64:7:8">
<g transform="translate(70.5570, 8.0770)">
<path transform="scale(0.0040, -0.0040)" d="M218 136c66 0 108 -36 108 -89c0 -89 -113 -183 -218 -183c-66 0 -108 36 -108 89c0 89 113 183 218 183z" fill="currentColor"/>
</g>
</a>
<g transform="translate(70.6220, 10.8270)">
<rect x="-0.0650" y="-2.5639" width="0.1300" height="2.5639" ry="0.0400" fill="currentColor"/>
</g>
<a style="color:inherit;" xlink:href="textedit:///Users/marc.mouries/projects/Sheet-Music/Classical/Rondo-Veneziano/Rondo-Veneziano_Odissea-veneziana.ly:64:9:10">
<g transform="translate(73.7172, 7.5270)">
<path transform="scale(0.0040, -0.0040)" d="M218 136c66 0 108 -36 108 -89c0 -89 -113 -183 -218 -183c-66 0 -108 36 -108 89c0 89 113 183 218 183z" fill="currentColor"/>
</g>
</a>
<g transform="translate(73.7822, 10.8270)">
<rect x="-0.0650" y="-3.1139" width="0.1300" height="3.1139" ry="0.0400" fill="currentColor"/>
</g>
<a style="color:inherit;" xlink:href="textedit:///Users/marc.mouries/projects/Sheet-Music/Classical/Rondo-Veneziano/Rondo-Veneziano_Odissea-veneziana.ly:64:12:13">
<g transform="translate(76.6274, 8.6270)">
<path transform="scale(0.0040, -0.0040)" d="M218 136c66 0 108 -36 108 -89c0 -89 -113 -183 -218 -183c-66 0 -108 36 -108 89c0 89 113 183 218 183z" fill="currentColor"/>
</g>
</a>
<a style="color:inherit;" xlink:href="textedit:///Users/marc.mouries/projects/Sheet-Music/Classical/Rondo-Veneziano/Rondo-Veneziano_Odissea-veneziana.ly:64:13:14">
<g transform="translate(76.8868, 7.5320)">
<path transform="scale(0.0022, -0.0022)" d="M261 266c0 -54 85 -40 85 -125c0 -94 -83 -141 -186 -141c-84 0 -160 54 -160 133c0 32 26 58 58 58s58 -26 58 -58c0 -22 -36 -26 -36 -48c0 -33 42 -42 80 -42c41 0 56 50 56 98v21c0 44 -2 77 -43 77h-65c-18 0 -27 14 -27 27s9 27 27 27h65c42 0 43 36 43 83v11
c0 43 -20 70 -61 70c-34 0 -71 -8 -71 -38c0 -19 32 -23 32 -42c0 -28 -23 -51 -51 -51s-51 23 -51 51c0 72 66 123 141 123c93 0 174 -31 174 -113c0 -94 -68 -67 -68 -121z" fill="currentColor"/>
</g>
</a>
<g transform="translate(76.6924, 10.8270)">
<rect x="-0.0650" y="-2.0139" width="0.1300" height="3.1139" ry="0.0400" fill="currentColor"/>
</g>
<g transform="translate(110.7044, 10.8270)">
<rect x="-0.0650" y="-3.6639" width="0.1300" height="3.6639" ry="0.0400" fill="currentColor"/>
</g>
<a style="color:inherit;" xlink:href="textedit:///Users/marc.mouries/projects/Sheet-Music/Classical/Rondo-Veneziano/Rondo-Veneziano_Odissea-veneziana.ly:64:16:17">
<g transform="translate(79.7876, 8.0770)">
<path transform="scale(0.0040, -0.0040)" d="M218 136c66 0 108 -36 108 -89c0 -89 -113 -183 -218 -183c-66 0 -108 36 -108 89c0 89 113 183 218 183z" fill="currentColor"/>
</g>
</a>
<g transform="translate(79.8526, 10.8270)">
<rect x="-0.0650" y="-2.5639" width="0.1300" height="3.6639" ry="0.0400" fill="currentColor"/>
</g>
<a style="color:inherit;" xlink:href="textedit:///Users/marc.mouries/projects/Sheet-Music/Classical/Rondo-Veneziano/Rondo-Veneziano_Odissea-veneziana.ly:64:38:39">
<g transform="translate(110.6394, 6.9770)">
<path transform="scale(0.0040, -0.0040)" d="M218 136c66 0 108 -36 108 -89c0 -89 -113 -183 -218 -183c-66 0 -108 36 -108 89c0 89 113 183 218 183z" fill="currentColor"/>
</g>
</a>
<a style="color:inherit;" xlink:href="textedit:///Users/marc.mouries/projects/Sheet-Music/Classical/Rondo-Veneziano/Rondo-Veneziano_Odissea-veneziana.ly:64:18:19">
<g transform="translate(82.6978, 9.1770)">
<path transform="scale(0.0040, -0.0040)" d="M218 136c66 0 108 -36 108 -89c0 -89 -113 -183 -218 -183c-66 0 -108 36 -108 89c0 89 113 183 218 183z" fill="currentColor"/>
</g>
</a>
<g transform="translate(82.7628, 10.8270)">
<rect x="-0.0650" y="-1.4639" width="0.1300" height="2.5639" ry="0.0400" fill="currentColor"/>
</g>
<a style="color:inherit;" xlink:href="textedit:///Users/marc.mouries/projects/Sheet-Music/Classical/Rondo-Veneziano/Rondo-Veneziano_Odissea-veneziana.ly:64:20:21">
<g transform="translate(85.8579, 8.6270)">
<path transform="scale(0.0040, -0.0040)" d="M218 136c66 0 108 -36 108 -89c0 -89 -113 -183 -218 -183c-66 0 -108 36 -108 89c0 89 113 183 218 183z" fill="currentColor"/>
</g>
</a>
<g transform="translate(85.9229, 10.8270)">
<rect x="-0.0650" y="-2.0139" width="0.1300" height="3.1139" ry="0.0400" fill="currentColor"/>
</g>
<a style="color:inherit;" xlink:href="textedit:///Users/marc.mouries/projects/Sheet-Music/Classical/Rondo-Veneziano/Rondo-Veneziano_Odissea-veneziana.ly:64:22:23">
<g transform="translate(88.7681, 9.7270)">
<path transform="scale(0.0040, -0.0040)" d="M218 136c66 0 108 -36 108 -89c0 -89 -113 -183 -218 -183c-66 0 -108 36 -108 89c0 89 113 183 218 183z" fill="currentColor"/>
</g>
</a>
<g transform="translate(88.8331, 10.8270)">
<rect x="-0.0650" y="-0.9139" width="0.1300" height="3.1052" ry="0.0400" fill="currentColor"/>
</g>
<a style="color:inherit;" xlink:href="textedit:///Users/marc.mouries/projects/Sheet-Music/Classical/Rondo-Veneziano/Rondo-Veneziano_Odissea-veneziana.ly:64:24:25">
<g transform="translate(92.1783, 5.8770)">
<path transform="scale(0.0040, -0.0040)" d="M218 136c66 0 108 -36 108 -89c0 -89 -113 -183 -218 -183c-66 0 -108 36 -108 89c0 89 113 183 218 183z" fill="currentColor"/>
</g>
</a>
<g transform="translate(92.2433, 10.8270)">
<rect x="-0.0650" y="-4.7639" width="0.1300" height="6.5008" ry="0.0400" fill="currentColor"/>
</g>
<a style="color:inherit;" xlink:href="textedit:///Users/marc.mouries/projects/Sheet-Music/Classical/Rondo-Veneziano/Rondo-Veneziano_Odissea-veneziana.ly:64:27:28">
<g transform="translate(95.3385, 6.4270)">
<path transform="scale(0.0040, -0.0040)" d="M218 136c66 0 108 -36 108 -89c0 -89 -113 -183 -218 -183c-66 0 -108 36 -108 89c0 89 113 183 218 183z" fill="currentColor"/>
</g>
</a>
<g transform="translate(95.4035, 10.8270)">
<rect x="-0.0650" y="-4.2139" width="0.1300" height="5.5297" ry="0.0400" fill="currentColor"/>
</g>
<g transform="translate(107.5442, 10.8270)">
<rect x="-0.0650" y="-3.1139" width="0.1300" height="3.1139" ry="0.0400" fill="currentColor"/>
</g>
<a style="color:inherit;" xlink:href="textedit:///Users/marc.mouries/projects/Sheet-Music/Classical/Rondo-Veneziano/Rondo-Veneziano_Odissea-veneziana.ly:64:29:30">
<g transform="translate(98.4987, 5.8770)">
<path transform="scale(0.0040, -0.0040)" d="M218 136c66 0 108 -36 108 -89c0 -89 -113 -183 -218 -183c-66 0 -108 36 -108 89c0 89 113 183 218 183z" fill="currentColor"/>
</g>
</a>
<g transform="translate(98.5637, 10.8270)">
<rect x="-0.0650" y="-4.7639" width="0.1300" height="5.6586" ry="0.0400" fill="currentColor"/>
</g>
<a style="color:inherit;" xlink:href="textedit:///Users/marc.mouries/projects/Sheet-Music/Classical/Rondo-Veneziano/Rondo-Veneziano_Odissea-veneziana.ly:64:36:37">
<g transform="translate(107.4792, 7.5270)">
<path transform="scale(0.0040, -0.0040)" d="M218 136c66 0 108 -36 108 -89c0 -89 -113 -183 -218 -183c-66 0 -108 36 -108 89c0 89 113 183 218 183z" fill="currentColor"/>
</g>
</a>
<a style="color:inherit;" xlink:href="textedit:///Users/marc.mouries/projects/Sheet-Music/Classical/Rondo-Veneziano/Rondo-Veneziano_Odissea-veneziana.ly:64:31:32">
<g transform="translate(101.4089, 6.9770)">
<path transform="scale(0.0040, -0.0040)" d="M218 136c66 0 108 -36 108 -89c0 -89 -113 -183 -218 -183c-66 0 -108 36 -108 89c0 89 113 183 218 183z" fill="currentColor"/>
</g>
</a>
<g transform="translate(101.4739, 10.8270)">
<rect x="-0.0650" y="-3.6639" width="0.1300" height="3.6639" ry="0.0400" fill="currentColor"/>
</g>
<a style="color:inherit;" xlink:href="textedit:///Users/marc.mouries/projects/Sheet-Music/Classical/Rondo-Veneziano/Rondo-Veneziano_Odissea-veneziana.ly:64:34:35">
<g transform="translate(104.5690, 6.4270)">
<path transform="scale(0.0040, -0.0040)" d="M218 136c66 0 108 -36 108 -89c0 -89 -113 -183 -218 -183c-66 0 -108 36 -108 89c0 89 113 183 218 183z" fill="currentColor"/>
</g>
</a>
<g transform="translate(104.6340, 10.8270)">
<rect x="-0.0650" y="-4.2139" width="0.1300" height="4.2139" ry="0.0400" fill="currentColor"/>
</g>
<g transform="translate(5.6906, 22.4005)">
<rect x="74.3698" y="-0.1050" width="1.9563" height="0.2100" ry="0.1050" fill="currentColor"/>
</g>
<g transform="translate(5.6906, 22.4005)">
<rect x="65.7407" y="-0.1050" width="2.0660" height="0.2100" ry="0.1050" fill="currentColor"/>
</g>
<g transform="translate(5.6906, 22.4005)">
<rect x="45.3448" y="-0.1050" width="1.9563" height="0.2100" ry="0.1050" fill="currentColor"/>
</g>
<g transform="translate(5.6906, 22.4005)">
<rect x="10.5065" y="-0.1050" width="1.9563" height="0.2100" ry="0.1050" fill="currentColor"/>
</g>
<g transform="translate(5.6906, 27.9005)">
<line stroke-linejoin="round" stroke-linecap="round" stroke-width="0.1000" stroke="currentColor" x1="0.0500" y1="0" x2="108.0705" y2="0"/>
</g>
<g transform="translate(5.6906, 26.8005)">
<line stroke-linejoin="round" stroke-linecap="round" stroke-width="0.1000" stroke="currentColor" x1="0.0500" y1="0" x2="108.0705" y2="0"/>
</g>
<g transform="translate(5.6906, 25.7005)">
<line stroke-linejoin="round" stroke-linecap="round" stroke-width="0.1000" stroke="currentColor" x1="0.0500" y1="0" x2="108.0705" y2="0"/>
</g>
<g transform="translate(5.6906, 24.6005)">
<line stroke-linejoin="round" stroke-linecap="round" stroke-width="0.1000" stroke="currentColor" x1="0.0500" y1="0" x2="108.0705" y2="0"/>
</g>
<g transform="translate(5.6906, 23.5005)">
<line stroke-linejoin="round" stroke-linecap="round" stroke-width="0.1000" stroke="currentColor" x1="0.0500" y1="0" x2="108.0705" y2="0"/>
</g>
<g transform="translate(113.6210, 25.7005)">
<rect x="0.0000" y="-2.2000" width="0.1900" height="4.4000" ry="0.0000" fill="currentColor"/>
</g>
<g transform="translate(91.7378, 25.7005)">
<rect x="0.0000" y="-2.2000" width="0.1900" height="4.4000" ry="0.0000" fill="currentColor"/>
</g>
<g transform="translate(63.3117, 25.7005)">
<rect x="0.0000" y="-2.2000" width="0.1900" height="4.4000" ry="0.0000" fill="currentColor"/>
</g>
<g transform="translate(6.4906, 26.8005)">
<path transform="scale(0.0040, -0.0040)" d="M266 -635h-6c-108 0 -195 88 -195 197c0 58 53 103 112 103c54 0 95 -47 95 -103c0 -52 -43 -95 -95 -95c-11 0 -21 2 -31 6c26 -39 68 -65 117 -65h4zM461 -203c68 24 113 90 113 164c0 90 -66 179 -173 190c19 -89 48 -242 60 -354zM74 28c0 -145 141 -247 264 -247
c1 0 47 0 82 6c-7 64 -29 203 -63 364c-79 -8 -124 -61 -124 -119c0 -44 25 -91 81 -123c5 -5 7 -10 7 -15c0 -11 -10 -22 -22 -22c-15 0 -126 62 -126 187c0 88 58 174 160 197c-14 58 -29 117 -46 175c-107 -121 -213 -243 -213 -403zM250 553c-29 96 -52 170 -52 346
c0 115 55 224 149 292c6 5 14 5 20 0c68 -80 133 -245 133 -358c0 -143 -86 -255 -180 -364c21 -68 39 -138 56 -207c2 0 7 1 13 1c155 0 256 -128 256 -261c0 -113 -74 -212 -180 -246c3 -35 5 -70 5 -105c0 -19 -1 -39 -2 -58c-7 -119 -88 -225 -202 -228l1 43
c93 2 153 92 159 191c1 18 2 37 2 55c0 31 -1 61 -4 92c-5 -1 -44 -8 -89 -8c-193 0 -333 180 -333 374c0 177 131 306 248 441zM428 916c0 34 1 66 -20 129c-99 -48 -162 -149 -162 -259c0 -52 12 -115 36 -194c80 97 146 198 146 324z" fill="currentColor"/>
</g>
<g transform="translate(10.1106, 25.7005)">
<path transform="scale(0.0040, -0.0040)" d="M27 41l-1 -66v-11c0 -22 1 -44 4 -66c45 38 93 80 93 139c0 33 -14 67 -43 67c-31 0 -52 -30 -53 -63zM-15 -138l-12 595c8 5 18 8 27 8s19 -3 27 -8l-7 -345c25 21 58 34 91 34c52 0 89 -48 89 -102c0 -80 -86 -117 -147 -169c-15 -13 -24 -38 -45 -38
c-13 0 -23 11 -23 25z" fill="currentColor"/>
</g>
<g transform="translate(3.9151, 22.4301)">
<text font-family="serif" font-size="1.7461" text-anchor="start" fill="currentColor">
<tspan>23</tspan>
</text>
</g>
<g transform="translate(98.1748, 26.9336)">
<polygon stroke-linejoin="round" stroke-linecap="round" stroke-width="0.0800" fill="currentColor" stroke="currentColor" points="2.9526 -0.1431 2.9526 0.3049 0.0400 0.2240 0.0400 -0.2240"/>
</g>
<g transform="translate(93.2538, 27.6865)">
<polygon stroke-linejoin="round" stroke-linecap="round" stroke-width="0.0800" fill="currentColor" stroke="currentColor" points="7.8735 -0.0100 7.8735 0.4380 0.0400 0.2240 0.0400 -0.2240"/>
</g>
<a style="color:inherit;" xlink:href="textedit:///Users/marc.mouries/projects/Sheet-Music/Classical/Rondo-Veneziano/Rondo-Veneziano_Odissea-veneziana.ly:67:2:3">
<g transform="translate(13.4106, 22.9505)">
<path transform="scale(0.0040, -0.0040)" d="M218 136c66 0 108 -36 108 -89c0 -89 -113 -183 -218 -183c-66 0 -108 36 -108 89c0 89 113 183 218 183z" fill="currentColor"/>
</g>
</a>
<g transform="translate(13.4756, 25.7005)">
<rect x="-0.0650" y="-2.5639" width="0.1300" height="3.4499" ry="0.0400" fill="currentColor"/>
</g>
<a style="color:inherit;" xlink:href="textedit:///Users/marc.mouries/projects/Sheet-Music/Classical/Rondo-Veneziano/Rondo-Veneziano_Odissea-veneziana.ly:73:11:12">
<g transform="translate(101.0373, 25.7005)">
<path stroke-width="0.0800" stroke-linejoin="round" stroke-linecap="round" stroke="currentColor" fill="currentColor" d="M1.5042 -1.4053C1.8744 -1.8695 2.5424 -1.8695 2.9126 -1.4053L2.9126 -1.4053C2.5424 -1.7495 1.8744 -1.7495 1.5042 -1.4053z"/>
</g>
</a>
<a style="color:inherit;" xlink:href="textedit:///Users/marc.mouries/projects/Sheet-Music/Classical/Rondo-Veneziano/Rondo-Veneziano_Odissea-veneziana.ly:67:7:8">
<g transform="translate(16.5231, 22.4005)">
<path transform="scale(0.0040, -0.0040)" d="M218 136c66 0 108 -36 108 -89c0 -89 -113 -183 -218 -183c-66 0 -108 36 -108 89c0 89 113 183 218 183z" fill="currentColor"/>
</g>
</a>
<g transform="translate(16.5881, 25.7005)">
<rect x="-0.0650" y="-3.1139" width="0.1300" height="3.9999" ry="0.0400" fill="currentColor"/>
</g>
<g transform="translate(80.3864, 25.9145)">
<polygon stroke-linejoin="round" stroke-linecap="round" stroke-width="0.0800" fill="currentColor" stroke="currentColor" points="7.8162 0.4480 7.8162 0.8960 0.0400 0.2240 0.0400 -0.2240"/>
</g>
<a style="color:inherit;" xlink:href="textedit:///Users/marc.mouries/projects/Sheet-Music/Classical/Rondo-Veneziano/Rondo-Veneziano_Odissea-veneziana.ly:67:10:11">
<g transform="translate(19.3857, 23.5005)">
<path transform="scale(0.0040, -0.0040)" d="M218 136c66 0 108 -36 108 -89c0 -89 -113 -183 -218 -183c-66 0 -108 36 -108 89c0 89 113 183 218 183z" fill="currentColor"/>
</g>
</a>
<g transform="translate(19.4507, 25.7005)">
<rect x="-0.0650" y="-2.0139" width="0.1300" height="2.8999" ry="0.0400" fill="currentColor"/>
</g>
<a style="color:inherit;" xlink:href="textedit:///Users/marc.mouries/projects/Sheet-Music/Classical/Rondo-Veneziano/Rondo-Veneziano_Odissea-veneziana.ly:72:2:3">
<g transform="translate(83.8706, 28.1998)">
<text font-family="serif" font-style="italic" font-size="1.7461" text-anchor="start" fill="currentColor">
<tspan>3</tspan>
</text>
</g>
</a>
<a style="color:inherit;" xlink:href="textedit:///Users/marc.mouries/projects/Sheet-Music/Classical/Rondo-Veneziano/Rondo-Veneziano_Odissea-veneziana.ly:67:14:15">
<g transform="translate(22.4983, 22.9505)">
<path transform="scale(0.0040, -0.0040)" d="M218 136c66 0 108 -36 108 -89c0 -89 -113 -183 -218 -183c-66 0 -108 36 -108 89c0 89 113 183 218 183z" fill="currentColor"/>
</g>
</a>
<g transform="translate(22.5633, 25.7005)">
<rect x="-0.0650" y="-2.5639" width="0.1300" height="3.4499" ry="0.0400" fill="currentColor"/>
</g>
<a style="color:inherit;" xlink:href="textedit:///Users/marc.mouries/projects/Sheet-Music/Classical/Rondo-Veneziano/Rondo-Veneziano_Odissea-veneziana.ly:72:2:3">
</a>
<a style="color:inherit;" xlink:href="textedit:///Users/marc.mouries/projects/Sheet-Music/Classical/Rondo-Veneziano/Rondo-Veneziano_Odissea-veneziana.ly:68:2:3">
<g transform="translate(25.3608, 24.0505)">
<path transform="scale(0.0040, -0.0040)" d="M218 136c66 0 108 -36 108 -89c0 -89 -113 -183 -218 -183c-66 0 -108 36 -108 89c0 89 113 183 218 183z" fill="currentColor"/>
</g>
</a>
<g transform="translate(25.4258, 25.7005)">
<rect x="-0.0650" y="-1.4639" width="0.1300" height="3.4499" ry="0.0400" fill="currentColor"/>
</g>
<g transform="translate(51.3614, 25.9145)">
<polygon stroke-linejoin="round" stroke-linecap="round" stroke-width="0.0800" fill="currentColor" stroke="currentColor" points="9.1777 0.6620 9.1777 1.1100 0.0400 0.2240 0.0400 -0.2240"/>
</g>
<g transform="translate(51.3614, 26.8005)">
<polygon stroke-linejoin="round" stroke-linecap="round" stroke-width="0.0800" fill="currentColor" stroke="currentColor" points="9.1777 0.6620 9.1777 1.1100 0.0400 0.2240 0.0400 -0.2240"/>
</g>
<a style="color:inherit;" xlink:href="textedit:///Users/marc.mouries/projects/Sheet-Music/Classical/Rondo-Veneziano/Rondo-Veneziano_Odissea-veneziana.ly:68:7:8">
<g transform="translate(28.4734, 23.5005)">
<path transform="scale(0.0040, -0.0040)" d="M218 136c66 0 108 -36 108 -89c0 -89 -113 -183 -218 -183c-66 0 -108 36 -108 89c0 89 113 183 218 183z" fill="currentColor"/>
</g>
</a>
<g transform="translate(28.5384, 25.7005)">
<rect x="-0.0650" y="-2.0139" width="0.1300" height="3.9999" ry="0.0400" fill="currentColor"/>
</g>
<g transform="translate(38.4111, 28.6645)">
<polygon stroke-linejoin="round" stroke-linecap="round" stroke-width="0.0800" fill="currentColor" stroke="currentColor" points="9.6777 -0.7740 9.6777 -0.3260 0.0400 0.2240 0.0400 -0.2240"/>
</g>
<g transform="translate(38.4111, 29.5505)">
<polygon stroke-linejoin="round" stroke-linecap="round" stroke-width="0.0800" fill="currentColor" stroke="currentColor" points="9.6777 -0.7740 9.6777 -0.3260 0.0400 0.2240 0.0400 -0.2240"/>
</g>
<a style="color:inherit;" xlink:href="textedit:///Users/marc.mouries/projects/Sheet-Music/Classical/Rondo-Veneziano/Rondo-Veneziano_Odissea-veneziana.ly:68:10:11">
<g transform="translate(31.3360, 24.6005)">
<path transform="scale(0.0040, -0.0040)" d="M218 136c66 0 108 -36 108 -89c0 -89 -113 -183 -218 -183c-66 0 -108 36 -108 89c0 89 113 183 218 183z" fill="currentColor"/>
</g>
</a>
<g transform="translate(31.4010, 25.7005)">
<rect x="-0.0650" y="-0.9139" width="0.1300" height="2.8999" ry="0.0400" fill="currentColor"/>
</g>
<g transform="translate(25.3608, 26.8005)">
<polygon stroke-linejoin="round" stroke-linecap="round" stroke-width="0.0800" fill="currentColor" stroke="currentColor" points="9.1777 -0.2240 9.1777 0.2240 0.0400 0.2240 0.0400 -0.2240"/>
</g>
<g transform="translate(25.3608, 27.6865)">
<polygon stroke-linejoin="round" stroke-linecap="round" stroke-width="0.0800" fill="currentColor" stroke="currentColor" points="9.1777 -0.2240 9.1777 0.2240 0.0400 0.2240 0.0400 -0.2240"/>
</g>
<a style="color:inherit;" xlink:href="textedit:///Users/marc.mouries/projects/Sheet-Music/Classical/Rondo-Veneziano/Rondo-Veneziano_Odissea-veneziana.ly:68:14:15">
<g transform="translate(34.4485, 24.0505)">
<path transform="scale(0.0040, -0.0040)" d="M218 136c66 0 108 -36 108 -89c0 -89 -113 -183 -218 -183c-66 0 -108 36 -108 89c0 89 113 183 218 183z" fill="currentColor"/>
</g>
</a>
<g transform="translate(34.5135, 25.7005)">
<rect x="-0.0650" y="-1.4639" width="0.1300" height="3.4499" ry="0.0400" fill="currentColor"/>
</g>
<g transform="translate(13.4106, 25.7005)">
<polygon stroke-linejoin="round" stroke-linecap="round" stroke-width="0.0800" fill="currentColor" stroke="currentColor" points="9.1777 -0.2240 9.1777 0.2240 0.0400 0.2240 0.0400 -0.2240"/>
</g>
<g transform="translate(13.4106, 26.5865)">
<polygon stroke-linejoin="round" stroke-linecap="round" stroke-width="0.0800" fill="currentColor" stroke="currentColor" points="9.1777 -0.2240 9.1777 0.2240 0.0400 0.2240 0.0400 -0.2240"/>
</g>
<a style="color:inherit;" xlink:href="textedit:///Users/marc.mouries/projects/Sheet-Music/Classical/Rondo-Veneziano/Rondo-Veneziano_Odissea-veneziana.ly:69:2:3">
<g transform="translate(38.4111, 25.1505)">
<path transform="scale(0.0040, -0.0040)" d="M218 136c66 0 108 -36 108 -89c0 -89 -113 -183 -218 -183c-66 0 -108 36 -108 89c0 89 113 183 218 183z" fill="currentColor"/>
</g>
</a>
<g transform="translate(38.4761, 25.7005)">
<rect x="-0.0650" y="-0.3639" width="0.1300" height="4.2102" ry="0.0400" fill="currentColor"/>
</g>
<g transform="translate(36.9611, 25.1505)">
<path transform="scale(0.0040, -0.0040)" d="M0 119c0 8 5 15 13 18l46 17v158c0 10 8 19 18 19s19 -9 19 -19v-145l83 31v158c0 10 9 19 19 19s18 -9 18 -19v-145l32 12c2 1 5 1 7 1c11 0 20 -9 20 -20v-60c0 -8 -5 -16 -13 -19l-46 -16v-160l32 11c2 1 5 1 7 1c11 0 20 -9 20 -20v-60c0 -8 -5 -15 -13 -18l-46 -17
v-158c0 -10 -8 -19 -18 -19s-19 9 -19 19v145l-83 -31v-158c0 -10 -9 -19 -19 -19s-18 9 -18 19v145l-32 -12c-2 -1 -5 -1 -7 -1c-11 0 -20 9 -20 20v60c0 8 5 16 13 19l46 16v160l-32 -11c-2 -1 -5 -1 -7 -1c-11 0 -20 9 -20 20v60zM179 95l-83 -30v-160l83 30v160z" fill="currentColor"/>
</g>
<a style="color:inherit;" xlink:href="textedit:///Users/marc.mouries/projects/Sheet-Music/Classical/Rondo-Veneziano/Rondo-Veneziano_Odissea-veneziana.ly:69:7:8">
<g transform="translate(41.2737, 26.2505)">
<path transform="scale(0.0040, -0.0040)" d="M218 136c66 0 108 -36 108 -89c0 -89 -113 -183 -218 -183c-66 0 -108 36 -108 89c0 89 113 183 218 183z" fill="currentColor"/>
</g>
</a>
<g transform="translate(41.3387, 25.7005)">
<rect x="-0.0650" y="0.7361" width="0.1300" height="2.9482" ry="0.0400" fill="currentColor"/>
</g>
<a style="color:inherit;" xlink:href="textedit:///Users/marc.mouries/projects/Sheet-Music/Classical/Rondo-Veneziano/Rondo-Veneziano_Odissea-veneziana.ly:69:10:11">
<g transform="translate(44.6363, 25.1505)">
<path transform="scale(0.0040, -0.0040)" d="M218 136c66 0 108 -36 108 -89c0 -89 -113 -183 -218 -183c-66 0 -108 36 -108 89c0 89 113 183 218 183z" fill="currentColor"/>
</g>
</a>
<g transform="translate(44.7013, 25.7005)">
<rect x="-0.0650" y="-0.3639" width="0.1300" height="3.8579" ry="0.0400" fill="currentColor"/>
</g>
<a style="color:inherit;" xlink:href="textedit:///Users/marc.mouries/projects/Sheet-Music/Classical/Rondo-Veneziano/Rondo-Veneziano_Odissea-veneziana.ly:69:14:15">
<g transform="translate(47.9988, 24.0505)">
<path transform="scale(0.0040, -0.0040)" d="M218 136c66 0 108 -36 108 -89c0 -89 -113 -183 -218 -183c-66 0 -108 36 -108 89c0 89 113 183 218 183z" fill="currentColor"/>
</g>
</a>
<g transform="translate(48.0638, 25.7005)">
<rect x="-0.0650" y="-1.4639" width="0.1300" height="4.7676" ry="0.0400" fill="currentColor"/>
</g>
<a style="color:inherit;" xlink:href="textedit:///Users/marc.mouries/projects/Sheet-Music/Classical/Rondo-Veneziano/Rondo-Veneziano_Odissea-veneziana.ly:70:2:3">
<g transform="translate(51.3614, 22.4005)">
<path transform="scale(0.0040, -0.0040)" d="M218 136c66 0 108 -36 108 -89c0 -89 -113 -183 -218 -183c-66 0 -108 36 -108 89c0 89 113 183 218 183z" fill="currentColor"/>
</g>
</a>
<g transform="translate(51.4264, 25.7005)">
<rect x="-0.0650" y="-3.1139" width="0.1300" height="4.2201" ry="0.0400" fill="currentColor"/>
</g>
<a style="color:inherit;" xlink:href="textedit:///Users/marc.mouries/projects/Sheet-Music/Classical/Rondo-Veneziano/Rondo-Veneziano_Odissea-veneziana.ly:70:7:8">
<g transform="translate(54.4740, 22.9505)">
<path transform="scale(0.0040, -0.0040)" d="M218 136c66 0 108 -36 108 -89c0 -89 -113 -183 -218 -183c-66 0 -108 36 -108 89c0 89 113 183 218 183z" fill="currentColor"/>
</g>
</a>
<g transform="translate(54.5390, 25.7005)">
<rect x="-0.0650" y="-2.5639" width="0.1300" height="3.9693" ry="0.0400" fill="currentColor"/>
</g>
<a style="color:inherit;" xlink:href="textedit:///Users/marc.mouries/projects/Sheet-Music/Classical/Rondo-Veneziano/Rondo-Veneziano_Odissea-veneziana.ly:70:10:11">
<g transform="translate(57.3365, 24.0505)">
<path transform="scale(0.0040, -0.0040)" d="M218 136c66 0 108 -36 108 -89c0 -89 -113 -183 -218 -183c-66 0 -108 36 -108 89c0 89 113 183 218 183z" fill="currentColor"/>
</g>
</a>
<g transform="translate(57.4015, 25.7005)">
<rect x="-0.0650" y="-1.4639" width="0.1300" height="3.1445" ry="0.0400" fill="currentColor"/>
</g>
<a style="color:inherit;" xlink:href="textedit:///Users/marc.mouries/projects/Sheet-Music/Classical/Rondo-Veneziano/Rondo-Veneziano_Odissea-veneziana.ly:70:14:15">
<g transform="translate(60.4491, 23.5005)">
<path transform="scale(0.0040, -0.0040)" d="M218 136c66 0 108 -36 108 -89c0 -89 -113 -183 -218 -183c-66 0 -108 36 -108 89c0 89 113 183 218 183z" fill="currentColor"/>
</g>
</a>
<g transform="translate(60.5141, 25.7005)">
<rect x="-0.0650" y="-2.0139" width="0.1300" height="3.9936" ry="0.0400" fill="currentColor"/>
</g>
<a style="color:inherit;" xlink:href="textedit:///Users/marc.mouries/projects/Sheet-Music/Classical/Rondo-Veneziano/Rondo-Veneziano_Odissea-veneziana.ly:71:2:3">
<g transform="translate(64.7963, 24.6005)">
<path transform="scale(0.0040, -0.0040)" d="M218 136c66 0 108 -36 108 -89c0 -89 -113 -183 -218 -183c-66 0 -108 36 -108 89c0 89 113 183 218 183z" fill="currentColor"/>
</g>
</a>
<g transform="translate(64.8613, 25.7005)">
<rect x="-0.0650" y="-0.9139" width="0.1300" height="3.6639" ry="0.0400" fill="currentColor"/>
</g>
<a style="color:inherit;" xlink:href="textedit:///Users/marc.mouries/projects/Sheet-Music/Classical/Rondo-Veneziano/Rondo-Veneziano_Odissea-veneziana.ly:71:7:8">
<g transform="translate(71.7756, 22.4005)">
<path transform="scale(0.0040, -0.0040)" d="M314 65c0 23 -19 41 -42 41c-39 0 -204 -110 -231 -143c-7 -8 -10 -18 -10 -28c0 -23 19 -41 42 -41c39 0 203 110 230 143c7 8 11 18 11 28zM262 136c41 0 82 -14 82 -71c0 -26 -16 -112 -74 -151c-25 -17 -87 -50 -187 -50c-41 0 -83 14 -83 71c0 26 16 112 74 151
c25 17 88 50 188 50z" fill="currentColor"/>
</g>
</a>
<g transform="translate(71.8406, 25.7005)">
<rect x="-0.0650" y="-3.0410" width="0.1300" height="3.5910" ry="0.0400" fill="currentColor"/>
</g>
<a style="color:inherit;" xlink:href="textedit:///Users/marc.mouries/projects/Sheet-Music/Classical/Rondo-Veneziano/Rondo-Veneziano_Odissea-veneziana.ly:72:15:16">
<g transform="translate(80.3864, 22.4005)">
<path transform="scale(0.0040, -0.0040)" d="M218 136c66 0 108 -36 108 -89c0 -89 -113 -183 -218 -183c-66 0 -108 36 -108 89c0 89 113 183 218 183z" fill="currentColor"/>
</g>
</a>
<g transform="translate(80.4514, 25.7005)">
<rect x="-0.0650" y="-3.1139" width="0.1300" height="3.3335" ry="0.0400" fill="currentColor"/>
</g>
<a style="color:inherit;" xlink:href="textedit:///Users/marc.mouries/projects/Sheet-Music/Classical/Rondo-Veneziano/Rondo-Veneziano_Odissea-veneziana.ly:72:18:19">
<g transform="translate(84.2495, 22.9505)">
<path transform="scale(0.0040, -0.0040)" d="M218 136c66 0 108 -36 108 -89c0 -89 -113 -183 -218 -183c-66 0 -108 36 -108 89c0 89 113 183 218 183z" fill="currentColor"/>
</g>
</a>
<g transform="translate(84.3145, 25.7005)">
<rect x="-0.0650" y="-2.5639" width="0.1300" height="3.1139" ry="0.0400" fill="currentColor"/>
</g>
<a style="color:inherit;" xlink:href="textedit:///Users/marc.mouries/projects/Sheet-Music/Classical/Rondo-Veneziano/Rondo-Veneziano_Odissea-veneziana.ly:72:20:21">
<g transform="translate(88.1126, 23.5005)">
<path transform="scale(0.0040, -0.0040)" d="M218 136c66 0 108 -36 108 -89c0 -89 -113 -183 -218 -183c-66 0 -108 36 -108 89c0 89 113 183 218 183z" fill="currentColor"/>
</g>
</a>
<g transform="translate(88.1776, 25.7005)">
<rect x="-0.0650" y="-2.0139" width="0.1300" height="2.8943" ry="0.0400" fill="currentColor"/>
</g>
<a style="color:inherit;" xlink:href="textedit:///Users/marc.mouries/projects/Sheet-Music/Classical/Rondo-Veneziano/Rondo-Veneziano_Odissea-veneziana.ly:73:2:3">
<g transform="translate(93.2538, 24.0505)">
<path transform="scale(0.0040, -0.0040)" d="M218 136c66 0 108 -36 108 -89c0 -89 -113 -183 -218 -183c-66 0 -108 36 -108 89c0 89 113 183 218 183z" fill="currentColor"/>
</g>
</a>
<g transform="translate(93.3188, 25.7005)">
<rect x="-0.0650" y="-1.4639" width="0.1300" height="3.4517" ry="0.0400" fill="currentColor"/>
</g>
<g transform="translate(104.2149, 25.7005)">
<rect x="-0.0650" y="-0.8410" width="0.1300" height="3.5910" ry="0.0400" fill="currentColor"/>
</g>
<a style="color:inherit;" xlink:href="textedit:///Users/marc.mouries/projects/Sheet-Music/Classical/Rondo-Veneziano/Rondo-Veneziano_Odissea-veneziana.ly:73:5:6">
<g transform="translate(98.1748, 23.5005)">
<path transform="scale(0.0040, -0.0040)" d="M218 136c66 0 108 -36 108 -89c0 -89 -113 -183 -218 -183c-66 0 -108 36 -108 89c0 89 113 183 218 183z" fill="currentColor"/>
</g>
</a>
<g transform="translate(98.2398, 25.7005)">
<rect x="-0.0650" y="-2.0139" width="0.1300" height="4.1347" ry="0.0400" fill="currentColor"/>
</g>
<g transform="translate(105.9772, 24.0505)">
<path transform="scale(0.0040, -0.0040)" d="M0 0c0 31 25 56 56 56s56 -25 56 -56s-25 -56 -56 -56s-56 25 -56 56z" fill="currentColor"/>
</g>
<a style="color:inherit;" xlink:href="textedit:///Users/marc.mouries/projects/Sheet-Music/Classical/Rondo-Veneziano/Rondo-Veneziano_Odissea-veneziana.ly:73:9:10">
<g transform="translate(101.0373, 24.6005)">
<path transform="scale(0.0040, -0.0040)" d="M218 136c66 0 108 -36 108 -89c0 -89 -113 -183 -218 -183c-66 0 -108 36 -108 89c0 89 113 183 218 183z" fill="currentColor"/>
</g>
</a>
<g transform="translate(101.1023, 25.7005)">
<rect x="-0.0650" y="-0.9139" width="0.1300" height="3.1121" ry="0.0400" fill="currentColor"/>
</g>
<a style="color:inherit;" xlink:href="textedit:///Users/marc.mouries/projects/Sheet-Music/Classical/Rondo-Veneziano/Rondo-Veneziano_Odissea-veneziana.ly:73:13:14">
<g transform="translate(104.1499, 24.6005)">
<path transform="scale(0.0040, -0.0040)" d="M314 65c0 23 -19 41 -42 41c-39 0 -204 -110 -231 -143c-7 -8 -10 -18 -10 -28c0 -23 19 -41 42 -41c39 0 203 110 230 143c7 8 11 18 11 28zM262 136c41 0 82 -14 82 -71c0 -26 -16 -112 -74 -151c-25 -17 -87 -50 -187 -50c-41 0 -83 14 -83 71c0 26 16 112 74 151
c25 17 88 50 188 50z" fill="currentColor"/>
</g>
</a>
</svg>
