<svg xmlns="http://www.w3.org/2000/svg" xmlns:xlink="http://www.w3.org/1999/xlink" version="1.2" width="210.00mm" height="297.00mm" viewBox="0.0000 -0.0000 119.5016 169.0094">
<style type="text/css">
<![CDATA[
tspan { white-space: pre; }
]]>
</style>
<g transform="translate(44.2497, 6.8594)">
<text font-family="Optima" font-weight="bold" font-size="4.4002" text-anchor="start" fill="currentColor">
<tspan>J</tspan>
</text>
</g>
<g transform="translate(45.7179, 6.8594)">
<text font-family="Optima" font-weight="bold" font-size="3.4921" text-anchor="start" fill="currentColor">
<tspan>ERUSALEM</tspan>
</text>
</g>
<g transform="translate(62.9603, 6.8594)">
<text font-family="Optima" font-weight="bold" font-size="4.4002" text-anchor="start" fill="currentColor">
<tspan> R</tspan>
</text>
</g>
<g transform="translate(66.8867, 6.8594)">
<text font-family="Optima" font-weight="bold" font-size="3.4921" text-anchor="start" fill="currentColor">
<tspan>IDGE</tspan>
</text>
</g>
<g transform="translate(103.7729, 6.8594)">
<text font-family="Optima" font-size="1.9600" text-anchor="start" fill="currentColor">
<tspan>Bill Monroe</tspan>
</text>
</g>
<g transform="translate(104.7922, 25.8761)">
<rect x="0.0000" y="-2.2000" width="0.1900" height="4.4000" ry="0.0000" fill="currentColor"/>
</g>
<g transform="translate(5.6906, 29.1761)">
<rect x="96.1285" y="-0.1050" width="1.9563" height="0.2100" ry="0.1050" fill="currentColor"/>
</g>
<g transform="translate(5.6906, 30.2761)">
<rect x="96.1285" y="-0.1050" width="1.9563" height="0.2100" ry="0.1050" fill="currentColor"/>
</g>
<g transform="translate(5.6906, 29.1761)">
<rect x="93.6243" y="-0.1050" width="1.9563" height="0.2100" ry="0.1050" fill="currentColor"/>
</g>
<g transform="translate(5.6906, 30.2761)">
<rect x="93.6243" y="-0.1050" width="1.9563" height="0.2100" ry="0.1050" fill="currentColor"/>
</g>
<g transform="translate(5.6906, 29.1761)">
<rect x="91.3701" y="-0.1050" width="1.9563" height="0.2100" ry="0.1050" fill="currentColor"/>
</g>
<g transform="translate(5.6906, 29.1761)">
<rect x="83.6074" y="-0.1050" width="1.9563" height="0.2100" ry="0.1050" fill="currentColor"/>
</g>
<g transform="translate(5.6906, 29.1761)">
<rect x="62.0315" y="-0.1050" width="1.9563" height="0.2100" ry="0.1050" fill="currentColor"/>
</g>
<g transform="translate(5.6906, 29.1761)">
<rect x="59.5273" y="-0.1050" width="1.9563" height="0.2100" ry="0.1050" fill="currentColor"/>
</g>
<g transform="translate(5.6906, 29.1761)">
<rect x="57.0231" y="-0.1050" width="1.9563" height="0.2100" ry="0.1050" fill="currentColor"/>
</g>
<g transform="translate(5.6906, 30.2761)">
<rect x="57.0231" y="-0.1050" width="1.9563" height="0.2100" ry="0.1050" fill="currentColor"/>
</g>
<g transform="translate(5.6906, 29.1761)">
<rect x="53.1789" y="-0.1050" width="1.9563" height="0.2100" ry="0.1050" fill="currentColor"/>
</g>
<g transform="translate(5.6906, 29.1761)">
<rect x="48.1705" y="-0.1050" width="1.9563" height="0.2100" ry="0.1050" fill="currentColor"/>
</g>
<g transform="translate(5.6906, 29.1761)">
<rect x="40.4078" y="-0.1050" width="1.9563" height="0.2100" ry="0.1050" fill="currentColor"/>
</g>
<g transform="translate(5.6906, 29.1761)">
<rect x="19.0729" y="-0.1050" width="1.9563" height="0.2100" ry="0.1050" fill="currentColor"/>
</g>
<g transform="translate(5.6906, 29.1761)">
<rect x="16.5687" y="-0.1050" width="1.9563" height="0.2100" ry="0.1050" fill="currentColor"/>
</g>
<g transform="translate(5.6906, 29.1761)">
<rect x="14.0645" y="-0.1050" width="1.9563" height="0.2100" ry="0.1050" fill="currentColor"/>
</g>
<g transform="translate(5.6906, 30.2761)">
<rect x="14.0645" y="-0.1050" width="1.9563" height="0.2100" ry="0.1050" fill="currentColor"/>
</g>
<g transform="translate(11.3811, 28.0761)">
<line stroke-linejoin="round" stroke-linecap="round" stroke-width="0.1000" stroke="currentColor" x1="0.0500" y1="0" x2="93.5511" y2="0"/>
</g>
<g transform="translate(11.3811, 26.9761)">
<line stroke-linejoin="round" stroke-linecap="round" stroke-width="0.1000" stroke="currentColor" x1="0.0500" y1="0" x2="93.5511" y2="0"/>
</g>
<g transform="translate(11.3811, 25.8761)">
<line stroke-linejoin="round" stroke-linecap="round" stroke-width="0.1000" stroke="currentColor" x1="0.0500" y1="0" x2="93.5511" y2="0"/>
</g>
<g transform="translate(11.3811, 24.7761)">
<line stroke-linejoin="round" stroke-linecap="round" stroke-width="0.1000" stroke="currentColor" x1="0.0500" y1="0" x2="93.5511" y2="0"/>
</g>
<g transform="translate(11.3811, 23.6761)">
<line stroke-linejoin="round" stroke-linecap="round" stroke-width="0.1000" stroke="currentColor" x1="0.0500" y1="0" x2="93.5511" y2="0"/>
</g>
<g transform="translate(83.5256, 25.8761)">
<rect x="0.0000" y="-2.2000" width="0.1900" height="4.4000" ry="0.0000" fill="currentColor"/>
</g>
<g transform="translate(61.9497, 25.8761)">
<rect x="0.0000" y="-2.2000" width="0.1900" height="4.4000" ry="0.0000" fill="currentColor"/>
</g>
<g transform="translate(40.3260, 25.8761)">
<rect x="0.0000" y="-2.2000" width="0.1900" height="4.4000" ry="0.0000" fill="currentColor"/>
</g>
<g transform="translate(96.0567, 25.6621)">
<polygon stroke-linejoin="round" stroke-linecap="round" stroke-width="0.0800" fill="currentColor" stroke="currentColor" points="2.5942 -0.0100 2.5942 0.4380 0.0400 0.2240 0.0400 -0.2240"/>
</g>
<a style="color:inherit;" xlink:href="textedit:///Users/marc.mouries/projects/Sheet-Music/Folk_USA/Jerusalem-Ridge/Jerusulam-Ridge_-Kenny-Baker.ly:24:2:3">
<g transform="translate(20.0811, 23.1261)">
<text font-family="sans-serif" font-size="2.6163" text-anchor="start" fill="currentColor">
<tspan>A</tspan>
</text>
</g>
<g transform="translate(21.8565, 23.1261)">
<text font-family="sans-serif" font-size="2.6163" text-anchor="start" fill="currentColor">
<tspan>m</tspan>
</text>
</g>
</a>
<a style="color:inherit;" xlink:href="textedit:///Users/marc.mouries/projects/Sheet-Music/Folk_USA/Jerusalem-Ridge/Jerusulam-Ridge_-Kenny-Baker.ly:30:2:3">
<g transform="translate(20.0811, 30.2761)">
<path transform="scale(0.0040, -0.0040)" d="M218 136c66 0 108 -36 108 -89c0 -89 -113 -183 -218 -183c-66 0 -108 36 -108 89c0 89 113 183 218 183z" fill="currentColor"/>
</g>
</a>
<g transform="translate(12.1811, 26.9761)">
<path transform="scale(0.0040, -0.0040)" d="M266 -635h-6c-108 0 -195 88 -195 197c0 58 53 103 112 103c54 0 95 -47 95 -103c0 -52 -43 -95 -95 -95c-11 0 -21 2 -31 6c26 -39 68 -65 117 -65h4zM461 -203c68 24 113 90 113 164c0 90 -66 179 -173 190c19 -89 48 -242 60 -354zM74 28c0 -145 141 -247 264 -247
c1 0 47 0 82 6c-7 64 -29 203 -63 364c-79 -8 -124 -61 -124 -119c0 -44 25 -91 81 -123c5 -5 7 -10 7 -15c0 -11 -10 -22 -22 -22c-15 0 -126 62 -126 187c0 88 58 174 160 197c-14 58 -29 117 -46 175c-107 -121 -213 -243 -213 -403zM250 553c-29 96 -52 170 -52 346
c0 115 55 224 149 292c6 5 14 5 20 0c68 -80 133 -245 133 -358c0 -143 -86 -255 -180 -364c21 -68 39 -138 56 -207c2 0 7 1 13 1c155 0 256 -128 256 -261c0 -113 -74 -212 -180 -246c3 -35 5 -70 5 -105c0 -19 -1 -39 -2 -58c-7 -119 -88 -225 -202 -228l1 43
c93 2 153 92 159 191c1 18 2 37 2 55c0 31 -1 61 -4 92c-5 -1 -44 -8 -89 -8c-193 0 -333 180 -333 374c0 177 131 306 248 441zM428 916c0 34 1 66 -20 129c-99 -48 -162 -149 -162 -259c0 -52 12 -115 36 -194c80 97 146 198 146 324z" fill="currentColor"/>
</g>
<a style="color:inherit;" xlink:href="textedit:///Users/marc.mouries/projects/Sheet-Music/Folk_USA/Jerusalem-Ridge/Jerusulam-Ridge_-Kenny-Baker.ly:18:2:3">
</a>
<a style="color:inherit;" xlink:href="textedit:///Users/marc.mouries/projects/Sheet-Music/Folk_USA/Jerusalem-Ridge/Jerusulam-Ridge_-Kenny-Baker.ly:17:2:3">
<g transform="translate(16.3811, 25.8761)">
<path transform="scale(0.0040, -0.0040)" d="M250 262c116 0 176 -106 176 -163c0 -40 -30 -72 -67 -72c-31 0 -75 25 -75 75c0 38 27 77 72 77c4 0 9 0 14 -1c-28 37 -72 59 -120 59c-106 0 -113 -73 -113 -186v-51v-51c0 -113 7 -187 113 -187c80 0 139 70 158 151c2 7 7 10 12 10c6 0 13 -4 13 -12
c0 -22 -50 -174 -183 -174c-59 0 -250 19 -250 263c0 62 18 262 250 262z" fill="currentColor"/>
</g>
</a>
<a style="color:inherit;" xlink:href="textedit:///Users/marc.mouries/projects/Sheet-Music/Folk_USA/Jerusalem-Ridge/Jerusulam-Ridge_-Kenny-Baker.ly:19:2:3">
<g transform="translate(16.3811, 20.2493)">
<rect x="1.0449" y="-2.6727" width="0.1158" height="2.5129" ry="0.0193" fill="currentColor"/>
</g>
<g transform="translate(16.3811, 20.2493)">
<path transform="scale(0.0036, -0.0036)" d="M215 137c67 0 111 -37 111 -92c0 -90 -111 -182 -215 -182c-67 0 -111 37 -111 92c0 90 111 182 215 182z" fill="currentColor"/>
</g>
<g transform="translate(17.5418, 20.7381)">
<text font-family="serif" font-size="2.2001" text-anchor="start" fill="currentColor">
<tspan> = 100</tspan>
</text>
</g>
</a>
<g transform="translate(21.3203, 25.8761)">
<rect x="-0.0650" y="-0.0053" width="0.1300" height="4.2192" ry="0.0400" fill="currentColor"/>
</g>
<a style="color:inherit;" xlink:href="textedit:///Users/marc.mouries/projects/Sheet-Music/Folk_USA/Jerusalem-Ridge/Jerusulam-Ridge_-Kenny-Baker.ly:33:24:25">
<g transform="translate(97.3867, 25.8761)">
<path stroke-width="0.0800" stroke-linejoin="round" stroke-linecap="round" stroke="currentColor" fill="currentColor" d="M0.5097 4.3950C1.2751 5.8094 3.7914 6.6819 5.2681 6.0450L5.2681 6.0450C3.8307 6.5686 1.3144 5.6960 0.5097 4.3950z"/>
</g>
</a>
<a style="color:inherit;" xlink:href="textedit:///Users/marc.mouries/projects/Sheet-Music/Folk_USA/Jerusalem-Ridge/Jerusulam-Ridge_-Kenny-Baker.ly:30:5:6">
<g transform="translate(22.5853, 29.7261)">
<path transform="scale(0.0040, -0.0040)" d="M218 136c66 0 108 -36 108 -89c0 -89 -113 -183 -218 -183c-66 0 -108 36 -108 89c0 89 113 183 218 183z" fill="currentColor"/>
</g>
</a>
<g transform="translate(23.8245, 25.8761)">
<rect x="-0.0650" y="-0.2087" width="0.1300" height="3.8726" ry="0.0400" fill="currentColor"/>
</g>
<g transform="translate(90.7982, 25.6621)">
<polygon stroke-linejoin="round" stroke-linecap="round" stroke-width="0.0800" fill="currentColor" stroke="currentColor" points="2.8442 -0.8960 2.8442 -0.4480 0.0400 0.2240 0.0400 -0.2240"/>
</g>
<a style="color:inherit;" xlink:href="textedit:///Users/marc.mouries/projects/Sheet-Music/Folk_USA/Jerusalem-Ridge/Jerusulam-Ridge_-Kenny-Baker.ly:30:7:8">
<g transform="translate(25.0895, 29.1761)">
<path transform="scale(0.0040, -0.0040)" d="M218 136c66 0 108 -36 108 -89c0 -89 -113 -183 -218 -183c-66 0 -108 36 -108 89c0 89 113 183 218 183z" fill="currentColor"/>
</g>
</a>
<g transform="translate(26.3287, 25.8761)">
<rect x="-0.0650" y="-0.0053" width="0.1300" height="3.1192" ry="0.0400" fill="currentColor"/>
</g>
<g transform="translate(85.7898, 24.7761)">
<polygon stroke-linejoin="round" stroke-linecap="round" stroke-width="0.0800" fill="currentColor" stroke="currentColor" points="2.5942 -0.0100 2.5942 0.4380 0.0400 0.2240 0.0400 -0.2240"/>
</g>
<a style="color:inherit;" xlink:href="textedit:///Users/marc.mouries/projects/Sheet-Music/Folk_USA/Jerusalem-Ridge/Jerusulam-Ridge_-Kenny-Baker.ly:30:9:10">
<g transform="translate(27.5937, 28.6261)">
<path transform="scale(0.0040, -0.0040)" d="M218 136c66 0 108 -36 108 -89c0 -89 -113 -183 -218 -183c-66 0 -108 36 -108 89c0 89 113 183 218 183z" fill="currentColor"/>
</g>
</a>
<g transform="translate(28.8329, 25.8761)">
<rect x="-0.0650" y="-0.2087" width="0.1300" height="2.7726" ry="0.0400" fill="currentColor"/>
</g>
<g transform="translate(79.4892, 23.4621)">
<polygon stroke-linejoin="round" stroke-linecap="round" stroke-width="0.0800" fill="currentColor" stroke="currentColor" points="2.5942 -0.0100 2.5942 0.4380 0.0400 0.2240 0.0400 -0.2240"/>
</g>
<a style="color:inherit;" xlink:href="textedit:///Users/marc.mouries/projects/Sheet-Music/Folk_USA/Jerusalem-Ridge/Jerusulam-Ridge_-Kenny-Baker.ly:30:11:12">
<g transform="translate(30.0979, 28.0761)">
<path transform="scale(0.0040, -0.0040)" d="M218 136c66 0 108 -36 108 -89c0 -89 -113 -183 -218 -183c-66 0 -108 36 -108 89c0 89 113 183 218 183z" fill="currentColor"/>
</g>
</a>
<g transform="translate(31.3372, 25.8761)">
<rect x="-0.0650" y="-1.6500" width="0.1300" height="3.6639" ry="0.0400" fill="currentColor"/>
</g>
<g transform="translate(31.4022, 24.2661)">
<path transform="scale(0.0040, -0.0040)" d="M0 0v-250h-16v250h16zM0 0c0 -197 207 -336 207 -533c0 -71 -15 -141 -41 -207c-5 -8 -13 -12 -20 -12c-13 0 -26 11 -23 27c26 61 42 126 42 192c0 103 -94 208 -165 283v250z" fill="currentColor"/>
</g>
<a style="color:inherit;" xlink:href="textedit:///Users/marc.mouries/projects/Sheet-Music/Folk_USA/Jerusalem-Ridge/Jerusulam-Ridge_-Kenny-Baker.ly:32:28:29">
<g transform="translate(80.8192, 25.8761)">
<path stroke-width="0.0800" stroke-linejoin="round" stroke-linecap="round" stroke="currentColor" fill="currentColor" d="M0.5524 2.3600C1.6415 3.9121 5.1854 4.7474 6.8530 3.8450L6.8530 3.8450C5.2130 4.6306 1.6690 3.7953 0.5524 2.3600z"/>
</g>
</a>
<a style="color:inherit;" xlink:href="textedit:///Users/marc.mouries/projects/Sheet-Music/Folk_USA/Jerusalem-Ridge/Jerusulam-Ridge_-Kenny-Baker.ly:30:14:15">
<g transform="translate(32.6654, 25.8761)">
<path transform="scale(0.0040, -0.0040)" d="M70 205c79 0 46 -98 91 -98c16 0 54 48 61 63c6 12 23 12 28 0l-123 -420c-8 -7 -17 -10 -27 -10s-20 3 -28 10l117 326c-34 -12 -69 -22 -105 -22c-47 0 -87 34 -87 79c0 40 33 72 73 72z" fill="currentColor"/>
</g>
</a>
<g transform="translate(74.2308, 24.5621)">
<polygon stroke-linejoin="round" stroke-linecap="round" stroke-width="0.0800" fill="currentColor" stroke="currentColor" points="2.8442 -0.8960 2.8442 -0.4480 0.0400 0.2240 0.0400 -0.2240"/>
</g>
<a style="color:inherit;" xlink:href="textedit:///Users/marc.mouries/projects/Sheet-Music/Folk_USA/Jerusalem-Ridge/Jerusulam-Ridge_-Kenny-Baker.ly:30:17:18">
<g transform="translate(34.8654, 28.0761)">
<path transform="scale(0.0040, -0.0040)" d="M218 136c66 0 108 -36 108 -89c0 -89 -113 -183 -218 -183c-66 0 -108 36 -108 89c0 89 113 183 218 183z" fill="currentColor"/>
</g>
</a>
<a style="color:inherit;" xlink:href="textedit:///Users/marc.mouries/projects/Sheet-Music/Folk_USA/Jerusalem-Ridge/Jerusulam-Ridge_-Kenny-Baker.ly:30:19:20">
<g transform="translate(35.5175, 23.3511)">
<path transform="scale(0.0040, -0.0040)" d="M128 508c2 7 9 12 17 12c10 0 18 -7 18 -17c0 -2 -1 -4 -1 -6l-145 -485c-2 -7 -9 -12 -17 -12s-15 5 -17 12l-145 485v6c0 10 7 17 17 17c8 0 15 -5 17 -12l88 -295l40 -164l40 164z" fill="currentColor"/>
</g>
</a>
<g transform="translate(36.1046, 25.8761)">
<rect x="-0.0650" y="-1.3291" width="0.1300" height="3.3430" ry="0.0400" fill="currentColor"/>
</g>
<g transform="translate(69.2223, 25.8761)">
<polygon stroke-linejoin="round" stroke-linecap="round" stroke-width="0.0800" fill="currentColor" stroke="currentColor" points="2.5942 -0.4380 2.5942 0.0100 0.0400 0.2240 0.0400 -0.2240"/>
</g>
<a style="color:inherit;" xlink:href="textedit:///Users/marc.mouries/projects/Sheet-Music/Folk_USA/Jerusalem-Ridge/Jerusulam-Ridge_-Kenny-Baker.ly:30:27:28">
<g transform="translate(37.6196, 26.9761)">
<path transform="scale(0.0040, -0.0040)" d="M218 136c66 0 108 -36 108 -89c0 -89 -113 -183 -218 -183c-66 0 -108 36 -108 89c0 89 113 183 218 183z" fill="currentColor"/>
</g>
</a>
<g transform="translate(38.8588, 25.8761)">
<rect x="-0.0650" y="-1.9709" width="0.1300" height="2.8847" ry="0.0400" fill="currentColor"/>
</g>
<g transform="translate(64.2139, 25.8761)">
<polygon stroke-linejoin="round" stroke-linecap="round" stroke-width="0.0800" fill="currentColor" stroke="currentColor" points="2.5942 -0.4380 2.5942 0.0100 0.0400 0.2240 0.0400 -0.2240"/>
</g>
<g transform="translate(58.1155, 24.9901)">
<polygon stroke-linejoin="round" stroke-linecap="round" stroke-width="0.0800" fill="currentColor" stroke="currentColor" points="2.3442 0.4480 2.3442 0.8960 0.0400 0.2240 0.0400 -0.2240"/>
</g>
<a style="color:inherit;" xlink:href="textedit:///Users/marc.mouries/projects/Sheet-Music/Folk_USA/Jerusalem-Ridge/Jerusulam-Ridge_-Kenny-Baker.ly:31:2:3">
<g transform="translate(41.4160, 28.0761)">
<path transform="scale(0.0040, -0.0040)" d="M218 136c66 0 108 -36 108 -89c0 -89 -113 -183 -218 -183c-66 0 -108 36 -108 89c0 89 113 183 218 183z" fill="currentColor"/>
</g>
</a>
<a style="color:inherit;" xlink:href="textedit:///Users/marc.mouries/projects/Sheet-Music/Folk_USA/Jerusalem-Ridge/Jerusulam-Ridge_-Kenny-Baker.ly:31:3:4">
<g transform="translate(42.0681, 23.3511)">
<path transform="scale(0.0040, -0.0040)" d="M-178 333h356c6 0 10 -4 10 -10v-308c0 -8 -7 -15 -15 -15s-16 7 -16 15v185h-314v-185c0 -8 -7 -15 -15 -15s-16 7 -16 15v308c0 6 4 10 10 10z" fill="currentColor"/>
</g>
</a>
<g transform="translate(42.6552, 25.8761)">
<rect x="-0.0650" y="-1.0947" width="0.1300" height="3.1086" ry="0.0400" fill="currentColor"/>
</g>
<a style="color:inherit;" xlink:href="textedit:///Users/marc.mouries/projects/Sheet-Music/Folk_USA/Jerusalem-Ridge/Jerusulam-Ridge_-Kenny-Baker.ly:31:25:26">
<g transform="translate(59.1955, 25.8761)">
<path stroke-width="0.0800" stroke-linejoin="round" stroke-linecap="round" stroke="currentColor" fill="currentColor" d="M0.6146 4.3950C1.9025 5.7612 5.4593 6.0693 6.9630 4.9450L6.9630 4.9450C5.4697 5.9498 1.9129 5.6416 0.6146 4.3950z"/>
</g>
</a>
<a style="color:inherit;" xlink:href="textedit:///Users/marc.mouries/projects/Sheet-Music/Folk_USA/Jerusalem-Ridge/Jerusulam-Ridge_-Kenny-Baker.ly:31:12:13">
<g transform="translate(43.9202, 28.6261)">
<path transform="scale(0.0040, -0.0040)" d="M218 136c66 0 108 -36 108 -89c0 -89 -113 -183 -218 -183c-66 0 -108 36 -108 89c0 89 113 183 218 183z" fill="currentColor"/>
</g>
</a>
<g transform="translate(45.1594, 25.8761)">
<rect x="-0.0650" y="-0.8913" width="0.1300" height="3.4552" ry="0.0400" fill="currentColor"/>
</g>
<g transform="translate(52.8571, 25.6621)">
<polygon stroke-linejoin="round" stroke-linecap="round" stroke-width="0.0800" fill="currentColor" stroke="currentColor" points="2.5942 -0.0100 2.5942 0.4380 0.0400 0.2240 0.0400 -0.2240"/>
</g>
<a style="color:inherit;" xlink:href="textedit:///Users/marc.mouries/projects/Sheet-Music/Folk_USA/Jerusalem-Ridge/Jerusulam-Ridge_-Kenny-Baker.ly:31:14:15">
<g transform="translate(46.4244, 29.1761)">
<path transform="scale(0.0040, -0.0040)" d="M218 136c66 0 108 -36 108 -89c0 -89 -113 -183 -218 -183c-66 0 -108 36 -108 89c0 89 113 183 218 183z" fill="currentColor"/>
</g>
</a>
<g transform="translate(47.6636, 25.8761)">
<rect x="-0.0650" y="-0.2291" width="0.1300" height="3.3430" ry="0.0400" fill="currentColor"/>
</g>
<g transform="translate(47.5986, 25.6621)">
<polygon stroke-linejoin="round" stroke-linecap="round" stroke-width="0.0800" fill="currentColor" stroke="currentColor" points="2.8442 -0.8960 2.8442 -0.4480 0.0400 0.2240 0.0400 -0.2240"/>
</g>
<a style="color:inherit;" xlink:href="textedit:///Users/marc.mouries/projects/Sheet-Music/Folk_USA/Jerusalem-Ridge/Jerusulam-Ridge_-Kenny-Baker.ly:31:16:17">
<g transform="translate(49.1786, 28.0761)">
<path transform="scale(0.0040, -0.0040)" d="M218 136c66 0 108 -36 108 -89c0 -89 -113 -183 -218 -183c-66 0 -108 36 -108 89c0 89 113 183 218 183z" fill="currentColor"/>
</g>
</a>
<g transform="translate(50.4179, 25.8761)">
<rect x="-0.0650" y="-0.8709" width="0.1300" height="2.8847" ry="0.0400" fill="currentColor"/>
</g>
<g transform="translate(42.5902, 24.7761)">
<polygon stroke-linejoin="round" stroke-linecap="round" stroke-width="0.0800" fill="currentColor" stroke="currentColor" points="2.5942 -0.0100 2.5942 0.4380 0.0400 0.2240 0.0400 -0.2240"/>
</g>
<a style="color:inherit;" xlink:href="textedit:///Users/marc.mouries/projects/Sheet-Music/Folk_USA/Jerusalem-Ridge/Jerusulam-Ridge_-Kenny-Baker.ly:31:18:19">
<g transform="translate(51.6829, 28.6261)">
<path transform="scale(0.0040, -0.0040)" d="M218 136c66 0 108 -36 108 -89c0 -89 -113 -183 -218 -183c-66 0 -108 36 -108 89c0 89 113 183 218 183z" fill="currentColor"/>
</g>
</a>
<g transform="translate(52.9221, 25.8761)">
<rect x="-0.0650" y="-0.2087" width="0.1300" height="2.7726" ry="0.0400" fill="currentColor"/>
</g>
<g transform="translate(36.0396, 24.5621)">
<polygon stroke-linejoin="round" stroke-linecap="round" stroke-width="0.0800" fill="currentColor" stroke="currentColor" points="2.8442 -0.8960 2.8442 -0.4480 0.0400 0.2240 0.0400 -0.2240"/>
</g>
<a style="color:inherit;" xlink:href="textedit:///Users/marc.mouries/projects/Sheet-Music/Folk_USA/Jerusalem-Ridge/Jerusulam-Ridge_-Kenny-Baker.ly:31:20:21">
<g transform="translate(54.1871, 29.1761)">
<path transform="scale(0.0040, -0.0040)" d="M218 136c66 0 108 -36 108 -89c0 -89 -113 -183 -218 -183c-66 0 -108 36 -108 89c0 89 113 183 218 183z" fill="currentColor"/>
</g>
</a>
<g transform="translate(55.4263, 25.8761)">
<rect x="-0.0650" y="-0.0053" width="0.1300" height="3.1192" ry="0.0400" fill="currentColor"/>
</g>
<a style="color:inherit;" xlink:href="textedit:///Users/marc.mouries/projects/Sheet-Music/Folk_USA/Jerusalem-Ridge/Jerusulam-Ridge_-Kenny-Baker.ly:30:25:26">
<g transform="translate(34.8654, 25.8761)">
<path stroke-width="0.0800" stroke-linejoin="round" stroke-linecap="round" stroke="currentColor" fill="currentColor" d="M0.7919 3.2950C1.7590 3.7383 3.0487 3.3005 3.5461 2.3600L3.5461 2.3600C3.0101 3.1869 1.7205 3.6247 0.7919 3.2950z"/>
</g>
</a>
<a style="color:inherit;" xlink:href="textedit:///Users/marc.mouries/projects/Sheet-Music/Folk_USA/Jerusalem-Ridge/Jerusulam-Ridge_-Kenny-Baker.ly:31:22:23">
<g transform="translate(56.9413, 28.0761)">
<path transform="scale(0.0040, -0.0040)" d="M218 136c66 0 108 -36 108 -89c0 -89 -113 -183 -218 -183c-66 0 -108 36 -108 89c0 89 113 183 218 183z" fill="currentColor"/>
</g>
</a>
<g transform="translate(58.1805, 25.8761)">
<rect x="-0.0650" y="-0.8677" width="0.1300" height="2.8816" ry="0.0400" fill="currentColor"/>
</g>
<g transform="translate(26.2637, 25.8761)">
<polygon stroke-linejoin="round" stroke-linecap="round" stroke-width="0.0800" fill="currentColor" stroke="currentColor" points="2.5942 -0.4380 2.5942 0.0100 0.0400 0.2240 0.0400 -0.2240"/>
</g>
<a style="color:inherit;" xlink:href="textedit:///Users/marc.mouries/projects/Sheet-Music/Folk_USA/Jerusalem-Ridge/Jerusulam-Ridge_-Kenny-Baker.ly:31:24:25">
<g transform="translate(59.1955, 29.1761)">
<path transform="scale(0.0040, -0.0040)" d="M218 136c66 0 108 -36 108 -89c0 -89 -113 -183 -218 -183c-66 0 -108 36 -108 89c0 89 113 183 218 183z" fill="currentColor"/>
</g>
</a>
<g transform="translate(60.4347, 25.8761)">
<rect x="-0.0650" y="-0.2323" width="0.1300" height="3.3462" ry="0.0400" fill="currentColor"/>
</g>
<g transform="translate(21.2553, 25.8761)">
<polygon stroke-linejoin="round" stroke-linecap="round" stroke-width="0.0800" fill="currentColor" stroke="currentColor" points="2.5942 -0.4380 2.5942 0.0100 0.0400 0.2240 0.0400 -0.2240"/>
</g>
<a style="color:inherit;" xlink:href="textedit:///Users/marc.mouries/projects/Sheet-Music/Folk_USA/Jerusalem-Ridge/Jerusulam-Ridge_-Kenny-Baker.ly:32:2:3">
<g transform="translate(63.0397, 30.2761)">
<path transform="scale(0.0040, -0.0040)" d="M218 136c66 0 108 -36 108 -89c0 -89 -113 -183 -218 -183c-66 0 -108 36 -108 89c0 89 113 183 218 183z" fill="currentColor"/>
</g>
</a>
<g transform="translate(64.2789, 25.8761)">
<rect x="-0.0650" y="-0.0053" width="0.1300" height="4.2192" ry="0.0400" fill="currentColor"/>
</g>
<g transform="translate(100.8151, 25.6621)">
<polygon stroke-linejoin="round" stroke-linecap="round" stroke-width="0.0800" fill="currentColor" stroke="currentColor" points="2.5942 -0.0100 2.5942 0.4380 0.0400 0.2240 0.0400 -0.2240"/>
</g>
<a style="color:inherit;" xlink:href="textedit:///Users/marc.mouries/projects/Sheet-Music/Folk_USA/Jerusalem-Ridge/Jerusulam-Ridge_-Kenny-Baker.ly:32:5:6">
<g transform="translate(65.5439, 29.7261)">
<path transform="scale(0.0040, -0.0040)" d="M218 136c66 0 108 -36 108 -89c0 -89 -113 -183 -218 -183c-66 0 -108 36 -108 89c0 89 113 183 218 183z" fill="currentColor"/>
</g>
</a>
<g transform="translate(66.7831, 25.8761)">
<rect x="-0.0650" y="-0.2087" width="0.1300" height="3.8726" ry="0.0400" fill="currentColor"/>
</g>
<a style="color:inherit;" xlink:href="textedit:///Users/marc.mouries/projects/Sheet-Music/Folk_USA/Jerusalem-Ridge/Jerusulam-Ridge_-Kenny-Baker.ly:32:8:9">
<g transform="translate(68.0481, 29.1761)">
<path transform="scale(0.0040, -0.0040)" d="M218 136c66 0 108 -36 108 -89c0 -89 -113 -183 -218 -183c-66 0 -108 36 -108 89c0 89 113 183 218 183z" fill="currentColor"/>
</g>
</a>
<a style="color:inherit;" xlink:href="textedit:///Users/marc.mouries/projects/Sheet-Music/Folk_USA/Jerusalem-Ridge/Jerusulam-Ridge_-Kenny-Baker.ly:32:9:10">
<g transform="translate(68.7002, 23.3511)">
<path transform="scale(0.0040, -0.0040)" d="M-178 333h356c6 0 10 -4 10 -10v-308c0 -8 -7 -15 -15 -15s-16 7 -16 15v185h-314v-185c0 -8 -7 -15 -15 -15s-16 7 -16 15v308c0 6 4 10 10 10z" fill="currentColor"/>
</g>
</a>
<g transform="translate(69.2873, 25.8761)">
<rect x="-0.0650" y="-0.0053" width="0.1300" height="3.1192" ry="0.0400" fill="currentColor"/>
</g>
<a style="color:inherit;" xlink:href="textedit:///Users/marc.mouries/projects/Sheet-Music/Folk_USA/Jerusalem-Ridge/Jerusulam-Ridge_-Kenny-Baker.ly:32:18:19">
<g transform="translate(70.5523, 28.6261)">
<path transform="scale(0.0040, -0.0040)" d="M218 136c66 0 108 -36 108 -89c0 -89 -113 -183 -218 -183c-66 0 -108 36 -108 89c0 89 113 183 218 183z" fill="currentColor"/>
</g>
</a>
<g transform="translate(71.7916, 25.8761)">
<rect x="-0.0650" y="-0.2087" width="0.1300" height="2.7726" ry="0.0400" fill="currentColor"/>
</g>
<a style="color:inherit;" xlink:href="textedit:///Users/marc.mouries/projects/Sheet-Music/Folk_USA/Jerusalem-Ridge/Jerusulam-Ridge_-Kenny-Baker.ly:32:20:21">
<g transform="translate(73.0566, 28.0761)">
<path transform="scale(0.0040, -0.0040)" d="M218 136c66 0 108 -36 108 -89c0 -89 -113 -183 -218 -183c-66 0 -108 36 -108 89c0 89 113 183 218 183z" fill="currentColor"/>
</g>
</a>
<g transform="translate(74.2958, 25.8761)">
<rect x="-0.0650" y="-1.3291" width="0.1300" height="3.3430" ry="0.0400" fill="currentColor"/>
</g>
<a style="color:inherit;" xlink:href="textedit:///Users/marc.mouries/projects/Sheet-Music/Folk_USA/Jerusalem-Ridge/Jerusulam-Ridge_-Kenny-Baker.ly:32:22:23">
<g transform="translate(75.8108, 26.9761)">
<path transform="scale(0.0040, -0.0040)" d="M218 136c66 0 108 -36 108 -89c0 -89 -113 -183 -218 -183c-66 0 -108 36 -108 89c0 89 113 183 218 183z" fill="currentColor"/>
</g>
</a>
<g transform="translate(77.0500, 25.8761)">
<rect x="-0.0650" y="-1.9709" width="0.1300" height="2.8847" ry="0.0400" fill="currentColor"/>
</g>
<a style="color:inherit;" xlink:href="textedit:///Users/marc.mouries/projects/Sheet-Music/Folk_USA/Jerusalem-Ridge/Jerusulam-Ridge_-Kenny-Baker.ly:32:24:25">
<g transform="translate(78.3150, 26.4261)">
<path transform="scale(0.0040, -0.0040)" d="M218 136c66 0 108 -36 108 -89c0 -89 -113 -183 -218 -183c-66 0 -108 36 -108 89c0 89 113 183 218 183z" fill="currentColor"/>
</g>
</a>
<g transform="translate(79.5542, 25.8761)">
<rect x="-0.0650" y="-2.4087" width="0.1300" height="2.7726" ry="0.0400" fill="currentColor"/>
</g>
<a style="color:inherit;" xlink:href="textedit:///Users/marc.mouries/projects/Sheet-Music/Folk_USA/Jerusalem-Ridge/Jerusulam-Ridge_-Kenny-Baker.ly:32:27:28">
<g transform="translate(80.8192, 26.9761)">
<path transform="scale(0.0040, -0.0040)" d="M218 136c66 0 108 -36 108 -89c0 -89 -113 -183 -218 -183c-66 0 -108 36 -108 89c0 89 113 183 218 183z" fill="currentColor"/>
</g>
</a>
<g transform="translate(82.0584, 25.8761)">
<rect x="-0.0650" y="-2.2053" width="0.1300" height="3.1192" ry="0.0400" fill="currentColor"/>
</g>
<a style="color:inherit;" xlink:href="textedit:///Users/marc.mouries/projects/Sheet-Music/Folk_USA/Jerusalem-Ridge/Jerusulam-Ridge_-Kenny-Baker.ly:33:2:3">
<g transform="translate(84.6156, 28.0761)">
<path transform="scale(0.0040, -0.0040)" d="M218 136c66 0 108 -36 108 -89c0 -89 -113 -183 -218 -183c-66 0 -108 36 -108 89c0 89 113 183 218 183z" fill="currentColor"/>
</g>
</a>
<g transform="translate(85.8548, 25.8761)">
<rect x="-0.0650" y="-1.0947" width="0.1300" height="3.1086" ry="0.0400" fill="currentColor"/>
</g>
<a style="color:inherit;" xlink:href="textedit:///Users/marc.mouries/projects/Sheet-Music/Folk_USA/Jerusalem-Ridge/Jerusulam-Ridge_-Kenny-Baker.ly:33:4:5">
<g transform="translate(87.1198, 28.6261)">
<path transform="scale(0.0040, -0.0040)" d="M218 136c66 0 108 -36 108 -89c0 -89 -113 -183 -218 -183c-66 0 -108 36 -108 89c0 89 113 183 218 183z" fill="currentColor"/>
</g>
</a>
<g transform="translate(88.3590, 25.8761)">
<rect x="-0.0650" y="-0.8913" width="0.1300" height="3.4552" ry="0.0400" fill="currentColor"/>
</g>
<a style="color:inherit;" xlink:href="textedit:///Users/marc.mouries/projects/Sheet-Music/Folk_USA/Jerusalem-Ridge/Jerusulam-Ridge_-Kenny-Baker.ly:33:7:8">
<g transform="translate(89.6240, 29.1761)">
<path transform="scale(0.0040, -0.0040)" d="M218 136c66 0 108 -36 108 -89c0 -89 -113 -183 -218 -183c-66 0 -108 36 -108 89c0 89 113 183 218 183z" fill="currentColor"/>
</g>
</a>
<a style="color:inherit;" xlink:href="textedit:///Users/marc.mouries/projects/Sheet-Music/Folk_USA/Jerusalem-Ridge/Jerusulam-Ridge_-Kenny-Baker.ly:33:8:9">
<g transform="translate(90.2761, 23.3511)">
<path transform="scale(0.0040, -0.0040)" d="M-178 333h356c6 0 10 -4 10 -10v-308c0 -8 -7 -15 -15 -15s-16 7 -16 15v185h-314v-185c0 -8 -7 -15 -15 -15s-16 7 -16 15v308c0 6 4 10 10 10z" fill="currentColor"/>
</g>
</a>
<g transform="translate(90.8632, 25.8761)">
<rect x="-0.0650" y="-0.2291" width="0.1300" height="3.3430" ry="0.0400" fill="currentColor"/>
</g>
<a style="color:inherit;" xlink:href="textedit:///Users/marc.mouries/projects/Sheet-Music/Folk_USA/Jerusalem-Ridge/Jerusulam-Ridge_-Kenny-Baker.ly:33:17:18">
<g transform="translate(92.3782, 28.0761)">
<path transform="scale(0.0040, -0.0040)" d="M218 136c66 0 108 -36 108 -89c0 -89 -113 -183 -218 -183c-66 0 -108 36 -108 89c0 89 113 183 218 183z" fill="currentColor"/>
</g>
</a>
<g transform="translate(93.6175, 25.8761)">
<rect x="-0.0650" y="-0.8709" width="0.1300" height="2.8847" ry="0.0400" fill="currentColor"/>
</g>
<a style="color:inherit;" xlink:href="textedit:///Users/marc.mouries/projects/Sheet-Music/Folk_USA/Jerusalem-Ridge/Jerusulam-Ridge_-Kenny-Baker.ly:33:20:21">
<g transform="translate(94.8825, 28.6261)">
<path transform="scale(0.0040, -0.0040)" d="M218 136c66 0 108 -36 108 -89c0 -89 -113 -183 -218 -183c-66 0 -108 36 -108 89c0 89 113 183 218 183z" fill="currentColor"/>
</g>
</a>
<g transform="translate(96.1217, 25.8761)">
<rect x="-0.0650" y="-0.2087" width="0.1300" height="2.7726" ry="0.0400" fill="currentColor"/>
</g>
<a style="color:inherit;" xlink:href="textedit:///Users/marc.mouries/projects/Sheet-Music/Folk_USA/Jerusalem-Ridge/Jerusulam-Ridge_-Kenny-Baker.ly:33:23:24">
<g transform="translate(97.3867, 29.1761)">
<path transform="scale(0.0040, -0.0040)" d="M218 136c66 0 108 -36 108 -89c0 -89 -113 -183 -218 -183c-66 0 -108 36 -108 89c0 89 113 183 218 183z" fill="currentColor"/>
</g>
</a>
<g transform="translate(98.6259, 25.8761)">
<rect x="-0.0650" y="-0.0053" width="0.1300" height="3.1192" ry="0.0400" fill="currentColor"/>
</g>
<g transform="translate(103.3843, 25.8761)">
<rect x="-0.0650" y="-0.0053" width="0.1300" height="4.7692" ry="0.0400" fill="currentColor"/>
</g>
<a style="color:inherit;" xlink:href="textedit:///Users/marc.mouries/projects/Sheet-Music/Folk_USA/Jerusalem-Ridge/Jerusulam-Ridge_-Kenny-Baker.ly:33:26:27">
<g transform="translate(99.6409, 30.2761)">
<path transform="scale(0.0040, -0.0040)" d="M218 136c66 0 108 -36 108 -89c0 -89 -113 -183 -218 -183c-66 0 -108 36 -108 89c0 89 113 183 218 183z" fill="currentColor"/>
</g>
</a>
<g transform="translate(100.8801, 25.8761)">
<rect x="-0.0650" y="-0.2087" width="0.1300" height="4.4226" ry="0.0400" fill="currentColor"/>
</g>
<a style="color:inherit;" xlink:href="textedit:///Users/marc.mouries/projects/Sheet-Music/Folk_USA/Jerusalem-Ridge/Jerusulam-Ridge_-Kenny-Baker.ly:33:28:29">
<g transform="translate(102.1451, 30.8261)">
<path transform="scale(0.0040, -0.0040)" d="M218 136c66 0 108 -36 108 -89c0 -89 -113 -183 -218 -183c-66 0 -108 36 -108 89c0 89 113 183 218 183z" fill="currentColor"/>
</g>
</a>
</svg>
